<svg xmlns="http://www.w3.org/2000/svg" width="78" height="78" viewBox="0 0 78 78">
  <g id="Group_2311" data-name="Group 2311" transform="translate(-2668 7175)">
    <rect id="Rectangle_3489" data-name="Rectangle 3489" width="78" height="78" transform="translate(2668 -7175)" fill="#fff"/>
    <g id="Group_2306" data-name="Group 2306" transform="translate(2106.135 -7634.749)">
      <path id="Path_1994" data-name="Path 1994" d="M66.1,50.85,54.7,55.012l-8.183-10.8-5.658,9.352-.748,1.485L27.37,51.318l.456,17.2,18.553,5.728L66.791,68.4Zm-3.753,13.3L51.1,67.942v-6.36l11.246-3.788Z" transform="translate(553.928 447.794)" fill="#a5e3e8"/>
      <g id="Group_1697" data-name="Group 1697" transform="translate(569.805 473.337)">
        <path id="Path_1995" data-name="Path 1995" d="M40.891,57a.873.873,0,0,1-.345,0L21.181,50.249a1.045,1.045,0,0,1-.643-1.344.884.884,0,0,1,.08-.184L27.51,37.167a1.068,1.068,0,0,1,1.252-.459l19.365,6.7a1.068,1.068,0,0,1,.6,1.367.7.7,0,0,1-.08.161L41.753,56.486A1.045,1.045,0,0,1,40.891,57Zm-17.8-8.327,17.332,6,5.743-9.706-17.3-6Z" transform="translate(-16.7 -25.953)" fill="#17494d"/>
        <path id="Path_1996" data-name="Path 1996" d="M51.239,57a1.068,1.068,0,0,1-.907-.517L43.44,44.932a1.045,1.045,0,0,1,.368-1.447l.2-.092,19.365-6.7a1.068,1.068,0,0,1,1.252.459l6.892,11.555a1.057,1.057,0,0,1-.379,1.447l-.184.08L51.583,56.947A1.149,1.149,0,0,1,51.239,57ZM45.932,44.967l5.743,9.706,17.355-6-5.743-9.706Z" transform="translate(-13.31 -25.955)" fill="#17494d"/>
        <path id="Path_1997" data-name="Path 1997" d="M44.367,75.9a1.057,1.057,0,0,1-1.057-1.057V43.5a1.057,1.057,0,0,1,2.113,0V74.842A1.057,1.057,0,0,1,44.367,75.9Z" transform="translate(-13.307 -25.093)" fill="#17494d"/>
        <path id="Path_1998" data-name="Path 1998" d="M46.884,74.958a.873.873,0,0,1-.345,0L27.162,68.3a1.068,1.068,0,0,1-.712-1V49.827a1.057,1.057,0,0,1,2.113,0V66.493l18.378,6.294,18.24-6.294V49.827a1.057,1.057,0,0,1,2.113,0V67.239a1.068,1.068,0,0,1-.712,1L47.228,74.9A1.149,1.149,0,0,1,46.884,74.958Z" transform="translate(-15.812 -24.153)" fill="#17494d"/>
        <path id="Path_1999" data-name="Path 1999" d="M63.728,40.134a1.149,1.149,0,0,1-.345,0L44.018,33.38a1.057,1.057,0,0,1-.609-1.367,1.034,1.034,0,0,1,.609-.609l10.648-4a1.08,1.08,0,0,1,.712,0l19.365,6.7a1.057,1.057,0,0,1,.609,1.367,1.034,1.034,0,0,1-.609.609l-10.648,4A.988.988,0,0,1,63.728,40.134ZM47.464,32.347,63.7,37.963l7.558-2.837L55.021,29.51Z" transform="translate(-13.303 -27.336)" fill="#17494d"/>
        <path id="Path_2000" data-name="Path 2000" d="M28.883,40.136a1,1,0,0,1-.368-.069l-10.648-4a1.057,1.057,0,0,1-.609-1.367,1.034,1.034,0,0,1,.609-.609l19.365-6.7a1.08,1.08,0,0,1,.712,0l10.648,4a1.057,1.057,0,0,1,.632,1.355,1.045,1.045,0,0,1-.632.632l-19.365,6.7A1.149,1.149,0,0,1,28.883,40.136Zm-7.535-5.008,7.546,2.837,16.253-5.617-7.5-2.837Z" transform="translate(-17.189 -27.337)" fill="#17494d"/>
        <path id="Path_2001" data-name="Path 2001" d="M44.367,75.9a1.057,1.057,0,0,1-1.057-1.057V43.5a1.057,1.057,0,0,1,2.113,0V74.842A1.057,1.057,0,0,1,44.367,75.9Z" transform="translate(-13.307 -25.093)" fill="#17494d"/>
        <path id="Path_2002" data-name="Path 2002" d="M46.884,74.958a.873.873,0,0,1-.345,0L27.162,68.3a1.068,1.068,0,0,1-.712-1V49.827a1.057,1.057,0,0,1,2.113,0V66.493l18.378,6.294,18.24-6.294V49.827a1.057,1.057,0,0,1,2.113,0V67.239a1.068,1.068,0,0,1-.712,1L47.228,74.9A1.149,1.149,0,0,1,46.884,74.958Z" transform="translate(-15.812 -24.153)" fill="#17494d"/>
      </g>
    </g>
  </g>
</svg>
