<svg xmlns="http://www.w3.org/2000/svg" width="72" height="72" viewBox="0 0 72 72">
  <g id="Group_1801" data-name="Group 1801" transform="translate(-402 -201)">
    <rect id="Rectangle_3273" data-name="Rectangle 3273" width="72" height="72" transform="translate(402 201)" fill="none"/>
    <g id="Group_1800" data-name="Group 1800" transform="translate(-5.725 -6.238)">
      <path id="Subtraction_6" data-name="Subtraction 6" d="M38.746,52.637H1a1,1,0,0,1-1-1V1A1,1,0,0,1,1,0H37.746a2,2,0,0,1,2,2V51.637A1,1,0,0,1,38.746,52.637ZM9.057,35.986a1,1,0,0,0-1,1v7.668a1,1,0,0,0,1,1H17.8a1,1,0,0,0,1-1V36.986a1,1,0,0,0-1-1Zm13.756,5.536a1.074,1.074,0,0,0,0,2.148h9.08a1.074,1.074,0,1,0,0-2.148Zm0-4.3a1.074,1.074,0,0,0,0,2.148h9.08a1.074,1.074,0,1,0,0-2.148ZM9.057,18.8a1,1,0,0,0-1,1v7.668a1,1,0,0,0,1,1H17.8a1,1,0,0,0,1-1V19.8a1,1,0,0,0-1-1Zm13.756,5.536a1.075,1.075,0,0,0,0,2.149h9.08a1.075,1.075,0,0,0,0-2.149Zm0-4.3a1.075,1.075,0,0,0,0,2.149h9.08a1.075,1.075,0,0,0,0-2.149Z" transform="translate(420.955 216.637)" fill="#d7e1e2"/>
      <rect id="Rectangle_3209" data-name="Rectangle 3209" width="39.359" height="53.416" rx="1" transform="translate(420.876 216.823)" fill="none" stroke="#3a6469" stroke-linejoin="round" stroke-width="2"/>
      <g id="Group_1713" data-name="Group 1713" transform="translate(445.078 225.763)">
        <g id="Path_2039" data-name="Path 2039" transform="translate(21.928 3.11) rotate(45)" fill="#d7e1e2">
          <path d="M 3.269347667694092 29.90867042541504 L 0.50038081407547 24.5958137512207 L 0.5000103712081909 0.500006377696991 L 5.908450603485107 0.5000907778739929 L 5.908821105957031 24.60093307495117 L 3.269347667694092 29.90867042541504 Z" stroke="none"/>
          <path d="M 1.000018119812012 1.00001335144043 L 1.000379085540771 24.47332000732422 L 3.258894205093384 28.80676460266113 L 5.408819198608398 24.48345756530762 L 5.408458232879639 1.000083923339844 L 1.000018119812012 1.00001335144043 M 2.86102294921875e-06 -1.9073486328125e-06 L 6.408442497253418 9.918212890625e-05 L 6.408822536468506 24.7183780670166 L 3.279802799224854 31.01055908203125 L 0.0003829002380371094 24.71828842163086 L 2.86102294921875e-06 -1.9073486328125e-06 Z" stroke="none" fill="#3a6469"/>
        </g>
        <path id="Path_2042" data-name="Path 2042" d="M-24375.508-5536.873l3.514,3.633-5.121,1.883Z" transform="translate(24380.404 5557.864)" fill="#fff"/>
        <path id="Path_2038" data-name="Path 2038" d="M-24406.314-5536.753l-1.678,5.1,4.813-1.844Z" transform="translate(24411.416 5557.873)" fill="#fff"/>
        <g id="Path_2036" data-name="Path 2036" transform="translate(21.928 3.11) rotate(45)" fill="none">
          <path d="M0,0H6.408V24.718L3.28,31.011,0,24.718Z" stroke="none"/>
          <path d="M 1.500025749206543 1.500022888183594 L 1.500377178192139 24.35084342956543 L 3.248438596725464 27.70487403869629 L 4.908817291259766 24.36600112915039 L 4.90846586227417 1.50007438659668 L 1.500025749206543 1.500022888183594 M 2.86102294921875e-06 -1.9073486328125e-06 L 6.408442497253418 9.918212890625e-05 L 6.408822536468506 24.7183780670166 L 3.279802799224854 31.01055908203125 L 0.0003829002380371094 24.71828842163086 L 2.86102294921875e-06 -1.9073486328125e-06 Z" stroke="none" fill="#3a6469"/>
        </g>
        <g id="Path_2043" data-name="Path 2043" transform="translate(25.039 0) rotate(45)" fill="#fff">
          <path d="M 5.658517360687256 4.563041687011719 L 0.7499972581863403 4.563041687011719 L 0.7499972581863403 2.493651866912842 C 0.7499972581863403 1.532201766967773 1.377347230911255 0.7500017881393433 2.148457288742065 0.7500017881393433 L 4.260067462921143 0.7500017881393433 C 5.031177043914795 0.7500017881393433 5.658517360687256 1.532201766967773 5.658517360687256 2.493651866912842 L 5.658517360687256 4.563041687011719 Z" stroke="none"/>
          <path d="M 2.148447036743164 1.500001907348633 C 1.842347145080566 1.500001907348633 1.499997138977051 1.924941778182983 1.499997138977051 2.493651866912842 L 1.499997138977051 3.813041687011719 L 4.908517360687256 3.813041687011719 L 4.908517360687256 2.493651866912842 C 4.908517360687256 1.924941778182983 4.56616735458374 1.500001907348633 4.260066986083984 1.500001907348633 L 2.148447036743164 1.500001907348633 M 2.148447036743164 1.9073486328125e-06 L 4.260066986083984 1.9073486328125e-06 C 5.446617126464844 1.9073486328125e-06 6.408517360687256 1.11644172668457 6.408517360687256 2.493651866912842 L 6.408517360687256 5.313041687011719 L -2.86102294921875e-06 5.313041687011719 L -2.86102294921875e-06 2.493651866912842 C -2.86102294921875e-06 1.11644172668457 0.9618973731994629 1.9073486328125e-06 2.148447036743164 1.9073486328125e-06 Z" stroke="none" fill="#3a6469"/>
        </g>
        <path id="Path_2037" data-name="Path 2037" d="M0,0H5.451" transform="translate(4.826 20.718) rotate(45)" fill="none" stroke="#3a6469" stroke-width="1"/>
        <path id="Path_2043-2" data-name="Path 2043" d="M-24397.738-5538.254a.552.552,0,0,1-.385-.157.539.539,0,0,1,0-.76l3.174-3.171a.54.54,0,0,1,.762,0,.538.538,0,0,1,0,.759l-3.174,3.171A.531.531,0,0,1-24397.738-5538.254Z" transform="translate(24410.922 5554.858)" fill="#fff"/>
        <path id="Path_2044" data-name="Path 2044" d="M-24397.738-5541.372a.542.542,0,0,1-.334-.114.538.538,0,0,1-.092-.755l.041-.053a.542.542,0,0,1,.758-.091.539.539,0,0,1,.088.754l-.041.054A.533.533,0,0,1-24397.738-5541.372Z" transform="translate(24415.41 5553.431)" fill="#fff"/>
      </g>
      <rect id="Rectangle_3211" data-name="Rectangle 3211" width="26.239" height="6.56" rx="1" transform="translate(427.436 222.445)" fill="#fff" stroke="#3a6469" stroke-width="2"/>
    </g>
  </g>
</svg>
