<svg xmlns="http://www.w3.org/2000/svg" width="72" height="72" viewBox="0 0 72 72">
  <g id="Group_1805" data-name="Group 1805" transform="translate(-76 -201)">
    <rect id="Rectangle_3269" data-name="Rectangle 3269" width="72" height="72" transform="translate(76 201)" fill="none"/>
    <g id="Group_1765" data-name="Group 1765" transform="translate(-730.057 -386.164)">
      <path id="Subtraction_16" data-name="Subtraction 16" d="M39.317,38.007H21.108a6.793,6.793,0,0,0-13.567,0H2a2,2,0,0,1-2-2V34.839H6.561a1,1,0,0,0,1-1v-7.5a1,1,0,0,0-1-1H0V2A2,2,0,0,1,2,0H37.316a2,2,0,0,1,2,2V38.006ZM22.181,12.681a.784.784,0,0,0,0,1.567H32.648a.784.784,0,0,0,0-1.567Zm-5.295-4.7a.784.784,0,0,0,0,1.567H32.66a.784.784,0,0,0,0-1.567Zm-4.49,0a.784.784,0,0,0,0,1.567h.047a.784.784,0,0,0,0-1.567Z" transform="translate(812.262 600.811)" fill="#d7e1e2"/>
      <path id="Union_27" data-name="Union 27" d="M23444.521,9995.664a4.857,4.857,0,0,0,4.854-4.85v-1.94h19.408v-32.991a1.943,1.943,0,0,0-1.941-1.939h-33.965a1.941,1.941,0,0,0-1.941,1.939v31.051a1.942,1.942,0,0,0,1.941,1.94h6.793v1.94a4.855,4.855,0,0,0,4.852,4.85m0,1.941a6.792,6.792,0,0,1-6.793-6.791h-4.852a3.881,3.881,0,0,1-3.883-3.881v-31.051a3.882,3.882,0,0,1,3.883-3.882h33.965a3.883,3.883,0,0,1,3.881,3.882v34.932h-19.4A6.8,6.8,0,0,1,23444.521,9997.605Z" transform="translate(-22617.936 -9351.64)" fill="#3a6469"/>
      <path id="Union_26" data-name="Union 26" d="M23441.613,9984.021a4.856,4.856,0,0,0,4.85-4.852v-1.939h3.885a2.017,2.017,0,0,0,.756-.513,2.875,2.875,0,0,0,.15-1.337l-.016-.1v-6.267c-.084-.192-.193-.442-.312-.7a74.7,74.7,0,0,0-5.674-10.792,25.421,25.421,0,0,0-2.57-3.4c-.16-.137-.205-.18-1.068-.18h-10.676v23.291h5.822v1.939a4.857,4.857,0,0,0,4.854,4.852m0,1.939a6.79,6.79,0,0,1-6.795-6.791H23429V9952h12.615c2.139,0,2.338.257,5.23,4.409a81.093,81.093,0,0,1,5.855,11.1c.258.57.479,1.1.479,1.1v6.533a4.7,4.7,0,0,1-.42,2.594,4.118,4.118,0,0,1-2.07,1.434h-2.285A6.786,6.786,0,0,1,23441.613,9985.961Z" transform="translate(-22578.148 -9339.998)" fill="#3a6469"/>
      <path id="Path_2107" data-name="Path 2107" d="M-23288.6-9711h-16.164v-12.878h10.326v1.94h-8.387v9h14.225Z" transform="translate(24162.629 10340.85)" fill="#3a6469"/>
      <path id="Ellipse_556_-_Outline" data-name="Ellipse 556 - Outline" d="M6.793,1.941a4.852,4.852,0,1,0,4.852,4.852A4.857,4.857,0,0,0,6.793,1.941M6.793,0A6.793,6.793,0,1,1,0,6.793,6.793,6.793,0,0,1,6.793,0Z" transform="translate(819.794 632.381)" fill="#3a6469"/>
      <circle id="Ellipse_561" data-name="Ellipse 561" cx="1.941" cy="1.941" r="1.941" transform="translate(824.646 637.233)" fill="#3a6469"/>
      <path id="Ellipse_558_-_Outline" data-name="Ellipse 558 - Outline" d="M6.793,1.941a4.852,4.852,0,1,0,4.852,4.852A4.857,4.857,0,0,0,6.793,1.941M6.793,0A6.793,6.793,0,1,1,0,6.793,6.793,6.793,0,0,1,6.793,0Z" transform="translate(856.669 632.381)" fill="#3a6469"/>
      <circle id="Ellipse_562" data-name="Ellipse 562" cx="1.941" cy="1.941" r="1.941" transform="translate(861.52 637.233)" fill="#3a6469"/>
    </g>
  </g>
</svg>
