<svg xmlns="http://www.w3.org/2000/svg" width="78" height="78" viewBox="0 0 78 78">
  <g id="Group_2230" data-name="Group 2230" transform="translate(-2481.347 6608.463)">
    <rect id="Rectangle_3241" data-name="Rectangle 3241" width="78" height="78" transform="translate(2481.347 -6608.463)" fill="#fff"/>
    <g id="Group_2229" data-name="Group 2229" transform="translate(2453.098 -6649.107)">
      <path id="Path_5332_-_Outline" data-name="Path 5332 - Outline" d="M51.382,31.2H36.069a2.254,2.254,0,0,1-2.248-2.256V8.306A2.254,2.254,0,0,1,36.069,6.05h7.2a2.56,2.56,0,0,1,2.174,1.172l.012.02,7.426,12.375a4.716,4.716,0,0,1,.745,2.54V28.94A2.254,2.254,0,0,1,51.382,31.2ZM36.069,7.727a.575.575,0,0,0-.57.579V28.94a.575.575,0,0,0,.57.579H51.382a.574.574,0,0,0,.569-.579V22.158a3.042,3.042,0,0,0-.486-1.645l-.013-.022L44.026,8.117a.9.9,0,0,0-.756-.39Z" transform="translate(51.078 64.754)" fill="#713e5a"/>
      <path id="Path_5330" data-name="Path 5330" d="M8.47,6.594v-3.9A2.44,2.44,0,0,1,10.911.25H49.393a2.441,2.441,0,0,1,2.441,2.441V31.845a2.441,2.441,0,0,1-2.441,2.441H10.911A2.44,2.44,0,0,1,8.47,31.845V25.124" transform="translate(33.905 60.825)" fill="#a5e3e8"/>
      <path id="Path_5329" data-name="Path 5329" d="M14.324,12.2a3.949,3.949,0,0,1,.506,1.944v6.284a1.24,1.24,0,0,1-1.151,1.313H1.153A1.24,1.24,0,0,1,0,20.432V1.313A1.24,1.24,0,0,1,1.153,0h5.89a1.387,1.387,0,0,1,1.2.727Z" transform="translate(85.22 75.03) rotate(-0.974)" fill="#fff"/>
      <path id="Path_5325" data-name="Path 5325" d="M49.732,35.463H11.249A3.283,3.283,0,0,1,7.97,32.184V25.463H9.647v6.721a1.6,1.6,0,0,0,1.6,1.6H49.732a1.6,1.6,0,0,0,1.6-1.6V3.029a1.6,1.6,0,0,0-1.6-1.6H11.249a1.6,1.6,0,0,0-1.6,1.6v3.9H7.97v-3.9A3.283,3.283,0,0,1,11.249-.25H49.732a3.283,3.283,0,0,1,3.279,3.279V32.184a3.283,3.283,0,0,1-3.279,3.279Z" transform="translate(33.566 60.486)" fill="#17494d"/>
      <path id="Line_9" data-name="Line 9" d="M.339,9.954A.839.839,0,0,1-.5,9.115V.339a.839.839,0,1,1,1.677,0V9.115a.839.839,0,0,1-.838.839Z" transform="translate(42.036 71.304)" fill="#17494d"/>
      <path id="Path_5328" data-name="Path 5328" d="M51.382,31.2H36.069a2.254,2.254,0,0,1-2.248-2.256V8.306A2.254,2.254,0,0,1,36.069,6.05h7.2a2.56,2.56,0,0,1,2.174,1.172l.012.02,7.426,12.375a4.716,4.716,0,0,1,.745,2.54V28.94A2.254,2.254,0,0,1,51.382,31.2ZM36.069,7.727a.575.575,0,0,0-.57.579V28.94a.575.575,0,0,0,.57.579H51.382a.574.574,0,0,0,.569-.579V22.158a3.042,3.042,0,0,0-.486-1.645l-.013-.022L44.026,8.117a.9.9,0,0,0-.756-.39Z" transform="translate(51.078 64.754)" fill="#17494d"/>
      <path id="Line_11" data-name="Line 11" d="M6.2,1.177H.1C-.232,1.177-.5.8-.5.339S-.232-.5.1-.5H6.2c.331,0,.6.376.6.839S6.533,1.177,6.2,1.177Z" transform="translate(31.677 73.652)" fill="#17494d"/>
      <g id="Group_2172" data-name="Group 2172" transform="translate(52.753 87.398)">
        <path id="Path_5461" data-name="Path 5461" d="M5.624,0A5.624,5.624,0,1,1,0,5.624,5.624,5.624,0,0,1,5.624,0Z" transform="translate(1.109 2.089)" fill="#fff"/>
        <path id="Path_5462" data-name="Path 5462" d="M5.624,0A5.624,5.624,0,1,1,0,5.624,5.624,5.624,0,0,1,5.624,0Z" transform="translate(1.109 2.089)" fill="#fff"/>
        <path id="Ellipse_609" data-name="Ellipse 609" d="M5.963-.5A6.463,6.463,0,1,1-.5,5.963,6.463,6.463,0,0,1,5.963-.5Zm0,11.249A4.786,4.786,0,1,0,1.177,5.963a4.786,4.786,0,0,0,4.786,4.786Z" transform="translate(0.77 1.75)" fill="#17494d"/>
      </g>
      <g id="Group_2236" data-name="Group 2236" transform="translate(88.069 87.398)">
        <path id="Path_5461-2" data-name="Path 5461" d="M5.624,0A5.624,5.624,0,1,1,0,5.624,5.624,5.624,0,0,1,5.624,0Z" transform="translate(1.109 2.089)" fill="#fff"/>
        <path id="Path_5462-2" data-name="Path 5462" d="M5.624,0A5.624,5.624,0,1,1,0,5.624,5.624,5.624,0,0,1,5.624,0Z" transform="translate(1.109 2.089)" fill="#fff"/>
        <path id="Ellipse_609-2" data-name="Ellipse 609" d="M5.963-.5A6.463,6.463,0,1,1-.5,5.963,6.463,6.463,0,0,1,5.963-.5Zm0,11.249A4.786,4.786,0,1,0,1.177,5.963a4.786,4.786,0,0,0,4.786,4.786Z" transform="translate(0.77 1.75)" fill="#713e5a"/>
      </g>
      <g id="Group_2233" data-name="Group 2233" transform="translate(56.927 91.572)">
        <path id="Path_5461-3" data-name="Path 5461" d="M1.992,0A1.992,1.992,0,1,1,0,1.992,1.992,1.992,0,0,1,1.992,0Z" transform="translate(0.567 1.547)" fill="#f0dbe7"/>
        <path id="Path_5462-3" data-name="Path 5462" d="M1.992,0A1.992,1.992,0,1,1,0,1.992,1.992,1.992,0,0,1,1.992,0Z" transform="translate(0.567 1.547)" fill="#17494d"/>
        <path id="Ellipse_609-3" data-name="Ellipse 609" d="M1.789-.5A2.289,2.289,0,1,1-.5,1.789,2.289,2.289,0,0,1,1.789-.5Zm0,3.984a1.7,1.7,0,1,0-1.7-1.7,1.7,1.7,0,0,0,1.7,1.7Z" transform="translate(0.77 1.75)" fill="#feffff"/>
      </g>
      <g id="Group_2235" data-name="Group 2235" transform="translate(92.242 91.572)">
        <path id="Path_5461-4" data-name="Path 5461" d="M1.992,0A1.992,1.992,0,1,1,0,1.992,1.992,1.992,0,0,1,1.992,0Z" transform="translate(0.567 1.547)" fill="#f0dbe7"/>
        <path id="Path_5462-4" data-name="Path 5462" d="M1.992,0A1.992,1.992,0,1,1,0,1.992,1.992,1.992,0,0,1,1.992,0Z" transform="translate(0.567 1.547)" fill="#f0dbe7"/>
        <path id="Ellipse_609-4" data-name="Ellipse 609" d="M1.789-.5A2.289,2.289,0,1,1-.5,1.789,2.289,2.289,0,0,1,1.789-.5Zm0,3.984a1.7,1.7,0,1,0-1.7-1.7,1.7,1.7,0,0,0,1.7,1.7Z" transform="translate(0.77 1.75)" fill="#f0dbe7"/>
      </g>
      <g id="Group_2197" data-name="Group 2197" transform="translate(88.07 87.398)">
        <circle id="Ellipse_608" data-name="Ellipse 608" cx="5.624" cy="5.624" r="5.624" transform="translate(1.109 2.089)" fill="#fff"/>
        <path id="Ellipse_609-5" data-name="Ellipse 609" d="M5.963-.5A6.463,6.463,0,1,1-.5,5.963,6.463,6.463,0,0,1,5.963-.5Zm0,11.249A4.786,4.786,0,1,0,1.177,5.963a4.786,4.786,0,0,0,4.786,4.786Z" transform="translate(0.77 1.75)" fill="#17494d"/>
      </g>
      <rect id="Rectangle_3408" data-name="Rectangle 3408" width="24" height="5" rx="2.5" transform="translate(29.794 64.919)" fill="#fff"/>
      <rect id="Rectangle_3410" data-name="Rectangle 3410" width="24" height="5" rx="2.5" transform="translate(35.351 78.919)" fill="#fff"/>
      <rect id="Rectangle_3409" data-name="Rectangle 3409" width="20" height="5" rx="2.5" transform="translate(30.479 83.449)" fill="#fff"/>
      <path id="Path_5327" data-name="Path 5327" d="M20.392,5.21H4.645a.839.839,0,1,1,0-1.677H20.392a.839.839,0,1,1,0,1.677Z" transform="translate(30.746 63.048)" fill="#17494d"/>
      <path id="Path_5327-2" data-name="Path 5327" d="M22.534,5.21H4.753a.9.9,0,0,1-.947-.839.9.9,0,0,1,.947-.839H22.534a.9.9,0,0,1,.947.839.9.9,0,0,1-.947.839Z" transform="translate(34.052 77.048)" fill="#17494d"/>
      <path id="Line_10" data-name="Line 10" d="M15.7,1.177H.339A.839.839,0,0,1,.339-.5H15.7a.839.839,0,1,1,0,1.677Z" transform="translate(31.677 85.61)" fill="#17494d"/>
      <g id="Group_2234" data-name="Group 2234" transform="translate(92.244 91.572)">
        <path id="Path_5461-5" data-name="Path 5461" d="M1.992,0A1.992,1.992,0,1,1,0,1.992,1.992,1.992,0,0,1,1.992,0Z" transform="translate(0.567 1.547)" fill="#713e5a"/>
        <path id="Path_5462-5" data-name="Path 5462" d="M1.992,0A1.992,1.992,0,1,1,0,1.992,1.992,1.992,0,0,1,1.992,0Z" transform="translate(0.567 1.547)" fill="#17494d"/>
        <path id="Ellipse_609-6" data-name="Ellipse 609" d="M1.789-.5A2.289,2.289,0,1,1-.5,1.789,2.289,2.289,0,0,1,1.789-.5Zm0,3.984a1.7,1.7,0,1,0-1.7-1.7,1.7,1.7,0,0,0,1.7,1.7Z" transform="translate(0.77 1.75)" fill="#fff"/>
      </g>
    </g>
  </g>
</svg>
