<svg xmlns="http://www.w3.org/2000/svg" width="78" height="78" viewBox="0 0 78 78">
  <g id="Group_2312" data-name="Group 2312" transform="translate(-2668 7064)">
    <rect id="Rectangle_3241" data-name="Rectangle 3241" width="78" height="78" transform="translate(2668 -7064)" fill="#fff"/>
    <g id="Group_2307" data-name="Group 2307" transform="translate(2203.176 -7533.881)">
      <path id="Path_2013_-_Outline" data-name="Path 2013 - Outline" d="M2.968,1.979a.991.991,0,0,0-.989.989V44.523a.991.991,0,0,0,.989.989H43.536a.991.991,0,0,0,.989-.989V2.968a.991.991,0,0,0-.989-.989H2.968M2.968,0H43.536A2.968,2.968,0,0,1,46.5,2.968V44.523a2.968,2.968,0,0,1-2.968,2.968H2.968A2.968,2.968,0,0,1,0,44.523V2.968A2.968,2.968,0,0,1,2.968,0Z" transform="translate(482.484 487.479)" fill="#17494d"/>
      <path id="Path_2013_-_Outline-2" data-name="Path 2013 - Outline" d="M2.968,1.979a.991.991,0,0,0-.989.989V44.523a.991.991,0,0,0,.989.989H43.536a.991.991,0,0,0,.989-.989V2.968a.991.991,0,0,0-.989-.989H2.968M2.968,0H43.536A2.968,2.968,0,0,1,46.5,2.968V44.523a2.968,2.968,0,0,1-2.968,2.968H2.968A2.968,2.968,0,0,1,0,44.523V2.968A2.968,2.968,0,0,1,2.968,0Z" transform="translate(482.484 487.479)" fill="#17494d"/>
      <path id="Path_2009" data-name="Path 2009" d="M1.72,0H42.726a1.966,1.966,0,0,1,1.953,1.979S46,14.658,43.632,23.512a36.163,36.163,0,0,1-6.787,13.961,4.118,4.118,0,0,1-3.082,1.942L-7.77,39.371c-1.078,0-2.483-.9-1.924-2.284s6.249-7.124,8.329-16.243A67.754,67.754,0,0,0-.233,1.979,1.966,1.966,0,0,1,1.72,0Z" transform="translate(483.264 487.479)" fill="#a5e3e8"/>
      <path id="Path_2009_-_Outline" data-name="Path 2009 - Outline" d="M2,1.979H1.987A67.457,67.457,0,0,1,.77,21.295a35.29,35.29,0,0,1-3.746,9.4,52.683,52.683,0,0,1-3.936,5.841c-.219.29-.453.6-.639.857l42.388.043a2.435,2.435,0,0,0,1.54-1.1c.127-.18.281-.377.476-.627A33.68,33.68,0,0,0,43.04,22.992c2.3-8.38,1.026-20.675,1.013-20.8l-.011-.106v-.1a.034.034,0,0,0-.022-.006H2M2,0H44.021a1.99,1.99,0,0,1,2,1.979s1.358,12.679-1.073,21.533A35.867,35.867,0,0,1,38,37.473a4.235,4.235,0,0,1-3.158,1.942L-7.72,39.371c-1.105,0-2.544-.9-1.971-2.284s6.4-7.124,8.535-16.243A66.149,66.149,0,0,0,0,1.979,1.99,1.99,0,0,1,2,0Z" transform="translate(482.586 487.479)" fill="#17494d"/>
      <path id="Path_2014" data-name="Path 2014" d="M.989,0H41.557a.989.989,0,0,1,.989.989V8.9H0V.989A.989.989,0,0,1,.989,0Z" transform="translate(484.463 487.479)" fill="#a5e3e8"/>
      <path id="Union_7" data-name="Union 7" d="M0,15.572v-9.9A2.974,2.974,0,0,1,2.971,2.707H9.9V1.485a1.485,1.485,0,0,1,2.97,0V2.707h8.9V1.485a1.483,1.483,0,1,1,2.966,0V2.707h8.906V1.485a1.485,1.485,0,1,1,2.97,0V2.707h6.924a2.972,2.972,0,0,1,2.971,2.965v9.9Zm1.983-9.9V13.59H44.53V5.673a.992.992,0,0,0-.994-.988H36.612v.94a1.485,1.485,0,0,1-2.97,0v-.94h-8.9v.94a1.483,1.483,0,1,1-2.966,0v-.94H12.865v.94a1.485,1.485,0,1,1-2.97,0v-.94H2.971a.987.987,0,0,0-.988.988Z" transform="translate(482.48 482.793)" fill="#17494d"/>
      <path id="Path_2015" data-name="Path 2015" d="M-.1-.04l37.146.027s.017,1.626-.146,3.274S36.4,6.577,36.4,6.577L-.763,6.386S-.42,4.8-.256,3.2-.1-.04-.1-.04Z" transform="translate(487.087 501.743)" fill="#fff"/>
      <path id="Path_2015_-_Outline" data-name="Path 2015 - Outline" d="M-.1-.79h0l37.146.027a.75.75,0,0,1,.749.742c0,.068.016,1.686-.15,3.356s-.5,3.323-.517,3.393a.75.75,0,0,1-.739.6L-.767,7.136a.75.75,0,0,1-.581-.281A.75.75,0,0,1-1.5,6.228c0-.015.336-1.567.494-3.1S-.85-.02-.85-.036A.75.75,0,0,1-.631-.569.75.75,0,0,1-.1-.79ZM36.29.736.641.711c-.015.64-.053,1.6-.151,2.566C.4,4.155.259,5.021.147,5.641l35.628.183c.112-.622.28-1.638.379-2.637C36.244,2.269,36.278,1.351,36.29.736Z" transform="translate(487.087 501.743)" fill="#17494d"/>
    </g>
  </g>
</svg>
