<svg xmlns="http://www.w3.org/2000/svg" xmlns:xlink="http://www.w3.org/1999/xlink" width="115" height="44" viewBox="0 0 115 44">
  <defs>
    <clipPath id="clip-path">
      <rect id="Rectangle_7" data-name="Rectangle 7" width="67.633" height="31.988" fill="#17494d"/>
    </clipPath>
  </defs>
  <g id="Group_1059" data-name="Group 1059" transform="translate(-142.143 -723.826)">
    <rect id="Rectangle_620" data-name="Rectangle 620" width="115" height="44" transform="translate(142.143 723.826)" fill="#fff"/>
    <g id="Group_13" data-name="Group 13" transform="translate(166.143 729.826)">
      <g id="Group_12" data-name="Group 12" clip-path="url(#clip-path)">
        <path id="Path_35" data-name="Path 35" d="M71.89,16.236l-.192-.2L57.763,1.553A3.692,3.692,0,0,0,54.855,0H22.766a4.454,4.454,0,0,0-4.154,3.082l-.006.013h8.359a2.785,2.785,0,1,1,0,5.57H17.159l-.482,1.855H21.4a2.785,2.785,0,1,1,0,5.57H15.223l-.482,1.856H18.3a2.785,2.785,0,1,1,0,5.569H13.292l-.05.18c-.587,2.258.712,4.154,2.9,4.154h4.053a6.615,6.615,0,0,1,.885-2.611c1.856-3.168,5.971-4.87,9.2-3.651a4.935,4.935,0,0,1,3,6.262H52.368a6.616,6.616,0,0,1,.884-2.615c1.856-3.168,5.971-4.87,9.2-3.651a4.935,4.935,0,0,1,3,6.262h3.082a2.719,2.719,0,0,0,2.629-2.077l1.423-7.384a.023.023,0,0,1,.006-.018,2.492,2.492,0,0,0-.7-2.129M52.019,17.944H50.165a.619.619,0,0,1,0-1.238h1.856a.619.619,0,0,1,0,1.238m11.1-3.4H50.4c-1.021,0-1.6-1.163-1.343-2.351L51.068,2.9c.013-.068.192-.115.4-.115H54a.794.794,0,0,1,.477.115l8.378,9.288c1.076,1.188,1.286,2.351.272,2.351" transform="translate(-4.994)" fill="#17494d"/>
        <path id="Path_36" data-name="Path 36" d="M34.8,37.042a5.964,5.964,0,0,0-6.874,2.729,4.846,4.846,0,0,0-.668,2.077,3.628,3.628,0,0,0,2.2,3.692,5.892,5.892,0,0,0,6.874-2.346,5.446,5.446,0,0,0,.662-1.349A3.692,3.692,0,0,0,34.8,37.038m.05,4.808a2.845,2.845,0,0,1-.291.539,3.339,3.339,0,0,1-3.9,1.34,2.035,2.035,0,0,1-1.25-1.869,2.587,2.587,0,0,1,.377-1.4,3.388,3.388,0,0,1,3.9-1.547,2.125,2.125,0,0,1,1.163,2.951" transform="translate(-10.386 -14.005)" fill="#17494d"/>
        <path id="Path_37" data-name="Path 37" d="M33.078,36.627h0a4.794,4.794,0,0,1,1.7.3,3.769,3.769,0,0,1,2.243,4.9,5.523,5.523,0,0,1-.672,1.368,6.315,6.315,0,0,1-5.085,2.751,4.669,4.669,0,0,1-1.884-.378A3.709,3.709,0,0,1,27.129,41.8a4.961,4.961,0,0,1,.678-2.113A6.328,6.328,0,0,1,33.078,36.627ZM31.262,45.8a6.155,6.155,0,0,0,4.961-2.683,5.366,5.366,0,0,0,.653-1.33,3.621,3.621,0,0,0-2.151-4.711,4.641,4.641,0,0,0-1.643-.291,6.168,6.168,0,0,0-5.142,2.987,4.8,4.8,0,0,0-.658,2.046,3.558,3.558,0,0,0,2.156,3.617A4.515,4.515,0,0,0,31.262,45.8Zm1.428-7.184a2.754,2.754,0,0,1,.971.172,2.133,2.133,0,0,1,1.247,1.157,2.407,2.407,0,0,1-.04,1.893,2.93,2.93,0,0,1-.3.552,3.617,3.617,0,0,1-2.91,1.576,2.677,2.677,0,0,1-1.083-.218,2.107,2.107,0,0,1-1.3-1.938,2.654,2.654,0,0,1,.388-1.445,3.631,3.631,0,0,1,3.028-1.752Zm-1.029,5.2A3.461,3.461,0,0,0,34.443,42.3a2.779,2.779,0,0,0,.283-.524A2.254,2.254,0,0,0,34.768,40a1.982,1.982,0,0,0-1.16-1.078,2.6,2.6,0,0,0-.923-.162,3.472,3.472,0,0,0-2.885,1.68,2.5,2.5,0,0,0-.367,1.363,1.961,1.961,0,0,0,1.2,1.8,2.523,2.523,0,0,0,1.028.206Z" transform="translate(-10.338 -13.963)" fill="#17494d"/>
        <path id="Path_38" data-name="Path 38" d="M35.565,43.915a.108.108,0,0,1-.024.031,1.535,1.535,0,0,1-1.763.577.923.923,0,0,1-.526-.577,1.137,1.137,0,0,1,.13-.923,1.543,1.543,0,0,1,1.778-.714,1.018,1.018,0,0,1,.4,1.6" transform="translate(-12.659 -16.1)" fill="#17494d"/>
        <path id="Path_39" data-name="Path 39" d="M34.209,44.647a1.269,1.269,0,0,1-.51-.1,1,1,0,0,1-.569-.623,1.22,1.22,0,0,1,.137-.985,1.693,1.693,0,0,1,1.416-.825,1.3,1.3,0,0,1,.462.081,1.014,1.014,0,0,1,.629.642,1.254,1.254,0,0,1-.187,1.073.174.174,0,0,1-.032.042,1.694,1.694,0,0,1-1.345.7Zm.474-2.381a1.533,1.533,0,0,0-1.283.749,1.066,1.066,0,0,0-.123.861.848.848,0,0,0,.483.527,1.118,1.118,0,0,0,.449.089,1.558,1.558,0,0,0,1.221-.639l.008-.009.01-.01v-.009a1.1,1.1,0,0,0,.171-.943.863.863,0,0,0-.537-.545,1.145,1.145,0,0,0-.4-.069Z" transform="translate(-12.611 -16.055)" fill="#17494d"/>
        <path id="Path_40" data-name="Path 40" d="M86.8,37.042a5.964,5.964,0,0,0-6.874,2.729,4.846,4.846,0,0,0-.668,2.077,3.628,3.628,0,0,0,2.2,3.692,5.892,5.892,0,0,0,6.874-2.346,5.446,5.446,0,0,0,.662-1.349A3.692,3.692,0,0,0,86.8,37.038m.05,4.808a2.847,2.847,0,0,1-.291.539,3.339,3.339,0,0,1-3.9,1.34,2.035,2.035,0,0,1-1.25-1.869,2.587,2.587,0,0,1,.377-1.4,3.388,3.388,0,0,1,3.9-1.547,2.126,2.126,0,0,1,1.163,2.951" transform="translate(-30.21 -14.005)" fill="#17494d"/>
        <path id="Path_41" data-name="Path 41" d="M85.078,36.627h0a4.794,4.794,0,0,1,1.7.3,3.769,3.769,0,0,1,2.243,4.9,5.524,5.524,0,0,1-.671,1.368,6.315,6.315,0,0,1-5.085,2.751,4.669,4.669,0,0,1-1.884-.378A3.709,3.709,0,0,1,79.129,41.8a4.961,4.961,0,0,1,.678-2.113,6.328,6.328,0,0,1,5.271-3.061ZM83.262,45.8a6.155,6.155,0,0,0,4.961-2.683,5.366,5.366,0,0,0,.653-1.33,3.621,3.621,0,0,0-2.151-4.711,4.641,4.641,0,0,0-1.643-.291,6.168,6.168,0,0,0-5.142,2.987,4.8,4.8,0,0,0-.658,2.046,3.558,3.558,0,0,0,2.156,3.617A4.515,4.515,0,0,0,83.262,45.8Zm1.428-7.184a2.754,2.754,0,0,1,.972.172,2.133,2.133,0,0,1,1.247,1.157,2.407,2.407,0,0,1-.04,1.893,2.931,2.931,0,0,1-.3.552,3.617,3.617,0,0,1-2.91,1.576,2.677,2.677,0,0,1-1.083-.218,2.107,2.107,0,0,1-1.3-1.938,2.654,2.654,0,0,1,.388-1.445,3.631,3.631,0,0,1,3.027-1.752Zm-1.029,5.2A3.461,3.461,0,0,0,86.443,42.3a2.778,2.778,0,0,0,.283-.524A2.255,2.255,0,0,0,86.768,40a1.982,1.982,0,0,0-1.16-1.078,2.6,2.6,0,0,0-.923-.162,3.472,3.472,0,0,0-2.885,1.68,2.505,2.505,0,0,0-.367,1.363,1.961,1.961,0,0,0,1.2,1.8,2.523,2.523,0,0,0,1.028.206Z" transform="translate(-30.162 -13.963)" fill="#17494d"/>
        <path id="Path_42" data-name="Path 42" d="M87.565,43.915a.109.109,0,0,1-.024.031,1.535,1.535,0,0,1-1.763.577.923.923,0,0,1-.526-.577,1.137,1.137,0,0,1,.13-.923,1.543,1.543,0,0,1,1.778-.714,1.018,1.018,0,0,1,.4,1.6" transform="translate(-32.483 -16.1)" fill="#17494d"/>
        <path id="Path_43" data-name="Path 43" d="M86.209,44.647a1.269,1.269,0,0,1-.51-.1,1,1,0,0,1-.569-.623,1.22,1.22,0,0,1,.137-.985,1.693,1.693,0,0,1,1.416-.825,1.3,1.3,0,0,1,.461.081,1.014,1.014,0,0,1,.629.642,1.254,1.254,0,0,1-.187,1.073.174.174,0,0,1-.032.042,1.694,1.694,0,0,1-1.345.7Zm.474-2.381a1.533,1.533,0,0,0-1.283.749,1.066,1.066,0,0,0-.123.861.848.848,0,0,0,.483.527,1.118,1.118,0,0,0,.449.089,1.558,1.558,0,0,0,1.221-.639l.008-.009.01-.01v-.009a1.1,1.1,0,0,0,.171-.943.863.863,0,0,0-.536-.545,1.146,1.146,0,0,0-.4-.069Z" transform="translate(-32.436 -16.055)" fill="#17494d"/>
        <path id="Path_44" data-name="Path 44" d="M25.422,8.547a1.543,1.543,0,0,1-1.547,1.547H6.547A1.547,1.547,0,0,1,6.547,7H23.873a1.547,1.547,0,0,1,1.55,1.547" transform="translate(-1.907 -2.669)" fill="#17494d"/>
        <path id="Path_45" data-name="Path 45" d="M14.856,32.547a1.545,1.545,0,0,1-.451,1.089,1.528,1.528,0,0,1-1.1.462H1.553a1.547,1.547,0,1,1,0-3.093H13.309a1.547,1.547,0,0,1,1.547,1.547" transform="translate(-0.006 -11.818)" fill="#17494d"/>
        <path id="Path_46" data-name="Path 46" d="M21,20.547a1.545,1.545,0,0,1-.451,1.089,1.528,1.528,0,0,1-1.095.462h-9.9a1.547,1.547,0,1,1,0-3.093h9.9A1.547,1.547,0,0,1,21,20.551" transform="translate(-3.056 -7.242)" fill="#17494d"/>
      </g>
    </g>
  </g>
</svg>
