<svg xmlns="http://www.w3.org/2000/svg" width="72" height="72" viewBox="0 0 72 72">
  <g id="Group_1802" data-name="Group 1802" transform="translate(-402 -85)">
    <rect id="Rectangle_3272" data-name="Rectangle 3272" width="72" height="72" transform="translate(402 85)" fill="none"/>
    <g id="Group_1723" data-name="Group 1723" transform="translate(-647.523 -95.034)">
      <path id="Subtraction_7" data-name="Subtraction 7" d="M30.214,26.383h0L19.943,21.374H3a3,3,0,0,1-3-3V3A3,3,0,0,1,3,0H33.337a3,3,0,0,1,3,3V18.374a3,3,0,0,1-3,3H29.824l.39,5.008ZM4.151,3.314a1,1,0,0,0-1,1v5.722a1,1,0,0,0,1,1h9.155a1,1,0,0,0,1-1V4.315a1,1,0,0,0-1-1Z" transform="translate(1080.111 193.137)" fill="#d7e1e2"/>
      <path id="Path_2032" data-name="Path 2032" d="M32.7,50.11c-2.649,1.792-6.666,1.463-11.058-.564A39.234,39.234,0,0,1,8.832,39.377,39.233,39.233,0,0,1,.786,25.14c-1.363-4.818-.99-8.956,1.4-11.251l.006,0c.094-.068.185-.127.281-.19a7.651,7.651,0,0,1,2.582-1.068,7.734,7.734,0,0,1,2.865-.064,2.3,2.3,0,0,1,1.894,1.905,28.591,28.591,0,0,0,2.9,8.308,2.244,2.244,0,0,1-.305,2.515l-.015.017a8,8,0,0,1-.73.711,7.706,7.706,0,0,1-1.434.971A2.262,2.262,0,0,0,9.4,30.194a47,47,0,0,0,8.579,10.047,2.262,2.262,0,0,0,3.3-.327,7.722,7.722,0,0,1,1.185-1.267,8.034,8.034,0,0,1,.816-.61l.014-.009a2.242,2.242,0,0,1,2.533.092,28.586,28.586,0,0,0,7.757,4.169,2.3,2.3,0,0,1,1.586,2.171,7.751,7.751,0,0,1-.517,2.824l-.6,1.225-.848,1.141c-.054.06-.109.119-.165.178" transform="translate(1054.598 187.654)" fill="#d7e1e2"/>
      <path id="Path_2021" data-name="Path 2021" d="M33.03,49.827a2.049,2.049,0,0,1-.333.284c-2.649,1.792-6.666,1.463-11.058-.564A39.234,39.234,0,0,1,8.832,39.377,39.233,39.233,0,0,1,.786,25.14c-1.363-4.818-.99-8.956,1.4-11.251l.006,0c.094-.068.185-.127.281-.19a7.651,7.651,0,0,1,2.582-1.068,7.734,7.734,0,0,1,2.865-.064,2.3,2.3,0,0,1,1.894,1.905,28.591,28.591,0,0,0,2.9,8.308,2.244,2.244,0,0,1-.305,2.515l-.015.017a8,8,0,0,1-.73.711,7.706,7.706,0,0,1-1.434.971A2.262,2.262,0,0,0,9.4,30.194a47,47,0,0,0,8.579,10.047,2.262,2.262,0,0,0,3.3-.327,7.722,7.722,0,0,1,1.185-1.267,8.034,8.034,0,0,1,.816-.61l.014-.009a2.242,2.242,0,0,1,2.533.092,28.586,28.586,0,0,0,7.757,4.169,2.3,2.3,0,0,1,1.586,2.171,7.685,7.685,0,0,1-1.968,5.19c-.054.06-.109.119-.165.178" transform="translate(1055.115 187.654)" fill="none" stroke="#3a6469" stroke-width="2"/>
      <g id="Union_8" data-name="Union 8" transform="translate(1080.107 193.136)" fill="none">
        <path d="M19.945,21.375H3a3,3,0,0,1-3-3V3A3,3,0,0,1,3,0H33.339a3,3,0,0,1,3,3V18.375a3,3,0,0,1-3,3H29.826l.39,5.009Z" stroke="none"/>
        <path d="M 27.95034599304199 23.0543384552002 L 27.66384124755859 19.375 L 33.33869934082031 19.375 C 33.88994216918945 19.375 34.33840179443359 18.92654037475586 34.33840179443359 18.37530136108398 L 34.33840179443359 2.99880051612854 C 34.33840179443359 2.447560548782349 33.88994216918945 1.999100565910339 33.33869934082031 1.999100565910339 L 2.997900724411011 1.999100565910339 C 2.44666051864624 1.999100565910339 1.998200654983521 2.447560548782349 1.998200654983521 2.99880051612854 L 1.998200654983521 18.37530136108398 C 1.998200654983521 18.92654037475586 2.44666051864624 19.375 2.997900724411011 19.375 L 20.40647125244141 19.375 L 27.95034599304199 23.0543384552002 M 30.21570014953613 26.38440132141113 L 19.94474029541016 21.375 L 2.997900724411011 21.375 C 1.341900587081909 21.375 -0.001799371326342225 20.03219985961914 -0.001799371326342225 18.37530136108398 L -0.001799371326342225 2.99880051612854 C -0.001799371326342225 1.34190046787262 1.341900587081909 -0.0008994735544547439 2.997900724411011 -0.0008994735544547439 L 33.33869934082031 -0.0008994735544547439 C 34.99560165405273 -0.0008994735544547439 36.33840179443359 1.34190046787262 36.33840179443359 2.99880051612854 L 36.33840179443359 18.37530136108398 C 36.33840179443359 20.03219985961914 34.99560165405273 21.375 33.33869934082031 21.375 L 29.82563018798828 21.375 L 30.21570014953613 26.38440132141113 Z" stroke="none" fill="#3a6469"/>
      </g>
    </g>
  </g>
</svg>
