<svg xmlns="http://www.w3.org/2000/svg" width="78" height="78" viewBox="0 0 78 78">
  <g id="Group_2313" data-name="Group 2313" transform="translate(-2847 7175)">
    <rect id="Rectangle_3490" data-name="Rectangle 3490" width="78" height="78" transform="translate(2847 -7175)" fill="#fff"/>
    <g id="Group_2309" data-name="Group 2309" transform="translate(2135.951 -8064.015)">
      <path id="Subtraction_6" data-name="Subtraction 6" d="M36.96,50.271H1a1,1,0,0,1-1-1V1A1,1,0,0,1,1,0H35.96a2,2,0,0,1,2,2V49.271A1,1,0,0,1,36.96,50.271ZM8.695,34.369a1,1,0,0,0-1,1V42.6a1,1,0,0,0,1,1h8.259a1,1,0,0,0,1-1V35.369a1,1,0,0,0-1-1Zm13.1,5.287a1.026,1.026,0,1,0,0,2.052h8.67a1.026,1.026,0,1,0,0-2.052Zm0-4.1a1.026,1.026,0,1,0,0,2.053h8.67a1.026,1.026,0,1,0,0-2.053Zm-13.1-17.6a1,1,0,0,0-1,1v7.233a1,1,0,0,0,1,1h8.259a1,1,0,0,0,1-1V18.954a1,1,0,0,0-1-1Zm13.1,5.287a1.026,1.026,0,1,0,0,2.052h8.67a1.026,1.026,0,1,0,0-2.052Zm0-4.1a1.026,1.026,0,1,0,0,2.052h8.67a1.026,1.026,0,1,0,0-2.052Z" transform="translate(730.584 902.584)" fill="#fde7a4"/>
      <path id="Path_5525" data-name="Path 5525" d="M1,0H35.713a1,1,0,0,1,1,1V49.48a1,1,0,0,1-1,1H1a1,1,0,0,1-1-1V1A1,1,0,0,1,1,0Z" transform="translate(730.966 902.966)" fill="none" stroke="#713e5a" stroke-width="2"/>
      <g id="Group_1713" data-name="Group 1713" transform="translate(753.625 911.797)">
        <g id="Path_2039" data-name="Path 2039" transform="translate(20.942 2.473) rotate(45)" fill="#713e5a">
          <path d="M 3.116621494293213 27.96415710449219 L 0.7502768635749817 23.42378234863281 L 0.7500079274177551 0.7500062584877014 L 5.370468139648438 0.7500666975975037 L 5.370737075805664 23.43137550354004 L 3.116621494293213 27.96415710449219 Z" stroke="none"/>
          <path d="M 1.500016689300537 1.500015258789062 L 1.500274658203125 23.24006652832031 L 3.100946664810181 26.31132316589355 L 4.620734691619873 23.25519371032715 L 4.620476722717285 1.500057220458984 L 1.500016689300537 1.500015258789062 M -9.5367431640625e-07 -3.814697265625e-06 L 6.120459079742432 7.62939453125e-05 L 6.120738983154297 23.60756683349609 L 3.132298946380615 29.61699676513672 L 0.0002789497375488281 23.60749626159668 L -9.5367431640625e-07 -3.814697265625e-06 Z" stroke="none" fill="#713e5a"/>
        </g>
        <path id="Path_2042" data-name="Path 2042" d="M-24375.578-5536.872l3.363,3.47-4.9,1.8Z" transform="translate(24380.254 5556.423)" fill="#fff"/>
        <path id="Path_2038" data-name="Path 2038" d="M-24406.385-5536.752l-1.6,4.872,4.592-1.761Z" transform="translate(24411.258 5556.426)" fill="#fff"/>
        <g id="Path_2036" data-name="Path 2036" transform="translate(20.942 2.473) rotate(45)" fill="none">
          <path d="M0,0H6.12V23.608L3.132,29.617,0,23.607Z" stroke="none"/>
          <path d="M 1.500016689300537 1.500015258789062 L 1.500274658203125 23.24006652832031 L 3.100946664810181 26.31132316589355 L 4.620734691619873 23.25519371032715 L 4.620476722717285 1.500057220458984 L 1.500016689300537 1.500015258789062 M -9.5367431640625e-07 -3.814697265625e-06 L 6.120459079742432 7.62939453125e-05 L 6.120738983154297 23.60756683349609 L 3.132298946380615 29.61699676513672 L 0.0002789497375488281 23.60749626159668 L -9.5367431640625e-07 -3.814697265625e-06 Z" stroke="none" fill="#713e5a"/>
        </g>
        <g id="Rectangle_3210" data-name="Rectangle 3210" transform="translate(23.417 0) rotate(45)" fill="#fff" stroke="#713e5a" stroke-width="1.5">
          <path d="M2,0H4.121a2,2,0,0,1,2,2V4.372a0,0,0,0,1,0,0H0a0,0,0,0,1,0,0V2A2,2,0,0,1,2,0Z" stroke="none"/>
          <path d="M2,.75H4.121A1.25,1.25,0,0,1,5.371,2V3.622a0,0,0,0,1,0,0H.75a0,0,0,0,1,0,0V2A1.25,1.25,0,0,1,2,.75Z" fill="none"/>
        </g>
        <path id="Path_2043" data-name="Path 2043" d="M-24397.76-5538.444a.508.508,0,0,1-.363-.151.511.511,0,0,1,0-.725l3.029-3.028a.51.51,0,0,1,.725,0,.511.511,0,0,1,0,.725l-3.029,3.028A.507.507,0,0,1-24397.76-5538.444Z" transform="translate(24410.348 5553.807)" fill="#fff"/>
        <path id="Path_2044" data-name="Path 2044" d="M-24397.76-5541.421a.518.518,0,0,1-.318-.109.515.515,0,0,1-.086-.721l.041-.051a.515.515,0,0,1,.721-.087.514.514,0,0,1,.086.72l-.043.051A.5.5,0,0,1-24397.76-5541.421Z" transform="translate(24414.637 5552.442)" fill="#fff"/>
      </g>
      <rect id="Rectangle_3211" data-name="Rectangle 3211" width="26.617" height="5.507" rx="1" transform="translate(736.473 907.555)" fill="#fff"/>
    </g>
  </g>
</svg>
