<svg xmlns="http://www.w3.org/2000/svg" width="78" height="78" viewBox="0 0 78 78">
  <g id="Group_2310" data-name="Group 2310" transform="translate(-2756 7175)">
    <rect id="Rectangle_3490" data-name="Rectangle 3490" width="78" height="78" transform="translate(2756 -7175)" fill="#fff"/>
    <g id="Group_2308" data-name="Group 2308" transform="translate(2195.209 -7680.188)">
      <path id="Path_2032" data-name="Path 2032" d="M38.492,56.007a2.388,2.388,0,0,1-.388.331c-3.087,2.088-7.769,1.7-12.887-.657A45.722,45.722,0,0,1,10.293,43.829,45.722,45.722,0,0,1,.916,27.237C-.673,21.623-.237,16.8,2.553,14.125l.006-.006c.11-.079.215-.148.327-.221A8.917,8.917,0,0,1,5.9,12.654a9.013,9.013,0,0,1,3.339-.075,2.679,2.679,0,0,1,2.207,2.22,33.32,33.32,0,0,0,3.38,9.682,2.615,2.615,0,0,1-.356,2.931l-.018.02a9.32,9.32,0,0,1-.851.829,8.981,8.981,0,0,1-1.671,1.131,2.636,2.636,0,0,0-.977,3.736,53.771,53.771,0,0,0,4.593,6.216,53.848,53.848,0,0,0,5.4,5.493,2.636,2.636,0,0,0,3.843-.381,9,9,0,0,1,1.381-1.477,9.363,9.363,0,0,1,.951-.711l.017-.01a2.613,2.613,0,0,1,2.952.107,33.314,33.314,0,0,0,9.04,4.858,2.679,2.679,0,0,1,1.848,2.53A8.956,8.956,0,0,1,38.685,55.8c-.063.069-.127.138-.193.207" transform="translate(572.326 513.17)" fill="#fde7a4"/>
      <path id="Path_2021" data-name="Path 2021" d="M38.492,56.007a2.388,2.388,0,0,1-.388.331c-3.087,2.088-7.769,1.7-12.887-.657A45.722,45.722,0,0,1,10.293,43.829,45.722,45.722,0,0,1,.916,27.237C-.673,21.623-.237,16.8,2.553,14.125l.006-.006c.11-.079.215-.148.327-.221A8.917,8.917,0,0,1,5.9,12.654a9.013,9.013,0,0,1,3.339-.075,2.679,2.679,0,0,1,2.207,2.22,33.32,33.32,0,0,0,3.38,9.682,2.615,2.615,0,0,1-.356,2.931l-.018.02a9.32,9.32,0,0,1-.851.829,8.981,8.981,0,0,1-1.671,1.131,2.636,2.636,0,0,0-.977,3.736,53.771,53.771,0,0,0,4.593,6.216,53.848,53.848,0,0,0,5.4,5.493,2.636,2.636,0,0,0,3.843-.381,9,9,0,0,1,1.381-1.477,9.363,9.363,0,0,1,.951-.711l.017-.01a2.613,2.613,0,0,1,2.952.107,33.314,33.314,0,0,0,9.04,4.858,2.679,2.679,0,0,1,1.848,2.53A8.956,8.956,0,0,1,38.685,55.8c-.063.069-.127.138-.193.207" transform="translate(572.93 513.17)" fill="none" stroke="#713e5a" stroke-width="2"/>
      <line id="Line_1" data-name="Line 1" y2="2.964" transform="translate(600.545 524.146)" fill="none" stroke="#3a6469" stroke-linecap="round" stroke-miterlimit="10" stroke-width="1.5"/>
      <path id="Path_2024" data-name="Path 2024" d="M144.739,64.834h-2.962" transform="translate(471.668 475.319)" fill="none" stroke="#3a6469" stroke-linecap="round" stroke-miterlimit="10" stroke-width="1.5"/>
      <path id="Path_2028" data-name="Path 2028" d="M50.155,8.935a18.607,18.607,0,0,1,25.516,0,16.776,16.776,0,0,1,0,24.444" transform="translate(540.857 516.981)" fill="#fff" stroke="#f9e8ac" stroke-linecap="round" stroke-miterlimit="10" stroke-width="3"/>
      <path id="Path_2031" data-name="Path 2031" d="M48.123,6.515a19.379,19.379,0,0,1,27.081,0,18.608,18.608,0,0,1,0,26.629" transform="translate(542.318 518.186)" fill="none" stroke="#713e5a" stroke-linecap="round" stroke-miterlimit="10" stroke-width="1.5"/>
      <path id="Path_2033" data-name="Path 2033" d="M97.582,62.22l-3.948,3.141V73.7" transform="translate(511.008 471.496)" fill="none" stroke="#713e5a" stroke-linecap="round" stroke-linejoin="round" stroke-width="2"/>
      <path id="Path_2034" data-name="Path 2034" d="M-24140.357-4672.854v2.432" transform="translate(24745 5197)" fill="none" stroke="#713e5a" stroke-linecap="round" stroke-width="1.5"/>
      <path id="Path_2035" data-name="Path 2035" d="M-24140.357-4672.854v2.432" transform="translate(-4054.996 24676.963) rotate(90)" fill="none" stroke="#713e5a" stroke-linecap="round" stroke-width="1.5"/>
    </g>
  </g>
</svg>
