<svg xmlns="http://www.w3.org/2000/svg" width="72.538" height="54.434" viewBox="0 0 72.538 54.434">
  <g id="Group_1723" data-name="Group 1723" transform="translate(-1054.142 -193.136)">
    <path id="Subtraction_7" data-name="Subtraction 7" d="M21125.213,2214.751h0l-11.963-5.839H21093a3,3,0,0,1-3-3V2187a3,3,0,0,1,3-3h36.352a3,3,0,0,1,3,3v18.912a3.006,3.006,0,0,1-3,3h-4.588l.451,5.838Zm-30.539-26.889a1,1,0,0,0-1,1v7a1,1,0,0,0,1,1h11a1,1,0,0,0,1-1v-7a1,1,0,0,0-1-1Z" transform="translate(-20005.672 -1990.864)" fill="#94ccd0"/>
    <path id="Path_2032" data-name="Path 2032" d="M38.1,56.338c-3.087,2.088-7.769,1.7-12.887-.657A45.722,45.722,0,0,1,10.293,43.829,45.722,45.722,0,0,1,.916,27.237C-.673,21.623-.237,16.8,2.553,14.125l.006-.006c.11-.079.215-.148.327-.221A8.917,8.917,0,0,1,5.9,12.654a9.013,9.013,0,0,1,3.339-.075,2.679,2.679,0,0,1,2.207,2.22,33.32,33.32,0,0,0,3.38,9.682,2.615,2.615,0,0,1-.356,2.931l-.018.02a9.32,9.32,0,0,1-.851.829,8.981,8.981,0,0,1-1.671,1.131,2.636,2.636,0,0,0-.977,3.736,53.771,53.771,0,0,0,4.593,6.216,53.848,53.848,0,0,0,5.4,5.493,2.636,2.636,0,0,0,3.843-.381,9,9,0,0,1,1.381-1.477,9.363,9.363,0,0,1,.951-.711l.017-.01a2.613,2.613,0,0,1,2.952.107,33.314,33.314,0,0,0,9.04,4.858,2.679,2.679,0,0,1,1.848,2.53,9.032,9.032,0,0,1-.6,3.291l-.7,1.428L38.685,55.8c-.063.069-.127.138-.193.207" transform="translate(1054.598 188.807)" fill="#94ccd0"/>
    <path id="Path_2021" data-name="Path 2021" d="M38.492,56.007a2.388,2.388,0,0,1-.388.331c-3.087,2.088-7.769,1.7-12.887-.657A45.722,45.722,0,0,1,10.293,43.829,45.722,45.722,0,0,1,.916,27.237C-.673,21.623-.237,16.8,2.553,14.125l.006-.006c.11-.079.215-.148.327-.221A8.917,8.917,0,0,1,5.9,12.654a9.013,9.013,0,0,1,3.339-.075,2.679,2.679,0,0,1,2.207,2.22,33.32,33.32,0,0,0,3.38,9.682,2.615,2.615,0,0,1-.356,2.931l-.018.02a9.32,9.32,0,0,1-.851.829,8.981,8.981,0,0,1-1.671,1.131,2.636,2.636,0,0,0-.977,3.736,53.771,53.771,0,0,0,4.593,6.216,53.848,53.848,0,0,0,5.4,5.493,2.636,2.636,0,0,0,3.843-.381,9,9,0,0,1,1.381-1.477,9.363,9.363,0,0,1,.951-.711l.017-.01a2.613,2.613,0,0,1,2.952.107,33.314,33.314,0,0,0,9.04,4.858,2.679,2.679,0,0,1,1.848,2.53A8.956,8.956,0,0,1,38.685,55.8c-.063.069-.127.138-.193.207" transform="translate(1055.201 188.807)" fill="none" stroke="#17494d" stroke-width="2"/>
    <g id="Union_8" data-name="Union 8" transform="translate(-20005.676 -1990.865)" fill="none">
      <path d="M21113.25,2208.912H21093a3,3,0,0,1-3-3V2187a3,3,0,0,1,3-3h36.352a3,3,0,0,1,3,3v18.912a3,3,0,0,1-3,3h-4.588l.451,5.839Z" stroke="none"/>
      <path d="M 21122.94921875 2211.420654296875 L 21122.6015625 2206.91162109375 L 21129.349609375 2206.91162109375 C 21129.90234375 2206.91162109375 21130.3515625 2206.462158203125 21130.3515625 2205.909912109375 L 21130.3515625 2186.99755859375 C 21130.3515625 2186.447998046875 21129.90234375 2186.0009765625 21129.349609375 2186.0009765625 L 21092.998046875 2186.0009765625 C 21092.44921875 2186.0009765625 21092.001953125 2186.447998046875 21092.001953125 2186.99755859375 L 21092.001953125 2205.909912109375 C 21092.001953125 2206.462158203125 21092.44921875 2206.91162109375 21092.998046875 2206.91162109375 L 21113.712890625 2206.91162109375 L 21114.126953125 2207.1142578125 L 21122.94921875 2211.420654296875 M 21125.212890625 2214.7509765625 L 21113.25 2208.91162109375 L 21092.998046875 2208.91162109375 C 21091.34375 2208.91162109375 21090.001953125 2207.56982421875 21090.001953125 2205.909912109375 L 21090.001953125 2186.99755859375 C 21090.001953125 2185.3427734375 21091.34375 2184.0009765625 21092.998046875 2184.0009765625 L 21129.349609375 2184.0009765625 C 21131.009765625 2184.0009765625 21132.3515625 2185.3427734375 21132.3515625 2186.99755859375 L 21132.3515625 2205.909912109375 C 21132.3515625 2207.56982421875 21131.009765625 2208.91162109375 21129.349609375 2208.91162109375 L 21124.76171875 2208.91162109375 L 21125.212890625 2214.7509765625 Z" stroke="none" fill="#17494d"/>
    </g>
  </g>
</svg>
