<svg xmlns="http://www.w3.org/2000/svg" width="72" height="72" viewBox="0 0 72 72">
  <g id="Group_1804" data-name="Group 1804" transform="translate(-250 -201)">
    <rect id="Rectangle_3270" data-name="Rectangle 3270" width="72" height="72" transform="translate(250 201)" fill="none"/>
    <g id="Group_1716" data-name="Group 1716" transform="translate(-313.805 -259.343)">
      <path id="Path_1994" data-name="Path 1994" d="M65.479,50.744,54.264,54.838,46.212,44.21l-5.567,9.2-.736,1.461L27.37,51.2l.449,16.92L46.074,73.76l20.084-5.751Zm-3.692,13.09L50.721,67.56V61.3l11.066-3.727Z" transform="translate(553.744 447.495)" fill="#d7e1e2"/>
      <g id="Group_1697" data-name="Group 1697" transform="translate(569.805 473.337)">
        <path id="Path_1995" data-name="Path 1995" d="M40.563,56.676a.859.859,0,0,1-.339,0L21.17,50.031a1.028,1.028,0,0,1-.633-1.322.87.87,0,0,1,.079-.181L27.4,37.158a1.051,1.051,0,0,1,1.232-.452l19.054,6.589a1.051,1.051,0,0,1,.588,1.345.69.69,0,0,1-.079.158L41.411,56.167A1.028,1.028,0,0,1,40.563,56.676ZM23.046,48.482l17.054,5.9,5.651-9.55-17.02-5.9Z" transform="translate(-16.761 -26.125)" fill="#3a6469"/>
        <path id="Path_1996" data-name="Path 1996" d="M51.111,56.677a1.051,1.051,0,0,1-.893-.509L43.437,44.8a1.028,1.028,0,0,1,.362-1.424l.192-.09L63.045,36.7a1.051,1.051,0,0,1,1.232.452l6.781,11.369a1.04,1.04,0,0,1-.373,1.424l-.181.079-19.054,6.6A1.13,1.13,0,0,1,51.111,56.677ZM45.89,44.833l5.651,9.55,17.077-5.9-5.651-9.55Z" transform="translate(-13.792 -26.127)" fill="#3a6469"/>
        <path id="Path_1997" data-name="Path 1997" d="M44.35,75.361a1.04,1.04,0,0,1-1.04-1.04V43.48a1.04,1.04,0,1,1,2.079,0V74.321a1.04,1.04,0,0,1-1.04,1.04Z" transform="translate(-13.789 -25.372)" fill="#3a6469"/>
        <path id="Path_1998" data-name="Path 1998" d="M46.555,74.537a.859.859,0,0,1-.339,0L27.151,67.982a1.051,1.051,0,0,1-.7-.983V49.81a1.04,1.04,0,0,1,2.079,0v16.4L46.612,72.4l17.947-6.193V49.81a1.04,1.04,0,0,1,2.079,0V66.943a1.051,1.051,0,0,1-.7.983L46.894,74.481A1.13,1.13,0,0,1,46.555,74.537Z" transform="translate(-15.983 -24.548)" fill="#3a6469"/>
        <path id="Path_1999" data-name="Path 1999" d="M63.4,39.929a1.13,1.13,0,0,1-.339,0L44.007,33.284a1.04,1.04,0,0,1-.6-1.345,1.017,1.017,0,0,1,.6-.6l10.477-3.933a1.062,1.062,0,0,1,.7,0L74.239,34a1.04,1.04,0,0,1,.6,1.345,1.017,1.017,0,0,1-.6.6L63.762,39.872A.972.972,0,0,1,63.4,39.929Zm-16-7.662,15.98,5.526L70.814,35l-15.98-5.526Z" transform="translate(-13.785 -27.336)" fill="#3a6469"/>
        <path id="Path_2000" data-name="Path 2000" d="M28.7,39.93a.983.983,0,0,1-.362-.068L17.857,35.929a1.04,1.04,0,0,1-.6-1.345,1.017,1.017,0,0,1,.6-.6L36.911,27.4a1.062,1.062,0,0,1,.7,0L48.089,31.33a1.04,1.04,0,0,1,.622,1.334,1.028,1.028,0,0,1-.622.622L29.034,39.874A1.13,1.13,0,0,1,28.7,39.93ZM21.281,35l7.425,2.791L44.7,32.268l-7.38-2.791Z" transform="translate(-17.189 -27.337)" fill="#3a6469"/>
        <path id="Path_2001" data-name="Path 2001" d="M44.35,75.361a1.04,1.04,0,0,1-1.04-1.04V43.48a1.04,1.04,0,1,1,2.079,0V74.321a1.04,1.04,0,0,1-1.04,1.04Z" transform="translate(-13.789 -25.372)" fill="#3a6469"/>
        <path id="Path_2002" data-name="Path 2002" d="M46.555,74.537a.859.859,0,0,1-.339,0L27.151,67.982a1.051,1.051,0,0,1-.7-.983V49.81a1.04,1.04,0,0,1,2.079,0v16.4L46.612,72.4l17.947-6.193V49.81a1.04,1.04,0,0,1,2.079,0V66.943a1.051,1.051,0,0,1-.7.983L46.894,74.481A1.13,1.13,0,0,1,46.555,74.537Z" transform="translate(-15.983 -24.548)" fill="#3a6469"/>
      </g>
    </g>
  </g>
</svg>
