<svg xmlns="http://www.w3.org/2000/svg" width="78" height="78" viewBox="0 0 78 78">
  <g id="Group_2310" data-name="Group 2310" transform="translate(-2756 7175)">
    <rect id="Rectangle_3490" data-name="Rectangle 3490" width="78" height="78" transform="translate(2756 -7175)" fill="#fff"/>
    <g id="Group_2308" data-name="Group 2308" transform="translate(2195.209 -7680.188)">
      <path id="Path_2032" data-name="Path 2032" d="M38.492,56.007a2.388,2.388,0,0,1-.388.331c-3.087,2.088-7.769,1.7-12.887-.657A45.722,45.722,0,0,1,10.293,43.829,45.722,45.722,0,0,1,.916,27.237C-.673,21.623-.237,16.8,2.553,14.125l.006-.006c.11-.079.215-.148.327-.221A8.917,8.917,0,0,1,5.9,12.654a9.013,9.013,0,0,1,3.339-.075,2.679,2.679,0,0,1,2.207,2.22,33.32,33.32,0,0,0,3.38,9.682,2.615,2.615,0,0,1-.356,2.931l-.018.02a9.32,9.32,0,0,1-.851.829,8.981,8.981,0,0,1-1.671,1.131,2.636,2.636,0,0,0-.977,3.736,53.772,53.772,0,0,0,4.593,6.216,53.847,53.847,0,0,0,5.4,5.493,2.636,2.636,0,0,0,3.843-.381,9,9,0,0,1,1.381-1.477,9.363,9.363,0,0,1,.951-.711l.017-.01a2.613,2.613,0,0,1,2.952.107,33.314,33.314,0,0,0,9.04,4.858,2.679,2.679,0,0,1,1.848,2.53A8.956,8.956,0,0,1,38.685,55.8c-.063.069-.127.138-.193.207" transform="translate(572.326 513.17)" fill="#a5e3e8"/>
      <path id="Path_2021" data-name="Path 2021" d="M33.181,58.7a20.352,20.352,0,0,1-8.382-2.11l-.027-.013a46.722,46.722,0,0,1-15.239-12.1A46.722,46.722,0,0,1-.038,27.537l-.008-.027A20.993,20.993,0,0,1-.9,19.464a9.657,9.657,0,0,1,2.754-6.053l.057-.057.066-.048c.126-.091.244-.168.364-.247a9.882,9.882,0,0,1,3.354-1.385A10.013,10.013,0,0,1,9.4,11.592a3.675,3.675,0,0,1,3.029,3.036,32.279,32.279,0,0,0,3.277,9.381l.005.01a3.593,3.593,0,0,1-.492,4.052L15.2,28.1a10.366,10.366,0,0,1-.944.919A10,10,0,0,1,12.4,30.275a1.636,1.636,0,0,0-.6,2.317,52.954,52.954,0,0,0,4.509,6.1,53.038,53.038,0,0,0,5.3,5.393,1.635,1.635,0,0,0,1.083.41c.054,0,.108,0,.162-.008a1.641,1.641,0,0,0,1.138-.634,10.014,10.014,0,0,1,1.531-1.636,10.4,10.4,0,0,1,1.053-.788l.044-.027a3.613,3.613,0,0,1,4.067.157l.009.006a32.271,32.271,0,0,0,8.759,4.709,3.674,3.674,0,0,1,2.526,3.47,9.935,9.935,0,0,1-2.549,6.722l-.005.006c-.075.082-.143.155-.207.222a3.394,3.394,0,0,1-.548.467A9.6,9.6,0,0,1,33.181,58.7Zm-7.532-3.92a18.65,18.65,0,0,0,7.532,1.92,7.647,7.647,0,0,0,4.363-1.19,1.382,1.382,0,0,0,.222-.19l0,0c.06-.062.117-.125.174-.187a7.939,7.939,0,0,0,2.034-5.369,1.677,1.677,0,0,0-1.158-1.586l-.022-.007a34.268,34.268,0,0,1-9.307-5,1.613,1.613,0,0,0-1.818-.063l-.024.015a8.4,8.4,0,0,0-.83.623,8.01,8.01,0,0,0-1.227,1.312l-.006.009a3.647,3.647,0,0,1-2.536,1.418c-.119.012-.24.018-.359.018a3.633,3.633,0,0,1-2.406-.91,55.031,55.031,0,0,1-5.5-5.594,54.946,54.946,0,0,1-4.676-6.329,3.636,3.636,0,0,1,1.349-5.152l.009,0A7.994,7.994,0,0,0,12.951,27.5a8.346,8.346,0,0,0,.759-.739l.012-.013a1.6,1.6,0,0,0,.219-1.8,34.276,34.276,0,0,1-3.478-9.967l0-.023a1.677,1.677,0,0,0-1.383-1.391,8.05,8.05,0,0,0-2.968.067,7.889,7.889,0,0,0-2.677,1.1c-.081.053-.156.1-.23.154a7.751,7.751,0,0,0-2.114,4.8,19.018,19.018,0,0,0,.789,7.257,44.722,44.722,0,0,0,9.168,16.215l.023.026A44.722,44.722,0,0,0,25.649,54.779Z" transform="translate(572.93 513.17)" fill="#17494d"/>
      <path id="Line_1" data-name="Line 1" d="M0,3.714a.75.75,0,0,1-.75-.75V0A.75.75,0,0,1,0-.75.75.75,0,0,1,.75,0V2.964A.75.75,0,0,1,0,3.714Z" transform="translate(600.545 524.146)" fill="#3a6469"/>
      <path id="Path_2024" data-name="Path 2024" d="M144.739,65.584h-2.962a.75.75,0,0,1,0-1.5h2.962a.75.75,0,0,1,0,1.5Z" transform="translate(471.668 475.319)" fill="#3a6469"/>
      <path id="Path_2028" data-name="Path 2028" d="M50.155,8.935a18.607,18.607,0,0,1,25.516,0,16.776,16.776,0,0,1,0,24.444" transform="translate(540.857 516.981)" fill="#fff"/>
      <path id="Path_2028_-_Outline" data-name="Path 2028 - Outline" d="M75.671,34.879a1.5,1.5,0,0,1-1.028-2.593,15.276,15.276,0,0,0,0-22.258,17.107,17.107,0,0,0-23.46,0,1.5,1.5,0,0,1-2.057-2.184,20.107,20.107,0,0,1,27.573,0,18.276,18.276,0,0,1,0,26.629A1.5,1.5,0,0,1,75.671,34.879Z" transform="translate(540.857 516.981)" fill="#a5e3e8"/>
      <path id="Path_2031" data-name="Path 2031" d="M75.2,33.894a.75.75,0,0,1-.524-1.287,17.858,17.858,0,0,0,0-25.556,18.629,18.629,0,0,0-26.033,0A.75.75,0,1,1,47.6,5.978a20.129,20.129,0,0,1,28.129,0,19.358,19.358,0,0,1,0,27.7A.748.748,0,0,1,75.2,33.894Z" transform="translate(542.318 518.186)" fill="#1d484d"/>
      <path id="Path_2033" data-name="Path 2033" d="M93.634,74.7a1,1,0,0,1-1-1V65.361a1,1,0,0,1,.377-.783l3.948-3.141A1,1,0,1,1,98.2,63l-3.571,2.841V73.7A1,1,0,0,1,93.634,74.7Z" transform="translate(511.008 471.496)" fill="#17494d"/>
      <path id="Path_2034" data-name="Path 2034" d="M-24140.357-4669.672a.75.75,0,0,1-.75-.75v-2.432a.75.75,0,0,1,.75-.75.75.75,0,0,1,.75.75v2.432A.75.75,0,0,1-24140.357-4669.672Z" transform="translate(24745 5197)" fill="#17494d"/>
      <path id="Path_2035" data-name="Path 2035" d="M-24140.357-4669.672a.75.75,0,0,1-.75-.75v-2.432a.75.75,0,0,1,.75-.75.75.75,0,0,1,.75.75v2.432A.75.75,0,0,1-24140.357-4669.672Z" transform="translate(-4054.996 24676.963) rotate(90)" fill="#17494d"/>
    </g>
  </g>
</svg>
