<svg xmlns="http://www.w3.org/2000/svg" width="78" height="78" viewBox="0 0 78 78">
  <g id="Group_2313" data-name="Group 2313" transform="translate(-2847 7175)">
    <rect id="Rectangle_3490" data-name="Rectangle 3490" width="78" height="78" transform="translate(2847 -7175)" fill="#fff"/>
    <g id="Group_2309" data-name="Group 2309" transform="translate(2135.951 -8064.015)">
      <path id="Subtraction_6" data-name="Subtraction 6" d="M36.96,50.271H1a1,1,0,0,1-1-1V1A1,1,0,0,1,1,0H35.96a2,2,0,0,1,2,2V49.271A1,1,0,0,1,36.96,50.271ZM8.695,34.369a1,1,0,0,0-1,1V42.6a1,1,0,0,0,1,1h8.259a1,1,0,0,0,1-1V35.369a1,1,0,0,0-1-1Zm13.1,5.287a1.026,1.026,0,1,0,0,2.052h8.67a1.026,1.026,0,1,0,0-2.052Zm0-4.1a1.027,1.027,0,0,0,0,2.053h8.67a1.027,1.027,0,0,0,0-2.053Zm-13.1-17.6a1,1,0,0,0-1,1v7.233a1,1,0,0,0,1,1h8.259a1,1,0,0,0,1-1V18.954a1,1,0,0,0-1-1Zm13.1,5.287a1.026,1.026,0,1,0,0,2.052h8.67a1.026,1.026,0,1,0,0-2.052Zm0-4.1a1.026,1.026,0,0,0,0,2.052h8.67a1.026,1.026,0,1,0,0-2.052Z" transform="translate(730.584 902.584)" fill="#a5e3e8"/>
      <path id="Path_5525" data-name="Path 5525" d="M1-1H35.713a2,2,0,0,1,2,2V49.48a2,2,0,0,1-2,2H1a2,2,0,0,1-2-2V1A2,2,0,0,1,1-1ZM35.713,49.48V1H1V49.48Z" transform="translate(730.966 902.966)" fill="#17494d"/>
      <g id="Group_1713" data-name="Group 1713" transform="translate(753.625 911.797)">
        <g id="Path_2039" data-name="Path 2039" transform="translate(20.942 2.473) rotate(45)">
          <path id="Path_6196" data-name="Path 6196" d="M3.117,27.964.75,23.424V.75H5.37V23.431Z" fill="#17494d"/>
          <path id="Path_6197" data-name="Path 6197" d="M1.5,1.5V23.24l1.6,3.071,1.52-3.056V1.5H1.5M0,0H6.12V23.608L3.132,29.617,0,23.607Z" fill="#713e5a"/>
        </g>
        <path id="Path_2042" data-name="Path 2042" d="M-24375.578-5536.872l3.363,3.47-4.9,1.8Z" transform="translate(24380.254 5556.423)" fill="#fff"/>
        <path id="Path_2038" data-name="Path 2038" d="M-24406.385-5536.752l-1.6,4.872,4.592-1.761Z" transform="translate(24411.258 5556.426)" fill="#fff"/>
        <g id="Path_2036" data-name="Path 2036" transform="translate(20.942 2.473) rotate(45)">
          <path id="Path_6198" data-name="Path 6198" d="M0,0H6.12V23.608L3.132,29.617,0,23.607Z" fill="none"/>
          <path id="Path_6199" data-name="Path 6199" d="M1.5,1.5V23.24l1.6,3.071,1.52-3.056V1.5H1.5M0,0H6.12V23.608L3.132,29.617,0,23.607Z" fill="#17494d"/>
        </g>
        <g id="Rectangle_3210" data-name="Rectangle 3210" transform="translate(23.417) rotate(45)">
          <path id="Path_6200" data-name="Path 6200" d="M2,0H4.121a1.9,1.9,0,0,1,2,1.773v2.1H0v-2.1A1.9,1.9,0,0,1,2,0Z" fill="#fff"/>
          <path id="Path_6201" data-name="Path 6201" d="M2,0H4.121a2,2,0,0,1,2,2V4.372H0V2A2,2,0,0,1,2,0ZM4.621,2.872V2a.5.5,0,0,0-.5-.5H2a.5.5,0,0,0-.5.5v.872Z" fill="#17494d"/>
        </g>
        <path id="Path_2043" data-name="Path 2043" d="M-24397.76-5538.444a.5.5,0,0,1-.359-.151.522.522,0,0,1-.152-.361.514.514,0,0,1,.148-.363l3.029-3.028a.516.516,0,0,1,.363-.15.51.51,0,0,1,.361.149.508.508,0,0,1,.152.363.51.51,0,0,1-.152.363l-3.029,3.027a.5.5,0,0,1-.361.15Z" transform="translate(24410.348 5553.807)" fill="#fff"/>
        <path id="Path_2044" data-name="Path 2044" d="M-24397.76-5541.421a.52.52,0,0,1-.318-.108.518.518,0,0,1-.086-.722l.041-.051a.514.514,0,0,1,.721-.088.515.515,0,0,1,.086.721l-.043.051A.5.5,0,0,1-24397.76-5541.421Z" transform="translate(24414.637 5552.442)" fill="#fff"/>
      </g>
      <rect id="Rectangle_3211" data-name="Rectangle 3211" width="26.617" height="5.507" rx="1" transform="translate(736.473 907.555)" fill="#fff"/>
    </g>
  </g>
</svg>
