<svg xmlns="http://www.w3.org/2000/svg" width="216" height="210" viewBox="0 0 216 210">
  <g id="Group_1730" data-name="Group 1730" transform="translate(-1022 -3193)">
    <rect id="Rectangle_3174" data-name="Rectangle 3174" width="216" height="210" transform="translate(1022 3193)" fill="none"/>
    <g id="Group_1729" data-name="Group 1729" transform="translate(329.49 3.967)">
      <g id="Path_1556" data-name="Path 1556" transform="translate(716.51 3209.033)" fill="#fff">
        <path d="M 84.48914337158203 168.9658203125 C 78.82424926757812 168.9658203125 73.16318511962891 168.391845703125 67.66323089599609 167.2597961425781 C 62.30351257324219 166.1566314697266 57.03149032592773 164.5105438232422 51.99364471435547 162.3672637939453 C 47.04692459106445 160.2627410888672 42.27568817138672 157.6578674316406 37.8125114440918 154.6249694824219 C 33.39136123657227 151.6206512451172 29.23386001586914 148.1703186035156 25.45546913146973 144.369873046875 C 21.6769905090332 140.5693054199219 18.24657821655273 136.3873291015625 15.25955677032471 131.9401092529297 C 12.24399089813232 127.4503631591797 9.653947830200195 122.6507110595703 7.561404228210449 117.6744537353516 C 5.430208683013916 112.6063232421875 3.793404340744019 107.3025817871094 2.696447610855103 101.9105606079102 C 1.570773839950562 96.37736511230469 1.000012993812561 90.68208312988281 1.000012993812561 84.98291015625 C 1.000012993812561 79.28373718261719 1.570773839950562 73.58845520019531 2.696447610855103 68.05525970458984 C 3.793404340744019 62.66323471069336 5.430208683013916 57.3594970703125 7.561404228210449 52.29136657714844 C 9.653947830200195 47.31510543823242 12.24399089813232 42.51545333862305 15.25955677032471 38.02571487426758 C 18.24657821655273 33.57849884033203 21.6769905090332 29.39651870727539 25.45546913146973 25.5959529876709 C 29.23386001586914 21.79549789428711 33.39136123657227 18.34517097473145 37.8125114440918 15.34084510803223 C 42.27568817138672 12.30795383453369 47.04692459106445 9.703083992004395 51.99364471435547 7.598562240600586 C 57.03149032592773 5.45527982711792 62.30351257324219 3.809192657470703 67.66323089599609 2.706018924713135 C 73.16318511962891 1.573975324630737 78.82424926757812 0.9999971389770508 84.48914337158203 0.9999971389770508 C 90.15403747558594 0.9999971389770508 95.81510162353516 1.573975324630737 101.315055847168 2.706018924713135 C 106.6747741699219 3.809192657470703 111.9467926025391 5.45527982711792 116.9846420288086 7.598562240600586 C 121.9313812255859 9.703083992004395 126.7025985717773 12.30795383453369 131.165771484375 15.34084510803223 C 135.5869293212891 18.34517097473145 139.7444458007812 21.79549789428711 143.5228424072266 25.5959529876709 C 147.3013153076172 29.39651870727539 150.7317047119141 33.57849884033203 153.71875 38.02573776245117 C 156.7343139648438 42.51545333862305 159.3243560791016 47.31510543823242 161.4169006347656 52.29136657714844 C 163.548095703125 57.3594970703125 165.1849060058594 62.66323471069336 166.2818450927734 68.05525970458984 C 167.4075317382812 73.58845520019531 167.9783020019531 79.28373718261719 167.9783020019531 84.98291015625 C 167.9783020019531 90.68208312988281 167.4075317382812 96.37736511230469 166.2818450927734 101.9105606079102 C 165.1849060058594 107.3025817871094 163.548095703125 112.6063232421875 161.4169006347656 117.6744537353516 C 159.3243560791016 122.6507110595703 156.7343139648438 127.4503631591797 153.71875 131.9400787353516 C 150.7317047119141 136.3873291015625 147.3013153076172 140.5693054199219 143.5228424072266 144.369873046875 C 139.7444458007812 148.1703186035156 135.5869293212891 151.6206512451172 131.165771484375 154.6249694824219 C 126.7025985717773 157.6578674316406 121.9313812255859 160.2627410888672 116.9846420288086 162.3672637939453 C 111.9467926025391 164.5105438232422 106.6747741699219 166.1566314697266 101.315055847168 167.2597961425781 C 95.81510162353516 168.391845703125 90.15403747558594 168.9658203125 84.48914337158203 168.9658203125 Z" stroke="none"/>
        <path d="M 84.48914337158203 2 C 78.89182281494141 2 73.29859924316406 2.567092895507812 67.86482238769531 3.68548583984375 C 62.57007598876953 4.7752685546875 57.3619384765625 6.40142822265625 52.38512420654297 8.518753051757812 C 47.49800872802734 10.59791564941406 42.78416442871094 13.17147827148438 38.37455749511719 16.16795349121094 C 34.006103515625 19.136474609375 29.89810180664062 22.54573059082031 26.16462707519531 26.30099487304688 C 22.43095397949219 30.05647277832031 19.041259765625 34.1888427734375 16.08969116210938 38.58329772949219 C 13.11000061035156 43.01959228515625 10.55079650878906 47.76206970214844 8.48321533203125 52.67897796630859 C 6.377487182617188 57.68656921386719 4.760238647460938 62.92695617675781 3.676376342773438 68.25459289550781 C 2.56402587890625 73.72234344482422 2 79.35054779052734 2 84.98291015625 C 2 90.61527252197266 2.56402587890625 96.24347686767578 3.676376342773438 101.7112274169922 C 4.760238647460938 107.0388641357422 6.377487182617188 112.2792510986328 8.48321533203125 117.2868423461914 C 10.55079650878906 122.2037506103516 13.11000061035156 126.9462280273438 16.08969116210938 131.3825225830078 C 19.041259765625 135.7769775390625 22.43095397949219 139.9093475341797 26.16462707519531 143.6648254394531 C 29.89810180664062 147.4200897216797 34.006103515625 150.829345703125 38.37455749511719 153.7978668212891 C 42.78416442871094 156.7943420410156 47.49800872802734 159.3679046630859 52.38512420654297 161.4470672607422 C 57.3619384765625 163.5643920898438 62.57007598876953 165.1905517578125 67.86482238769531 166.2803344726562 C 73.29859924316406 167.3987274169922 78.89182281494141 167.9658203125 84.48914337158203 167.9658203125 C 90.08646392822266 167.9658203125 95.6796875 167.3987579345703 101.1134414672852 166.2803344726562 C 106.4082107543945 165.1905517578125 111.616325378418 163.5643920898438 116.5931701660156 161.4470672607422 C 121.4802780151367 159.3679046630859 126.1941223144531 156.7943420410156 130.6037139892578 153.7978668212891 C 134.97216796875 150.829345703125 139.0801849365234 147.4200897216797 142.8136444091797 143.6648254394531 C 146.5473327636719 139.9093475341797 149.93701171875 135.7769775390625 152.8885955810547 131.3825225830078 C 155.8682861328125 126.9462280273438 158.4274597167969 122.2037506103516 160.4950714111328 117.2868423461914 C 162.6007995605469 112.2792510986328 164.2180480957031 107.0388641357422 165.3019104003906 101.7112274169922 C 166.4142608642578 96.24347686767578 166.9782867431641 90.61527252197266 166.9782867431641 84.98291015625 C 166.9782867431641 79.35054779052734 166.4142608642578 73.72234344482422 165.3019104003906 68.25459289550781 C 164.2180480957031 62.92695617675781 162.6007995605469 57.68656921386719 160.4950714111328 52.67897796630859 C 158.4274597167969 47.76206970214844 155.8682861328125 43.01959228515625 152.8885955810547 38.58329772949219 C 149.93701171875 34.1888427734375 146.5473327636719 30.05647277832031 142.8136444091797 26.30099487304688 C 139.0801849365234 22.54573059082031 134.97216796875 19.136474609375 130.6037139892578 16.16795349121094 C 126.1941223144531 13.17147827148438 121.4802780151367 10.59791564941406 116.5931701660156 8.518753051757812 C 111.616325378418 6.40142822265625 106.4082107543945 4.7752685546875 101.1134414672852 3.68548583984375 C 95.6796875 2.567062377929688 90.08646392822266 2 84.48914337158203 2 M 84.48914337158203 0 C 131.1511840820312 0 168.9782867431641 38.04814147949219 168.9782867431641 84.98291015625 C 168.9782867431641 131.9176788330078 131.1511840820312 169.9658203125 84.48914337158203 169.9658203125 C 37.82707214355469 169.9658203125 0 131.9176788330078 0 84.98291015625 C 0 38.04814147949219 37.82707214355469 0 84.48914337158203 0 Z" stroke="none" fill="#00b67a"/>
      </g>
      <g id="Star" transform="translate(750.161 3273.017)">
        <path id="Path_597" data-name="Path 597" d="M31.839,11.572H19.681L15.925,0,12.158,11.572,0,11.56l9.846,7.159L6.079,30.278l9.846-7.147,9.835,7.147L22,18.719l9.835-7.147Z" fill="#00b67a"/>
        <path id="Path_598" data-name="Path 598" d="M142.624,162.117l-.845-2.617-6.079,4.413Z" transform="translate(-119.775 -140.781)" fill="#005128"/>
      </g>
      <g id="Star-2" data-name="Star" transform="translate(785.08 3273.017)">
        <path id="Path_597-2" data-name="Path 597" d="M31.839,11.572H19.681L15.925,0,12.158,11.572,0,11.56l9.846,7.159L6.079,30.278l9.846-7.147,9.835,7.147L22,18.719l9.835-7.147Z" fill="#00b67a"/>
        <path id="Path_598-2" data-name="Path 598" d="M142.624,162.117l-.845-2.617-6.079,4.413Z" transform="translate(-119.775 -140.781)" fill="#005128"/>
      </g>
      <g id="Star-3" data-name="Star" transform="translate(819.999 3273.017)">
        <path id="Path_597-3" data-name="Path 597" d="M31.839,11.572H19.681L15.925,0,12.158,11.572,0,11.56l9.846,7.159L6.079,30.278l9.846-7.147,9.835,7.147L22,18.719l9.835-7.147Z" fill="#00b67a"/>
        <path id="Path_598-3" data-name="Path 598" d="M142.624,162.117l-.845-2.617-6.079,4.413Z" transform="translate(-119.775 -140.781)" fill="#005128"/>
      </g>
      <g id="Star-4" data-name="Star" transform="translate(767.08 3239.738)">
        <path id="Path_597-4" data-name="Path 597" d="M31.839,11.572H19.681L15.925,0,12.158,11.572,0,11.56l9.846,7.159L6.079,30.278l9.846-7.147,9.835,7.147L22,18.719l9.835-7.147Z" fill="#00b67a"/>
        <path id="Path_598-4" data-name="Path 598" d="M142.624,162.117l-.845-2.617-6.079,4.413Z" transform="translate(-119.775 -140.781)" fill="#005128"/>
      </g>
      <g id="Star-5" data-name="Star" transform="translate(802.161 3239.738)">
        <path id="Path_597-5" data-name="Path 597" d="M31.839,11.572H19.681L15.925,0,12.158,11.572,0,11.56l9.846,7.159L6.079,30.278l9.846-7.147,9.835,7.147L22,18.719l9.835-7.147Z" fill="#00b67a"/>
        <path id="Path_598-5" data-name="Path 598" d="M142.624,162.117l-.845-2.617-6.079,4.413Z" transform="translate(-119.775 -140.781)" fill="#005128"/>
      </g>
      <path id="Path_1558" data-name="Path 1558" d="M-26.568,0V-12.78h4.9a3.852,3.852,0,0,1,2.835,1.08A3.648,3.648,0,0,1-17.748-9a3.27,3.27,0,0,1-2.628,3.33L-15.786,0h-3.15l-4.392-5.382h-.63V0Zm2.61-7.614h1.98a1.807,1.807,0,0,0,1.2-.369A1.255,1.255,0,0,0-20.34-9a1.255,1.255,0,0,0-.441-1.017,1.807,1.807,0,0,0-1.2-.369h-1.98ZM-11.7.2a3.857,3.857,0,0,1-3.006-1.386A4.835,4.835,0,0,1-15.93-4.5a4.835,4.835,0,0,1,1.224-3.312A3.857,3.857,0,0,1-11.7-9.2a3.273,3.273,0,0,1,1.548.36,3.016,3.016,0,0,1,1.044.846V-9h2.466V0H-9.108V-1.008a3.016,3.016,0,0,1-1.044.846A3.273,3.273,0,0,1-11.7.2Zm-1.134-2.934a2.145,2.145,0,0,0,1.656.684,2.117,2.117,0,0,0,1.647-.684A2.523,2.523,0,0,0-8.91-4.5a2.523,2.523,0,0,0-.621-1.764,2.117,2.117,0,0,0-1.647-.684,2.117,2.117,0,0,0-1.647.684A2.523,2.523,0,0,0-13.446-4.5,2.546,2.546,0,0,0-12.834-2.736ZM.108.108A3.637,3.637,0,0,1-2.367-.729,3.034,3.034,0,0,1-3.33-3.15V-6.84H-5.148V-9H-3.33v-2.5H-.864V-9H1.674v2.16H-.864v3.2A1.6,1.6,0,0,0-.5-2.457a1.634,1.634,0,0,0,1.17.351,2.865,2.865,0,0,0,1.008-.162V-.09A5.406,5.406,0,0,1,.108.108ZM7.452.2A4.577,4.577,0,0,1,4.059-1.134,4.6,4.6,0,0,1,2.736-4.518,4.524,4.524,0,0,1,4.077-7.866,4.615,4.615,0,0,1,7.47-9.2a4.585,4.585,0,0,1,3.438,1.413,4.98,4.98,0,0,1,1.26,3.861H5.148a2.073,2.073,0,0,0,.7,1.413,2.489,2.489,0,0,0,1.728.567A2.565,2.565,0,0,0,8.757-2.2a1.534,1.534,0,0,0,.729-.729H12.06A4.046,4.046,0,0,1,10.4-.675,5.054,5.054,0,0,1,7.452.2ZM7.4-7.2a2.232,2.232,0,0,0-1.413.441,2.079,2.079,0,0,0-.747,1.215h4.23A2,2,0,0,0,8.685-6.8,2.212,2.212,0,0,0,7.4-7.2ZM17.622.2a3.857,3.857,0,0,1-3.006-1.386A4.835,4.835,0,0,1,13.392-4.5a4.835,4.835,0,0,1,1.224-3.312A3.857,3.857,0,0,1,17.622-9.2a3.273,3.273,0,0,1,1.548.36,3.016,3.016,0,0,1,1.044.846V-13.5H22.68V0H20.214V-1.008a3.016,3.016,0,0,1-1.044.846A3.273,3.273,0,0,1,17.622.2ZM16.488-2.736a2.145,2.145,0,0,0,1.656.684,2.117,2.117,0,0,0,1.647-.684A2.523,2.523,0,0,0,20.412-4.5a2.523,2.523,0,0,0-.621-1.764,2.117,2.117,0,0,0-1.647-.684,2.117,2.117,0,0,0-1.647.684A2.523,2.523,0,0,0,15.876-4.5,2.546,2.546,0,0,0,16.488-2.736ZM-38.43,19V6.22h7.956V8.7H-35.82v2.628h4.266v2.484H-35.82v2.7h5.346V19Zm16,0-2.088-2.646L-26.6,19h-2.97l3.492-4.41-3.4-4.59h2.916l2.034,2.754L-22.5,10h2.934l-3.4,4.59L-19.476,19Zm7.83.2a4.574,4.574,0,0,1-3.384-1.359,4.555,4.555,0,0,1-1.35-3.339,4.555,4.555,0,0,1,1.35-3.339A4.574,4.574,0,0,1-14.6,9.8a4.564,4.564,0,0,1,3.015,1.008A4.7,4.7,0,0,1-9.99,13.438h-2.556a2.083,2.083,0,0,0-2.052-1.4,2.117,2.117,0,0,0-1.62.675,2.519,2.519,0,0,0-.63,1.791,2.519,2.519,0,0,0,.63,1.791,2.117,2.117,0,0,0,1.62.675,2.083,2.083,0,0,0,2.052-1.4H-9.99a4.7,4.7,0,0,1-1.593,2.628A4.564,4.564,0,0,1-14.6,19.2Zm10.422,0a4.577,4.577,0,0,1-3.393-1.332,4.6,4.6,0,0,1-1.323-3.384,4.524,4.524,0,0,1,1.341-3.348A4.615,4.615,0,0,1-4.158,9.8,4.585,4.585,0,0,1-.72,11.215,4.98,4.98,0,0,1,.54,15.076H-6.48a2.073,2.073,0,0,0,.7,1.413,2.489,2.489,0,0,0,1.728.567A2.565,2.565,0,0,0-2.871,16.8a1.534,1.534,0,0,0,.729-.729H.432a4.046,4.046,0,0,1-1.656,2.259A5.054,5.054,0,0,1-4.176,19.2Zm-.054-7.4a2.232,2.232,0,0,0-1.413.441,2.079,2.079,0,0,0-.747,1.215h4.23A2,2,0,0,0-2.943,12.2,2.212,2.212,0,0,0-4.23,11.8ZM2.34,19V5.5H4.806V19Zm4.842,0V5.5H9.648V19Zm8.982.2a4.544,4.544,0,0,1-4.716-4.716,4.524,4.524,0,0,1,1.341-3.348A4.615,4.615,0,0,1,16.182,9.8a4.585,4.585,0,0,1,3.438,1.413,4.98,4.98,0,0,1,1.26,3.861H13.86a2.073,2.073,0,0,0,.7,1.413,2.489,2.489,0,0,0,1.728.567,2.565,2.565,0,0,0,1.179-.261,1.534,1.534,0,0,0,.729-.729h2.574a4.046,4.046,0,0,1-1.656,2.259A5.054,5.054,0,0,1,16.164,19.2Zm-.054-7.4a2.232,2.232,0,0,0-1.413.441,2.079,2.079,0,0,0-.747,1.215h4.23A2,2,0,0,0,17.4,12.2,2.212,2.212,0,0,0,16.11,11.8ZM22.68,19V10h2.466v1.026A2.889,2.889,0,0,1,27.72,9.8a3.192,3.192,0,0,1,2.547,1.071,4.207,4.207,0,0,1,.927,2.853V19H28.728V14.14a2.51,2.51,0,0,0-.414-1.539,1.38,1.38,0,0,0-1.17-.549A1.806,1.806,0,0,0,25.7,12.7a2.883,2.883,0,0,0-.549,1.908V19Zm15.03.108a3.637,3.637,0,0,1-2.475-.837,3.034,3.034,0,0,1-.963-2.421V12.16H32.454V10h1.818V7.5h2.466V10h2.538v2.16H36.738v3.2a1.6,1.6,0,0,0,.36,1.179,1.634,1.634,0,0,0,1.17.351,2.865,2.865,0,0,0,1.008-.162V18.91A5.406,5.406,0,0,1,37.71,19.108Z" transform="translate(803.583 3329.017)" fill="#17494d"/>
    </g>
  </g>
</svg>
