<svg xmlns="http://www.w3.org/2000/svg" width="78" height="78" viewBox="0 0 78 78">
  <g id="Group_1744" data-name="Group 1744" transform="translate(-1049 -3238)">
    <rect id="Rectangle_3242" data-name="Rectangle 3242" width="78" height="78" transform="translate(1049 3238)" fill="#fff"/>
    <g id="Group_1739" data-name="Group 1739" transform="translate(658 7.902)">
      <path id="Path_2070" data-name="Path 2070" d="M7.135,40.2a17.128,17.128,0,1,1,34.257,0" transform="translate(405.709 3236.344)" fill="none" stroke="#3a6469" stroke-miterlimit="10" stroke-width="2"/>
      <path id="Path_2071" data-name="Path 2071" d="M5.509,53.673h0a5.57,5.57,0,0,1-3.538-1.215A3.8,3.8,0,0,1,.5,49.536V45.51a3.8,3.8,0,0,1,1.471-2.922,5.566,5.566,0,0,1,3.538-1.215,5.566,5.566,0,0,1,3.538,1.215,3.8,3.8,0,0,1,1.471,2.922v4.026a3.8,3.8,0,0,1-1.471,2.922A5.57,5.57,0,0,1,5.509,53.673Z" transform="translate(405.709 3235.895)" fill="#d7e1e2" stroke="#3a6469" stroke-miterlimit="10" stroke-width="2"/>
      <path id="Path_2072" data-name="Path 2072" d="M10.019,4.136A3.8,3.8,0,0,0,8.547,1.215,5.563,5.563,0,0,0,5.01,0,5.566,5.566,0,0,0,1.472,1.215,3.8,3.8,0,0,0,0,4.136V8.162a3.805,3.805,0,0,0,1.472,2.922A5.57,5.57,0,0,0,5.01,12.3a5.568,5.568,0,0,0,3.537-1.215,3.805,3.805,0,0,0,1.472-2.922" transform="translate(454 3289.372) rotate(180)" fill="#d7e1e2" stroke="#3a6469" stroke-miterlimit="10" stroke-width="2"/>
      <path id="Path_2073" data-name="Path 2073" d="M41.236,53.8v6.025a5.994,5.994,0,0,1-5.993,5.993H31.072" transform="translate(405.709 3232.711)" fill="none" stroke="#3a6469" stroke-miterlimit="10" stroke-width="2"/>
      <path id="Path_2074" data-name="Path 2074" d="M25.782,67.6H23.238a2.633,2.633,0,0,1,0-5.265h2.544a2.633,2.633,0,0,1,0,5.265Z" transform="translate(407.801 3233.447)" fill="none" stroke="#3a6469" stroke-miterlimit="10" stroke-width="2"/>
      <path id="Path_2075" data-name="Path 2075" d="M19.545,13.241l-2.344,1.7.9,2.755.9,2.755-2.344-1.7-2.344-1.7-2.343,1.7-2.344,1.7.9-2.755.9-2.755-2.343-1.7-2.344-1.7h5.794l.9-2.755L14.3,6.028,15.2,8.783l.9,2.755h2.9" transform="translate(401.457 3236.344)" fill="none" stroke="#3a6469" stroke-miterlimit="10" stroke-width="1.5"/>
      <path id="Path_2076" data-name="Path 2076" d="M33.325,11.539h2.9l.9-2.755.9-2.755.9,2.755.9,2.755H45.6l-2.344,1.7-2.344,1.7.9,2.755.9,2.755-2.344-1.7-2.344-1.7-2.343,1.7-2.344,1.7.9-2.755.9-2.755-2.343-1.7" transform="translate(406.436 3236.344)" fill="none" stroke="#3a6469" stroke-miterlimit="10" stroke-width="1.5"/>
      <path id="Path_2077" data-name="Path 2077" d="M26.245.809l2.134,6.567h6.9L29.7,11.434,31.831,18l-5.586-4.058L20.659,18l2.134-6.567L17.207,7.376h6.9Z" transform="translate(403.859 3236.344)" fill="#d7e1e2" stroke="#3a6469" stroke-miterlimit="10" stroke-width="1.5"/>
      <rect id="Rectangle_3238" data-name="Rectangle 3238" width="4.204" height="15.282" rx="1" transform="translate(412.486 3275.336)" fill="#d7e1e2" stroke="#3a6469" stroke-miterlimit="10" stroke-width="2"/>
      <rect id="Rectangle_3239" data-name="Rectangle 3239" width="4.204" height="15.282" rx="1" transform="translate(443.518 3275.14)" fill="#d7e1e2" stroke="#3a6469" stroke-miterlimit="10" stroke-width="2"/>
    </g>
  </g>
</svg>
