<svg xmlns="http://www.w3.org/2000/svg" width="137" height="137" viewBox="0 0 137 137">
  <g id="Group_1708" data-name="Group 1708" transform="translate(-13784 -16005)">
    <rect id="Rectangle_3166" data-name="Rectangle 3166" width="137" height="137" transform="translate(13784 16005)" fill="none"/>
    <g id="Group_1705" data-name="Group 1705" transform="translate(13786.028 16021.848)">
      <path id="Union_20" data-name="Union 20" d="M0,88.445A55.137,55.137,0,0,0,9.921,77.322,42.257,42.257,0,0,0,14.57,65.435,39.9,39.9,0,0,1,5.789,40.426C5.789,18.1,24.137,0,46.773,0S87.756,18.1,87.756,40.426,69.408,80.852,46.773,80.852A41.391,41.391,0,0,1,32.958,78.5a53.986,53.986,0,0,1-14.567,7.992,48.787,48.787,0,0,1-14.645,2.09C1.455,88.581,0,88.445,0,88.445Z" transform="translate(21.335 13.474)" fill="#00ad74"/>
      <g id="Group_1614" data-name="Group 1614" transform="translate(48.285 49.407)">
        <ellipse id="Ellipse_514" data-name="Ellipse 514" cx="4.492" cy="4.492" rx="4.492" ry="4.492" transform="translate(0 0)" fill="#fff"/>
        <ellipse id="Ellipse_515" data-name="Ellipse 515" cx="4.492" cy="4.492" rx="4.492" ry="4.492" transform="translate(14.598 0)" fill="#fff"/>
        <ellipse id="Ellipse_516" data-name="Ellipse 516" cx="4.492" cy="4.492" rx="4.492" ry="4.492" transform="translate(29.195 0)" fill="#fff"/>
      </g>
      <path id="Subtraction_6" data-name="Subtraction 6" d="M23.01,71.866H9a9.01,9.01,0,0,1-9-9V39.318a9.01,9.01,0,0,1,9-9H19.6a52.812,52.812,0,0,1,95.549,0H123.5a9.01,9.01,0,0,1,9,9V62.865a9.01,9.01,0,0,1-9,9H111.739a48.285,48.285,0,1,0-88.73,0Z" transform="translate(0 -0.001)" fill="#17494d"/>
      <path id="Path_1458" data-name="Path 1458" d="M-4841.442-12512.661l-.362-2.215a71.582,71.582,0,0,0,8.473-2.135,67.553,67.553,0,0,0,17.085-7.945,49.589,49.589,0,0,0,12.921-13.406,61.7,61.7,0,0,0,4.636-8.267l2.061.889a62.21,62.21,0,0,1-4.832,8.627,58.606,58.606,0,0,1-5.615,7.154,45.445,45.445,0,0,1-7.917,6.869,69.875,69.875,0,0,1-17.709,8.234A70.719,70.719,0,0,1-4841.442-12512.661Z" transform="translate(4911.645 12615.308)" fill="#17494d"/>
      <rect id="Rectangle_2978" data-name="Rectangle 2978" width="13.475" height="6.737" rx="3" transform="translate(64.005 96.569)" fill="#17494d"/>
    </g>
  </g>
</svg>
