<svg xmlns="http://www.w3.org/2000/svg" xmlns:xlink="http://www.w3.org/1999/xlink" width="29" height="21" viewBox="0 0 29 21">
  <defs>
    <clipPath id="clip-path">
      <rect id="Rectangle_3250" data-name="Rectangle 3250" width="19.42" height="16.157" fill="#fff"/>
    </clipPath>
  </defs>
  <g id="Group_2381" data-name="Group 2381" transform="translate(-698 -2214)">
    <rect id="Rectangle_3509" data-name="Rectangle 3509" width="29" height="21" transform="translate(698 2214)" fill="#fff"/>
    <g id="Group_1769" data-name="Group 1769" transform="translate(-107.164 -1445.076)">
      <path id="Path_2107" data-name="Path 2107" d="M-14100.534,580.813a12.528,12.528,0,0,0,2.66-1.026v1.581s.592.736,3.881.919,4.561-.637,4.561-.637l-.25-5.089a5.259,5.259,0,0,0-2.047-2.114,8.089,8.089,0,0,0-3.5-.67s-3.634-.075-5.306,1.205a4.809,4.809,0,0,0-1.706,3.451S-14101.372,580.914-14100.534,580.813Z" transform="translate(14913.345 3088.118)" fill="#e0ad34"/>
      <g id="Group_1761" data-name="Group 1761" transform="translate(810.768 3661.497)">
        <path id="Path_2105" data-name="Path 2105" d="M-21734.09-8716.833l.135,5.962s1.994,4.575,9.563,4.046,9.178-4.2,9.178-4.2l-.289-5.381s-3.025,3.387-9.441,3.419S-21734.09-8716.833-21734.09-8716.833Z" transform="translate(21734.418 8722.654)" fill="#e0ad34"/>
        <g id="Group_1756" data-name="Group 1756" transform="translate(0 0)">
          <g id="Group_1756-2" data-name="Group 1756" transform="translate(0 0)" clip-path="url(#clip-path)">
            <path id="Path_2104" data-name="Path 2104" d="M19.168,5.341a.352.352,0,0,0-.394.148,8.748,8.748,0,0,1-5.232,3.283A16.518,16.518,0,0,1,5.78,8.91,9.481,9.481,0,0,1,2.733,7.688,7.941,7.941,0,0,1,4.507,7.01v.718a.474.474,0,0,0,.322.452l.007,0a.281.281,0,0,0,.373-.264V5.65a3.985,3.985,0,0,0,1.764.833,7.257,7.257,0,0,0,3.416-.061,4.48,4.48,0,0,0,2.133-1.174v2.9a.317.317,0,0,0,.381.31l.01,0a.393.393,0,0,0,.312-.383V3.558a2.3,2.3,0,0,0-.178-.88A4.784,4.784,0,0,0,9.523.267,11.156,11.156,0,0,0,4.28.361,6.144,6.144,0,0,0,.6,2.709,3.57,3.57,0,0,0,0,4.674v6.1a4.022,4.022,0,0,0,1.5,3.014,9.205,9.205,0,0,0,4.121,1.96,17.176,17.176,0,0,0,3.756.411,16.924,16.924,0,0,0,4.341-.557,9.42,9.42,0,0,0,5.645-3.587.35.35,0,0,0,.053-.186V5.677a.351.351,0,0,0-.252-.337M6.909,3.468a.368.368,0,0,0-.435.185.9.9,0,0,0-.119.413v1.48A1.97,1.97,0,0,1,5.28,4.6a.9.9,0,0,1,.1-.872c.451-.706,1.884-1.065,3.13-.784A1.517,1.517,0,0,1,9.6,3.636a.454.454,0,0,1-.051.442,1.966,1.966,0,0,1-1.871.446.839.839,0,0,1-.611-.368.18.18,0,0,1-.012-.063V4.084a.2.2,0,0,1,.035-.094.351.351,0,0,0-.182-.522m2.728,2.4a6.592,6.592,0,0,1-2.58-.082h0V5.044a2.112,2.112,0,0,0,.47.165,2.983,2.983,0,0,0,2.111-.286ZM1.186,3.086A5.474,5.474,0,0,1,4.462,1.039,10.439,10.439,0,0,1,9.369.951,4.114,4.114,0,0,1,12.4,2.945a1.6,1.6,0,0,1-.165,1.543,3.343,3.343,0,0,1-1.892,1.219V3.754a.371.371,0,0,0-.01-.08,1.146,1.146,0,0,0-.079-.3,2.129,2.129,0,0,0-1.588-1.11C7.1,1.907,5.4,2.386,4.784,3.349a1.689,1.689,0,0,0-.269.777.308.308,0,0,0-.008.072v2.09a8.429,8.429,0,0,0-2.394.945C.65,6.011.3,4.474,1.186,3.086m17.533,8.637a8.851,8.851,0,0,1-5.177,3.2,16.533,16.533,0,0,1-7.762.139c-3.1-.7-5.142-2.449-5.079-4.352V6.739a4.947,4.947,0,0,0,.493.6V9.605a.36.36,0,0,0,.26.354.352.352,0,0,0,.442-.34V7.958a7.208,7.208,0,0,0,.621.422v3.732a.359.359,0,0,0,.26.354.352.352,0,0,0,.442-.339V8.765a10.068,10.068,0,0,0,1.021.429v2.32a.358.358,0,0,0,.26.354.352.352,0,0,0,.442-.339V9.419q.335.1.686.176c.123.028.247.053.372.078v3.588a.36.36,0,0,0,.261.355.351.351,0,0,0,.441-.34V9.8q.513.081,1.032.13v2.234a.36.36,0,0,0,.261.355.351.351,0,0,0,.441-.34v-2.2c.348.019.7.028,1.045.026v3.68a.361.361,0,0,0,.261.354.352.352,0,0,0,.442-.34V9.988c.366-.016.732-.044,1.095-.085v2.185a.36.36,0,0,0,.261.354.351.351,0,0,0,.441-.34V9.811q.5-.075.983-.18v3.505a.359.359,0,0,0,.261.354.351.351,0,0,0,.441-.339V9.465l.062-.016c.343-.091.674-.194,1-.3v2.1a.359.359,0,0,0,.261.352.351.351,0,0,0,.441-.339V8.933a.4.4,0,0,0,0-.052q.539-.22,1.025-.478V11.53a.359.359,0,0,0,.261.354.352.352,0,0,0,.442-.339V8q.244-.156.471-.321v5.3a.36.36,0,0,0,.26.355.352.352,0,0,0,.442-.34V7.1c.142-.131.278-.264.4-.4Z" transform="translate(0 0)" fill="#fff"/>
          </g>
        </g>
      </g>
    </g>
  </g>
</svg>
