<svg xmlns="http://www.w3.org/2000/svg" width="29" height="21" viewBox="0 0 29 21">
  <g id="Group_2382" data-name="Group 2382" transform="translate(-698 -2247)">
    <rect id="Rectangle_3510" data-name="Rectangle 3510" width="29" height="21" transform="translate(698 2247)" fill="#fff"/>
    <g id="Group_2379" data-name="Group 2379" transform="translate(-1.548 -0.357)">
      <g id="Group_1486" data-name="Group 1486" transform="translate(703.827 2251.298)">
        <path id="Path_193" data-name="Path 193" d="M1080.855,118.812l-8.419,1.474-5.226-6.2a.579.579,0,0,0-1,.573l5.839,11.757a.943.943,0,0,0,.85.536h5.573a.881.881,0,0,0,.82-.559l2.528-6.43A.854.854,0,0,0,1080.855,118.812Z" transform="translate(-1066.143 -113.822)" fill="#919191"/>
        <path id="Path_194" data-name="Path 194" d="M0,.437,2.484,0,4.863,3.323a1.077,1.077,0,0,1-.3,1.51h0a1.077,1.077,0,0,1-1.471-.28Z" transform="translate(15.206 8.184) rotate(-60)" fill="#919191"/>
      </g>
      <path id="Path_5562" data-name="Path 5562" d="M.529,0a.529.529,0,0,1,.529.529V1.586A.529.529,0,0,1,0,1.586V.529A.529.529,0,0,1,.529,0Z" transform="translate(713.432 2259.4) rotate(48)" fill="#fff"/>
    </g>
  </g>
</svg>
