<svg xmlns="http://www.w3.org/2000/svg" width="36.883" height="36.883" viewBox="0 0 36.883 36.883">
  <g id="Group_2124" data-name="Group 2124" transform="translate(-965.535 -89)">
    <rect id="Rectangle_3242" data-name="Rectangle 3242" width="36.883" height="36.883" transform="translate(965.535 89)" fill="#fff"/>
    <g id="Group_52" data-name="Group 52" transform="translate(974.406 94.122)">
      <path id="Path_47" data-name="Path 47" d="M0,14.408H6.151V0L3.124,3.026,0,0Z" transform="translate(17.233 24.968) rotate(164.991)" fill="#fff" stroke="#3a6469" stroke-width="1"/>
      <path id="Path_48" data-name="Path 48" d="M0,0H6.151V14.408L3.124,11.381,0,14.408Z" transform="translate(4.888 11.052) rotate(15.009)" fill="#d7e1e2" stroke="#3a6469" stroke-width="1"/>
      <path id="Polygon_4" data-name="Polygon 4" d="M13.223,2.562a1.991,1.991,0,0,1,1.518-.138,1.9,1.9,0,0,1,1.144.968l.28.57A1.913,1.913,0,0,0,17.608,5l.617.092a1.933,1.933,0,0,1,1.259.738A1.788,1.788,0,0,1,19.826,7.2l-.138.809a1.8,1.8,0,0,0,.519,1.578l.58.573a1.792,1.792,0,0,1,0,2.57l-.58.573a1.8,1.8,0,0,0-.519,1.579l.136.81a1.788,1.788,0,0,1-.342,1.377,1.933,1.933,0,0,1-1.258.738l-.615.092a1.913,1.913,0,0,0-1.442,1.035l-.28.57a1.9,1.9,0,0,1-1.144.968,1.991,1.991,0,0,1-1.518-.138l-.448-.237a1.989,1.989,0,0,0-1.851,0l-.448.237a1.991,1.991,0,0,1-1.518.138,1.9,1.9,0,0,1-1.144-.968l-.28-.57A1.914,1.914,0,0,0,6.089,17.9l-.617-.092a1.933,1.933,0,0,1-1.259-.738A1.788,1.788,0,0,1,3.871,15.7l.138-.809a1.8,1.8,0,0,0-.519-1.578l-.581-.573a1.792,1.792,0,0,1,0-2.57l.58-.573a1.8,1.8,0,0,0,.52-1.579L3.873,7.2a1.788,1.788,0,0,1,.342-1.377,1.933,1.933,0,0,1,1.258-.738L6.089,5A1.913,1.913,0,0,0,7.532,3.961l.28-.57a1.9,1.9,0,0,1,1.144-.968,1.991,1.991,0,0,1,1.518.138l.448.237a1.989,1.989,0,0,0,1.851,0Z" transform="translate(-2.367 -2.332)" fill="#d7e1e2" stroke="#3a6469" stroke-width="1"/>
      <path id="Ellipse_17" data-name="Ellipse 17" d="M5.121,0A5.121,5.121,0,1,1,0,5.121,5.121,5.121,0,0,1,5.121,0Z" transform="translate(4.543 3.974)" fill="#fff" stroke="#3a6469" stroke-width="1"/>
      <path id="Path_1351" data-name="Path 1351" d="M1.066-10.312v-4.037H.1l.564-.732H1.8v4.77Zm4.676-.443a1.636,1.636,0,0,1-1.243.511,1.631,1.631,0,0,1-1.243-.514,1.849,1.849,0,0,1-.484-1.32v-1.25a1.849,1.849,0,0,1,.484-1.32A1.631,1.631,0,0,1,4.5-15.162a1.641,1.641,0,0,1,1.246.514,1.841,1.841,0,0,1,.487,1.32v1.25A1.846,1.846,0,0,1,5.741-10.755ZM4.5-10.97a.935.935,0,0,0,.722-.3,1.154,1.154,0,0,0,.272-.813v-1.25a1.154,1.154,0,0,0-.272-.813.935.935,0,0,0-.722-.3.927.927,0,0,0-.715.3,1.154,1.154,0,0,0-.272.813v1.25a1.154,1.154,0,0,0,.272.813A.927.927,0,0,0,4.5-10.97Z" transform="translate(6.313 21.737)" fill="#3a6469"/>
    </g>
  </g>
</svg>
