<svg xmlns="http://www.w3.org/2000/svg" width="29" height="29" viewBox="0 0 29 29">
  <g id="Group_2768" data-name="Group 2768" transform="translate(-498 -404)">
    <g id="Group_2761" data-name="Group 2761" transform="translate(498 404)">
      <rect id="Rectangle_2502" data-name="Rectangle 2502" width="29" height="29" fill="#fff"/>
    </g>
    <g id="Group_2762" data-name="Group 2762" transform="translate(500.311 410.885)">
      <path id="Path_6163" data-name="Path 6163" d="M11.018,11.567H8.635a3.606,3.606,0,0,1-2.4-.912L2.923,7.712a3.615,3.615,0,0,1-.782-.993l-.052-.094L.586,2.436A1.447,1.447,0,1,1,3.31,1.458l1.422,3.96a.719.719,0,0,0,.115.13L8.158,8.492a.715.715,0,0,0,.475.18h2.385a.717.717,0,0,0,.335-.084l3.958-2.1a3.627,3.627,0,0,1,2.3-.37l5.54.948a1.447,1.447,0,1,1-.488,2.853l-5.539-.948a.716.716,0,0,0-.456.073l-3.959,2.1a3.623,3.623,0,0,1-1.693.422" transform="translate(-0.24 -0.239)" fill="#fff"/>
      <path id="Path_6165" data-name="Path 6165" d="M25.11,8.735c-.005.037-.035.035-.04.072L25,8.839s-.814-.115-1.116-.167L18.2,7.811a2.781,2.781,0,0,0-1.773.282l-4.068,2.164a1.718,1.718,0,0,1-.782.193H9.126a1.673,1.673,0,0,1-1.106-.417L4.615,7.008a1.593,1.593,0,0,1-.344-.428l-1.5-4.162C2.67,2.132,2.143.7,2.143.7L2.117.636A.768.768,0,0,1,2.232.583a1.454,1.454,0,0,1,1.851.876L5.507,5.418a.543.543,0,0,0,.115.13L8.933,8.495a.714.714,0,0,0,.475.177h2.383a.661.661,0,0,0,.334-.083l3.958-2.1a3.611,3.611,0,0,1,2.305-.37l5.538.949A1.444,1.444,0,0,1,25.11,8.735" transform="translate(-1.013 -0.239)" fill="#94ccd0"/>
      <path id="Line_59" data-name="Line 59" d="M-.239,6.1A.261.261,0,0,1-.5,5.836V-.239A.261.261,0,0,1-.239-.5a.261.261,0,0,1,.261.261V5.836A.261.261,0,0,1-.239,6.1Z" transform="translate(1.944 9.945)" fill="#17494d"/>
      <path id="Line_60" data-name="Line 60" d="M-.239,2.816A.261.261,0,0,1-.5,2.555V-.239A.261.261,0,0,1-.239-.5a.261.261,0,0,1,.261.261V2.555A.261.261,0,0,1-.239,2.816Z" transform="translate(7.394 13.227)" fill="#17494d"/>
      <path id="Line_61" data-name="Line 61" d="M-.239,2.816A.261.261,0,0,1-.5,2.555V-.239A.261.261,0,0,1-.239-.5a.261.261,0,0,1,.261.261V2.555A.261.261,0,0,1-.239,2.816Z" transform="translate(11.835 13.267)" fill="#17494d"/>
      <path id="Line_62" data-name="Line 62" d="M-.239,5.119A.261.261,0,0,1-.5,4.858v-5.1A.261.261,0,0,1-.239-.5a.261.261,0,0,1,.261.261v5.1A.261.261,0,0,1-.239,5.119Z" transform="translate(17.044 10.924)" fill="#17494d"/>
      <path id="Path_6167" data-name="Path 6167" d="M43.908,23.236a.26.26,0,0,1-.184-.076l-.422-.422-.413.413a.261.261,0,0,1-.369-.369l.6-.6a.261.261,0,0,1,.369,0l.606.606a.261.261,0,0,1-.184.445Z" transform="translate(-20.31 -10.579)" fill="#17494d"/>
      <path id="Path_6168" data-name="Path 6168" d="M31.571,20.535a.26.26,0,0,1-.184-.076l-.422-.422-.413.413a.261.261,0,0,1-.369-.369l.6-.6a.261.261,0,0,1,.369,0l.606.606a.261.261,0,0,1-.184.445Z" transform="translate(-14.163 -9.286)" fill="#17494d"/>
      <path id="Path_6169" data-name="Path 6169" d="M22.036,25.028a.26.26,0,0,1-.184-.076l-.422-.422-.413.413a.261.261,0,0,1-.369-.369l.6-.6a.261.261,0,0,1,.369,0l.606.606a.261.261,0,0,1-.184.445Z" transform="translate(-9.844 -11.436)" fill="#17494d"/>
      <path id="Path_6170" data-name="Path 6170" d="M13.533,25.028a.26.26,0,0,1-.184-.076l-.422-.422-.413.413a.261.261,0,0,1-.369-.369l.6-.6a.261.261,0,0,1,.369,0l.606.606a.261.261,0,0,1-.184.445Z" transform="translate(-5.775 -11.436)" fill="#17494d"/>
      <path id="Path_6171" data-name="Path 6171" d="M5.081,18.533a.26.26,0,0,1-.184-.076l-.422-.422-.413.413a.261.261,0,0,1-.369-.369l.6-.6a.261.261,0,0,1,.369,0l.606.606a.261.261,0,0,1-.184.445Z" transform="translate(-2.774 -8.328)" fill="#17494d"/>
      <path id="Line_63" data-name="Line 63" d="M-.239,3.837A.261.261,0,0,1-.5,3.577V-.239A.261.261,0,0,1-.239-.5a.261.261,0,0,1,.261.261V3.577A.261.261,0,0,1-.239,3.837Z" transform="translate(23.232 12.205)" fill="#17494d"/>
      <path id="Path_6164" data-name="Path 6164" d="M10.779,11.588H8.4l0-.261,0-.261h2.383a3.374,3.374,0,0,0,1.571-.392l3.959-2.1a.985.985,0,0,1,.622-.1l5.539.948a1.2,1.2,0,0,0,.2.017,1.187,1.187,0,0,0,.2-2.356L17.33,6.132a3.365,3.365,0,0,0-2.136.344l-3.957,2.1a.981.981,0,0,1-.458.114H8.393a.974.974,0,0,1-.648-.246L4.434,5.5a.981.981,0,0,1-.157-.178L4.258,5.3,2.825,1.307a1.186,1.186,0,1,0-2.233.8l1.5,4.168.044.079a3.344,3.344,0,0,0,.726.922l3.313,2.944a3.342,3.342,0,0,0,2.224.846v.521a3.863,3.863,0,0,1-2.57-.978L2.511,7.667A3.864,3.864,0,0,1,1.673,6.6l-.062-.111L.1,2.285A1.708,1.708,0,1,1,3.316,1.131L4.725,5.055a.459.459,0,0,0,.055.059L8.092,8.058a.453.453,0,0,0,.3.115h2.385a.457.457,0,0,0,.213-.054l3.957-2.1a3.887,3.887,0,0,1,2.468-.4l5.541.948a1.708,1.708,0,0,1-.287,3.392,1.724,1.724,0,0,1-.289-.025l-5.539-.948a.46.46,0,0,0-.29.046l-3.959,2.1A3.9,3.9,0,0,1,10.779,11.588Z" transform="translate(0 0)" fill="#17494d"/>
    </g>
  </g>
</svg>
