<svg xmlns="http://www.w3.org/2000/svg" width="29" height="29" viewBox="0 0 29 29">
  <g id="Group_2789" data-name="Group 2789" transform="translate(-1003 -2456)">
    <path id="Path_6176" data-name="Path 6176" d="M23.215,6.247l-.887.887-.887-.887h-.014l-.887.887-.887-.887H19.64l-.887.887-.887-.887h-.013l-.887.887-.887-.887h-.013l-.887.887-.887-.887h-.013l-.887.887L12.5,6.247H12.49l-.887.887-.887-.887H10.7l-.887.887-.887-.887H8.915l-.887.887L7.14,6.247H7.127l-.879.879v.015l.886.886-.886.886v.015l.886.886-.886.886v.015l.886.886-.886.886V12.5l.886.886-.886.886v.015l.886.886-.886.886v.015l.886.886-.886.886v.015l.886.886-.886.886v.015l.886.886-.886.886v.015l.886.886-.886.886v.015l.884.884h0l.892-.892.892.892h0l.892-.892.892.892h0l.892-.892.892.892h0l.892-.892.892.892h0l.892-.892.892.892h0l.892-.892.892.892h0l.892-.892.892.892h0l.892-.892.892.892h0l.892-.892.892.892h0l.891-.891v0l-.893-.893.893-.893v0l-.893-.893.893-.893v0l-.893-.893.893-.893v0l-.893-.893.893-.893v0l-.893-.893.893-.893v0l-.893-.893.893-.893v0l-.893-.893.893-.893v0l-.893-.893.893-.893v0l-.893-.893.893-.893v0l-.886-.886Z" transform="translate(1002.331 2455.319)" fill="#fff"/>
    <rect id="Rectangle_3837" data-name="Rectangle 3837" width="17" height="17" transform="translate(1009 2462)" fill="#fff"/>
    <rect id="Rectangle_2502" data-name="Rectangle 2502" width="29" height="29" transform="translate(1003 2456)" fill="#fff"/>
    <path id="Path_6176_-_Outline" data-name="Path 6176 - Outline" d="M6.456,5.6h.231l.6.6.6-.6h.231l.6.6.6-.6h.231l.6.6.6-.6h.231l.6.6.6-.6h.231l.6.6.6-.6h.231l.6.6.6-.6h.231l.6.6.6-.6H16.7l.6.6.6-.6h.231l.6.6.6-.6h.231l.864.864v.22l-.078.079-.527.527.6.6v.22l-.078.079-.527.527.6.6v.22l-.078.079-.527.527.6.6v.22l-.078.079-.527.527.6.6v.22l-.078.079-.527.527.6.6v.22l-.078.079-.527.527.6.6v.22l-.078.079-.527.527.6.6v.22l-.078.079-.527.527.6.6v.22l-.078.079-.527.527.6.6v.22l-.078.079-.791.791h-.223l-.6-.6-.6.6H17.9l-.6-.6-.6.6h-.223l-.6-.6-.6.6h-.223l-.6-.6-.6.6H13.61l-.6-.6-.6.6H12.18l-.6-.6-.6.6H10.75l-.6-.6-.6.6H9.32l-.6-.6-.6.6H7.89l-.6-.6-.6.6H6.461L5.6,19.556v-.232l.6-.6-.6-.6v-.232l.6-.6-.6-.6v-.232l.6-.6-.6-.6v-.232l.6-.6-.6-.6V13.6l.6-.6-.6-.6v-.232l.6-.6-.6-.6v-.232l.6-.6-.6-.6V9.315l.6-.6-.6-.6V7.885l.6-.6-.6-.6V6.456Zm3.69,1.35-.715-.715-.715.715L8,6.232l-.715.715-.715-.715-.34.34.715.715L6.232,8l.715.715-.715.715.715.715-.715.715.715.715-.715.715.715.715-.715.715.715.715-.715.715.715.715-.715.715.715.715-.715.715.715.715-.715.715.34.34.715-.715L8,19.78l.715-.715.715.715.715-.715.715.715.715-.715.715.715.715-.715.715.715.715-.715.715.715.715-.715.715.715.715-.715.715.715.715-.715.715.715.34-.34-.715-.715.715-.715-.715-.715.715-.715-.715-.715.715-.715-.715-.715.715-.715-.715-.715.715-.715-.715-.715.715-.715-.715-.715.715-.715-.715-.715L19.78,8l-.715-.715.715-.715-.34-.34-.715.715-.715-.715-.715.715-.715-.715-.715.715-.715-.715-.715.715-.715-.715-.715.715-.715-.715-.715.715-.715-.715Z" transform="translate(1004.503 2457.492)" fill="#94ccd0"/>
    <path id="Path_6176_-_Outline-2" data-name="Path 6176 - Outline" d="M6.671,5.6H6.96l.75.75.75-.75h.288l.75.75.75-.75h.288l.75.75.75-.75h.288l.75.75.75-.75h.288l.75.75.75-.75H15.9l.75.75.75-.75h.288l.75.75.75-.75h.288l.75.75.75-.75h.288l.75.75.75-.75h.288l1.081,1.081v.275l-.1.1-.658.658.755.756V8.74l-.1.1-.658.658.755.756v.275l-.1.1-.658.658.755.756v.275l-.1.1-.658.658.755.756V14.1l-.1.1-.658.658.755.756v.275l-.1.1-.658.658.755.756v.275l-.1.1-.658.658.755.756v.275l-.1.1-.658.658.755.756v.275l-.1.1-.658.658.755.755v.275l-.1.1-.988.988h-.278l-.755-.755-.755.755h-.278l-.755-.755-.755.755h-.278l-.755-.755-.755.755H17.4l-.755-.755-.755.755h-.278l-.755-.755-.755.755h-.278l-.755-.755-.755.755h-.278l-.755-.755-.755.755h-.278L9.5,23.373l-.755.755H8.464l-.755-.755-.755.755H6.676L5.6,23.049v-.29l.749-.749L5.6,21.262v-.29l.749-.749L5.6,19.474v-.29l.749-.749L5.6,17.686V17.4l.749-.749L5.6,15.9v-.29l.749-.749L5.6,14.111v-.29l.749-.749L5.6,12.324v-.29l.749-.749L5.6,10.536v-.29L6.346,9.5,5.6,8.748v-.29l.749-.749L5.6,6.961V6.67Zm4.613,1.688-.894-.894L9.5,7.285,8.6,6.391l-.894.894-.894-.894-.424.424.894.894L6.391,8.6l.894.894-.894.894.894.894-.894.894.894.894-.894.894.894.894-.894.894.894.894-.894.894.894.894-.894.894.894.894-.894.894.894.894-.894.894.425.424.894-.894.894.894.894-.894.894.894.894-.894.894.894.894-.894.894.894.894-.894.894.894.894-.894.894.894.894-.894.894.894.894-.894.894.894.894-.894.894.894.424-.424-.894-.894.894-.894-.894-.894.894-.894-.894-.894.894-.894-.894-.894.894-.894-.894-.894.894-.894-.894-.894.894-.894-.894-.894.894-.894L22.434,9.5l.894-.894-.894-.894.894-.894L22.9,6.391l-.894.894-.894-.894-.894.894-.894-.894-.894.894-.894-.894-.894.894-.894-.894-.894.894-.894-.894-.894.894-.894-.894Z" transform="translate(1002.649 2455.638)" fill="#0b4a4c"/>
    <rect id="Rectangle_3838" data-name="Rectangle 3838" width="13" height="13" transform="translate(1011 2464)" fill="#94ccd0"/>
    <path id="Rectangle_3838_-_Outline" data-name="Rectangle 3838 - Outline" d="M0,0V13H13V0H0M-.3-.3H13.3V13.3H-.3Z" transform="translate(1011 2464)" fill="#94ccd0"/>
  </g>
</svg>
