<svg xmlns="http://www.w3.org/2000/svg" width="29" height="29" viewBox="0 0 29 29">
  <g id="Group_2820" data-name="Group 2820" transform="translate(-99 -3790.94)">
    <g id="Group_2816" data-name="Group 2816" transform="translate(99 3791.023)">
      <rect id="Rectangle_2502" data-name="Rectangle 2502" width="29" height="29" transform="translate(0 -0.083)" fill="#fff"/>
    </g>
    <g id="Group_2819" data-name="Group 2819" transform="translate(-1.814 -0.852)">
      <path id="Path_6229" data-name="Path 6229" d="M1.165,11.12h22.84a.786.786,0,0,1,.785.785v1.684H.38V11.9A.786.786,0,0,1,1.165,11.12Z" transform="translate(102.683 3795.84)" fill="#94ccd0" stroke="#0b4a4c" stroke-width="0.5"/>
      <path id="Path_6230" data-name="Path 6230" d="M24.41,16.52H0v3.216H1.512v-1.16H22.739v1.16H24.41Z" transform="translate(103.063 3792.909)" fill="#fff" stroke="#0b4a4c" stroke-width="0.5"/>
      <path id="Path_6231" data-name="Path 6231" d="M16.692,6.634l-2.626-.79a.7.7,0,0,0-.882.476h0a.7.7,0,0,0,.476.882l2.68.807a1.957,1.957,0,0,0,.558.081h2.8a.712.712,0,0,0,.709-.709h0a.712.712,0,0,0-.709-.709H16.952A.863.863,0,0,1,16.692,6.634Z" transform="translate(96.825 3798.274)" fill="#94ccd0" stroke="#0b4a4c" stroke-width="0.5"/>
      <path id="Path_6232" data-name="Path 6232" d="M36.36,6.5,34.535,6.42l.26.449a1.071,1.071,0,0,1,.022,1.094,1.2,1.2,0,0,1-.287.33l1.743.081a.932.932,0,0,0,.087-1.862Z" transform="translate(87.021 3797.996)" fill="#94ccd0" stroke="#0b4a4c" stroke-width="0.5"/>
      <path id="Path_6233" data-name="Path 6233" d="M26.5,7.5a.89.89,0,0,1-.114.433l2.766.125a1.609,1.609,0,0,1-.179-.238L28,6.14l-1.3-.06-.65.65A.9.9,0,0,1,26.5,7.5Z" transform="translate(90.91 3798.152)" fill="#94ccd0" stroke="#0b4a4c" stroke-width="0.5"/>
      <path id="Path_6234" data-name="Path 6234" d="M24.324,4.011,22.4.671A1.345,1.345,0,0,0,20.28.4l-2.16,2.16a1.492,1.492,0,0,0-.85-.265H13.534A1.5,1.5,0,0,0,12.04,3.784v.152A1.5,1.5,0,0,0,13.534,5.43h1.944L13.1,4.71a.872.872,0,0,1-.525-.433.887.887,0,0,1,.78-1.31A.805.805,0,0,1,13.6,3l.811.244.063.019,1.752.527a.654.654,0,0,0,.206.032h2.745a1.082,1.082,0,0,1,.265.038l1.6-1.6a.078.078,0,0,1,.119.016L22.7,4.943a.935.935,0,0,0,1.619-.937Z" transform="translate(97.335 3800.94)" fill="#94ccd0" stroke="#0b4a4c" stroke-width="0.5"/>
      <path id="Path_6235" data-name="Path 6235" d="M1.716,0A1.716,1.716,0,1,1,0,1.716,1.716,1.716,0,0,1,1.716,0Z" transform="translate(105.645 3802.932)" fill="#94ccd0" stroke="#0b4a4c" stroke-width="0.5"/>
    </g>
  </g>
</svg>
