<svg xmlns="http://www.w3.org/2000/svg" width="29" height="21" viewBox="0 0 29 21">
  <g id="Group_2382" data-name="Group 2382" transform="translate(-698 -2247)">
    <rect id="Rectangle_3510" data-name="Rectangle 3510" width="29" height="21" transform="translate(698 2247)" fill="#fff"/>
    <g id="Group_2379" data-name="Group 2379" transform="translate(-1.548 -0.357)">
      <path id="Subtraction_25" data-name="Subtraction 25" d="M6278.874,6462.486H6273.3a.945.945,0,0,1-.85-.535l-5.838-11.757a.552.552,0,0,1,.019-.551.622.622,0,0,1,.516-.286.554.554,0,0,1,.467.263l5.226,6.2,8.419-1.475a.876.876,0,0,1,.173-.017.851.851,0,0,1,.7.375.842.842,0,0,1,.087.792l-2.527,6.431A.89.89,0,0,1,6278.874,6462.486Zm-2.761-4.808a.53.53,0,0,0-.353.135l-.787.708a.528.528,0,1,0,.708.785l.787-.707a.529.529,0,0,0-.354-.922Zm6.018.082h0l.864-2.368,4.068-.4.083,0a1.077,1.077,0,0,1,.1,2.15l-5.11.621Z" transform="translate(-5562.721 -4198.06)" fill="#0086c5"/>
    </g>
  </g>
</svg>
