<svg xmlns="http://www.w3.org/2000/svg" width="29" height="21" viewBox="0 0 29 21">
  <g id="Group_2516" data-name="Group 2516" transform="translate(-698 -2247)">
    <rect id="Rectangle_3510" data-name="Rectangle 3510" width="29" height="21" transform="translate(698 2247)" fill="#fff"/>
    <path id="Subtraction_26" data-name="Subtraction 26" d="M6277.325,6462.129h-5.572a.945.945,0,0,1-.85-.535l-5.84-11.758a.552.552,0,0,1,.02-.55.623.623,0,0,1,.516-.286.554.554,0,0,1,.468.263l5.226,6.2,8.42-1.473a.874.874,0,0,1,.172-.017.851.851,0,0,1,.7.375.841.841,0,0,1,.088.792l-2.528,6.431A.877.877,0,0,1,6277.325,6462.129Zm-2.76-4.809a.528.528,0,0,0-.354.136l-.787.707a.531.531,0,0,0-.039.748.523.523,0,0,0,.392.175.534.534,0,0,0,.355-.136l.785-.708a.528.528,0,0,0,.041-.746A.53.53,0,0,0,6274.565,6457.32Z" transform="translate(-5562.721 -4198.06)" fill="#713e5a"/>
    <path id="Path_5728" data-name="Path 5728" d="M0,.437,2.484,0,4.863,3.323a1.077,1.077,0,0,1-.3,1.51h0a1.077,1.077,0,0,1-1.471-.28Z" transform="translate(717.485 2259.125) rotate(-60)" fill="#391428"/>
  </g>
</svg>
