<svg xmlns="http://www.w3.org/2000/svg" width="29" height="21" viewBox="0 0 29 21">
  <g id="Group_2388" data-name="Group 2388" transform="translate(-698 -2318)">
    <rect id="Rectangle_3511" data-name="Rectangle 3511" width="29" height="21" transform="translate(698 2318)" fill="#fff"/>
    <path id="Path_5563" data-name="Path 5563" d="M20.515,6.247l-.746.746-.746-.746h-.011l-.746.746-.746-.746h-.011l-.746.746-.746-.746h-.011l-.746.746-.746-.746H14.5l-.746.746-.746-.746H13l-.746.746-.746-.746H11.5l-.746.746L10,6.247H9.993l-.746.746L8.5,6.247H8.49l-.746.746L7,6.247H6.987l-.739.739V7l.745.745-.745.745V8.5l.745.745-.745.745v.013l.745.745-.745.745v.013l.745.745L6.248,13v.013l.745.745-.745.745v.013l.745.745L6.248,16v.013l.745.745-.745.745v.013l.745.745-.745.745v.013l.745.745-.745.745v.013l.744.744h0l.75-.75.75.75h0l.75-.75.75.75h0l.75-.75.75.75h0l.75-.75.75.75h0l.75-.75.75.75h0l.75-.75.75.75h0l.75-.75.75.75h0l.75-.75.75.75h0l.75-.75.75.75h0l.749-.749h0l-.751-.751.751-.751h0l-.751-.751.751-.751h0l-.751-.751.751-.751h0l-.751-.751.751-.751h0l-.751-.751.751-.751h0l-.751-.751.751-.751h0l-.751-.751L21.272,10h0l-.751-.751.751-.751h0l-.751-.751.751-.751h0l-.745-.745Z" transform="translate(698.74 2314.741)" fill="#767676" stroke="#fff" stroke-width="0.5"/>
  </g>
</svg>
