<svg xmlns="http://www.w3.org/2000/svg" width="29" height="29" viewBox="0 0 29 29">
  <g id="Group_2788" data-name="Group 2788" transform="translate(0 0.224)">
    <rect id="Rectangle_2502" data-name="Rectangle 2502" width="29" height="29" transform="translate(0 -0.224)" fill="#fff"/>
    <g id="Group_2766" data-name="Group 2766" transform="translate(4.582 5.276)">
      <path id="Path_6173" data-name="Path 6173" d="M19.079,8.77q-.518,1.157-1.141,2.249c-.194.331-.393.663-.6.985a24.56,24.56,0,0,1-7.115,7.253A24.56,24.56,0,0,1,3.106,12c-.208-.322-.407-.653-.6-.985Q1.88,9.925,1.364,8.77C-1.566,1.759,6.813-1.6,10.222,2.545,13.63-1.6,22.01,1.759,19.079,8.77" transform="translate(-0.397 -0.389)" fill="#94ccd0"/>
      <path id="Path_6174" data-name="Path 6174" d="M16.988.883a5.859,5.859,0,0,0-7.163.738A5.852,5.852,0,0,0,2.667.883C.651,2.095-.94,4.741.646,8.529c.317.72.672,1.42,1.056,2.1h.407c.194.331.393.663.6.985H2.289a24.9,24.9,0,0,0,7.338,7.546l.2.133.2-.133a24.968,24.968,0,0,0,7.343-7.546h-.426c.208-.322.407-.653.6-.985h.4c.388-.686.743-1.387,1.065-2.111C20.591,4.741,19,2.095,16.988.883m.137,9.747c-.189.336-.393.663-.606.985a24.123,24.123,0,0,1-6.694,6.827,24.235,24.235,0,0,1-6.7-6.836c-.213-.322-.412-.644-.6-.975A23.055,23.055,0,0,1,1.3,8.249c-1.406-3.366-.028-5.7,1.733-6.76A5.642,5.642,0,0,1,5.887.708,4.634,4.634,0,0,1,9.551,2.384l.275.331.275-.331a5.094,5.094,0,0,1,6.519-.895c1.761,1.065,3.143,3.394,1.737,6.751a22.763,22.763,0,0,1-1.231,2.391" transform="translate(0 0)" fill="#0b4a4c"/>
      <path id="Path_6175" data-name="Path 6175" d="M19.837,15.843c-.185.331-.379.663-.578.985H16.333a.487.487,0,0,1-.454-.312L15.2,14.769l-2.656,4.625a.479.479,0,0,1-.421.251.709.709,0,0,1-.1-.009.493.493,0,0,1-.388-.44L11,12.274l-1.965,4.27a.5.5,0,0,1-.412.284H8.584a.5.5,0,0,1-.412-.222L6.733,14.4,5.369,16.6a.488.488,0,0,1-.35.223.184.184,0,0,1-.071.009H4.181c-.2-.322-.4-.653-.587-.985H4.673L6.3,13.23A.5.5,0,0,1,6.714,13h0a.5.5,0,0,1,.412.223l1.378,2.1,2.367-5.136a.489.489,0,0,1,.933.161l.658,7.205,2.391-4.166a.5.5,0,0,1,.426-.246h.038a.483.483,0,0,1,.421.312l.933,2.391Z" transform="translate(-1.893 -5.213)" fill="#fff"/>
    </g>
  </g>
</svg>
