<svg xmlns="http://www.w3.org/2000/svg" width="29" height="21" viewBox="0 0 29 21">
  <g id="Group_2499" data-name="Group 2499" transform="translate(-698 -2278)">
    <rect id="Rectangle_3511" data-name="Rectangle 3511" width="29" height="21" transform="translate(698 2278)" fill="#fff"/>
    <path id="Path_5556" data-name="Path 5556" d="M7.7,15.053A20.013,20.013,0,0,1,.5,6.531C-1.887.829,4.924-1.9,7.7,1.468,10.47-1.9,17.281.829,14.9,6.531A20.013,20.013,0,0,1,7.7,15.053Z" transform="translate(704.803 2281.279)" fill="#c33135"/>
    <path id="Path_5561" data-name="Path 5561" d="M-5552.342-4155.786a.4.4,0,0,1-.085-.009.4.4,0,0,1-.313-.354l-.513-5.629-1.6,3.472a.4.4,0,0,1-.333.231h-.03a.4.4,0,0,1-.334-.181l-1.172-1.789-1.11,1.781a.4.4,0,0,1-.339.188h-1.8v-.8h1.58l1.324-2.124a.4.4,0,0,1,.335-.188h0a.4.4,0,0,1,.334.181l1.119,1.708,1.922-4.175a.4.4,0,0,1,.431-.227.4.4,0,0,1,.331.358l.534,5.858,1.944-3.389a.4.4,0,0,1,.347-.2h.03a.4.4,0,0,1,.343.254l.755,1.945h3.471v.8h-3.745a.4.4,0,0,1-.373-.255l-.551-1.419-2.158,3.762A.4.4,0,0,1-5552.342-4155.786Z" transform="translate(6265.169 6448.513)" fill="#fff"/>
  </g>
</svg>
