<svg id="Group_2786" data-name="Group 2786" xmlns="http://www.w3.org/2000/svg" width="29" height="29" viewBox="0 0 29 29">
  <rect id="Rectangle_2502" data-name="Rectangle 2502" width="29" height="29" fill="#fff"/>
  <g id="Group_2733" data-name="Group 2733" transform="translate(3.962 5.53)">
    <path id="Path_6125" data-name="Path 6125" d="M-18960.244-16595.373a3.159,3.159,0,0,1-1.318-.8,4.558,4.558,0,0,1-.869-1.471,5.039,5.039,0,0,1,1.063-2.941,6.959,6.959,0,0,1,3.371-1.576,11.5,11.5,0,0,1,3.535-.225,11.346,11.346,0,0,1,3.371,1.049,3.186,3.186,0,0,1,.9,1.7,3.119,3.119,0,0,1-.7,1.783s-.246.621-1.709.678a24.979,24.979,0,0,1-4.143-.457l-1.965,1.678Z" transform="translate(18963.555 16603.641)" fill="#fff"/>
    <g id="Group_2732" data-name="Group 2732" transform="translate(0 0)">
      <g id="Group_2772" data-name="Group 2772">
        <g id="Group_2773" data-name="Group 2773">
          <path id="Subtraction_41" data-name="Subtraction 41" d="M9.863,17.3H9.691c-.248,0-.5,0-.76-.012-1.654-.051-5.733-.468-7.871-3.194C-.051,12.678-.02,11.069.01,9.511c0-.219.009-.492.009-.754V5.244A4.3,4.3,0,0,1,1.37,2.051,9.108,9.108,0,0,1,7.568,0c.134,0,.273,0,.406.007,1.529.058,5,.771,5.964,2.616a2.147,2.147,0,0,1,.227.744l.027.242V7.92a1.016,1.016,0,0,1-.8,1,15.543,15.543,0,0,1-3.449.389,15.481,15.481,0,0,1-4.528-.676.823.823,0,0,1-.569-.791v-.3a6.943,6.943,0,0,0-1.068.219c-.193.067-.388.281-.709.458A12.548,12.548,0,0,0,9.408,9.938c.12,0,.241,0,.36-.005a19.112,19.112,0,0,0,2.005-.109c.147-.015.3-.034.47-.057l.136-.019a12.9,12.9,0,0,0,6.665-2.785A5.88,5.88,0,0,0,19.955,6a.346.346,0,0,1,.051-.057.366.366,0,0,1,.36-.173.385.385,0,0,1,.319.388v6.8l-.062.093a8.146,8.146,0,0,1-2.517,2.194,13.345,13.345,0,0,1-3.355,1.421,19,19,0,0,1-4.889.637ZM2.672,7.975c.357.225.591,0,1.111-.213a4.537,4.537,0,0,1,1.079-.219L4.85,4.533c0-.07,0-.139.012-.209a2.347,2.347,0,0,1,1.6-1.79,4.558,4.558,0,0,1,3.089-.1,2.433,2.433,0,0,1,1.121.69,1.535,1.535,0,0,1,.38,1.016.381.381,0,0,1,.014.1V6.091a3.49,3.49,0,0,0,1.986-1.318,1.727,1.727,0,0,0,.232-1.809C12.521,1.5,9.43.8,7.947.747,7.823.742,7.7.74,7.577.74c-1.83,0-4.289.485-5.7,1.846A3.587,3.587,0,0,0,.752,5.247a1.952,1.952,0,0,0,.382,1.095A6.632,6.632,0,0,0,2.672,7.975ZM8.14,2.948a3.773,3.773,0,0,0-1.4.269A1.69,1.69,0,0,0,5.594,4.406a1.3,1.3,0,0,0,.455,1.053,2.4,2.4,0,0,0,.709.438,3.216,3.216,0,0,1-.019-1.369c.182-.39.755-.046.829,0a2.128,2.128,0,0,0,.833.3,3.162,3.162,0,0,0,.444.031,3.12,3.12,0,0,0,.43-.03c.575-.069.919-.248,1.024-.532a.726.726,0,0,0-.178-.688,1.751,1.751,0,0,0-.8-.473A3.791,3.791,0,0,0,8.15,2.946H8.14Z" transform="translate(0.257 0.257)" fill="#94ccd0"/>
          <path id="Subtraction_41_-_Outline" data-name="Subtraction 41 - Outline" d="M9.63,17.315H9.448c-.252,0-.511,0-.769-.012C6.99,17.25,2.821,16.824.615,14.01-.553,12.523-.521,10.867-.49,9.265h.257l-.257,0c0-.218.009-.488.009-.747V5a4.562,4.562,0,0,1,1.43-3.38A9.366,9.366,0,0,1,7.325-.5c.137,0,.278,0,.418.007A12.088,12.088,0,0,1,11.01.16a5.2,5.2,0,0,1,2.912,2.1,2.4,2.4,0,0,1,.255.834l.029.257V7.676a1.279,1.279,0,0,1-1,1.256,15.821,15.821,0,0,1-3.5.395,15.731,15.731,0,0,1-4.6-.687h0A1.075,1.075,0,0,1,4.35,7.6l-.012,0a3.514,3.514,0,0,0-.705.153l-.048.02a1.8,1.8,0,0,0-.216.147l-.045.033A12.3,12.3,0,0,0,9.165,9.438c.116,0,.235,0,.349,0h.011A18.931,18.931,0,0,0,11.5,9.326c.144-.015.3-.034.463-.056l.135-.019a12.65,12.65,0,0,0,6.531-2.724l0,0A5.631,5.631,0,0,0,19.5,5.6a.6.6,0,0,1,.06-.07.622.622,0,0,1,.592-.262l.011,0a.638.638,0,0,1,.532.643v6.877l-.114.17a8.353,8.353,0,0,1-2.593,2.262,13.6,13.6,0,0,1-3.416,1.447A19.271,19.271,0,0,1,9.63,17.315ZM7.325.014A8.851,8.851,0,0,0,1.3,1.993l0,0A4.047,4.047,0,0,0,.033,5V8.514c0,.263-.005.537-.009.757v0c-.029,1.511-.059,3.074,1,4.417.691.881,2.821,2.945,7.677,3.1.252.008.505.012.752.012H9.63a18.754,18.754,0,0,0,4.813-.628,13.086,13.086,0,0,0,3.289-1.393l.006,0a7.842,7.842,0,0,0,2.433-2.119l.015-.022V5.906a.127.127,0,0,0-.1-.128.109.109,0,0,0-.1.052l-.02.034-.03.026a.09.09,0,0,0-.013.015l0,0a6.146,6.146,0,0,1-.948,1.007,13.158,13.158,0,0,1-6.8,2.846l-.136.019c-.17.023-.331.042-.479.058a19.445,19.445,0,0,1-2.026.11c-.123.005-.246.005-.366.005A12.817,12.817,0,0,1,2.7,8.2l-.39-.229.008,0-.027-.016-.018-.012a6.877,6.877,0,0,1-1.6-1.7A2.208,2.208,0,0,1,.252,5,3.853,3.853,0,0,1,1.457,2.157,6.574,6.574,0,0,1,4.257.662,11.523,11.523,0,0,1,7.334.24c.12,0,.248,0,.379.007,1.38.049,4.7.71,5.557,2.355l.006.012a1.972,1.972,0,0,1-.263,2.073A3.753,3.753,0,0,1,10.885,6.1l-.317.077V4a.124.124,0,0,0,0-.03l-.01-.034V3.9a1.277,1.277,0,0,0-.315-.844,2.176,2.176,0,0,0-1-.615l-.009,0a4.3,4.3,0,0,0-2.915.092L6.3,2.537A2.088,2.088,0,0,0,4.873,4.119c-.006.059-.008.12-.009.173l.013,3.216-.012,0v.094a.563.563,0,0,0,.389.543,15.216,15.216,0,0,0,4.45.664A15.31,15.31,0,0,0,13.1,8.43a.763.763,0,0,0,.6-.75V3.38l-.026-.227a1.883,1.883,0,0,0-.2-.654A4.727,4.727,0,0,0,10.839.644,11.525,11.525,0,0,0,7.721.021h0C7.591.014,7.455.014,7.325.014ZM2.575,7.52a.275.275,0,0,0,.15.049,1.15,1.15,0,0,0,.4-.144c.072-.034.154-.073.243-.112a.787.787,0,0,1,.085-.036A2.682,2.682,0,0,1,4.229,7.1l.131-.014L4.349,4.287v0c0-.068,0-.148.013-.23l0-.022A2.6,2.6,0,0,1,6.134,2.049a4.815,4.815,0,0,1,3.25-.1,2.69,2.69,0,0,1,1.235.762l0,0a1.791,1.791,0,0,1,.444,1.154.638.638,0,0,1,.014.124V5.5A3.239,3.239,0,0,0,12.6,4.377l.007-.01a1.461,1.461,0,0,0,.2-1.533,4.109,4.109,0,0,0-2.253-1.507A10.707,10.707,0,0,0,7.694.761c-.125,0-.246-.007-.36-.007A8.132,8.132,0,0,0,1.813,2.528l0,0A3.338,3.338,0,0,0,.766,5V5.02a1.777,1.777,0,0,0,.34.937A6.363,6.363,0,0,0,2.575,7.52ZM6.862,6.068,6.42,5.892a2.653,2.653,0,0,1-.783-.483,1.571,1.571,0,0,1-.543-1.259V4.124L5.1,4.1A1.96,1.96,0,0,1,6.411,2.732a4.009,4.009,0,0,1,1.23-.275V2.448l.269,0a4.042,4.042,0,0,1,1.246.2,2.009,2.009,0,0,1,.907.541.989.989,0,0,1,.241.933l-.007.023c-.141.381-.555.616-1.232.7a3.414,3.414,0,0,1-.944,0A2.437,2.437,0,0,1,7.184,4.5.9.9,0,0,0,6.8,4.357c-.051,0-.056.011-.067.036A2.839,2.839,0,0,0,6.767,5.6ZM5.607,4.2a1.054,1.054,0,0,0,.366.819l0,0a2.151,2.151,0,0,0,.207.163,2.153,2.153,0,0,1,.079-1.011A.559.559,0,0,1,6.8,3.843a1.393,1.393,0,0,1,.664.223l.012.008a1.857,1.857,0,0,0,.723.252,2.9,2.9,0,0,0,.8,0H9c.448-.054.735-.18.809-.355a.472.472,0,0,0-.118-.432,1.494,1.494,0,0,0-.679-.4L9,3.133a3.528,3.528,0,0,0-.989-.172H7.9a3.5,3.5,0,0,0-1.306.251L6.57,3.22A1.443,1.443,0,0,0,5.607,4.2Z" transform="translate(0.5 0.5)" fill="#17494d"/>
          <path id="Path_5319" data-name="Path 5319" d="M.008,1.833C.008,2.057-.011-2.4.008,1.833Zm1.818,1.7a.341.341,0,0,1-.351.323H1.47a.34.34,0,0,1-.343-.336L1.178.924a7.268,7.268,0,0,0,.691.559Zm1.353,2.4a.325.325,0,0,1-.172.294.37.37,0,0,1-.356,0,.325.325,0,0,1-.172-.294V1.887c.226.134.463.257.7.371ZM4.94,5.359a.351.351,0,0,1-.7,0V2.7q.345.122.7.225Zm1.8,1.679a.352.352,0,0,1-.7,0V3.194q.349.071.7.125ZM8.513,5.982a.351.351,0,0,1-.7,0V3.454q.351.032.7.051ZM10.3,7.444a.351.351,0,0,1-.7,0V3.527q.355,0,.7-.017ZM12.136,5.91a.351.351,0,0,1-.7,0V3.427c.225-.024.459-.051.7-.086Zm1.723,1.007a.351.351,0,0,1-.7,0V3.163c.23-.047.463-.1.7-.159Zm1.8-1.822a.352.352,0,0,1-.7,0V2.681c.233-.077.467-.163.7-.257Zm1.761.279a.352.352,0,0,1-.7,0V1.951q.355-.18.7-.389Z" transform="translate(0.704 7.657) rotate(-0.974)" fill="#fff"/>
        </g>
      </g>
      <path id="Path_6124" data-name="Path 6124" d="M-18948.932-16592.334c-.15,0-.3,0-.437-.016a5.04,5.04,0,0,1-1.881-.457l.234-.455a4.755,4.755,0,0,0,1.68.4c.131.012.266.012.4.012a12,12,0,0,0,1.92-.186l.092.5A11.843,11.843,0,0,1-18948.932-16592.334Z" transform="translate(18958.121 16599.182)" fill="#17494d"/>
    </g>
  </g>
</svg>
