<svg xmlns="http://www.w3.org/2000/svg" width="137" height="137" viewBox="0 0 137 137">
  <g id="Group_1709" data-name="Group 1709" transform="translate(-13784 -15681)">
    <rect id="Rectangle_3167" data-name="Rectangle 3167" width="137" height="137" transform="translate(13784 15681)" fill="none"/>
    <rect id="Rectangle_3164" data-name="Rectangle 3164" width="127" height="127" transform="translate(13789 15686)" fill="none"/>
    <g id="Path_910" data-name="Path 910" transform="translate(13788.9 15685.921)" fill="#fff">
      <path d="M 63.68239974975586 126.3647994995117 C 55.21988296508789 126.3647994995117 47.01105117797852 124.707633972168 39.28388214111328 121.4393157958984 C 35.56991577148438 119.8684310913086 31.98769950866699 117.9240646362305 28.63676643371582 115.6602325439453 C 25.31741714477539 113.4177169799805 22.19599914550781 110.8423156738281 19.35924911499023 108.0055465698242 C 16.52249908447266 105.1688003540039 13.94708347320557 102.0473861694336 11.70458316802979 98.72803497314453 C 9.440732955932617 95.37709808349609 7.496366500854492 91.79489898681641 5.925483226776123 88.08091735839844 C 2.657166481018066 80.35376739501953 0.9999997615814209 72.14491271972656 0.9999997615814209 63.68239974975586 C 0.9999997615814209 55.21988296508789 2.657166481018066 47.01105117797852 5.925483226776123 39.28388214111328 C 7.496366500854492 35.56991577148438 9.440732955932617 31.98769950866699 11.70458316802979 28.63676643371582 C 13.94708347320557 25.31741714477539 16.52249908447266 22.19599914550781 19.35924911499023 19.35924911499023 C 22.19599914550781 16.52249908447266 25.31741714477539 13.94708347320557 28.63676643371582 11.70458316802979 C 31.98769950866699 9.440732955932617 35.56991577148438 7.496366500854492 39.28388214111328 5.925483226776123 C 47.01105117797852 2.657166481018066 55.21988296508789 0.9999997615814209 63.68239974975586 0.9999997615814209 C 72.14491271972656 0.9999997615814209 80.35376739501953 2.657166481018066 88.08091735839844 5.925483226776123 C 91.79489898681641 7.496366500854492 95.37709808349609 9.440732955932617 98.72803497314453 11.70458316802979 C 102.0473861694336 13.94708347320557 105.1688003540039 16.52249908447266 108.0055465698242 19.35924911499023 C 110.8423156738281 22.19599914550781 113.4177169799805 25.31741714477539 115.6602325439453 28.63676643371582 C 117.9240646362305 31.98769950866699 119.8684310913086 35.56991577148438 121.4393157958984 39.28388214111328 C 124.707633972168 47.01105117797852 126.3647994995117 55.21988296508789 126.3647994995117 63.68239974975586 C 126.3647994995117 72.14491271972656 124.707633972168 80.35376739501953 121.4393157958984 88.08091735839844 C 119.8684310913086 91.79489898681641 117.9240646362305 95.37709808349609 115.6602325439453 98.72803497314453 C 113.4177169799805 102.0474014282227 110.8423156738281 105.1688003540039 108.0055465698242 108.0055465698242 C 105.1688003540039 110.8423156738281 102.0474014282227 113.4177169799805 98.72803497314453 115.6602325439453 C 95.37709808349609 117.9240646362305 91.79489898681641 119.8684310913086 88.08091735839844 121.4393157958984 C 80.35376739501953 124.707633972168 72.14491271972656 126.3647994995117 63.68239974975586 126.3647994995117 Z" stroke="none"/>
      <path d="M 63.68239974975586 2 C 55.35445404052734 2 47.27667236328125 3.630599975585938 39.67343902587891 6.846488952636719 C 36.01892852783203 8.392219543457031 32.4940185546875 10.30548858642578 29.19657897949219 12.533203125 C 25.92996215820312 14.74008941650391 22.85810852050781 17.27459716796875 20.06636047363281 20.06636047363281 C 17.27459716796875 22.85810852050781 14.74008941650391 25.92996215820312 12.533203125 29.19657897949219 C 10.30548858642578 32.4940185546875 8.392219543457031 36.01892852783203 6.846488952636719 39.67343902587891 C 3.630599975585938 47.27667236328125 2 55.35445404052734 2 63.68239974975586 C 2 72.01034545898438 3.630599975585938 80.08812713623047 6.846488952636719 87.69136047363281 C 8.392219543457031 91.34587097167969 10.30548858642578 94.87078094482422 12.533203125 98.16822052001953 C 14.74008941650391 101.4348373413086 17.27459716796875 104.5066909790039 20.06636047363281 107.2984313964844 C 22.85810852050781 110.090202331543 25.92996215820312 112.6247100830078 29.19657897949219 114.8316040039062 C 32.4940185546875 117.0593109130859 36.01892852783203 118.9725799560547 39.67343902587891 120.518310546875 C 47.27667236328125 123.7341995239258 55.35445404052734 125.3647994995117 63.68239974975586 125.3647994995117 C 72.01034545898438 125.3647994995117 80.08812713623047 123.7341995239258 87.69136047363281 120.518310546875 C 91.34587097167969 118.9725799560547 94.87078094482422 117.0593109130859 98.16822052001953 114.8316040039062 C 101.4348373413086 112.6247100830078 104.5066909790039 110.090202331543 107.2984313964844 107.2984313964844 C 110.090202331543 104.5066909790039 112.6247100830078 101.4348373413086 114.8316040039062 98.16822052001953 C 117.0593109130859 94.87078094482422 118.9725799560547 91.34587097167969 120.518310546875 87.69136047363281 C 123.7341995239258 80.08812713623047 125.3647994995117 72.01034545898438 125.3647994995117 63.68239974975586 C 125.3647994995117 55.35445404052734 123.7341995239258 47.27667236328125 120.518310546875 39.67343902587891 C 118.9725799560547 36.01892852783203 117.0593109130859 32.4940185546875 114.8316040039062 29.19657897949219 C 112.6247100830078 25.92996215820312 110.090202331543 22.85810852050781 107.2984313964844 20.06636047363281 C 104.5066909790039 17.27459716796875 101.4348373413086 14.74008941650391 98.16822052001953 12.533203125 C 94.87078094482422 10.30548858642578 91.34587097167969 8.392219543457031 87.69136047363281 6.846488952636719 C 80.08812713623047 3.630599975585938 72.01034545898438 2 63.68239974975586 2 M 63.68239974975586 0 C 98.85321807861328 0 127.3647994995117 28.51158142089844 127.3647994995117 63.68239974975586 C 127.3647994995117 98.85321807861328 98.85321807861328 127.3647994995117 63.68239974975586 127.3647994995117 C 28.51158142089844 127.3647994995117 0 98.85321807861328 0 63.68239974975586 C 0 28.51158142089844 28.51158142089844 0 63.68239974975586 0 Z" stroke="none" fill="#012169"/>
    </g>
    <path id="Path_911" data-name="Path 911" d="M58.525,0h1.586l.072,0h.046l.071,0h.047l.094,0h.023l.094,0h.024l.094,0H60.7l.116,0h0a58.984,58.984,0,0,1,5.959.532l.022,0,.023,0h0l.067.01.021,0,.022,0,.024,0h0L67,.608l.022,0h.005l.016,0,.023,0,.026,0,.021,0,.021,0,.021,0,.022,0,.025,0h0l.021,0,.021,0,.021,0,.022,0,.022,0h.008l.02,0,.011,0,.01,0,.021,0,.021,0,.02,0,.013,0h0l.033.005h0l.02,0,.021,0,.019,0L67.612.7l.02,0h0l.017,0h0l.094.015h0q.382.06.762.125l-.188,1.1a58.15,58.15,0,0,0-9.8-.83V0ZM78.2,3.381A58.406,58.406,0,0,1,87.32,7.539l-.548.971A57.435,57.435,0,0,0,77.83,4.431Zm17.391,9.808.045.037h0l.015.012h0a59.04,59.04,0,0,1,7.137,6.92l-.841.732a58.083,58.083,0,0,0-7.062-6.839Zm13.113,15.058q.516.849,1,1.717h0l.009.016h0l.066.118h0l.009.016v0l.008.015,0,0,.008.014h0l.036.065,0,0,.008.014,0,0,.007.013,0,0,.007.012,0,.006.007.013,0,0,.034.062,0,0,.007.012,0,.007.006.011,0,.007.006.011,0,.008.006.01,0,.007.006.011,0,.007.006.011,0,.007.011.021,0,.008.005.009.005.009.005.009.005.009,0,.009.005.009.005.01,0,.009.005.009.005.009.005.009.007.012,0,.006.01.018,0,.008.006.011,0,.007.006.011,0,.008.006.011,0,.007.006.011,0,.008.006.011,0,.007.008.015,0,0,.01.019h0l.009.017,0,0,.008.014,0,0,.008.014,0,.005.008.014,0,0,.008.015,0,0,.01.018h0l.031.058v0l.009.018v0l.009.017,0,0,.009.017v0l.01.018h0l.042.078h0l.01.019h0l.01.02h0a58.406,58.406,0,0,1,2.8,6.083l-1.037.408a57.509,57.509,0,0,0-4.367-8.805Zm7.3,18.582a58.718,58.718,0,0,1,1.091,8.285h0v.019h0l.006.1v.044l0,.071v.34l0,.046v.049q.024.5.04,1l-1.114.035a57.9,57.9,0,0,0-1.145-9.763Zm-.462,19.807,1.1.153a58.423,58.423,0,0,1-1.135,5.933h0l0,.018v0l0,.017h0l-.019.075h0l0,.016v0l0,.015v.005l0,.014V72.9l0,.015h0l-.013.051,0,.006,0,.013,0,.006,0,.013,0,.008,0,.013,0,.007,0,.013,0,.008-.011.044,0,.008,0,.011,0,.01,0,.011,0,.009,0,.011,0,.009,0,.011,0,.011,0,.009-.005.02,0,.008,0,.013,0,.008,0,.013,0,.008,0,.013,0,.008,0,.013,0,.008,0,.014,0,.007-.005.02,0,.006,0,.014,0,.008,0,.013,0,.008,0,.014,0,.006,0,.015,0,.007,0,.017v0l-.011.043h0l-.005.02v0l0,.017v0l0,.019v0l-.023.087h0l-.005.02v0l-.005.019v0q-.381,1.444-.834,2.86l-1.062-.339A57.394,57.394,0,0,0,115.548,66.636Zm-5.96,18.654.988.516q-.241.462-.491.919h0l-.009.016v0l-.008.015,0,0-.008.014,0,0-.007.013,0,0-.033.061,0,.006-.006.011,0,.008-.006.01,0,.008-.005.01,0,.009-.005.01,0,.008-.005.01,0,.008-.006.01-.006.01-.005.01-.009.016,0,.008-.006.011,0,.008-.006.011,0,.008-.006.011,0,.008-.006.011,0,.008-.006.011,0,.007-.006.011,0,.007-.021.037,0,0-.009.016,0,0-.008.014,0,.006-.007.013,0,.005-.007.013,0,.005-.008.014,0,0-.009.015,0,0-.021.038v0l-.01.017v0l-.009.016,0,0-.008.015,0,0-.009.016,0,0-.01.018h0l-.043.077h0l-.01.018v0l-.01.017h0l-.011.019h0l-.065.115h0q-.855,1.5-1.793,2.947h0l-.1.147h0l-.012.018h0l-.06.092h0l-.012.018v0l-.01.016,0,0-.011.016h0l-.06.091v0l-.011.016,0,0-.01.015,0,0-.01.016v0l-.012.018h0l-.048.072,0,0-.01.015,0,0-.009.014,0,0-.01.015,0,0-.011.016h0l-.036.054,0,0-.009.014,0,0-.008.013,0,.005-.008.012,0,.006-.008.012,0,.006-.008.013,0,.005-.023.035,0,.005-.008.012,0,.006-.008.011,0,.007-.007.011,0,.007-.006.009-.006.008-.006.009-.005.008-.007.01,0,.007-.009.014-.005.008-.008.012-.005.008-.006.009-.005.007-.007.01-.005.008-.006.009-.005.008-.006.009-.006.008-.007.01,0,.007-.008.012,0,.006-.012.017,0,0-.009.014,0,.006-.008.011,0,.006-.007.01-.006.008-.006.009L107,91.77l-.006.008-.006.009-.006.008-.006.009,0,.007-.007.01-.011.016-.006.008-.006.009-.006.009-.005.007-.006.009-.005.008-.006.009-.005.008-.006.009-.005.007-.007.01,0,.006-.007.011-.005.008-.01.014-.008.011-.006.009-.005.008-.007.01-.005.007-.007.01,0,.007-.007.01,0,.007-.007.011,0,0-.008.012,0,0-.008.012,0,0-.019.027h0l-.008.011,0,.006-.007.011,0,.006-.007.01,0,.007-.007.011,0,.006-.007.011,0,.006-.008.011,0,.006-.008.011,0,.006-.016.023,0,0-.008.011,0,.005-.008.011,0,.006-.008.011,0,.006-.008.011,0,.005-.008.012,0,0-.009.013v0l-.043.06,0,0-.009.013,0,0-.009.012,0,0-.009.012,0,0-.009.012,0,0-.054.076h0l-.01.014,0,0-.009.013,0,0-.009.013,0,0-.01.014h0l-.056.078v0l-.01.014,0,0-.009.013,0,0-.009.013,0,0-.01.014h0l-.056.078h0l-.01.014,0,0-.009.013,0,0-.01.014h0l-.067.092,0,0-.01.014,0,0-.01.014,0,0-.01.014h0l-.056.078h0l-.011.015h0l-.011.015v0l-.01.014v0l-.01.014h0l-.057.078h0l-.011.015h0l-.011.015v0l-.01.014v0l-.068.093h0l-.011.015h0l-.011.015v0l-.011.015h0l-.08.109h0l-.011.015h0l-.011.015h0l-.069.093h0l-.011.015h0l-.011.015h0l-.011.015h0l-.069.093h0l-.011.014v0l-.011.014v0l-.011.014,0,0-.057.075v0l-.01.013,0,0-.009.012,0,0-.009.012,0,0-.009.012,0,0-.056.074,0,0-.009.012,0,0-.009.011,0,0-.009.012,0,0-.009.012,0,0-.043.057,0,0-.009.012,0,0-.008.011,0,0-.886-.676A57.773,57.773,0,0,0,109.588,85.29ZM97.7,100.862l.759.817a58.936,58.936,0,0,1-7.893,6.173l-.609-.933A57.977,57.977,0,0,0,97.7,100.862ZM81.3,111.569l.441,1.024a58.235,58.235,0,0,1-8,2.78h0l-.02.005h0l-.108.029h0l-.02.005h0l-.018,0h0l-.019,0h0l-.065.017h0l-.019,0h0l-.016,0h-.005l-.016,0h-.006l-.016,0h0l-.017,0h0l-.021.005h0l-.016,0-.021.005-.02.005-.021.005-.02.005-.02.005-.029.007h0l-.014,0-.019,0-.021.005-.021.005-.007,0-.013,0-.006,0-.052.013h0l-.017,0h0l-.015,0H73l-.015,0h0l-.016,0h0l-.094.024h0l-.018,0h0q-.306.077-.614.15l-.259-1.084A57.294,57.294,0,0,0,81.3,111.569ZM52.423,115.93a58.48,58.48,0,0,0,6.1.32c1.241,0,2.5-.04,3.729-.119l.071,1.112-.406.025h-.045l-.063,0h-.225l-.031,0h-.028l-.087,0h0q-.916.045-1.839.061h0l-.088,0H56.586l-.094,0H55.95l-.115-.005h-.521l-.155-.009h-.4l-.024,0-.024,0-.024,0-.024,0h0l-.161-.011h-.02l-.023,0-.023,0-.023,0-.022,0-.024,0-.024,0-.024,0-.023,0-.024,0-.024,0-.024,0-.023,0-.024,0-.023,0-.024,0-.023,0-.024,0-.024,0-.024,0-.023,0-.024,0-.023,0h-.007l-.081-.006-.024,0-.02,0-.023,0-.023,0-.024,0-.023,0-.023,0-.024,0-.024,0-.023,0-.023,0-.024,0-.024,0-.023,0-.023,0-.024,0-.024,0-.023,0-.024,0-.024,0-.023,0-.024,0-.024,0-.023,0-.023,0h0l-.048,0-.024,0-.024,0-.024,0h-.008l-.024,0h-.071l-.023,0-.024,0-.023,0-.024,0H52.95l-.016,0h-.008l-.023,0-.024,0-.023,0-.024,0-.023,0-.024,0-.021,0h0l-.359-.036h0l-.023,0h0l-.023,0h0l-.023,0h0l-.023,0h0Zm-18.839-5.349a57.327,57.327,0,0,0,9.189,3.487l-.3,1.072q-2.265-.643-4.455-1.461h0l-.019-.007h0l-.019-.007h0l-.083-.031h0l-.019-.007h0l-.017-.006,0,0-.016-.006,0,0L37.8,113.6h0l-.02-.007h0l-.041-.015,0,0-.016-.006-.006,0-.014-.005-.006,0-.013,0-.008,0-.013,0-.007,0-.016-.006,0,0-.02-.008-.006,0-.013-.005-.009,0-.011,0-.009,0-.011,0-.009,0-.01,0-.01,0-.008,0-.011,0-.007,0-.044-.017-.006,0-.013,0-.006,0-.013,0-.007,0-.012,0-.007,0-.013-.005,0,0-.086-.033h0l-.015-.006,0,0-.015-.006h0l-.016-.006h0l-.108-.042h0l-.017-.007h0q-2.04-.8-4-1.746ZM17.636,99.205a58.037,58.037,0,0,0,7.488,6.37l-.647.907h0q-1.725-1.231-3.356-2.581h0l-.12-.1h0l-.014-.012h0l-.014-.011,0,0-.014-.012h0l-.09-.075h0l-.013-.011,0,0-.013-.011,0,0-.013-.01,0,0-.013-.011h0l-.059-.05h0l-.013-.011,0,0-.013-.011,0,0-.012-.01,0,0-.012-.01,0,0-.013-.011h0l-.057-.048h0l-.012-.01,0,0-.011-.009-.006,0-.01-.008-.006,0-.01-.008-.006,0-.01-.009,0,0-.011-.009,0,0-.036-.03-.005,0-.009-.008-.006-.005-.01-.008-.006-.005-.009-.008-.006-.005-.009-.008-.007-.006L20.4,103.3l-.006-.005-.01-.009h0l-.04-.034,0,0-.01-.009-.005,0-.01-.008-.006-.005-.009-.008-.007-.006-.008-.007-.008-.007-.008-.007-.006-.005-.01-.009,0,0-.037-.032,0,0-.01-.009-.006-.005-.01-.008-.006-.005-.009-.008-.007-.006-.009-.008-.006-.005-.01-.009,0,0-.011-.01,0,0-.012-.01,0,0-.02-.018-.007-.006-.009-.008L20.058,103l-.008-.007-.008-.007-.007-.006-.009-.007-.008-.007-.008-.007L20,102.951,20,102.944l-.008-.007-.008-.007-.008-.007-.008-.007-.015-.013-.008-.007-.008-.007-.008-.007-.008-.007-.008-.007-.008-.007-.008-.007-.008-.007-.008-.007-.008-.007-.008-.007-.008-.007-.009-.008-.007-.006-.015-.014,0,0-.013-.011,0,0-.01-.009-.007-.006-.009-.008-.007-.006-.009-.008-.007-.006-.009-.008-.007-.006-.009-.008-.007-.006-.01-.009-.005,0-.031-.028-.005,0-.01-.009-.007-.006-.009-.008-.007-.006-.009-.008-.007-.006-.009-.008-.006-.006-.009-.008-.007-.006-.011-.01,0,0-.016-.014h0l-.016-.014-.005,0-.01-.009-.007-.006-.009-.008-.006-.006-.009-.008-.007-.006-.009-.008-.007-.006-.009-.008-.007-.006-.011-.009,0,0-.015-.013h0l-.016-.014,0,0-.011-.01-.006-.005-.01-.009-.006-.005-.01-.009-.006-.006-.009-.008-.006-.006-.01-.009-.006-.006-.01-.009-.006-.005-.012-.011,0,0-.016-.014,0,0-.01-.009-.007-.006-.009-.008-.007-.006-.009-.008-.007-.006-.009-.008-.007-.006-.008-.007-.008-.007-.008-.007-.007-.006-.012-.011,0,0-.015-.014-.006-.005-.01-.009-.007-.007-.008-.008-.007-.006-.009-.008-.007-.006-.008-.007-.008-.007-.007-.006-.009-.008-.006-.006-.008-.008-.008-.008-.01-.009-.012-.011-.006-.006-.009-.008L19,102.056l-.009-.008-.007-.006-.008-.007-.008-.007-.008-.007-.008-.007-.007-.007L18.936,102l-.008-.007-.007-.007-.009-.008-.006-.006-.015-.014-.006-.005-.009-.009-.007-.007-.008-.007-.007-.007-.008-.007-.008-.007-.007-.007-.008-.007-.007-.007-.009-.008-.006-.006-.009-.008-.006-.006-.015-.014-.008-.008-.007-.007-.007-.007-.008-.008-.007-.007-.008-.007-.007-.007-.008-.008-.007-.007-.008-.008-.006-.006-.009-.008-.006-.006-.009-.008-.008-.008-.007-.006-.015-.014-.008-.007-.007-.006-.01-.009-.006-.005-.009-.009-.006-.005-.01-.009,0,0-.01-.01,0,0-.011-.01,0,0-.012-.011h0l-.054-.051,0,0-.012-.011,0,0-.012-.011,0,0-.012-.011,0,0-.012-.011,0,0-.084-.078h0l-.014-.013h0l-.014-.013h0q-.741-.7-1.458-1.421ZM6.4,83.157a57.671,57.671,0,0,0,4.93,8.5l-.913.639q-.627-.895-1.22-1.814v0l-.01-.015h0l-.01-.016h0l-.062-.1,0,0-.009-.014,0,0L9.1,90.322l0,0-.009-.014v0l-.009-.015,0,0-.038-.059,0-.006-.007-.01,0-.007-.007-.011,0-.007L9,90.175l0-.006-.007-.011,0-.006-.008-.012,0,0L8.951,90.1l-.005-.008-.006-.01,0-.007-.006-.01,0-.007-.006-.01,0-.007-.006-.01,0-.007-.007-.01,0-.007-.006-.01-.005-.008-.008-.013-.009-.014,0-.006-.007-.011-.005-.008-.006-.01-.005-.008L8.83,89.9,8.825,89.9l-.006-.01,0-.008-.006-.009L8.8,89.861,8.8,89.85l0-.006-.022-.036,0,0-.008-.013,0-.006-.007-.012,0-.006-.008-.012,0-.006-.008-.012,0-.006-.008-.012,0-.006-.034-.054v0l-.01-.016,0,0-.009-.014,0,0L8.641,89.6l0,0-.009-.014,0,0-.009-.015,0,0-.034-.055h0l-.01-.016,0,0-.009-.015,0,0-.009-.015,0,0-.01-.017h0l-.011-.018h0l-.035-.056h0l-.011-.018,0,0-.01-.017v0L8.454,89.3h0l-.069-.112h0l-.08-.132h0l-.011-.018h0q-.665-1.1-1.281-2.225v0l-.063-.115v0l-.01-.018v0l-.009-.017v0l-.052-.1h0l-.01-.019v0l-.01-.018h0l-.01-.018v0L6.8,86.419h0l-.01-.019h0l-.009-.017v0l-.009-.017v0l-.009-.016,0,0-.041-.077v0l-.009-.017v0L6.7,86.225l0,0-.009-.016v0l-.009-.017v0l-.041-.077,0,0-.008-.016,0,0-.008-.015,0,0L6.6,86.05l0,0-.008-.016,0,0-.03-.057,0,0-.008-.016,0,0-.008-.014,0,0-.008-.014,0,0-.008-.016v0l-.009-.016,0,0-.02-.038v0l-.009-.017,0,0-.007-.013,0-.007-.006-.012,0-.007-.006-.012,0-.007-.006-.012,0-.007-.006-.011,0-.007-.009-.018,0,0-.007-.014,0-.007L6.4,85.656l0-.008-.006-.011,0-.009-.005-.01,0-.008L6.367,85.6l0-.008-.005-.01,0-.009,0-.009-.01-.02,0-.007-.006-.011,0-.007-.005-.011,0-.008-.005-.01,0-.008-.005-.01,0-.008-.005-.01,0-.007-.006-.011,0-.006-.006-.012h0l-.024-.047,0-.005-.006-.012,0-.006-.006-.011,0-.008-.006-.011,0-.007-.006-.012,0-.006L6.2,85.275l0,0-.033-.065v0l-.007-.014,0-.006-.007-.013,0,0-.007-.014,0,0-.007-.015v0l-.042-.084,0,0-.008-.015v0l-.008-.015,0,0-.008-.016h0l-.008-.016h0L6,84.872H6l-.008-.017h0q-.3-.607-.592-1.222ZM1.225,64.27A57.535,57.535,0,0,0,3,73.937l-1.075.295c-.212-.773-.409-1.556-.59-2.341h0l-.025-.111h0l0-.021v0l0-.02v0l-.02-.087v0l0-.018v0l0-.017v0l0-.018v0l-.01-.043v0l0-.019v0l0-.016v-.006l0-.016v-.006l0-.017v0l0-.021h0l0-.02,0-.007,0-.014,0-.007,0-.014,0-.008,0-.013,0-.008,0-.013,0-.008,0-.02,0-.007,0-.013,0-.01,0-.011,0-.01,0-.01,0-.011,0-.011,0-.01,0-.01,0-.011,0-.011,0-.019,0-.009,0-.012,0-.008,0-.012,0-.008,0-.012,0-.008,0-.012v-.006l-.011-.049v0l0-.015v-.006l0-.014v-.005l0-.015v-.005l0-.015v0l-.012-.055h0l0-.017v0l0-.016v0l0-.016v0l-.016-.074h0l0-.017v0l0-.017v0l0-.017v0l-.015-.073v0l0-.017v0l0-.016v0l-.023-.112v0l0-.018h0L1,70.318H1l0-.018v0L.97,70.183h0C.952,70.094.934,70,.917,69.915h0Q.88,69.723.844,69.53h0l-.029-.154h0q-.048-.26-.093-.521h0L.7,68.74h0l0-.019h0l-.02-.114v0l0-.017v0l0-.018h0L.656,68.47v0l0-.017v0l0-.017v0l-.016-.094v0l0-.017v0l0-.017v0l-.012-.072v-.006l0-.014v-.007l0-.014v-.006l0-.015v-.006l0-.015v0L.6,68.106V68.1l0-.014v-.007l0-.014v-.007l0-.013v-.007l0-.014v0l-.008-.05v-.005l0-.013v-.008l0-.013v-.008l0-.012V67.9l0-.013v-.006l-.007-.045v-.009l0-.012v-.008l0-.013v-.008l0-.012v-.009l0-.012,0-.01,0-.025v-.005l0-.012v-.009l0-.011,0-.01,0-.012v-.009l0-.012v-.009l0-.013v-.009l0-.014,0-.017v-.01l0-.012v-.009l0-.012v-.009l0-.013V67.5l0-.013V67.48l0-.017v-.005l0-.021v-.007l0-.015v-.007l0-.014v-.008l0-.014v-.007l0-.016v-.006L.471,67.3V67.3l0-.017v-.006l0-.015v-.007l0-.016V67.23l0-.02h0l-.007-.045v0l0-.02v0l0-.018v0l0-.019v0L.428,67h0l0-.022h0q-.183-1.294-.309-2.6Zm.352-19.808,1.082.269a57.642,57.642,0,0,0-1.548,9.707L0,54.357A58.566,58.566,0,0,1,1.578,44.462ZM9.646,26.2l.928.618a57.611,57.611,0,0,0-4.729,8.617l-1.02-.451q1.067-2.415,2.341-4.712h0l.019-.034h0l.067-.12h0l.01-.017h0l.066-.118v0l.008-.015,0,0,.008-.015v0l.008-.015v0l.046-.082v0l.008-.015,0,0,.008-.015v0l.008-.015,0,0,.046-.082v0l.008-.014,0,0,.007-.012,0-.006.007-.012,0-.007.006-.011,0-.006.007-.012,0,0,.026-.046v0l.007-.013,0-.005.007-.012,0-.006.006-.011,0-.007.007-.011,0-.006.007-.012,0,0,.034-.059,0-.007.006-.01,0-.008.006-.01.005-.009.005-.009.005-.009.005-.009,0-.009.006-.01,0-.008.006-.01.006-.01.008-.013.007-.012,0-.008.006-.01,0-.008.006-.01,0-.008.006-.01,0-.008.006-.011,0-.008.006-.011,0-.008.006-.011,0-.007.01-.017,0-.005.008-.013,0-.005.008-.013,0-.006.007-.012,0-.007.007-.011,0-.007.007-.012,0-.006.008-.014,0,0,.022-.037,0,0,.009-.015,0,0,.008-.013,0-.005.008-.013,0-.006.008-.014,0,0,.009-.015,0,0,.033-.056h0L8,28.824l0,0,.009-.014,0,0,.008-.014,0,0,.009-.015,0,0,.01-.017h0l.034-.056h0l.01-.017,0,0,.009-.016,0,0,.01-.016v0l.056-.094h0l.011-.018v0L8.19,28.5h0l.011-.018h0l.068-.113h0Q8.935,27.266,9.646,26.2ZM23.368,11.693l.668.892A58.061,58.061,0,0,0,16.7,19.127l-.81-.766q.624-.659,1.266-1.3h0l.093-.093h0l.015-.015h0l.014-.014,0,0,.014-.014h0l.062-.061h0l.015-.015,0,0,.013-.013,0,0,.013-.013,0,0,.013-.013h0l.062-.061h0l.014-.013,0,0,.012-.011,0,0,.011-.011,0,0,.012-.011,0,0,.012-.012,0,0,.046-.045,0,0,.013-.012,0,0,.012-.011,0,0,.011-.011,0,0,.011-.011,0,0,.012-.011,0,0,.03-.029,0,0,.013-.013,0,0,.011-.01.006-.006.01-.009.006-.006.008-.008.007-.007.008-.008.007-.006.009-.009.006-.006.011-.01,0,0,.015-.014.005-.005.01-.009.006-.005.01-.009.006-.006.008-.008.008-.007.007-.007.008-.008.007-.006.008-.007.007-.007.008-.008.007-.006.008-.008.005-.005.017-.016.008-.007L18,16.243,18,16.237l.009-.009.006-.005.01-.009,0,0,.01-.009.006-.006.009-.008.006-.006.009-.009.006-.005.009-.009,0,0,.022-.021,0,0,.01-.01,0,0,.01-.01,0,0,.01-.009.005,0,.01-.009,0,0,.01-.01,0,0,.011-.01,0,0,.012-.011h0l.04-.038,0,0,.011-.011,0,0,.011-.01,0,0,.011-.01,0,0,.011-.01,0,0,.011-.01,0,0,.053-.05,0,0,.012-.011,0,0,.011-.011,0,0,.012-.011,0,0,.012-.011,0,0,.012-.011h0l.07-.065h0l.013-.012,0,0,.012-.011,0,0,.012-.011,0,0,.012-.011h0l.085-.079h0l.014-.013h0l.014-.013h0A58.983,58.983,0,0,1,23.368,11.693ZM41.15,2.615l.33,1.065a57.361,57.361,0,0,0-9.1,3.7l-.507-.993q1.711-.874,3.485-1.638h0l.02-.008h0l.082-.035h0l.019-.008h0l.016-.007,0,0,.015-.006.005,0,.017-.007h0l.019-.008h0l.039-.017.006,0,.014-.006.006,0,.012-.005.008,0,.011,0,.008,0,.011,0,.009,0,.012,0,.008,0,.017-.007.011,0,.009,0,.01,0,.01,0,.01,0,.009,0,.01,0,.009,0,.011,0,.009,0,.01,0,.009,0,.042-.018.005,0,.012-.005.007,0,.013-.005.006,0,.013-.006.006,0,.013-.005.005,0,.014-.006h0l.068-.028h0l.015-.006h0l.015-.006,0,0,.016-.006h0l.017-.007h0l.108-.045h0Q38.638,3.394,41.15,2.615ZM58.525,0V1.115a58.359,58.359,0,0,0-7.441.476L50.941.486q.834-.108,1.677-.192h0l.091-.009h0L52.8.276l.023,0,.025,0h0l.065-.006.025,0,.026,0h0l.041,0,.022,0,.025,0,.026,0,.039,0,.025,0,.026,0H53.2l.034,0,.027,0h.027l.033,0,.03,0,.027,0,.027,0,.023,0h.01l.019,0h.011l.027,0,.027,0,.034,0,.029,0h.027l.027,0,.027,0h.008L53.7.2l.027,0,.026,0h0l.033,0,.02,0h.008l.021,0h.006l.028,0h0l.032,0,.028,0,.025,0h0l.032,0,.03,0,.028,0,.056,0h0l.024,0h.006l.024,0h0l.056,0,.029,0,.032,0h0l.057,0,.03,0h0l.086-.006.03,0h0l.058,0h0l.026,0h0l.028,0h0l.058,0h0l.029,0,.086-.005h0l.027,0h0L54.907.11h0l.028,0h0L55,.1h0l.028,0h0L55.115.1h0l.028,0h0l.088,0h0l.028,0h0l.088,0h0l.088,0h.031l.088,0h.031l.088,0h.031l.059,0H55.8l.087,0h.032l.087,0h.032l.059,0h.06l.059,0h.032l.09,0h.029l.058,0h.061l.057,0h.062l.062,0h.148l.057,0h.062L57,.02h1.529Z" transform="translate(13793.811 15808.179) rotate(-90)" fill="#012169"/>
    <g id="Group_1020" data-name="Group 1020" transform="translate(13827.408 15709.194)">
      <path id="Path_36" data-name="Path 36" d="M870.123,350.868a15.664,15.664,0,0,1-.181,1.643,21.107,21.107,0,0,1-1.409,4.836c-.238.571-.505,1.15-.805,1.738-.267.538-.567,1.089-.892,1.643a39.7,39.7,0,0,1-3.443,4.955q-.659.82-1.4,1.652c-.612.7-1.266,1.409-1.96,2.124-.489.505-1,1.011-1.528,1.524a88.189,88.189,0,0,1-8.435,7.112q-.8.6-1.644,1.212-1.578,1.134-3.287,2.293-1.713-1.159-3.287-2.293-.844-.61-1.643-1.212a88.549,88.549,0,0,1-8.263-6.948q-.814-.777-1.557-1.541c-.7-.715-1.356-1.417-1.964-2.116-.489-.542-.945-1.085-1.38-1.615a39.675,39.675,0,0,1-3.6-5.148c-.329-.555-.625-1.105-.892-1.643-.3-.588-.567-1.167-.805-1.738a21.1,21.1,0,0,1-1.409-4.836,15.568,15.568,0,0,1-.181-1.643,13.552,13.552,0,0,1,1.648-7.535,12.78,12.78,0,0,1,1.2-1.775,13.455,13.455,0,0,1,2.046-2.054,14.735,14.735,0,0,1,1.874-1.294,15.172,15.172,0,0,1,13.288-.986,12.889,12.889,0,0,1,1.643.838,12.756,12.756,0,0,1,3.287,2.839,12.759,12.759,0,0,1,3.287-2.839,12.9,12.9,0,0,1,1.644-.838,15.117,15.117,0,0,1,12.749.694,14.555,14.555,0,0,1,1.906,1.2,13.8,13.8,0,0,1,2.153,1.972,13.268,13.268,0,0,1,1.3,1.746A13.477,13.477,0,0,1,870.123,350.868Z" transform="translate(-819.967 -336.129)" fill="#012169"/>
      <path id="Path_39" data-name="Path 39" d="M878.093,345.394l-10.284,8.037-2.1,1.643-4.852,3.792-.871.682-.891.694-.752.588-1.044.818-.551.427-1.553,1.216-.189.148-3.238,2.531-1.643,1.286-8.263,6.455q-.813-.776-1.557-1.541c-.7-.715-1.356-1.418-1.964-2.116-.489-.542-.945-1.085-1.381-1.615l6.59-5.148,2.1-1.643,3.422-2.675,1.048-.822.695-.542.949-.74,1.4-1.093.9-.7.859-.674,1.241-.97,2.178-1.7,1.643-1.286,12.75-9.964a14.534,14.534,0,0,1,1.906,1.2,13.79,13.79,0,0,1,2.153,1.972A13.255,13.255,0,0,1,878.093,345.394Z" transform="translate(-829.881 -338.692)" fill="#fff"/>
      <path id="Path_39_-_Outline" data-name="Path 39 - Outline" d="M872.264,339.887l.1.055a14.793,14.793,0,0,1,1.93,1.211,13.994,13.994,0,0,1,2.181,2,13.516,13.516,0,0,1,1.316,1.77l.087.14L867.47,353.2l-2.1,1.643-4.853,3.792-.871.682-.892.695L858,360.6l-1.043.817-.551.428-1.741,1.364-3.238,2.531-1.643,1.286-8.387,6.552-.115-.109c-.52-.5-1.046-1.017-1.562-1.545-.755-.773-1.4-1.467-1.97-2.122-.422-.468-.849-.967-1.385-1.62l-.119-.145,12.264-9.582,1.048-.822.695-.543.949-.74,1.4-1.093.9-.7.858-.674,3.419-2.671,1.643-1.286Zm5.134,5.089a13.144,13.144,0,0,0-1.193-1.583,13.617,13.617,0,0,0-2.125-1.946,14.4,14.4,0,0,0-1.778-1.125l-12.656,9.891L858,351.5l-3.419,2.671-.858.674-.9.7-1.4,1.093-.949.74-.694.542-1.048.822-5.526,4.319-6.442,5.033c.478.579.869,1.035,1.256,1.464l0,0c.566.65,1.206,1.34,1.957,2.108.475.487.958.966,1.438,1.427l8.138-6.357,1.643-1.286,3.427-2.679,1.553-1.216.551-.428,1.043-.817.752-.588.892-.695.871-.682,4.852-3.792,2.1-1.643Z" transform="translate(-829.43 -338.316)" fill="rgba(0,0,0,0)"/>
      <path id="Path_37" data-name="Path 37" d="M865.795,368.665q-.659.82-1.4,1.652c-.612.7-1.266,1.409-1.96,2.124-.489.505-1,1.011-1.528,1.524l-8.435-6.356-1.643-1.241-3.336-2.51-.193-.148-1.607-1.208-.575-.436-.863-.649-.941-.707-.7-.53-1.048-.789-5.173-3.9-2.182-1.643-10-7.536a12.774,12.774,0,0,1,1.2-1.775,13.443,13.443,0,0,1,2.046-2.054,14.738,14.738,0,0,1,1.874-1.294L842.613,351.2l1.644,1.237,1.869,1.409,1.286.97.9.674.859.645,1.664,1.253.715.538.929.7.871.653,3.69,2.782,2.182,1.644Z" transform="translate(-822.37 -339.111)" fill="#fff"/>
      <path id="Path_37_-_Outline" data-name="Path 37 - Outline" d="M860.513,373.826l-8.56-6.45-1.644-1.241-3.336-2.51-.194-.149-1.605-1.207-.576-.436-1.8-1.355-.7-.53-1.048-.789-7.355-5.543-10.128-7.631.077-.139a12.974,12.974,0,0,1,1.213-1.8,13.652,13.652,0,0,1,2.074-2.082,14.943,14.943,0,0,1,1.9-1.31l.1-.061.1.073,13.287,10.013,1.643,1.237,3.156,2.379,1.754,1.319,2.379,1.791.929.7.87.653,3.69,2.782,8.91,6.712-.118.147c-.453.563-.925,1.121-1.4,1.658-.635.725-1.3,1.442-1.965,2.13-.451.466-.953.966-1.532,1.528Zm-36.476-27.942,12.054,9.082,6.924,5.218,1.8,1.356.576.436L847,363.184l.194.149,3.335,2.509,1.644,1.241,8.31,6.262c.53-.515.993-.978,1.412-1.411.664-.684,1.322-1.4,1.954-2.118.433-.487.861-.99,1.273-1.5l-8.609-6.485-3.69-2.782-.87-.653-.929-.7-2.378-1.791-1.754-1.319-3.156-2.379-1.643-1.237-13.19-9.94a14.6,14.6,0,0,0-1.746,1.217,13.3,13.3,0,0,0-2.019,2.027A12.69,12.69,0,0,0,824.037,345.884Z" transform="translate(-821.958 -338.731)" fill="rgba(0,0,0,0)"/>
      <path id="Path_40" data-name="Path 40" d="M878.861,338.79v40.874q-.8.6-1.643,1.212-1.578,1.134-3.287,2.293-1.713-1.159-3.287-2.293-.844-.61-1.644-1.212V338.79a12.908,12.908,0,0,1,1.644.838,12.757,12.757,0,0,1,3.287,2.839,12.9,12.9,0,0,1,4.931-3.677Z" transform="translate(-848.756 -337.697)" fill="#fff"/>
      <path id="Path_40_-_Outline" data-name="Path 40 - Outline" d="M868.5,338.035l.254.108a13.123,13.123,0,0,1,1.667.85,12.928,12.928,0,0,1,3.192,2.711,12.924,12.924,0,0,1,3.193-2.711,13.077,13.077,0,0,1,1.666-.85l.254-.108v41.241l-.073.055c-.526.4-1.065.794-1.646,1.214-1.095.787-2.2,1.559-3.292,2.3l-.1.069-.1-.069c-1.09-.737-2.2-1.51-3.291-2.3-.584-.422-1.123-.819-1.647-1.215l-.073-.055Zm9.861,41.059v-40.5a12.714,12.714,0,0,0-4.607,3.514l-.141.171-.141-.171a12.585,12.585,0,0,0-3.24-2.8,12.735,12.735,0,0,0-1.367-.716v40.5c.5.376,1.013.754,1.568,1.155,1.056.759,2.125,1.506,3.18,2.22,1.054-.714,2.123-1.461,3.18-2.22C877.346,379.849,877.86,379.471,878.361,379.094Z" transform="translate(-848.439 -337.218)" fill="rgba(0,0,0,0)"/>
      <path id="Path_41" data-name="Path 41" d="M866.112,372.173c-.612.7-1.265,1.409-1.96,2.124l-9.964-7.507-1.627-1.224-.016-.012-1.594-1.2-.567-.427-1.232-.928-2.379-1.791-.8-.6-.949-.715-.694-.522-2.671-2.013-2.182-1.643-12.355-9.311a13.443,13.443,0,0,1,2.046-2.054L844.253,355.7l.074.057L845.971,357l.464.349.933.7,1.75,1.319,2.379,1.791,1.048.789.752.567.892.674.97.731,2.182,1.643Z" transform="translate(-824.083 -340.966)" fill="#c8102e"/>
      <path id="Path_42" data-name="Path 42" d="M878.774,345.362l-12.519,9.783-2.1,1.644-2.186,1.709-.929.727-.715.559-1.048.818-2.346,1.832-1.187.929-.555.436-1.438,1.122-.107.086-1.536,1.2-9.82,7.679c-.7-.715-1.356-1.418-1.964-2.116l8.649-6.763,2.1-1.643,1.031-.805.7-.551.941-.735.8-.629,2.346-1.833,1.763-1.376.826-.645.838-.657,1.266-.986.378-.3,14.656-11.459A13.791,13.791,0,0,1,878.774,345.362Z" transform="translate(-831.86 -340.407)" fill="#c8102e"/>
      <path id="Path_38" data-name="Path 38" d="M870.123,350.868a15.664,15.664,0,0,1-.181,1.643,21.107,21.107,0,0,1-1.409,4.836c-.238.571-.505,1.15-.805,1.738-.267.538-.567,1.089-.892,1.643a39.7,39.7,0,0,1-3.443,4.955q-.659.82-1.4,1.652c-.612.7-1.266,1.409-1.96,2.124-.489.505-1,1.011-1.528,1.524a88.189,88.189,0,0,1-8.435,7.112q-.8.6-1.644,1.212-1.578,1.134-3.287,2.293-1.713-1.159-3.287-2.293-.844-.61-1.643-1.212a88.549,88.549,0,0,1-8.263-6.948q-.814-.777-1.557-1.541c-.7-.715-1.356-1.417-1.964-2.116-.489-.542-.945-1.085-1.38-1.615a39.675,39.675,0,0,1-3.6-5.148c-.329-.555-.625-1.105-.892-1.643-.3-.588-.567-1.167-.805-1.738a21.1,21.1,0,0,1-1.409-4.836,15.568,15.568,0,0,1-.181-1.643,13.552,13.552,0,0,1,1.648-7.535,12.78,12.78,0,0,1,1.2-1.775,13.455,13.455,0,0,1,2.046-2.054,14.735,14.735,0,0,1,1.874-1.294,15.172,15.172,0,0,1,13.288-.986,12.889,12.889,0,0,1,1.643.838,12.756,12.756,0,0,1,3.287,2.839,12.759,12.759,0,0,1,3.287-2.839,12.9,12.9,0,0,1,1.644-.838,15.117,15.117,0,0,1,12.749.694,14.555,14.555,0,0,1,1.906,1.2,13.8,13.8,0,0,1,2.153,1.972,13.268,13.268,0,0,1,1.3,1.746A13.477,13.477,0,0,1,870.123,350.868Z" transform="translate(-819.967 -336.129)" fill="none"/>
      <path id="Path_43" data-name="Path 43" d="M870.162,372a15.469,15.469,0,0,1-.181,1.644,21.081,21.081,0,0,1-1.409,4.836c-.238.571-.505,1.15-.805,1.738-.267.538-.567,1.089-.892,1.644H823.487c-.329-.555-.624-1.105-.891-1.644-.3-.588-.567-1.167-.806-1.738a21.1,21.1,0,0,1-1.409-4.836A15.563,15.563,0,0,1,820.2,372Z" transform="translate(-820.007 -357.261)" fill="#fff"/>
      <path id="Path_43_-_Outline" data-name="Path 43 - Outline" d="M819.672,371.5h50.348l-.01.193a15.8,15.8,0,0,1-.183,1.663,21.377,21.377,0,0,1-1.421,4.877c-.244.586-.517,1.175-.81,1.749-.261.527-.563,1.083-.9,1.654l-.053.091h-43.6l-.053-.09c-.313-.528-.615-1.084-.9-1.655s-.566-1.162-.81-1.75a21.377,21.377,0,0,1-1.421-4.878,15.819,15.819,0,0,1-.183-1.662Zm49.961.366H820.06c.031.459.087.939.167,1.431a21.013,21.013,0,0,0,1.4,4.795c.242.579.511,1.16.8,1.726v0c.263.53.543,1.049.832,1.542h43.179c.309-.532.589-1.05.833-1.542v0c.289-.567.558-1.147.8-1.725a21.023,21.023,0,0,0,1.4-4.794C869.546,372.806,869.6,372.325,869.633,371.866Z" transform="translate(-819.672 -356.944)" fill="rgba(0,0,0,0)"/>
      <path id="Path_44" data-name="Path 44" d="M870.241,376a21.1,21.1,0,0,1-1.409,4.836q-.358.857-.805,1.738H822.855q-.45-.881-.805-1.738A21.1,21.1,0,0,1,820.64,376Z" transform="translate(-820.266 -359.618)" fill="#c8102e"/>
      <path id="Path_45" data-name="Path 45" d="M879.574,340.83v41.248q-1.577,1.134-3.287,2.293-1.714-1.159-3.287-2.293V340.83a12.757,12.757,0,0,1,3.287,2.839A12.758,12.758,0,0,1,879.574,340.83Z" transform="translate(-851.113 -338.898)" fill="#c8102e"/>
    </g>
    <path id="Path_1484" data-name="Path 1484" d="M-49.832-3.037v-8.508h1.738v3.391H-44.4v-3.391h1.738v8.508H-44.4V-6.5h-3.691v3.463Zm11.186.132a2.568,2.568,0,0,1-2-.923,3.219,3.219,0,0,1-.815-2.2,3.219,3.219,0,0,1,.815-2.2,2.568,2.568,0,0,1,2-.923,2.179,2.179,0,0,1,1.031.24,2.008,2.008,0,0,1,.7.563v-.671h1.642v5.991H-36.92v-.671a2.008,2.008,0,0,1-.7.563A2.179,2.179,0,0,1-38.646-2.905ZM-39.4-4.858a1.428,1.428,0,0,0,1.1.455,1.409,1.409,0,0,0,1.1-.455,1.68,1.68,0,0,0,.413-1.174A1.68,1.68,0,0,0-37.2-7.207a1.409,1.409,0,0,0-1.1-.455,1.409,1.409,0,0,0-1.1.455,1.68,1.68,0,0,0-.413,1.174A1.7,1.7,0,0,0-39.4-4.858Zm5.71,1.821V-9.028h1.642v.683a1.924,1.924,0,0,1,1.714-.815,2.125,2.125,0,0,1,1.7.713,2.8,2.8,0,0,1,.617,1.9v3.511h-1.642V-6.272A1.671,1.671,0,0,0-29.94-7.3a.918.918,0,0,0-.779-.365,1.2,1.2,0,0,0-.965.431,1.92,1.92,0,0,0-.365,1.27v2.924Zm9.6.132a2.568,2.568,0,0,1-2-.923,3.219,3.219,0,0,1-.815-2.2,3.219,3.219,0,0,1,.815-2.2,2.568,2.568,0,0,1,2-.923,2.179,2.179,0,0,1,1.031.24,2.008,2.008,0,0,1,.7.563v-3.667h1.642v8.987h-1.642v-.671a2.008,2.008,0,0,1-.7.563A2.179,2.179,0,0,1-24.087-2.905Zm-.755-1.953a1.428,1.428,0,0,0,1.1.455,1.409,1.409,0,0,0,1.1-.455,1.68,1.68,0,0,0,.413-1.174,1.68,1.68,0,0,0-.413-1.174,1.409,1.409,0,0,0-1.1-.455,1.409,1.409,0,0,0-1.1.455,1.68,1.68,0,0,0-.413,1.174A1.7,1.7,0,0,0-24.842-4.858Zm13.259,1.821v-3.2q0-1.426-.935-1.426a1.029,1.029,0,0,0-.857.407,2.049,2.049,0,0,0-.342,1.21v3.008h-1.642v-3.2q0-1.426-.935-1.426a1.036,1.036,0,0,0-.875.431,2.1,2.1,0,0,0-.324,1.27v2.924h-1.642V-9.028h1.642v.683A1.824,1.824,0,0,1-15.9-9.16a1.977,1.977,0,0,1,1.857,1.1,1.906,1.906,0,0,1,.791-.809,2.171,2.171,0,0,1,1.066-.294,2.03,2.03,0,0,1,1.654.707,2.949,2.949,0,0,1,.587,1.941v3.475ZM-6-2.905a2.568,2.568,0,0,1-2-.923,3.219,3.219,0,0,1-.815-2.2,3.219,3.219,0,0,1,.815-2.2A2.568,2.568,0,0,1-6-9.16a2.179,2.179,0,0,1,1.031.24,2.008,2.008,0,0,1,.7.563v-.671h1.642v5.991H-4.279v-.671a2.008,2.008,0,0,1-.7.563A2.179,2.179,0,0,1-6-2.905Zm-.755-1.953a1.428,1.428,0,0,0,1.1.455,1.409,1.409,0,0,0,1.1-.455,1.68,1.68,0,0,0,.413-1.174A1.68,1.68,0,0,0-4.56-7.207a1.409,1.409,0,0,0-1.1-.455,1.409,1.409,0,0,0-1.1.455,1.68,1.68,0,0,0-.413,1.174A1.7,1.7,0,0,0-6.759-4.858ZM1.383-2.905a2.568,2.568,0,0,1-2-.923,3.219,3.219,0,0,1-.815-2.2,3.219,3.219,0,0,1,.815-2.2,2.568,2.568,0,0,1,2-.923,2.179,2.179,0,0,1,1.031.24,2.008,2.008,0,0,1,.7.563v-3.667H4.75v8.987H3.109v-.671a2.008,2.008,0,0,1-.7.563A2.179,2.179,0,0,1,1.383-2.905ZM.628-4.858a1.428,1.428,0,0,0,1.1.455,1.409,1.409,0,0,0,1.1-.455A1.68,1.68,0,0,0,3.24-6.033a1.68,1.68,0,0,0-.413-1.174,1.409,1.409,0,0,0-1.1-.455,1.409,1.409,0,0,0-1.1.455A1.68,1.68,0,0,0,.221-6.033,1.7,1.7,0,0,0,.628-4.858ZM9.094-2.905a3.047,3.047,0,0,1-2.259-.887,3.063,3.063,0,0,1-.881-2.253,3.012,3.012,0,0,1,.893-2.229A3.072,3.072,0,0,1,9.106-9.16a3.053,3.053,0,0,1,2.289.941,3.316,3.316,0,0,1,.839,2.57H7.56a1.38,1.38,0,0,0,.467.941,1.657,1.657,0,0,0,1.15.377A1.707,1.707,0,0,0,9.963-4.5a1.021,1.021,0,0,0,.485-.485h1.714a2.694,2.694,0,0,1-1.1,1.5A3.364,3.364,0,0,1,9.094-2.905ZM9.058-7.83a1.486,1.486,0,0,0-.941.294,1.384,1.384,0,0,0-.5.809h2.816a1.333,1.333,0,0,0-.521-.833A1.473,1.473,0,0,0,9.058-7.83Zm7.909-2.181a1.01,1.01,0,0,1-.731-.306,1,1,0,0,1-.312-.737,1,1,0,0,1,.312-.737,1.01,1.01,0,0,1,.731-.306,1.018,1.018,0,0,1,.749.306,1,1,0,0,1,.306.737,1,1,0,0,1-.306.737A1.018,1.018,0,0,1,16.967-10.011Zm-.815,6.974V-9.028h1.642v5.991Zm3.217,0V-9.028h1.642v.683a1.923,1.923,0,0,1,1.714-.815,2.125,2.125,0,0,1,1.7.713,2.8,2.8,0,0,1,.617,1.9v3.511H23.4V-6.272A1.671,1.671,0,0,0,23.12-7.3a.918.918,0,0,0-.779-.365,1.2,1.2,0,0,0-.965.431,1.92,1.92,0,0,0-.365,1.27v2.924ZM-44.907,12.835a4.358,4.358,0,0,1-3.205-1.27,4.24,4.24,0,0,1-1.276-3.128,4.25,4.25,0,0,1,1.27-3.128,4.323,4.323,0,0,1,3.187-1.27,4.389,4.389,0,0,1,2.462.737A3.832,3.832,0,0,1-40.917,6.7h-1.989a2.141,2.141,0,0,0-.857-.719,2.649,2.649,0,0,0-1.168-.264,2.6,2.6,0,0,0-1.953.779,2.679,2.679,0,0,0-.755,1.941,2.679,2.679,0,0,0,.755,1.941,2.629,2.629,0,0,0,1.977.779,2.488,2.488,0,0,0,1.636-.509,2.211,2.211,0,0,0,.761-1.42h-2.6V7.6h4.4a6.106,6.106,0,0,1-.132,2.289,3.764,3.764,0,0,1-.875,1.648,4.069,4.069,0,0,1-1.414.965A4.613,4.613,0,0,1-44.907,12.835Zm5.41-.144V6.7h1.642v.959a1.5,1.5,0,0,1,.569-.737,1.547,1.547,0,0,1,.917-.294,1.921,1.921,0,0,1,.551.072V8.365a2.355,2.355,0,0,0-.743-.132,1.161,1.161,0,0,0-.941.425,1.774,1.774,0,0,0-.354,1.168v2.864Zm7.268.132a3.047,3.047,0,0,1-2.259-.887,3.063,3.063,0,0,1-.881-2.253,3.012,3.012,0,0,1,.893-2.229,3.072,3.072,0,0,1,2.259-.887,3.053,3.053,0,0,1,2.289.941,3.316,3.316,0,0,1,.839,2.57h-4.673a1.38,1.38,0,0,0,.467.941,1.657,1.657,0,0,0,1.15.377,1.707,1.707,0,0,0,.785-.174,1.022,1.022,0,0,0,.485-.485h1.714a2.694,2.694,0,0,1-1.1,1.5A3.364,3.364,0,0,1-32.229,12.823ZM-32.265,7.9a1.486,1.486,0,0,0-.941.294A1.384,1.384,0,0,0-33.7,9h2.816a1.333,1.333,0,0,0-.521-.833A1.473,1.473,0,0,0-32.265,7.9Zm6.8,4.925a2.568,2.568,0,0,1-2-.923,3.219,3.219,0,0,1-.815-2.2,3.219,3.219,0,0,1,.815-2.2,2.568,2.568,0,0,1,2-.923,2.179,2.179,0,0,1,1.031.24,2.008,2.008,0,0,1,.7.563V6.7H-22.1v5.991h-1.642V12.02a2.008,2.008,0,0,1-.7.563A2.179,2.179,0,0,1-25.465,12.823Zm-.755-1.953a1.428,1.428,0,0,0,1.1.455,1.409,1.409,0,0,0,1.1-.455,1.68,1.68,0,0,0,.413-1.174,1.68,1.68,0,0,0-.413-1.174,1.409,1.409,0,0,0-1.1-.455,1.409,1.409,0,0,0-1.1.455,1.68,1.68,0,0,0-.413,1.174A1.7,1.7,0,0,0-26.22,10.869Zm8.61,1.893a2.421,2.421,0,0,1-1.648-.557,2.02,2.02,0,0,1-.641-1.612V8.137h-1.21V6.7h1.21V5.034h1.642V6.7h1.69V8.137h-1.69V10.27a1.067,1.067,0,0,0,.24.785,1.088,1.088,0,0,0,.779.234,1.907,1.907,0,0,0,.671-.108v1.45A3.6,3.6,0,0,1-17.61,12.763Zm5.093-.072V4.183H-9.4a2.454,2.454,0,0,1,1.8.725,2.367,2.367,0,0,1,.731,1.744,1.951,1.951,0,0,1-.671,1.522,2.1,2.1,0,0,1,1.258,2.013,2.366,2.366,0,0,1-.755,1.785,2.621,2.621,0,0,1-1.881.719ZM-10.78,11.1h1.738a1.093,1.093,0,0,0,.779-.27.917.917,0,0,0,.288-.7.936.936,0,0,0-.288-.707,1.079,1.079,0,0,0-.779-.276H-10.78Zm0-3.427h1.21a1,1,0,0,0,.731-.27.908.908,0,0,0,.276-.677.923.923,0,0,0-.282-.677.981.981,0,0,0-.725-.282h-1.21Zm5.638,5.021V6.7H-3.5v.959a1.5,1.5,0,0,1,.569-.737,1.547,1.547,0,0,1,.917-.294,1.921,1.921,0,0,1,.551.072V8.365a2.355,2.355,0,0,0-.743-.132,1.161,1.161,0,0,0-.941.425A1.774,1.774,0,0,0-3.5,9.827v2.864ZM.4,5.717A1.01,1.01,0,0,1-.33,5.411a1.027,1.027,0,0,1,0-1.474A1.01,1.01,0,0,1,.4,3.632a1.018,1.018,0,0,1,.749.306,1.041,1.041,0,0,1,0,1.474A1.018,1.018,0,0,1,.4,5.717Zm-.815,6.974V6.7H1.227v5.991Zm6.117.072a2.421,2.421,0,0,1-1.648-.557,2.02,2.02,0,0,1-.641-1.612V8.137H2.2V6.7h1.21V5.034H5.056V6.7h1.69V8.137H5.056V10.27a1.067,1.067,0,0,0,.24.785,1.088,1.088,0,0,0,.779.234,1.907,1.907,0,0,0,.671-.108v1.45A3.6,3.6,0,0,1,5.7,12.763Zm4.56.06a2.568,2.568,0,0,1-2-.923,3.219,3.219,0,0,1-.815-2.2,3.219,3.219,0,0,1,.815-2.2,2.568,2.568,0,0,1,2-.923,2.179,2.179,0,0,1,1.031.24,2.008,2.008,0,0,1,.7.563V6.7H13.63v5.991H11.988V12.02a2.008,2.008,0,0,1-.7.563A2.179,2.179,0,0,1,10.262,12.823Zm-.755-1.953a1.428,1.428,0,0,0,1.1.455,1.409,1.409,0,0,0,1.1-.455,1.68,1.68,0,0,0,.413-1.174,1.68,1.68,0,0,0-.413-1.174,1.409,1.409,0,0,0-1.1-.455,1.409,1.409,0,0,0-1.1.455A1.68,1.68,0,0,0,9.1,9.695,1.7,1.7,0,0,0,9.508,10.869Zm6.525-5.153a1.01,1.01,0,0,1-.731-.306,1.027,1.027,0,0,1,0-1.474,1.046,1.046,0,0,1,1.785.737,1,1,0,0,1-.306.737A1.018,1.018,0,0,1,16.032,5.717Zm-.815,6.974V6.7h1.642v5.991Zm3.217,0V6.7h1.642v.683a1.923,1.923,0,0,1,1.714-.815,2.125,2.125,0,0,1,1.7.713,2.8,2.8,0,0,1,.617,1.9v3.511H22.461V9.455a1.671,1.671,0,0,0-.276-1.025.918.918,0,0,0-.779-.365,1.2,1.2,0,0,0-.965.431,1.92,1.92,0,0,0-.365,1.27v2.924Z" transform="translate(13865.137 15773.282)" fill="#012169"/>
  </g>
</svg>
