<svg xmlns="http://www.w3.org/2000/svg" width="78" height="78" viewBox="0 0 78 78">
  <g id="Group_1742" data-name="Group 1742" transform="translate(-245 -3238)">
    <rect id="Rectangle_3240" data-name="Rectangle 3240" width="78" height="78" transform="translate(245 3238)" fill="#fff"/>
    <g id="Group_1741" data-name="Group 1741" transform="translate(-105.262 5.738)">
      <path id="Ellipse_547" data-name="Ellipse 547" d="M33.262,1.823A31.448,31.448,0,0,0,21.025,62.231,31.448,31.448,0,0,0,45.5,4.292a31.241,31.241,0,0,0-12.237-2.47m0-1.823A33.262,33.262,0,1,1,0,33.262,33.262,33.262,0,0,1,33.262,0Z" transform="translate(356 3238)" fill="#3a6469"/>
      <path id="Ellipse_548" data-name="Ellipse 548" d="M27.794,0h1.041l.041,0h.282l.085,0h.238l.127.008h.2l.171.013h.107l.032,0h0l.213.018h0l.021,0h.106L30.7.15h.064l.021,0h0l.021,0h0l.243.027h.1l.231.029H31.5l.168.023h0l.02,0H31.7l.011,0h.011l.011,0h.031l.011,0,.01,0,.011,0h.01l.011,0h.01l.011,0h.031l.011,0,.01,0,.01,0,.061.009h0l.01,0,.011,0h.011l.011,0,.011,0,.011,0,.011,0,.011,0,.011,0,.011,0,.01,0,.011,0,.01,0,.01,0,.011,0,.011,0,.011,0,.011,0,.011,0,.011,0,.011,0,.01,0,.01,0,.011,0,.012,0,.011,0,.012,0,.01,0h0l.021,0,.011,0,.011,0,.011,0,.01,0,.011,0,.01,0,.011,0,.01,0,.011,0,.011,0,.011,0,.01,0,.011,0,.011,0,.011,0,.01,0,.011,0,.011,0,.011,0,.01,0,.011,0,.011,0,.011,0,.011,0h0l.171.03.011,0h0l.032.006h0q.236.043.471.089a.683.683,0,0,1-.267,1.341,26.642,26.642,0,0,0-5.168-.5.683.683,0,1,1,0-1.367ZM38.189,2.064a.682.682,0,0,1,.262.052q.854.355,1.678.764h0l.009,0h0l.008,0h0l.008,0h0l.007,0,0,0,.006,0,0,0,.006,0,0,0,.006,0,0,0,.006,0,.009,0,0,0,.005,0,.009,0,.009,0,.009,0,.01,0,.009,0,.009,0,.009,0,.01,0,.009,0,.009,0,.009,0,.01,0,.009,0,.01,0,.009,0,.01,0,.006,0h0l.007,0h0l.007,0h0l.007,0h0l.007,0h0l.007,0h0l.007,0h0l.007,0h0l.007,0h0l.008,0h0l.009,0h0l.009,0h0l.018.009h0A27.774,27.774,0,0,1,43.263,4.7.683.683,0,0,1,42.5,5.833a26.419,26.419,0,0,0-4.573-2.454.684.684,0,0,1,.263-1.315Zm8.8,5.9a.681.681,0,0,1,.483.2q.458.459.894.939h0a27.911,27.911,0,0,1,2.567,3.287.683.683,0,0,1-1.138.757,26.617,26.617,0,0,0-3.289-4.017.683.683,0,0,1,.484-1.166Zm5.878,8.818a.684.684,0,0,1,.631.421q.275.667.516,1.351h0l0,.01h0l0,.01h0l0,.009h0l0,.009h0l0,.009h0l0,.009h0l0,.009h0l0,.009h0l0,.009h0l0,.009v0l0,.009v0l0,.009v0l0,.008v0l0,.008v0l0,.008v0l0,.008v0l0,.008v0l0,.008v0l0,.008v0l0,.008v0l0,.008v0l0,.008v0l0,.008v0l0,.008v0l0,.008v0l0,.008v0l0,.008v0l0,.008v0l0,.007v0l0,.007v0l0,.007v0l0,.007v0l0,.006v0l0,.006v0l0,.006v0l0,.006v0l0,.006v0l0,.007v0l0,.007v0l0,.007v0l0,.007v0l0,.007v0l0,.007v0l0,.007v0l0,.006v0l0,.006v0l0,.006v0l0,.006v0l0,.006v0l0,.006v0l0,.006v0l0,.006v0l0,.006v0l0,.007v0l0,.007v0l0,.007v0l0,.006v0l0,.006v0l0,.006v0l0,.006v0l0,.006v0l0,.006,0,0,0,.005,0,0,0,.005,0,.005,0,.005,0,0,0,.005,0,.005,0,.005,0,0,0,.006,0,0,0,.005v0l0,.006v0l0,.006v0l0,.006v0l0,.006v0l0,.006v0l0,.005v0l0,.005,0,0,0,.005v0l0,.006,0,0,0,.005,0,.005,0,.005,0,.005,0,0,0,.005,0,.005,0,0,0,.005,0,0,0,.005,0,.005,0,0,0,.005,0,0,0,.005,0,.005,0,0,0,.005,0,.005,0,.005,0,0,0,.005,0,.005,0,0,0,.005v0l0,.006v0l0,.006v0l0,.006v0l0,.006v0l0,.006v0l0,.006v0l0,.006v0l0,.006v0l0,.006v0l0,.006v0l0,.006v0l0,.005v0l0,.006v0l0,.006v0l0,.006v0l0,.006v0l0,.006v0l0,.005v0l0,.006v0l0,.006v0l0,.005v0l0,.005,0,.005,0,0,0,.006v0l0,.006v0l0,.005v0l0,.006v0l0,.006v0l0,.006v0l0,.005v0l0,.005v0l0,.005v0l0,.005,0,.005v0l0,.005v0l0,.005v0l0,.006v0l0,.006v0l0,.006v0l0,.006v0l0,.005v0l0,.005v0l0,.005,0,.005v.005l0,.005v0l0,.005,0,.005v.01l0,.005v0l0,.005v0l0,.006v0l0,.005v0l0,.005v0l0,.005v.01l0,.005v0l0,.006v0l0,.006v0l0,.006v0l0,.005v.01l0,.005,0,.005V20.1l0,.005v0l0,.006v0l0,.006v0l0,.006v0l0,.006v0l0,.006v0l0,.006v0l0,.006v0l0,.006v0l0,.006v0l0,.006v0l0,.006v0l0,.006v0l0,.006v0l0,.006v.015l0,.006v0l0,.006v0l0,.006v0l0,.005v.046l0,.005v.036l0,.006v.046l0,.006v.026l0,.006v0l0,.006v0l0,.006v0l0,.006v0l0,.007v0l0,.007v0l0,.006v0l0,.006v0l0,.006v0l0,.006v0l0,.006v0l0,.006v0l0,.006v0l0,.006v0l0,.006v0l0,.006v0l0,.007v0l0,.007v0l0,.006v0l0,.006v0l0,.007v0l0,.007v0l0,.007v0l0,.007v0l0,.007v0l0,.007v0l0,.006v0l0,.006v0l0,.007v0l0,.007v0l0,.007v0l0,.007v0l0,.007v0l0,.008v0l0,.008v0l0,.008v0l0,.008h0l0,.009v0l0,.008v0l0,.008v0l0,.008v0l0,.008v0l0,.008v0l0,.007v0l0,.008v0l0,.008v0l0,.008v0l0,.008v0l0,.008v0l0,.008v0l0,.008v0l0,.008v0l0,.008v0l0,.008v0l0,.008v0l0,.008v0l0,.008v0l0,.008v0l0,.008v0l0,.008v0l0,.008h0l0,.009h0l0,.009h0l0,.009v0l0,.009h0l0,.01h0l0,.01h0l0,.01h0l0,.02h0q.15.616.272,1.242a.683.683,0,1,1-1.342.262,26.286,26.286,0,0,0-1.493-4.969.684.684,0,0,1,.632-.944Zm2.035,10.4h0a.683.683,0,0,1,.682.685q0,.555-.025,1.105h0v.248h0v.02h0v.71l0,.025v.271h0v.009h0c0,.043-.008.085-.012.128h0v.01h0v.01h0v.052h0v.02h0V30.5h0v.009h0v.01h0v.01h0v.01h0v.01h0v.01h0q-.117,1.184-.332,2.338h0l0,.01h0l0,.01h0l0,.01h0l0,.009h0l0,.009h0l0,.009h0l0,.009h0l0,.009h0l0,.009h0l0,.009h0l-.018.092h0l0,.008v.122l0,.008v0l0,.008v0l0,.008v0l0,.009v0l0,.009h0l0,.01h0l0,.01h0v0a.683.683,0,0,1-1.34-.27,26.632,26.632,0,0,0,.519-5.166A.683.683,0,0,1,54.9,27.186ZM52.812,37.575a.684.684,0,0,1,.631.945q-.2.486-.424.961h0l0,.009h0l0,.008v0l0,.008v0l0,.007v0l0,.007v0l0,.006,0,0,0,.006,0,0,0,.006,0,0,0,.006,0,0,0,.005,0,0,0,.005,0,0,0,0,0,.005,0,0,0,.005,0,0,0,.006,0,0,0,.006,0,0,0,.006,0,0,0,.006v0l0,.007v0l0,.007v0l0,.007v0l0,.007v0l0,.008v0l0,.008h0l0,.008h0l0,.009h0l0,.009h0a27.761,27.761,0,0,1-2.051,3.588.683.683,0,0,1-1.133-.765,26.422,26.422,0,0,0,2.467-4.566A.684.684,0,0,1,52.812,37.575Zm-5.928,8.786a.683.683,0,0,1,.483,1.167q-.64.635-1.32,1.228h0l-.015.013h0l-.007.006h0l-.006.005,0,0-.006.005,0,0L46,48.8l0,0-.006,0,0,0-.006,0,0,0-.005,0,0,0-.005,0,0,0-.005,0,0,0-.005,0,0,0,0,0,0,0-.005,0,0,0,0,0,0,0,0,0,0,0,0,0,0,0,0,0,0,0,0,0,0,0-.005,0,0,0,0,0,0,0,0,0,0,0,0,0,0,0,0,0,0,0,0,0,0,0,0,0,0,0,0,0,0,0,0,0,0,0,0,0,0,0,0,0,0,0,0,0,0,0,0,0-.006.005,0,0-.008.007h0l-.081.069h0l-.008.007h0l-.008.007h0l-.008.006h0l-.007.006h0l-.007.006h0l-.007.006h0l-.007.005h0l-.007.006h0l-.007.006h0l-.007.006h0l-.007.006h0l-.007.006h0l-.007.006h0l-.007.006h0l-.007.006h0l-.007.006h0l-.007.006h0l-.008.006h0l-.008.007h0l-.008.007h0a27.9,27.9,0,0,1-2.4,1.784.683.683,0,1,1-.755-1.139A26.616,26.616,0,0,0,46.4,46.559.681.681,0,0,1,46.884,46.361Zm-8.835,5.854a.684.684,0,0,1,.259,1.316q-.782.32-1.588.593h0l-.04.014h0l-.039.013h0l-.019.006h0l-.009,0-.009,0h0l-.01,0-.01,0-.008,0-.009,0h0l-.008,0-.01,0-.01,0-.01,0-.01,0-.01,0-.01,0-.01,0-.011,0-.01,0-.01,0-.009,0-.01,0-.01,0-.01,0-.01,0-.011,0-.01,0-.01,0-.01,0-.01,0-.01,0-.01,0-.01,0-.01,0-.01,0-.01,0-.01,0-.01,0-.01,0-.01,0-.01,0-.011,0-.01,0-.01,0-.01,0-.01,0-.011,0-.01,0-.01,0-.01,0-.01,0-.01,0-.01,0-.01,0-.01,0-.01,0-.01,0-.011,0-.011,0-.01,0-.01,0-.01,0-.01,0-.01,0-.01,0-.01,0-.01,0-.01,0-.01,0-.01,0-.01,0-.01,0-.01,0-.01,0-.011,0-.01,0-.01,0-.01,0-.011,0-.01,0-.01,0-.01,0-.011,0-.01,0-.01,0-.01,0-.01,0-.01,0-.01,0-.01,0-.011,0-.01,0-.01,0-.01,0-.01,0-.01,0-.01,0-.01,0-.011,0-.01,0-.01,0-.01,0-.008,0-.011,0h0l-.008,0-.01,0h0l-.008,0-.01,0-.01,0-.01,0-.01,0-.011,0-.01,0-.01,0-.01,0-.011,0-.01,0-.01,0-.01,0-.011,0-.01,0h0l-.008,0-.01,0-.011,0-.01,0-.01,0-.01,0-.01,0-.01,0-.011,0-.01,0-.01,0-.01,0-.011,0-.01,0-.011,0-.01,0h0l-.008,0h0l-.008,0-.01,0h0l-.008,0h0l-.008,0h0l-.008,0-.011,0h0l-.008,0h0l-.008,0h0l-.008,0-.011,0-.01,0h0l-.008,0h0l-.008,0h0l-.008,0h0l-.008,0h0l-.008,0-.01,0-.011,0-.01,0-.011,0-.01,0-.011,0h0l-.008,0h0l-.008,0h0l-.008,0-.011,0h0l-.008,0-.011,0-.01,0-.011,0h0l-.008,0h0l-.008,0-.01,0-.011,0-.01,0-.011,0-.01,0-.011,0-.01,0-.011,0-.01,0-.011,0-.01,0-.011,0-.01,0-.011,0-.01,0-.011,0-.01,0-.011,0-.01,0-.011,0-.01,0-.011,0-.01,0-.01,0-.01,0-.011,0-.011,0-.011,0-.01,0-.011,0-.011,0-.011,0-.01,0-.011,0-.01,0-.011,0-.01,0-.011,0-.01,0-.01,0-.01,0-.011,0-.011,0-.011,0-.01,0-.011,0-.01,0-.011,0-.01,0-.011,0-.01,0-.01,0-.01,0-.011,0-.01,0-.011,0-.01,0-.011,0-.011,0-.011,0-.01,0-.011,0-.01,0-.011,0-.01,0-.011,0-.01,0-.01,0-.01,0-.011,0-.011,0-.011,0-.01,0-.011,0-.011,0-.011,0-.01,0-.011,0-.01,0-.01,0-.01,0-.011,0-.011,0-.011,0-.01,0-.011,0-.011,0-.011,0-.01,0-.011,0-.011,0-.011,0-.01,0-.011,0-.011,0-.01,0-.01,0-.011,0-.011,0-.011,0-.01,0-.011,0-.01,0-.01,0-.01,0-.011,0-.011,0-.011,0-.01,0-.011,0-.011,0-.011,0-.01,0-.011,0-.01,0-.011,0-.01,0-.011,0-.011,0-.01,0-.01,0-.01,0-.011,0-.011,0-.01,0-.011,0-.011,0-.011,0-.01,0-.01,0-.011,0-.011,0-.01,0-.011,0-.011,0L33.5,55l-.01,0-.011,0-.011,0-.01,0-.01,0-.011,0-.011,0-.011,0-.01,0-.011,0-.011,0-.011,0-.01,0-.011,0-.011,0-.011,0-.01,0-.011,0-.011,0-.011,0-.01,0-.011,0-.011,0-.011,0-.01,0-.01,0-.011,0-.011,0-.01,0-.011,0-.011,0-.011,0-.01,0-.011,0-.011,0-.011,0-.01,0-.011,0-.011,0h-.007a.683.683,0,0,1-.258-1.342,26.286,26.286,0,0,0,4.973-1.479A.681.681,0,0,1,38.049,52.215Zm-15.7,1.459a.687.687,0,0,1,.137.014,26.623,26.623,0,0,0,5.164.533.683.683,0,1,1-.007,1.367q-.561,0-1.116-.028h-.248l-.077,0h-.189a27.806,27.806,0,0,1-3.678-.48l-.01,0-.011,0-.01,0-.01,0-.01,0-.01,0-.01,0-.01,0-.01,0-.01,0-.01,0-.009,0a.684.684,0,0,1,.136-1.353Zm-9.761-4.119a.68.68,0,0,1,.383.118,26.425,26.425,0,0,0,4.559,2.48.683.683,0,0,1-.53,1.26q-.692-.292-1.365-.62h0l-.009,0h0l-.009,0h0l-.009,0h0l-.009,0h0l-.009,0h0l-.009,0h0l-.009,0h0l-.009,0h0l-.009,0h0l-.008,0h0l-.008,0h0l-.008,0h0l-.008,0h0l-.008,0h0l-.007,0h0l-.008,0h0l-.008,0h0l-.008,0h0l-.008,0h0l-.008,0h0l-.008,0h0l-.008,0h0l-.007,0h0l-.008,0h0l-.007,0h0l-.008,0h0l-.007,0h0l-.008,0h0l-.007,0h0l-.008,0h0l-.007,0h0l-.008,0h0l-.007,0h0l-.008,0h0l-.017-.009h0l-.053-.027h0l-.007,0-.007,0,0,0-.006,0,0,0-.006,0-.009,0-.009,0-.006,0,0,0-.005,0,0,0-.005,0,0,0-.006,0,0,0-.006,0,0,0-.006,0,0,0-.006,0,0,0-.006,0,0,0-.006,0,0,0-.006,0,0,0-.006,0h0l-.007,0h0l-.007,0h0l-.006,0,0,0-.006,0,0,0-.006,0h0l-.007,0h0l-.007,0h0l-.007,0h0l-.007,0h0l-.008,0h0l-.007,0h0l-.007,0h0l-.008,0h0l-.008,0h0l-.007,0h0l-.007,0h0l-.008,0h0l-.008,0h0l-.008,0h0l-.008,0h0l-.009,0h0l-.009,0h0l-.009,0h0l-.037-.02h0A27.786,27.786,0,0,1,12.2,50.8a.684.684,0,0,1,.385-1.249ZM5.139,42.008a.683.683,0,0,1,.571.307A26.614,26.614,0,0,0,8.977,46.35.683.683,0,1,1,8,47.31a27.925,27.925,0,0,1-3.435-4.243.684.684,0,0,1,.57-1.06Zm-3.98-9.819a.684.684,0,0,1,.671.556,26.288,26.288,0,0,0,1.465,4.977.683.683,0,1,1-1.267.514q-.377-.93-.688-1.892h0l0-.01h0l0-.009v0l0-.008h0l0-.009h0l0-.009h0l0-.009v0l0-.008h0l0-.009h0l0-.009v0l0-.007v0l0-.007h0l-.006-.02h0l0-.01v0l0-.008v0l0-.008v0l0-.008v0l0-.006,0,0,0-.005v0l0-.006v0l0-.007,0-.005,0-.005,0-.005,0-.005v0l0-.007v0l0-.005,0-.009h0l0-.007v-.007l-.005-.017,0-.008v0l0-.007v0l0-.005v0Q.915,34.977.674,33.9h0l-.019-.084h0l-.009-.042h0l0-.021h0l0-.01h0l0-.01h0l0-.01h0l0-.01h0l0-.01h0l0-.01h0l0-.021h0l0-.01h0l0-.01h0l0-.01h0l0-.01h0l0-.01h0l0-.009h0l0-.009h0l0-.009h0l0-.009h0l0-.009v0l0-.009h0l0-.009v0l0-.009v0l0-.009v0l0-.009h0l0-.009v0l0-.009v0l0-.008v0l0-.008v0l0-.008v0l0-.008v0l0-.008v0l0-.008v0l0-.008v0l0-.008v-.024l0-.008v0l0-.008v0l0-.007v0l0-.008v0l0-.008v0l0-.008V33.3l0-.008v0l0-.008v-.014l0-.008v0l0-.008V33a.684.684,0,0,1,.672-.81Zm.087-10.6a.684.684,0,0,1,.67.822,26.611,26.611,0,0,0-.548,5.163A.683.683,0,0,1,0,27.562a27.975,27.975,0,0,1,.371-4.323h0l0-.009V23q.016-.093.033-.185h0q.062-.342.132-.682A.684.684,0,0,1,1.246,21.587Zm4.147-9.751a.684.684,0,0,1,.564,1.069,26.429,26.429,0,0,0-2.492,4.552.683.683,0,0,1-1.258-.535,27.736,27.736,0,0,1,2.622-4.788A.683.683,0,0,1,5.393,11.836ZM12.96,4.414a.684.684,0,0,1,.375,1.255A26.612,26.612,0,0,0,9.291,8.926a.683.683,0,0,1-.959-.974q.351-.344.712-.674h0l.007-.007h0l.007-.006h0l.007-.006h0l.006-.006,0,0,.006-.005,0,0,.005-.005,0,0,0,0,0,0,0,0,0,0,0,0,0,0,0,0,0,0,0,0,0,0,0,0,0,0,0,0,0,0,0,0,0,0,0,0,0,0,0,0,.005,0,0,0,.005,0,0,0,.005,0,0,0,.005,0,0,0,.005,0,0,0,.005,0,0,0,.006-.005,0,0,.007-.006h0L9.235,7.1h0a27.909,27.909,0,0,1,3.35-2.577A.68.68,0,0,1,12.96,4.414ZM22.791.461a.684.684,0,0,1,.125,1.355,26.289,26.289,0,0,0-4.981,1.451A.683.683,0,0,1,17.423,2q.4-.163.815-.313h0l.08-.029h0l.04-.014h0l.02-.007h0l.01,0h0l.009,0h0l.009,0h0l.009,0h0l.009,0h0l.009,0h0l.009,0h0l.009,0h0l.008,0h0l.008,0,.01,0h0l.008,0h0l.008,0h0l.008,0h0l.008,0h0l.009,0h0l.008,0h0l.008,0,.01,0h0l.008,0,.01,0,.01,0,.01,0,.01,0,.01,0,.01,0,.01,0,.01,0,.01,0,.01,0,.01,0,.01,0,.01,0,.01,0,.01,0,.01,0,.01,0,.01,0,.01,0,.01,0,.01,0,.01,0,.01,0,.01,0,.01,0,.01,0,.01,0,.01,0,.01,0,.01,0,.01,0,.01,0,.01,0,.01,0,.01,0,.01,0,.01,0,.01,0,.01,0,.01,0,.01,0,.01,0,.01,0,.01,0,.01,0,.01,0,.01,0,.01,0,.01,0,.01,0,.01,0,.01,0,.01,0,.01,0,.01,0,.01,0,.01,0,.01,0,.01,0,.01,0,.01,0,.01,0,.01,0,.01,0,.01,0,.01,0,.01,0,.01,0,.01,0,.01,0,.01,0,.01,0,.01,0,.01,0,.011,0,.01,0,.01,0,.01,0,.01,0,.01,0,.01,0,.01,0,.01,0,.01,0,.01,0,.01,0,.01,0,.01,0,.01,0,.01,0,.01,0,.01,0,.01,0,.01,0,.01,0,.01,0,.01,0,.01,0,.01,0,.01,0,.01,0,.01,0,.01,0,.01,0,.01,0,.01,0,.011,0,.01,0,.01,0,.01,0,.01,0,.011,0,.01,0,.01,0,.01,0,.01,0,.01,0,.01,0,.01,0,.01,0,.01,0,.01,0,.01,0,.01,0,.01,0,.01,0,.01,0,.011,0,.01,0,.01,0,.011,0,.01,0,.011,0,.01,0,.01,0,.011,0,.011,0,.01,0,.011,0,.01,0,.01,0,.009,0,.01,0,.01,0,.01,0,.01,0,.011,0,.01,0,.01,0,.01,0,.011,0,.011,0,.01,0,.01,0,.011,0,.01,0,.01,0,.009,0,.01,0,.011,0,.01,0,.01,0,.011,0,.01,0,.01,0,.01,0,.011,0,.01,0,.011,0,.011,0h0l.019-.005.009,0,.008,0,.011,0,.011,0,.011,0,.009,0h0l.009,0,.008,0,.009,0,.009,0,.007,0h0l.015,0,.011,0,.009,0,.013,0,.007,0,.078-.021h0l.017,0h0l.019-.005h0l.014,0h0l.015,0,.016,0,.01,0L20.69.916h0l.02-.005h0l.018,0h0l.041-.011h0l.04-.01h0l.062-.016h0L20.9.862h0l.041-.01h0l.02,0h0l.019,0h0l.041-.01h0l.041-.01h0q.791-.2,1.6-.348A.687.687,0,0,1,22.791.461Z" transform="translate(361.468 3243.468)" fill="#3a6469"/>
      <g id="Group_1737" data-name="Group 1737" transform="translate(371.19 3256.888)">
        <path id="Path_36" data-name="Path 36" d="M856.016,346.708a11.258,11.258,0,0,1-.13,1.18,15.146,15.146,0,0,1-1.012,3.471c-.171.41-.363.826-.578,1.248-.192.386-.407.782-.64,1.18a28.5,28.5,0,0,1-2.472,3.557q-.473.588-1,1.186c-.44.5-.908,1.012-1.407,1.525-.351.363-.717.726-1.1,1.094a63.322,63.322,0,0,1-6.055,5.105q-.575.434-1.18.87-1.133.814-2.359,1.646-1.23-.832-2.359-1.646-.606-.438-1.18-.87a63.589,63.589,0,0,1-5.931-4.987q-.584-.558-1.118-1.106c-.5-.513-.973-1.018-1.41-1.519-.351-.389-.678-.779-.991-1.159a28.485,28.485,0,0,1-2.583-3.7c-.236-.4-.448-.793-.64-1.18-.215-.422-.407-.838-.578-1.248a15.151,15.151,0,0,1-1.012-3.471,11.193,11.193,0,0,1-.13-1.18,9.73,9.73,0,0,1,1.183-5.409,9.157,9.157,0,0,1,.858-1.274,9.664,9.664,0,0,1,1.469-1.475,10.577,10.577,0,0,1,1.345-.929,10.891,10.891,0,0,1,9.538-.708,9.26,9.26,0,0,1,1.18.6,9.157,9.157,0,0,1,2.359,2.038,9.156,9.156,0,0,1,2.359-2.038,9.27,9.27,0,0,1,1.18-.6,10.851,10.851,0,0,1,9.152.5,10.448,10.448,0,0,1,1.368.858,9.912,9.912,0,0,1,1.545,1.416,9.514,9.514,0,0,1,.932,1.254A9.673,9.673,0,0,1,856.016,346.708Z" transform="translate(-820.013 -336.129)" fill="#3a6469"/>
        <path id="Path_39" data-name="Path 39" d="M866.485,344.007l-7.382,5.769-1.507,1.18-3.483,2.722-.625.49-.64.5-.54.422-.749.587-.4.307-1.115.873-.136.106-2.324,1.817-1.18.923-5.931,4.633q-.584-.557-1.118-1.106c-.5-.513-.973-1.018-1.409-1.519-.351-.389-.679-.779-.991-1.159l4.73-3.7,1.51-1.18,2.457-1.92.752-.59.5-.389.681-.531,1-.784.646-.5.616-.484.891-.7,1.563-1.221,1.18-.923,9.152-7.152a10.424,10.424,0,0,1,1.368.858,9.909,9.909,0,0,1,1.546,1.416A9.522,9.522,0,0,1,866.485,344.007Z" transform="translate(-831.878 -339.197)" fill="#fff"/>
        <path id="Path_39_-_Outline" data-name="Path 39 - Outline" d="M862.1,339.887l.075.039a10.616,10.616,0,0,1,1.386.869,10.04,10.04,0,0,1,1.566,1.435,9.676,9.676,0,0,1,.945,1.271l.062.1-7.475,5.841-1.507,1.18-3.483,2.722-.625.489-.64.5-.539.422-.749.587-.4.307-1.25.979-2.324,1.817-1.18.923-6.02,4.7-.082-.078c-.374-.357-.751-.73-1.121-1.109-.542-.555-1-1.053-1.414-1.523-.3-.336-.609-.695-.994-1.163l-.085-.1,8.8-6.878.752-.59.5-.39.682-.531,1-.784.646-.5.616-.483,2.454-1.917,1.18-.923Zm3.686,3.653a9.408,9.408,0,0,0-.856-1.136,9.774,9.774,0,0,0-1.525-1.4,10.345,10.345,0,0,0-1.276-.808l-9.085,7.1-1.18.923-2.454,1.917-.616.484-.646.5-1,.784-.682.531-.5.389-.752.59-3.967,3.1-4.624,3.613c.343.415.624.743.9,1.051v0c.406.467.866.962,1.4,1.513.341.349.688.694,1.033,1.024l5.842-4.564,1.179-.923,2.46-1.923,1.115-.873.4-.307.749-.586.54-.422.64-.5.625-.489,3.483-2.722,1.507-1.18Z" transform="translate(-831.354 -338.76)" fill="rgba(0,0,0,0)"/>
        <path id="Path_37" data-name="Path 37" d="M854.06,360.912q-.473.588-1,1.186c-.439.5-.908,1.012-1.407,1.525-.351.363-.717.725-1.1,1.094l-6.055-4.563-1.18-.891-2.4-1.8-.138-.106-1.153-.867-.413-.313-.619-.466-.675-.507-.5-.38-.752-.566-3.713-2.8-1.566-1.18-7.179-5.409a9.176,9.176,0,0,1,.858-1.274,9.653,9.653,0,0,1,1.469-1.475,10.584,10.584,0,0,1,1.345-.929l9.538,7.188,1.18.888,1.342,1.012.923.7.643.484.616.463,1.195.9.513.386.667.5.625.469,2.649,2,1.566,1.18Z" transform="translate(-822.889 -339.697)" fill="#fff"/>
        <path id="Path_37_-_Outline" data-name="Path 37 - Outline" d="M850.086,364.447l-6.145-4.63-1.18-.891-2.395-1.8-.139-.107-1.152-.866-.413-.313-1.294-.973-.5-.381-.752-.566-5.279-3.979-7.27-5.478.056-.1a9.318,9.318,0,0,1,.87-1.292,9.793,9.793,0,0,1,1.489-1.495,10.726,10.726,0,0,1,1.362-.94l.075-.044.07.052,9.538,7.187,1.18.888,2.265,1.708,1.259.947,1.708,1.286.667.5.625.469,2.649,2,6.4,4.818-.085.106c-.325.4-.664.8-1.007,1.19-.456.52-.931,1.035-1.411,1.529-.324.335-.684.693-1.1,1.1ZM823.9,344.39l8.653,6.52,4.97,3.746,1.295.973.413.313,1.153.867.14.107,2.394,1.8,1.18.891,5.965,4.495c.38-.37.713-.7,1.014-1.013.477-.491.949-1,1.4-1.52.311-.35.618-.711.914-1.076l-6.179-4.655-2.649-2-.625-.469-.667-.5-1.707-1.286-1.259-.947-2.265-1.708-1.18-.888-9.468-7.135a10.477,10.477,0,0,0-1.253.873,9.548,9.548,0,0,0-1.449,1.455A9.1,9.1,0,0,0,823.9,344.39Z" transform="translate(-822.411 -339.256)" fill="rgba(0,0,0,0)"/>
        <path id="Path_40" data-name="Path 40" d="M876.078,338.79v29.34q-.575.434-1.18.87-1.133.814-2.359,1.646-1.23-.832-2.359-1.646-.606-.438-1.18-.87V338.79a9.252,9.252,0,0,1,1.18.6,9.153,9.153,0,0,1,2.359,2.038,9.261,9.261,0,0,1,3.539-2.64Z" transform="translate(-854.469 -338.005)" fill="#fff"/>
        <path id="Path_40_-_Outline" data-name="Path 40 - Outline" d="M868.5,338.035l.182.077a9.431,9.431,0,0,1,1.2.61,9.285,9.285,0,0,1,2.292,1.946,9.277,9.277,0,0,1,2.292-1.946,9.409,9.409,0,0,1,1.2-.61l.183-.077v29.6l-.052.039c-.377.285-.764.57-1.182.872-.786.565-1.581,1.119-2.363,1.648l-.073.05-.074-.05c-.783-.529-1.578-1.084-2.363-1.648-.419-.3-.806-.588-1.182-.872l-.052-.039Zm7.078,29.472V338.434a9.123,9.123,0,0,0-3.307,2.523l-.1.123-.1-.123a9.035,9.035,0,0,0-2.326-2.009,9.136,9.136,0,0,0-.981-.514v29.074c.358.27.727.541,1.125.829.758.545,1.526,1.081,2.283,1.594.756-.513,1.524-1.049,2.283-1.594C874.85,368.05,875.219,367.778,875.578,367.508Z" transform="translate(-854.1 -337.449)" fill="rgba(0,0,0,0)"/>
        <path id="Path_41" data-name="Path 41" d="M855.109,364.318c-.439.5-.908,1.012-1.407,1.525l-7.152-5.388-1.168-.879-.012-.009-1.144-.864-.407-.307-.885-.667-1.708-1.286-.575-.434-.681-.513-.5-.375-1.917-1.445-1.566-1.18-8.869-6.683a9.648,9.648,0,0,1,1.469-1.475l10.83,8.158.053.041,1.18.888.333.251.67.5,1.256.947,1.708,1.286.752.566.54.407.64.484.7.525,1.566,1.18Z" transform="translate(-824.94 -341.918)" fill="#8ea3a5"/>
        <path id="Path_42" data-name="Path 42" d="M867.922,344.806l-8.986,7.022-1.51,1.18-1.569,1.227-.667.522-.513.4-.752.587-1.684,1.315-.852.667-.4.313-1.032.805-.077.062-1.1.861-7.049,5.512c-.5-.513-.973-1.017-1.41-1.519l6.208-4.854,1.51-1.18.74-.578.5-.4.675-.528.575-.451,1.684-1.315,1.265-.988.593-.463.6-.472.908-.708.271-.212,10.52-8.226A9.9,9.9,0,0,1,867.922,344.806Z" transform="translate(-834.247 -341.248)" fill="#8ea3a5"/>
        <path id="Path_38" data-name="Path 38" d="M856.016,346.708a11.258,11.258,0,0,1-.13,1.18,15.146,15.146,0,0,1-1.012,3.471c-.171.41-.363.826-.578,1.248-.192.386-.407.782-.64,1.18a28.5,28.5,0,0,1-2.472,3.557q-.473.588-1,1.186c-.44.5-.908,1.012-1.407,1.525-.351.363-.717.726-1.1,1.094a63.322,63.322,0,0,1-6.055,5.105q-.575.434-1.18.87-1.133.814-2.359,1.646-1.23-.832-2.359-1.646-.606-.438-1.18-.87a63.589,63.589,0,0,1-5.931-4.987q-.584-.558-1.118-1.106c-.5-.513-.973-1.018-1.41-1.519-.351-.389-.678-.779-.991-1.159a28.485,28.485,0,0,1-2.583-3.7c-.236-.4-.448-.793-.64-1.18-.215-.422-.407-.838-.578-1.248a15.151,15.151,0,0,1-1.012-3.471,11.193,11.193,0,0,1-.13-1.18,9.73,9.73,0,0,1,1.183-5.409,9.157,9.157,0,0,1,.858-1.274,9.664,9.664,0,0,1,1.469-1.475,10.577,10.577,0,0,1,1.345-.929,10.891,10.891,0,0,1,9.538-.708,9.26,9.26,0,0,1,1.18.6,9.157,9.157,0,0,1,2.359,2.038,9.156,9.156,0,0,1,2.359-2.038,9.27,9.27,0,0,1,1.18-.6,10.851,10.851,0,0,1,9.152.5,10.448,10.448,0,0,1,1.368.858,9.912,9.912,0,0,1,1.545,1.416,9.514,9.514,0,0,1,.932,1.254A9.673,9.673,0,0,1,856.016,346.708Z" transform="translate(-820.013 -336.129)" fill="none"/>
        <path id="Path_43" data-name="Path 43" d="M856.063,372a11.044,11.044,0,0,1-.13,1.18,15.122,15.122,0,0,1-1.012,3.471q-.256.615-.578,1.247c-.192.386-.407.782-.64,1.18H822.559c-.236-.4-.448-.793-.64-1.18-.216-.422-.407-.838-.578-1.247a15.147,15.147,0,0,1-1.012-3.471,11.138,11.138,0,0,1-.13-1.18Z" transform="translate(-820.062 -361.42)" fill="#fff"/>
        <path id="Path_43_-_Outline" data-name="Path 43 - Outline" d="M819.672,371.5h36.141l-.007.138a11.343,11.343,0,0,1-.131,1.194,15.354,15.354,0,0,1-1.02,3.5c-.175.421-.371.843-.582,1.256-.188.378-.4.778-.644,1.187l-.038.065H822.1l-.038-.064c-.224-.379-.441-.778-.644-1.188s-.406-.834-.582-1.256a15.341,15.341,0,0,1-1.02-3.5,11.341,11.341,0,0,1-.131-1.193Zm35.863.263H819.95c.023.329.063.674.12,1.027a15.082,15.082,0,0,0,1,3.442c.174.416.366.832.574,1.239h0c.189.381.39.753.6,1.107h30.994c.222-.382.422-.754.6-1.107h0c.208-.407.4-.823.574-1.239a15.083,15.083,0,0,0,1-3.441C855.472,372.437,855.512,372.092,855.535,371.763Z" transform="translate(-819.672 -361.052)" fill="rgba(0,0,0,0)"/>
        <path id="Path_44" data-name="Path 44" d="M856.244,376a15.15,15.15,0,0,1-1.012,3.471q-.257.615-.578,1.248H822.23q-.323-.633-.578-1.248A15.151,15.151,0,0,1,820.64,376Z" transform="translate(-820.372 -364.241)" fill="#8ea3a5"/>
        <path id="Path_45" data-name="Path 45" d="M877.719,340.83v29.608q-1.132.814-2.359,1.646-1.23-.832-2.359-1.646V340.83a9.158,9.158,0,0,1,2.359,2.038A9.161,9.161,0,0,1,877.719,340.83Z" transform="translate(-857.289 -339.443)" fill="#8ea3a5"/>
      </g>
    </g>
  </g>
</svg>
