<svg xmlns="http://www.w3.org/2000/svg" width="78" height="78" viewBox="0 0 78 78">
  <g id="Group_2226" data-name="Group 2226" transform="translate(-249 -4131)">
    <rect id="Rectangle_3406" data-name="Rectangle 3406" width="78" height="78" transform="translate(249 4131)" fill="#fff"/>
    <g id="Group_2221" data-name="Group 2221" transform="translate(258 4142.528)">
      <path id="Path_36" data-name="Path 36" d="M880.243,353.851a18.862,18.862,0,0,1-.217,1.976,25.375,25.375,0,0,1-1.7,5.815c-.287.687-.607,1.383-.968,2.09-.321.647-.682,1.309-1.072,1.976a47.744,47.744,0,0,1-4.14,5.958q-.793.986-1.68,1.986c-.736.84-1.522,1.695-2.357,2.554-.588.608-1.2,1.216-1.838,1.833a106.081,106.081,0,0,1-10.143,8.552q-.963.726-1.976,1.457-1.9,1.363-3.952,2.757-2.06-1.393-3.953-2.757-1.015-.734-1.976-1.457a106.542,106.542,0,0,1-9.935-8.354q-.979-.934-1.873-1.853c-.84-.86-1.63-1.7-2.361-2.544-.588-.652-1.136-1.3-1.66-1.942a47.715,47.715,0,0,1-4.328-6.19c-.4-.667-.751-1.329-1.072-1.976-.361-.706-.682-1.4-.968-2.09a25.373,25.373,0,0,1-1.695-5.815,18.734,18.734,0,0,1-.218-1.976,16.3,16.3,0,0,1,1.981-9.061,15.337,15.337,0,0,1,1.438-2.134,16.19,16.19,0,0,1,2.461-2.47,17.726,17.726,0,0,1,2.253-1.556,18.245,18.245,0,0,1,15.978-1.186,15.514,15.514,0,0,1,1.976,1.008,15.342,15.342,0,0,1,3.953,3.414,15.337,15.337,0,0,1,3.952-3.414,15.53,15.53,0,0,1,1.976-1.008,18.177,18.177,0,0,1,15.331.835,17.506,17.506,0,0,1,2.292,1.438,16.6,16.6,0,0,1,2.589,2.372,15.935,15.935,0,0,1,1.561,2.1A16.2,16.2,0,0,1,880.243,353.851Z" transform="translate(-819.933 -336.129)" fill="#012169"/>
      <path id="Path_39" data-name="Path 39" d="M886.419,346.389l-12.366,9.664-2.525,1.976-5.835,4.56-1.047.82-1.072.835-.9.707-1.255.983-.662.514-1.867,1.462-.227.178-3.893,3.043-1.976,1.546-9.936,7.761q-.978-.933-1.872-1.852c-.839-.86-1.63-1.7-2.361-2.544-.588-.652-1.137-1.3-1.66-1.942l7.924-6.191,2.53-1.976,4.115-3.216,1.26-.988.835-.652,1.141-.889,1.68-1.314,1.082-.845,1.032-.81,1.492-1.166,2.619-2.045,1.976-1.546,15.33-11.981a17.451,17.451,0,0,1,2.292,1.438,16.6,16.6,0,0,1,2.589,2.372A15.952,15.952,0,0,1,886.419,346.389Z" transform="translate(-828.448 -338.33)" fill="#fff"/>
      <path id="Path_39_-_Outline" data-name="Path 39 - Outline" d="M879.555,339.887l.126.066A17.78,17.78,0,0,1,882,341.409a16.821,16.821,0,0,1,2.623,2.4,16.2,16.2,0,0,1,1.583,2.128l.1.168-12.522,9.785-2.524,1.976-5.835,4.56-1.047.82-1.072.835-.9.706-1.255.983-.663.515-2.094,1.64-3.893,3.044-1.976,1.546L842.441,380.4l-.138-.131c-.626-.6-1.258-1.223-1.878-1.858-.908-.929-1.683-1.764-2.369-2.552-.507-.563-1.021-1.163-1.665-1.948l-.143-.174L851,362.212l1.26-.988.835-.652,1.142-.889,1.679-1.314,1.082-.845,1.032-.81,4.111-3.212,1.976-1.546Zm6.174,6.119a15.747,15.747,0,0,0-1.434-1.9,16.368,16.368,0,0,0-2.555-2.34,17.327,17.327,0,0,0-2.138-1.353L864.383,352.3l-1.976,1.546L858.3,357.06l-1.032.81-1.082.845-1.68,1.314-1.142.89-.835.652-1.259.988-6.645,5.193-7.747,6.052c.574.7,1.045,1.245,1.51,1.76l0,0c.681.782,1.45,1.612,2.353,2.535.571.585,1.152,1.162,1.73,1.716l9.785-7.645,1.976-1.546,4.121-3.221,1.868-1.462.663-.514,1.254-.982.9-.707,1.072-.835,1.047-.82,5.835-4.56,2.525-1.976Z" transform="translate(-828.049 -337.998)" fill="rgba(0,0,0,0)"/>
      <path id="Path_37" data-name="Path 37" d="M874.213,374.227q-.793.986-1.68,1.986c-.736.84-1.522,1.694-2.357,2.554-.588.608-1.2,1.215-1.838,1.833L858.2,372.958l-1.976-1.492-4.012-3.019-.232-.178-1.932-1.453-.692-.524-1.037-.781-1.131-.85-.845-.637-1.26-.949-6.22-4.689-2.624-1.976-12.025-9.061a15.373,15.373,0,0,1,1.438-2.134,16.17,16.17,0,0,1,2.461-2.47,17.727,17.727,0,0,1,2.253-1.556l15.978,12.04,1.976,1.487,2.248,1.695,1.546,1.166,1.077.81,1.032.776,2,1.507.86.647,1.116.845,1.047.785,4.437,3.345,2.623,1.976Z" transform="translate(-821.997 -338.69)" fill="#fff"/>
      <path id="Path_37_-_Outline" data-name="Path 37 - Outline" d="M867.994,380.554,857.7,372.8l-1.976-1.492-4.011-3.018-.234-.179-1.93-1.451-.692-.524-2.168-1.63-.845-.638-1.259-.948-8.844-6.665-12.178-9.176.093-.167a15.6,15.6,0,0,1,1.458-2.165,16.407,16.407,0,0,1,2.494-2.5,17.973,17.973,0,0,1,2.281-1.575l.126-.073.117.088,15.977,12.04,1.976,1.487,3.794,2.861,2.109,1.586,2.861,2.154,1.117.845,1.047.785,4.437,3.345,10.714,8.071-.142.177c-.545.677-1.112,1.348-1.687,1.994-.764.871-1.559,1.733-2.363,2.561-.542.56-1.145,1.162-1.842,1.838Zm-43.861-33.6,14.495,10.921,8.325,6.275,2.169,1.63.692.524,1.931,1.452.234.179,4.01,3.018,1.977,1.492,9.992,7.529c.637-.619,1.194-1.176,1.7-1.7.8-.823,1.59-1.679,2.349-2.546.521-.586,1.035-1.191,1.531-1.8l-10.352-7.8-4.437-3.345L857.7,362l-1.118-.845L853.723,359l-2.11-1.586-3.794-2.861-1.976-1.487-15.861-11.952a17.571,17.571,0,0,0-2.1,1.463,15.993,15.993,0,0,0-2.427,2.437A15.25,15.25,0,0,0,824.133,346.956Z" transform="translate(-821.633 -338.354)" fill="rgba(0,0,0,0)"/>
      <path id="Path_40" data-name="Path 40" d="M880.857,338.79v49.148q-.963.726-1.976,1.457-1.9,1.364-3.953,2.757-2.06-1.393-3.952-2.757-1.016-.733-1.977-1.457V338.79a15.5,15.5,0,0,1,1.977,1.008,15.333,15.333,0,0,1,3.952,3.414,15.513,15.513,0,0,1,5.929-4.422Z" transform="translate(-844.658 -337.475)" fill="#fff"/>
      <path id="Path_40_-_Outline" data-name="Path 40 - Outline" d="M868.5,338.035l.306.129a15.806,15.806,0,0,1,2,1.022,15.553,15.553,0,0,1,3.839,3.26,15.541,15.541,0,0,1,3.839-3.26,15.766,15.766,0,0,1,2-1.022l.306-.129v49.59l-.088.066c-.632.477-1.28.954-1.98,1.46-1.316.946-2.648,1.875-3.958,2.761l-.123.083-.123-.083c-1.311-.887-2.643-1.816-3.958-2.761-.7-.508-1.35-.985-1.98-1.46l-.088-.066Zm11.857,49.371V338.7a15.283,15.283,0,0,0-5.539,4.226l-.17.206-.17-.206a15.135,15.135,0,0,0-3.9-3.365,15.3,15.3,0,0,0-1.643-.86v48.7c.6.452,1.218.907,1.885,1.389,1.27.913,2.556,1.81,3.824,2.669,1.267-.859,2.553-1.756,3.824-2.67C879.137,388.314,879.755,387.859,880.357,387.406Z" transform="translate(-844.378 -337.053)" fill="rgba(0,0,0,0)"/>
      <path id="Path_41" data-name="Path 41" d="M874.005,377.807c-.736.84-1.522,1.695-2.356,2.554l-11.981-9.026-1.957-1.472-.02-.015-1.917-1.448-.682-.514-1.482-1.117-2.861-2.154-.964-.726-1.141-.86-.835-.627-3.211-2.421-2.623-1.976-14.856-11.2a16.165,16.165,0,0,1,2.46-2.47l18.142,13.666.089.069,1.976,1.487.558.42,1.122.845,2.1,1.586,2.86,2.154,1.26.949.9.682,1.073.81,1.166.879,2.623,1.976Z" transform="translate(-823.469 -340.283)" fill="#c8102e"/>
      <path id="Path_42" data-name="Path 42" d="M886.558,345.761,871.5,357.525l-2.53,1.976-2.629,2.055-1.117.875-.859.672-1.26.983-2.821,2.2-1.427,1.117-.667.524-1.729,1.349-.129.1-1.848,1.443-11.808,9.234c-.84-.86-1.63-1.7-2.362-2.544l10.4-8.132,2.529-1.976,1.24-.968.845-.662,1.131-.884.964-.756,2.821-2.2,2.12-1.655.993-.776,1.008-.79,1.522-1.186.454-.356,17.623-13.779A16.573,16.573,0,0,1,886.558,345.761Z" transform="translate(-830.148 -339.803)" fill="#c8102e"/>
      <path id="Path_38" data-name="Path 38" d="M880.243,353.851a18.862,18.862,0,0,1-.217,1.976,25.375,25.375,0,0,1-1.7,5.815c-.287.687-.607,1.383-.968,2.09-.321.647-.682,1.309-1.072,1.976a47.744,47.744,0,0,1-4.14,5.958q-.793.986-1.68,1.986c-.736.84-1.522,1.695-2.357,2.554-.588.608-1.2,1.216-1.838,1.833a106.081,106.081,0,0,1-10.143,8.552q-.963.726-1.976,1.457-1.9,1.363-3.952,2.757-2.06-1.393-3.953-2.757-1.015-.734-1.976-1.457a106.542,106.542,0,0,1-9.935-8.354q-.979-.934-1.873-1.853c-.84-.86-1.63-1.7-2.361-2.544-.588-.652-1.136-1.3-1.66-1.942a47.715,47.715,0,0,1-4.328-6.19c-.4-.667-.751-1.329-1.072-1.976-.361-.706-.682-1.4-.968-2.09a25.373,25.373,0,0,1-1.695-5.815,18.734,18.734,0,0,1-.218-1.976,16.3,16.3,0,0,1,1.981-9.061,15.337,15.337,0,0,1,1.438-2.134,16.19,16.19,0,0,1,2.461-2.47,17.726,17.726,0,0,1,2.253-1.556,18.245,18.245,0,0,1,15.978-1.186,15.514,15.514,0,0,1,1.976,1.008,15.342,15.342,0,0,1,3.953,3.414,15.337,15.337,0,0,1,3.952-3.414,15.53,15.53,0,0,1,1.976-1.008,18.177,18.177,0,0,1,15.331.835,17.506,17.506,0,0,1,2.292,1.438,16.6,16.6,0,0,1,2.589,2.372,15.935,15.935,0,0,1,1.561,2.1A16.2,16.2,0,0,1,880.243,353.851Z" transform="translate(-819.933 -336.129)" fill="none"/>
      <path id="Path_43" data-name="Path 43" d="M880.277,372a18.468,18.468,0,0,1-.218,1.976,25.334,25.334,0,0,1-1.694,5.815q-.429,1.03-.968,2.09c-.321.647-.681,1.309-1.072,1.976H824.152c-.4-.667-.751-1.329-1.072-1.976-.361-.706-.682-1.4-.968-2.09a25.375,25.375,0,0,1-1.695-5.815A18.64,18.64,0,0,1,820.2,372Z" transform="translate(-819.968 -354.278)" fill="#fff"/>
      <path id="Path_43_-_Outline" data-name="Path 43 - Outline" d="M819.672,371.5h60.541l-.012.232a19.044,19.044,0,0,1-.22,2,25.721,25.721,0,0,1-1.709,5.865c-.294.705-.622,1.413-.975,2.1-.314.633-.677,1.3-1.079,1.988l-.064.109H823.731l-.064-.108c-.376-.634-.739-1.3-1.08-1.99s-.68-1.4-.974-2.1a25.7,25.7,0,0,1-1.709-5.865,19,19,0,0,1-.22-2Zm60.075.44H820.138c.038.552.105,1.129.2,1.721a25.26,25.26,0,0,0,1.68,5.765c.291.7.614,1.394.962,2.075v0c.316.638.653,1.261,1,1.854H875.9c.371-.639.708-1.263,1-1.854v0c.348-.681.671-1.379.961-2.075a25.26,25.26,0,0,0,1.68-5.765C879.642,373.07,879.71,372.492,879.747,371.94Z" transform="translate(-819.672 -353.998)" fill="rgba(0,0,0,0)"/>
      <path id="Path_44" data-name="Path 44" d="M880.282,376a25.378,25.378,0,0,1-1.695,5.815q-.43,1.03-.968,2.09H823.3q-.541-1.06-.968-2.09A25.385,25.385,0,0,1,820.64,376Z" transform="translate(-820.19 -356.302)" fill="#c8102e"/>
      <path id="Path_45" data-name="Path 45" d="M880.9,340.83v49.6q-1.9,1.363-3.952,2.757-2.06-1.393-3.952-2.757v-49.6a15.34,15.34,0,0,1,3.952,3.414A15.347,15.347,0,0,1,880.9,340.83Z" transform="translate(-846.682 -338.507)" fill="#c8102e"/>
      <path id="Path_5454" data-name="Path 5454" d="M880.243,353.851a18.862,18.862,0,0,1-.217,1.976,25.375,25.375,0,0,1-1.7,5.815c-.287.687-.607,1.383-.968,2.09-.321.647-.682,1.309-1.072,1.976a47.744,47.744,0,0,1-4.14,5.958q-.793.986-1.68,1.986c-.736.84-1.522,1.695-2.357,2.554-.588.608-1.2,1.216-1.838,1.833a106.081,106.081,0,0,1-10.143,8.552q-.963.726-1.976,1.457-1.9,1.363-3.952,2.757-2.06-1.393-3.953-2.757-1.015-.734-1.976-1.457a106.542,106.542,0,0,1-9.935-8.354q-.979-.934-1.873-1.853c-.84-.86-1.63-1.7-2.361-2.544-.588-.652-1.136-1.3-1.66-1.942a47.715,47.715,0,0,1-4.328-6.19c-.4-.667-.751-1.329-1.072-1.976-.361-.706-.682-1.4-.968-2.09a25.373,25.373,0,0,1-1.695-5.815,18.734,18.734,0,0,1-.218-1.976,16.3,16.3,0,0,1,1.981-9.061,15.337,15.337,0,0,1,1.438-2.134,16.19,16.19,0,0,1,2.461-2.47,17.726,17.726,0,0,1,2.253-1.556,18.245,18.245,0,0,1,15.978-1.186,15.514,15.514,0,0,1,1.976,1.008,15.342,15.342,0,0,1,3.953,3.414,15.337,15.337,0,0,1,3.952-3.414,15.53,15.53,0,0,1,1.976-1.008,18.177,18.177,0,0,1,15.331.835,17.506,17.506,0,0,1,2.292,1.438,16.6,16.6,0,0,1,2.589,2.372,15.935,15.935,0,0,1,1.561,2.1A16.2,16.2,0,0,1,880.243,353.851Z" transform="translate(-819.934 -336.128)" fill="none" stroke="#012169" stroke-width="1"/>
    </g>
  </g>
</svg>
