<svg xmlns="http://www.w3.org/2000/svg" width="216" height="210" viewBox="0 0 216 210">
  <g id="Group_1722" data-name="Group 1722" transform="translate(-590 -3193)">
    <rect id="Rectangle_3174" data-name="Rectangle 3174" width="216" height="210" transform="translate(590 3193)" fill="none"/>
    <g id="Path_1554" data-name="Path 1554" transform="translate(613.51 3213.017)" fill="#fff">
      <path d="M 84.48914337158203 168.9658203125 C 78.82424926757812 168.9658203125 73.16318511962891 168.391845703125 67.66323089599609 167.2597961425781 C 62.30351257324219 166.1566314697266 57.03149032592773 164.5105438232422 51.99364471435547 162.3672637939453 C 47.04692459106445 160.2627410888672 42.27568817138672 157.6578674316406 37.8125114440918 154.6249694824219 C 33.39136123657227 151.6206512451172 29.23386001586914 148.1703186035156 25.45546913146973 144.369873046875 C 21.6769905090332 140.5693054199219 18.24657821655273 136.3873291015625 15.25955677032471 131.9401092529297 C 12.24399089813232 127.4503631591797 9.653947830200195 122.6507110595703 7.561404228210449 117.6744537353516 C 5.430208683013916 112.6063232421875 3.793404340744019 107.3025817871094 2.696447610855103 101.9105606079102 C 1.570773839950562 96.37736511230469 1.000012993812561 90.68208312988281 1.000012993812561 84.98291015625 C 1.000012993812561 79.28373718261719 1.570773839950562 73.58845520019531 2.696447610855103 68.05525970458984 C 3.793404340744019 62.66323471069336 5.430208683013916 57.3594970703125 7.561404228210449 52.29136657714844 C 9.653947830200195 47.31510543823242 12.24399089813232 42.51545333862305 15.25955677032471 38.02571487426758 C 18.24657821655273 33.57849884033203 21.6769905090332 29.39651870727539 25.45546913146973 25.5959529876709 C 29.23386001586914 21.79549789428711 33.39136123657227 18.34517097473145 37.8125114440918 15.34084510803223 C 42.27568817138672 12.30795383453369 47.04692459106445 9.703083992004395 51.99364471435547 7.598562240600586 C 57.03149032592773 5.45527982711792 62.30351257324219 3.809192657470703 67.66323089599609 2.706018924713135 C 73.16318511962891 1.573975324630737 78.82424926757812 0.9999971389770508 84.48914337158203 0.9999971389770508 C 90.15403747558594 0.9999971389770508 95.81510162353516 1.573975324630737 101.315055847168 2.706018924713135 C 106.6747741699219 3.809192657470703 111.9467926025391 5.45527982711792 116.9846420288086 7.598562240600586 C 121.9313812255859 9.703083992004395 126.7025985717773 12.30795383453369 131.165771484375 15.34084510803223 C 135.5869293212891 18.34517097473145 139.7444458007812 21.79549789428711 143.5228424072266 25.5959529876709 C 147.3013153076172 29.39651870727539 150.7317047119141 33.57849884033203 153.71875 38.02573776245117 C 156.7343139648438 42.51545333862305 159.3243560791016 47.31510543823242 161.4169006347656 52.29136657714844 C 163.548095703125 57.3594970703125 165.1849060058594 62.66323471069336 166.2818450927734 68.05525970458984 C 167.4075317382812 73.58845520019531 167.9783020019531 79.28373718261719 167.9783020019531 84.98291015625 C 167.9783020019531 90.68208312988281 167.4075317382812 96.37736511230469 166.2818450927734 101.9105606079102 C 165.1849060058594 107.3025817871094 163.548095703125 112.6063232421875 161.4169006347656 117.6744537353516 C 159.3243560791016 122.6507110595703 156.7343139648438 127.4503631591797 153.71875 131.9400787353516 C 150.7317047119141 136.3873291015625 147.3013153076172 140.5693054199219 143.5228424072266 144.369873046875 C 139.7444458007812 148.1703186035156 135.5869293212891 151.6206512451172 131.165771484375 154.6249694824219 C 126.7025985717773 157.6578674316406 121.9313812255859 160.2627410888672 116.9846420288086 162.3672637939453 C 111.9467926025391 164.5105438232422 106.6747741699219 166.1566314697266 101.315055847168 167.2597961425781 C 95.81510162353516 168.391845703125 90.15403747558594 168.9658203125 84.48914337158203 168.9658203125 Z" stroke="none"/>
      <path d="M 84.48914337158203 2 C 78.89182281494141 2 73.29859924316406 2.567092895507812 67.86482238769531 3.68548583984375 C 62.57007598876953 4.7752685546875 57.3619384765625 6.40142822265625 52.38512420654297 8.518753051757812 C 47.49800872802734 10.59791564941406 42.78416442871094 13.17147827148438 38.37455749511719 16.16795349121094 C 34.006103515625 19.136474609375 29.89810180664062 22.54573059082031 26.16462707519531 26.30099487304688 C 22.43095397949219 30.05647277832031 19.041259765625 34.1888427734375 16.08969116210938 38.58329772949219 C 13.11000061035156 43.01959228515625 10.55079650878906 47.76206970214844 8.48321533203125 52.67897796630859 C 6.377487182617188 57.68656921386719 4.760238647460938 62.92695617675781 3.676376342773438 68.25459289550781 C 2.56402587890625 73.72234344482422 2 79.35054779052734 2 84.98291015625 C 2 90.61527252197266 2.56402587890625 96.24347686767578 3.676376342773438 101.7112274169922 C 4.760238647460938 107.0388641357422 6.377487182617188 112.2792510986328 8.48321533203125 117.2868423461914 C 10.55079650878906 122.2037506103516 13.11000061035156 126.9462280273438 16.08969116210938 131.3825225830078 C 19.041259765625 135.7769775390625 22.43095397949219 139.9093475341797 26.16462707519531 143.6648254394531 C 29.89810180664062 147.4200897216797 34.006103515625 150.829345703125 38.37455749511719 153.7978668212891 C 42.78416442871094 156.7943420410156 47.49800872802734 159.3679046630859 52.38512420654297 161.4470672607422 C 57.3619384765625 163.5643920898438 62.57007598876953 165.1905517578125 67.86482238769531 166.2803344726562 C 73.29859924316406 167.3987274169922 78.89182281494141 167.9658203125 84.48914337158203 167.9658203125 C 90.08646392822266 167.9658203125 95.6796875 167.3987579345703 101.1134414672852 166.2803344726562 C 106.4082107543945 165.1905517578125 111.616325378418 163.5643920898438 116.5931701660156 161.4470672607422 C 121.4802780151367 159.3679046630859 126.1941223144531 156.7943420410156 130.6037139892578 153.7978668212891 C 134.97216796875 150.829345703125 139.0801849365234 147.4200897216797 142.8136444091797 143.6648254394531 C 146.5473327636719 139.9093475341797 149.93701171875 135.7769775390625 152.8885955810547 131.3825225830078 C 155.8682861328125 126.9462280273438 158.4274597167969 122.2037506103516 160.4950714111328 117.2868423461914 C 162.6007995605469 112.2792510986328 164.2180480957031 107.0388641357422 165.3019104003906 101.7112274169922 C 166.4142608642578 96.24347686767578 166.9782867431641 90.61527252197266 166.9782867431641 84.98291015625 C 166.9782867431641 79.35054779052734 166.4142608642578 73.72234344482422 165.3019104003906 68.25459289550781 C 164.2180480957031 62.92695617675781 162.6007995605469 57.68656921386719 160.4950714111328 52.67897796630859 C 158.4274597167969 47.76206970214844 155.8682861328125 43.01959228515625 152.8885955810547 38.58329772949219 C 149.93701171875 34.1888427734375 146.5473327636719 30.05647277832031 142.8136444091797 26.30099487304688 C 139.0801849365234 22.54573059082031 134.97216796875 19.136474609375 130.6037139892578 16.16795349121094 C 126.1941223144531 13.17147827148438 121.4802780151367 10.59791564941406 116.5931701660156 8.518753051757812 C 111.616325378418 6.40142822265625 106.4082107543945 4.7752685546875 101.1134414672852 3.68548583984375 C 95.6796875 2.567062377929688 90.08646392822266 2 84.48914337158203 2 M 84.48914337158203 0 C 131.1511840820312 0 168.9782867431641 38.04814147949219 168.9782867431641 84.98291015625 C 168.9782867431641 131.9176788330078 131.1511840820312 169.9658203125 84.48914337158203 169.9658203125 C 37.82707214355469 169.9658203125 0 131.9176788330078 0 84.98291015625 C 0 38.04814147949219 37.82707214355469 0 84.48914337158203 0 Z" stroke="none" fill="#fec51d"/>
    </g>
    <g id="Group_1726" data-name="Group 1726" transform="translate(631.982 3232.207)">
      <g id="Group_1626" data-name="Group 1626" transform="translate(26.176 45.485)">
        <path id="Path_1354" data-name="Path 1354" d="M.828.495V-1.433H3.271a14.287,14.287,0,0,1-.826-4.233,7.1,7.1,0,0,1,2.22-5.042A7.342,7.342,0,0,1,10.154-13a7.37,7.37,0,0,1,5.575,2.357,8.115,8.115,0,0,1,2.306,5.592H13.32a3.28,3.28,0,0,0-.912-2.34,2.98,2.98,0,0,0-2.254-.964,2.932,2.932,0,0,0-2.168.826A3.023,3.023,0,0,0,7.16-5.287a11.85,11.85,0,0,0,.964,3.854h5.885V.495H8.778A10.132,10.132,0,0,1,9.363,3.9a6.559,6.559,0,0,1-.929,3.3h9.6v4.646H.828V7.205H3.891a6.746,6.746,0,0,0,.792-3.166A13.59,13.59,0,0,0,3.96.495Zm36.72,6.711v4.646H20.892V10.234A8.859,8.859,0,0,1,21.1,8.307a9.885,9.885,0,0,1,.5-1.635,6.493,6.493,0,0,1,.878-1.463q.585-.757,1-1.239A10.2,10.2,0,0,1,24.729,2.8q.843-.688,1.291-1.015t1.411-1q.964-.671,1.342-.946,3.854-2.684,3.854-5.025a3.144,3.144,0,0,0-.86-2.271,3.139,3.139,0,0,0-2.375-.895,3.752,3.752,0,0,0-2.667.981A3.12,3.12,0,0,0,25.71-4.909H20.961a7.6,7.6,0,0,1,2.426-5.833A8.626,8.626,0,0,1,29.5-13a8.163,8.163,0,0,1,5.558,2,6.965,6.965,0,0,1,2.289,5.541,8.46,8.46,0,0,1-1.256,4.8,15.863,15.863,0,0,1-3.906,3.8q-.241.172-1.239.843t-1.514,1.05a11.192,11.192,0,0,0-1.153,1,3.37,3.37,0,0,0-.843,1.17ZM50.075,12.23A8.6,8.6,0,0,1,43.5,9.511a9.763,9.763,0,0,1-2.547-6.952V-3.36A9.717,9.717,0,0,1,43.5-10.277,8.6,8.6,0,0,1,50.075-13a8.56,8.56,0,0,1,6.539,2.719A9.717,9.717,0,0,1,59.161-3.36V2.559a9.763,9.763,0,0,1-2.547,6.952A8.56,8.56,0,0,1,50.075,12.23Zm-3.2-5.988a4.091,4.091,0,0,0,3.2,1.342,4.038,4.038,0,0,0,3.183-1.342,5.363,5.363,0,0,0,1.187-3.682V-3.36a5.3,5.3,0,0,0-1.187-3.665A4.063,4.063,0,0,0,50.075-8.35a4.116,4.116,0,0,0-3.2,1.325,5.248,5.248,0,0,0-1.2,3.665V2.559A5.313,5.313,0,0,0,46.875,6.242ZM71.791,12.23a8.6,8.6,0,0,1-6.573-2.719,9.763,9.763,0,0,1-2.547-6.952V-3.36a9.717,9.717,0,0,1,2.547-6.917A8.6,8.6,0,0,1,71.791-13a8.56,8.56,0,0,1,6.539,2.719A9.717,9.717,0,0,1,80.876-3.36V2.559A9.763,9.763,0,0,1,78.33,9.511,8.56,8.56,0,0,1,71.791,12.23Zm-3.2-5.988a4.091,4.091,0,0,0,3.2,1.342,4.038,4.038,0,0,0,3.183-1.342,5.363,5.363,0,0,0,1.187-3.682V-3.36a5.3,5.3,0,0,0-1.187-3.665A4.063,4.063,0,0,0,71.791-8.35a4.116,4.116,0,0,0-3.2,1.325,5.248,5.248,0,0,0-1.2,3.665V2.559A5.313,5.313,0,0,0,68.59,6.242Z" transform="translate(-0.828 12.996)" fill="#fec51d"/>
      </g>
      <path id="Subtraction_11" data-name="Subtraction 11" d="M8.109,94.339A3.079,3.079,0,0,1,5.5,92.652,65.774,65.774,0,0,1,1.424,79.913a66.775,66.775,0,0,1-.077-27.06,65.855,65.855,0,0,1,9.959-23.666A66.188,66.188,0,0,1,110.282,16.81a59.441,59.441,0,0,1-.588-8.186,1.744,1.744,0,0,1,1.826-1.19,1.467,1.467,0,0,1,1.549.987l4.174,17.525a1.925,1.925,0,0,1-1.862,2.367,1.985,1.985,0,0,1-.45-.055L97.406,24.083a1.755,1.755,0,0,1-1.1-1.87c.015-.643.266-1.335.793-1.435a13.307,13.307,0,0,1,1.616-.053c1.529,0,4.084.05,7.592.15A60.612,60.612,0,0,0,89.1,10.145,60.54,60.54,0,0,0,5.655,66.194,60.853,60.853,0,0,0,7.006,78.958,60.244,60.244,0,0,0,10.88,90.795c-.006,0-.01.008-.012.008a2.559,2.559,0,0,1,.109,1.9,2.65,2.65,0,0,1-1.748,1.432A3.446,3.446,0,0,1,8.109,94.339Z" transform="translate(0 0)" fill="#fec51d"/>
      <g id="Group_1627" data-name="Group 1627" transform="translate(7.292 37.699)">
        <path id="Subtraction_8" data-name="Subtraction 8" d="M47.989,94.7a66.888,66.888,0,0,1-13.77-1.431A66.292,66.292,0,0,1,0,74.1l5.948-2.068A60.477,60.477,0,0,0,24.94,84.483a59.962,59.962,0,0,0,23.049,4.561A60.514,60.514,0,0,0,103.123,3.472a.035.035,0,0,0,.012,0,2.722,2.722,0,0,1,.057-2A2.748,2.748,0,0,1,105.067.133,3.765,3.765,0,0,1,106.008,0,2.817,2.817,0,0,1,108.5,1.6c.117.264.207.472.3.693.007.02.012.038.017.053l0,.006a.215.215,0,0,0,.01.031l.016.016a65.862,65.862,0,0,1,3.964,12.575,66.107,66.107,0,0,1-9.924,50.536A67.093,67.093,0,0,1,94.8,75.307,66.61,66.61,0,0,1,85,83.389a65.958,65.958,0,0,1-11.247,6.1,65.359,65.359,0,0,1-12.423,3.86A66.609,66.609,0,0,1,47.989,94.7Z" transform="translate(10.918)" fill="#17494d"/>
        <path id="Path_1471" data-name="Path 1471" d="M9.612.913a1.919,1.919,0,0,1,3.268,0l9.442,15.343c.787,1.278-1.227,3.162-2.12,2.552s-9.491-9.82-9.491-9.82S3.884,17.668,2.7,18.5-.617,17.535.17,16.257Z" transform="matrix(0.643, -0.766, 0.766, 0.643, 0, 76.077)" fill="#17494d"/>
      </g>
      <path id="Path_1545" data-name="Path 1545" d="M-47.289-2.263v-6.7h-2.173v-1.825h6.292v1.825h-2.2v6.7Zm4.233,0v-6h1.813v.9a1.424,1.424,0,0,1,.54-.69,1.5,1.5,0,0,1,.889-.282,2.323,2.323,0,0,1,.588.072v1.837a2.479,2.479,0,0,0-.8-.144,1.075,1.075,0,0,0-.895.4,1.664,1.664,0,0,0-.318,1.063v2.846Zm7.042.132a2.531,2.531,0,0,1-1.975-.925,3.239,3.239,0,0,1-.81-2.209,3.239,3.239,0,0,1,.81-2.209A2.531,2.531,0,0,1-36.014-8.4a2,2,0,0,1,1.633.732v-.6h1.813v6h-1.813v-.6A2,2,0,0,1-36.014-2.131ZM-36.6-4.2a1.288,1.288,0,0,0,1,.42,1.27,1.27,0,0,0,.991-.42,1.537,1.537,0,0,0,.378-1.069,1.537,1.537,0,0,0-.378-1.069,1.27,1.27,0,0,0-.991-.42,1.27,1.27,0,0,0-.991.42,1.537,1.537,0,0,0-.378,1.069A1.552,1.552,0,0,0-36.6-4.2Zm7.943,2.065a2.531,2.531,0,0,1-1.975-.925,3.239,3.239,0,0,1-.81-2.209,3.239,3.239,0,0,1,.81-2.209A2.531,2.531,0,0,1-28.66-8.4a2,2,0,0,1,1.633.732v-3.6h1.813v9.005h-1.813v-.6A2,2,0,0,1-28.66-2.131ZM-29.248-4.2a1.288,1.288,0,0,0,1,.42,1.27,1.27,0,0,0,.991-.42,1.537,1.537,0,0,0,.378-1.069,1.537,1.537,0,0,0-.378-1.069,1.27,1.27,0,0,0-.991-.42,1.27,1.27,0,0,0-.991.42,1.537,1.537,0,0,0-.378,1.069A1.552,1.552,0,0,0-29.248-4.2Zm8.339,2.065A3.109,3.109,0,0,1-23.2-3.019a3.047,3.047,0,0,1-.895-2.257,3,3,0,0,1,.907-2.233A3.119,3.119,0,0,1-20.909-8.4a3.376,3.376,0,0,1,1.243.228,3.12,3.12,0,0,1,1.033.66,2.915,2.915,0,0,1,.7,1.117A4.122,4.122,0,0,1-17.7-4.844h-4.623a1.2,1.2,0,0,0,.432.822,1.608,1.608,0,0,0,1.081.33,1.588,1.588,0,0,0,.72-.162.872.872,0,0,0,.432-.4h1.9a2.809,2.809,0,0,1-1.153,1.537A3.458,3.458,0,0,1-20.909-2.131Zm-.048-4.827a1.363,1.363,0,0,0-.859.264,1.291,1.291,0,0,0-.462.7h2.57a1.2,1.2,0,0,0-.486-.726A1.357,1.357,0,0,0-20.957-6.957Zm7.228,4.695v-8.525h1.909v8.525Zm3.4,0v-6h1.813v.612A1.887,1.887,0,0,1-6.843-8.4a2.119,2.119,0,0,1,1.711.732,2.9,2.9,0,0,1,.618,1.933v3.47H-6.327V-5.42q0-1.333-.973-1.333a1.1,1.1,0,0,0-.877.4A1.779,1.779,0,0,0-8.512-5.18v2.918ZM1.91-4.724a2.368,2.368,0,0,0,1.765.756,2.33,2.33,0,0,0,1.753-.756,2.522,2.522,0,0,0,.72-1.8,2.522,2.522,0,0,0-.72-1.8,2.33,2.33,0,0,0-1.753-.756,2.349,2.349,0,0,0-1.759.756,2.511,2.511,0,0,0-.726,1.8A2.522,2.522,0,0,0,1.91-4.724ZM6.785-3.415a4.216,4.216,0,0,1-3.11,1.3A4.246,4.246,0,0,1,.559-3.409,4.246,4.246,0,0,1-.731-6.525,4.246,4.246,0,0,1,.559-9.641a4.246,4.246,0,0,1,3.116-1.291,4.236,4.236,0,0,1,3.116,1.3,4.252,4.252,0,0,1,1.291,3.11A4.242,4.242,0,0,1,6.785-3.415ZM9.913-2.263V-6.693h-1.2V-8.266h1.2v-.8a2.1,2.1,0,0,1,.678-1.687,2.569,2.569,0,0,1,1.735-.582,3.756,3.756,0,0,1,1.081.132v1.6a1.2,1.2,0,0,0-.648-.1,1.11,1.11,0,0,0-.792.234,1.049,1.049,0,0,0-.24.774v.432H13v1.573H11.726v4.431Zm4.6,0V-6.693h-.949V-8.266h.949v-.8a2.1,2.1,0,0,1,.678-1.687,2.569,2.569,0,0,1,1.735-.582,3.756,3.756,0,0,1,1.081.132v1.6a1.714,1.714,0,0,0-.66-.1,1.09,1.09,0,0,0-.78.234,1.049,1.049,0,0,0-.24.774v.432h1.681v1.573H16.325v4.431Zm7.054.132a3.109,3.109,0,0,1-2.287-.889,3.047,3.047,0,0,1-.895-2.257,3,3,0,0,1,.907-2.233A3.119,3.119,0,0,1,21.566-8.4a3.376,3.376,0,0,1,1.243.228,3.12,3.12,0,0,1,1.033.66,2.915,2.915,0,0,1,.7,1.117,4.122,4.122,0,0,1,.228,1.549H20.149a1.2,1.2,0,0,0,.432.822,1.608,1.608,0,0,0,1.081.33,1.588,1.588,0,0,0,.72-.162.872.872,0,0,0,.432-.4h1.9a2.809,2.809,0,0,1-1.153,1.537A3.458,3.458,0,0,1,21.566-2.131Zm-.048-4.827a1.363,1.363,0,0,0-.859.264A1.291,1.291,0,0,0,20.2-6h2.57a1.2,1.2,0,0,0-.486-.726A1.357,1.357,0,0,0,21.518-6.957Zm4.377,4.695v-6h1.813v.9a1.424,1.424,0,0,1,.54-.69,1.5,1.5,0,0,1,.889-.282,2.323,2.323,0,0,1,.588.072v1.837a2.479,2.479,0,0,0-.8-.144,1.075,1.075,0,0,0-.895.4,1.664,1.664,0,0,0-.318,1.063v2.846Z" transform="translate(76.069 89.271)" fill="#17494d"/>
    </g>
  </g>
</svg>
