<svg xmlns="http://www.w3.org/2000/svg" width="78" height="78" viewBox="0 0 78 78">
  <g id="Group_1743" data-name="Group 1743" transform="translate(-653 -3238)">
    <rect id="Rectangle_3241" data-name="Rectangle 3241" width="78" height="78" transform="translate(653 3238)" fill="#fff"/>
    <g id="Group_1738" data-name="Group 1738" transform="translate(267.498 3102.303)">
      <rect id="Rectangle_3223" data-name="Rectangle 3223" width="25" height="21" transform="translate(411 171)" fill="#d7e1e2"/>
      <path id="Path_2060" data-name="Path 2060" d="M65.771,82.237v.051a3.42,3.42,0,0,1-1.61,2.9L49.073,94.593a4.778,4.778,0,0,1-2.532.726H24.05v-15.7a1.769,1.769,0,0,0,.754-.172L26,78.873a11.242,11.242,0,0,1,9.391-.182l1.8.782a1.748,1.748,0,0,0,.7.149h8.3a3.453,3.453,0,0,1,2.508,1.08,2.985,2.985,0,0,1,.074,4.016,3.672,3.672,0,0,1-1.247.926A3.732,3.732,0,0,1,46,85.97h2.024a1.683,1.683,0,0,0,.777-.191L61,79.5a3.367,3.367,0,0,1,3.048-.014l.042.023A3.049,3.049,0,0,1,65.771,82.237Z" transform="translate(383.945 106.138)" fill="#fff"/>
      <path id="Path_2060_-_Outline" data-name="Path 2060 - Outline" d="M30.888,76.752a12.171,12.171,0,0,1,4.9,1.023l1.8.781a.753.753,0,0,0,.3.066h8.3a4.471,4.471,0,0,1,3.235,1.392,3.984,3.984,0,0,1,.931,3.844l10.19-5.246a4.367,4.367,0,0,1,3.953-.019l.063.034a4.026,4.026,0,0,1,2.217,3.611v.051a4.449,4.449,0,0,1-2.081,3.748L49.6,95.442a5.764,5.764,0,0,1-3.061.877H23.05v-17.7h1a.767.767,0,0,0,.324-.075l1.185-.574A12.315,12.315,0,0,1,30.888,76.752Zm16.221,7.98a2.654,2.654,0,0,0,.9-.671,1.985,1.985,0,0,0-.048-2.673,2.462,2.462,0,0,0-1.781-.766h-8.3a2.738,2.738,0,0,1-1.1-.233l-1.795-.781a10.184,10.184,0,0,0-4.1-.856,10.3,10.3,0,0,0-4.458,1.021l-1.2.582q-.089.042-.18.077V94.319H46.542a3.768,3.768,0,0,0,2-.574l15.089-9.406a2.434,2.434,0,0,0,1.139-2.051v-.051A2.037,2.037,0,0,0,63.639,80.4l-.06-.032a2.366,2.366,0,0,0-2.127.018L49.261,86.668a2.7,2.7,0,0,1-1.235.3H46v-2A2.712,2.712,0,0,0,47.109,84.732Z" transform="translate(383.945 106.138)" fill="#3a6469"/>
      <path id="Path_2053" data-name="Path 2053" d="M30.888,76.752a12.171,12.171,0,0,1,4.9,1.023l1.8.781a.753.753,0,0,0,.3.066h8.3a4.471,4.471,0,0,1,3.235,1.392,3.984,3.984,0,0,1,.931,3.844l10.19-5.246a4.367,4.367,0,0,1,3.953-.019l.063.034a4.026,4.026,0,0,1,2.217,3.611v.051a4.449,4.449,0,0,1-2.081,3.748L49.6,95.442a5.764,5.764,0,0,1-3.061.877H23.05v-17.7h1a.767.767,0,0,0,.324-.075l1.185-.574A12.315,12.315,0,0,1,30.888,76.752Zm16.221,7.98a2.654,2.654,0,0,0,.9-.671,1.985,1.985,0,0,0-.048-2.673,2.462,2.462,0,0,0-1.781-.766h-8.3a2.738,2.738,0,0,1-1.1-.233l-1.795-.781a10.184,10.184,0,0,0-4.1-.856,10.3,10.3,0,0,0-4.458,1.021l-1.2.582q-.089.042-.18.077V94.319H46.542a3.768,3.768,0,0,0,2-.574l15.089-9.406a2.434,2.434,0,0,0,1.139-2.051v-.051A2.037,2.037,0,0,0,63.639,80.4l-.06-.032a2.366,2.366,0,0,0-2.127.018L49.261,86.668a2.7,2.7,0,0,1-1.235.3H46v-2A2.712,2.712,0,0,0,47.109,84.732Z" transform="translate(383.945 106.138)" fill="#3a6469"/>
      <path id="Line_5" data-name="Line 5" d="M10.694,1H0V-1H10.694Z" transform="translate(397.301 201.456)" fill="#3a6469"/>
      <path id="Line_6" data-name="Line 6" d="M7.963,1H0V-1H7.963Z" transform="translate(421.984 192.106)" fill="#3a6469"/>
      <path id="Line_7" data-name="Line 7" d="M11.192,1H0V-1H11.192Z" transform="translate(396.805 185.759)" fill="#3a6469"/>
      <path id="Path_2054" data-name="Path 2054" d="M74.767,68.528h-2V50.14H64.18v-2h8.651a1.938,1.938,0,0,1,1.935,1.935Z" transform="translate(362.492 121.434)" fill="#3a6469"/>
      <path id="Path_2055" data-name="Path 2055" d="M31.73,62.952h-2V50.075a1.938,1.938,0,0,1,1.935-1.935h9.168v2h-9.1Z" transform="translate(380.375 121.434)" fill="#3a6469"/>
      <path id="Path_2056" data-name="Path 2056" d="M57.9,49.14v4.533a.928.928,0,0,1-.931.931h-3.6a.931.931,0,0,1-.931-.931V49.14Z" transform="translate(368.766 121.434)" fill="#fff"/>
      <path id="Path_2056_-_Outline" data-name="Path 2056 - Outline" d="M51.44,48.14H58.9v5.533A1.933,1.933,0,0,1,56.973,55.6h-3.6a1.933,1.933,0,0,1-1.931-1.931Zm5.464,2H53.44V53.6H56.9Z" transform="translate(368.766 121.434)" fill="#3a6469"/>
      <path id="Path_2057" data-name="Path 2057" d="M65.368,37.55H60.641v-2h4.727a3.014,3.014,0,1,0,0-6.027H45.38a6.751,6.751,0,1,1,0-13.5h7.843v2H45.38a4.751,4.751,0,1,0,0,9.5H65.368a5.014,5.014,0,1,1,0,10.027Z" transform="translate(375.617 138.605)" fill="#3a6469"/>
      <path id="Path_2058" data-name="Path 2058" d="M84.567.5H66.617a1.973,1.973,0,0,0-1.736.81L59.86,8.188l5.007,6.878c.572.633,1.033,1.224,1.75,1.224h17.95a1.3,1.3,0,0,0,1.3-1.3V1.8A1.3,1.3,0,0,0,84.567.5ZM66.426,10.762A2.364,2.364,0,1,1,68.791,8.4,2.367,2.367,0,0,1,66.426,10.762Z" transform="translate(364.801 147.438)" fill="#d7e1e2"/>
      <path id="Path_2058_-_Outline" data-name="Path 2058 - Outline" d="M66.617-.5h17.95a2.3,2.3,0,0,1,2.3,2.3V14.992a2.3,2.3,0,0,1-2.3,2.3H66.617A3.163,3.163,0,0,1,64.268,15.9l-.142-.159L64.09,15.7,58.622,8.187,64.1.681l.032-.036A2.953,2.953,0,0,1,66.617-.5Zm17.95,15.79a.3.3,0,0,0,.3-.3V1.8a.3.3,0,0,0-.3-.3H66.617a.989.989,0,0,0-.958.44L61.1,8.189l4.548,6.246.114.127c.335.374.651.728.858.728ZM66.426,5.033A3.364,3.364,0,1,1,63.062,8.4,3.368,3.368,0,0,1,66.426,5.033Zm0,4.728A1.364,1.364,0,1,0,65.062,8.4,1.366,1.366,0,0,0,66.426,9.762Z" transform="translate(364.801 147.438)" fill="#3a6469"/>
      <path id="Ellipse_549" data-name="Ellipse 549" d="M2.364-1A3.364,3.364,0,1,1-1,2.364,3.368,3.368,0,0,1,2.364-1Zm0,4.728A1.364,1.364,0,1,0,1,2.364,1.366,1.366,0,0,0,2.364,3.728Z" transform="translate(428.863 153.471)" fill="#3a6469"/>
      <path id="Ellipse_550" data-name="Ellipse 550" d="M2.364-1A3.364,3.364,0,1,1-1,2.364,3.368,3.368,0,0,1,2.364-1Zm0,4.728A1.364,1.364,0,1,0,1,2.364,1.366,1.366,0,0,0,2.364,3.728Z" transform="translate(428.863 153.471)" fill="#3a6469"/>
      <path id="Path_2059" data-name="Path 2059" d="M13.724,100.052a2.364,2.364,0,1,1-2.365-2.365A2.365,2.365,0,0,1,13.724,100.052Z" transform="translate(391.041 95.479)" fill="#d7e1e2"/>
      <path id="Path_2059_-_Outline" data-name="Path 2059 - Outline" d="M11.359,96.687A3.365,3.365,0,1,1,8,100.052,3.368,3.368,0,0,1,11.359,96.687Zm0,4.729A1.365,1.365,0,1,0,10,100.052,1.366,1.366,0,0,0,11.359,101.416Z" transform="translate(391.041 95.479)" fill="#3a6469"/>
      <text id="_" data-name="£" transform="translate(442 160)" fill="#3a6469" font-size="11" font-family="EuclidCircularA-SemiBold, Euclid Circular A" font-weight="600"><tspan x="-3.234" y="0">£</tspan></text>
    </g>
  </g>
</svg>
