<svg xmlns="http://www.w3.org/2000/svg" width="137" height="137" viewBox="0 0 137 137">
  <g id="Group_1707" data-name="Group 1707" transform="translate(-13784 -15838)">
    <rect id="Rectangle_3165" data-name="Rectangle 3165" width="137" height="137" transform="translate(13784 15838)" fill="none"/>
    <g id="Group_1704" data-name="Group 1704" transform="translate(13574.729 12587.144)">
      <g id="Group_1626" data-name="Group 1626" transform="translate(237.496 3298.825)">
        <path id="Path_1354" data-name="Path 1354" d="M.828.505V-1.424H3.273A14.3,14.3,0,0,1,2.447-5.66a7.11,7.11,0,0,1,2.221-5.046A7.348,7.348,0,0,1,10.162-13a7.376,7.376,0,0,1,5.58,2.359,8.121,8.121,0,0,1,2.308,5.6H13.33a3.282,3.282,0,0,0-.913-2.342,2.982,2.982,0,0,0-2.256-.964,2.934,2.934,0,0,0-2.17.827,3.025,3.025,0,0,0-.827,2.239A11.859,11.859,0,0,0,8.13-1.424h5.89V.505H8.784a10.14,10.14,0,0,1,.586,3.41,6.564,6.564,0,0,1-.93,3.306h9.609v4.65H.828V7.221H3.893a6.751,6.751,0,0,0,.792-3.169A13.6,13.6,0,0,0,3.962.505ZM37.577,7.221v4.65H20.907V10.252a8.866,8.866,0,0,1,.207-1.929,9.892,9.892,0,0,1,.5-1.636,6.5,6.5,0,0,1,.878-1.464q.586-.758,1-1.24a10.212,10.212,0,0,1,1.257-1.171q.844-.689,1.292-1.016t1.412-1q.964-.672,1.343-.947,3.857-2.686,3.857-5.029a3.146,3.146,0,0,0-.861-2.273,3.142,3.142,0,0,0-2.376-.9,3.755,3.755,0,0,0-2.669.982A3.122,3.122,0,0,0,25.729-4.9H20.976A7.606,7.606,0,0,1,23.4-10.74,8.632,8.632,0,0,1,29.518-13a8.169,8.169,0,0,1,5.562,2,6.97,6.97,0,0,1,2.29,5.545,8.467,8.467,0,0,1-1.257,4.8A15.876,15.876,0,0,1,32.2,3.157q-.241.172-1.24.844t-1.515,1.05a11.2,11.2,0,0,0-1.154,1,3.372,3.372,0,0,0-.844,1.171ZM50.114,12.25a8.607,8.607,0,0,1-6.578-2.721,9.771,9.771,0,0,1-2.549-6.957V-3.352a9.725,9.725,0,0,1,2.549-6.923A8.607,8.607,0,0,1,50.114-13a8.566,8.566,0,0,1,6.544,2.721,9.725,9.725,0,0,1,2.549,6.923V2.572a9.771,9.771,0,0,1-2.549,6.957A8.566,8.566,0,0,1,50.114,12.25Zm-3.2-5.993a4.094,4.094,0,0,0,3.2,1.343A4.041,4.041,0,0,0,53.3,6.257a5.367,5.367,0,0,0,1.188-3.685V-3.352A5.3,5.3,0,0,0,53.3-7.02a4.066,4.066,0,0,0-3.186-1.326,4.119,4.119,0,0,0-3.2,1.326,5.252,5.252,0,0,0-1.205,3.668V2.572A5.318,5.318,0,0,0,46.911,6.257ZM71.847,12.25a8.607,8.607,0,0,1-6.578-2.721A9.771,9.771,0,0,1,62.72,2.572V-3.352a9.725,9.725,0,0,1,2.549-6.923A8.607,8.607,0,0,1,71.847-13a8.566,8.566,0,0,1,6.544,2.721,9.724,9.724,0,0,1,2.549,6.923V2.572a9.771,9.771,0,0,1-2.549,6.957A8.566,8.566,0,0,1,71.847,12.25Zm-3.2-5.993a4.094,4.094,0,0,0,3.2,1.343,4.041,4.041,0,0,0,3.186-1.343,5.367,5.367,0,0,0,1.188-3.685V-3.352A5.3,5.3,0,0,0,75.033-7.02a4.066,4.066,0,0,0-3.186-1.326,4.119,4.119,0,0,0-3.2,1.326,5.252,5.252,0,0,0-1.205,3.668V2.572A5.318,5.318,0,0,0,68.644,6.257Z" transform="translate(-0.828 12.996)" fill="#fec51d"/>
      </g>
      <path id="Subtraction_11" data-name="Subtraction 11" d="M8.116,94.414a3.081,3.081,0,0,1-2.61-1.688,65.826,65.826,0,0,1-4.08-12.749A66.828,66.828,0,0,1,1.348,52.9a65.907,65.907,0,0,1,9.967-23.684,66.24,66.24,0,0,1,99.054-12.387,59.49,59.49,0,0,1-.589-8.193,1.745,1.745,0,0,1,1.827-1.191,1.469,1.469,0,0,1,1.55.987l4.177,17.538a1.927,1.927,0,0,1-1.864,2.369,1.987,1.987,0,0,1-.45-.055L97.483,24.1a1.757,1.757,0,0,1-1.1-1.871c.015-.643.266-1.336.794-1.436a13.317,13.317,0,0,1,1.617-.053c1.53,0,4.087.05,7.6.15A60.66,60.66,0,0,0,89.169,10.153,60.588,60.588,0,0,0,5.659,66.246,60.9,60.9,0,0,0,7.011,79.02a60.292,60.292,0,0,0,3.877,11.846c-.006,0-.01.008-.012.008a2.561,2.561,0,0,1,.109,1.9,2.652,2.652,0,0,1-1.75,1.433A3.448,3.448,0,0,1,8.116,94.414Z" transform="translate(211.3 3253.304)" fill="#fec51d"/>
      <g id="Group_1627" data-name="Group 1627" transform="translate(218.598 3291.033)">
        <path id="Subtraction_8" data-name="Subtraction 8" d="M48.027,94.77a66.94,66.94,0,0,1-13.781-1.432A66.344,66.344,0,0,1,0,74.154l5.953-2.07A60.525,60.525,0,0,0,24.96,84.55a60.009,60.009,0,0,0,23.067,4.564A60.562,60.562,0,0,0,103.2,3.475a.036.036,0,0,0,.012,0,2.724,2.724,0,0,1,.057-2A2.75,2.75,0,0,1,105.15.133,3.768,3.768,0,0,1,106.092,0a2.819,2.819,0,0,1,2.493,1.6c.117.264.208.473.3.693.007.02.012.038.017.053l0,.006a.217.217,0,0,0,.01.031l.016.016A65.914,65.914,0,0,1,112.9,14.988a66.159,66.159,0,0,1-9.932,50.576,67.145,67.145,0,0,1-8.092,9.8,66.664,66.664,0,0,1-9.8,8.088A66.01,66.01,0,0,1,73.815,89.56a65.411,65.411,0,0,1-12.433,3.863A66.662,66.662,0,0,1,48.027,94.77Z" transform="translate(10.927)" fill="#17494d"/>
        <path id="Path_1471" data-name="Path 1471" d="M9.619.914a1.92,1.92,0,0,1,3.271,0l9.45,15.355c.787,1.279-1.228,3.164-2.122,2.554S10.72,9,10.72,9,3.887,17.682,2.7,18.513-.617,17.549.17,16.269Z" transform="matrix(0.643, -0.766, 0.766, 0.643, 0, 76.137)" fill="#17494d"/>
      </g>
      <path id="Path_1486" data-name="Path 1486" d="M-47.287-2.255V-8.961h-2.175v-1.827h6.3v1.827h-2.2v6.705Zm4.236,0V-8.264h1.815v.9a1.425,1.425,0,0,1,.541-.691,1.5,1.5,0,0,1,.889-.282,2.325,2.325,0,0,1,.589.072v1.839a2.481,2.481,0,0,0-.805-.144,1.076,1.076,0,0,0-.9.4A1.665,1.665,0,0,0-41.237-5.1v2.848ZM-36-2.123a2.533,2.533,0,0,1-1.977-.925,3.242,3.242,0,0,1-.811-2.211,3.242,3.242,0,0,1,.811-2.211A2.533,2.533,0,0,1-36-8.4a2,2,0,0,1,1.634.733v-.6h1.815v6.008H-34.37v-.6A2,2,0,0,1-36-2.123Zm-.589-2.067a1.289,1.289,0,0,0,1,.421A1.271,1.271,0,0,0-34.6-4.19a1.538,1.538,0,0,0,.379-1.069A1.538,1.538,0,0,0-34.6-6.329,1.271,1.271,0,0,0-35.6-6.75a1.271,1.271,0,0,0-.991.421,1.538,1.538,0,0,0-.379,1.069A1.553,1.553,0,0,0-36.593-4.19Zm7.949,2.067a2.533,2.533,0,0,1-1.977-.925,3.242,3.242,0,0,1-.811-2.211,3.242,3.242,0,0,1,.811-2.211A2.533,2.533,0,0,1-28.644-8.4a2,2,0,0,1,1.634.733v-3.6h1.815v9.012h-1.815v-.6A2,2,0,0,1-28.644-2.123Zm-.589-2.067a1.289,1.289,0,0,0,1,.421,1.271,1.271,0,0,0,.991-.421,1.538,1.538,0,0,0,.379-1.069,1.538,1.538,0,0,0-.379-1.069,1.271,1.271,0,0,0-.991-.421,1.271,1.271,0,0,0-.991.421A1.538,1.538,0,0,0-29.6-5.26,1.553,1.553,0,0,0-29.232-4.19Zm8.346,2.067a3.111,3.111,0,0,1-2.289-.889,3.05,3.05,0,0,1-.9-2.259,3,3,0,0,1,.907-2.235A3.122,3.122,0,0,1-20.887-8.4a3.379,3.379,0,0,1,1.244.228,3.123,3.123,0,0,1,1.033.661,2.917,2.917,0,0,1,.7,1.118,4.126,4.126,0,0,1,.228,1.55H-22.3a1.2,1.2,0,0,0,.433.823,1.609,1.609,0,0,0,1.082.33,1.589,1.589,0,0,0,.721-.162.873.873,0,0,0,.433-.4h1.9a2.811,2.811,0,0,1-1.154,1.538A3.46,3.46,0,0,1-20.887-2.123Zm-.048-4.831a1.364,1.364,0,0,0-.859.264,1.292,1.292,0,0,0-.463.7h2.572a1.2,1.2,0,0,0-.487-.727A1.358,1.358,0,0,0-20.935-6.954Zm7.234,4.7v-8.532h1.911v8.532Zm3.407,0V-8.264H-8.48v.613A1.888,1.888,0,0,1-6.809-8.4,2.12,2.12,0,0,1-5.1-7.663a2.9,2.9,0,0,1,.619,1.935v3.473H-6.293v-3.16q0-1.334-.973-1.334a1.1,1.1,0,0,0-.877.4A1.78,1.78,0,0,0-8.48-5.175v2.92ZM1.951-4.719a2.37,2.37,0,0,0,1.766.757,2.332,2.332,0,0,0,1.754-.757,2.524,2.524,0,0,0,.721-1.8,2.524,2.524,0,0,0-.721-1.8,2.332,2.332,0,0,0-1.754-.757,2.351,2.351,0,0,0-1.76.757,2.513,2.513,0,0,0-.727,1.8A2.524,2.524,0,0,0,1.951-4.719ZM6.83-3.409a4.22,4.22,0,0,1-3.112,1.3A4.249,4.249,0,0,1,.6-3.4,4.249,4.249,0,0,1-.693-6.521,4.249,4.249,0,0,1,.6-9.64a4.249,4.249,0,0,1,3.118-1.292,4.239,4.239,0,0,1,3.118,1.3A4.255,4.255,0,0,1,8.127-6.521,4.245,4.245,0,0,1,6.83-3.409ZM9.96-2.255V-6.69h-1.2V-8.264h1.2v-.805a2.1,2.1,0,0,1,.679-1.688,2.571,2.571,0,0,1,1.736-.583,3.759,3.759,0,0,1,1.081.132v1.6a1.205,1.205,0,0,0-.649-.1,1.111,1.111,0,0,0-.793.234,1.05,1.05,0,0,0-.24.775v.433h1.274V-6.69H11.774v4.434Zm4.6,0V-6.69h-.949V-8.264h.949v-.805a2.1,2.1,0,0,1,.679-1.688,2.571,2.571,0,0,1,1.736-.583,3.759,3.759,0,0,1,1.081.132v1.6a1.715,1.715,0,0,0-.661-.1,1.091,1.091,0,0,0-.781.234,1.05,1.05,0,0,0-.24.775v.433h1.682V-6.69H16.377v4.434Zm7.06.132a3.111,3.111,0,0,1-2.289-.889,3.05,3.05,0,0,1-.9-2.259,3,3,0,0,1,.907-2.235A3.122,3.122,0,0,1,21.622-8.4a3.379,3.379,0,0,1,1.244.228,3.123,3.123,0,0,1,1.033.661,2.917,2.917,0,0,1,.7,1.118,4.126,4.126,0,0,1,.228,1.55H20.2a1.2,1.2,0,0,0,.433.823,1.609,1.609,0,0,0,1.081.33,1.589,1.589,0,0,0,.721-.162.873.873,0,0,0,.433-.4h1.9a2.811,2.811,0,0,1-1.154,1.538A3.46,3.46,0,0,1,21.622-2.123Zm-.048-4.831a1.364,1.364,0,0,0-.859.264,1.292,1.292,0,0,0-.463.7h2.572a1.2,1.2,0,0,0-.487-.727A1.358,1.358,0,0,0,21.574-6.954Zm4.38,4.7V-8.264h1.815v.9a1.425,1.425,0,0,1,.541-.691,1.5,1.5,0,0,1,.889-.282,2.325,2.325,0,0,1,.589.072v1.839a2.481,2.481,0,0,0-.805-.144,1.076,1.076,0,0,0-.9.4A1.665,1.665,0,0,0,27.769-5.1v2.848Z" transform="translate(287.389 3342.637)" fill="#17494d"/>
    </g>
  </g>
</svg>
