<svg xmlns="http://www.w3.org/2000/svg" width="78" height="78" viewBox="0 0 78 78">
  <g id="Group_2232" data-name="Group 2232" transform="translate(-2594.347 6608.463)">
    <rect id="Rectangle_3241" data-name="Rectangle 3241" width="78" height="78" transform="translate(2594.347 -6608.463)" fill="#fff"/>
    <g id="Group_2231" data-name="Group 2231" transform="translate(2342.869 -6633.732)">
      <g id="Group_2183" data-name="Group 2183" transform="translate(271.847 59.336)">
        <path id="Path_47" data-name="Path 47" d="M0,0H12.751V29.867L6.475,23.593,0,29.867Z" transform="translate(9.079 1.035) rotate(15.009)" fill="#ffd3d4"/>
        <path id="Path_47-2" data-name="Path 47" d="M0,0H14.441V32.752l-7.13-7.128L0,32.708ZM12.751,1.691H1.691V28.716L7.33,23.253l5.421,5.419Z" transform="translate(8.482 0) rotate(15.009)" fill="#a82024"/>
      </g>
      <g id="Group_2184" data-name="Group 2184" transform="translate(271.847 59.336)">
        <path id="Path_47-3" data-name="Path 47" d="M0,0H12.751V29.867L6.475,23.593,0,29.867Z" transform="translate(9.079 1.035) rotate(15.009)" fill="#ffd3d4"/>
        <path id="Path_47-4" data-name="Path 47" d="M0,0H14.441V32.752l-7.13-7.128L0,32.708ZM12.751,1.691H1.691V28.716L7.33,23.253l5.421,5.419Z" transform="translate(8.482 0) rotate(15.009)" fill="#a82024"/>
      </g>
      <g id="Group_2182" data-name="Group 2182" transform="translate(285.459 59.336)">
        <path id="Path_47-5" data-name="Path 47" d="M0,29.862H12.749V0L6.474,6.272,0,0Z" transform="translate(21.085 29.883) rotate(164.991)" fill="#ffd3d4"/>
        <path id="Path_47-6" data-name="Path 47" d="M.112,24.681H10.671L9.872,0,4.39,4.951,0,.415Z" transform="translate(17.736 25.416) rotate(164.991)" fill="#fff"/>
        <path id="Path_47-7" data-name="Path 47" d="M14.44,32.748H0V.044L7.31,7.127,14.44,0ZM1.691,31.057H12.749V4.081L7.329,9.5,1.691,4.036Z" transform="translate(22.431 31.635) rotate(164.991)" fill="#a82024"/>
      </g>
      <g id="Group_2185" data-name="Group 2185" transform="translate(285.459 59.336)">
        <path id="Path_47-8" data-name="Path 47" d="M0,29.862H12.749V0L6.474,6.272,0,0Z" transform="translate(21.085 29.883) rotate(164.991)" fill="#fff"/>
        <path id="Path_47-9" data-name="Path 47" d="M.112,24.681H10.671L9.872,0,4.39,4.951,0,.415Z" transform="translate(17.736 25.416) rotate(164.991)" fill="#fff"/>
        <path id="Path_47-10" data-name="Path 47" d="M14.44,32.748H0V.044L7.31,7.127,14.44,0ZM1.691,31.057H12.749V4.081L7.329,9.5,1.691,4.036Z" transform="translate(22.431 31.635) rotate(164.991)" fill="#a82024"/>
      </g>
      <path id="Polygon_4" data-name="Polygon 4" d="M24.867,2.807a4.126,4.126,0,0,1,3.146-.286,3.932,3.932,0,0,1,2.371,2.006l.58,1.182a3.966,3.966,0,0,0,2.992,2.144l1.278.191a4.007,4.007,0,0,1,2.609,1.529,3.706,3.706,0,0,1,.71,2.856l-.287,1.677a3.726,3.726,0,0,0,1.075,3.271l1.2,1.188a3.714,3.714,0,0,1,0,5.327l-1.2,1.188a3.726,3.726,0,0,0-1.075,3.272l.282,1.678a3.706,3.706,0,0,1-.71,2.854,4.007,4.007,0,0,1-2.607,1.529l-1.275.191a3.966,3.966,0,0,0-2.99,2.146l-.58,1.182a3.932,3.932,0,0,1-2.371,2.006,4.126,4.126,0,0,1-3.146-.286l-.928-.491a4.123,4.123,0,0,0-3.836,0l-.928.491a4.126,4.126,0,0,1-3.146.286,3.932,3.932,0,0,1-2.371-2.006l-.58-1.182a3.966,3.966,0,0,0-3-2.146L8.8,34.415a4.007,4.007,0,0,1-2.609-1.529,3.706,3.706,0,0,1-.71-2.856l.286-1.677A3.726,3.726,0,0,0,4.7,25.082l-1.2-1.188a3.714,3.714,0,0,1,0-5.327l1.2-1.188a3.726,3.726,0,0,0,1.077-3.272l-.282-1.678A3.706,3.706,0,0,1,6.2,9.574,4.007,4.007,0,0,1,8.807,8.045l1.275-.191a3.966,3.966,0,0,0,2.99-2.146l.58-1.182a3.932,3.932,0,0,1,2.371-2.006,4.126,4.126,0,0,1,3.146.286L20.1,3.3a4.123,4.123,0,0,0,3.836,0Z" transform="translate(268.459 35.134)" fill="#fff"/>
      <path id="Polygon_4_-_Outline" data-name="Polygon 4 - Outline" d="M17.6,1.832a4.969,4.969,0,0,1,2.312.571l.929.491a3.271,3.271,0,0,0,1.523.375,3.271,3.271,0,0,0,1.523-.375L24.82,2.4a4.973,4.973,0,0,1,3.79-.345A4.8,4.8,0,0,1,31.489,4.5l.58,1.182a3.116,3.116,0,0,0,2.357,1.68l1.279.191a4.82,4.82,0,0,1,3.158,1.855,4.579,4.579,0,0,1,.87,3.506l-.287,1.68a2.9,2.9,0,0,0,.836,2.528l1.2,1.188a4.56,4.56,0,0,1,0,6.529l-1.2,1.188a2.9,2.9,0,0,0-.836,2.531l.282,1.678a4.58,4.58,0,0,1-.869,3.5A4.82,4.82,0,0,1,35.7,35.6l-1.275.191a3.116,3.116,0,0,0-2.356,1.683l-.58,1.182a4.8,4.8,0,0,1-2.879,2.441,4.973,4.973,0,0,1-3.792-.346l-.929-.491a3.278,3.278,0,0,0-3.046,0l-.928.491a4.973,4.973,0,0,1-3.793.346,4.8,4.8,0,0,1-2.879-2.441l-.58-1.182A3.115,3.115,0,0,0,10.3,35.788L9.024,35.6a4.82,4.82,0,0,1-3.158-1.855A4.579,4.579,0,0,1,5,30.236l.287-1.68a2.9,2.9,0,0,0-.836-2.528l-1.2-1.188a4.56,4.56,0,0,1,0-6.53l1.2-1.188a2.9,2.9,0,0,0,.838-2.531L5,12.914a4.58,4.58,0,0,1,.869-3.5A4.82,4.82,0,0,1,9.027,7.554L10.3,7.363A3.116,3.116,0,0,0,12.658,5.68l.58-1.182a4.8,4.8,0,0,1,2.879-2.441A4.968,4.968,0,0,1,17.6,1.832Zm4.764,3.128a4.968,4.968,0,0,1-2.313-.571L19.119,3.9a3.314,3.314,0,0,0-2.5-.227,3.1,3.1,0,0,0-1.864,1.571l-.58,1.182a4.806,4.806,0,0,1-3.624,2.61l-1.274.191a3.182,3.182,0,0,0-2.059,1.2,2.844,2.844,0,0,0-.55,2.2l.282,1.678a4.588,4.588,0,0,1-1.317,4.014l-1.2,1.187a2.869,2.869,0,0,0,0,4.125l1.2,1.188A4.589,4.589,0,0,1,6.95,28.838l-.287,1.68a2.842,2.842,0,0,0,.551,2.2,3.182,3.182,0,0,0,2.06,1.2l1.279.191a4.8,4.8,0,0,1,3.631,2.609l.581,1.183a3.1,3.1,0,0,0,1.864,1.572,3.314,3.314,0,0,0,2.5-.227l.928-.491a4.968,4.968,0,0,1,4.626,0l.929.491a3.314,3.314,0,0,0,2.5.227,3.1,3.1,0,0,0,1.864-1.571l.58-1.182a4.806,4.806,0,0,1,3.624-2.61l1.274-.191a3.182,3.182,0,0,0,2.059-1.2,2.844,2.844,0,0,0,.55-2.2l-.282-1.678a4.588,4.588,0,0,1,1.315-4.013l1.2-1.188a2.869,2.869,0,0,0,0-4.125l-1.2-1.188a4.588,4.588,0,0,1-1.314-4.013l.287-1.68a2.842,2.842,0,0,0-.551-2.2,3.182,3.182,0,0,0-2.06-1.2l-1.279-.191a4.806,4.806,0,0,1-3.626-2.607l-.581-1.183a3.1,3.1,0,0,0-1.864-1.572,3.314,3.314,0,0,0-2.5.227l-.936.491A4.965,4.965,0,0,1,22.361,4.961Z" transform="translate(268.114 34.789)" fill="#a82024"/>
      <path id="Polygon_4-2" data-name="Polygon 4" d="M24.867,2.807a4.126,4.126,0,0,1,3.146-.286,3.932,3.932,0,0,1,2.371,2.006l.58,1.182a3.966,3.966,0,0,0,2.992,2.144l1.278.191a4.007,4.007,0,0,1,2.609,1.529,3.706,3.706,0,0,1,.71,2.856l-.287,1.677a3.726,3.726,0,0,0,1.075,3.271l1.2,1.188a3.714,3.714,0,0,1,0,5.327l-1.2,1.188a3.726,3.726,0,0,0-1.075,3.272l.282,1.678a3.706,3.706,0,0,1-.71,2.854,4.007,4.007,0,0,1-2.607,1.529l-1.275.191a3.966,3.966,0,0,0-2.99,2.146l-.58,1.182a3.932,3.932,0,0,1-2.371,2.006,4.126,4.126,0,0,1-3.146-.286l-.928-.491a4.123,4.123,0,0,0-3.836,0l-.928.491a4.126,4.126,0,0,1-3.146.286,3.932,3.932,0,0,1-2.371-2.006l-.58-1.182a3.966,3.966,0,0,0-3-2.146L8.8,34.415a4.007,4.007,0,0,1-2.609-1.529,3.706,3.706,0,0,1-.71-2.856l.286-1.677A3.726,3.726,0,0,0,4.7,25.082l-1.2-1.188a3.714,3.714,0,0,1,0-5.327l1.2-1.188a3.726,3.726,0,0,0,1.077-3.272l-.282-1.678A3.706,3.706,0,0,1,6.2,9.574,4.007,4.007,0,0,1,8.807,8.045l1.275-.191a3.966,3.966,0,0,0,2.99-2.146l.58-1.182a3.932,3.932,0,0,1,2.371-2.006,4.126,4.126,0,0,1,3.146.286L20.1,3.3a4.123,4.123,0,0,0,3.836,0Z" transform="translate(268.459 35.134)" fill="#ffd3d4"/>
      <path id="Polygon_4-3" data-name="Polygon 4" d="M22.168,2.721a3.373,3.373,0,0,1,2.572-.234,3.215,3.215,0,0,1,1.939,1.64l.474.967A3.242,3.242,0,0,0,29.6,6.846L30.644,7a3.276,3.276,0,0,1,2.133,1.25,3.03,3.03,0,0,1,.581,2.335l-.234,1.371A3.046,3.046,0,0,0,34,14.633l.982.971a3.037,3.037,0,0,1,0,4.355L34,20.931a3.046,3.046,0,0,0-.879,2.675l.23,1.372a7.727,7.727,0,0,0,1.2,2.157,2.392,2.392,0,0,0,1.525.76l-1.09,1.8-.281.584-2.2.542c-1.068.159-1.888.044-2.349.982l-1.067,1.3c-.383.78-2.351,2.984-3.2,3.25a3.2,3.2,0,0,1-2.507-.16l-.875-.373c-.976-.516-1.329-.756-2.306-.24L18.5,35.069c-.787.416-1.7,1.555-2.559,1.289s-1,.78-1.38,0l-1.685-.774c-.462-.94-1.408-2.181-2.478-2.338l-.934-1.183A4.9,4.9,0,0,1,6.8,30.6c-.509-.673-1.665-.05-1.527-.872l-1.258-1.7c.163-.975.573-2.081-.144-2.789l-.907-3.078C1.735,20.95-.543,18.448.684,17.236l1.3-2.8c.717-.708,2.053-1.5,1.889-2.475l-.23-1.372C3.5,9.765,3.361,7.675,3.87,7s2.7.128,3.56,0l2.65-.156a3.242,3.242,0,0,0,2.444-1.754L13,4.125a3.215,3.215,0,0,1,1.939-1.64,3.373,3.373,0,0,1,2.572.234l.759.4a3.371,3.371,0,0,0,3.136,0Z" transform="translate(270.639 38.582)" fill="#ffd3d4"/>
      <path id="Polygon_4-4" data-name="Polygon 4" d="M17.6,1.832a4.969,4.969,0,0,1,2.312.571l.929.491a3.271,3.271,0,0,0,1.523.375,3.271,3.271,0,0,0,1.523-.375L24.82,2.4a4.973,4.973,0,0,1,3.79-.345A4.8,4.8,0,0,1,31.489,4.5l.58,1.182a3.116,3.116,0,0,0,2.357,1.68l1.279.191a4.82,4.82,0,0,1,3.158,1.855,4.579,4.579,0,0,1,.87,3.506l-.287,1.68a2.9,2.9,0,0,0,.836,2.528l1.2,1.188a4.56,4.56,0,0,1,0,6.529l-1.2,1.188a2.9,2.9,0,0,0-.836,2.531l.282,1.678a4.58,4.58,0,0,1-.869,3.5A4.82,4.82,0,0,1,35.7,35.6l-1.275.191a3.116,3.116,0,0,0-2.356,1.683l-.58,1.182a4.8,4.8,0,0,1-2.879,2.441,4.973,4.973,0,0,1-3.792-.346l-.929-.491a3.278,3.278,0,0,0-3.046,0l-.928.491a4.973,4.973,0,0,1-3.793.346,4.8,4.8,0,0,1-2.879-2.441l-.58-1.182A3.115,3.115,0,0,0,10.3,35.788L9.024,35.6a4.82,4.82,0,0,1-3.158-1.855A4.579,4.579,0,0,1,5,30.236l.287-1.68a2.9,2.9,0,0,0-.836-2.528l-1.2-1.188a4.56,4.56,0,0,1,0-6.53l1.2-1.188a2.9,2.9,0,0,0,.838-2.531L5,12.914a4.58,4.58,0,0,1,.869-3.5A4.82,4.82,0,0,1,9.027,7.554L10.3,7.363A3.116,3.116,0,0,0,12.658,5.68l.58-1.182a4.8,4.8,0,0,1,2.879-2.441A4.968,4.968,0,0,1,17.6,1.832Zm4.764,3.128a4.968,4.968,0,0,1-2.313-.571L19.119,3.9a3.314,3.314,0,0,0-2.5-.227,3.1,3.1,0,0,0-1.864,1.571l-.58,1.182a4.806,4.806,0,0,1-3.624,2.61l-1.274.191a3.182,3.182,0,0,0-2.059,1.2,2.844,2.844,0,0,0-.55,2.2l.282,1.678a4.588,4.588,0,0,1-1.317,4.014l-1.2,1.187a2.869,2.869,0,0,0,0,4.125l1.2,1.188A4.589,4.589,0,0,1,6.95,28.838l-.287,1.68a2.842,2.842,0,0,0,.551,2.2,3.182,3.182,0,0,0,2.06,1.2l1.279.191a4.8,4.8,0,0,1,3.631,2.609l.581,1.183a3.1,3.1,0,0,0,1.864,1.572,3.314,3.314,0,0,0,2.5-.227l.928-.491a4.968,4.968,0,0,1,4.626,0l.929.491a3.314,3.314,0,0,0,2.5.227,3.1,3.1,0,0,0,1.864-1.571l.58-1.182a4.806,4.806,0,0,1,3.624-2.61l1.274-.191a3.182,3.182,0,0,0,2.059-1.2,2.844,2.844,0,0,0,.55-2.2l-.282-1.678a4.588,4.588,0,0,1,1.315-4.013l1.2-1.188a2.869,2.869,0,0,0,0-4.125l-1.2-1.188a4.588,4.588,0,0,1-1.314-4.013l.287-1.68a2.842,2.842,0,0,0-.551-2.2,3.182,3.182,0,0,0-2.06-1.2l-1.279-.191a4.806,4.806,0,0,1-3.626-2.607l-.581-1.183a3.1,3.1,0,0,0-1.864-1.572,3.314,3.314,0,0,0-2.5.227l-.936.491A4.965,4.965,0,0,1,22.361,4.961Z" transform="translate(268.114 34.789)" fill="#a82024"/>
      <path id="Polygon_4-5" data-name="Polygon 4" d="M17.6,1.832a4.969,4.969,0,0,1,2.312.571l.929.491a3.271,3.271,0,0,0,1.523.375,3.271,3.271,0,0,0,1.523-.375L24.82,2.4a4.973,4.973,0,0,1,3.79-.345A4.8,4.8,0,0,1,31.489,4.5l.58,1.182a3.116,3.116,0,0,0,2.357,1.68l1.279.191a4.82,4.82,0,0,1,3.158,1.855,4.579,4.579,0,0,1,.87,3.506l-.287,1.68a2.9,2.9,0,0,0,.836,2.528l1.2,1.188a4.56,4.56,0,0,1,0,6.529l-1.2,1.188a2.9,2.9,0,0,0-.836,2.531l.282,1.678a4.58,4.58,0,0,1-.869,3.5A4.82,4.82,0,0,1,35.7,35.6l-1.275.191a3.116,3.116,0,0,0-2.356,1.683l-.58,1.182a4.8,4.8,0,0,1-2.879,2.441,4.973,4.973,0,0,1-3.792-.346l-.929-.491a3.278,3.278,0,0,0-3.046,0l-.928.491a4.973,4.973,0,0,1-3.793.346,4.8,4.8,0,0,1-2.879-2.441l-.58-1.182A3.115,3.115,0,0,0,10.3,35.788L9.024,35.6a4.82,4.82,0,0,1-3.158-1.855A4.579,4.579,0,0,1,5,30.236l.287-1.68a2.9,2.9,0,0,0-.836-2.528l-1.2-1.188a4.56,4.56,0,0,1,0-6.53l1.2-1.188a2.9,2.9,0,0,0,.838-2.531L5,12.914a4.58,4.58,0,0,1,.869-3.5A4.82,4.82,0,0,1,9.027,7.554L10.3,7.363A3.116,3.116,0,0,0,12.658,5.68l.58-1.182a4.8,4.8,0,0,1,2.879-2.441A4.968,4.968,0,0,1,17.6,1.832Zm4.764,3.128a4.968,4.968,0,0,1-2.313-.571L19.119,3.9a3.314,3.314,0,0,0-2.5-.227,3.1,3.1,0,0,0-1.864,1.571l-.58,1.182a4.806,4.806,0,0,1-3.624,2.61l-1.274.191a3.182,3.182,0,0,0-2.059,1.2,2.844,2.844,0,0,0-.55,2.2l.282,1.678a4.588,4.588,0,0,1-1.317,4.014l-1.2,1.187a2.869,2.869,0,0,0,0,4.125l1.2,1.188A4.589,4.589,0,0,1,6.95,28.838l-.287,1.68a2.842,2.842,0,0,0,.551,2.2,3.182,3.182,0,0,0,2.06,1.2l1.279.191a4.8,4.8,0,0,1,3.631,2.609l.581,1.183a3.1,3.1,0,0,0,1.864,1.572,3.314,3.314,0,0,0,2.5-.227l.928-.491a4.968,4.968,0,0,1,4.626,0l.929.491a3.314,3.314,0,0,0,2.5.227,3.1,3.1,0,0,0,1.864-1.571l.58-1.182a4.806,4.806,0,0,1,3.624-2.61l1.274-.191a3.182,3.182,0,0,0,2.059-1.2,2.844,2.844,0,0,0,.55-2.2l-.282-1.678a4.588,4.588,0,0,1,1.315-4.013l1.2-1.188a2.869,2.869,0,0,0,0-4.125l-1.2-1.188a4.588,4.588,0,0,1-1.314-4.013l.287-1.68a2.842,2.842,0,0,0-.551-2.2,3.182,3.182,0,0,0-2.06-1.2l-1.279-.191a4.806,4.806,0,0,1-3.626-2.607l-.581-1.183a3.1,3.1,0,0,0-1.864-1.572,3.314,3.314,0,0,0-2.5.227l-.936.491A4.965,4.965,0,0,1,22.361,4.961Z" transform="translate(268.114 34.789)" fill="#a82024"/>
      <path id="Ellipse_17" data-name="Ellipse 17" d="M10.614,0A10.614,10.614,0,1,1,0,10.614,10.614,10.614,0,0,1,10.614,0Z" transform="translate(280.243 45.703)" fill="#ffd3d4"/>
      <path id="Ellipse_17_-_Outline" data-name="Ellipse 17 - Outline" d="M10.959-.5A11.459,11.459,0,1,1-.5,10.959,11.472,11.472,0,0,1,10.959-.5Zm0,21.228a9.768,9.768,0,1,0-9.768-9.768A9.78,9.78,0,0,0,10.959,20.728Z" transform="translate(279.898 45.357)" fill="#a82024"/>
      <path id="Ellipse_17-2" data-name="Ellipse 17" d="M10.614,0A10.614,10.614,0,1,1,0,10.614,10.614,10.614,0,0,1,10.614,0Z" transform="translate(280.243 45.703)" fill="#fff"/>
      <path id="Ellipse_17_-_Outline-2" data-name="Ellipse 17 - Outline" d="M10.959-.5A11.459,11.459,0,1,1-.5,10.959,11.472,11.472,0,0,1,10.959-.5Zm0,21.228a9.768,9.768,0,1,0-9.768-9.768A9.78,9.78,0,0,0,10.959,20.728Z" transform="translate(279.898 45.357)" fill="#a82024"/>
      <path id="Path_5380" data-name="Path 5380" d="M2.1-5.109v-8.368H.1l1.17-1.518H3.628v9.886Zm9.691-.919A3.391,3.391,0,0,1,9.211-4.97,3.38,3.38,0,0,1,6.635-6.035a3.831,3.831,0,0,1-1-2.736v-2.59a3.831,3.831,0,0,1,1-2.736,3.38,3.38,0,0,1,2.576-1.065A3.4,3.4,0,0,1,11.794-14.1,3.816,3.816,0,0,1,12.8-11.361v2.59A3.826,3.826,0,0,1,11.787-6.028ZM9.211-6.473a1.937,1.937,0,0,0,1.5-.613,2.393,2.393,0,0,0,.564-1.685v-2.59a2.393,2.393,0,0,0-.564-1.685,1.937,1.937,0,0,0-1.5-.613,1.92,1.92,0,0,0-1.483.613,2.393,2.393,0,0,0-.564,1.685v2.59a2.393,2.393,0,0,0,.564,1.685A1.92,1.92,0,0,0,9.211-6.473Z" transform="translate(284.024 66.258)" fill="#a82024"/>
    </g>
  </g>
</svg>
