<svg xmlns="http://www.w3.org/2000/svg" width="250" height="90" viewBox="0 0 250 90">
  <g id="Group_1096" data-name="Group 1096" transform="translate(-63 -158)">
    <rect id="Rectangle_2426" data-name="Rectangle 2426" width="250" height="90" transform="translate(63 158)" fill="#fff"/>
    <path id="The_Telegraph_logo" d="M28.582,32.757c3.975-.379,7.95-1.7,7.95-5.868V13.45l-1.893-1.893L32.557,13.45V23.482L34.261,25,30.475,28.4h-.189L26.5,25.186l.946-.946V3.8a2.656,2.656,0,0,0-2.082-2.461V.957a3.78,3.78,0,0,1,1.7-.379,3.045,3.045,0,0,1,2.839,1.7H30.1a3.958,3.958,0,0,1,3.218-1.7A2.4,2.4,0,0,1,34.45.768v.379c-.568.189-1.7.946-1.7,3.029v8.518l5.111-4.732h.379c.379.379,2.461,2.271,3.029,2.65.189.189.379.189.757.189a2.69,2.69,0,0,0,1.136-.379v.568a2.6,2.6,0,0,0-.946,1.893V24.429c0,5.111-5.679,8.329-13.25,8.9v-.568ZM26.689,1.146A2.857,2.857,0,0,1,28.2,3.607V24.618l-.757.757,3.218,2.65.946-.757L29.15,25.186l.379-.379V3.8a3.187,3.187,0,0,0-2.839-2.65m8.9,30.286c1.514-.946,3.029-2.082,3.029-4.354V12.693l-2.271-2.461-1.136.946L37.1,13.261V26.889a6.034,6.034,0,0,1-1.514,4.543ZM45.05,12.693a56.862,56.862,0,0,0,7.761-4.732h.379c1.514,1.514,3.6,3.975,5.489,5.679v.379l-8.329,5.3v3.407A27.828,27.828,0,0,0,55.082,25l3.407-3.218.379.379-6.625,6.436h-.379c-2.271-.946-5.111-2.271-7-3.218a22.185,22.185,0,0,0,.379-4.543V12.693Zm7.761,14.575c-2.271-.946-4.164-1.893-6.057-2.839a14.581,14.581,0,0,0,.189-3.6V12.314l-1.325.757v7.761A20.875,20.875,0,0,1,45.429,25a69.585,69.585,0,0,0,6.436,3.029l.946-.757ZM50.35,18.75l3.786-2.461c-1.325-1.514-2.65-3.029-3.786-4.164Zm1.136-8.329-.946.757c1.136,1.325,2.65,3.029,4.164,4.732l1.136-.757c-1.7-1.7-3.218-3.407-4.354-4.732M207.268,32.757c3.975-.379,7.95-1.7,7.95-5.868V13.45l-1.893-1.893-2.082,1.893V23.482l1.7,1.514L209.161,28.4h-.379L205,25.186l.946-.946V3.8a2.656,2.656,0,0,0-2.082-2.461V.957a3.78,3.78,0,0,1,1.7-.379,3.045,3.045,0,0,1,2.839,1.7h.189a3.958,3.958,0,0,1,3.218-1.7,2.4,2.4,0,0,1,1.136.189v.379c-.568.189-1.7.946-1.7,3.029v8.518l4.921-4.732h.379c.379.379,2.461,2.271,3.029,2.65.189.189.379.189.757.189a2.69,2.69,0,0,0,1.136-.379v.757a2.6,2.6,0,0,0-.946,1.893V24.429c0,5.111-5.679,8.329-13.25,8.9v-.568ZM205.376,1.146a2.981,2.981,0,0,1,1.514,2.461V24.429l-.757.757,3.218,2.65.946-.757L207.836,25l.379-.379V3.8a3.187,3.187,0,0,0-2.839-2.65m8.707,30.1c1.514-.946,3.029-2.082,3.029-4.354v-14.2l-2.271-2.461-.946.946,1.893,2.082V26.889A4.894,4.894,0,0,1,214.083,31.243ZM94.075,12.693a56.861,56.861,0,0,0,7.761-4.732h.379c1.514,1.514,3.6,3.975,5.3,5.489v.379l-8.139,5.3v3.407a37.222,37.222,0,0,0,4.732,2.271l3.407-3.218.379.379L101.268,28.4h-.379c-2.271-.946-5.111-2.271-7-3.218a22.186,22.186,0,0,0,.379-4.543v-7.95Zm7.571,14.575c-2.271-.946-4.164-1.893-6.057-2.839a14.582,14.582,0,0,0,.189-3.6V12.314l-1.136.568v7.761a20.875,20.875,0,0,1-.189,4.164,69.585,69.585,0,0,0,6.436,3.029l.757-.568Zm-2.271-8.707,3.786-2.461c-1.325-1.514-2.65-3.029-3.786-4.164Zm1.136-8.139-1.136.757c1.136,1.325,2.65,3.029,4.164,4.732l1.136-.757c-1.514-1.7-3.029-3.407-4.164-4.732m14.575-7.193V23.1A2.248,2.248,0,0,0,116.6,25l1.136-1.136.379.379-4.164,4.354h-.379c-1.514-.379-3.786-1.893-3.786-4.354V5.689L108.65,4.554l-1.325,1.325-.379-.379L111.679.579h.379Zm-.568,23.85c-1.514-.379-3.029-1.325-3.029-3.407V4.932l-1.7-1.7-.946.946L110.354,5.5V24.239a4.062,4.062,0,0,0,3.218,3.786l.946-.946Zm5.489-14.386a56.861,56.861,0,0,0,7.761-4.732h.379c1.514,1.514,3.6,3.975,5.3,5.489v.379l-8.139,5.3v3.407a27.828,27.828,0,0,0,4.732,2.271l3.407-3.218.379.379L127.2,28.4h-.379c-2.271-.946-5.111-2.271-7-3.218a22.186,22.186,0,0,0,.379-4.543v-7.95Zm7.571,14.575c-2.271-.946-4.164-1.893-6.057-2.839a14.581,14.581,0,0,0,.189-3.6V12.314l-1.136.568v7.761a20.875,20.875,0,0,1-.189,4.164,69.584,69.584,0,0,0,6.436,3.029l.757-.568Zm-2.271-8.707,3.786-2.461c-1.325-1.514-2.65-3.029-3.786-4.164Zm1.136-8.139-.946.757c1.136,1.325,2.65,3.029,4.164,4.732l.946-.757c-1.514-1.7-3.029-3.407-4.164-4.732m33.693,3.029V23.1a1.82,1.82,0,0,0,1.514,1.7l1.136-1.136.379.379L159,28.4h-.189c-1.514-.379-3.786-1.7-3.786-4.354V13.071l-1.136-1.136-1.325,1.136-.379-.379,4.732-4.732h.379l3.029,3.029v1.7l3.786-4.543h.379a21.641,21.641,0,0,0,3.029,2.65L164.3,14.586c-.946-.757-2.082-1.893-2.839-2.461l-1.325,1.325Zm-.379,13.629c-1.514-.379-3.029-1.325-3.029-3.407V12.314l-1.514-1.7-.946.946,1.325,1.325V24.05a4.062,4.062,0,0,0,3.218,3.786l.946-.757Zm2.082-15.332a24.743,24.743,0,0,0,2.271,2.082l.757-.946c-.757-.568-1.893-1.7-2.461-2.082l-.568.946Zm10.6,16.846L167.9,25.564V19.507c1.136-.757,3.6-2.461,4.732-3.218a11.669,11.669,0,0,1-4.354-3.407V12.5a29.659,29.659,0,0,0,6.246-4.543h.379s5.679,2.65,5.868,2.839a1.431,1.431,0,0,0,.757.189,2.69,2.69,0,0,0,1.136-.379v.568a2.548,2.548,0,0,0-.946,1.7V22.914a2.027,2.027,0,0,0,1.7,1.893l1.136-1.136.379.379L180.768,28.4h-.189a5.093,5.093,0,0,1-3.786-3.975L172.818,28.4h-.379Zm.946-1.514L169.6,24.618V18.939l-1.136.757v5.489l4.164,2.65Zm3.218-9.843V14.207l-5.489-2.839c-.379.379-1.893,1.136-2.271,1.514a17.8,17.8,0,0,0,7.761,4.354m4.921,9.843c-1.514-.568-3.029-1.514-3.029-3.6V13.071l-5.679-2.839c-.189.189-.757.568-.946.757l5.489,2.839V24.05c0,1.893,1.893,3.407,3.218,3.975ZM176.6,23.861V17.8a27.6,27.6,0,0,1-3.6-1.325V24.05l2.082,1.325Zm-41.075,1.514V12.693l6.814-4.732h.379c1.325.568,5.679,2.461,6.057,2.65.189,0,.379.189.757.189a4.815,4.815,0,0,0,1.325-.379v.757a3.073,3.073,0,0,0-.946,1.7V23.671c0,2.461.568,3.975,1.514,4.921v.379c-1.514,1.514-4.921,5.111-6.436,6.814H144.8a14.938,14.938,0,0,0-5.868-1.514,6.986,6.986,0,0,0-4.354,1.325l-.379-.189c1.136-2.65,3.6-5.489,6.814-5.489A14.761,14.761,0,0,1,147.833,32a12.687,12.687,0,0,1-2.839-7.382L141.018,28.4h-.379l-5.111-3.029Zm3.218,7.382a4.686,4.686,0,0,0-3.6,1.7v.189a6.362,6.362,0,0,1,3.6-.757,14.1,14.1,0,0,1,5.868,1.325l.757-.946a17.081,17.081,0,0,0-6.625-1.514m1.514-4.732.946-.757-3.975-2.839V12.314l-1.136.757V25.186l4.164,2.839Zm6.057-15.711-5.679-2.271v1.136l4.354,1.893V24.429a11.88,11.88,0,0,0,2.839,7.193l.946-.946a10.088,10.088,0,0,1-2.461-6.436V12.314Zm-1.7,11.546V13.45l-3.786-1.7V23.671l2.461,1.514Zm48.457-11.168,4.921-4.732h.379a37.9,37.9,0,0,0,3.029,2.65.7.7,0,0,0,.568.189,2.69,2.69,0,0,0,1.136-.379v.757a3.025,3.025,0,0,0-.946,1.893V25.186a11.569,11.569,0,0,0-5.679,3.786h-.189l-3.218-.757v2.65l1.7,1.514L190.8,35.786h-.189l-3.786-3.218.946-1.136V26.889a4.455,4.455,0,0,1-1.514-.379v-.568c.379-.189,1.7-1.325,1.7-2.271V13.261l-1.136-1.136L185.5,13.45l-.379-.379,4.732-4.732h.379l3.029,3.029v1.325ZM188.34,31.811l-.757.757,3.029,2.65.946-.757L189.1,32.379l.379-.379V12.314l-1.7-1.7-.757.757,1.325,1.325V31.811Zm8.518-7.382V13.45l-1.893-1.893-2.082,1.893V23.482c.946.379,3.6.757,3.975.946M196.29,28.4a4.129,4.129,0,0,1,.757-.946l-4.164-.757v1.136l3.407.568Zm-.946-17.036,2.082,2.082V24.429l1.136-.568V12.693l-2.271-2.271ZM1.514,17.425c0-4.921,3.6-8.139,7-9.654l.189.379C7.571,9.475,6.814,10.8,6.814,13.829c0,3.407.946,5.679,2.271,7.193a3.969,3.969,0,0,0,.757-2.082V14.018L15.9,9.664l.189.379a4.214,4.214,0,0,0-.757,2.461v3.218c0,2.271-3.6,4.732-5.868,5.489a8,8,0,0,0,5.868,2.082A9.216,9.216,0,0,0,17.6,23.1V9.286A25.141,25.141,0,0,1,11.925,8.15a20.573,20.573,0,0,0-5.3-1.136c-2.461,0-5.489.757-5.489,4.354V12.5l-.568.189A10.5,10.5,0,0,1,0,9.475,8.008,8.008,0,0,1,8.329,1.336a21.457,21.457,0,0,1,6.057,1.136,20.176,20.176,0,0,0,5.679,1.136,1.393,1.393,0,0,0,1.514-1.514A1.323,1.323,0,0,0,20.443.579V.2c2.271.379,4.543,1.7,4.543,4.543.189,2.839-2.271,4.543-6.436,4.543h-.379V23.293a8.177,8.177,0,0,0,5.868-3.975l.379.189c-1.514,4.732-5.111,9.275-11.357,9.275S1.514,25,1.514,17.425M18.55,7.582c-4.543,0-8.707-2.271-11.925-2.271-2.271,0-4.732.946-5.489,3.407h.189c.946-1.7,3.218-2.271,5.3-2.271,3.407,0,7.382,2.271,11.925,2.271,3.6,0,5.868-1.325,6.057-4.164h-.189c-.379,2.271-2.271,3.029-5.868,3.029M5.489,10.421a9.8,9.8,0,0,0-3.218,7C2.271,24.618,7,28.214,13.25,28.214a11.237,11.237,0,0,0,7.95-3.6l-.189-.189a11.38,11.38,0,0,1-7.95,2.65c-4.921,0-9.654-3.029-9.654-9.654a13.31,13.31,0,0,1,2.082-7Zm6.057,8.139v-5.3l-1.136.946v4.921c0,.568-.189.946-.189,1.325h.189a2.884,2.884,0,0,0,1.136-1.893M68.9,17.425c0-4.921,3.6-8.139,7-9.654l.189.379a7.428,7.428,0,0,0-2.082,5.679c0,3.407.946,5.679,2.271,7.193a3.969,3.969,0,0,0,.757-2.082V14.018l6.246-4.543.189.379a4.005,4.005,0,0,0-.757,2.65v3.218c0,2.271-3.6,4.732-5.868,5.489a8,8,0,0,0,5.868,2.082A9.216,9.216,0,0,0,84.99,23.1V9.286A25.141,25.141,0,0,1,79.311,8.15a20.573,20.573,0,0,0-5.3-1.136c-2.461,0-5.489.757-5.489,4.354V12.5l-.379.189a10.5,10.5,0,0,1-.568-3.218A8.008,8.008,0,0,1,75.9,1.336a21.457,21.457,0,0,1,6.057,1.136A20.176,20.176,0,0,0,87.64,3.607a1.393,1.393,0,0,0,1.514-1.514A1.323,1.323,0,0,0,88.018.579V.2c2.271.379,4.543,1.7,4.543,4.543,0,3.407-2.461,4.921-6.625,4.921h-.379V23.671A8.177,8.177,0,0,0,91.425,19.7l.379.189c-1.514,4.732-5.111,9.275-11.357,9.275C74.2,28.782,68.9,25,68.9,17.425M85.936,7.582c-4.543,0-8.707-2.271-11.925-2.271a5.671,5.671,0,0,0-5.489,3.407h.189c.946-1.7,3.218-2.271,5.3-2.271,3.407,0,7.382,2.271,11.925,2.271,3.6,0,5.868-1.325,6.057-4.164H91.8c-.568,2.271-2.271,3.029-5.868,3.029M72.875,10.421a9.8,9.8,0,0,0-3.218,7c0,7.193,4.732,10.789,10.979,10.789a11.237,11.237,0,0,0,7.95-3.6l-.189-.189a11.38,11.38,0,0,1-7.95,2.65c-4.921,0-9.654-3.029-9.654-9.654a13.31,13.31,0,0,1,2.082-7Zm6.057,8.139v-5.3l-1.136.757v4.921c0,.568-.189.946-.189,1.325H77.8a2.175,2.175,0,0,0,1.136-1.7" transform="translate(75.768 184.8)" fill="#212923"/>
  </g>
</svg>
