<svg xmlns="http://www.w3.org/2000/svg" width="94" height="91" viewBox="0 0 94 91">
  <g id="Group_2281" data-name="Group 2281" transform="translate(9097.121 5431)">
    <g id="Group_2277" data-name="Group 2277" transform="translate(-9092.4 -5421.111)">
      <path id="Path_36" data-name="Path 36" d="M904.089,360.882a26.354,26.354,0,0,1-.3,2.76,35.426,35.426,0,0,1-2.368,8.122c-.4.959-.848,1.932-1.352,2.919-.448.9-.952,1.829-1.5,2.76a66.682,66.682,0,0,1-5.783,8.322q-1.107,1.377-2.346,2.774c-1.029,1.173-2.125,2.367-3.292,3.568-.821.849-1.676,1.7-2.567,2.56a148.1,148.1,0,0,1-14.166,11.945q-1.345,1.014-2.76,2.036-2.65,1.9-5.52,3.85-2.878-1.946-5.521-3.85-1.417-1.025-2.76-2.036a148.845,148.845,0,0,1-13.877-11.669q-1.366-1.3-2.616-2.588c-1.173-1.2-2.276-2.381-3.3-3.554-.821-.911-1.587-1.822-2.319-2.712a66.654,66.654,0,0,1-6.044-8.646c-.552-.932-1.049-1.856-1.5-2.76-.5-.987-.952-1.96-1.353-2.919a35.484,35.484,0,0,1-2.367-8.122,26.29,26.29,0,0,1-.3-2.76,22.768,22.768,0,0,1,2.767-12.656,21.459,21.459,0,0,1,2.008-2.981,22.615,22.615,0,0,1,3.437-3.45,24.728,24.728,0,0,1,3.146-2.174,25.482,25.482,0,0,1,22.316-1.656,21.659,21.659,0,0,1,2.76,1.408,21.423,21.423,0,0,1,5.521,4.768,21.426,21.426,0,0,1,5.52-4.768,21.7,21.7,0,0,1,2.76-1.408,25.387,25.387,0,0,1,21.412,1.166,24.411,24.411,0,0,1,3.2,2.008,23.207,23.207,0,0,1,3.616,3.312,22.26,22.26,0,0,1,2.18,2.933A22.631,22.631,0,0,1,904.089,360.882Z" transform="translate(-819.855 -336.129)" fill="#012169"/>
      <path id="Path_39" data-name="Path 39" d="M906.041,348.733l-17.271,13.5-3.527,2.76-8.149,6.369-1.463,1.145-1.5,1.166-1.263.987-1.753,1.373-.925.718-2.608,2.043-.317.248-5.438,4.251-2.76,2.16-13.877,10.84q-1.366-1.3-2.616-2.587c-1.172-1.2-2.276-2.381-3.3-3.554-.822-.911-1.588-1.822-2.319-2.712l11.068-8.646,3.534-2.76,5.748-4.492,1.76-1.38,1.166-.911,1.594-1.242,2.347-1.835,1.511-1.18,1.442-1.132,2.084-1.629,3.657-2.857,2.76-2.16,21.412-16.734a24.366,24.366,0,0,1,3.2,2.008,23.212,23.212,0,0,1,3.617,3.312A22.294,22.294,0,0,1,906.041,348.733Z" transform="translate(-825.071 -337.478)" fill="#fff"/>
      <path id="Path_39_-_Outline" data-name="Path 39 - Outline" d="M896.735,339.887l.176.092a24.849,24.849,0,0,1,3.242,2.033,23.488,23.488,0,0,1,3.664,3.356,22.655,22.655,0,0,1,2.211,2.973l.146.235-17.49,13.667L885.158,365l-8.15,6.369-1.463,1.145-1.5,1.167-1.262.986-1.753,1.373-.926.719-2.924,2.29-5.439,4.251-2.76,2.16-14.086,11-.192-.184c-.874-.834-1.756-1.708-2.623-2.6-1.268-1.3-2.35-2.464-3.309-3.564-.708-.786-1.426-1.625-2.326-2.721l-.2-.243,20.6-16.093,1.76-1.38,1.167-.911,1.595-1.242,2.345-1.836,1.511-1.18,1.442-1.131,5.742-4.486,2.76-2.16Zm8.623,8.546a21.92,21.92,0,0,0-2-2.659,22.882,22.882,0,0,0-3.568-3.269,24.2,24.2,0,0,0-2.987-1.89l-21.255,16.611-2.76,2.16-5.742,4.485L865.6,365l-1.512,1.181-2.347,1.835-1.594,1.243-1.165.911-1.759,1.379-9.281,7.253-10.82,8.452c.8.972,1.46,1.738,2.11,2.458l0,0c.951,1.092,2.026,2.251,3.287,3.541.8.818,1.61,1.623,2.416,2.4l13.667-10.677,2.759-2.16,5.755-4.5,2.608-2.042.926-.719,1.751-1.372,1.263-.987,1.5-1.167,1.463-1.145,8.149-6.369,3.526-2.76Z" transform="translate(-824.797 -337.249)" fill="rgba(0,0,0,0)"/>
      <path id="Path_37" data-name="Path 37" d="M894.05,387.334q-1.107,1.376-2.346,2.774c-1.028,1.173-2.125,2.367-3.292,3.567-.821.849-1.677,1.7-2.567,2.56L871.678,385.56l-2.76-2.084-5.6-4.216-.324-.249-2.7-2.029-.967-.731-1.449-1.09-1.58-1.187-1.18-.89-1.76-1.325-8.688-6.549-3.664-2.76-16.8-12.656a21.489,21.489,0,0,1,2.008-2.981,22.588,22.588,0,0,1,3.437-3.45,24.72,24.72,0,0,1,3.146-2.174l22.316,16.817,2.76,2.077,3.14,2.367,2.16,1.628,1.5,1.132,1.442,1.083,2.795,2.1,1.2.9,1.559,1.18,1.463,1.1,6.2,4.672,3.664,2.76Z" transform="translate(-821.119 -337.698)" fill="#fff"/>
      <path id="Path_37_-_Outline" data-name="Path 37 - Outline" d="M885.62,396.408l-14.377-10.833-2.76-2.084-5.6-4.216-.326-.25-2.7-2.027-.967-.732-3.028-2.277-1.181-.891-1.759-1.325-12.353-9.309-17.009-12.816.13-.233a21.756,21.756,0,0,1,2.036-3.024,22.929,22.929,0,0,1,3.483-3.5,25.089,25.089,0,0,1,3.186-2.2l.176-.1.163.123,22.316,16.817,2.76,2.077,5.3,4,2.946,2.215,4,3.009,1.561,1.181,1.462,1.1,6.2,4.672,14.965,11.273-.2.247c-.761.946-1.554,1.883-2.356,2.786-1.066,1.217-2.177,2.421-3.3,3.577-.758.783-1.6,1.622-2.574,2.567ZM824.36,349.481,844.6,364.734l11.628,8.764,3.029,2.277.967.732,2.7,2.028.327.25,5.6,4.215,2.76,2.084L885.57,395.6c.89-.865,1.667-1.642,2.371-2.37,1.116-1.149,2.22-2.345,3.281-3.556.728-.818,1.445-1.663,2.139-2.517L878.9,376.266l-6.2-4.672-1.462-1.1-1.561-1.181-3.994-3.008-2.947-2.215-5.3-4-2.76-2.077L832.53,341.328a24.493,24.493,0,0,0-2.932,2.044,22.333,22.333,0,0,0-3.39,3.4A21.28,21.28,0,0,0,824.36,349.481Z" transform="translate(-820.868 -337.466)" fill="rgba(0,0,0,0)"/>
      <path id="Path_40" data-name="Path 40" d="M885.561,338.79v68.646q-1.345,1.015-2.76,2.036-2.65,1.9-5.521,3.851-2.877-1.946-5.52-3.851-1.418-1.025-2.76-2.036V338.79a21.638,21.638,0,0,1,2.76,1.408,21.413,21.413,0,0,1,5.52,4.768,21.664,21.664,0,0,1,8.281-6.176Z" transform="translate(-835.001 -336.954)" fill="#fff"/>
      <path id="Path_40_-_Outline" data-name="Path 40 - Outline" d="M868.5,338.035l.427.181a22.056,22.056,0,0,1,2.8,1.428,21.722,21.722,0,0,1,5.362,4.553,21.705,21.705,0,0,1,5.362-4.553,22.017,22.017,0,0,1,2.8-1.427l.427-.181V407.3l-.123.092c-.883.666-1.788,1.333-2.764,2.039-1.839,1.321-3.7,2.619-5.529,3.856l-.172.116-.172-.116c-1.832-1.238-3.692-2.536-5.528-3.856-.98-.709-1.886-1.376-2.765-2.04l-.123-.092Zm16.562,68.956V338.968a21.344,21.344,0,0,0-7.737,5.9l-.237.288-.237-.288a21.141,21.141,0,0,0-5.441-4.7,21.375,21.375,0,0,0-2.295-1.2v68.023c.838.631,1.7,1.267,2.633,1.94,1.774,1.275,3.57,2.528,5.341,3.728,1.769-1.2,3.566-2.453,5.341-3.729C883.357,408.261,884.22,407.625,885.062,406.992Z" transform="translate(-834.808 -336.663)" fill="rgba(0,0,0,0)"/>
      <path id="Path_41" data-name="Path 41" d="M892.605,391.084c-1.028,1.173-2.125,2.367-3.291,3.567l-16.734-12.607-2.733-2.057-.027-.021-2.678-2.022-.952-.718-2.071-1.56-4-3.008-1.346-1.015-1.593-1.2-1.167-.876-4.485-3.381-3.665-2.76L827.12,347.79a22.57,22.57,0,0,1,3.436-3.45L855.9,363.427l.124.1,2.76,2.077.78.586,1.566,1.18,2.94,2.215,4,3.009,1.76,1.325,1.262.952,1.5,1.131,1.628,1.229,3.664,2.76Z" transform="translate(-822.021 -338.674)" fill="#c8102e"/>
      <path id="Path_42" data-name="Path 42" d="M904.9,346.7l-21.025,16.43-3.533,2.76-3.671,2.871-1.56,1.222-1.2.938-1.76,1.373-3.94,3.077-1.994,1.56-.932.732-2.415,1.883-.18.145-2.581,2.015-16.492,12.9c-1.173-1.2-2.277-2.381-3.3-3.554l14.526-11.358,3.532-2.76,1.732-1.352,1.181-.925,1.58-1.235,1.346-1.056,3.94-3.078,2.961-2.311,1.386-1.084,1.408-1.1,2.125-1.656.635-.5,24.614-19.245A23.159,23.159,0,0,1,904.9,346.7Z" transform="translate(-826.112 -338.38)" fill="#c8102e"/>
      <path id="Path_38" data-name="Path 38" d="M904.089,360.882a26.354,26.354,0,0,1-.3,2.76,35.426,35.426,0,0,1-2.368,8.122c-.4.959-.848,1.932-1.352,2.919-.448.9-.952,1.829-1.5,2.76a66.682,66.682,0,0,1-5.783,8.322q-1.107,1.377-2.346,2.774c-1.029,1.173-2.125,2.367-3.292,3.568-.821.849-1.676,1.7-2.567,2.56a148.1,148.1,0,0,1-14.166,11.945q-1.345,1.014-2.76,2.036-2.65,1.9-5.52,3.85-2.878-1.946-5.521-3.85-1.417-1.025-2.76-2.036a148.845,148.845,0,0,1-13.877-11.669q-1.366-1.3-2.616-2.588c-1.173-1.2-2.276-2.381-3.3-3.554-.821-.911-1.587-1.822-2.319-2.712a66.654,66.654,0,0,1-6.044-8.646c-.552-.932-1.049-1.856-1.5-2.76-.5-.987-.952-1.96-1.353-2.919a35.484,35.484,0,0,1-2.367-8.122,26.29,26.29,0,0,1-.3-2.76,22.768,22.768,0,0,1,2.767-12.656,21.459,21.459,0,0,1,2.008-2.981,22.615,22.615,0,0,1,3.437-3.45,24.728,24.728,0,0,1,3.146-2.174,25.482,25.482,0,0,1,22.316-1.656,21.659,21.659,0,0,1,2.76,1.408,21.423,21.423,0,0,1,5.521,4.768,21.426,21.426,0,0,1,5.52-4.768,21.7,21.7,0,0,1,2.76-1.408,25.387,25.387,0,0,1,21.412,1.166,24.411,24.411,0,0,1,3.2,2.008,23.207,23.207,0,0,1,3.616,3.312,22.26,22.26,0,0,1,2.18,2.933A22.631,22.631,0,0,1,904.089,360.882Z" transform="translate(-819.855 -336.129)" fill="none"/>
      <path id="Path_43" data-name="Path 43" d="M904.109,372a25.762,25.762,0,0,1-.3,2.76,35.382,35.382,0,0,1-2.367,8.122c-.4.959-.848,1.932-1.352,2.919-.448.9-.952,1.829-1.5,2.76H825.72c-.552-.931-1.049-1.856-1.5-2.76-.5-.986-.952-1.96-1.353-2.919a35.429,35.429,0,0,1-2.367-8.122,26.014,26.014,0,0,1-.3-2.76Z" transform="translate(-819.876 -347.247)" fill="#fff"/>
      <path id="Path_43_-_Outline" data-name="Path 43 - Outline" d="M819.672,371.5H904.23l-.018.324a26.572,26.572,0,0,1-.307,2.793,35.9,35.9,0,0,1-2.387,8.191c-.411.985-.868,1.973-1.361,2.938-.439.885-.946,1.819-1.506,2.777l-.09.152h-73.22l-.089-.151c-.525-.886-1.032-1.821-1.508-2.779-.492-.964-.95-1.952-1.361-2.938A35.866,35.866,0,0,1,820,374.616a26.61,26.61,0,0,1-.307-2.792Zm83.907.614H820.323c.052.771.146,1.577.281,2.4a35.291,35.291,0,0,0,2.347,8.052c.406.972.857,1.947,1.343,2.9v0c.442.891.911,1.761,1.4,2.59H898.21c.519-.893.988-1.764,1.4-2.59l0,0c.485-.952.937-1.927,1.342-2.9a35.289,35.289,0,0,0,2.346-8.052C903.433,373.693,903.527,372.886,903.579,372.114Z" transform="translate(-819.672 -347.054)" fill="rgba(0,0,0,0)"/>
      <path id="Path_44" data-name="Path 44" d="M903.943,376a35.43,35.43,0,0,1-2.367,8.122q-.6,1.438-1.352,2.919H824.359q-.755-1.48-1.352-2.919A35.443,35.443,0,0,1,820.64,376Z" transform="translate(-820.012 -348.487)" fill="#c8102e"/>
      <path id="Path_45" data-name="Path 45" d="M884.04,340.83V410.1q-2.649,1.9-5.52,3.851-2.878-1.947-5.521-3.851V340.83a21.426,21.426,0,0,1,5.521,4.768A21.438,21.438,0,0,1,884.04,340.83Z" transform="translate(-836.241 -337.586)" fill="#c8102e"/>
      <path id="Path_5454" data-name="Path 5454" d="M904.089,360.882a26.354,26.354,0,0,1-.3,2.76,35.426,35.426,0,0,1-2.368,8.122c-.4.959-.848,1.932-1.352,2.919-.448.9-.952,1.829-1.5,2.76a66.682,66.682,0,0,1-5.783,8.322q-1.107,1.377-2.346,2.774c-1.029,1.173-2.125,2.367-3.292,3.568-.821.849-1.676,1.7-2.567,2.56a148.1,148.1,0,0,1-14.166,11.945q-1.345,1.014-2.76,2.036-2.65,1.9-5.52,3.85-2.878-1.946-5.521-3.85-1.417-1.025-2.76-2.036a148.845,148.845,0,0,1-13.877-11.669q-1.366-1.3-2.616-2.588c-1.173-1.2-2.276-2.381-3.3-3.554-.821-.911-1.587-1.822-2.319-2.712a66.654,66.654,0,0,1-6.044-8.646c-.552-.932-1.049-1.856-1.5-2.76-.5-.987-.952-1.96-1.353-2.919a35.484,35.484,0,0,1-2.367-8.122,26.29,26.29,0,0,1-.3-2.76,22.768,22.768,0,0,1,2.767-12.656,21.459,21.459,0,0,1,2.008-2.981,22.615,22.615,0,0,1,3.437-3.45,24.728,24.728,0,0,1,3.146-2.174,25.482,25.482,0,0,1,22.316-1.656,21.659,21.659,0,0,1,2.76,1.408,21.423,21.423,0,0,1,5.521,4.768,21.426,21.426,0,0,1,5.52-4.768,21.7,21.7,0,0,1,2.76-1.408,25.387,25.387,0,0,1,21.412,1.166,24.411,24.411,0,0,1,3.2,2.008,23.207,23.207,0,0,1,3.616,3.312,22.26,22.26,0,0,1,2.18,2.933A22.631,22.631,0,0,1,904.089,360.882Z" transform="translate(-819.855 -336.128)" fill="none"/>
    </g>
    <rect id="Rectangle_3456" data-name="Rectangle 3456" width="94" height="91" transform="translate(-9097.121 -5431)" fill="none"/>
  </g>
</svg>
