<svg xmlns="http://www.w3.org/2000/svg" width="34" height="33" viewBox="0 0 34 33">
  <g id="Group_2281" data-name="Group 2281" transform="translate(9097 5431)">
    <g id="Group_2277" data-name="Group 2277" transform="translate(-9095.332 -5427.414)">
      <path id="Path_36" data-name="Path 36" d="M850.578,345.105a9.551,9.551,0,0,1-.11,1,12.849,12.849,0,0,1-.859,2.945c-.145.348-.308.7-.49,1.058-.162.328-.345.663-.543,1a24.187,24.187,0,0,1-2.1,3.018q-.4.5-.851,1.006c-.373.425-.771.858-1.194,1.294-.3.308-.608.616-.931.928a53.707,53.707,0,0,1-5.137,4.332q-.488.368-1,.738-.961.691-2,1.4-1.044-.706-2-1.4-.514-.372-1-.738a53.979,53.979,0,0,1-5.032-4.231q-.5-.473-.949-.938c-.425-.435-.826-.863-1.2-1.289-.3-.33-.576-.661-.841-.984a24.166,24.166,0,0,1-2.192-3.135c-.2-.338-.381-.673-.543-1-.183-.358-.345-.711-.49-1.058a12.866,12.866,0,0,1-.858-2.945,9.536,9.536,0,0,1-.11-1,8.256,8.256,0,0,1,1-4.589,7.786,7.786,0,0,1,.728-1.081,8.2,8.2,0,0,1,1.246-1.251,8.964,8.964,0,0,1,1.141-.788,9.241,9.241,0,0,1,8.093-.6,7.852,7.852,0,0,1,1,.51,7.768,7.768,0,0,1,2,1.729,7.77,7.77,0,0,1,2-1.729,7.866,7.866,0,0,1,1-.51,9.206,9.206,0,0,1,7.765.423,8.85,8.85,0,0,1,1.161.728,8.414,8.414,0,0,1,1.311,1.2,8.081,8.081,0,0,1,.791,1.064A8.207,8.207,0,0,1,850.578,345.105Z" transform="translate(-820.032 -336.129)" fill="#012169"/>
      <path id="Path_39" data-name="Path 39" d="M862.011,343.473l-6.263,4.895-1.279,1-2.955,2.31-.53.415-.543.423-.458.358-.636.5-.335.26-.946.741-.115.09L845.978,356l-1,.783-5.032,3.931q-.5-.473-.948-.938c-.425-.436-.825-.863-1.2-1.289-.3-.33-.576-.661-.841-.983l4.014-3.136,1.281-1,2.084-1.629.638-.5.423-.33.578-.45.851-.666.548-.428.523-.41.756-.591,1.326-1.036,1-.783,7.765-6.068a8.839,8.839,0,0,1,1.161.728,8.416,8.416,0,0,1,1.312,1.2A8.088,8.088,0,0,1,862.011,343.473Z" transform="translate(-832.648 -339.391)" fill="#fff"/>
      <path id="Path_39_-_Outline" data-name="Path 39 - Outline" d="M858.183,339.887l.064.033a9.016,9.016,0,0,1,1.176.737,8.515,8.515,0,0,1,1.329,1.217,8.213,8.213,0,0,1,.8,1.078l.053.085-6.342,4.956-1.279,1-2.955,2.31-.53.415-.543.423-.458.358-.636.5-.336.261-1.06.831-1.972,1.542-1,.783-5.108,3.991-.07-.067c-.317-.3-.637-.619-.951-.941-.46-.471-.852-.893-1.2-1.293-.257-.285-.517-.589-.844-.987l-.072-.088,7.469-5.836.638-.5.423-.33.578-.45.851-.666.548-.428.523-.41,2.082-1.627,1-.783Zm3.127,3.1a7.945,7.945,0,0,0-.726-.964,8.294,8.294,0,0,0-1.294-1.185,8.777,8.777,0,0,0-1.083-.685l-7.708,6.024-1,.783-2.082,1.626-.523.41-.548.428-.851.666-.578.451-.423.33-.638.5L840.489,354l-3.924,3.065c.291.352.529.63.765.891h0c.345.4.735.816,1.192,1.284.289.3.584.589.876.869l4.956-3.872,1-.783,2.087-1.632.946-.741.336-.261.635-.5.458-.358.543-.423.53-.415,2.955-2.31,1.279-1Z" transform="translate(-832.096 -338.931)" fill="rgba(0,0,0,0)"/>
      <path id="Path_37" data-name="Path 37" d="M849.537,357.923q-.4.5-.851,1.006c-.373.425-.771.858-1.194,1.294-.3.308-.608.616-.931.928l-5.138-3.871-1-.756L838.391,355l-.117-.09-.978-.736-.35-.265-.525-.4-.573-.43-.428-.323-.638-.48L831.63,349.9l-1.329-1-6.091-4.589a7.79,7.79,0,0,1,.728-1.081,8.19,8.19,0,0,1,1.246-1.251,8.967,8.967,0,0,1,1.141-.788l8.093,6.1,1,.753,1.138.858.783.59.545.411.523.393,1.014.763.435.328.565.428.53.4L844.2,353.9l1.329,1Z" transform="translate(-823.089 -339.924)" fill="#fff"/>
      <path id="Path_37_-_Outline" data-name="Path 37 - Outline" d="M846.066,360.832l-5.214-3.929-1-.756-2.032-1.529-.118-.091-.978-.735-.351-.265-1.1-.826-.428-.323-.638-.48-4.479-3.376-6.168-4.648.047-.085a7.884,7.884,0,0,1,.739-1.1,8.311,8.311,0,0,1,1.263-1.268,9.1,9.1,0,0,1,1.155-.8l.064-.037.059.045,8.093,6.1,1,.753,1.922,1.449,1.068.8,1.449,1.091.566.428.53.4,2.247,1.694,5.427,4.088-.072.09c-.276.343-.563.683-.854,1.01-.387.441-.79.878-1.2,1.3-.275.284-.58.588-.933.931Zm-22.215-17.018,7.342,5.532,4.217,3.178,1.1.826.351.265.978.736.119.091,2.031,1.528,1,.756,5.061,3.814c.323-.314.6-.6.86-.859.4-.417.805-.851,1.19-1.29.264-.3.524-.6.776-.913l-5.243-3.949-2.247-1.694-.53-.4-.566-.428-1.448-1.091-1.069-.8-1.922-1.449-1-.753-8.033-6.054a8.888,8.888,0,0,0-1.063.741,8.1,8.1,0,0,0-1.229,1.234A7.715,7.715,0,0,0,823.851,343.815Z" transform="translate(-822.585 -339.458)" fill="rgba(0,0,0,0)"/>
      <path id="Path_40" data-name="Path 40" d="M875.006,338.79v24.894q-.488.368-1,.738-.961.691-2,1.4-1.044-.706-2-1.4-.514-.372-1-.738V338.79a7.848,7.848,0,0,1,1,.511,7.767,7.767,0,0,1,2,1.729,7.857,7.857,0,0,1,3-2.24Z" transform="translate(-856.671 -338.124)" fill="#fff"/>
      <path id="Path_40_-_Outline" data-name="Path 40 - Outline" d="M868.5,338.035l.155.065a8,8,0,0,1,1.015.518,7.877,7.877,0,0,1,1.944,1.651,7.872,7.872,0,0,1,1.945-1.651,7.985,7.985,0,0,1,1.015-.518l.155-.065v25.117l-.044.033c-.32.242-.648.483-1,.74-.667.479-1.341.95-2,1.4l-.062.042-.062-.042c-.664-.449-1.339-.92-2-1.4-.356-.257-.684-.5-1-.74l-.045-.033Zm6.006,25.006V338.374a7.74,7.74,0,0,0-2.806,2.14l-.086.1-.086-.1a7.667,7.667,0,0,0-1.973-1.7,7.751,7.751,0,0,0-.832-.436v24.668c.3.229.617.459.955.7.643.462,1.295.917,1.937,1.352.642-.435,1.293-.89,1.937-1.352C873.888,363.5,874.2,363.271,874.506,363.041Z" transform="translate(-856.282 -337.538)" fill="rgba(0,0,0,0)"/>
      <path id="Path_41" data-name="Path 41" d="M850.867,361.291c-.373.425-.771.858-1.194,1.294l-6.068-4.572-.991-.746-.01-.008-.971-.733-.345-.26-.751-.566-1.449-1.091-.488-.368-.578-.435-.423-.318-1.626-1.226-1.329-1-7.525-5.67a8.184,8.184,0,0,1,1.246-1.251l9.189,6.922.045.035,1,.753.283.213.568.428,1.066.8,1.449,1.091.638.48.458.345.543.41.59.446,1.329,1Z" transform="translate(-825.271 -342.285)" fill="#c8102e"/>
      <path id="Path_42" data-name="Path 42" d="M863.74,344.591l-7.625,5.958-1.281,1-1.331,1.041-.566.443-.435.34-.638.5-1.429,1.116-.723.566-.338.265-.876.683-.065.053-.936.731-5.981,4.677c-.426-.435-.826-.863-1.2-1.289l5.268-4.119,1.281-1,.628-.49.428-.335.573-.448.488-.383,1.429-1.116,1.074-.838.5-.393.511-.4.771-.6.23-.18,8.926-6.979A8.4,8.4,0,0,1,863.74,344.591Z" transform="translate(-835.168 -341.573)" fill="#c8102e"/>
      <path id="Path_38" data-name="Path 38" d="M850.578,345.105a9.551,9.551,0,0,1-.11,1,12.849,12.849,0,0,1-.859,2.945c-.145.348-.308.7-.49,1.058-.162.328-.345.663-.543,1a24.187,24.187,0,0,1-2.1,3.018q-.4.5-.851,1.006c-.373.425-.771.858-1.194,1.294-.3.308-.608.616-.931.928a53.707,53.707,0,0,1-5.137,4.332q-.488.368-1,.738-.961.691-2,1.4-1.044-.706-2-1.4-.514-.372-1-.738a53.979,53.979,0,0,1-5.032-4.231q-.5-.473-.949-.938c-.425-.435-.826-.863-1.2-1.289-.3-.33-.576-.661-.841-.984a24.166,24.166,0,0,1-2.192-3.135c-.2-.338-.381-.673-.543-1-.183-.358-.345-.711-.49-1.058a12.866,12.866,0,0,1-.858-2.945,9.536,9.536,0,0,1-.11-1,8.256,8.256,0,0,1,1-4.589,7.786,7.786,0,0,1,.728-1.081,8.2,8.2,0,0,1,1.246-1.251,8.964,8.964,0,0,1,1.141-.788,9.241,9.241,0,0,1,8.093-.6,7.852,7.852,0,0,1,1,.51,7.768,7.768,0,0,1,2,1.729,7.77,7.77,0,0,1,2-1.729,7.866,7.866,0,0,1,1-.51,9.206,9.206,0,0,1,7.765.423,8.85,8.85,0,0,1,1.161.728,8.414,8.414,0,0,1,1.311,1.2,8.081,8.081,0,0,1,.791,1.064A8.207,8.207,0,0,1,850.578,345.105Z" transform="translate(-820.032 -336.129)" fill="none"/>
      <path id="Path_43" data-name="Path 43" d="M850.629,372a9.352,9.352,0,0,1-.11,1,12.834,12.834,0,0,1-.858,2.945c-.145.348-.308.7-.49,1.058-.162.328-.345.663-.543,1H822.2c-.2-.338-.38-.673-.543-1-.183-.358-.345-.711-.49-1.058A12.846,12.846,0,0,1,820.31,373a9.431,9.431,0,0,1-.11-1Z" transform="translate(-820.083 -363.024)" fill="#fff"/>
      <path id="Path_43_-_Outline" data-name="Path 43 - Outline" d="M819.672,371.5h30.664l-.006.117a9.664,9.664,0,0,1-.111,1.013,13.021,13.021,0,0,1-.866,2.971c-.149.357-.315.716-.494,1.066-.159.321-.343.66-.546,1.007l-.032.055H821.728l-.032-.055c-.19-.321-.374-.66-.547-1.008s-.345-.708-.493-1.066a13.011,13.011,0,0,1-.866-2.971,9.644,9.644,0,0,1-.111-1.012Zm30.428.223H819.908c.019.279.053.572.1.872a12.8,12.8,0,0,0,.851,2.92c.147.353.311.706.487,1.051h0c.16.323.331.639.507.939h26.3c.188-.324.358-.64.507-.939h0c.176-.345.34-.7.487-1.051a12.8,12.8,0,0,0,.851-2.92C850.047,372.3,850.081,372,850.1,371.723Z" transform="translate(-819.672 -362.635)" fill="rgba(0,0,0,0)"/>
      <path id="Path_44" data-name="Path 44" d="M850.849,376a12.852,12.852,0,0,1-.858,2.945q-.218.522-.49,1.059H821.989q-.274-.537-.49-1.059A12.852,12.852,0,0,1,820.64,376Z" transform="translate(-820.412 -366.023)" fill="#c8102e"/>
      <path id="Path_45" data-name="Path 45" d="M877,340.83v25.121q-.961.691-2,1.4-1.044-.706-2-1.4V340.83a7.77,7.77,0,0,1,2,1.729A7.775,7.775,0,0,1,877,340.83Z" transform="translate(-859.67 -339.654)" fill="#c8102e"/>
      <path id="Path_5454" data-name="Path 5454" d="M850.578,345.105a9.551,9.551,0,0,1-.11,1,12.849,12.849,0,0,1-.859,2.945c-.145.348-.308.7-.49,1.058-.162.328-.345.663-.543,1a24.187,24.187,0,0,1-2.1,3.018q-.4.5-.851,1.006c-.373.425-.771.858-1.194,1.294-.3.308-.608.616-.931.928a53.707,53.707,0,0,1-5.137,4.332q-.488.368-1,.738-.961.691-2,1.4-1.044-.706-2-1.4-.514-.372-1-.738a53.979,53.979,0,0,1-5.032-4.231q-.5-.473-.949-.938c-.425-.435-.826-.863-1.2-1.289-.3-.33-.576-.661-.841-.984a24.166,24.166,0,0,1-2.192-3.135c-.2-.338-.381-.673-.543-1-.183-.358-.345-.711-.49-1.058a12.866,12.866,0,0,1-.858-2.945,9.536,9.536,0,0,1-.11-1,8.256,8.256,0,0,1,1-4.589,7.786,7.786,0,0,1,.728-1.081,8.2,8.2,0,0,1,1.246-1.251,8.964,8.964,0,0,1,1.141-.788,9.241,9.241,0,0,1,8.093-.6,7.852,7.852,0,0,1,1,.51,7.768,7.768,0,0,1,2,1.729,7.77,7.77,0,0,1,2-1.729,7.866,7.866,0,0,1,1-.51,9.206,9.206,0,0,1,7.765.423,8.85,8.85,0,0,1,1.161.728,8.414,8.414,0,0,1,1.311,1.2,8.081,8.081,0,0,1,.791,1.064A8.207,8.207,0,0,1,850.578,345.105Z" transform="translate(-820.032 -336.129)" fill="none"/>
    </g>
    <rect id="Rectangle_3456" data-name="Rectangle 3456" width="34" height="33" transform="translate(-9097 -5431)" fill="none"/>
  </g>
</svg>
