<svg xmlns="http://www.w3.org/2000/svg" xmlns:xlink="http://www.w3.org/1999/xlink" width="35" height="25" viewBox="0 0 35 25">
  <defs>
    <clipPath id="clip-path">
      <rect id="Rectangle_3525" data-name="Rectangle 3525" width="11.684" height="19.094" fill="#a82024"/>
    </clipPath>
  </defs>
  <g id="Group_2442" data-name="Group 2442" transform="translate(-857 -966)">
    <rect id="Rectangle_3510" data-name="Rectangle 3510" width="35" height="25" transform="translate(857 966)" fill="#fff"/>
    <g id="Group_2441" data-name="Group 2441">
      <g id="Group_2440" data-name="Group 2440" transform="translate(864.307 968.629)">
        <g id="Group_2437" data-name="Group 2437" transform="translate(0 0)" clip-path="url(#clip-path)">
          <path id="Path_5629" data-name="Path 5629" d="M11.026,4.381,6.68.563a1.254,1.254,0,0,0-1.657,0L.677,4.381a1.258,1.258,0,0,0-.427.943V17.608a1.255,1.255,0,0,0,1.255,1.254H10.2a1.255,1.255,0,0,0,1.255-1.254V5.324a1.258,1.258,0,0,0-.427-.943M5.851,3.522a.8.8,0,1,1,.8-.8.8.8,0,0,1-.8.8" transform="translate(-0.009 -0.009)" fill="#a82024"/>
          <path id="Path_5630" data-name="Path 5630" d="M11.026,4.381,6.68.563a1.254,1.254,0,0,0-1.657,0L.677,4.381a1.258,1.258,0,0,0-.427.943V17.608a1.255,1.255,0,0,0,1.255,1.254H10.2a1.255,1.255,0,0,0,1.255-1.254V5.324A1.258,1.258,0,0,0,11.026,4.381ZM5.851,3.522a.8.8,0,1,1,.8-.8A.8.8,0,0,1,5.851,3.522Z" transform="translate(-0.009 -0.009)" fill="#a82024"/>
        </g>
      </g>
      <path id="Path_5634" data-name="Path 5634" d="M5.424,0h7.51a5.424,5.424,0,1,1,0,10.848H5.424A5.424,5.424,0,0,1,5.424,0Z" transform="translate(866.336 974.373)" fill="#fff"/>
      <path id="Path_5633" data-name="Path 5633" d="M-5.652.077A1.851,1.851,0,0,1-6.874-.357a1.441,1.441,0,0,1-.549-1.085h.994a.725.725,0,0,0,.277.413.808.808,0,0,0,.5.161.744.744,0,0,0,.57-.221.773.773,0,0,0,.207-.549.756.756,0,0,0-.214-.553.737.737,0,0,0-.549-.217.842.842,0,0,0-.49.14.75.75,0,0,0-.287.378l-.847-.259L-6.7-4.97H-4.28v.931H-5.96l-.189.931a1.266,1.266,0,0,1,.686-.168A1.43,1.43,0,0,1-4.34-2.8a1.794,1.794,0,0,1,.423,1.239A1.551,1.551,0,0,1-4.4-.371,1.766,1.766,0,0,1-5.652.077Zm4.228,0A1.749,1.749,0,0,1-2.761-.476,1.986,1.986,0,0,1-3.279-1.89v-1.2A1.976,1.976,0,0,1-2.761-4.5a1.749,1.749,0,0,1,1.337-.553A1.741,1.741,0,0,1-.094-4.5,1.976,1.976,0,0,1,.424-3.094v1.2A1.986,1.986,0,0,1-.094-.476,1.741,1.741,0,0,1-1.424.077Zm-.651-1.218a.832.832,0,0,0,.651.273.821.821,0,0,0,.647-.273A1.091,1.091,0,0,0-.535-1.89v-1.2a1.077,1.077,0,0,0-.241-.745.826.826,0,0,0-.647-.27.837.837,0,0,0-.651.27,1.067,1.067,0,0,0-.245.745v1.2A1.081,1.081,0,0,0-2.075-1.141ZM3.132,0H2.138l3.15-4.97h.994ZM6.065.056A1.324,1.324,0,0,1,5.089-.35a1.333,1.333,0,0,1-.4-.973,1.33,1.33,0,0,1,.4-.977,1.33,1.33,0,0,1,.977-.4,1.333,1.333,0,0,1,.973.4,1.324,1.324,0,0,1,.406.977,1.327,1.327,0,0,1-.406.973A1.327,1.327,0,0,1,6.065.056Zm-.4-.98a.545.545,0,0,0,.4.168.522.522,0,0,0,.392-.168.557.557,0,0,0,.161-.4.557.557,0,0,0-.161-.4.522.522,0,0,0-.392-.168.534.534,0,0,0-.4.168.551.551,0,0,0-.164.4A.557.557,0,0,0,5.667-.924ZM2.355-2.268a1.324,1.324,0,0,1-.976-.406,1.333,1.333,0,0,1-.4-.973,1.33,1.33,0,0,1,.4-.976,1.33,1.33,0,0,1,.976-.4,1.333,1.333,0,0,1,.973.4,1.324,1.324,0,0,1,.406.976,1.327,1.327,0,0,1-.406.973A1.327,1.327,0,0,1,2.355-2.268Zm-.4-.98a.545.545,0,0,0,.4.168.534.534,0,0,0,.4-.168.551.551,0,0,0,.164-.4.551.551,0,0,0-.164-.4.534.534,0,0,0-.4-.168.534.534,0,0,0-.4.168.551.551,0,0,0-.165.4A.557.557,0,0,0,1.956-3.248Z" transform="translate(876.839 982.207)" fill="#a82024"/>
    </g>
  </g>
</svg>
