<svg xmlns="http://www.w3.org/2000/svg" width="35" height="25" viewBox="0 0 35 25">
  <g id="Group_2382" data-name="Group 2382" transform="translate(-697.762 -2247)">
    <rect id="Rectangle_3510" data-name="Rectangle 3510" width="35" height="25" transform="translate(697.762 2247)" fill="#fff"/>
    <g id="Group_2379" data-name="Group 2379" transform="translate(704.707 2252.668)">
      <path id="Subtraction_22" data-name="Subtraction 22" d="M12.839,13.675h-5.8a.98.98,0,0,1-.888-.558L.066.872A.578.578,0,0,1,.088.3.651.651,0,0,1,.626,0a.577.577,0,0,1,.487.273L6.555,6.732,15.322,5.2A.951.951,0,0,1,15.5,5.18a.889.889,0,0,1,.733.391.878.878,0,0,1,.09.825l-2.632,6.7A.913.913,0,0,1,12.839,13.675ZM9.964,8.667a.551.551,0,0,0-.369.142l-.818.737a.555.555,0,0,0-.04.777.551.551,0,0,0,.777.04l.821-.737a.534.534,0,0,0,.18-.377.555.555,0,0,0-.551-.583Zm6.268.085h0l.9-2.466,4.237-.414c.026,0,.057,0,.091,0A1.121,1.121,0,0,1,21.556,8.1l-5.322.646Z" transform="translate(0 0)" fill="#17494d"/>
    </g>
  </g>
</svg>
