<svg xmlns="http://www.w3.org/2000/svg" xmlns:xlink="http://www.w3.org/1999/xlink" width="34" height="33" viewBox="0 0 34 33">
  <defs>
    <clipPath id="clip-path">
      <rect id="Rectangle_3250" data-name="Rectangle 3250" width="29.574" height="24.604" fill="#17494d"/>
    </clipPath>
  </defs>
  <g id="Group_2279" data-name="Group 2279" transform="translate(9097 5521)">
    <g id="Group_2274" data-name="Group 2274" transform="translate(-9905.223 -9178.397)">
      <path id="Path_2107" data-name="Path 2107" d="M-14099.644,584.493a19.106,19.106,0,0,0,4.052-1.562v2.407s.9,1.121,5.909,1.4,6.946-.97,6.946-.97l-.382-7.749a7.991,7.991,0,0,0-3.117-3.219,12.314,12.314,0,0,0-5.328-1.02s-5.533-.114-8.08,1.835a7.322,7.322,0,0,0-2.6,5.255S-14100.919,584.647-14099.644,584.493Z" transform="translate(14913.521 3088.324)" fill="#fff"/>
      <g id="Group_1761" data-name="Group 1761" transform="translate(810.768 3661.497)">
        <path id="Path_2105" data-name="Path 2105" d="M-21734.088-8716.834l.2,9.079s3.041,6.969,14.563,6.162,13.973-6.4,13.973-6.4l-.437-8.2s-4.607,5.156-14.375,5.206S-21734.088-8716.834-21734.088-8716.834Z" transform="translate(21734.588 8725.697)" fill="#a5e3e8"/>
        <g id="Group_1756" data-name="Group 1756" transform="translate(0 0)">
          <g id="Group_1756-2" data-name="Group 1756" transform="translate(0 0)" clip-path="url(#clip-path)">
            <path id="Path_2104" data-name="Path 2104" d="M29.19,8.133a.536.536,0,0,0-.6.225c-1.424,2.231-4.254,4-7.968,5A25.154,25.154,0,0,1,8.8,13.569a14.437,14.437,0,0,1-4.641-1.861,12.092,12.092,0,0,1,2.7-1.032V11.77a.722.722,0,0,0,.49.688l.01,0a.428.428,0,0,0,.568-.4V8.6a6.068,6.068,0,0,0,2.687,1.268,11.052,11.052,0,0,0,5.2-.093,6.823,6.823,0,0,0,3.248-1.787V12.4a.482.482,0,0,0,.58.471l.015,0a.6.6,0,0,0,.475-.583V5.427l0-.009a3.5,3.5,0,0,0-.272-1.34c-.7-1.7-2.7-3.072-5.364-3.673A16.988,16.988,0,0,0,6.518.55,9.356,9.356,0,0,0,.907,4.125,5.436,5.436,0,0,0,0,7.118l0,.024V16.4a6.124,6.124,0,0,0,2.291,4.589,14.018,14.018,0,0,0,6.275,2.985,26.155,26.155,0,0,0,5.72.626,25.772,25.772,0,0,0,6.611-.848c3.977-1.065,7.03-3,8.6-5.462a.533.533,0,0,0,.081-.284V8.646a.535.535,0,0,0-.384-.513M10.521,5.281a.561.561,0,0,0-.662.282,1.365,1.365,0,0,0-.181.63l0,.015V8.446A3,3,0,0,1,8.04,7a1.377,1.377,0,0,1,.146-1.328c.686-1.075,2.869-1.622,4.767-1.194A2.31,2.31,0,0,1,14.62,5.537a.692.692,0,0,1-.077.673c-.435.681-1.849.9-2.849.679a1.278,1.278,0,0,1-.931-.561.274.274,0,0,1-.019-.1V6.219a.307.307,0,0,1,.053-.143.535.535,0,0,0-.277-.795m4.154,3.65a10.038,10.038,0,0,1-3.929-.126l0,0V7.681a3.216,3.216,0,0,0,.716.251A4.543,4.543,0,0,0,14.675,7.5ZM1.806,4.7A8.336,8.336,0,0,1,6.795,1.583a15.9,15.9,0,0,1,7.473-.134c2.319.523,4.042,1.658,4.608,3.036a2.438,2.438,0,0,1-.251,2.35A5.09,5.09,0,0,1,15.743,8.69V5.716a.565.565,0,0,0-.015-.122,1.746,1.746,0,0,0-.12-.464,3.242,3.242,0,0,0-2.419-1.691c-2.374-.535-4.968.194-5.9,1.662a2.572,2.572,0,0,0-.409,1.183.47.47,0,0,0-.012.11V9.576a12.835,12.835,0,0,0-3.645,1.44C.989,9.153.458,6.814,1.806,4.7m26.7,13.153c-1.448,2.169-4.24,3.9-7.884,4.872A25.176,25.176,0,0,1,8.8,22.935C4.08,21.871.972,19.206,1.068,16.307V10.263a7.533,7.533,0,0,0,.75.907v3.458a.548.548,0,0,0,.4.538.536.536,0,0,0,.673-.518V12.119a10.976,10.976,0,0,0,.946.643v5.684a.547.547,0,0,0,.4.538.535.535,0,0,0,.673-.516V13.347A15.333,15.333,0,0,0,6.456,14l0,.022v3.511a.545.545,0,0,0,.4.538.535.535,0,0,0,.673-.516V14.343q.511.147,1.044.268c.188.043.377.081.566.119v5.463a.548.548,0,0,0,.4.54.535.535,0,0,0,.671-.518V14.921q.782.124,1.572.2v3.4a.548.548,0,0,0,.4.54.535.535,0,0,0,.671-.518V15.2c.53.029,1.061.043,1.591.04v5.6a.55.55,0,0,0,.4.538.536.536,0,0,0,.673-.518V15.21c.557-.024,1.115-.067,1.667-.129v3.327a.548.548,0,0,0,.4.538.535.535,0,0,0,.671-.518V14.94q.756-.114,1.5-.274V20a.547.547,0,0,0,.4.538.534.534,0,0,0,.671-.516V14.414l.095-.024c.523-.139,1.027-.3,1.515-.464v3.193a.546.546,0,0,0,.4.537.534.534,0,0,0,.671-.516V13.6a.614.614,0,0,0-.007-.079q.821-.335,1.56-.728v4.762a.547.547,0,0,0,.4.538.535.535,0,0,0,.673-.516v-5.4q.372-.237.717-.489V19.76a.549.549,0,0,0,.4.54.536.536,0,0,0,.673-.518V10.817c.217-.2.423-.4.616-.612Z" transform="translate(0 -0.001)" fill="#17494d"/>
          </g>
        </g>
      </g>
    </g>
    <rect id="Rectangle_3458" data-name="Rectangle 3458" width="34" height="33" transform="translate(-9097 -5521)" fill="none"/>
  </g>
</svg>
