<svg xmlns="http://www.w3.org/2000/svg" width="28" height="25" viewBox="0 0 28 25">
  <g id="Group_2449" data-name="Group 2449" transform="translate(-841 -933)">
    <rect id="Rectangle_3528" data-name="Rectangle 3528" width="28" height="25" transform="translate(841 933)" fill="#fff"/>
    <g id="Group_2443" data-name="Group 2443" transform="translate(41.012 -277.117)">
      <g id="Group_2329" data-name="Group 2329" transform="translate(807.597 1226.918)">
        <g id="Group_2328" data-name="Group 2328" transform="translate(0 0)">
          <path id="Union_44" data-name="Union 44" d="M4.379,5.542.409,3.335a.5.5,0,0,1,0-.874L4.379.256a.5.5,0,0,1,.742.436v1.06a14.257,14.257,0,0,0,3.37-.185A20.859,20.859,0,0,0,12.885,0a26.367,26.367,0,0,1-4.1,3.245A8.849,8.849,0,0,1,5.122,4.358V5.1a.5.5,0,0,1-.742.437Z" transform="translate(0 0)" fill="#767676"/>
        </g>
        <g id="Group_2166" data-name="Group 2166" transform="translate(0 0)">
          <path id="Union_44-2" data-name="Union 44" d="M4.379,5.542.409,3.335a.5.5,0,0,1,0-.874L4.379.256a.5.5,0,0,1,.742.436v1.06a14.257,14.257,0,0,0,3.37-.185A20.859,20.859,0,0,0,12.885,0a26.367,26.367,0,0,1-4.1,3.245A8.849,8.849,0,0,1,5.122,4.358V5.1a.5.5,0,0,1-.742.437Z" transform="translate(0 0)" fill="none"/>
        </g>
      </g>
      <path id="Union_45" data-name="Union 45" d="M4.1,2.461A8.834,8.834,0,0,1,7.763,1.346V.6A.5.5,0,0,1,8.506.163l3.971,2.206a.5.5,0,0,1,0,.875L8.506,5.45a.5.5,0,0,1-.743-.437V3.952a14.257,14.257,0,0,0-3.37.185A20.838,20.838,0,0,0,0,5.705,26.367,26.367,0,0,1,4.1,2.461Z" transform="translate(807.492 1212.611)" fill="#767676"/>
      <path id="Path_5318" data-name="Path 5318" d="M.828-10.767v-.318h.4a2.36,2.36,0,0,1-.136-.7,1.174,1.174,0,0,1,.367-.833A1.213,1.213,0,0,1,2.369-13a1.218,1.218,0,0,1,.921.389,1.34,1.34,0,0,1,.381.924H2.892a.542.542,0,0,0-.151-.387.492.492,0,0,0-.372-.159.484.484,0,0,0-.358.136.5.5,0,0,0-.136.37,1.957,1.957,0,0,0,.159.637h.972v.318H2.141a1.674,1.674,0,0,1,.1.563,1.084,1.084,0,0,1-.153.546H3.671v.767H.828v-.767h.506a1.114,1.114,0,0,0,.131-.523,2.245,2.245,0,0,0-.119-.586ZM6.894-9.659v.767H4.142v-.267a1.463,1.463,0,0,1,.034-.318,1.633,1.633,0,0,1,.082-.27A1.073,1.073,0,0,1,4.4-9.989q.1-.125.165-.2a1.685,1.685,0,0,1,.208-.193q.139-.114.213-.168t.233-.165l.222-.156q.637-.443.637-.83a.519.519,0,0,0-.142-.375.519.519,0,0,0-.392-.148.62.62,0,0,0-.441.162.515.515,0,0,0-.168.406H4.154a1.255,1.255,0,0,1,.4-.964A1.425,1.425,0,0,1,5.564-13a1.348,1.348,0,0,1,.918.33,1.151,1.151,0,0,1,.378.915,1.4,1.4,0,0,1-.208.793,2.621,2.621,0,0,1-.645.628l-.2.139q-.165.111-.25.173a1.849,1.849,0,0,0-.19.165.557.557,0,0,0-.139.193Zm2.069.83a1.421,1.421,0,0,1-1.086-.449,1.613,1.613,0,0,1-.421-1.148V-11.4a1.605,1.605,0,0,1,.421-1.143A1.421,1.421,0,0,1,8.963-13a1.414,1.414,0,0,1,1.08.449,1.605,1.605,0,0,1,.421,1.143v.978a1.613,1.613,0,0,1-.421,1.148A1.414,1.414,0,0,1,8.963-8.829Zm-.529-.989a.676.676,0,0,0,.529.222.667.667,0,0,0,.526-.222.886.886,0,0,0,.2-.608V-11.4a.875.875,0,0,0-.2-.605.671.671,0,0,0-.526-.219.68.68,0,0,0-.529.219.867.867,0,0,0-.2.605v.978A.878.878,0,0,0,8.435-9.818Zm4.116.989a1.421,1.421,0,0,1-1.086-.449,1.613,1.613,0,0,1-.421-1.148V-11.4a1.605,1.605,0,0,1,.421-1.143A1.421,1.421,0,0,1,12.551-13a1.414,1.414,0,0,1,1.08.449,1.605,1.605,0,0,1,.421,1.143v.978a1.613,1.613,0,0,1-.421,1.148A1.414,1.414,0,0,1,12.551-8.829Zm-.529-.989a.676.676,0,0,0,.529.222.667.667,0,0,0,.526-.222.886.886,0,0,0,.2-.608V-11.4a.875.875,0,0,0-.2-.605.671.671,0,0,0-.526-.219.68.68,0,0,0-.529.219.867.867,0,0,0-.2.605v.978A.878.878,0,0,0,12.022-9.818Z" transform="translate(806.548 1233.271)" fill="#767676"/>
    </g>
  </g>
</svg>
