<svg xmlns="http://www.w3.org/2000/svg" width="34" height="33" viewBox="0 0 34 33">
  <g id="Group_2280" data-name="Group 2280" transform="translate(9097 5475)">
    <g id="Group_2278" data-name="Group 2278" transform="translate(-9490.482 -5619.615)">
      <rect id="Rectangle_3223" data-name="Rectangle 3223" width="12.768" height="10.725" transform="translate(404.055 159.227)" fill="#a5e3e8"/>
      <path id="Path_2060" data-name="Path 2060" d="M45.358,80.043v.026a1.747,1.747,0,0,1-.822,1.481l-7.706,4.8a2.44,2.44,0,0,1-1.293.371H24.05V78.707a.9.9,0,0,0,.385-.088l.608-.295a5.741,5.741,0,0,1,4.8-.093l.917.4a.893.893,0,0,0,.359.076h4.238a1.764,1.764,0,0,1,1.281.551,1.524,1.524,0,0,1,.038,2.051,1.875,1.875,0,0,1-.637.473,1.906,1.906,0,0,1-.775.166H36.3a.86.86,0,0,0,.4-.1l6.227-3.206a1.719,1.719,0,0,1,1.557-.007l.021.012A1.557,1.557,0,0,1,45.358,80.043Z" transform="translate(378.47 88.058)" fill="#fff"/>
      <path id="Path_2060_-_Outline" data-name="Path 2060 - Outline" d="M27.053,76.752a6.216,6.216,0,0,1,2.5.522l.917.4a.384.384,0,0,0,.155.034h4.238a2.283,2.283,0,0,1,1.652.711,2.035,2.035,0,0,1,.475,1.963L42.2,77.7a2.23,2.23,0,0,1,2.019-.01l.032.017a2.056,2.056,0,0,1,1.132,1.844v.026a2.272,2.272,0,0,1-1.063,1.914l-7.706,4.8a2.944,2.944,0,0,1-1.563.448h-12V77.707h.511a.392.392,0,0,0,.166-.038l.605-.293A6.289,6.289,0,0,1,27.053,76.752Zm8.284,4.076a1.356,1.356,0,0,0,.462-.343,1.014,1.014,0,0,0-.025-1.365,1.257,1.257,0,0,0-.91-.391H30.627a1.4,1.4,0,0,1-.564-.119l-.917-.4a5.2,5.2,0,0,0-2.094-.437,5.261,5.261,0,0,0-2.277.521l-.613.3q-.046.021-.092.04v7.093H35.048a1.924,1.924,0,0,0,1.022-.293l7.706-4.8a1.243,1.243,0,0,0,.582-1.047v-.026a1.041,1.041,0,0,0-.578-.936l-.03-.016a1.209,1.209,0,0,0-1.087.009l-6.226,3.206a1.376,1.376,0,0,1-.631.154H34.772V80.949A1.385,1.385,0,0,0,35.337,80.827Z" transform="translate(378.959 88.547)" fill="#3a6469"/>
      <path id="Path_2053" data-name="Path 2053" d="M27.053,76.752a6.216,6.216,0,0,1,2.5.522l.917.4a.384.384,0,0,0,.155.034h4.238a2.283,2.283,0,0,1,1.652.711,2.035,2.035,0,0,1,.475,1.963L42.2,77.7a2.23,2.23,0,0,1,2.019-.01l.032.017a2.056,2.056,0,0,1,1.132,1.844v.026a2.272,2.272,0,0,1-1.063,1.914l-7.706,4.8a2.944,2.944,0,0,1-1.563.448h-12V77.707h.511a.392.392,0,0,0,.166-.038l.605-.293A6.289,6.289,0,0,1,27.053,76.752Zm8.284,4.076a1.356,1.356,0,0,0,.462-.343,1.014,1.014,0,0,0-.025-1.365,1.257,1.257,0,0,0-.91-.391H30.627a1.4,1.4,0,0,1-.564-.119l-.917-.4a5.2,5.2,0,0,0-2.094-.437,5.261,5.261,0,0,0-2.277.521l-.613.3q-.046.021-.092.04v7.093H35.048a1.924,1.924,0,0,0,1.022-.293l7.706-4.8a1.243,1.243,0,0,0,.582-1.047v-.026a1.041,1.041,0,0,0-.578-.936l-.03-.016a1.209,1.209,0,0,0-1.087.009l-6.226,3.206a1.376,1.376,0,0,1-.631.154H34.772V80.949A1.385,1.385,0,0,0,35.337,80.827Z" transform="translate(378.959 88.547)" fill="#17494d"/>
      <path id="Line_5" data-name="Line 5" d="M5.462.021H0V-1H5.462Z" transform="translate(397.058 175.271)" fill="#17494d"/>
      <path id="Line_6" data-name="Line 6" d="M4.067.021H0V-1H4.067Z" transform="translate(409.665 170.496)" fill="#17494d"/>
      <path id="Line_7" data-name="Line 7" d="M5.716.021H0V-1H5.716Z" transform="translate(396.805 167.254)" fill="#17494d"/>
      <path id="Path_2054" data-name="Path 2054" d="M69.587,58.552H68.565V49.161H64.18V48.14H68.6a.99.99,0,0,1,.988.988Z" transform="translate(347.879 110.358)" fill="#17494d"/>
      <path id="Path_2055" data-name="Path 2055" d="M30.751,55.705H29.73V49.128a.99.99,0,0,1,.988-.988H35.4v1.021H30.751Z" transform="translate(373.867 110.358)" fill="#17494d"/>
      <path id="Path_2056" data-name="Path 2056" d="M55.23,49.14v2.315a.474.474,0,0,1-.475.475h-1.84a.475.475,0,0,1-.475-.475V49.14Z" transform="translate(356.827 109.869)" fill="#fff"/>
      <path id="Path_2056_-_Outline" data-name="Path 2056 - Outline" d="M51.44,48.14h3.812v2.826a.987.987,0,0,1-.986.986h-1.84a.987.987,0,0,1-.986-.986Zm2.79,1.021H52.461V50.93H54.23Z" transform="translate(357.316 110.358)" fill="#17494d"/>
      <path id="Path_2057" data-name="Path 2057" d="M52.285,27.016H49.871V25.994h2.414a1.539,1.539,0,1,0,0-3.078H42.077a3.448,3.448,0,1,1,0-6.9h4.006v1.021H42.077a2.427,2.427,0,1,0,0,4.853H52.285a2.561,2.561,0,1,1,0,5.121Z" transform="translate(367.083 134.844)" fill="#17494d"/>
      <path id="Path_2058" data-name="Path 2058" d="M72.478.5H63.311a1.008,1.008,0,0,0-.887.414L59.86,4.426l2.557,3.513c.292.323.528.625.894.625h9.167a.663.663,0,0,0,.663-.663V1.163A.663.663,0,0,0,72.478.5ZM63.214,5.741a1.207,1.207,0,1,1,1.207-1.207A1.209,1.209,0,0,1,63.214,5.741Z" transform="translate(351.171 146.948)" fill="#a5e3e8"/>
      <path id="Path_2058_-_Outline" data-name="Path 2058 - Outline" d="M62.706-.5h9.167A1.175,1.175,0,0,1,73.047.674V7.412a1.175,1.175,0,0,1-1.174,1.174H62.706a1.615,1.615,0,0,1-1.2-.712l-.073-.081-.018-.02L58.622,3.937,61.421.1l.016-.018A1.508,1.508,0,0,1,62.706-.5Zm9.167,8.064a.153.153,0,0,0,.152-.152V.674a.153.153,0,0,0-.152-.152H62.706a.5.5,0,0,0-.489.225l-2.33,3.192,2.323,3.19.058.065c.171.191.332.372.438.372ZM62.608,2.326A1.718,1.718,0,1,1,60.89,4.044,1.72,1.72,0,0,1,62.608,2.326Zm0,2.415a.7.7,0,1,0-.7-.7A.7.7,0,0,0,62.608,4.741Z" transform="translate(351.777 147.438)" fill="#17494d"/>
      <path id="Ellipse_549" data-name="Ellipse 549" d="M.718-1A1.718,1.718,0,1,1-1,.718,1.72,1.72,0,0,1,.718-1Zm0,2.415a.7.7,0,1,0-.7-.7A.7.7,0,0,0,.718,1.415Z" transform="translate(413.667 150.763)" fill="#3a6469"/>
      <path id="Ellipse_550" data-name="Ellipse 550" d="M.718-1A1.718,1.718,0,1,1-1,.718,1.72,1.72,0,0,1,.718-1Zm0,2.415a.7.7,0,1,0-.7-.7A.7.7,0,0,0,.718,1.415Z" transform="translate(413.667 150.763)" fill="#17494d"/>
      <path id="Path_2059" data-name="Path 2059" d="M11.41,98.895A1.208,1.208,0,1,1,10.2,97.687,1.208,1.208,0,0,1,11.41,98.895Z" transform="translate(389.46 72.861)" fill="#a5e3e8"/>
      <path id="Path_2059_-_Outline" data-name="Path 2059 - Outline" d="M9.713,96.687A1.718,1.718,0,1,1,8,98.405,1.72,1.72,0,0,1,9.713,96.687Zm0,2.415a.7.7,0,1,0-.7-.7A.7.7,0,0,0,9.713,99.1Z" transform="translate(389.949 73.35)" fill="#17494d"/>
      <path id="Path_5455" data-name="Path 5455" d="M-2.728-5.74v-.315h.4a2.332,2.332,0,0,1-.135-.691A1.16,1.16,0,0,1-2.1-7.568a1.2,1.2,0,0,1,.9-.374,1.2,1.2,0,0,1,.91.385,1.325,1.325,0,0,1,.376.913h-.77a.535.535,0,0,0-.149-.382.486.486,0,0,0-.368-.157.479.479,0,0,0-.354.135.493.493,0,0,0-.135.365,1.934,1.934,0,0,0,.157.629h.961v.315H-1.43a1.654,1.654,0,0,1,.1.556,1.071,1.071,0,0,1-.152.539H.081v.758H-2.728v-.758h.5A1.1,1.1,0,0,0-2.1-5.161a2.219,2.219,0,0,0-.118-.579Z" transform="translate(421.222 157.495)" fill="#17494d"/>
    </g>
    <rect id="Rectangle_3457" data-name="Rectangle 3457" width="34" height="33" transform="translate(-9097 -5475)" fill="none"/>
  </g>
</svg>
