<svg id="Group_724" data-name="Group 724" xmlns="http://www.w3.org/2000/svg" width="73.522" height="66.724" viewBox="0 0 73.522 66.724">
  <path id="Path_36" data-name="Path 36" d="M893.131,357.651a22.709,22.709,0,0,1-.264,2.4,30.816,30.816,0,0,1-2.058,7.062c-.348.834-.738,1.68-1.176,2.538-.39.786-.828,1.59-1.3,2.4a58,58,0,0,1-5.028,7.236q-.963,1.2-2.04,2.412c-.894,1.02-1.848,2.058-2.862,3.1-.714.738-1.458,1.476-2.232,2.226a128.786,128.786,0,0,1-12.318,10.386q-1.17.882-2.4,1.77-2.3,1.656-4.8,3.348-2.5-1.692-4.8-3.348-1.233-.891-2.4-1.77a129.364,129.364,0,0,1-12.066-10.146q-1.188-1.134-2.274-2.25c-1.02-1.044-1.98-2.07-2.868-3.09-.714-.792-1.38-1.584-2.016-2.358a57.963,57.963,0,0,1-5.256-7.518c-.48-.81-.912-1.614-1.3-2.4-.438-.858-.828-1.7-1.176-2.538a30.815,30.815,0,0,1-2.058-7.062,22.742,22.742,0,0,1-.264-2.4,19.789,19.789,0,0,1,2.406-11,18.649,18.649,0,0,1,1.746-2.592,19.634,19.634,0,0,1,2.988-3,21.537,21.537,0,0,1,2.736-1.89,22.156,22.156,0,0,1,19.4-1.44,18.83,18.83,0,0,1,7.2,5.37,18.829,18.829,0,0,1,7.2-5.37,22.074,22.074,0,0,1,18.618,1.014,21.228,21.228,0,0,1,2.784,1.746,20.129,20.129,0,0,1,3.144,2.88,19.352,19.352,0,0,1,1.9,2.55A19.678,19.678,0,0,1,893.131,357.651Z" transform="translate(-819.891 -336.129)" fill="#012169"/>
  <path id="Path_39" data-name="Path 39" d="M897.025,347.656l-15.018,11.736-3.066,2.4-7.086,5.538-1.272,1-1.3,1.014-1.1.858-1.524,1.194-.8.624-2.268,1.776-.276.216-4.728,3.7-2.4,1.878-12.066,9.426q-1.188-1.134-2.274-2.25c-1.02-1.044-1.98-2.07-2.868-3.09-.714-.792-1.38-1.584-2.016-2.358l9.624-7.518,3.072-2.4,5-3.906,1.53-1.2,1.014-.792,1.386-1.08,2.04-1.6,1.314-1.026,1.254-.984L865,359.392l3.18-2.484,2.4-1.878L889.2,340.48a21.232,21.232,0,0,1,2.784,1.746,20.121,20.121,0,0,1,3.144,2.88A19.356,19.356,0,0,1,897.025,347.656Z" transform="translate(-826.622 -337.869)" fill="#fff"/>
  <path id="Path_39_-_Outline" data-name="Path 39 - Outline" d="M888.841,339.887l.153.08a21.571,21.571,0,0,1,2.819,1.768A20.432,20.432,0,0,1,895,344.654a19.689,19.689,0,0,1,1.922,2.585l.127.2L881.84,359.326l-3.066,2.4-7.086,5.538-1.272,1-1.3,1.014-1.1.858-1.524,1.194-.805.625-2.543,1.991-4.728,3.7-2.4,1.878-12.248,9.568-.167-.159c-.76-.726-1.527-1.485-2.281-2.257-1.1-1.128-2.043-2.142-2.877-3.1-.616-.683-1.24-1.413-2.022-2.366l-.174-.211L854.157,367l1.53-1.2,1.014-.792,1.386-1.08,2.04-1.6,1.314-1.026,1.253-.984,4.992-3.9,2.4-1.878Zm7.5,7.431a19.189,19.189,0,0,0-1.742-2.312,19.886,19.886,0,0,0-3.1-2.842,21.047,21.047,0,0,0-2.6-1.643l-18.481,14.443-2.4,1.878-4.992,3.9-1.253.984-1.315,1.026-2.04,1.6-1.386,1.08-1.014.792-1.53,1.2-8.07,6.306-9.408,7.349c.7.845,1.269,1.511,1.834,2.137l0,0c.827.95,1.761,1.957,2.857,3.079.694.711,1.4,1.411,2.1,2.084l11.884-9.284,2.4-1.878,5-3.912,2.268-1.776.8-.625,1.523-1.193,1.1-.858,1.3-1.014,1.271-1,7.086-5.538,3.066-2.4Z" transform="translate(-826.291 -337.593)" fill="rgba(0,0,0,0)"/>
  <path id="Path_37" data-name="Path 37" d="M884.935,381.311q-.963,1.2-2.04,2.412c-.894,1.02-1.848,2.058-2.862,3.1-.714.738-1.458,1.476-2.232,2.226l-12.318-9.282-2.4-1.812-4.872-3.666-.282-.216-2.346-1.764-.84-.636-1.26-.948L852.11,369.7l-1.026-.774-1.53-1.152L842,362.076l-3.186-2.4-14.6-11a18.653,18.653,0,0,1,1.746-2.592,19.629,19.629,0,0,1,2.988-3,21.547,21.547,0,0,1,2.736-1.89l19.4,14.622,2.4,1.806,2.73,2.058,1.878,1.416,1.308.984,1.254.942,2.43,1.83,1.044.786,1.356,1.026,1.272.954,5.388,4.062,3.186,2.4Z" transform="translate(-821.522 -338.153)" fill="#fff"/>
  <path id="Path_37_-_Outline" data-name="Path 37 - Outline" d="M877.521,389.123l-12.5-9.419-2.4-1.812-4.872-3.666-.284-.217-2.344-1.763-.841-.636-2.633-1.979-1.026-.774-1.53-1.152-10.74-8.094-14.789-11.144.113-.2a18.957,18.957,0,0,1,1.771-2.629,19.946,19.946,0,0,1,3.028-3.041,21.814,21.814,0,0,1,2.77-1.913l.153-.089.142.107,19.4,14.622,2.4,1.806,4.608,3.474,2.562,1.926,3.474,2.616,1.357,1.026,1.271.953L872,371.183l13.012,9.8-.173.215c-.662.822-1.351,1.637-2.048,2.422-.927,1.058-1.894,2.105-2.87,3.111-.659.681-1.391,1.411-2.238,2.232Zm-53.265-40.8,17.6,13.263,10.11,7.62,2.634,1.98.841.637,2.345,1.763.284.217,4.87,3.665,2.4,1.812,12.135,9.144c.774-.752,1.45-1.428,2.062-2.061.971-1,1.931-2.04,2.853-3.092.632-.711,1.256-1.446,1.859-2.189l-12.571-9.47-5.388-4.062-1.271-.953-1.357-1.027-3.473-2.615-2.562-1.926-4.608-3.474-2.4-1.806-19.262-14.515a21.318,21.318,0,0,0-2.549,1.777,19.419,19.419,0,0,0-2.948,2.959A18.544,18.544,0,0,0,824.256,348.32Z" transform="translate(-821.22 -337.874)" fill="rgba(0,0,0,0)"/>
  <path id="Path_40" data-name="Path 40" d="M883.4,338.79v59.687q-1.17.882-2.4,1.77-2.3,1.656-4.8,3.348-2.5-1.692-4.8-3.348-1.233-.891-2.4-1.77V338.79a18.84,18.84,0,0,1,2.4,1.224,18.63,18.63,0,0,1,4.8,4.146,18.831,18.831,0,0,1,7.2-5.37Z" transform="translate(-839.439 -337.193)" fill="#fff"/>
  <path id="Path_40_-_Outline" data-name="Path 40 - Outline" d="M868.5,338.035l.371.157a19.166,19.166,0,0,1,2.434,1.241,18.876,18.876,0,0,1,4.662,3.959,18.875,18.875,0,0,1,4.662-3.959,19.137,19.137,0,0,1,2.433-1.241l.371-.157v60.223l-.106.08c-.768.579-1.555,1.159-2.4,1.773-1.6,1.149-3.215,2.277-4.807,3.353l-.15.1-.15-.1c-1.592-1.077-3.209-2.2-4.806-3.352-.853-.617-1.64-1.2-2.4-1.774l-.106-.08Zm14.4,59.957V338.846a18.57,18.57,0,0,0-1.995,1.045,18.368,18.368,0,0,0-4.732,4.087l-.206.25-.206-.25a18.37,18.37,0,0,0-4.731-4.087,18.6,18.6,0,0,0-2-1.045v59.146c.729.548,1.479,1.1,2.289,1.687,1.542,1.108,3.1,2.2,4.643,3.242,1.539-1.043,3.1-2.133,4.644-3.242C881.418,399.1,882.168,398.542,882.9,397.992Z" transform="translate(-839.206 -336.842)" fill="rgba(0,0,0,0)"/>
  <path id="Path_41" data-name="Path 41" d="M884.059,384.983c-.894,1.02-1.848,2.058-2.862,3.1l-14.55-10.962-2.376-1.788-.024-.018-2.328-1.758-.828-.624-1.8-1.356-3.474-2.616-1.17-.882-1.386-1.044-1.014-.762-3.9-2.94-3.186-2.4-18.042-13.6a19.616,19.616,0,0,1,2.988-3l22.031,16.6.108.084,2.4,1.806.678.51,1.362,1.026,2.556,1.926,3.474,2.616,1.53,1.152,1.1.828,1.3.984,1.416,1.068,3.186,2.4Z" transform="translate(-822.686 -339.413)" fill="#c8102e"/>
  <path id="Path_42" data-name="Path 42" d="M896.473,346.27l-18.282,14.286-3.072,2.4-3.192,2.5-1.356,1.062-1.044.816L868,368.523l-3.426,2.676-1.734,1.356-.81.636-2.1,1.638-.156.126-2.244,1.752-14.34,11.214c-1.02-1.044-1.98-2.07-2.868-3.09l12.63-9.876,3.072-2.4,1.506-1.176,1.026-.8,1.374-1.074,1.17-.918,3.426-2.676,2.574-2.01,1.206-.942,1.224-.96,1.848-1.44.552-.432,21.4-16.734A20.133,20.133,0,0,1,896.473,346.27Z" transform="translate(-827.966 -339.033)" fill="#c8102e"/>
  <path id="Path_38" data-name="Path 38" d="M893.131,357.651a22.709,22.709,0,0,1-.264,2.4,30.816,30.816,0,0,1-2.058,7.062c-.348.834-.738,1.68-1.176,2.538-.39.786-.828,1.59-1.3,2.4a58,58,0,0,1-5.028,7.236q-.963,1.2-2.04,2.412c-.894,1.02-1.848,2.058-2.862,3.1-.714.738-1.458,1.476-2.232,2.226a128.786,128.786,0,0,1-12.318,10.386q-1.17.882-2.4,1.77-2.3,1.656-4.8,3.348-2.5-1.692-4.8-3.348-1.233-.891-2.4-1.77a129.364,129.364,0,0,1-12.066-10.146q-1.188-1.134-2.274-2.25c-1.02-1.044-1.98-2.07-2.868-3.09-.714-.792-1.38-1.584-2.016-2.358a57.963,57.963,0,0,1-5.256-7.518c-.48-.81-.912-1.614-1.3-2.4-.438-.858-.828-1.7-1.176-2.538a30.815,30.815,0,0,1-2.058-7.062,22.742,22.742,0,0,1-.264-2.4,19.789,19.789,0,0,1,2.406-11,18.649,18.649,0,0,1,1.746-2.592,19.634,19.634,0,0,1,2.988-3,21.537,21.537,0,0,1,2.736-1.89,22.156,22.156,0,0,1,19.4-1.44,18.83,18.83,0,0,1,7.2,5.37,18.829,18.829,0,0,1,7.2-5.37,22.074,22.074,0,0,1,18.618,1.014,21.228,21.228,0,0,1,2.784,1.746,20.129,20.129,0,0,1,3.144,2.88,19.352,19.352,0,0,1,1.9,2.55A19.678,19.678,0,0,1,893.131,357.651Z" transform="translate(-819.891 -336.129)" fill="none"/>
  <path id="Path_43" data-name="Path 43" d="M893.158,372a22.679,22.679,0,0,1-.264,2.4,30.807,30.807,0,0,1-2.058,7.062q-.522,1.251-1.176,2.538c-.39.786-.828,1.59-1.3,2.4H825c-.48-.81-.912-1.614-1.3-2.4-.438-.858-.828-1.7-1.176-2.538a30.814,30.814,0,0,1-2.058-7.062,22.71,22.71,0,0,1-.264-2.4Z" transform="translate(-819.918 -350.478)" fill="#fff"/>
  <path id="Path_43_-_Outline" data-name="Path 43 - Outline" d="M819.672,371.5h73.522l-.015.281a23.01,23.01,0,0,1-.267,2.428,31.214,31.214,0,0,1-2.075,7.122c-.357.856-.755,1.716-1.184,2.555-.382.769-.823,1.582-1.31,2.415l-.077.132H824.6l-.078-.131c-.457-.771-.9-1.583-1.311-2.416s-.826-1.7-1.184-2.555a31.221,31.221,0,0,1-2.075-7.123,23.067,23.067,0,0,1-.267-2.428Zm72.956.534H820.238c.046.67.128,1.372.244,2.09a30.688,30.688,0,0,0,2.041,7c.353.846.746,1.693,1.168,2.52v0c.384.774.792,1.531,1.215,2.252h63.053c.451-.777.86-1.533,1.216-2.252v0c.422-.827.815-1.675,1.167-2.519a30.679,30.679,0,0,0,2.041-7C892.5,373.407,892.583,372.7,892.629,372.034Z" transform="translate(-819.672 -350.245)" fill="rgba(0,0,0,0)"/>
  <path id="Path_44" data-name="Path 44" d="M893.07,376a30.813,30.813,0,0,1-2.058,7.062q-.522,1.251-1.176,2.538H823.874q-.657-1.287-1.176-2.538A30.82,30.82,0,0,1,820.64,376Z" transform="translate(-820.094 -352.078)" fill="#c8102e"/>
  <path id="Path_45" data-name="Path 45" d="M882.6,340.83v60.233q-2.3,1.656-4.8,3.348-2.5-1.692-4.8-3.348V340.83a18.628,18.628,0,0,1,4.8,4.146A18.625,18.625,0,0,1,882.6,340.83Z" transform="translate(-841.039 -338.009)" fill="#c8102e"/>
</svg>
