<svg xmlns="http://www.w3.org/2000/svg" width="19.277" height="19.277" viewBox="0 0 19.277 19.277">
  <path id="Icon_awesome-facebook-square" data-name="Icon awesome-facebook-square" d="M17.212,2.25H2.065A2.065,2.065,0,0,0,0,4.315V19.462a2.065,2.065,0,0,0,2.065,2.065H7.971V14.973H5.26V11.889H7.971V9.538c0-2.674,1.592-4.152,4.031-4.152a16.423,16.423,0,0,1,2.389.208V8.219H13.045a1.543,1.543,0,0,0-1.739,1.667v2h2.96l-.473,3.085H11.306v6.554h5.906a2.065,2.065,0,0,0,2.065-2.065V4.315A2.065,2.065,0,0,0,17.212,2.25Z" transform="translate(0 -2.25)" fill="#1a77f2"/>
</svg>
