<svg xmlns="http://www.w3.org/2000/svg" width="36" height="36" viewBox="0 0 36 36">
  <g id="Group_2769" data-name="Group 2769" transform="translate(-988 -5511)">
    <path id="Path_6192" data-name="Path 6192" d="M18,0A18,18,0,1,1,0,18,18,18,0,0,1,18,0Z" transform="translate(988 5511)" fill="#2867b2"/>
    <g id="Group_2514" data-name="Group 2514" transform="translate(645.791 3938.791)">
      <g id="g5891" transform="translate(352.16 1581.987)">
        <path id="background" d="M16.9,2.113A2.115,2.115,0,0,0,14.792,0H2.113A2.115,2.115,0,0,0,0,2.113V14.792A2.115,2.115,0,0,0,2.113,16.9H14.792A2.115,2.115,0,0,0,16.9,14.792Z" transform="translate(0)" fill="#2867b2" fill-rule="evenodd"/>
        <g id="shapes" transform="translate(1.826 1.785)">
          <rect id="rect11" width="2.831" height="8.518" transform="translate(0.19 4.114)" fill="#fff"/>
          <path id="path13-0" d="M57.606,54.281a1.476,1.476,0,1,0-.039,2.941h.019a1.476,1.476,0,1,0,.019-2.943Z" transform="translate(-55.98 -54.274)" fill="#fff"/>
          <path id="path15" d="M199.646,172.6A2.812,2.812,0,0,0,197.1,174V172.8h-2.831c.037.8,0,8.519,0,8.519H197.1v-4.746a1.935,1.935,0,0,1,.093-.691,1.55,1.55,0,0,1,1.453-1.035c1.023,0,1.434.782,1.434,1.926v4.557h2.831v-4.884C202.906,173.819,201.509,172.6,199.646,172.6Z" transform="translate(-189.676 -168.687)" fill="#fff"/>
        </g>
      </g>
    </g>
  </g>
</svg>
