<svg xmlns="http://www.w3.org/2000/svg" width="36" height="36" viewBox="0 0 36 36">
  <g id="Group_2770" data-name="Group 2770" transform="translate(-1030 -5511)">
    <g id="Path_6193" data-name="Path 6193" transform="translate(1030 5511)" fill="#ed1f24">
      <path d="M 18 35.5 C 13.32557964324951 35.5 8.930950164794922 33.67967987060547 5.625629901885986 30.37437057495117 C 2.320319890975952 27.06904983520508 0.5 22.67441940307617 0.5 18 C 0.5 13.32557964324951 2.320319890975952 8.930950164794922 5.625629901885986 5.625629901885986 C 8.930950164794922 2.320319890975952 13.32557964324951 0.5 18 0.5 C 22.67441940307617 0.5 27.06904983520508 2.320319890975952 30.37437057495117 5.625629901885986 C 33.67967987060547 8.930950164794922 35.5 13.32557964324951 35.5 18 C 35.5 22.67441940307617 33.67967987060547 27.06904983520508 30.37437057495117 30.37437057495117 C 27.06904983520508 33.67967987060547 22.67441940307617 35.5 18 35.5 Z" stroke="none"/>
      <path d="M 18 1 C 13.45914077758789 1 9.190059661865234 2.768310546875 5.979190826416016 5.979190826416016 C 2.768310546875 9.190059661865234 1 13.45914077758789 1 18 C 1 22.54085922241211 2.768310546875 26.80994033813477 5.979190826416016 30.02080917358398 C 9.190059661865234 33.231689453125 13.45914077758789 35 18 35 C 22.54085922241211 35 26.80994033813477 33.231689453125 30.02080917358398 30.02080917358398 C 33.231689453125 26.80994033813477 35 22.54085922241211 35 18 C 35 13.45914077758789 33.231689453125 9.190059661865234 30.02080917358398 5.979190826416016 C 26.80994033813477 2.768310546875 22.54085922241211 1 18 1 M 18 0 C 27.94112014770508 0 36 8.058879852294922 36 18 C 36 27.94112014770508 27.94112014770508 36 18 36 C 8.058879852294922 36 0 27.94112014770508 0 18 C 0 8.058879852294922 8.058879852294922 0 18 0 Z" stroke="none" fill="#ed1f24"/>
    </g>
    <g id="_5296521_play_video_vlog_youtube_youtube_logo_icon" data-name="5296521_play_video_vlog_youtube_youtube logo_icon" transform="translate(1039.087 5523)">
      <path id="Path_5454" data-name="Path 5454" d="M17.453,78.749a2.232,2.232,0,0,0-1.576-1.576A53.261,53.261,0,0,0,8.913,76.8a53.262,53.262,0,0,0-6.964.373A2.232,2.232,0,0,0,.372,78.749a24.9,24.9,0,0,0,0,8.581,2.233,2.233,0,0,0,1.576,1.576,53.286,53.286,0,0,0,6.964.372,53.283,53.283,0,0,0,6.964-.372,2.232,2.232,0,0,0,1.576-1.576,23.191,23.191,0,0,0,.373-4.29,23.193,23.193,0,0,0-.372-4.291Z" transform="translate(0 -76.801)" fill="#fff"/>
      <path id="Path_5455" data-name="Path 5455" d="M204.8,184.549l4.631-2.674L204.8,179.2Z" transform="translate(-197.666 -175.636)" fill="#ed1f24"/>
    </g>
  </g>
</svg>
