<svg xmlns="http://www.w3.org/2000/svg" width="21.296" height="14.974" viewBox="0 0 21.296 14.974">
  <path id="Icon_awesome-youtube" data-name="Icon awesome-youtube" d="M21.9,6.843a2.676,2.676,0,0,0-1.883-1.895C18.357,4.5,11.7,4.5,11.7,4.5s-6.659,0-8.32.448A2.676,2.676,0,0,0,1.495,6.843,28.07,28.07,0,0,0,1.05,12a28.07,28.07,0,0,0,.445,5.159,2.636,2.636,0,0,0,1.883,1.865c1.661.448,8.32.448,8.32.448s6.659,0,8.32-.448A2.636,2.636,0,0,0,21.9,17.161,28.071,28.071,0,0,0,22.346,12,28.071,28.071,0,0,0,21.9,6.843ZM9.52,15.168V8.836L15.086,12Z" transform="translate(-1.05 -4.5)" fill="red"/>
</svg>
