<svg xmlns="http://www.w3.org/2000/svg" width="42" height="42" viewBox="0 0 42 42">
  <g id="Group_2372" data-name="Group 2372" transform="translate(-635 -4747)">
    <g id="Ellipse_646" data-name="Ellipse 646" transform="translate(635 4747)" fill="#f33" stroke="#f33" stroke-width="1.5">
      <circle cx="21" cy="21" r="21" stroke="none"/>
      <circle cx="21" cy="21" r="20.25" fill="none"/>
    </g>
    <path id="Path_5555" data-name="Path 5555" d="M4800.084-2601.331l3.185,6.524,8.349-4.54-.866-.654-5.329-4.024h-3.375Z" transform="translate(-4150 7367)" fill="#f33"/>
    <path id="Icon_awesome-youtube" data-name="Icon awesome-youtube" d="M19.924,6.621a2.422,2.422,0,0,0-1.7-1.715c-1.5-.405-7.531-.405-7.531-.405s-6.028,0-7.531.405a2.422,2.422,0,0,0-1.7,1.715,25.41,25.41,0,0,0-.4,4.67,25.41,25.41,0,0,0,.4,4.67,2.386,2.386,0,0,0,1.7,1.688c1.5.405,7.531.405,7.531.405s6.028,0,7.531-.405a2.386,2.386,0,0,0,1.7-1.688,25.41,25.41,0,0,0,.4-4.67,25.41,25.41,0,0,0-.4-4.67ZM8.717,14.157V8.425l5.038,2.866Z" transform="translate(645.312 4756.836)" fill="#fff"/>
  </g>
</svg>
