<svg xmlns="http://www.w3.org/2000/svg" width="118.572" height="19.697" viewBox="0 0 118.572 19.697">
  <g id="Group_1238" data-name="Group 1238" transform="translate(-11.584 -230)">
    <path id="Path_5306" data-name="Path 5306" d="M49.677,209.6H41.712l-2.457-7.5L36.8,209.6H28.83l6.439,4.644-2.456,7.507,6.439-4.644,3.984-2.863Zm-10.424,7.512,4.542-1.152,1.9,5.832Z" transform="translate(-17.246 27.908)" fill="#01a95d"/>
    <path id="Path_5306-2" data-name="Path 5306" d="M49.677,209.6H41.712l-2.457-7.5L36.8,209.6H28.83l6.439,4.644-2.456,7.507,6.439-4.644,3.984-2.863Zm-10.424,7.512,4.542-1.152,1.9,5.832Z" transform="translate(7.186 27.908)" fill="#01a95d"/>
    <path id="Path_5306-3" data-name="Path 5306" d="M49.677,209.6H41.712l-2.457-7.5L36.8,209.6H28.83l6.439,4.644-2.456,7.507,6.439-4.644,3.984-2.863Zm-10.424,7.512,4.542-1.152,1.9,5.832Z" transform="translate(31.617 27.908)" fill="#01a95d"/>
    <path id="Path_5306-4" data-name="Path 5306" d="M49.677,209.6H41.712l-2.457-7.5L36.8,209.6H28.83l6.439,4.644-2.456,7.507,6.439-4.644,3.984-2.863Zm-10.424,7.512,4.542-1.152,1.9,5.832Z" transform="translate(56.049 27.908)" fill="#01a95d"/>
    <path id="Path_5306-5" data-name="Path 5306" d="M49.677,209.6H41.712l-2.457-7.5L36.8,209.6H28.83l6.439,4.644-2.456,7.507,6.439-4.644,3.984-2.863Zm-10.424,7.512,4.542-1.152,1.9,5.832Z" transform="translate(80.479 27.908)" fill="#01a95d"/>
  </g>
</svg>
