<svg xmlns="http://www.w3.org/2000/svg" width="136.469" height="24.992" viewBox="0 0 136.469 24.992">
  <g id="Group_297" data-name="Group 297" transform="translate(0 0.001)">
    <path id="Path_233" data-name="Path 233" d="M9.3,14.444,4.006,10.6h6.537l2.02-6.218,2.02,6.218h6.537l-5.289,3.843,2.02,6.218-5.289-3.843L7.274,20.662ZM0,24.991H24.992V0H0Z" transform="translate(0 0)" fill="#4e9195"/>
    <path id="Path_234" data-name="Path 234" d="M24.386,30.388l3.261-2.367.439,1.35Z" transform="translate(-11.815 -13.576)" fill="#4e9195"/>
    <path id="Path_235" data-name="Path 235" d="M63.355,14.444,58.066,10.6H64.6l2.02-6.218,2.02,6.218h6.538l-5.289,3.843,2.02,6.218-5.289-3.843-5.289,3.843Zm-9.3,10.546H79.052V0H54.06Z" transform="translate(-26.191 0)" fill="#4e9195"/>
    <path id="Path_236" data-name="Path 236" d="M78.447,30.388l3.261-2.367.439,1.35Z" transform="translate(-38.006 -13.576)" fill="#4e9195"/>
    <path id="Path_237" data-name="Path 237" d="M117.416,14.444,112.128,10.6h6.537l2.02-6.218,2.02,6.218h6.537l-5.289,3.843,2.02,6.218-5.289-3.843L115.4,20.662Zm-9.294,10.546h24.991V0H108.122Z" transform="translate(-52.383 0)" fill="#4e9195"/>
    <path id="Path_238" data-name="Path 238" d="M132.507,30.388l3.261-2.367.439,1.35Z" transform="translate(-64.197 -13.576)" fill="#4e9195"/>
    <path id="Path_239" data-name="Path 239" d="M171.477,14.444,166.188,10.6h6.537l2.021-6.218,2.02,6.218H183.3l-5.289,3.843,2.02,6.218-5.289-3.843-5.289,3.843Zm-9.295,10.546h24.992V0H162.182Z" transform="translate(-78.574 0)" fill="#4e9195"/>
    <path id="Path_241" data-name="Path 241" d="M171.477,14.444,166.188,10.6h6.537l2.021-6.218,2.02,6.218H183.3l-5.289,3.843,2.02,6.218-5.289-3.843-5.289,3.843Zm-9.295,10.546h24.992V0H162.182Z" transform="translate(-50.705 0)" fill="#4e9195"/>
    <path id="Path_240" data-name="Path 240" d="M186.568,30.388l3.261-2.367.439,1.35Z" transform="translate(-90.388 -13.576)" fill="#4e9195"/>
    <path id="Path_242" data-name="Path 242" d="M186.568,30.388l3.261-2.367.439,1.35Z" transform="translate(-62.519 -13.576)" fill="#4e9195"/>
  </g>
</svg>
