<svg xmlns="http://www.w3.org/2000/svg" width="118.931" height="21.437" viewBox="0 0 118.931 21.437">
  <g id="Group_275" data-name="Group 275" transform="translate(-619.47 -3838.445)">
    <g id="Group_253" data-name="Group 253" transform="translate(619.47 3838.445)">
      <path id="Path_245" data-name="Path 245" d="M11.27,0,8.609,8.188H0l6.965,5.06L4.3,21.436l6.965-5.06,6.965,5.06-2.661-8.188,6.965-5.06H13.93Z" transform="translate(0 0)" fill="#4e9195"/>
      <path id="Path_246" data-name="Path 246" d="M16.615,22.575l4.295-3.117.578,1.778Z" transform="translate(-5.336 -6.248)" fill="#17494d"/>
    </g>
    <g id="Group_254" data-name="Group 254" transform="translate(643.568 3838.445)">
      <path id="Path_245-2" data-name="Path 245" d="M11.27,0,8.609,8.188H0l6.965,5.06L4.3,21.436l6.965-5.06,6.965,5.06-2.661-8.188,6.965-5.06H13.93Z" transform="translate(0 0)" fill="#4e9195"/>
      <path id="Path_246-2" data-name="Path 246" d="M16.615,22.575l4.295-3.117.578,1.778Z" transform="translate(-5.336 -6.248)" fill="#17494d"/>
    </g>
    <g id="Group_255" data-name="Group 255" transform="translate(667.666 3838.445)">
      <path id="Path_245-3" data-name="Path 245" d="M11.27,0,8.609,8.188H0l6.965,5.06L4.3,21.436l6.965-5.06,6.965,5.06-2.661-8.188,6.965-5.06H13.93Z" transform="translate(0 0)" fill="#4e9195"/>
      <path id="Path_246-3" data-name="Path 246" d="M16.615,22.575l4.295-3.117.578,1.778Z" transform="translate(-5.336 -6.248)" fill="#17494d"/>
    </g>
    <g id="Group_256" data-name="Group 256" transform="translate(691.765 3838.445)">
      <path id="Path_245-4" data-name="Path 245" d="M11.27,0,8.609,8.188H0l6.965,5.06L4.3,21.436l6.965-5.06,6.965,5.06-2.661-8.188,6.965-5.06H13.93Z" transform="translate(0 0)" fill="#4e9195"/>
      <path id="Path_246-4" data-name="Path 246" d="M16.615,22.575l4.295-3.117.578,1.778Z" transform="translate(-5.336 -6.248)" fill="#17494d"/>
    </g>
    <g id="Group_257" data-name="Group 257" transform="translate(715.863 3838.445)">
      <path id="Path_245-5" data-name="Path 245" d="M11.27,0,8.609,8.188H0l6.965,5.06L4.3,21.436l6.965-5.06,6.965,5.06-2.661-8.188,6.965-5.06H13.93Z" transform="translate(0 0)" fill="#4e9195"/>
      <path id="Path_246-5" data-name="Path 246" d="M16.615,22.575l4.295-3.117.578,1.778Z" transform="translate(-5.336 -6.248)" fill="#17494d"/>
    </g>
  </g>
</svg>
