<svg xmlns="http://www.w3.org/2000/svg" width="125.189" height="22.564" viewBox="0 0 125.189 22.564">
  <g id="Group_253" data-name="Group 253" transform="translate(-619.47 -3838.445)">
    <g id="Group_253-2" data-name="Group 253" transform="translate(619.47 3838.445)">
      <path id="Path_245" data-name="Path 245" d="M11.863,0l-2.8,8.619H0l7.331,5.327-2.8,8.619,7.332-5.327,7.331,5.327-2.8-8.619,7.332-5.327H14.663Z" transform="translate(0 0)" fill="#00b975"/>
      <path id="Path_246" data-name="Path 246" d="M16.615,22.739l4.521-3.281.608,1.872Z" transform="translate(-4.742 -5.553)" fill="#005424"/>
    </g>
    <g id="Group_254" data-name="Group 254" transform="translate(644.836 3838.445)">
      <path id="Path_245-2" data-name="Path 245" d="M11.863,0l-2.8,8.619H0l7.331,5.327-2.8,8.619,7.332-5.327,7.331,5.327-2.8-8.619,7.332-5.327H14.663Z" transform="translate(0 0)" fill="#00b975"/>
      <path id="Path_246-2" data-name="Path 246" d="M16.615,22.739l4.521-3.281.608,1.872Z" transform="translate(-4.742 -5.553)" fill="#005424"/>
    </g>
    <g id="Group_255" data-name="Group 255" transform="translate(670.202 3838.445)">
      <path id="Path_245-3" data-name="Path 245" d="M11.863,0l-2.8,8.619H0l7.331,5.327-2.8,8.619,7.332-5.327,7.331,5.327-2.8-8.619,7.332-5.327H14.663Z" transform="translate(0 0)" fill="#00b975"/>
      <path id="Path_246-3" data-name="Path 246" d="M16.615,22.739l4.521-3.281.608,1.872Z" transform="translate(-4.742 -5.553)" fill="#005424"/>
    </g>
    <g id="Group_256" data-name="Group 256" transform="translate(695.568 3838.445)">
      <path id="Path_245-4" data-name="Path 245" d="M11.863,0l-2.8,8.619H0l7.331,5.327-2.8,8.619,7.332-5.327,7.331,5.327-2.8-8.619,7.332-5.327H14.663Z" transform="translate(0 0)" fill="#00b975"/>
      <path id="Path_246-4" data-name="Path 246" d="M16.615,22.739l4.521-3.281.608,1.872Z" transform="translate(-4.742 -5.553)" fill="#005424"/>
    </g>
    <g id="Group_257" data-name="Group 257" transform="translate(720.935 3838.445)">
      <path id="Path_245-5" data-name="Path 245" d="M11.863,0l-2.8,8.619H0l7.331,5.327-2.8,8.619,7.332-5.327,7.331,5.327-2.8-8.619,7.332-5.327H14.663Z" transform="translate(0 0)" fill="#def2e4"/>
      <path id="Path_246-5" data-name="Path 246" d="M16.615,22.739l4.521-3.281.608,1.872Z" transform="translate(-4.742 -5.553)" fill="#a0ccae"/>
    </g>
  </g>
</svg>
