<svg xmlns="http://www.w3.org/2000/svg" width="218" height="88.409" viewBox="0 0 218 88.409">
  <g id="Group_1807" data-name="Group 1807" transform="translate(-409 -518.795)">
    <g id="Trustpilot_brandmark_gr-blk-RGB" transform="translate(469 518.795)">
      <g id="Type" transform="translate(25.781 8.542)">
        <g id="Group_553" data-name="Group 553">
          <path id="Path_596" data-name="Path 596" d="M297.609,98.6h9.936v1.854h-3.907v10.421H301.49V100.454H297.6V98.6Zm9.512,3.387h1.837V103.7h.035a2.017,2.017,0,0,1,.338-.7,3.126,3.126,0,0,1,.6-.624,3.185,3.185,0,0,1,.78-.459,2.385,2.385,0,0,1,.875-.173c.225,0,.39.009.476.017s.173.026.269.035v1.888c-.139-.026-.277-.043-.424-.061a3.6,3.6,0,0,0-.424-.026,2.3,2.3,0,0,0-.936.2,2.155,2.155,0,0,0-.762.58,2.947,2.947,0,0,0-.52.953,4.036,4.036,0,0,0-.191,1.308v4.228h-1.958v-8.879Zm14.207,8.888H319.4v-1.239h-.035a2.67,2.67,0,0,1-1.074,1.074,2.938,2.938,0,0,1-1.455.407,3.26,3.26,0,0,1-2.538-.866,3.832,3.832,0,0,1-.78-2.625v-5.64h1.958v5.449a2.394,2.394,0,0,0,.451,1.655,1.631,1.631,0,0,0,1.256.485,2.408,2.408,0,0,0,1.031-.191,1.739,1.739,0,0,0,.667-.511,1.961,1.961,0,0,0,.373-.762,3.752,3.752,0,0,0,.113-.962V102h1.958Zm3.335-2.85a1.508,1.508,0,0,0,.65,1.2,2.621,2.621,0,0,0,1.36.347,5.823,5.823,0,0,0,.624-.043,2.62,2.62,0,0,0,.658-.165,1.266,1.266,0,0,0,.511-.355.861.861,0,0,0,.182-.606.837.837,0,0,0-.277-.615,1.952,1.952,0,0,0-.658-.39,6.608,6.608,0,0,0-.918-.251c-.346-.069-.693-.147-1.048-.225a9.952,9.952,0,0,1-1.057-.295,3.227,3.227,0,0,1-.91-.468,2.058,2.058,0,0,1-.641-.745,2.33,2.33,0,0,1-.242-1.126,2.03,2.03,0,0,1,.355-1.213,2.692,2.692,0,0,1,.892-.788,4.135,4.135,0,0,1,1.2-.424,7.331,7.331,0,0,1,1.265-.121,5.9,5.9,0,0,1,1.317.147,3.394,3.394,0,0,1,1.135.476,2.806,2.806,0,0,1,.84.849,2.954,2.954,0,0,1,.424,1.265h-2.044a1.219,1.219,0,0,0-.641-.944,2.626,2.626,0,0,0-1.161-.243,3.648,3.648,0,0,0-.494.035,2.7,2.7,0,0,0-.537.13,1.165,1.165,0,0,0-.424.277.67.67,0,0,0-.173.476.741.741,0,0,0,.251.58,2.1,2.1,0,0,0,.65.373,6.613,6.613,0,0,0,.918.251c.346.069.7.147,1.066.225s.7.182,1.048.295a3.164,3.164,0,0,1,.918.468,2.306,2.306,0,0,1,.65.736,2.245,2.245,0,0,1,.251,1.1,2.393,2.393,0,0,1-.364,1.343,2.88,2.88,0,0,1-.936.892,4.4,4.4,0,0,1-1.282.5,6.435,6.435,0,0,1-1.395.156,5.917,5.917,0,0,1-1.559-.191,3.8,3.8,0,0,1-1.239-.572,2.834,2.834,0,0,1-.823-.962,3.156,3.156,0,0,1-.321-1.369h1.975Zm6.463-6.038h1.481V99.319h1.958v2.668h1.767v1.464h-1.767V108.2a4.84,4.84,0,0,0,.026.537.986.986,0,0,0,.121.381.556.556,0,0,0,.286.234,1.4,1.4,0,0,0,.52.078c.139,0,.277,0,.416-.009a2.293,2.293,0,0,0,.416-.061v1.516c-.217.026-.433.043-.632.069a5.064,5.064,0,0,1-.632.035,4.382,4.382,0,0,1-1.247-.147,1.618,1.618,0,0,1-.736-.433,1.5,1.5,0,0,1-.364-.71,5.339,5.339,0,0,1-.113-.979v-5.241h-1.481v-1.481Zm6.592,0h1.854v1.2h.035a2.418,2.418,0,0,1,1.152-1.109,3.8,3.8,0,0,1,1.6-.338,4.149,4.149,0,0,1,1.828.373,3.573,3.573,0,0,1,1.3,1.014,4.436,4.436,0,0,1,.771,1.507,6.318,6.318,0,0,1,.26,1.837,6.384,6.384,0,0,1-.234,1.733,4.637,4.637,0,0,1-.7,1.49,3.445,3.445,0,0,1-1.2,1.031,3.546,3.546,0,0,1-1.707.39,4.785,4.785,0,0,1-.858-.078,3.775,3.775,0,0,1-.823-.251,2.971,2.971,0,0,1-.728-.442,2.745,2.745,0,0,1-.563-.624h-.035v4.435h-1.958Zm6.844,4.453a4.423,4.423,0,0,0-.156-1.17,3.154,3.154,0,0,0-.468-1,2.384,2.384,0,0,0-.771-.7,2.38,2.38,0,0,0-2.928.589,3.806,3.806,0,0,0-.624,2.287,4.39,4.39,0,0,0,.165,1.247,2.785,2.785,0,0,0,.494.988,2.338,2.338,0,0,0,.78.65,2.443,2.443,0,0,0,2.192-.035,2.4,2.4,0,0,0,.762-.71,2.955,2.955,0,0,0,.433-1A5.57,5.57,0,0,0,344.561,106.44Zm3.456-7.84h1.958v1.854h-1.958Zm0,3.387h1.958v8.888h-1.958Zm3.708-3.387h1.958v12.275h-1.958Zm7.961,12.518a4.842,4.842,0,0,1-1.9-.355,3.976,3.976,0,0,1-2.287-2.452,5.717,5.717,0,0,1-.3-1.889,5.65,5.65,0,0,1,.3-1.871,4.225,4.225,0,0,1,.875-1.481,3.991,3.991,0,0,1,1.412-.97,5.245,5.245,0,0,1,3.794,0,3.976,3.976,0,0,1,2.287,2.452,5.651,5.651,0,0,1,.3,1.871,5.719,5.719,0,0,1-.3,1.889,4.226,4.226,0,0,1-.875,1.481,3.991,3.991,0,0,1-1.412.97A4.842,4.842,0,0,1,359.687,111.118Zm0-1.551a2.27,2.27,0,0,0,1.135-.277,2.414,2.414,0,0,0,.788-.719,3.228,3.228,0,0,0,.459-1,4.481,4.481,0,0,0,0-2.278,2.965,2.965,0,0,0-.459-1,2.389,2.389,0,0,0-.788-.71,2.461,2.461,0,0,0-2.27,0,2.489,2.489,0,0,0-.788.71,3.139,3.139,0,0,0-.459,1,4.479,4.479,0,0,0,0,2.278,3.042,3.042,0,0,0,.459,1,2.416,2.416,0,0,0,.788.719A2.183,2.183,0,0,0,359.687,109.567Zm5.059-7.58h1.481V99.319h1.958v2.668h1.767v1.464h-1.767V108.2a4.825,4.825,0,0,0,.026.537.987.987,0,0,0,.121.381.556.556,0,0,0,.286.234,1.4,1.4,0,0,0,.52.078c.139,0,.277,0,.416-.009a2.293,2.293,0,0,0,.416-.061v1.516c-.217.026-.433.043-.632.069a5.063,5.063,0,0,1-.632.035,4.382,4.382,0,0,1-1.247-.147,1.619,1.619,0,0,1-.736-.433,1.5,1.5,0,0,1-.364-.71,5.339,5.339,0,0,1-.113-.979v-5.241h-1.481v-1.481Z" transform="translate(-297.6 -98.6)"/>
        </g>
      </g>
      <g id="Star">
        <path id="Path_597" data-name="Path 597" d="M23.5,8.542H14.528L11.756,0,8.975,8.542,0,8.533l7.268,5.284L4.487,22.35l7.268-5.276,7.259,5.276-2.772-8.533L23.5,8.542Z" fill="#00b67a"/>
        <path id="Path_598" data-name="Path 598" d="M140.811,161.432l-.624-1.932-4.487,3.257Z" transform="translate(-123.944 -145.683)" fill="#005128"/>
      </g>
    </g>
    <g id="Group_1457" data-name="Group 1457" transform="translate(446 551.76)">
      <rect id="Rectangle-path" width="26.36" height="26.36" transform="translate(0 0)" fill="#00b67a"/>
      <rect id="Rectangle-path-2" data-name="Rectangle-path" width="27.036" height="26.36" transform="translate(29.063 0)" fill="#00b67a"/>
      <rect id="Rectangle-path-3" data-name="Rectangle-path" width="27.036" height="26.36" transform="translate(58.126 0)" fill="#00b67a"/>
      <rect id="Rectangle-path-4" data-name="Rectangle-path" width="27.711" height="26.36" transform="translate(87.19 0)" fill="#00b67a"/>
      <g id="Half" transform="translate(116.929 0)">
        <rect id="Rectangle-path-5" data-name="Rectangle-path" width="13.518" height="26.36" transform="translate(12.842)" fill="#dcdce6"/>
        <rect id="Rectangle-path-6" data-name="Rectangle-path" width="12.842" height="26.36" transform="translate(0)" fill="#00b67a"/>
      </g>
      <path id="Shape" d="M23.775,29.732,27.848,28.7l1.7,5.245Zm9.375-6.78H25.979l-2.2-6.752-2.2,6.752H14.4l5.8,4.185L18,33.889,23.8,29.7l3.571-2.567,5.775-4.185Z" transform="translate(-10.382 -11.68)" fill="#fff"/>
      <path id="Shape-2" data-name="Shape" d="M127.775,29.732l4.074-1.032,1.7,5.245Zm9.375-6.78h-7.171l-2.2-6.752-2.2,6.752H118.4l5.8,4.185L122,33.889l5.8-4.185,3.571-2.567,5.775-4.185Z" transform="translate(-85.365 -11.68)" fill="#fff"/>
      <path id="Shape-3" data-name="Shape" d="M231.775,29.732l4.074-1.032,1.7,5.245Zm9.375-6.78h-7.171l-2.2-6.752-2.2,6.752H222.4l5.8,4.185L226,33.889l5.8-4.185,3.571-2.567,5.775-4.185Z" transform="translate(-160.348 -11.68)" fill="#fff"/>
      <path id="Shape-4" data-name="Shape" d="M335.775,29.732l4.074-1.032,1.7,5.245Zm9.375-6.78h-7.171l-2.2-6.752-2.2,6.752H326.4l5.8,4.185L330,33.889l5.8-4.185,3.571-2.567,5.775-4.185Z" transform="translate(-234.655 -11.68)" fill="#fff"/>
      <path id="Shape-5" data-name="Shape" d="M439.775,29.732l4.074-1.032,1.7,5.245Zm9.375-6.78h-7.171l-2.2-6.752-2.2,6.752H430.4l5.8,4.185L434,33.889l5.8-4.185,3.571-2.567,5.776-4.185Z" transform="translate(-309.638 -11.68)" fill="#fff"/>
    </g>
    <text id="TrustScore_4.5_1000_reviews_" data-name="TrustScore 4.5 | 1000 reviews " transform="translate(409 603.204)" font-size="16" font-family="EuclidCircularA-Regular, Euclid Circular A"><tspan x="0" y="0">TrustScore</tspan><tspan y="0" fill="#fff"> </tspan><tspan y="0" fill="#00b67a" font-family="EuclidCircularA-Medium, Euclid Circular A" font-weight="500">4.5</tspan><tspan y="0" fill="#fff"> </tspan><tspan y="0">|</tspan><tspan y="0" fill="#fff"> </tspan><tspan y="0" fill="#00b67a" font-family="EuclidCircularA-Medium, Euclid Circular A" font-weight="500">1000</tspan><tspan y="0" fill="#fff"> </tspan><tspan y="0">reviews </tspan></text>
  </g>
</svg>
