<svg xmlns="http://www.w3.org/2000/svg" width="99" height="81" viewBox="0 0 99 81">
  <g id="Group_1117" data-name="Group 1117" transform="translate(-24323 -16155)">
    <rect id="Rectangle_2443" data-name="Rectangle 2443" width="99" height="81" transform="translate(24323 16155)" fill="#fff"/>
    <g id="Group_1112" data-name="Group 1112" transform="translate(24280.906 15611.726)">
      <g id="Trustpilot_brandmark_gr-blk-RGB" transform="translate(53.094 564.274)">
        <g id="Type" transform="translate(20.015 6.631)">
          <g id="Group_553" data-name="Group 553">
            <path id="Path_596" data-name="Path 596" d="M297.607,98.6h7.714v1.439h-3.033v8.091H300.62v-8.091H297.6V98.6Zm7.384,2.63h1.426v1.332h.027a1.564,1.564,0,0,1,.262-.545,2.425,2.425,0,0,1,.464-.484,2.472,2.472,0,0,1,.605-.356,1.852,1.852,0,0,1,.679-.135c.175,0,.3.007.37.013s.135.02.208.027v1.466c-.108-.02-.215-.034-.329-.047a2.792,2.792,0,0,0-.33-.02,1.782,1.782,0,0,0-.726.155,1.673,1.673,0,0,0-.592.451,2.288,2.288,0,0,0-.4.74,3.134,3.134,0,0,0-.148,1.016v3.282h-1.52V101.23Zm11.03,6.9h-1.493v-.962H314.5a2.073,2.073,0,0,1-.834.834,2.281,2.281,0,0,1-1.13.316,2.531,2.531,0,0,1-1.971-.673,2.975,2.975,0,0,1-.605-2.038V101.23h1.52v4.23a1.858,1.858,0,0,0,.35,1.285,1.266,1.266,0,0,0,.975.377,1.87,1.87,0,0,0,.8-.148,1.35,1.35,0,0,0,.518-.4,1.522,1.522,0,0,0,.289-.592,2.912,2.912,0,0,0,.087-.746v-4h1.52Zm2.589-2.213a1.171,1.171,0,0,0,.5.935,2.035,2.035,0,0,0,1.056.269,4.523,4.523,0,0,0,.484-.034,2.034,2.034,0,0,0,.511-.128.983.983,0,0,0,.4-.276.669.669,0,0,0,.141-.471.649.649,0,0,0-.215-.478,1.515,1.515,0,0,0-.511-.3,5.126,5.126,0,0,0-.713-.2c-.269-.054-.538-.114-.814-.175a7.727,7.727,0,0,1-.82-.229,2.5,2.5,0,0,1-.706-.363,1.6,1.6,0,0,1-.5-.578,1.809,1.809,0,0,1-.188-.874,1.576,1.576,0,0,1,.276-.942,2.09,2.09,0,0,1,.693-.612,3.211,3.211,0,0,1,.935-.33,5.691,5.691,0,0,1,.982-.094,4.578,4.578,0,0,1,1.022.114,2.635,2.635,0,0,1,.881.37,2.179,2.179,0,0,1,.652.659,2.294,2.294,0,0,1,.329.982h-1.587a.946.946,0,0,0-.5-.733,2.038,2.038,0,0,0-.9-.188,2.832,2.832,0,0,0-.383.027,2.1,2.1,0,0,0-.417.1.9.9,0,0,0-.33.215.52.52,0,0,0-.134.37.575.575,0,0,0,.2.451,1.63,1.63,0,0,0,.5.289,5.131,5.131,0,0,0,.713.2c.269.054.545.114.827.175s.545.141.814.229a2.457,2.457,0,0,1,.713.363,1.79,1.79,0,0,1,.5.572,1.743,1.743,0,0,1,.2.854,1.858,1.858,0,0,1-.283,1.042,2.235,2.235,0,0,1-.726.693,3.417,3.417,0,0,1-1,.39,5,5,0,0,1-1.083.121,4.594,4.594,0,0,1-1.211-.148,2.946,2.946,0,0,1-.962-.444,2.2,2.2,0,0,1-.639-.746,2.451,2.451,0,0,1-.249-1.063h1.533Zm5.017-4.688h1.15V99.158h1.52v2.071h1.372v1.137H326.3v3.685a3.766,3.766,0,0,0,.02.417.766.766,0,0,0,.094.3.431.431,0,0,0,.222.182,1.084,1.084,0,0,0,.4.061c.108,0,.215,0,.323-.007a1.78,1.78,0,0,0,.323-.047v1.177c-.168.02-.336.034-.491.054a3.928,3.928,0,0,1-.491.027,3.4,3.4,0,0,1-.968-.114,1.256,1.256,0,0,1-.572-.336,1.167,1.167,0,0,1-.283-.551,4.148,4.148,0,0,1-.087-.76V102.38h-1.15v-1.15Zm5.118,0h1.439v.935h.027a1.878,1.878,0,0,1,.894-.861,2.947,2.947,0,0,1,1.244-.262,3.221,3.221,0,0,1,1.419.289,2.774,2.774,0,0,1,1.009.787,3.444,3.444,0,0,1,.6,1.17,4.905,4.905,0,0,1,.2,1.426,4.955,4.955,0,0,1-.182,1.345,3.6,3.6,0,0,1-.545,1.157,2.674,2.674,0,0,1-.928.8,2.753,2.753,0,0,1-1.325.3,3.715,3.715,0,0,1-.666-.061,2.929,2.929,0,0,1-.639-.2,2.306,2.306,0,0,1-.565-.343,2.131,2.131,0,0,1-.437-.484h-.027v3.443h-1.52Zm5.313,3.457a3.436,3.436,0,0,0-.121-.908,2.448,2.448,0,0,0-.363-.78,1.851,1.851,0,0,0-.6-.545,1.847,1.847,0,0,0-2.273.457,2.955,2.955,0,0,0-.484,1.775,3.408,3.408,0,0,0,.128.968,2.161,2.161,0,0,0,.383.767,1.815,1.815,0,0,0,.605.5,1.9,1.9,0,0,0,1.7-.027,1.859,1.859,0,0,0,.592-.551,2.3,2.3,0,0,0,.336-.773A4.324,4.324,0,0,0,334.058,104.686Zm2.683-6.086h1.52v1.439h-1.52Zm0,2.63h1.52v6.9h-1.52Zm2.878-2.63h1.52v9.53h-1.52Zm6.181,9.718a3.759,3.759,0,0,1-1.473-.276,3.086,3.086,0,0,1-1.775-1.9,4.438,4.438,0,0,1-.235-1.466,4.386,4.386,0,0,1,.235-1.453,3.28,3.28,0,0,1,.679-1.15,3.1,3.1,0,0,1,1.1-.753,4.071,4.071,0,0,1,2.946,0,3.087,3.087,0,0,1,1.775,1.9,4.387,4.387,0,0,1,.235,1.453,4.44,4.44,0,0,1-.235,1.466,3.281,3.281,0,0,1-.679,1.15,3.1,3.1,0,0,1-1.1.753A3.759,3.759,0,0,1,345.8,108.318Zm0-1.2a1.762,1.762,0,0,0,.881-.215,1.874,1.874,0,0,0,.612-.558,2.506,2.506,0,0,0,.357-.78,3.479,3.479,0,0,0,0-1.769,2.3,2.3,0,0,0-.357-.78,1.854,1.854,0,0,0-.612-.551,1.911,1.911,0,0,0-1.762,0,1.932,1.932,0,0,0-.612.551,2.438,2.438,0,0,0-.356.78,3.478,3.478,0,0,0,0,1.769,2.363,2.363,0,0,0,.356.78,1.876,1.876,0,0,0,.612.558A1.7,1.7,0,0,0,345.8,107.114Zm3.928-5.885h1.15V99.158h1.52v2.071h1.372v1.137H352.4v3.685a3.742,3.742,0,0,0,.02.417.765.765,0,0,0,.094.3.431.431,0,0,0,.222.182,1.084,1.084,0,0,0,.4.061c.108,0,.215,0,.323-.007a1.78,1.78,0,0,0,.323-.047v1.177c-.168.02-.336.034-.491.054a3.928,3.928,0,0,1-.491.027,3.4,3.4,0,0,1-.968-.114,1.257,1.257,0,0,1-.572-.336,1.167,1.167,0,0,1-.282-.551,4.147,4.147,0,0,1-.087-.76V102.38h-1.15v-1.15Z" transform="translate(-297.6 -98.6)"/>
          </g>
        </g>
        <g id="Star">
          <path id="Path_597" data-name="Path 597" d="M18.246,6.631H11.278L9.126,0,6.967,6.631,0,6.624l5.643,4.1L3.484,17.351l5.643-4.1,5.636,4.1L12.61,10.727l5.636-4.1Z" fill="#00b67a"/>
          <path id="Path_598" data-name="Path 598" d="M139.668,161l-.484-1.5-3.484,2.529Z" transform="translate(-126.574 -148.773)" fill="#005128"/>
        </g>
      </g>
      <g id="Group_1012" data-name="Group 1012" transform="translate(53.094 590.087)">
        <rect id="Rectangle-path" width="14.169" height="14.169" transform="translate(0 0)" fill="#00b67a"/>
        <rect id="Rectangle-path-2" data-name="Rectangle-path" width="14.533" height="14.169" transform="translate(15.622 0)" fill="#00b67a"/>
        <rect id="Rectangle-path-3" data-name="Rectangle-path" width="14.533" height="14.169" transform="translate(31.245 0)" fill="#00b67a"/>
        <rect id="Rectangle-path-4" data-name="Rectangle-path" width="14.896" height="14.169" transform="translate(46.867 0)" fill="#00b67a"/>
        <g id="Half" transform="translate(62.853 0)">
          <rect id="Rectangle-path-5" data-name="Rectangle-path" width="7.266" height="14.169" transform="translate(6.903)" fill="#dcdce6"/>
          <rect id="Rectangle-path-6" data-name="Rectangle-path" width="6.903" height="14.169" transform="translate(0)" fill="#00b67a"/>
        </g>
        <path id="Shape" d="M19.439,23.474l2.19-.555.915,2.82Zm5.039-3.644H20.624L19.439,16.2l-1.185,3.629H14.4l3.12,2.25-1.185,3.629,3.12-2.25,1.92-1.38,3.1-2.25Z" transform="translate(-12.24 -13.77)" fill="#fff"/>
        <path id="Shape-2" data-name="Shape" d="M123.439,23.474l2.19-.555.915,2.82Zm5.039-3.644h-3.854L123.439,16.2l-1.185,3.629H118.4l3.12,2.25-1.185,3.629,3.12-2.25,1.92-1.38,3.1-2.25Z" transform="translate(-100.643 -13.77)" fill="#fff"/>
        <path id="Shape-3" data-name="Shape" d="M227.439,23.474l2.19-.555.915,2.82Zm5.039-3.644h-3.854L227.439,16.2l-1.185,3.629H222.4l3.12,2.25-1.185,3.629,3.12-2.25,1.92-1.38,3.1-2.25Z" transform="translate(-189.045 -13.77)" fill="#fff"/>
        <path id="Shape-4" data-name="Shape" d="M331.439,23.474l2.19-.555.915,2.82Zm5.039-3.644h-3.854L331.439,16.2l-1.185,3.629H326.4l3.12,2.25-1.185,3.629,3.12-2.25,1.92-1.38,3.1-2.25Z" transform="translate(-277.084 -13.77)" fill="#fff"/>
        <path id="Shape-5" data-name="Shape" d="M435.439,23.474l2.19-.555.915,2.82Zm5.039-3.644h-3.854L435.439,16.2l-1.185,3.629H430.4l3.12,2.25-1.185,3.629,3.12-2.25,1.92-1.38,3.1-2.25Z" transform="translate(-365.486 -13.77)" fill="#fff"/>
      </g>
    </g>
  </g>
</svg>
