<svg xmlns="http://www.w3.org/2000/svg" width="110.294" height="27.032" viewBox="0 0 110.294 27.032">
  <g id="Group_1237" data-name="Group 1237" transform="translate(-127.912 -159.256)">
    <path id="Path_5304" data-name="Path 5304" d="M39.578,169.189l-3.116,9.578H26.375l8.166,5.92-3.122,9.577,8.166-5.917,8.166,5.917-3.126-9.571,8.166-5.919H42.7Z" transform="translate(101.537 -9.933)" fill="#27aa7a"/>
    <path id="Path_5305" data-name="Path 5305" d="M43.122,184.263l-.707-2.17-5.044,3.658Z" transform="translate(103.746 -7.341)" fill="#00532c"/>
    <path id="Path_5303" data-name="Path 5303" d="M125.965,180.966h1.663v-2.989h2.2v2.989h1.99v1.645h-1.99v5.325a5.065,5.065,0,0,0,.029.6,1.015,1.015,0,0,0,.134.424.637.637,0,0,0,.319.259,1.546,1.546,0,0,0,.58.088c.155,0,.309,0,.464-.01a2.37,2.37,0,0,0,.464-.067v1.7L131.1,191a6.6,6.6,0,0,1-.721.038,4.884,4.884,0,0,1-1.4-.165,1.858,1.858,0,0,1-.831-.48,1.657,1.657,0,0,1-.406-.8,5.936,5.936,0,0,1-.12-1.1v-5.884h-1.663Zm-5.681,8.507a2.547,2.547,0,0,0,1.277-.309,2.714,2.714,0,0,0,.889-.811,3.537,3.537,0,0,0,.51-1.129,5,5,0,0,0,0-2.554,3.389,3.389,0,0,0-.51-1.129,2.769,2.769,0,0,0-.889-.8,2.8,2.8,0,0,0-2.553,0,2.769,2.769,0,0,0-.889.8,3.362,3.362,0,0,0-.513,1.129,5.075,5.075,0,0,0,0,2.554,3.515,3.515,0,0,0,.513,1.129,2.714,2.714,0,0,0,.889.811,2.534,2.534,0,0,0,1.277.309m0,1.736a5.444,5.444,0,0,1-2.136-.4,4.576,4.576,0,0,1-1.585-1.089,4.684,4.684,0,0,1-.985-1.66,6.757,6.757,0,0,1,0-4.225,4.683,4.683,0,0,1,.985-1.657,4.563,4.563,0,0,1,1.585-1.092,5.99,5.99,0,0,1,4.273,0A4.544,4.544,0,0,1,124,182.182a4.614,4.614,0,0,1,.987,1.657,6.757,6.757,0,0,1,0,4.225,4.624,4.624,0,0,1-.987,1.66,4.555,4.555,0,0,1-1.583,1.089,5.447,5.447,0,0,1-2.136.4m-8.949-14.043h2.208v13.771h-2.2Zm-4.173,3.8h2.2v9.967h-2.2Zm0-3.8h2.2v2.082h-2.2Zm-3.885,8.8a4.933,4.933,0,0,0-.174-1.311,3.528,3.528,0,0,0-.521-1.129,2.712,2.712,0,0,0-.869-.79,2.376,2.376,0,0,0-1.2-.3,2.435,2.435,0,0,0-2.1.961,4.246,4.246,0,0,0-.7,2.565,5.138,5.138,0,0,0,.184,1.4,3.114,3.114,0,0,0,.551,1.11,2.753,2.753,0,0,0,.879.733,2.522,2.522,0,0,0,1.189.27,2.47,2.47,0,0,0,1.275-.309,2.7,2.7,0,0,0,.861-.8,3.2,3.2,0,0,0,.48-1.118,5.563,5.563,0,0,0,.145-1.283m-7.686-5h2.086v1.351h.038a2.726,2.726,0,0,1,1.295-1.244,4.31,4.31,0,0,1,1.8-.376,4.787,4.787,0,0,1,2.059.414,4.037,4.037,0,0,1,1.458,1.138,4.941,4.941,0,0,1,.871,1.681,7.138,7.138,0,0,1,.289,2.065,7.353,7.353,0,0,1-.259,1.947,5.075,5.075,0,0,1-.793,1.669,3.868,3.868,0,0,1-3.259,1.6,5.354,5.354,0,0,1-.961-.088,4.084,4.084,0,0,1-.928-.28,3.663,3.663,0,0,1-.823-.492,2.676,2.676,0,0,1-.627-.7H97.8v4.974H95.587Zm-7.4,0h1.662v-2.989h2.2v2.989h1.99v1.649h-1.99v5.325a5.063,5.063,0,0,0,.029.6,1.031,1.031,0,0,0,.136.424.633.633,0,0,0,.318.259,1.551,1.551,0,0,0,.58.088c.155,0,.31,0,.464-.01a2.358,2.358,0,0,0,.464-.067v1.7l-.721.078a6.608,6.608,0,0,1-.721.038,4.87,4.87,0,0,1-1.4-.165,1.87,1.87,0,0,1-.832-.48,1.657,1.657,0,0,1-.406-.8,6.038,6.038,0,0,1-.12-1.1v-5.884H88.183Zm-7.268,6.772a1.656,1.656,0,0,0,.735,1.349,2.882,2.882,0,0,0,1.526.387,5.651,5.651,0,0,0,.706-.049,3.1,3.1,0,0,0,.745-.183,1.393,1.393,0,0,0,.569-.4.95.95,0,0,0,.2-.686.975.975,0,0,0-.31-.694,2.161,2.161,0,0,0-.745-.435,7.523,7.523,0,0,0-1.033-.28c-.388-.076-.781-.16-1.18-.249a11.486,11.486,0,0,1-1.189-.329,3.781,3.781,0,0,1-1.023-.52,2.4,2.4,0,0,1-.721-.841,2.675,2.675,0,0,1-.27-1.263,2.267,2.267,0,0,1,.4-1.359,3.022,3.022,0,0,1,1.005-.887,4.38,4.38,0,0,1,1.352-.472,8.065,8.065,0,0,1,1.422-.135,6.513,6.513,0,0,1,1.477.163,3.99,3.99,0,0,1,1.277.531,3.122,3.122,0,0,1,.947.955,3.294,3.294,0,0,1,.472,1.418H84.975a1.373,1.373,0,0,0-.721-1.063,3.022,3.022,0,0,0-1.3-.269,4.756,4.756,0,0,0-.551.038,2.587,2.587,0,0,0-.6.144,1.265,1.265,0,0,0-.48.309.749.749,0,0,0-.193.531.841.841,0,0,0,.28.657,2.244,2.244,0,0,0,.735.414,7.377,7.377,0,0,0,1.034.28c.388.077.785.16,1.2.251a11.971,11.971,0,0,1,1.179.327,3.843,3.843,0,0,1,1.035.522,2.541,2.541,0,0,1,.734.829,2.509,2.509,0,0,1,.28,1.235,2.693,2.693,0,0,1-.4,1.5,3.2,3.2,0,0,1-1.054,1,4.785,4.785,0,0,1-1.441.561,7.264,7.264,0,0,1-1.561.174,6.81,6.81,0,0,1-1.75-.213A4.055,4.055,0,0,1,80,190.345a3.111,3.111,0,0,1-.927-1.081,3.43,3.43,0,0,1-.36-1.532Zm-3.748,3.2H75.008v-1.388h-.038a3.033,3.033,0,0,1-1.209,1.2,3.293,3.293,0,0,1-1.632.454,3.675,3.675,0,0,1-2.851-.974,4.269,4.269,0,0,1-.879-2.942v-6.319h2.2v6.115a2.7,2.7,0,0,0,.5,1.851,1.827,1.827,0,0,0,1.411.542,2.785,2.785,0,0,0,1.16-.213,2.049,2.049,0,0,0,.754-.569,2.216,2.216,0,0,0,.415-.857,4.425,4.425,0,0,0,.126-1.081v-5.787h2.2ZM61.2,180.967h2.069V182.9h.038a2.282,2.282,0,0,1,.376-.791,3.7,3.7,0,0,1,.678-.7,3.383,3.383,0,0,1,.878-.512,2.642,2.642,0,0,1,.987-.192,4.773,4.773,0,0,1,.531.018c.1.012.2.028.3.04v2.122c-.155-.025-.312-.049-.48-.067a3.732,3.732,0,0,0-.473-.029,2.521,2.521,0,0,0-1.054.221,2.454,2.454,0,0,0-.86.654,3.251,3.251,0,0,0-.58,1.071,4.633,4.633,0,0,0-.213,1.466v4.745H61.2Zm-10.688-3.8H61.678v2.081H57.3v11.688H54.88V179.248H50.512Z" transform="translate(106.385 -8.331)" fill="#1d1d1b"/>
  </g>
</svg>
