<svg xmlns="http://www.w3.org/2000/svg" width="81.153" height="34.061" viewBox="0 0 81.153 34.061">
  <g id="Group_10" data-name="Group 10" transform="translate(-92.363 -427.413)">
    <g id="Trustpilot_brandmark_gr-blk-RGB" transform="translate(92.363 427.413)">
      <g id="Type" transform="translate(16.279 5.393)">
        <g id="Group_3" data-name="Group 3">
          <path id="Path_23" data-name="Path 23" d="M297.605,98.6h6.275v1.171h-2.464v6.585H300.06V99.771H297.6V98.6Zm6.006,2.139h1.16v1.083h.022a1.27,1.27,0,0,1,.214-.443,1.968,1.968,0,0,1,.378-.394,2.005,2.005,0,0,1,.493-.29,1.505,1.505,0,0,1,.552-.109c.142,0,.246.005.3.011s.109.016.17.022v1.193c-.091-.016-.175-.027-.268-.038a2.27,2.27,0,0,0-.268-.016,1.449,1.449,0,0,0-.59.126,1.361,1.361,0,0,0-.482.365,1.862,1.862,0,0,0-.328.6,2.55,2.55,0,0,0-.12.826v2.67h-1.236v-5.607Zm8.971,5.612h-1.214v-.782h-.022a1.686,1.686,0,0,1-.678.678,1.856,1.856,0,0,1-.919.257,2.058,2.058,0,0,1-1.6-.547,2.42,2.42,0,0,1-.493-1.658V100.74h1.236v3.441a1.512,1.512,0,0,0,.285,1.045,1.03,1.03,0,0,0,.793.307,1.521,1.521,0,0,0,.651-.12,1.1,1.1,0,0,0,.421-.323,1.237,1.237,0,0,0,.235-.482,2.372,2.372,0,0,0,.071-.607v-3.256h1.236Zm2.106-1.8a.952.952,0,0,0,.411.76,1.655,1.655,0,0,0,.859.219,3.68,3.68,0,0,0,.394-.027,1.657,1.657,0,0,0,.416-.1.8.8,0,0,0,.323-.224.547.547,0,0,0,.115-.383.528.528,0,0,0-.175-.389,1.231,1.231,0,0,0-.416-.246,4.166,4.166,0,0,0-.579-.159c-.219-.044-.438-.091-.661-.142a6.284,6.284,0,0,1-.667-.182,2.038,2.038,0,0,1-.575-.3,1.3,1.3,0,0,1-.405-.471,1.47,1.47,0,0,1-.153-.711,1.277,1.277,0,0,1,.224-.766,1.7,1.7,0,0,1,.564-.5,2.611,2.611,0,0,1,.76-.268,4.631,4.631,0,0,1,.8-.077,3.725,3.725,0,0,1,.831.091,2.141,2.141,0,0,1,.716.3,1.77,1.77,0,0,1,.531.536,1.865,1.865,0,0,1,.268.8h-1.291a.77.77,0,0,0-.405-.6,1.658,1.658,0,0,0-.73-.153,2.3,2.3,0,0,0-.312.022,1.705,1.705,0,0,0-.339.082.734.734,0,0,0-.268.175.424.424,0,0,0-.109.3.468.468,0,0,0,.159.365,1.328,1.328,0,0,0,.411.235,4.163,4.163,0,0,0,.579.159q.328.066.672.142c.229.051.443.115.661.182a2,2,0,0,1,.579.3,1.459,1.459,0,0,1,.411.465,1.417,1.417,0,0,1,.159.694,1.512,1.512,0,0,1-.23.848,1.818,1.818,0,0,1-.591.564,2.778,2.778,0,0,1-.809.318,4.066,4.066,0,0,1-.881.1,3.734,3.734,0,0,1-.984-.12,2.4,2.4,0,0,1-.782-.365,1.79,1.79,0,0,1-.52-.607,1.993,1.993,0,0,1-.2-.864h1.247Zm4.08-3.813h.935V99.056h1.236v1.685h1.112v.924h-1.116v3a3,3,0,0,0,.016.339.624.624,0,0,0,.077.241.351.351,0,0,0,.182.148.881.881,0,0,0,.328.049c.091,0,.175,0,.263-.005a1.449,1.449,0,0,0,.263-.038v.959c-.137.016-.274.027-.4.044a3.192,3.192,0,0,1-.4.022,2.766,2.766,0,0,1-.787-.091,1.022,1.022,0,0,1-.465-.274.948.948,0,0,1-.23-.449,3.353,3.353,0,0,1-.071-.618V101.68h-.935v-.935Zm4.162,0H324.1v.76h.022a1.528,1.528,0,0,1,.73-.7,2.4,2.4,0,0,1,1.012-.213,2.618,2.618,0,0,1,1.154.235,2.254,2.254,0,0,1,.821.639,2.8,2.8,0,0,1,.487.952,3.988,3.988,0,0,1,.164,1.16,4.037,4.037,0,0,1-.148,1.095,2.929,2.929,0,0,1-.444.941,2.175,2.175,0,0,1-.755.651,2.239,2.239,0,0,1-1.077.246,3.02,3.02,0,0,1-.542-.049,2.382,2.382,0,0,1-.52-.159,1.875,1.875,0,0,1-.456-.279,1.734,1.734,0,0,1-.356-.394h-.022v2.8h-1.236Zm4.321,2.812a2.792,2.792,0,0,0-.1-.738,1.992,1.992,0,0,0-.3-.639,1.45,1.45,0,0,0-2.336-.071,2.4,2.4,0,0,0-.394,1.444,2.77,2.77,0,0,0,.1.787,1.759,1.759,0,0,0,.312.623,1.475,1.475,0,0,0,.493.411,1.543,1.543,0,0,0,1.384-.022,1.513,1.513,0,0,0,.481-.449,1.86,1.86,0,0,0,.274-.629,3.513,3.513,0,0,0,.078-.718Zm2.183-4.951h1.236v1.171h-1.236Zm0,2.139h1.236v5.617h-1.236Zm2.341-2.139h1.236v7.755h-1.236Zm5.027,7.9a3.056,3.056,0,0,1-1.2-.224,2.51,2.51,0,0,1-1.444-1.551,3.61,3.61,0,0,1-.192-1.192,3.566,3.566,0,0,1,.192-1.182,2.669,2.669,0,0,1,.552-.935,2.519,2.519,0,0,1,.891-.612,3.311,3.311,0,0,1,2.4,0,2.511,2.511,0,0,1,1.444,1.551,3.568,3.568,0,0,1,.192,1.182,3.614,3.614,0,0,1-.192,1.193,2.668,2.668,0,0,1-.553.935,2.518,2.518,0,0,1-.891.612,3.058,3.058,0,0,1-1.2.224Zm0-.979a1.433,1.433,0,0,0,.716-.175,1.526,1.526,0,0,0,.5-.456,2.036,2.036,0,0,0,.29-.639,2.827,2.827,0,0,0,0-1.439,1.87,1.87,0,0,0-.29-.639,1.51,1.51,0,0,0-.5-.449,1.551,1.551,0,0,0-1.433,0,1.571,1.571,0,0,0-.5.449,1.984,1.984,0,0,0-.29.639,2.831,2.831,0,0,0,0,1.439,1.922,1.922,0,0,0,.29.639,1.525,1.525,0,0,0,.5.456,1.378,1.378,0,0,0,.717.175ZM340,100.739h.935V99.056h1.236v1.685h1.116v.924h-1.116v3a3.045,3.045,0,0,0,.016.339.625.625,0,0,0,.077.241.351.351,0,0,0,.182.148.882.882,0,0,0,.328.049c.091,0,.175,0,.263-.005a1.453,1.453,0,0,0,.263-.038v.959c-.137.016-.274.027-.4.044a3.2,3.2,0,0,1-.4.022,2.769,2.769,0,0,1-.787-.091,1.023,1.023,0,0,1-.465-.274.95.95,0,0,1-.23-.449,3.369,3.369,0,0,1-.071-.618V101.68h-.935v-.935Z" transform="translate(-297.6 -98.6)" fill="#1d1d1b"/>
        </g>
      </g>
      <g id="Star">
        <path id="Path_24" data-name="Path 24" d="M14.84,5.393H9.173L7.422,0,5.667,5.393,0,5.388,4.589,8.724,2.834,14.113l4.589-3.331,4.584,3.331L10.256,8.724,14.84,5.393Z" fill="#00b67a"/>
        <path id="Path_25" data-name="Path 25" d="M138.927,160.72l-.394-1.22-2.833,2.057Z" transform="translate(-128.277 -150.776)" fill="#005128"/>
      </g>
    </g>
    <g id="Group_11" data-name="Group 11" transform="translate(92.363 446.259)">
      <rect id="Rectangle-path" width="15.216" height="15.216" fill="#00b67a"/>
      <rect id="Rectangle-path-2" data-name="Rectangle-path" width="15.216" height="15.216" transform="translate(16.484)" fill="#00b67a"/>
      <rect id="Rectangle-path-3" data-name="Rectangle-path" width="15.216" height="15.216" transform="translate(32.968)" fill="#00b67a"/>
      <rect id="Rectangle-path-4" data-name="Rectangle-path" width="15.216" height="15.216" transform="translate(49.452)" fill="#00b67a"/>
      <g id="Half" transform="translate(65.936)">
        <rect id="Rectangle-path-5" data-name="Rectangle-path" width="7.608" height="15.216" transform="translate(7.608)" fill="#dcdce6"/>
        <rect id="Rectangle-path-6" data-name="Rectangle-path" width="7.608" height="15.216" fill="#00b67a"/>
      </g>
      <path id="Shape" d="M19.726,23.887,22.04,23.3l.967,2.979Zm5.326-3.852H20.978L19.726,16.2l-1.252,3.836H14.4l3.3,2.378-1.252,3.836,3.3-2.378,2.029-1.458,3.281-2.378Z" transform="translate(-12.117 -13.632)" fill="#fff"/>
      <path id="Shape-2" data-name="Shape" d="M123.726,23.887l2.314-.587.967,2.979Zm5.326-3.852h-4.073L123.726,16.2l-1.252,3.836H118.4l3.3,2.378-1.252,3.836,3.3-2.378,2.029-1.458,3.281-2.378Z" transform="translate(-99.634 -13.632)" fill="#fff"/>
      <path id="Shape-3" data-name="Shape" d="M227.726,23.887l2.314-.587.967,2.979Zm5.326-3.852h-4.073L227.726,16.2l-1.252,3.836H222.4l3.3,2.378-1.252,3.836,3.3-2.378,2.029-1.458,3.281-2.378Z" transform="translate(-187.149 -13.632)" fill="#fff"/>
      <path id="Shape-4" data-name="Shape" d="M331.726,23.887l2.314-.587.967,2.979Zm5.326-3.852h-4.073L331.726,16.2l-1.252,3.836H326.4l3.3,2.378-1.252,3.836,3.3-2.378,2.029-1.458,3.281-2.378Z" transform="translate(-274.665 -13.632)" fill="#fff"/>
      <path id="Shape-5" data-name="Shape" d="M435.726,23.887l2.314-.587.967,2.979Zm5.326-3.852h-4.073L435.726,16.2l-1.252,3.836H430.4l3.3,2.378-1.252,3.836,3.3-2.378,2.029-1.458,3.281-2.378Z" transform="translate(-362.181 -13.632)" fill="#fff"/>
    </g>
  </g>
</svg>
