<svg xmlns="http://www.w3.org/2000/svg" width="114.401" height="41.914" viewBox="0 0 114.401 41.914">
  <g id="Group_10" data-name="Group 10" transform="translate(-164 -412.413)">
    <g id="Trustpilot_brandmark_gr-blk-RGB" transform="translate(164 412.413)">
      <g id="Type" transform="translate(17.842 5.911)">
        <g id="Group_3" data-name="Group 3">
          <path id="Path_23" data-name="Path 23" d="M297.606,98.6h6.877v1.283h-2.7V107.1h-1.487V99.883H297.6V98.6Zm6.583,2.344h1.271v1.187h.024a1.394,1.394,0,0,1,.234-.486,2.159,2.159,0,0,1,.414-.432,2.2,2.2,0,0,1,.54-.318,1.65,1.65,0,0,1,.605-.12c.156,0,.27.006.33.012s.12.018.186.024v1.307c-.1-.018-.192-.03-.294-.042a2.49,2.49,0,0,0-.294-.018,1.589,1.589,0,0,0-.647.138,1.493,1.493,0,0,0-.528.4,2.039,2.039,0,0,0-.36.659,2.794,2.794,0,0,0-.132.905v2.926h-1.355v-6.145Zm9.832,6.151H312.69v-.857h-.024a1.848,1.848,0,0,1-.743.743,2.034,2.034,0,0,1-1.007.282,2.256,2.256,0,0,1-1.757-.6,2.652,2.652,0,0,1-.54-1.817v-3.9h1.355v3.771a1.657,1.657,0,0,0,.312,1.145,1.129,1.129,0,0,0,.869.336,1.666,1.666,0,0,0,.713-.132,1.2,1.2,0,0,0,.462-.354,1.357,1.357,0,0,0,.258-.528,2.6,2.6,0,0,0,.078-.665V100.95h1.355Zm2.308-1.972a1.043,1.043,0,0,0,.45.833,1.814,1.814,0,0,0,.941.24,4.027,4.027,0,0,0,.432-.03,1.813,1.813,0,0,0,.456-.114.876.876,0,0,0,.354-.246.6.6,0,0,0,.126-.42.579.579,0,0,0-.192-.426,1.349,1.349,0,0,0-.456-.27,4.567,4.567,0,0,0-.635-.174c-.24-.048-.48-.1-.725-.156a6.887,6.887,0,0,1-.731-.2,2.234,2.234,0,0,1-.63-.324,1.423,1.423,0,0,1-.444-.516,1.612,1.612,0,0,1-.168-.779,1.4,1.4,0,0,1,.246-.839,1.863,1.863,0,0,1,.618-.546,2.863,2.863,0,0,1,.833-.294,5.076,5.076,0,0,1,.875-.084,4.081,4.081,0,0,1,.911.1,2.348,2.348,0,0,1,.785.33,1.941,1.941,0,0,1,.582.588,2.045,2.045,0,0,1,.294.875h-1.415a.844.844,0,0,0-.444-.653,1.817,1.817,0,0,0-.8-.168,2.525,2.525,0,0,0-.342.024,1.872,1.872,0,0,0-.372.09.805.805,0,0,0-.294.192.464.464,0,0,0-.12.33.513.513,0,0,0,.174.4,1.455,1.455,0,0,0,.45.258,4.563,4.563,0,0,0,.635.174c.24.048.486.1.737.156s.486.126.725.2a2.19,2.19,0,0,1,.635.324,1.6,1.6,0,0,1,.45.51,1.553,1.553,0,0,1,.174.761,1.657,1.657,0,0,1-.252.929,1.993,1.993,0,0,1-.648.618,3.045,3.045,0,0,1-.887.348,4.455,4.455,0,0,1-.965.108,4.094,4.094,0,0,1-1.079-.132,2.626,2.626,0,0,1-.857-.4,1.961,1.961,0,0,1-.57-.665,2.184,2.184,0,0,1-.222-.947h1.367Zm4.472-4.179h1.025V99.1h1.355v1.847H324.4v1.013h-1.223v3.285a3.326,3.326,0,0,0,.018.372.684.684,0,0,0,.084.264.385.385,0,0,0,.2.162.966.966,0,0,0,.36.054c.1,0,.192,0,.288-.006a1.588,1.588,0,0,0,.288-.042V107.1c-.15.018-.3.03-.438.048a3.5,3.5,0,0,1-.438.024,3.033,3.033,0,0,1-.863-.1,1.12,1.12,0,0,1-.51-.3,1.04,1.04,0,0,1-.252-.492,3.685,3.685,0,0,1-.078-.677v-3.627h-1.025v-1.025Zm4.562,0h1.283v.833h.024a1.674,1.674,0,0,1,.8-.767,2.627,2.627,0,0,1,1.109-.234,2.87,2.87,0,0,1,1.265.258,2.472,2.472,0,0,1,.9.7,3.07,3.07,0,0,1,.534,1.043,4.372,4.372,0,0,1,.18,1.271,4.419,4.419,0,0,1-.162,1.2,3.209,3.209,0,0,1-.486,1.031,2.384,2.384,0,0,1-.827.713,2.454,2.454,0,0,1-1.181.27,3.31,3.31,0,0,1-.594-.054,2.61,2.61,0,0,1-.57-.174,2.055,2.055,0,0,1-.5-.306,1.9,1.9,0,0,1-.39-.432h-.024v3.07h-1.355Zm4.736,3.082a3.063,3.063,0,0,0-.108-.809,2.184,2.184,0,0,0-.324-.7,1.649,1.649,0,0,0-.534-.486,1.647,1.647,0,0,0-2.026.408,2.634,2.634,0,0,0-.432,1.583,3.041,3.041,0,0,0,.114.863,1.929,1.929,0,0,0,.342.683,1.617,1.617,0,0,0,.54.45,1.691,1.691,0,0,0,1.517-.024,1.658,1.658,0,0,0,.527-.492,2.04,2.04,0,0,0,.3-.689A3.85,3.85,0,0,0,330.1,104.026Zm2.392-5.426h1.355v1.283h-1.355Zm0,2.344h1.355V107.1h-1.355Zm2.566-2.344h1.355v8.5h-1.355Zm5.51,8.663a3.35,3.35,0,0,1-1.313-.246,2.751,2.751,0,0,1-1.583-1.7,3.955,3.955,0,0,1-.21-1.307,3.909,3.909,0,0,1,.21-1.295,2.924,2.924,0,0,1,.605-1.025,2.761,2.761,0,0,1,.977-.671,3.629,3.629,0,0,1,2.626,0,2.752,2.752,0,0,1,1.583,1.7,3.911,3.911,0,0,1,.21,1.295,3.958,3.958,0,0,1-.21,1.307,2.925,2.925,0,0,1-.606,1.025,2.762,2.762,0,0,1-.977.671A3.351,3.351,0,0,1,340.567,107.263Zm0-1.073a1.571,1.571,0,0,0,.785-.192,1.672,1.672,0,0,0,.546-.5,2.234,2.234,0,0,0,.318-.7,3.1,3.1,0,0,0,0-1.577,2.05,2.05,0,0,0-.318-.7,1.654,1.654,0,0,0-.546-.492,1.7,1.7,0,0,0-1.571,0,1.721,1.721,0,0,0-.546.492,2.173,2.173,0,0,0-.318.7,3.1,3.1,0,0,0,0,1.577,2.106,2.106,0,0,0,.318.7,1.671,1.671,0,0,0,.546.5A1.511,1.511,0,0,0,340.567,106.19Zm3.5-5.246h1.025V99.1h1.355v1.847h1.223v1.013h-1.223v3.285a3.359,3.359,0,0,0,.018.372.685.685,0,0,0,.084.264.385.385,0,0,0,.2.162.967.967,0,0,0,.36.054c.1,0,.192,0,.288-.006a1.587,1.587,0,0,0,.288-.042V107.1c-.15.018-.3.03-.438.048a3.506,3.506,0,0,1-.438.024,3.034,3.034,0,0,1-.863-.1,1.121,1.121,0,0,1-.51-.3,1.041,1.041,0,0,1-.252-.492,3.7,3.7,0,0,1-.078-.677v-3.627h-1.025v-1.025Z" transform="translate(-297.6 -98.6)" fill="#191919"/>
        </g>
      </g>
      <g id="Star">
        <path id="Path_24" data-name="Path 24" d="M16.265,5.911H10.054L8.135,0,6.211,5.911,0,5.905,5.03,9.562,3.106,15.468l5.03-3.651,5.024,3.651L11.241,9.562l5.024-3.651Z" fill="#00b67a"/>
        <path id="Path_25" data-name="Path 25" d="M139.237,160.837l-.432-1.337-3.105,2.254Z" transform="translate(-127.564 -149.938)" fill="#005128"/>
      </g>
    </g>
    <g id="Group_11" data-name="Group 11" transform="translate(164 432.877)">
      <rect id="Rectangle-path" width="21.45" height="21.45" transform="translate(0)" fill="#00b67a"/>
      <rect id="Rectangle-path-2" data-name="Rectangle-path" width="21.45" height="21.45" transform="translate(23.238)" fill="#00b67a"/>
      <rect id="Rectangle-path-3" data-name="Rectangle-path" width="21.45" height="21.45" transform="translate(46.475)" fill="#00b67a"/>
      <rect id="Rectangle-path-4" data-name="Rectangle-path" width="21.45" height="21.45" transform="translate(69.713)" fill="#00b67a"/>
      <g id="Half" transform="translate(92.951)">
        <rect id="Rectangle-path-5" data-name="Rectangle-path" width="10.725" height="21.45" transform="translate(10.725)" fill="#dcdce6"/>
        <rect id="Rectangle-path-6" data-name="Rectangle-path" width="10.725" height="21.45" fill="#00b67a"/>
      </g>
      <path id="Shape" d="M21.908,27.037l3.262-.827,1.363,4.2Zm7.508-5.43H23.673L21.908,16.2l-1.765,5.407H14.4l4.648,3.352-1.765,5.407,4.648-3.352,2.86-2.056,4.625-3.352Z" transform="translate(-11.182 -12.58)" fill="#fff"/>
      <path id="Shape-2" data-name="Shape" d="M125.908,27.037l3.262-.827,1.363,4.2Zm7.508-5.43h-5.742L125.908,16.2l-1.765,5.407H118.4l4.648,3.352-1.765,5.407,4.648-3.352,2.86-2.056,4.625-3.352Z" transform="translate(-91.945 -12.58)" fill="#fff"/>
      <path id="Shape-3" data-name="Shape" d="M229.908,27.037l3.262-.827,1.363,4.2Zm7.508-5.43h-5.742L229.908,16.2l-1.765,5.407H222.4l4.648,3.352-1.765,5.407,4.648-3.352,2.86-2.056,4.625-3.352Z" transform="translate(-172.707 -12.58)" fill="#fff"/>
      <path id="Shape-4" data-name="Shape" d="M333.908,27.037l3.262-.827,1.363,4.2Zm7.508-5.43h-5.742L333.908,16.2l-1.765,5.407H326.4l4.648,3.352-1.765,5.407,4.648-3.352,2.86-2.056,4.625-3.352Z" transform="translate(-253.469 -12.58)" fill="#fff"/>
      <path id="Shape-5" data-name="Shape" d="M437.908,27.037l3.262-.827,1.363,4.2Zm7.508-5.43h-5.742L437.908,16.2l-1.765,5.407H430.4l4.648,3.352-1.765,5.407,4.648-3.352,2.86-2.056,4.625-3.352Z" transform="translate(-334.232 -12.58)" fill="#fff"/>
    </g>
  </g>
</svg>
