<svg xmlns="http://www.w3.org/2000/svg" width="160.761" height="16.148" viewBox="0 0 160.761 16.148">
  <g id="Group_10" data-name="Group 10" transform="translate(-92.363 -427.413)">
    <g id="Trustpilot_brandmark_gr-blk-RGB" transform="translate(92.363 427.413)">
      <g id="Type" transform="translate(17.277 5.724)">
        <g id="Group_3" data-name="Group 3">
          <path id="Path_23" data-name="Path 23" d="M297.606,98.6h6.659v1.242H301.65v6.988h-1.44V99.842H297.6V98.6Zm6.374,2.27h1.231v1.149h.023a1.348,1.348,0,0,1,.227-.471,2.089,2.089,0,0,1,.4-.418,2.129,2.129,0,0,1,.523-.308,1.6,1.6,0,0,1,.586-.116c.151,0,.261.006.319.012s.116.017.18.023v1.266c-.1-.017-.186-.029-.285-.041a2.408,2.408,0,0,0-.285-.017,1.538,1.538,0,0,0-.626.134,1.444,1.444,0,0,0-.511.387,1.976,1.976,0,0,0-.349.638,2.706,2.706,0,0,0-.128.876v2.833h-1.312v-5.95Zm9.52,5.956h-1.289V106h-.023a1.789,1.789,0,0,1-.719.719,1.969,1.969,0,0,1-.975.273,2.185,2.185,0,0,1-1.7-.581,2.568,2.568,0,0,1-.523-1.759v-3.776h1.312v3.651a1.6,1.6,0,0,0,.3,1.109,1.093,1.093,0,0,0,.841.325,1.614,1.614,0,0,0,.69-.128,1.163,1.163,0,0,0,.447-.343,1.313,1.313,0,0,0,.25-.511,2.519,2.519,0,0,0,.076-.644v-3.456H313.5Zm2.235-1.91a1.01,1.01,0,0,0,.436.807,1.757,1.757,0,0,0,.911.232,3.906,3.906,0,0,0,.418-.029,1.758,1.758,0,0,0,.442-.11.848.848,0,0,0,.343-.238.581.581,0,0,0,.122-.407.56.56,0,0,0-.186-.412,1.306,1.306,0,0,0-.442-.261,4.421,4.421,0,0,0-.615-.168c-.232-.046-.465-.1-.7-.151a6.671,6.671,0,0,1-.708-.194,2.164,2.164,0,0,1-.61-.314,1.379,1.379,0,0,1-.43-.5,1.561,1.561,0,0,1-.163-.754,1.355,1.355,0,0,1,.238-.812,1.8,1.8,0,0,1,.6-.529,2.771,2.771,0,0,1,.807-.285,4.916,4.916,0,0,1,.847-.081,3.953,3.953,0,0,1,.882.1,2.273,2.273,0,0,1,.76.32,1.879,1.879,0,0,1,.564.569,1.979,1.979,0,0,1,.285.847h-1.37a.817.817,0,0,0-.43-.632,1.759,1.759,0,0,0-.775-.163,2.446,2.446,0,0,0-.331.023,1.811,1.811,0,0,0-.36.087.778.778,0,0,0-.285.186.45.45,0,0,0-.116.32.5.5,0,0,0,.168.387,1.409,1.409,0,0,0,.436.25,4.42,4.42,0,0,0,.615.168q.348.07.714.151c.243.054.471.122.7.194a2.12,2.12,0,0,1,.615.314,1.549,1.549,0,0,1,.436.494,1.5,1.5,0,0,1,.169.737,1.6,1.6,0,0,1-.244.9,1.93,1.93,0,0,1-.627.6,2.949,2.949,0,0,1-.859.337,4.314,4.314,0,0,1-.934.1,3.963,3.963,0,0,1-1.045-.128,2.544,2.544,0,0,1-.83-.387,1.9,1.9,0,0,1-.552-.644,2.114,2.114,0,0,1-.215-.917h1.324Zm4.33-4.047h.993V99.084h1.312v1.788h1.18v.981h-1.184v3.181a3.2,3.2,0,0,0,.017.36.663.663,0,0,0,.081.256.373.373,0,0,0,.194.157.935.935,0,0,0,.349.052c.1,0,.186,0,.279-.006a1.537,1.537,0,0,0,.279-.041v1.018c-.145.017-.29.029-.424.046a3.389,3.389,0,0,1-.424.023,2.936,2.936,0,0,1-.836-.1,1.084,1.084,0,0,1-.494-.291,1.007,1.007,0,0,1-.244-.476,3.561,3.561,0,0,1-.076-.656v-3.512h-.992v-.993Zm4.417,0h1.242v.807h.023a1.621,1.621,0,0,1,.775-.743,2.543,2.543,0,0,1,1.074-.227,2.778,2.778,0,0,1,1.225.25,2.392,2.392,0,0,1,.871.678,2.969,2.969,0,0,1,.517,1.01,4.231,4.231,0,0,1,.174,1.231,4.284,4.284,0,0,1-.157,1.162,3.108,3.108,0,0,1-.471,1,2.308,2.308,0,0,1-.8.69,2.376,2.376,0,0,1-1.144.261,3.205,3.205,0,0,1-.575-.052,2.527,2.527,0,0,1-.552-.168,1.99,1.99,0,0,1-.484-.3,1.84,1.84,0,0,1-.378-.418H325.8v2.973h-1.312Zm4.586,2.984a2.966,2.966,0,0,0-.1-.783,2.115,2.115,0,0,0-.314-.678,1.539,1.539,0,0,0-2.479-.076,2.55,2.55,0,0,0-.418,1.533,2.94,2.94,0,0,0,.11.836,1.867,1.867,0,0,0,.331.661,1.566,1.566,0,0,0,.523.436,1.637,1.637,0,0,0,1.469-.023,1.606,1.606,0,0,0,.51-.476,1.976,1.976,0,0,0,.29-.667,3.73,3.73,0,0,0,.082-.762Zm2.316-5.254H332.7v1.242h-1.312Zm0,2.27H332.7v5.961h-1.312Zm2.485-2.27h1.312v8.231H333.87Zm5.335,8.388a3.244,3.244,0,0,1-1.271-.238A2.664,2.664,0,0,1,336.4,105.1a3.831,3.831,0,0,1-.2-1.266,3.785,3.785,0,0,1,.2-1.254,2.833,2.833,0,0,1,.586-.992,2.674,2.674,0,0,1,.946-.65,3.514,3.514,0,0,1,2.543,0,2.665,2.665,0,0,1,1.533,1.646,3.788,3.788,0,0,1,.2,1.254,3.836,3.836,0,0,1-.2,1.266,2.832,2.832,0,0,1-.587.993,2.673,2.673,0,0,1-.946.65,3.245,3.245,0,0,1-1.271.238Zm0-1.039a1.521,1.521,0,0,0,.76-.186,1.62,1.62,0,0,0,.529-.484,2.161,2.161,0,0,0,.308-.678,3,3,0,0,0,0-1.527,1.985,1.985,0,0,0-.308-.678,1.6,1.6,0,0,0-.529-.476,1.646,1.646,0,0,0-1.521,0,1.667,1.667,0,0,0-.529.476,2.1,2.1,0,0,0-.308.678,3,3,0,0,0,0,1.527,2.039,2.039,0,0,0,.308.678,1.618,1.618,0,0,0,.529.484,1.463,1.463,0,0,0,.761.186Zm3.389-5.08h.993V99.084H344.9v1.788h1.184v.981H344.9v3.181a3.234,3.234,0,0,0,.017.36.663.663,0,0,0,.081.256.372.372,0,0,0,.194.157.936.936,0,0,0,.349.052c.1,0,.186,0,.279-.006a1.542,1.542,0,0,0,.279-.041v1.018c-.145.017-.291.029-.424.046a3.394,3.394,0,0,1-.424.023,2.938,2.938,0,0,1-.836-.1,1.085,1.085,0,0,1-.494-.291,1.008,1.008,0,0,1-.244-.476,3.576,3.576,0,0,1-.076-.656v-3.512h-.993v-.993Z" transform="translate(-297.6 -98.6)" fill="#fff"/>
        </g>
      </g>
      <g id="Star">
        <path id="Path_24" data-name="Path 24" d="M15.749,5.724H9.735L7.877,0,6.014,5.724,0,5.718,4.871,9.259,3.008,14.978l4.871-3.535,4.865,3.535L10.885,9.259l4.865-3.535Z" fill="#00b67a"/>
        <path id="Path_25" data-name="Path 25" d="M139.125,160.795l-.418-1.295-3.007,2.183Z" transform="translate(-127.822 -150.241)" fill="#005128"/>
      </g>
    </g>
    <g id="Group_11" data-name="Group 11" transform="translate(167 427.413)">
      <rect id="Rectangle-path" width="16.148" height="16.148" fill="#00b67a"/>
      <rect id="Rectangle-path-2" data-name="Rectangle-path" width="16.148" height="16.148" transform="translate(17.494)" fill="#00b67a"/>
      <rect id="Rectangle-path-3" data-name="Rectangle-path" width="16.148" height="16.148" transform="translate(34.988)" fill="#00b67a"/>
      <rect id="Rectangle-path-4" data-name="Rectangle-path" width="16.148" height="16.148" transform="translate(52.482)" fill="#00b67a"/>
      <g id="Half" transform="translate(69.976)">
        <rect id="Rectangle-path-5" data-name="Rectangle-path" width="8.074" height="16.148" transform="translate(8.074)" fill="#dcdce6"/>
        <rect id="Rectangle-path-6" data-name="Rectangle-path" width="8.074" height="16.148" fill="#00b67a"/>
      </g>
      <path id="Shape" d="M20.052,24.358l2.456-.623L23.534,26.9ZM25.7,20.271H21.381L20.052,16.2l-1.329,4.071H14.4l3.5,2.523L16.57,26.865l3.5-2.523,2.153-1.548L25.7,20.27Z" transform="translate(-11.977 -13.475)" fill="#fff"/>
      <path id="Shape-2" data-name="Shape" d="M124.052,24.358l2.456-.623,1.026,3.162Zm5.652-4.088h-4.323L124.052,16.2l-1.329,4.071H118.4l3.5,2.523-1.329,4.071,3.5-2.523,2.153-1.548L129.7,20.27Z" transform="translate(-98.484 -13.475)" fill="#fff"/>
      <path id="Shape-3" data-name="Shape" d="M228.052,24.358l2.456-.623,1.026,3.162Zm5.652-4.088h-4.323L228.052,16.2l-1.329,4.071H222.4l3.5,2.523-1.329,4.071,3.5-2.523,2.153-1.548L233.7,20.27Z" transform="translate(-184.99 -13.475)" fill="#fff"/>
      <path id="Shape-4" data-name="Shape" d="M332.052,24.358l2.456-.623,1.026,3.162Zm5.652-4.088h-4.323L332.052,16.2l-1.329,4.071H326.4l3.5,2.523-1.329,4.071,3.5-2.523,2.153-1.548L337.7,20.27Z" transform="translate(-271.495 -13.475)" fill="#fff"/>
      <path id="Shape-5" data-name="Shape" d="M436.052,24.358l2.456-.623,1.026,3.162Zm5.652-4.088h-4.323L436.052,16.2l-1.329,4.071H430.4l3.5,2.523-1.329,4.071,3.5-2.523,2.153-1.548L441.7,20.27Z" transform="translate(-358.002 -13.475)" fill="#fff"/>
    </g>
  </g>
</svg>
