<svg xmlns="http://www.w3.org/2000/svg" width="107.024" height="26.836" viewBox="0 0 107.024 26.836">
  <g id="Group_296" data-name="Group 296" transform="translate(-189.54 -3894.914)">
    <path id="Path_219" data-name="Path 219" d="M13.759,0,10.511,10H0l8.5,6.178-3.248,10,8.5-6.178,8.5,6.178-3.248-10L27.518,10H17.008Z" transform="translate(189.54 3894.914)" fill="#00b975"/>
    <path id="Path_220" data-name="Path 220" d="M30.7,39.329l5.08-3.689.692,2.129Z" transform="translate(172.771 3875.449)" fill="#005424"/>
    <path id="Path_221" data-name="Path 221" d="M68.167,22.421H78.808v1.988H74.629V35.566h-2.3V24.409H68.167Z" transform="translate(152.309 3882.668)" fill="#190933"/>
    <path id="Path_222" data-name="Path 222" d="M89.991,30.1h1.97v1.841H92a2.133,2.133,0,0,1,.359-.755A3.489,3.489,0,0,1,93,30.516a3.24,3.24,0,0,1,.837-.487,2.5,2.5,0,0,1,.939-.184,4.446,4.446,0,0,1,.507.019l.285.037v2.025c-.147-.025-.3-.046-.451-.064a3.745,3.745,0,0,0-.451-.028,2.416,2.416,0,0,0-1,.211,2.307,2.307,0,0,0-.819.626,3.061,3.061,0,0,0-.552,1.022,4.417,4.417,0,0,0-.2,1.4V39.62h-2.1Z" transform="translate(140.39 3878.615)" fill="#190933"/>
    <path id="Path_223" data-name="Path 223" d="M112.018,39.93h-2.062V38.6h-.037a2.878,2.878,0,0,1-1.15,1.15,3.122,3.122,0,0,1-1.556.433,3.493,3.493,0,0,1-2.715-.929,4.082,4.082,0,0,1-.838-2.808V30.412h2.1v5.836a2.578,2.578,0,0,0,.479,1.767,1.74,1.74,0,0,0,1.344.516,2.645,2.645,0,0,0,1.1-.2,1.942,1.942,0,0,0,.718-.543,2.066,2.066,0,0,0,.4-.819,4.233,4.233,0,0,0,.12-1.031V30.412h2.1Z" transform="translate(132.925 3878.304)" fill="#190933"/>
    <path id="Path_224" data-name="Path 224" d="M127.3,36.564a1.578,1.578,0,0,0,.7,1.288,2.75,2.75,0,0,0,1.455.368,5.587,5.587,0,0,0,.672-.046,2.924,2.924,0,0,0,.708-.175,1.331,1.331,0,0,0,.543-.378.9.9,0,0,0,.193-.654.927.927,0,0,0-.294-.663,2.047,2.047,0,0,0-.709-.414,6.843,6.843,0,0,0-.985-.267q-.551-.11-1.123-.24a10.378,10.378,0,0,1-1.132-.313,3.649,3.649,0,0,1-.976-.5,2.291,2.291,0,0,1-.69-.8,2.555,2.555,0,0,1-.258-1.206,2.167,2.167,0,0,1,.378-1.3,2.879,2.879,0,0,1,.958-.846,4.152,4.152,0,0,1,1.288-.451,7.583,7.583,0,0,1,1.353-.129,6.219,6.219,0,0,1,1.409.157,3.853,3.853,0,0,1,1.215.506,2.981,2.981,0,0,1,.9.911,3.16,3.16,0,0,1,.451,1.353h-2.191a1.309,1.309,0,0,0-.691-1.013,2.87,2.87,0,0,0-1.243-.257,4.454,4.454,0,0,0-.525.037,2.428,2.428,0,0,0-.57.138,1.2,1.2,0,0,0-.451.295.7.7,0,0,0-.184.506.8.8,0,0,0,.267.626,2.091,2.091,0,0,0,.7.4,6.864,6.864,0,0,0,.985.267q.552.11,1.141.239.57.129,1.123.313a3.616,3.616,0,0,1,.985.5,2.417,2.417,0,0,1,.7.792,2.389,2.389,0,0,1,.267,1.178,2.563,2.563,0,0,1-.386,1.436,3.06,3.06,0,0,1-1,.958,4.588,4.588,0,0,1-1.372.534,6.952,6.952,0,0,1-1.491.166,6.5,6.5,0,0,1-1.666-.2,3.88,3.88,0,0,1-1.325-.617,2.969,2.969,0,0,1-.884-1.031,3.27,3.27,0,0,1-.341-1.464Z" transform="translate(121.161 3878.615)" fill="#190933"/>
    <path id="Path_225" data-name="Path 225" d="M144.671,26.978h1.583V24.124h2.1v2.854h1.9v1.564h-1.9v5.082a5.124,5.124,0,0,0,.028.57,1,1,0,0,0,.129.405.612.612,0,0,0,.3.248,1.494,1.494,0,0,0,.553.083c.147,0,.294,0,.441-.009a2.175,2.175,0,0,0,.442-.064v1.62l-.681.074a6.283,6.283,0,0,1-.681.037,4.64,4.64,0,0,1-1.335-.157,1.773,1.773,0,0,1-.792-.461,1.579,1.579,0,0,1-.386-.764,5.73,5.73,0,0,1-.12-1.049V28.542h-1.583Z" transform="translate(110.526 3881.738)" fill="#190933"/>
    <path id="Path_226" data-name="Path 226" d="M159.8,30.1h1.988V31.39h.037A2.592,2.592,0,0,1,163.06,30.2a4.092,4.092,0,0,1,1.712-.359,4.55,4.55,0,0,1,1.961.4,3.873,3.873,0,0,1,1.39,1.086,4.718,4.718,0,0,1,.829,1.611,6.834,6.834,0,0,1,.275,1.97,6.954,6.954,0,0,1-.248,1.86,4.83,4.83,0,0,1-.754,1.592,3.679,3.679,0,0,1-3.1,1.519,5.211,5.211,0,0,1-.92-.083,4,4,0,0,1-.883-.267,3.448,3.448,0,0,1-.783-.469,2.606,2.606,0,0,1-.6-.672H161.9v4.75h-2.1Zm7.328,4.768a4.705,4.705,0,0,0-.166-1.252,3.388,3.388,0,0,0-.5-1.077,2.571,2.571,0,0,0-.828-.755A2.253,2.253,0,0,0,164.5,31.5a2.314,2.314,0,0,0-2,.92,4.064,4.064,0,0,0-.672,2.448A4.858,4.858,0,0,0,162,36.2a3.006,3.006,0,0,0,.524,1.058,2.608,2.608,0,0,0,.838.7,2.385,2.385,0,0,0,1.132.258,2.342,2.342,0,0,0,1.215-.295,2.575,2.575,0,0,0,.819-.763,3.123,3.123,0,0,0,.46-1.068,5.468,5.468,0,0,0,.138-1.224" transform="translate(102.263 3878.615)" fill="#190933"/>
    <path id="Path_227" data-name="Path 227" d="M183.978,22.421h2.1v1.988h-2.1Zm0,3.627h2.1v9.518h-2.1Z" transform="translate(89.058 3882.668)" fill="#190933"/>
    <rect id="Rectangle_496" data-name="Rectangle 496" width="2.099" height="13.145" transform="translate(277.197 3905.09)" fill="#190933"/>
    <path id="Path_228" data-name="Path 228" d="M206.022,39.877a5.184,5.184,0,0,1-2.034-.378,4.323,4.323,0,0,1-1.51-1.04,4.441,4.441,0,0,1-.939-1.583,6.467,6.467,0,0,1,0-4.032,4.453,4.453,0,0,1,.939-1.583,4.335,4.335,0,0,1,1.51-1.04,5.668,5.668,0,0,1,4.068,0,4.344,4.344,0,0,1,1.51,1.04,4.458,4.458,0,0,1,.939,1.583,6.467,6.467,0,0,1,0,4.032,4.446,4.446,0,0,1-.939,1.583,4.332,4.332,0,0,1-1.51,1.04,5.186,5.186,0,0,1-2.034.378m0-1.657a2.406,2.406,0,0,0,1.215-.295,2.552,2.552,0,0,0,.847-.773,3.372,3.372,0,0,0,.488-1.077,4.828,4.828,0,0,0,0-2.439,3.259,3.259,0,0,0-.488-1.077,2.6,2.6,0,0,0-.847-.764,2.654,2.654,0,0,0-2.43,0,2.6,2.6,0,0,0-.846.764,3.251,3.251,0,0,0-.488,1.077,4.828,4.828,0,0,0,0,2.439,3.364,3.364,0,0,0,.488,1.077,2.55,2.55,0,0,0,.846.773,2.407,2.407,0,0,0,1.215.295" transform="translate(79.643 3878.615)" fill="#190933"/>
    <path id="Path_229" data-name="Path 229" d="M223.528,26.978h1.583V24.124h2.1v2.854h1.9v1.564h-1.9v5.082a5.123,5.123,0,0,0,.028.57.994.994,0,0,0,.129.405.612.612,0,0,0,.3.248,1.494,1.494,0,0,0,.553.083c.147,0,.294,0,.441-.009a2.175,2.175,0,0,0,.442-.064v1.62l-.681.074a6.282,6.282,0,0,1-.681.037,4.64,4.64,0,0,1-1.335-.157,1.773,1.773,0,0,1-.792-.461,1.579,1.579,0,0,1-.386-.764,5.733,5.733,0,0,1-.12-1.049V28.542h-1.583Z" transform="translate(67.457 3881.738)" fill="#190933"/>
    <rect id="Rectangle_497" data-name="Rectangle 497" width="107.024" height="26.836" transform="translate(189.54 3894.914)" fill="none"/>
  </g>
</svg>
