<svg id="Group_2039" data-name="Group 2039" xmlns="http://www.w3.org/2000/svg" width="68" height="68" viewBox="0 0 68 68">
  <rect id="Rectangle_2502" data-name="Rectangle 2502" width="68" height="68" fill="#fff"/>
  <g id="Group_1197" data-name="Group 1197" transform="translate(10.154 6.203)">
    <path id="Path_1074" data-name="Path 1074" d="M256.412,109.588a23.923,23.923,0,1,0,23.921,23.922,23.923,23.923,0,0,0-23.921-23.922" transform="translate(-232.491 -103.65)" fill="#e7f9fa"/>
    <g id="Group_1188" data-name="Group 1188" transform="translate(1.445)">
      <path id="Path_1075" data-name="Path 1075" d="M249.653,105.692a1.722,1.722,0,0,0-1.664,1.277l-1.271,4.727a.713.713,0,0,0,.679.9,21.283,21.283,0,0,1,10.117,2.721.715.715,0,0,0,1.039-.436l1.271-4.728A1.723,1.723,0,0,0,259,108.2a19.655,19.655,0,0,0-9.325-2.507Zm8.209,11.377a2.356,2.356,0,0,1-1.161-.307,19.678,19.678,0,0,0-9.327-2.508,2.373,2.373,0,0,1-2.261-2.992l1.271-4.727a3.382,3.382,0,0,1,3.315-2.507,21.314,21.314,0,0,1,10.119,2.722,3.38,3.38,0,0,1,1.61,3.831l-1.27,4.727a2.367,2.367,0,0,1-1.373,1.575,2.432,2.432,0,0,1-.924.186" transform="translate(-235.608 -102.909)" fill="#17494d"/>
      <path id="Path_1076" data-name="Path 1076" d="M245.688,111.3l-.126-.01-2.817-.426a2.184,2.184,0,0,1-.227-4.271l4.07-1.069a.831.831,0,0,1,.424,1.608L242.94,108.2a.52.52,0,0,0,.056,1.019l2.815.426a.831.831,0,0,1-.123,1.654" transform="translate(-235.055 -103.105)" fill="#17494d"/>
      <path id="Path_1077" data-name="Path 1077" d="M264.95,116.609a2.169,2.169,0,0,1-.8-.152l-2.651-1.043a.831.831,0,1,1,.609-1.546l2.65,1.043a.52.52,0,0,0,.425-.02.513.513,0,0,0,.269-.33.522.522,0,0,0-.135-.5l-2.986-2.967a.832.832,0,1,1,1.173-1.18l2.985,2.968a2.183,2.183,0,0,1-1.54,3.731" transform="translate(-237.734 -103.661)" fill="#17494d"/>
      <path id="Path_1078" data-name="Path 1078" d="M250.3,129.274a21.263,21.263,0,0,1,5.239.653.711.711,0,0,0,.888-.692v-4.893a1.722,1.722,0,0,0-1.3-1.672,19.635,19.635,0,0,0-9.659,0,1.724,1.724,0,0,0-1.3,1.672v4.893a.714.714,0,0,0,.89.692,21.26,21.26,0,0,1,5.238-.653m5.42,2.339a2.32,2.32,0,0,1-.59-.075,19.655,19.655,0,0,0-9.659,0,2.374,2.374,0,0,1-2.961-2.3v-4.893a3.384,3.384,0,0,1,2.551-3.283,21.332,21.332,0,0,1,10.477,0,3.384,3.384,0,0,1,2.551,3.283v4.893a2.379,2.379,0,0,1-2.37,2.378" transform="translate(-235.272 -105.093)" fill="#17494d"/>
      <path id="Path_1079" data-name="Path 1079" d="M239.7,129.526a2.182,2.182,0,0,1-1.084-4.078l3.654-2.09a.83.83,0,1,1,.825,1.441l-3.654,2.091a.521.521,0,0,0,.317.97l2.831-.319a.83.83,0,0,1,.185,1.65l-2.83.321Z" transform="translate(-234.605 -105.472)" fill="#17494d"/>
      <path id="Path_1080" data-name="Path 1080" d="M262.386,129.526l-.244-.014-2.831-.321a.83.83,0,1,1,.186-1.65l2.83.319a.521.521,0,0,0,.317-.97L258.99,124.8a.83.83,0,0,1,.825-1.441l3.654,2.09a2.183,2.183,0,0,1-1.084,4.078" transform="translate(-237.413 -105.472)" fill="#17494d"/>
      <path id="Path_1081" data-name="Path 1081" d="M256.527,135.792Zm.018.83a19.65,19.65,0,0,0-9.3,2.6,1.721,1.721,0,0,0-.8,1.959l1.315,4.715a.714.714,0,0,0,1.042.426A21.308,21.308,0,0,1,258.89,143.5a.713.713,0,0,0,.671-.906l-1.315-4.714a1.721,1.721,0,0,0-1.7-1.261m-8.1,11.455a2.382,2.382,0,0,1-.9-.179,2.358,2.358,0,0,1-1.388-1.56l-1.315-4.715a3.385,3.385,0,0,1,1.576-3.847,21.311,21.311,0,0,1,10.091-2.815,3.382,3.382,0,0,1,3.339,2.476l1.316,4.714a2.377,2.377,0,0,1-2.235,3.014,19.623,19.623,0,0,0-9.3,2.595,2.36,2.36,0,0,1-1.181.317" transform="translate(-235.566 -107.033)" fill="#17494d"/>
      <path id="Path_1082" data-name="Path 1082" d="M242.945,147.678a2.183,2.183,0,0,1-1.554-3.717l2.958-3a.831.831,0,0,1,1.182,1.169l-2.956,2.994a.522.522,0,0,0,.139.835.53.53,0,0,0,.426.016l2.639-1.069a.832.832,0,1,1,.624,1.542l-2.639,1.068a2.164,2.164,0,0,1-.82.159" transform="translate(-235.038 -107.801)" fill="#17494d"/>
      <path id="Path_1083" data-name="Path 1083" d="M262.076,142.2a.831.831,0,0,1-.13-1.652l2.811-.452a.521.521,0,0,0,.044-1.019l-4.08-1.032a.831.831,0,0,1,.406-1.612l4.082,1.032a2.183,2.183,0,0,1-.188,4.272l-2.812.454Z" transform="translate(-237.616 -107.226)" fill="#17494d"/>
      <path id="Path_1084" data-name="Path 1084" d="M247.393,118.969l-.1-.006a.831.831,0,0,1-.721-.93,7.333,7.333,0,0,1,1.511-3.781.831.831,0,0,1,1.243,1.1,5.816,5.816,0,0,0-1.1,2.886.832.832,0,0,1-.824.727" transform="translate(-235.812 -104.235)" fill="#17494d"/>
      <path id="Path_1085" data-name="Path 1085" d="M257.129,119.728l-.229-.032a.83.83,0,0,1-.57-1.028l.494-1.725a.832.832,0,0,1,1.6.458l-.494,1.724a.83.83,0,0,1-.8.6" transform="translate(-237.11 -104.551)" fill="#17494d"/>
      <path id="Path_1086" data-name="Path 1086" d="M249.653,152.172a1.723,1.723,0,0,0-1.664,1.277l-1.271,4.727a.713.713,0,0,0,.679.9,21.3,21.3,0,0,1,10.117,2.721.713.713,0,0,0,.626.036.7.7,0,0,0,.413-.472l1.271-4.727A1.722,1.722,0,0,0,259,154.68a19.646,19.646,0,0,0-9.325-2.508Zm8.209,11.378a2.365,2.365,0,0,1-1.161-.307,19.659,19.659,0,0,0-9.327-2.508,2.374,2.374,0,0,1-2.261-2.992l1.271-4.728a3.382,3.382,0,0,1,3.269-2.506h.046a21.313,21.313,0,0,1,10.119,2.721,3.382,3.382,0,0,1,1.61,3.831l-1.27,4.727a2.365,2.365,0,0,1-1.373,1.574,2.417,2.417,0,0,1-.924.187" transform="translate(-235.608 -109.107)" fill="#17494d"/>
      <path id="Path_1087" data-name="Path 1087" d="M245.688,157.781l-.126-.01-2.817-.426a2.184,2.184,0,0,1-.227-4.271l4.07-1.069a.831.831,0,0,1,.424,1.608l-4.072,1.069a.521.521,0,0,0,.054,1.019l2.817.426a.832.832,0,0,1-.124,1.654" transform="translate(-235.055 -109.303)" fill="#17494d"/>
      <path id="Path_1088" data-name="Path 1088" d="M264.95,163.089a2.169,2.169,0,0,1-.8-.152l-2.651-1.043a.832.832,0,0,1,.609-1.548l2.65,1.045a.519.519,0,0,0,.559-.85l-2.986-2.967a.832.832,0,1,1,1.173-1.18l2.985,2.968a2.183,2.183,0,0,1-1.54,3.731" transform="translate(-237.734 -109.859)" fill="#17494d"/>
      <path id="Path_1089" data-name="Path 1089" d="M247.581,166.491a.831.831,0,0,1-.765-1.155,13.41,13.41,0,0,0,1.078-3.967.831.831,0,0,1,1.66.088,14.7,14.7,0,0,1-1.207,4.527.83.83,0,0,1-.765.506" transform="translate(-235.837 -110.45)" fill="#17494d"/>
      <path id="Path_1090" data-name="Path 1090" d="M257.153,167.194l-.15-.014a.832.832,0,0,1-.669-.968l.474-2.582a.831.831,0,1,1,1.635.3l-.474,2.584a.83.83,0,0,1-.816.681" transform="translate(-237.113 -110.766)" fill="#17494d"/>
      <path id="Path_1091" data-name="Path 1091" d="M247.37,135.911a.83.83,0,0,1-.787-.563,10.242,10.242,0,0,1-.594-3.245.831.831,0,0,1,1.661.036,8.818,8.818,0,0,0,.506,2.673.832.832,0,0,1-.518,1.055Z" transform="translate(-235.735 -106.544)" fill="#17494d"/>
      <path id="Path_1092" data-name="Path 1092" d="M255.931,134.068a.832.832,0,0,1-.831-.831v-1.115a.831.831,0,1,1,1.662,0v1.115a.832.832,0,0,1-.831.831" transform="translate(-236.95 -106.544)" fill="#17494d"/>
      <path id="Path_1093" data-name="Path 1093" d="M260.794,151.1a.832.832,0,0,1-.831-.831c0-2.938-.757-3.811-.764-3.817a.832.832,0,0,1,1.014-1.318c.235.181,1.413,1.281,1.413,5.135a.832.832,0,0,1-.831.831" transform="translate(-237.454 -108.367)" fill="#17494d"/>
      <path id="Path_1094" data-name="Path 1094" d="M272.54,164.795a.81.81,0,0,1-1.063-1.218,8.619,8.619,0,0,0,1.9-9.41.81.81,0,1,1,1.495-.626,10.194,10.194,0,0,1-2.261,11.192Z" transform="translate(-239.102 -109.445)" fill="#17494d"/>
      <path id="Path_1095" data-name="Path 1095" d="M237.429,102.9a.81.81,0,0,1,1.038,1.239,8.619,8.619,0,0,0-2.092,9.37.811.811,0,1,1-1.508.6,10.2,10.2,0,0,1,2.49-11.145Z" transform="translate(-234.158 -102.737)" fill="#17494d"/>
    </g>
  </g>
</svg>
