<svg xmlns="http://www.w3.org/2000/svg" width="68" height="68" viewBox="0 0 68 68">
  <g id="Group_1205" data-name="Group 1205" transform="translate(0.107 -0.217)">
    <rect id="Rectangle_2502" data-name="Rectangle 2502" width="68" height="68" transform="translate(-0.108 0.216)" fill="#fff"/>
    <g id="Group_1199" data-name="Group 1199" transform="translate(4.784 5.885)">
      <path id="Path_1027" data-name="Path 1027" d="M470.163,15.129a22.009,22.009,0,1,0,22.008,22.008,22.009,22.009,0,0,0-22.008-22.008" transform="translate(-433.214 -3.066)" fill="#e7f9fa"/>
      <g id="Group_1190" data-name="Group 1190">
        <path id="Path_1028" data-name="Path 1028" d="M435.37,47.734c-1.418,0-3.451-.165-4.7-1.6-1.265-1.451-1.552-3.9-.96-8.2,1.006-7.292,6.982-16.1,10.551-21.364.23-.337.45-.662.658-.97.112-.168.238-.355.372-.558,1.613-2.429,4.314-6.5,7.105-6.5a2.68,2.68,0,0,1,2.031.738,3.8,3.8,0,0,1,.658,2.921c-.01.224-.022.437-.022.631a.893.893,0,1,1-1.785,0c0-.238.013-.482.024-.718.029-.6.066-1.356-.168-1.6a1.081,1.081,0,0,0-.738-.183c-1.835,0-4.486,3.994-5.617,5.7-.137.206-.264.4-.38.569-.209.31-.431.635-.661.975-3.483,5.133-9.31,13.725-10.26,20.6-.507,3.681-.341,5.771.537,6.781.594.682,1.629.986,3.354.986,4.571,0,6.983-.027,9.2-.187,2.534-.183,6-.433,6.886-7.729.936-7.721,1.464-11.472,1.469-11.509a.892.892,0,0,1,1.767.249c-.006.037-.53,3.772-1.463,11.474-.451,3.717-1.587,6.238-3.473,7.7a8.866,8.866,0,0,1-5.058,1.591c-2.276.164-4.718.192-9.333.192" transform="translate(-429.416 -1.733)" fill="#17494d"/>
        <path id="Path_1029" data-name="Path 1029" d="M484.652,52.108c-4.615,0-7.056-.028-9.333-.192a8.868,8.868,0,0,1-5.057-1.591c-1.885-1.466-3.021-3.986-3.473-7.7-.935-7.7-1.458-11.438-1.463-11.474a.893.893,0,0,1,1.768-.249c0,.037.532,3.787,1.467,11.509.885,7.3,4.354,7.546,6.887,7.729,2.221.159,4.634.187,9.2.187a.893.893,0,1,1,0,1.785" transform="translate(-436.692 -6.106)" fill="#17494d"/>
        <path id="Path_1030" data-name="Path 1030" d="M494.991,47.434a.892.892,0,0,1-.892-.869,27.656,27.656,0,0,0-.278-3.057,27.093,27.093,0,0,0-2.378-7.415.893.893,0,1,1,1.622-.748,28.873,28.873,0,0,1,2.526,7.918,30.1,30.1,0,0,1,.293,3.255.893.893,0,0,1-.869.916Z" transform="translate(-441.97 -7.058)" fill="#17494d"/>
        <path id="Path_1031" data-name="Path 1031" d="M485.28,26.305a.893.893,0,0,1-.773-.446c-1.807-3.118-3.748-5.982-5.309-8.28l-.66-.975c-.116-.171-.242-.363-.38-.569-1.131-1.7-3.782-5.7-5.616-5.7a1.085,1.085,0,0,0-.738.183c-.234.247-.2,1-.168,1.6.011.235.024.479.024.718a.893.893,0,1,1-1.785,0c0-.194-.011-.407-.021-.631a3.8,3.8,0,0,1,.657-2.921,2.684,2.684,0,0,1,2.032-.738c2.791,0,5.491,4.067,7.1,6.5.134.2.258.39.372.557q.312.464.658.973c1.576,2.323,3.539,5.215,5.377,8.387a.9.9,0,0,1-.324,1.222.909.909,0,0,1-.447.12" transform="translate(-437.606 -1.733)" fill="#17494d"/>
        <path id="Path_1032" data-name="Path 1032" d="M447.926,23.35a.893.893,0,0,1-.618-1.537c.059-.056,5.933-5.693,8.063-7.709a4.449,4.449,0,0,0,1.4-3.8V.893a.893.893,0,0,1,1.785,0V10.3a6.217,6.217,0,0,1-1.91,5.045l-.034.033c-2.11,2-8.012,7.662-8.071,7.72a.888.888,0,0,1-.618.249" transform="translate(-432.986)" fill="#17494d"/>
        <path id="Path_1033" data-name="Path 1033" d="M476,26.868a.888.888,0,0,1-.618-.249c-.06-.057-5.962-5.72-8.071-7.72a.894.894,0,1,1,1.228-1.3c2.114,2,8.02,7.671,8.079,7.727A.893.893,0,0,1,476,26.868" transform="translate(-437.04 -3.518)" fill="#17494d"/>
        <path id="Path_1034" data-name="Path 1034" d="M465.838,9.778a.892.892,0,0,1-.892-.892V.893a.893.893,0,1,1,1.785,0V8.885a.893.893,0,0,1-.893.892" transform="translate(-436.617)" fill="#17494d"/>
        <path id="Path_1035" data-name="Path 1035" d="M467.61,30.281a.893.893,0,0,1-.893-.893,5.538,5.538,0,1,0-11.077,0,.893.893,0,1,1-1.785,0,7.324,7.324,0,1,1,14.648,0,.893.893,0,0,1-.893.893" transform="translate(-434.369 -4.472)" fill="#17494d"/>
      </g>
    </g>
  </g>
</svg>
