<svg xmlns="http://www.w3.org/2000/svg" width="68" height="68" viewBox="0 0 68 68">
  <g id="Group_1204" data-name="Group 1204" transform="translate(0.108 0.135)">
    <rect id="Rectangle_2502" data-name="Rectangle 2502" width="68" height="68" transform="translate(-0.108 -0.135)" fill="#fff"/>
    <g id="Group_1198" data-name="Group 1198" transform="translate(8.77 6.585)">
      <path id="Path_1015" data-name="Path 1015" d="M35.692,6.532A22.009,22.009,0,1,0,57.7,28.54,22.009,22.009,0,0,0,35.692,6.532" transform="translate(-7.924 -3.226)" fill="#d2efe5"/>
      <g id="Group_1194" data-name="Group 1194" transform="translate(0 0)">
        <path id="Path_1016" data-name="Path 1016" d="M27.553,63.9a1.173,1.173,0,0,1-1.173-1.173V58.874c0-2.68.72-4.492,2.851-7.179.11-.139.226-.284.348-.436a20.192,20.192,0,0,0,3.031-4.628c.742-1.822.589-3.218-.479-4.394-1.908-2.1-4.117-1.35-7.267.031a10.593,10.593,0,0,1-3.929,1.191,10.592,10.592,0,0,1-3.93-1.191c-3.152-1.381-5.359-2.13-7.268-.031-1.068,1.176-1.221,2.572-.479,4.394a20.167,20.167,0,0,0,3.031,4.628c.121.152.238.3.348.436,2.131,2.687,2.85,4.5,2.85,7.179v3.854a1.172,1.172,0,1,1-2.345,0V58.874c0-2.146-.527-3.429-2.344-5.722-.106-.136-.221-.277-.34-.426a22.023,22.023,0,0,1-3.374-5.211C5.727,44.177,6.834,41.944,8,40.66a5.966,5.966,0,0,1,5.234-2.038,15.919,15.919,0,0,1,4.708,1.5,9.505,9.505,0,0,0,2.989.994,9.46,9.46,0,0,0,2.987-.994,15.939,15.939,0,0,1,4.709-1.5,5.967,5.967,0,0,1,5.235,2.038c1.169,1.284,2.276,3.517.917,6.856a22,22,0,0,1-3.375,5.211c-.118.149-.233.29-.34.426-1.816,2.292-2.343,3.575-2.343,5.722v3.854A1.173,1.173,0,0,1,27.553,63.9" transform="translate(-6.46 -9.723)" fill="#17494d"/>
        <path id="Path_1017" data-name="Path 1017" d="M29.326,27.7a6.878,6.878,0,0,1-.694-.035,16.012,16.012,0,0,1-4.71-1.5,9.446,9.446,0,0,0-2.988-.993,9.471,9.471,0,0,0-2.988.993,15.987,15.987,0,0,1-4.708,1.5A5.967,5.967,0,0,1,8,25.629c-1.17-1.286-2.276-3.519-.918-6.856a21.977,21.977,0,0,1,3.374-5.212c.12-.148.234-.291.34-.425a1.173,1.173,0,0,1,1.839,1.458l-.348.435a20.114,20.114,0,0,0-3.032,4.629c-.741,1.823-.588,3.218.48,4.394,1.908,2.1,4.117,1.349,7.267-.031a10.6,10.6,0,0,1,3.929-1.191,10.6,10.6,0,0,1,3.931,1.191c3.15,1.38,5.359,2.13,7.267.031,1.068-1.176,1.221-2.571.48-4.394a20.165,20.165,0,0,0-3.031-4.629l-.349-.435c-2.13-2.689-2.85-4.5-2.85-7.181V3.56a1.173,1.173,0,0,1,2.346,0V7.413c0,2.148.526,3.431,2.343,5.723l.34.425a21.954,21.954,0,0,1,3.374,5.212c1.359,3.338.251,5.57-.916,6.856A5.941,5.941,0,0,1,29.326,27.7" transform="translate(-6.46 -2.386)" fill="#17494d"/>
        <path id="Path_1018" data-name="Path 1018" d="M16.015,8.586a1.173,1.173,0,0,1-1.173-1.173V3.559a1.173,1.173,0,1,1,2.346,0V7.413a1.173,1.173,0,0,1-1.173,1.173" transform="translate(-8.158 -2.386)" fill="#17494d"/>
        <path id="Path_1019" data-name="Path 1019" d="M61.589,37.376H53.212a1.173,1.173,0,0,1,0-2.346h8.378a1.173,1.173,0,1,1,0,2.346" transform="translate(-15.697 -9.002)" fill="#17494d"/>
        <path id="Path_1020" data-name="Path 1020" d="M50.337,19.312a1.173,1.173,0,0,1-.83-2l5.925-5.923a1.173,1.173,0,0,1,1.658,1.658l-5.923,5.925a1.172,1.172,0,0,1-.83.343" transform="translate(-15.114 -4.14)" fill="#17494d"/>
        <path id="Path_1021" data-name="Path 1021" d="M56.261,56.821a1.172,1.172,0,0,1-.83-.343l-5.923-5.925a1.173,1.173,0,0,1,1.658-1.658l5.925,5.923a1.173,1.173,0,0,1-.83,2" transform="translate(-15.114 -11.742)" fill="#17494d"/>
      </g>
    </g>
  </g>
</svg>
