<svg xmlns="http://www.w3.org/2000/svg" xmlns:xlink="http://www.w3.org/1999/xlink" width="68" height="68" viewBox="0 0 68 68">
  <defs>
    <clipPath id="clip-path">
      <path id="Path_1036" data-name="Path 1036" d="M4.786,134.649A22.01,22.01,0,1,0,26.8,112.64a22.011,22.011,0,0,0-22.01,22.009" transform="translate(-4.786 -112.64)" fill="#d2efe5"/>
    </clipPath>
  </defs>
  <g id="Group_1208" data-name="Group 1208" transform="translate(0.108 -0.271)">
    <rect id="Rectangle_2502" data-name="Rectangle 2502" width="68" height="68" transform="translate(-0.108 0.271)" fill="#fff"/>
    <g id="Group_1202" data-name="Group 1202" transform="translate(3.987 11.814)">
      <g id="Group_1182" data-name="Group 1182" transform="translate(3.816 0)">
        <g id="Group_1181" data-name="Group 1181" transform="translate(0 0)" clip-path="url(#clip-path)">
          <rect id="Rectangle_2501" data-name="Rectangle 2501" width="44.018" height="44.018" transform="translate(0.002)" fill="#d2efe5"/>
        </g>
      </g>
      <g id="Group_1184" data-name="Group 1184" transform="translate(0 0.81)">
        <g id="Group_1185" data-name="Group 1185" transform="translate(0 0)">
          <path id="Path_1037" data-name="Path 1037" d="M36.9,137.131a.973.973,0,0,1-.525-1.794c1.575-1.006,3.3-2,5.127-3.061a84.408,84.408,0,0,0,8.689-5.493,2.7,2.7,0,0,0,.571-1.334c.07-.278.145-.565.242-.845l.663-1.9.038-.069a11.289,11.289,0,0,1,1.93-2.575l2.313-2.307a1.128,1.128,0,0,1,1.1-.287,2.918,2.918,0,0,1,1.6,2.076,2.456,2.456,0,0,1-.521,2.472l-1.712,1.707a.973.973,0,1,1-1.375-1.377l1.712-1.709.065-.284a1.68,1.68,0,0,0-.14-.574l-1.666,1.661a9.349,9.349,0,0,0-1.56,2.063l-.609,1.745c-.071.2-.132.438-.2.687a4.056,4.056,0,0,1-1.272,2.394,85.721,85.721,0,0,1-8.9,5.632c-1.807,1.046-3.515,2.034-5.053,3.016a.966.966,0,0,1-.524.154" transform="translate(-7.281 -114.42)" fill="#17494d"/>
          <path id="Path_1038" data-name="Path 1038" d="M28.348,149.925a5.672,5.672,0,0,1-.61-.033c-.519-.057-1.375-.348-3.391-2.115-1.276-1.116-2.874-2.693-4.748-4.687-3.444-3.661-7.621-8.505-11.761-13.638a.973.973,0,1,1,1.515-1.222c4.078,5.057,8.2,9.835,11.6,13.454,5.535,5.893,6.871,6.252,7.005,6.273,2.546.281,6.852-2.323,12.123-7.329a99.2,99.2,0,0,0,7.555-8.1,7.27,7.27,0,0,1,4.123-3,12.345,12.345,0,0,0,3.364-2.176l3.984-3.975a3.737,3.737,0,0,0,.528-2.858,5.585,5.585,0,0,0-.868-2.645,2.341,2.341,0,0,0-2.587.127l-5.5,5.357a.974.974,0,0,1-1.358-1.4l5.514-5.365c1.105-1.057,3.893-1.565,5.333-.077a7.03,7.03,0,0,1,1.4,3.779c.126,1.121.155,3.187-1.074,4.443l-.007.009-3.99,3.977a13.981,13.981,0,0,1-4.142,2.652,5.445,5.445,0,0,0-3.2,2.36l-.008.01a101.7,101.7,0,0,1-7.714,8.276,47.905,47.905,0,0,1-6.878,5.577c-2.434,1.556-4.472,2.32-6.206,2.32" transform="translate(-1.545 -114.048)" fill="#17494d"/>
          <path id="Path_1039" data-name="Path 1039" d="M4.835,128.161a.969.969,0,0,1-.766-.372c-1.4-1.781-2.705-3.488-3.878-5.069a.974.974,0,0,1,1.565-1.16c1.16,1.567,2.454,3.258,3.844,5.026a.973.973,0,0,1-.765,1.575" transform="translate(0 -115.178)" fill="#17494d"/>
          <path id="Path_1040" data-name="Path 1040" d="M32.988,131.865a.974.974,0,0,1-.814-.438,187.73,187.73,0,0,0-12.081-15.833.974.974,0,0,1,1.493-1.249A189.809,189.809,0,0,1,33.8,130.356a.974.974,0,0,1-.812,1.509" transform="translate(-4.026 -113.724)" fill="#17494d"/>
          <path id="Path_1041" data-name="Path 1041" d="M27.312,141.772c-5.836-1.838-10.306-7.26-13.168-16.167-2.661-8.287-4.766-9.141-4.766-9.141l2.134-1.587a36.348,36.348,0,0,1,7.174,6c4.629,4.923,3.354,8.822,4.769,12.776a8.168,8.168,0,0,0,5.341,5.411Z" transform="translate(-1.9 -113.903)" fill="#60898d"/>
          <path id="Path_1042" data-name="Path 1042" d="M29.089,139.789l-.293-.045a9.226,9.226,0,0,1-5.963-6.01,19.777,19.777,0,0,1-.856-3.979c-.391-2.738-.758-5.325-3.706-8.458a36.265,36.265,0,0,0-6.958-5.829.973.973,0,0,1,.987-1.678,37.017,37.017,0,0,1,7.39,6.173A15.242,15.242,0,0,1,23.9,129.48a18.047,18.047,0,0,0,.764,3.6,7.254,7.254,0,0,0,4.715,4.811.973.973,0,0,1-.293,1.9" transform="translate(-2.196 -113.655)" fill="#17494d"/>
          <path id="Path_1043" data-name="Path 1043" d="M27.2,142.92l-.292-.045c-6.2-1.952-10.848-7.6-13.8-16.8-2.381-7.41-4.251-8.555-4.269-8.566l.062.029.732-1.8c.422.171,2.661,1.443,5.328,9.743,2.749,8.559,6.966,13.784,12.532,15.538a.973.973,0,0,1-.292,1.9" transform="translate(-1.791 -114.077)" fill="#17494d"/>
        </g>
      </g>
    </g>
  </g>
</svg>
