<svg xmlns="http://www.w3.org/2000/svg" width="68" height="68" viewBox="0 0 68 68">
  <g id="Group_1207" data-name="Group 1207" transform="translate(0.108 0.081)">
    <rect id="Rectangle_2502" data-name="Rectangle 2502" width="68" height="68" transform="translate(-0.108 -0.081)" fill="#fff"/>
    <g id="Group_1201" data-name="Group 1201" transform="translate(7.176 10.067)">
      <path id="Path_1066" data-name="Path 1066" d="M462.592,107.569a21.918,21.918,0,1,0,21.918,21.918,21.918,21.918,0,0,0-21.918-21.918" transform="translate(-434.461 -107.569)" fill="#d2efe5"/>
      <g id="Group_1186" data-name="Group 1186" transform="translate(0 9.173)">
        <path id="Path_1067" data-name="Path 1067" d="M455.171,159.678a56.341,56.341,0,0,1-5.963-.321,51.873,51.873,0,0,1-7.487-1.325,9.375,9.375,0,0,1-1.823,1.1c-2.3,1.033-3.8.384-4.656-.344-1.242-1.054-1.517-2.717-.773-4.681a10.589,10.589,0,0,1,1.119-2.12,62.345,62.345,0,0,1-.293-16.816,6.78,6.78,0,0,1-2.376-3.7,3.284,3.284,0,0,1,.636-2.485c.682-.917,2.022-1.88,4.53-1.253a9.862,9.862,0,0,1,2.176.854c5.6-1.038,7.867-.841,7.963-.832a.881.881,0,0,1-.165,1.754,33.838,33.838,0,0,0-7.787.868.883.883,0,0,1-.625-.115c-.031-.019-3.352-2.012-4.679-.226a1.493,1.493,0,0,0-.306,1.174,5.6,5.6,0,0,0,2.1,2.878.881.881,0,0,1,.347.838,61.148,61.148,0,0,0,.278,17.12.878.878,0,0,1-.169.687c-.024.031-2.464,3.326-.832,4.71,1.691,1.435,4.521-1.016,4.549-1.041a.879.879,0,0,1,.837-.188,51.552,51.552,0,0,0,24.608.344.88.88,0,1,1,.443,1.7,46.431,46.431,0,0,1-11.648,1.41" transform="translate(-432.882 -120.79)" fill="#17494d"/>
        <path id="Path_1068" data-name="Path 1068" d="M482.595,163.122a8.414,8.414,0,0,1-2.39-.361.881.881,0,0,1,.549-1.674c.031.01,3.085.975,4.2-.765.867-1.352-1.379-3.525-2.234-4.18a.876.876,0,0,1-.341-.62l-.236-2.583a.88.88,0,0,1,1.753-.161l.2,2.216a11.489,11.489,0,0,1,1.64,1.711c1.629,2.13,1.281,3.659.7,4.566a4.309,4.309,0,0,1-3.84,1.851" transform="translate(-442.35 -125.743)" fill="#17494d"/>
        <path id="Path_1069" data-name="Path 1069" d="M462.659,148.409a.882.882,0,0,1-.848-1.119l1.27-4.512h-3.874a3.7,3.7,0,0,1-3.7-3.7V122.773a3.7,3.7,0,0,1,3.7-3.7h3.757a.881.881,0,1,1,0,1.761h-3.757a1.94,1.94,0,0,0-1.937,1.938v16.305a1.94,1.94,0,0,0,1.938,1.938h5.038a.878.878,0,0,1,.7.349.887.887,0,0,1,.146.77l-.987,3.5,7.543-4.5a.872.872,0,0,1,.451-.124h15.1a1.94,1.94,0,0,0,1.938-1.937V122.773a1.94,1.94,0,0,0-1.937-1.938h-18.13a.881.881,0,1,1,0-1.761H487.2a3.7,3.7,0,0,1,3.7,3.7v16.305a3.7,3.7,0,0,1-3.7,3.7H472.341l-9.232,5.507a.875.875,0,0,1-.451.124" transform="translate(-437.468 -119.074)" fill="#17494d"/>
        <path id="Path_1070" data-name="Path 1070" d="M461.226,140.153a.9.9,0,0,1-.734-.38c-.28-.394-.179-.836.011-1.526.105-.388.265-.91.471-1.549.083-.26.168-.517.25-.761l-1.162.189a.881.881,0,0,1-.281-1.739l2.607-.423a.882.882,0,0,1,.973,1.16c-.357,1.022-.739,2.179-.993,3.016.627-.143,1.41-.325,2.141-.5a.881.881,0,0,1,.409,1.713,27.39,27.39,0,0,1-3.692.8" transform="translate(-438.184 -122.089)" fill="#17494d"/>
        <path id="Path_1071" data-name="Path 1071" d="M469.773,137.28a.88.88,0,0,1-.869-1.022l1.032-6.375h-3.474a.881.881,0,0,1,0-1.761h4.508a.877.877,0,0,1,.869,1.021l-1.01,6.244,3.279-.39a.88.88,0,1,1,.207,1.749l-4.437.529Z" transform="translate(-439.509 -120.908)" fill="#17494d"/>
        <path id="Path_1072" data-name="Path 1072" d="M479.871,137.724a.881.881,0,0,1-.812-1.222l4.51-10.683h-6.093a.881.881,0,0,1,0-1.761H484.9a.881.881,0,0,1,.812,1.223l-4.384,10.384,7.631-1.481a.88.88,0,0,1,.336,1.729l-9.252,1.8Z" transform="translate(-441.741 -120.084)" fill="#17494d"/>
        <path id="Path_1073" data-name="Path 1073" d="M443.461,150.952a.88.88,0,0,1-.863-.709,41.269,41.269,0,0,1,0-13.622.881.881,0,0,1,1.733.316,40.181,40.181,0,0,0,0,12.962.881.881,0,0,1-.691,1.036Z" transform="translate(-434.733 -122.484)" fill="#17494d"/>
      </g>
    </g>
  </g>
</svg>
