<svg xmlns="http://www.w3.org/2000/svg" width="166" height="166" viewBox="0 0 166 166">
  <g id="Group_450" data-name="Group 450" transform="translate(-8059.861 21006.137)">
    <circle id="Ellipse_264" data-name="Ellipse 264" cx="83" cy="83" r="83" transform="translate(8059.861 -21006.137)" fill="#fff"/>
    <g id="Group_447" data-name="Group 447" transform="translate(8106.292 -20950.918)">
      <path id="Path_36" data-name="Path 36" d="M893.131,357.651a22.709,22.709,0,0,1-.264,2.4,30.816,30.816,0,0,1-2.058,7.062c-.348.834-.738,1.68-1.176,2.538-.39.786-.828,1.59-1.3,2.4a58,58,0,0,1-5.028,7.236q-.963,1.2-2.04,2.412c-.894,1.02-1.848,2.058-2.862,3.1-.714.738-1.458,1.476-2.232,2.226a128.786,128.786,0,0,1-12.318,10.386q-1.17.882-2.4,1.77-2.3,1.656-4.8,3.348-2.5-1.692-4.8-3.348-1.233-.891-2.4-1.77a129.364,129.364,0,0,1-12.066-10.146q-1.188-1.134-2.274-2.25c-1.02-1.044-1.98-2.07-2.868-3.09-.714-.792-1.38-1.584-2.016-2.358a57.963,57.963,0,0,1-5.256-7.518c-.48-.81-.912-1.614-1.3-2.4-.438-.858-.828-1.7-1.176-2.538a30.815,30.815,0,0,1-2.058-7.062,22.742,22.742,0,0,1-.264-2.4,19.789,19.789,0,0,1,2.406-11,18.649,18.649,0,0,1,1.746-2.592,19.634,19.634,0,0,1,2.988-3,21.537,21.537,0,0,1,2.736-1.89,22.156,22.156,0,0,1,19.4-1.44,18.83,18.83,0,0,1,7.2,5.37,18.829,18.829,0,0,1,7.2-5.37,22.074,22.074,0,0,1,18.618,1.014,21.228,21.228,0,0,1,2.784,1.746,20.129,20.129,0,0,1,3.144,2.88,19.352,19.352,0,0,1,1.9,2.55A19.678,19.678,0,0,1,893.131,357.651Z" transform="translate(-819.891 -336.129)" fill="#17494d"/>
      <path id="Path_39" data-name="Path 39" d="M897.025,347.656l-15.018,11.736-3.066,2.4-7.086,5.538-1.272,1-1.3,1.014-1.1.858-1.524,1.194-.8.624-2.268,1.776-.276.216-4.728,3.7-2.4,1.878-12.066,9.426q-1.188-1.134-2.274-2.25c-1.02-1.044-1.98-2.07-2.868-3.09-.714-.792-1.38-1.584-2.016-2.358l9.624-7.518,3.072-2.4,5-3.906,1.53-1.2,1.014-.792,1.386-1.08,2.04-1.6,1.314-1.026,1.254-.984L865,359.392l3.18-2.484,2.4-1.878L889.2,340.48a21.232,21.232,0,0,1,2.784,1.746,20.121,20.121,0,0,1,3.144,2.88A19.356,19.356,0,0,1,897.025,347.656Z" transform="translate(-826.622 -337.869)" fill="#fff"/>
      <path id="Path_39_-_Outline" data-name="Path 39 - Outline" d="M888.841,339.887l.153.08a21.571,21.571,0,0,1,2.819,1.768A20.432,20.432,0,0,1,895,344.654a19.689,19.689,0,0,1,1.922,2.585l.127.2L881.84,359.326l-3.066,2.4-7.086,5.538-1.272,1-1.3,1.014-1.1.858-1.524,1.194-.805.625-2.543,1.991-4.728,3.7-2.4,1.878-12.248,9.568-.167-.159c-.76-.726-1.527-1.485-2.281-2.257-1.1-1.128-2.043-2.142-2.877-3.1-.616-.683-1.24-1.413-2.022-2.366l-.174-.211L854.157,367l1.53-1.2,1.014-.792,1.386-1.08,2.04-1.6,1.314-1.026,1.253-.984,4.992-3.9,2.4-1.878Zm7.5,7.431a19.189,19.189,0,0,0-1.742-2.312,19.886,19.886,0,0,0-3.1-2.842,21.047,21.047,0,0,0-2.6-1.643l-18.481,14.443-2.4,1.878-4.992,3.9-1.253.984-1.315,1.026-2.04,1.6-1.386,1.08-1.014.792-1.53,1.2-8.07,6.306-9.408,7.349c.7.845,1.269,1.511,1.834,2.137l0,0c.827.95,1.761,1.957,2.857,3.079.694.711,1.4,1.411,2.1,2.084l11.884-9.284,2.4-1.878,5-3.912,2.268-1.776.8-.625,1.523-1.193,1.1-.858,1.3-1.014,1.271-1,7.086-5.538,3.066-2.4Z" transform="translate(-826.291 -337.593)" fill="rgba(0,0,0,0)"/>
      <path id="Path_37" data-name="Path 37" d="M884.935,381.311q-.963,1.2-2.04,2.412c-.894,1.02-1.848,2.058-2.862,3.1-.714.738-1.458,1.476-2.232,2.226l-12.318-9.282-2.4-1.812-4.872-3.666-.282-.216-2.346-1.764-.84-.636-1.26-.948L852.11,369.7l-1.026-.774-1.53-1.152L842,362.076l-3.186-2.4-14.6-11a18.653,18.653,0,0,1,1.746-2.592,19.629,19.629,0,0,1,2.988-3,21.547,21.547,0,0,1,2.736-1.89l19.4,14.622,2.4,1.806,2.73,2.058,1.878,1.416,1.308.984,1.254.942,2.43,1.83,1.044.786,1.356,1.026,1.272.954,5.388,4.062,3.186,2.4Z" transform="translate(-821.522 -338.153)" fill="#fff"/>
      <path id="Path_37_-_Outline" data-name="Path 37 - Outline" d="M877.521,389.123l-12.5-9.419-2.4-1.812-4.872-3.666-.284-.217-2.344-1.763-.841-.636-2.633-1.979-1.026-.774-1.53-1.152-10.74-8.094-14.789-11.144.113-.2a18.957,18.957,0,0,1,1.771-2.629,19.946,19.946,0,0,1,3.028-3.041,21.814,21.814,0,0,1,2.77-1.913l.153-.089.142.107,19.4,14.622,2.4,1.806,4.608,3.474,2.562,1.926,3.474,2.616,1.357,1.026,1.271.953L872,371.183l13.012,9.8-.173.215c-.662.822-1.351,1.637-2.048,2.422-.927,1.058-1.894,2.105-2.87,3.111-.659.681-1.391,1.411-2.238,2.232Zm-53.265-40.8,17.6,13.263,10.11,7.62,2.634,1.98.841.637,2.345,1.763.284.217,4.87,3.665,2.4,1.812,12.135,9.144c.774-.752,1.45-1.428,2.062-2.061.971-1,1.931-2.04,2.853-3.092.632-.711,1.256-1.446,1.859-2.189l-12.571-9.47-5.388-4.062-1.271-.953-1.357-1.027-3.473-2.615-2.562-1.926-4.608-3.474-2.4-1.806-19.262-14.515a21.318,21.318,0,0,0-2.549,1.777,19.419,19.419,0,0,0-2.948,2.959A18.544,18.544,0,0,0,824.256,348.32Z" transform="translate(-821.22 -337.874)" fill="rgba(0,0,0,0)"/>
      <path id="Path_40" data-name="Path 40" d="M883.4,338.79v59.687q-1.17.882-2.4,1.77-2.3,1.656-4.8,3.348-2.5-1.692-4.8-3.348-1.233-.891-2.4-1.77V338.79a18.84,18.84,0,0,1,2.4,1.224,18.63,18.63,0,0,1,4.8,4.146,18.831,18.831,0,0,1,7.2-5.37Z" transform="translate(-839.439 -337.193)" fill="#fff"/>
      <path id="Path_40_-_Outline" data-name="Path 40 - Outline" d="M868.5,338.035l.371.157a19.166,19.166,0,0,1,2.434,1.241,18.876,18.876,0,0,1,4.662,3.959,18.875,18.875,0,0,1,4.662-3.959,19.137,19.137,0,0,1,2.433-1.241l.371-.157v60.223l-.106.08c-.768.579-1.555,1.159-2.4,1.773-1.6,1.149-3.215,2.277-4.807,3.353l-.15.1-.15-.1c-1.592-1.077-3.209-2.2-4.806-3.352-.853-.617-1.64-1.2-2.4-1.774l-.106-.08Zm14.4,59.957V338.846a18.57,18.57,0,0,0-1.995,1.045,18.368,18.368,0,0,0-4.732,4.087l-.206.25-.206-.25a18.37,18.37,0,0,0-4.731-4.087,18.6,18.6,0,0,0-2-1.045v59.146c.729.548,1.479,1.1,2.289,1.687,1.542,1.108,3.1,2.2,4.643,3.242,1.539-1.043,3.1-2.133,4.644-3.242C881.418,399.1,882.168,398.542,882.9,397.992Z" transform="translate(-839.206 -336.842)" fill="rgba(0,0,0,0)"/>
      <path id="Path_41" data-name="Path 41" d="M884.059,384.983c-.894,1.02-1.848,2.058-2.862,3.1l-14.55-10.962-2.376-1.788-.024-.018-2.328-1.758-.828-.624-1.8-1.356-3.474-2.616-1.17-.882-1.386-1.044-1.014-.762-3.9-2.94-3.186-2.4-18.042-13.6a19.616,19.616,0,0,1,2.988-3l22.031,16.6.108.084,2.4,1.806.678.51,1.362,1.026,2.556,1.926,3.474,2.616,1.53,1.152,1.1.828,1.3.984,1.416,1.068,3.186,2.4Z" transform="translate(-822.686 -339.413)" fill="#4e9195"/>
      <path id="Path_42" data-name="Path 42" d="M896.473,346.27l-18.282,14.286-3.072,2.4-3.192,2.5-1.356,1.062-1.044.816L868,368.523l-3.426,2.676-1.734,1.356-.81.636-2.1,1.638-.156.126-2.244,1.752-14.34,11.214c-1.02-1.044-1.98-2.07-2.868-3.09l12.63-9.876,3.072-2.4,1.506-1.176,1.026-.8,1.374-1.074,1.17-.918,3.426-2.676,2.574-2.01,1.206-.942,1.224-.96,1.848-1.44.552-.432,21.4-16.734A20.133,20.133,0,0,1,896.473,346.27Z" transform="translate(-827.966 -339.033)" fill="#4e9195"/>
      <path id="Path_38" data-name="Path 38" d="M893.131,357.651a22.709,22.709,0,0,1-.264,2.4,30.816,30.816,0,0,1-2.058,7.062c-.348.834-.738,1.68-1.176,2.538-.39.786-.828,1.59-1.3,2.4a58,58,0,0,1-5.028,7.236q-.963,1.2-2.04,2.412c-.894,1.02-1.848,2.058-2.862,3.1-.714.738-1.458,1.476-2.232,2.226a128.786,128.786,0,0,1-12.318,10.386q-1.17.882-2.4,1.77-2.3,1.656-4.8,3.348-2.5-1.692-4.8-3.348-1.233-.891-2.4-1.77a129.364,129.364,0,0,1-12.066-10.146q-1.188-1.134-2.274-2.25c-1.02-1.044-1.98-2.07-2.868-3.09-.714-.792-1.38-1.584-2.016-2.358a57.963,57.963,0,0,1-5.256-7.518c-.48-.81-.912-1.614-1.3-2.4-.438-.858-.828-1.7-1.176-2.538a30.815,30.815,0,0,1-2.058-7.062,22.742,22.742,0,0,1-.264-2.4,19.789,19.789,0,0,1,2.406-11,18.649,18.649,0,0,1,1.746-2.592,19.634,19.634,0,0,1,2.988-3,21.537,21.537,0,0,1,2.736-1.89,22.156,22.156,0,0,1,19.4-1.44,18.83,18.83,0,0,1,7.2,5.37,18.829,18.829,0,0,1,7.2-5.37,22.074,22.074,0,0,1,18.618,1.014,21.228,21.228,0,0,1,2.784,1.746,20.129,20.129,0,0,1,3.144,2.88,19.352,19.352,0,0,1,1.9,2.55A19.678,19.678,0,0,1,893.131,357.651Z" transform="translate(-819.891 -336.129)" fill="none"/>
      <path id="Path_43" data-name="Path 43" d="M893.158,372a22.679,22.679,0,0,1-.264,2.4,30.807,30.807,0,0,1-2.058,7.062q-.522,1.251-1.176,2.538c-.39.786-.828,1.59-1.3,2.4H825c-.48-.81-.912-1.614-1.3-2.4-.438-.858-.828-1.7-1.176-2.538a30.814,30.814,0,0,1-2.058-7.062,22.71,22.71,0,0,1-.264-2.4Z" transform="translate(-819.918 -350.478)" fill="#fff"/>
      <path id="Path_43_-_Outline" data-name="Path 43 - Outline" d="M819.672,371.5h73.522l-.015.281a23.01,23.01,0,0,1-.267,2.428,31.214,31.214,0,0,1-2.075,7.122c-.357.856-.755,1.716-1.184,2.555-.382.769-.823,1.582-1.31,2.415l-.077.132H824.6l-.078-.131c-.457-.771-.9-1.583-1.311-2.416s-.826-1.7-1.184-2.555a31.221,31.221,0,0,1-2.075-7.123,23.067,23.067,0,0,1-.267-2.428Zm72.956.534H820.238c.046.67.128,1.372.244,2.09a30.688,30.688,0,0,0,2.041,7c.353.846.746,1.693,1.168,2.52v0c.384.774.792,1.531,1.215,2.252h63.053c.451-.777.86-1.533,1.216-2.252v0c.422-.827.815-1.675,1.167-2.519a30.679,30.679,0,0,0,2.041-7C892.5,373.407,892.583,372.7,892.629,372.034Z" transform="translate(-819.672 -350.245)" fill="rgba(0,0,0,0)"/>
      <path id="Path_44" data-name="Path 44" d="M893.07,376a30.813,30.813,0,0,1-2.058,7.062q-.522,1.251-1.176,2.538H823.874q-.657-1.287-1.176-2.538A30.82,30.82,0,0,1,820.64,376Z" transform="translate(-820.094 -352.078)" fill="#4e9195"/>
      <path id="Path_45" data-name="Path 45" d="M882.6,340.83v60.233q-2.3,1.656-4.8,3.348-2.5-1.692-4.8-3.348V340.83a18.628,18.628,0,0,1,4.8,4.146A18.625,18.625,0,0,1,882.6,340.83Z" transform="translate(-841.039 -338.009)" fill="#4e9195"/>
    </g>
    <g id="Group_449" data-name="Group 449" transform="translate(8070.588 -20999.156)">
      <path id="Path_498" data-name="Path 498" d="M0,11H1.875V6.584H6.832V11H8.707V0H6.832V4.911H1.875V0H0Z" transform="translate(5.722 40.13) rotate(-58.342)" fill="#17494d"/>
      <path id="Path_497" data-name="Path 497" d="M3.656,7.793a2.839,2.839,0,0,0,2.4-1.131l.031.015v.992H7.746V.108H6.011v.914l-.031.015A2.9,2.9,0,0,0,3.641,0,3.679,3.679,0,0,0,0,3.92,3.608,3.608,0,0,0,3.656,7.793Zm.279-1.58A2.129,2.129,0,0,1,1.766,3.935a2.183,2.183,0,0,1,2.169-2.37,2.215,2.215,0,0,1,2.153,2.37A2.161,2.161,0,0,1,3.935,6.213Z" transform="translate(14.764 32.197) rotate(-48.77)" fill="#17494d"/>
      <path id="Path_496" data-name="Path 496" d="M0,7.669H1.735v-3.8c0-1.487.775-2.308,1.952-2.308,1.038,0,1.642.511,1.642,2.107v4H7.065V3.222C7.065.945,5.949,0,4.291,0A3.241,3.241,0,0,0,1.766,1.146H1.735V.108H0Z" transform="matrix(0.77, -0.637, 0.637, 0.77, 23.117, 23.09)" fill="#17494d"/>
      <path id="Path_495" data-name="Path 495" d="M3.672,11.527A2.949,2.949,0,0,0,6.135,10.38h.015V11.4H7.808V0H6.089V4.772H6.073A3.06,3.06,0,0,0,3.656,3.734,3.691,3.691,0,0,0,0,7.653,3.62,3.62,0,0,0,3.672,11.527Zm.263-1.58A2.137,2.137,0,0,1,1.766,7.669a2.2,2.2,0,1,1,4.384,0A2.174,2.174,0,0,1,3.935,9.946Z" transform="translate(29.682 13.078) rotate(-30.465)" fill="#17494d"/>
      <path id="Path_494" data-name="Path 494" d="M0,7.669H1.735V3.9c0-1.487.775-2.339,1.813-2.339,1.023,0,1.5.806,1.5,2.169V7.669H6.786V3.9c0-1.487.79-2.339,1.766-2.339,1.023,0,1.472.806,1.472,2.169V7.669h1.735V3.3c0-2.262-.992-3.3-2.649-3.3A3.318,3.318,0,0,0,6.4,1.255H6.367A2.37,2.37,0,0,0,4.106,0,3.086,3.086,0,0,0,1.751,1.146H1.735V.108H0Z" transform="translate(42.51 9.934) rotate(-18.586)" fill="#17494d"/>
      <path id="Path_493" data-name="Path 493" d="M3.656,7.793a2.839,2.839,0,0,0,2.4-1.131l.031.015v.992H7.746V.108H6.011v.914l-.031.015A2.9,2.9,0,0,0,3.641,0,3.679,3.679,0,0,0,0,3.92,3.608,3.608,0,0,0,3.656,7.793Zm.279-1.58A2.129,2.129,0,0,1,1.766,3.935a2.183,2.183,0,0,1,2.169-2.37,2.215,2.215,0,0,1,2.153,2.37A2.161,2.161,0,0,1,3.935,6.213Z" transform="translate(59.21 4.912) rotate(-6.613)" fill="#17494d"/>
      <path id="Path_492" data-name="Path 492" d="M3.672,11.527A2.949,2.949,0,0,0,6.135,10.38h.015V11.4H7.808V0H6.089V4.772H6.073A3.06,3.06,0,0,0,3.656,3.734,3.691,3.691,0,0,0,0,7.653,3.62,3.62,0,0,0,3.672,11.527Zm.263-1.58A2.137,2.137,0,0,1,1.766,7.669a2.2,2.2,0,1,1,4.384,0A2.174,2.174,0,0,1,3.935,9.946Z" transform="matrix(0.999, 0.05, -0.05, 0.999, 71.268, 0)" fill="#17494d"/>
      <path id="Path_491" data-name="Path 491" d="M7.359,3.8A3.531,3.531,0,0,0,3.8,0,3.669,3.669,0,0,0,0,3.889a3.712,3.712,0,0,0,3.92,3.9A3.73,3.73,0,0,0,7.127,6.367L5.918,5.329a2.364,2.364,0,0,1-1.906.883A2.1,2.1,0,0,1,1.8,4.462H7.313A5.5,5.5,0,0,0,7.359,3.8ZM3.78,1.565A1.809,1.809,0,0,1,5.608,3.1H1.828A1.912,1.912,0,0,1,3.78,1.565Z" transform="translate(82.941 4.54) rotate(11.819)" fill="#17494d"/>
      <path id="Path_490" data-name="Path 490" transform="translate(90.469 13.551) rotate(17.969)" fill="#17494d"/>
      <path id="Path_489" data-name="Path 489" d="M1.162,2.308A1.174,1.174,0,0,0,2.339,1.146,1.171,1.171,0,0,0,1.162,0a1.154,1.154,0,1,0,0,2.308ZM.294,10.984H2.03V3.424H.294Z" transform="translate(99.228 5.492) rotate(21.565)" fill="#17494d"/>
      <path id="Path_488" data-name="Path 488" d="M0,7.669H1.735v-3.8c0-1.487.775-2.308,1.952-2.308,1.038,0,1.642.511,1.642,2.107v4H7.065V3.222C7.065.945,5.949,0,4.291,0A3.241,3.241,0,0,0,1.766,1.146H1.735V.108H0Z" transform="translate(102.486 10.326) rotate(27.796)" fill="#17494d"/>
      <path id="Path_487" data-name="Path 487" transform="translate(107.128 21.019) rotate(34.169)" fill="#17494d"/>
      <path id="Path_486" data-name="Path 486" d="M3.858,10.845c2.8,0,3.858-1.658,3.858-3.951V.108H5.98V.914H5.949A3.407,3.407,0,0,0,3.594,0,3.577,3.577,0,0,0,0,3.811,3.559,3.559,0,0,0,3.687,7.545,3.178,3.178,0,0,0,5.98,6.631h.031v.79c0,1.007-.759,1.859-2.246,1.859a4.962,4.962,0,0,1-2.572-.744L.775,10.055A6.081,6.081,0,0,0,3.858,10.845Zm.062-4.9A2.066,2.066,0,0,1,1.766,3.765,2.066,2.066,0,0,1,3.92,1.58,2.071,2.071,0,0,1,6.058,3.734,2.1,2.1,0,0,1,3.92,5.949Z" transform="translate(115.851 18.223) rotate(40.765)" fill="#17494d"/>
      <path id="Path_485" data-name="Path 485" d="M0,7.4H1.675V3.949A1.932,1.932,0,0,1,3.665,1.84c.12,0,.314.015.509.03V0H3.964A2.8,2.8,0,0,0,1.705,1.2h-.03V.1H0Z" transform="translate(125.016 26.223) rotate(48.075)" fill="#17494d"/>
      <path id="Path_484" data-name="Path 484" d="M7.359,3.8A3.531,3.531,0,0,0,3.8,0,3.669,3.669,0,0,0,0,3.889a3.712,3.712,0,0,0,3.92,3.9A3.73,3.73,0,0,0,7.127,6.367L5.918,5.329a2.364,2.364,0,0,1-1.906.883A2.1,2.1,0,0,1,1.8,4.462H7.313A5.5,5.5,0,0,0,7.359,3.8ZM3.78,1.565A1.809,1.809,0,0,1,5.608,3.1H1.828A1.912,1.912,0,0,1,3.78,1.565Z" transform="matrix(0.574, 0.819, -0.819, 0.574, 129.043, 31.117)" fill="#17494d"/>
      <path id="Path_483" data-name="Path 483" d="M3.656,7.793a2.839,2.839,0,0,0,2.4-1.131l.031.015v.992H7.746V.108H6.011v.914l-.031.015A2.9,2.9,0,0,0,3.641,0,3.679,3.679,0,0,0,0,3.92,3.608,3.608,0,0,0,3.656,7.793Zm.279-1.58A2.129,2.129,0,0,1,1.766,3.935a2.183,2.183,0,0,1,2.169-2.37,2.215,2.215,0,0,1,2.153,2.37A2.161,2.161,0,0,1,3.935,6.213Z" transform="translate(135.217 40.167) rotate(63.969)" fill="#17494d"/>
      <path id="Path_482" data-name="Path 482" d="M2.932,10.022a3.394,3.394,0,0,0,1.855-.434L4.353,8.137a2.448,2.448,0,0,1-1.077.314c-.479,0-.7-.269-.7-1.017V4.024H4.712V2.6H2.573V0L.9.18V2.6H0V4.024H.9V7.6C.9,9.229,1.675,10.022,2.932,10.022Z" transform="translate(142.594 49.575) rotate(71.219)" fill="#17494d"/>
      <path id="Path_481" data-name="Path 481" transform="translate(134.955 57.952) rotate(75.642)" fill="#17494d"/>
      <path id="Path_480" data-name="Path 480" d="M4.137,11.527A3.611,3.611,0,0,0,7.808,7.653a3.682,3.682,0,0,0-3.656-3.92,3.076,3.076,0,0,0-2.4,1.007H1.735V0H0V11.4H1.658V10.4h.031A2.908,2.908,0,0,0,4.137,11.527Zm-.263-1.58A2.174,2.174,0,0,1,1.658,7.669a2.2,2.2,0,1,1,4.384,0A2.137,2.137,0,0,1,3.873,9.946Z" transform="translate(147.112 61.623) rotate(82.276)" fill="#17494d"/>
      <path id="Path_479" data-name="Path 479" d="M0,7.4H1.675V3.949A1.932,1.932,0,0,1,3.665,1.84c.12,0,.314.015.509.03V0H3.964A2.8,2.8,0,0,0,1.705,1.2h-.03V.1H0Z" transform="translate(144.904 73.708) rotate(89.639)" fill="#17494d"/>
      <path id="Path_478" data-name="Path 478" d="M1.162,2.308A1.174,1.174,0,0,0,2.339,1.146,1.171,1.171,0,0,0,1.162,0a1.154,1.154,0,1,0,0,2.308ZM.294,10.984H2.03V3.424H.294Z" transform="translate(147.856 80.266) rotate(93.957)" fill="#17494d"/>
      <path id="Path_477" data-name="Path 477" d="M2.932,10.022a3.394,3.394,0,0,0,1.855-.434L4.353,8.137a2.448,2.448,0,0,1-1.077.314c-.479,0-.7-.269-.7-1.017V4.024H4.712V2.6H2.573V0L.9.18V2.6H0V4.024H.9V7.6C.9,9.229,1.675,10.022,2.932,10.022Z" transform="translate(147.021 84.223) rotate(98.178)" fill="#17494d"/>
      <path id="Path_476" data-name="Path 476" d="M3.656,7.793a2.839,2.839,0,0,0,2.4-1.131l.031.015v.992H7.746V.108H6.011v.914l-.031.015A2.9,2.9,0,0,0,3.641,0,3.679,3.679,0,0,0,0,3.92,3.608,3.608,0,0,0,3.656,7.793Zm.279-1.58A2.129,2.129,0,0,1,1.766,3.935a2.183,2.183,0,0,1,2.169-2.37,2.215,2.215,0,0,1,2.153,2.37A2.161,2.161,0,0,1,3.935,6.213Z" transform="translate(143.32 90.738) rotate(105.349)" fill="#17494d"/>
      <path id="Path_475" data-name="Path 475" d="M1.162,2.308A1.174,1.174,0,0,0,2.339,1.146,1.171,1.171,0,0,0,1.162,0a1.154,1.154,0,1,0,0,2.308ZM.294,10.984H2.03V3.424H.294Z" transform="matrix(-0.371, 0.929, -0.929, -0.371, 142.932, 103.326)" fill="#17494d"/>
      <path id="Path_474" data-name="Path 474" d="M0,7.669H1.735v-3.8c0-1.487.775-2.308,1.952-2.308,1.038,0,1.642.511,1.642,2.107v4H7.065V3.222C7.065.945,5.949,0,4.291,0A3.241,3.241,0,0,0,1.766,1.146H1.735V.108H0Z" transform="translate(138.079 106.575) rotate(118.028)" fill="#17494d"/>
      <path id="Path_473" data-name="Path 473" transform="translate(127.376 111.16) rotate(124.388)" fill="#17494d"/>
      <path id="Path_472" data-name="Path 472" transform="matrix(-0.618, 0.787, -0.787, -0.618, 124.98, 114.667)" fill="#17494d"/>
      <path id="Path_471" data-name="Path 471" d="M4.137,11.527A3.611,3.611,0,0,0,7.808,7.653a3.682,3.682,0,0,0-3.656-3.92,3.076,3.076,0,0,0-2.4,1.007H1.735V0H0V11.4H1.658V10.4h.031A2.908,2.908,0,0,0,4.137,11.527Zm-.263-1.58A2.174,2.174,0,0,1,1.658,7.669a2.2,2.2,0,1,1,4.384,0A2.137,2.137,0,0,1,3.873,9.946Z" transform="translate(129.477 126.534) rotate(134.718)" fill="#17494d"/>
      <path id="Path_470" data-name="Path 470" d="M1.735,10.628h1.8L7.684,0H5.9L3.966,5.066H3.935L1.859,0H0L3.1,7.142Z" transform="matrix(-0.802, 0.597, -0.597, -0.802, 118.903, 131.504)" fill="#17494d"/>
      <path id="Path_469" data-name="Path 469" transform="matrix(-0.858, 0.514, -0.514, -0.858, 107.658, 130.975)" fill="#17494d"/>
      <path id="Path_468" data-name="Path 468" d="M7.359,3.8A3.531,3.531,0,0,0,3.8,0,3.669,3.669,0,0,0,0,3.889a3.712,3.712,0,0,0,3.92,3.9A3.73,3.73,0,0,0,7.127,6.367L5.918,5.329a2.364,2.364,0,0,1-1.906.883A2.1,2.1,0,0,1,1.8,4.462H7.313A5.5,5.5,0,0,0,7.359,3.8ZM3.78,1.565A1.809,1.809,0,0,1,5.608,3.1H1.828A1.912,1.912,0,0,1,3.78,1.565Z" transform="translate(106.508 140.035) rotate(155.258)" fill="#17494d"/>
      <path id="Path_467" data-name="Path 467" d="M0,7.56H1.921L3.656,5.175h.015L5.391,7.56H7.328L4.648,3.718,7.282,0h-2L3.656,2.386H3.625L2.03,0H.015L2.665,3.7Z" transform="matrix(-0.956, 0.293, -0.293, -0.956, 96.804, 144.186)" fill="#17494d"/>
      <path id="Path_466" data-name="Path 466" d="M0,10.736H1.735V6.755l.031-.015a2.911,2.911,0,0,0,2.37,1.054A3.611,3.611,0,0,0,7.808,3.92,3.682,3.682,0,0,0,4.152,0,3.049,3.049,0,0,0,1.766,1.007H1.735v-.9H0ZM3.873,6.213A2.174,2.174,0,0,1,1.658,3.935a2.2,2.2,0,1,1,4.384,0A2.137,2.137,0,0,1,3.873,6.213Z" transform="translate(87.928 146.917) rotate(171.037)" fill="#17494d"/>
      <path id="Path_465" data-name="Path 465" d="M7.359,3.8A3.531,3.531,0,0,0,3.8,0,3.669,3.669,0,0,0,0,3.889a3.712,3.712,0,0,0,3.92,3.9A3.73,3.73,0,0,0,7.127,6.367L5.918,5.329a2.364,2.364,0,0,1-1.906.883A2.1,2.1,0,0,1,1.8,4.462H7.313A5.5,5.5,0,0,0,7.359,3.8ZM3.78,1.565A1.809,1.809,0,0,1,5.608,3.1H1.828A1.912,1.912,0,0,1,3.78,1.565Z" transform="translate(76.596 148.483) rotate(-179.855)" fill="#17494d"/>
      <path id="Path_464" data-name="Path 464" d="M0,7.4H1.675V3.949A1.932,1.932,0,0,1,3.665,1.84c.12,0,.314.015.509.03V0H3.964A2.8,2.8,0,0,0,1.705,1.2h-.03V.1H0Z" transform="translate(65.422 148.428) rotate(-172.953)" fill="#17494d"/>
      <path id="Path_463" data-name="Path 463" d="M2.932,10.022a3.394,3.394,0,0,0,1.855-.434L4.353,8.137a2.448,2.448,0,0,1-1.077.314c-.479,0-.7-.269-.7-1.017V4.024H4.712V2.6H2.573V0L.9.18V2.6H0V4.024H.9V7.6C.9,9.229,1.675,10.022,2.932,10.022Z" transform="matrix(-0.978, -0.21, 0.21, -0.978, 59.122, 150.101)" fill="#17494d"/>
      <path id="Path_462" data-name="Path 462" transform="translate(55.869 139.248) rotate(-163.52)" fill="#17494d"/>
      <path id="Path_461" data-name="Path 461" d="M3.858,7.793a3.8,3.8,0,0,0,3.253-1.41L5.918,5.329a2.365,2.365,0,0,1-1.906.883A2.168,2.168,0,0,1,1.766,3.889,2.168,2.168,0,0,1,4.013,1.565a2.447,2.447,0,0,1,1.906.868L7.1,1.41A4.14,4.14,0,0,0,3.92,0,3.737,3.737,0,0,0,0,3.9,3.718,3.718,0,0,0,3.858,7.793Z" transform="translate(48.425 144.529) rotate(-157.392)" fill="#17494d"/>
      <path id="Path_460" data-name="Path 460" d="M0,7.4H1.675V3.949A1.932,1.932,0,0,1,3.665,1.84c.12,0,.314.015.509.03V0H3.964A2.8,2.8,0,0,0,1.705,1.2h-.03V.1H0Z" transform="matrix(-0.87, -0.492, 0.492, -0.87, 38.316, 140.301)" fill="#17494d"/>
      <path id="Path_459" data-name="Path 459" d="M3.656,7.793a2.839,2.839,0,0,0,2.4-1.131l.031.015v.992H7.746V.108H6.011v.914l-.031.015A2.9,2.9,0,0,0,3.641,0,3.679,3.679,0,0,0,0,3.92,3.608,3.608,0,0,0,3.656,7.793Zm.279-1.58A2.129,2.129,0,0,1,1.766,3.935a2.183,2.183,0,0,1,2.169-2.37,2.215,2.215,0,0,1,2.153,2.37A2.161,2.161,0,0,1,3.935,6.213Z" transform="matrix(-0.8, -0.6, 0.6, -0.8, 32.889, 136.95)" fill="#17494d"/>
      <path id="Path_458" data-name="Path 458" d="M.808,11.129H2.483V5.25h1.8V3.829h-1.8V2.678c0-.793.269-1.137.778-1.137a3.207,3.207,0,0,1,1.212.374L4.847.509A3.358,3.358,0,0,0,3.022,0C1.586,0,.808.868.808,2.5V3.829H0V5.25H.808Z" transform="matrix(-0.721, -0.693, 0.693, -0.721, 21.041, 132.671)" fill="#17494d"/>
      <path id="Path_457" data-name="Path 457" d="M2.932,10.022a3.394,3.394,0,0,0,1.855-.434L4.353,8.137a2.448,2.448,0,0,1-1.077.314c-.479,0-.7-.269-.7-1.017V4.024H4.712V2.6H2.573V0L.9.18V2.6H0V4.024H.9V7.6C.9,9.229,1.675,10.022,2.932,10.022Z" transform="matrix(-0.66, -0.751, 0.751, -0.66, 17.728, 127.719)" fill="#17494d"/>
      <path id="Path_456" data-name="Path 456" d="M3.052,7.793c1.921,0,2.82-1.023,2.82-2.293,0-1.5-1.007-1.8-2.618-2.432-.728-.279-1.193-.542-1.193-.914,0-.465.48-.651.821-.651a2.778,2.778,0,0,1,1.89.806L5.639.945A4.021,4.021,0,0,0,2.975,0C1.425,0,.31.9.31,2.138c0,1.487,1.069,2.045,2.308,2.479.992.341,1.487.527,1.487.914,0,.449-.387.744-1.054.744A2.9,2.9,0,0,1,.868,5.391L0,6.693A4.513,4.513,0,0,0,3.052,7.793Z" transform="matrix(-0.576, -0.818, 0.818, -0.576, 15.403, 120.853)" fill="#17494d"/>
      <path id="Path_455" data-name="Path 455" d="M0,7.669H1.735V3.9c0-1.487.775-2.339,1.813-2.339,1.023,0,1.5.806,1.5,2.169V7.669H6.786V3.9c0-1.487.79-2.339,1.766-2.339,1.023,0,1.472.806,1.472,2.169V7.669h1.735V3.3c0-2.262-.992-3.3-2.649-3.3A3.318,3.318,0,0,0,6.4,1.255H6.367A2.37,2.37,0,0,0,4.106,0,3.086,3.086,0,0,0,1.751,1.146H1.735V.108H0Z" transform="translate(9.464 112.545) rotate(-114.377)" fill="#17494d"/>
      <path id="Path_454" data-name="Path 454" d="M3.656,7.793a2.839,2.839,0,0,0,2.4-1.131l.031.015v.992H7.746V.108H6.011v.914l-.031.015A2.9,2.9,0,0,0,3.641,0,3.679,3.679,0,0,0,0,3.92,3.608,3.608,0,0,0,3.656,7.793Zm.279-1.58A2.129,2.129,0,0,1,1.766,3.935a2.183,2.183,0,0,1,2.169-2.37,2.215,2.215,0,0,1,2.153,2.37A2.161,2.161,0,0,1,3.935,6.213Z" transform="translate(2.776 96.421) rotate(-102.427)" fill="#17494d"/>
      <path id="Path_453" data-name="Path 453" d="M0,7.669H1.735v-3.8c0-1.487.775-2.308,1.952-2.308,1.038,0,1.642.511,1.642,2.107v4H7.065V3.222C7.065.945,5.949,0,4.291,0A3.241,3.241,0,0,0,1.766,1.146H1.735V.108H0Z" transform="translate(0.392 84.297) rotate(-93.177)" fill="#17494d"/>
      <path id="Path_452" data-name="Path 452" d="M1.177,2.308A1.157,1.157,0,0,0,2.339,1.162,1.17,1.17,0,0,0,0,1.162,1.161,1.161,0,0,0,1.177,2.308Z" transform="translate(5.58 73.816) rotate(-87.23)" fill="#17494d"/>
    </g>
  </g>
</svg>
