<svg xmlns="http://www.w3.org/2000/svg" width="32" height="32" viewBox="0 0 32 32">
  <g id="Group_1470" data-name="Group 1470" transform="translate(-296.5 -122)">
    <g id="Group_1466" data-name="Group 1466" transform="translate(151.268 49.768)">
      <circle id="Ellipse_376" data-name="Ellipse 376" cx="16" cy="16" r="16" transform="translate(145.232 72.232)" fill="#fff"/>
    </g>
    <g id="Group_1462" data-name="Group 1462" transform="translate(-779.497 20.362)">
      <path id="Path_1354" data-name="Path 1354" d="M.828-10.221v-.4h.5a2.939,2.939,0,0,1-.17-.871,1.461,1.461,0,0,1,.457-1.037A1.51,1.51,0,0,1,2.746-13a1.516,1.516,0,0,1,1.147.485,1.669,1.669,0,0,1,.474,1.15H3.4a.675.675,0,0,0-.188-.481.613.613,0,0,0-.464-.2.6.6,0,0,0-.446.17.622.622,0,0,0-.17.46,2.438,2.438,0,0,0,.2.793H3.539v.4H2.463a2.084,2.084,0,0,1,.12.7,1.349,1.349,0,0,1-.191.68H4.368v.956H.828V-8.84h.63a1.388,1.388,0,0,0,.163-.651,2.8,2.8,0,0,0-.149-.729ZM8.382-8.84v.956H4.955v-.333A1.822,1.822,0,0,1,5-8.614a2.033,2.033,0,0,1,.1-.336,1.336,1.336,0,0,1,.181-.3q.12-.156.205-.255a2.1,2.1,0,0,1,.258-.241q.173-.142.265-.209t.29-.205q.2-.138.276-.195.793-.552.793-1.034a.647.647,0,0,0-.177-.467A.646.646,0,0,0,6.7-12.04a.772.772,0,0,0-.549.2.642.642,0,0,0-.209.506H4.969a1.563,1.563,0,0,1,.5-1.2A1.774,1.774,0,0,1,6.725-13a1.679,1.679,0,0,1,1.143.411,1.433,1.433,0,0,1,.471,1.14,1.74,1.74,0,0,1-.258.988,3.263,3.263,0,0,1-.8.782q-.05.035-.255.173t-.311.216a2.3,2.3,0,0,0-.237.205A.693.693,0,0,0,6.3-8.84Zm2.577,1.034a1.769,1.769,0,0,1-1.352-.559A2.008,2.008,0,0,1,9.082-9.8v-1.218a2,2,0,0,1,.524-1.423A1.769,1.769,0,0,1,10.958-13a1.761,1.761,0,0,1,1.345.559,2,2,0,0,1,.524,1.423V-9.8a2.008,2.008,0,0,1-.524,1.43A1.761,1.761,0,0,1,10.958-7.807ZM10.3-9.039a.841.841,0,0,0,.658.276.831.831,0,0,0,.655-.276,1.1,1.1,0,0,0,.244-.757v-1.218a1.09,1.09,0,0,0-.244-.754.836.836,0,0,0-.655-.273.847.847,0,0,0-.658.273,1.08,1.08,0,0,0-.248.754V-9.8A1.093,1.093,0,0,0,10.3-9.039Zm5.125,1.232a1.769,1.769,0,0,1-1.352-.559,2.008,2.008,0,0,1-.524-1.43v-1.218a2,2,0,0,1,.524-1.423A1.769,1.769,0,0,1,15.425-13a1.761,1.761,0,0,1,1.345.559,2,2,0,0,1,.524,1.423V-9.8a2.008,2.008,0,0,1-.524,1.43A1.761,1.761,0,0,1,15.425-7.807Zm-.658-1.232a.841.841,0,0,0,.658.276.831.831,0,0,0,.655-.276,1.1,1.1,0,0,0,.244-.757v-1.218a1.09,1.09,0,0,0-.244-.754.836.836,0,0,0-.655-.273.847.847,0,0,0-.658.273,1.08,1.08,0,0,0-.248.754V-9.8A1.093,1.093,0,0,0,14.767-9.039Z" transform="translate(1082.936 127.825)" fill="#e0ad16"/>
      <g id="Group_1455" data-name="Group 1455" transform="translate(1084.616 123.594)">
        <path id="Union_4" data-name="Union 4" d="M3.632,6.226.6,4.306a1,1,0,0,1,0-1.689L3.632.7a1,1,0,0,1,1.534.845v.176A9.211,9.211,0,0,0,8.921,1.8,17.5,17.5,0,0,0,13.408,0a12.742,12.742,0,0,1-3.3,3.2A22.711,22.711,0,0,1,5.165,5.423a1,1,0,0,1-1,.96A.988.988,0,0,1,3.632,6.226Z" transform="translate(0 0)" fill="#e0ad16"/>
      </g>
      <g id="Group_1456" data-name="Group 1456" transform="translate(1084.224 105.171)">
        <path id="Union_4-2" data-name="Union 4" d="M3.631,6.226.6,4.306a1,1,0,0,1,0-1.689L3.631.7a1,1,0,0,1,1.535.845v.176A9.206,9.206,0,0,0,8.92,1.8,17.5,17.5,0,0,0,13.408,0a12.76,12.76,0,0,1-3.3,3.2A22.711,22.711,0,0,1,5.165,5.423a1,1,0,0,1-1,.96A.99.99,0,0,1,3.631,6.226Z" transform="translate(13.408 6.51) rotate(180)" fill="#f0d27e"/>
      </g>
    </g>
  </g>
</svg>
