<svg xmlns="http://www.w3.org/2000/svg" xmlns:xlink="http://www.w3.org/1999/xlink" width="32.005" height="32.04" viewBox="0 0 32.005 32.04">
  <defs>
    <clipPath id="clip-path">
      <rect id="Rectangle_2743" data-name="Rectangle 2743" width="32.005" height="32.04" transform="translate(0 0)" fill="none"/>
    </clipPath>
  </defs>
  <g id="Group_1469" data-name="Group 1469" transform="translate(0 0)">
    <g id="Group_1468" data-name="Group 1468" clip-path="url(#clip-path)">
      <path id="Path_1357" data-name="Path 1357" d="M5.39,28.01a14.4,14.4,0,0,1-1.24-1.23,15.085,15.085,0,0,1-1.53-1.97,13.444,13.444,0,0,1-.86-1.47.914.914,0,0,1-.07-.14Z" fill="#12234b"/>
      <path id="Path_1358" data-name="Path 1358" d="M32.005,16.04a16.563,16.563,0,0,1-.18,2.46c-.07.43-.16.85-.26,1.27a.936.936,0,0,1-.04.16c-.01.05-.02.11-.03.16a16.65,16.65,0,0,1-1.1,2.96c-.02.04-.05.09-.07.13a.914.914,0,0,1-.07.14,13.94,13.94,0,0,1-.87,1.5,18.211,18.211,0,0,1-1.53,1.97A15.619,15.619,0,0,1,26.625,28c-.04.04-.08.07-.12.11a1.132,1.132,0,0,1-.13.1,15.706,15.706,0,0,1-6.07,3.24.983.983,0,0,1-.16.05c-.05.01-.11.03-.17.04a12.591,12.591,0,0,1-1.25.27,16.149,16.149,0,0,1-5.71-.05c-.43-.08-.85-.18-1.27-.3a.936.936,0,0,1-.16-.04,1.543,1.543,0,0,1-.17-.05q-.45-.135-.9-.3-.39-.135-.78-.3a15.926,15.926,0,0,1-4.1-2.55l-.09-.12-1.16-1.5-1.53-1.97-1.13-1.45-.1-.13a15.94,15.94,0,0,1-1.11-2.96.936.936,0,0,0-.04-.16c-.01-.05-.02-.11-.03-.16-.1-.42-.19-.84-.26-1.27A16.563,16.563,0,0,1,0,16.04a15.758,15.758,0,0,1,.33-3.24,11.237,11.237,0,0,1,.32-1.27c.01-.05.03-.11.04-.16s.03-.11.05-.16a13.659,13.659,0,0,1,.69-1.78,1.009,1.009,0,0,1,.07-.15,1.111,1.111,0,0,1,.07-.16,13.645,13.645,0,0,1,.83-1.5,13.681,13.681,0,0,1,1.48-2.01,11.672,11.672,0,0,1,1.19-1.25l.11-.11a1.141,1.141,0,0,0,.11-.11A16.022,16.022,0,0,1,11.415.71a1.543,1.543,0,0,1,.17-.05.936.936,0,0,1,.16-.04c.37-.11.73-.2,1.12-.28a.772.772,0,0,0,.15-.02V.25s.01.01.01,0c.03.02.04.03.07.05.26.16.52.33.77.51A11.5,11.5,0,0,1,15.2,1.97c.23.24.45.48.66.74a4.879,4.879,0,0,1,.48-.54c.07-.08.15-.16.22-.23a.71.71,0,0,1,.13-.12c.16-.17.32-.31.49-.46h.01c.2-.18.41-.34.62-.5.02-.02.03-.03.05-.03.02-.03.05-.04.07-.06a.53.53,0,0,1,.1-.06,4.01,4.01,0,0,1,.5-.34,1.505,1.505,0,0,1,.17-.1c.01-.01.01-.02.02-.02V.27a1.552,1.552,0,0,1,.21.04c.35.06.7.14,1.04.23.06.01.12.03.17.04a.09.09,0,0,1,.05.01c.04.01.08.03.11.04.27.07.54.16.81.24q.765.27,1.5.6a15.676,15.676,0,0,1,3.67,2.31,1.059,1.059,0,0,1,.12.1,1.267,1.267,0,0,1,.13.11,13.613,13.613,0,0,1,1.21,1.19A15.246,15.246,0,0,1,29.3,7.13a14.1,14.1,0,0,1,.89,1.5,1.093,1.093,0,0,1,.08.15c.02.04.05.09.07.13a16.506,16.506,0,0,1,.93,2.3c.02.05.03.11.05.16s.03.11.04.16c.12.42.23.84.31,1.27a15.1,15.1,0,0,1,.34,3.24" fill="#012169"/>
      <path id="Path_1359" data-name="Path 1359" d="M5.39,28.01a14.4,14.4,0,0,1-1.24-1.23,15.085,15.085,0,0,1-1.53-1.97,13.444,13.444,0,0,1-.86-1.47.914.914,0,0,1-.07-.14l3.98-3.11.2-.16.2-.16L7.7,18.5l2.84-2.22.13-.1.13-.1.62-.49.16-.12.16-.13.43-.34h.01v-.01l.82-.64.01-.01,1.21-.94.77-.6.01-.01.62-.48.11-.09h.01v-.01l.13-.1.74-.58.21-.16.2-.16,1.69-1.32.01-.01,1.26-.98.16-.13.16-.13,6.1-4.76a1.267,1.267,0,0,1,.13.11,13.613,13.613,0,0,1,1.21,1.19,15.246,15.246,0,0,1,1.55,1.95,14.1,14.1,0,0,1,.89,1.5,1.093,1.093,0,0,1,.08.15l-3.12,2.43-.2.16-.21.16-1.62,1.26-.01.01-4.08,3.19-.12.1-.13.1-.47.37-.16.12-.16.12-.61.48-.65.51-.91.71-.48.37v.01h-.01l-1.14.89-.2.16-.03.02-.13.1v.01h-.01l-.04.03-.09.07-2.67,2.09-1.27.99-.16.13-.16.13L5.51,28.12Z" fill="#fff"/>
      <path id="Path_1360" data-name="Path 1360" d="M30.32,23.18a.914.914,0,0,1-.07.14,13.94,13.94,0,0,1-.87,1.5,17.034,17.034,0,0,1-1.53,1.97A15.62,15.62,0,0,1,26.62,28c-.04.04-.08.07-.12.11l-6.2-4.68-.15-.11-.01-.01-.16-.12-1.26-.95-2.77-2.08-.09-.07-.04-.03h-.01l-.12-.1-.04-.03-.21-.16-1.19-.89-.5-.38-.74-.55L13,17.94l-.81-.61-.45-.34-.16-.12-.16-.12-.62-.47-.13-.1-.14-.1L6.17,12.8,4.49,11.53l-.21-.16-.21-.16L1.5,9.28a1.111,1.111,0,0,1,.07-.16,13.645,13.645,0,0,1,.83-1.5A13.681,13.681,0,0,1,3.88,5.61,11.672,11.672,0,0,1,5.07,4.36l.11-.11,6.24,4.71.16.12.16.12,1.26.95.01.01,1.41,1.05.21.16.21.16.76.59.13.1h.01l.13.1.65.48.75.56,1.44,1.09.01.01.61.46.65.49.16.12.16.12.46.34.14.1.13.1,3.06,2.31.01.01,1.68,1.26.21.16.21.16Z" fill="#fff"/>
      <path id="Path_1361" data-name="Path 1361" d="M20.145.58V31.5c-.05.01-.11.03-.17.04a12.591,12.591,0,0,1-1.25.27,16.149,16.149,0,0,1-5.71-.05c-.43-.08-.85-.18-1.27-.3a.936.936,0,0,1-.16-.04V.66a.936.936,0,0,1,.16-.04c.37-.11.73-.2,1.12-.28a.772.772,0,0,0,.15-.02V.25s.01.01.01,0c.03.02.04.03.07.05.26.16.52.33.77.51A11.5,11.5,0,0,1,15.2,1.97c.23.24.45.48.66.74a4.879,4.879,0,0,1,.48-.54c.07-.08.15-.16.22-.23a.71.71,0,0,1,.13-.12c.16-.17.32-.31.49-.46h.01c.2-.18.41-.34.62-.5.02-.02.03-.03.05-.03.02-.03.05-.04.07-.06a.53.53,0,0,1,.1-.06,4.01,4.01,0,0,1,.5-.34c.05-.04.1-.07.16-.11.01,0,.02-.01.03-.01V.27a1.552,1.552,0,0,1,.21.04c.35.06.7.14,1.04.23.06.01.12.03.17.04" fill="#fff"/>
      <path id="Path_1362" data-name="Path 1362" d="M29.38,24.82a17.034,17.034,0,0,1-1.53,1.97L20.3,21.1l-.15-.11-.01-.01-.16-.12-1.04-.77-.21-.16h-.01v-.01l-.2-.15-1.06-.79-.13-.1h-.01l-.12-.1-.36-.27-.01-.01-1.06-.8-2.06-1.56-1.4-1.04-.13-.1h-.01l-.12-.1-.31-.24-.16-.12-.16-.12L9.26,12.8,7.58,11.53l-.21-.16-.21-.16L2.4,7.62A13.681,13.681,0,0,1,3.88,5.61l7.43,5.6.11.08.1.08.06.05.15.11.01.01,1.27.95.4.3.01.01.67.5.13.1.14.1,1.38,1.05h.01L17.8,16.1h.01l.9.69.01.01.51.38.14.1.13.1.48.37.16.12.16.12.68.51,1.69,1.27.21.16.21.16Z" fill="#c8102e"/>
      <path id="Path_1363" data-name="Path 1363" d="M29.29,7.13l-5.22,4.08-.2.16-.2.16L22.04,12.8,20.3,14.16l-.16.12-.16.13-.52.4-.12.1-.01.01-.12.09-.49.38-.01.01-.9.7-.01.01L15.77,17.7l-1.03.8-.36.28-.26.2-1,.79-.11.09-.1.07-.2.16-.97.75-.16.13-.16.13L4.15,26.78a15.085,15.085,0,0,1-1.53-1.97l6.04-4.72.2-.16.2-.16,1.62-1.27.74-.58.16-.12.16-.12.32-.25.13-.1.13-.1.69-.54.7-.55,2.03-1.59h.01l1.39-1.09.13-.1.01-.01.12-.09.59-.46.01-.01.72-.57.88-.69.21-.16.01-.01.16-.12.04-.03.12-.09.01-.01.15-.12,7.44-5.81a15.246,15.246,0,0,1,1.55,1.95" fill="#c8102e"/>
      <path id="Path_1364" data-name="Path 1364" d="M32,16.04a16.563,16.563,0,0,1-.18,2.46c-.07.43-.16.85-.26,1.27a.936.936,0,0,1-.04.16H.48a.936.936,0,0,1-.04-.16c-.1-.42-.19-.84-.26-1.27A16.563,16.563,0,0,1,0,16.04,15.758,15.758,0,0,1,.33,12.8c.09-.43.19-.85.32-1.27.01-.05.03-.11.04-.16H31.31c.01.05.03.11.04.16.13.42.23.84.32,1.27A15.758,15.758,0,0,1,32,16.04" fill="#fff"/>
      <path id="Path_1365" data-name="Path 1365" d="M32,16.04a16.563,16.563,0,0,1-.18,2.46H.18A16.563,16.563,0,0,1,0,16.04,15.758,15.758,0,0,1,.33,12.8H31.67A15.758,15.758,0,0,1,32,16.04" fill="#c8102e"/>
      <path id="Path_1366" data-name="Path 1366" d="M18.725.25V31.81a16.149,16.149,0,0,1-5.71-.05V.25s.01.01.01,0a.582.582,0,0,0,.19-.03A16.9,16.9,0,0,1,15.9,0a16.563,16.563,0,0,1,2.46.18,1.572,1.572,0,0,0,.23.04c0,.01,0,.01.01.01h.02c.04.01.07.01.11.02" fill="#c8102e"/>
    </g>
  </g>
</svg>
