<svg xmlns="http://www.w3.org/2000/svg" width="26.028" height="29.397" viewBox="0 0 26.028 29.397">
  <g id="Group_61" data-name="Group 61" transform="matrix(0.951, 0.309, -0.309, 0.951, -519.643, -563.665)">
    <g id="phone-call" transform="translate(675.712 373.195)">
      <path id="Path_1" data-name="Path 1" d="M683.993,386.469c1.729,2.564,3.909,4.128,4.856,3.48l1.193-.805a2,2,0,0,1,2.773.536h0l1.79,2.653a2.8,2.8,0,0,1-.754,3.881h0l-1.856,1.252c-2.308,1.557-7.588-2.227-11.783-8.451a28.746,28.746,0,0,1-4.154-8.794c-.62-2.551-.423-4.513.729-5.294l1.856-1.252a2.8,2.8,0,0,1,3.881.754h0l1.79,2.653a2,2,0,0,1-.535,2.772h0l-1.194.8C681.629,381.3,682.261,383.907,683.993,386.469Z" transform="translate(-675.712 -373.195)" fill="#fec51d"/>
    </g>
  </g>
</svg>
