<svg xmlns="http://www.w3.org/2000/svg" width="18" height="18" viewBox="0 0 18 18">
  <g id="Group_2395" data-name="Group 2395" transform="translate(-659 -354)">
    <rect id="Rectangle_3520" data-name="Rectangle 3520" width="18" height="18" transform="translate(659 354)" fill="none"/>
    <g id="Group_2394" data-name="Group 2394" transform="translate(-12 56.861)">
      <g id="Path_5565" data-name="Path 5565" transform="translate(674.163 300.925)" fill="#cbffdc">
        <path d="M 5.726227283477783 10.95235538482666 C 2.84447717666626 10.95235538482666 0.4999972879886627 8.607905387878418 0.4999972879886627 5.726175308227539 C 0.4999972879886627 2.844455242156982 2.84447717666626 0.500005304813385 5.726227283477783 0.500005304813385 C 8.607976913452148 0.500005304813385 10.95245742797852 2.844455242156982 10.95245742797852 5.726175308227539 C 10.95245742797852 8.607905387878418 8.607976913452148 10.95235538482666 5.726227283477783 10.95235538482666 Z" stroke="none"/>
        <path d="M 5.726227283477783 0.999995231628418 C 3.120177268981934 0.999995231628418 0.9999971389770508 3.120155334472656 0.9999971389770508 5.726175308227539 C 0.9999971389770508 8.332195281982422 3.120177268981934 10.45234489440918 5.726227283477783 10.45234489440918 C 8.332277297973633 10.45234489440918 10.45245742797852 8.332195281982422 10.45245742797852 5.726175308227539 C 10.45245742797852 3.120155334472656 8.332277297973633 0.999995231628418 5.726227283477783 0.999995231628418 M 5.726227283477783 -4.76837158203125e-06 C 8.888736724853516 -4.76837158203125e-06 11.45245742797852 2.563694953918457 11.45245742797852 5.726175308227539 C 11.45245742797852 8.888655662536621 8.888736724853516 11.45234489440918 5.726227283477783 11.45234489440918 C 2.563716888427734 11.45234489440918 -2.86102294921875e-06 8.888655662536621 -2.86102294921875e-06 5.726175308227539 C -2.86102294921875e-06 2.563694953918457 2.563716888427734 -4.76837158203125e-06 5.726227283477783 -4.76837158203125e-06 Z" stroke="none" fill="#00ae78"/>
      </g>
      <path id="Path_5425" data-name="Path 5425" d="M7.383,8.471a.537.537,0,0,1-.341-.122L5.56,7.132a.537.537,0,1,1,.681-.83l1.053.864L12.607.211a.537.537,0,0,1,.853.652L7.81,8.26a.537.537,0,0,1-.427.211Z" transform="translate(672.086 299.901)" fill="#00ae78"/>
    </g>
  </g>
</svg>
