<svg xmlns="http://www.w3.org/2000/svg" width="127.134" height="76.953" viewBox="0 0 127.134 76.953">
  <g id="Group_1495" data-name="Group 1495" transform="translate(-383.1 -648.565)">
    <g id="Group_1494" data-name="Group 1494" transform="translate(384.1 649.566)">
      <path id="Path_1381" data-name="Path 1381" d="M123.953,67.117H1.431A1.271,1.271,0,0,1,.125,65.883V1.359A1.271,1.271,0,0,1,1.431.125H123.953a1.271,1.271,0,0,1,1.306,1.234V65.883a1.271,1.271,0,0,1-1.306,1.234" transform="translate(-0.125 -0.125)" fill="rgba(195,49,53,0.13)" stroke="#c33135" stroke-width="2"/>
      <path id="Subtraction_3" data-name="Subtraction 3" d="M108.7,2.408H0A3.618,3.618,0,0,1,3.407,0H105.3a3.619,3.619,0,0,1,3.4,2.407Z" transform="translate(8.178 73.544)" fill="#c33135"/>
    </g>
    <path id="Path_1516" data-name="Path 1516" d="M.068-2.419,4.3-12.11H5.692L9.923-2.419H8.258L7.152-4.958H2.812L1.72-2.419ZM4.982-9.953,3.426-6.377H6.538Zm8.354,7.671a3.377,3.377,0,0,1-2.041-.6,2.039,2.039,0,0,1-.88-1.611h1.556q.164,1.01,1.406,1.01a1.529,1.529,0,0,0,.8-.184.6.6,0,0,0,.3-.539.708.708,0,0,0-.232-.56,1.893,1.893,0,0,0-.778-.341l-1.119-.3a2.023,2.023,0,0,1-1.747-2.061,1.653,1.653,0,0,1,.7-1.385,2.982,2.982,0,0,1,1.843-.526,2.843,2.843,0,0,1,1.815.56,2.043,2.043,0,0,1,.792,1.488h-1.5a1.042,1.042,0,0,0-1.119-.846,1.272,1.272,0,0,0-.723.184.584.584,0,0,0-.273.512q0,.587.915.819l1.147.3A2.045,2.045,0,0,1,16.011-4.3a1.721,1.721,0,0,1-.744,1.495,3.275,3.275,0,0,1-1.931.523Zm10.456.027a3.62,3.62,0,0,1-2.518-.867A2.891,2.891,0,0,1,20.257-5.2h1.6A1.444,1.444,0,0,0,22.5-4.125a2.23,2.23,0,0,0,1.276.382,1.927,1.927,0,0,0,1.167-.334,1.053,1.053,0,0,0,.457-.894q0-.983-1.338-1.42l-1.188-.4Q20.5-7.537,20.5-9.585a2.443,2.443,0,0,1,.853-1.966,3.333,3.333,0,0,1,2.232-.723,3.124,3.124,0,0,1,2.28.826A3.006,3.006,0,0,1,26.809-9.5h-1.6a1.542,1.542,0,0,0-.614-.962,1.783,1.783,0,0,0-1.037-.321,1.681,1.681,0,0,0-1.037.307,1,1,0,0,0-.423.812,1.149,1.149,0,0,0,.314.839,2.416,2.416,0,0,0,1,.539l1.2.382q2.4.778,2.4,2.88a2.517,2.517,0,0,1-.894,2A3.437,3.437,0,0,1,23.792-2.255Zm7.835-.027a3.364,3.364,0,0,1-2.512-1,3.488,3.488,0,0,1-.983-2.546A3.515,3.515,0,0,1,29.1-8.377a3.37,3.37,0,0,1,2.539-1,3.239,3.239,0,0,1,2.553,1.1,3.725,3.725,0,0,1,.86,2.819H29.621a1.824,1.824,0,0,0,.6,1.324,2.062,2.062,0,0,0,1.461.532,1.735,1.735,0,0,0,1.72-.956h1.57a3.153,3.153,0,0,1-1.2,1.638,3.559,3.559,0,0,1-2.145.638ZM31.6-8.124a1.971,1.971,0,0,0-1.263.416,1.915,1.915,0,0,0-.676,1.181h3.781a1.975,1.975,0,0,0-.669-1.194,1.828,1.828,0,0,0-1.173-.4Zm8.013,5.842a3.364,3.364,0,0,1-2.512-1,3.488,3.488,0,0,1-.983-2.546,3.515,3.515,0,0,1,.969-2.546,3.37,3.37,0,0,1,2.539-1,3.239,3.239,0,0,1,2.553,1.1,3.725,3.725,0,0,1,.86,2.819H37.606a1.824,1.824,0,0,0,.6,1.324,2.062,2.062,0,0,0,1.461.532,1.735,1.735,0,0,0,1.72-.956h1.57a3.153,3.153,0,0,1-1.2,1.638,3.559,3.559,0,0,1-2.144.635Zm-.027-5.842a1.971,1.971,0,0,0-1.263.416,1.915,1.915,0,0,0-.676,1.181h3.781a1.975,1.975,0,0,0-.669-1.194,1.828,1.828,0,0,0-1.174-.4Zm5,5.706V-9.244h1.5v.928A2.237,2.237,0,0,1,48.158-9.38a2.443,2.443,0,0,1,1.9.778,2.96,2.96,0,0,1,.71,2.075v4.109h-1.5V-6.282a1.933,1.933,0,0,0-.382-1.276,1.281,1.281,0,0,0-1.037-.457,1.579,1.579,0,0,0-1.269.587,2.5,2.5,0,0,0-.491,1.652v3.358ZM60.47-3.8a3.224,3.224,0,0,0,2.4-1.01,3.392,3.392,0,0,0,.983-2.457,3.392,3.392,0,0,0-.983-2.457,3.224,3.224,0,0,0-2.4-1.01,3.239,3.239,0,0,0-2.416,1.01,3.392,3.392,0,0,0-.983,2.457,3.392,3.392,0,0,0,.983,2.457A3.239,3.239,0,0,0,60.47-3.8Zm3.549.082A4.831,4.831,0,0,1,60.47-2.255a4.843,4.843,0,0,1-3.549-1.454A4.825,4.825,0,0,1,55.46-7.264a4.825,4.825,0,0,1,1.461-3.556,4.843,4.843,0,0,1,3.549-1.454,4.831,4.831,0,0,1,3.549,1.461A4.831,4.831,0,0,1,65.48-7.264a4.831,4.831,0,0,1-1.461,3.549Zm2.989,1.3V-9.244h1.5v.928A2.238,2.238,0,0,1,70.585-9.38a2.443,2.443,0,0,1,1.9.778,2.96,2.96,0,0,1,.71,2.075v4.109h-1.5V-6.282a1.933,1.933,0,0,0-.382-1.276,1.281,1.281,0,0,0-1.037-.457A1.579,1.579,0,0,0,69-7.428a2.5,2.5,0,0,0-.491,1.652v3.358Z" transform="translate(409.718 671.256)" fill="#fff"/>
    <path id="Path_1515" data-name="Path 1515" d="M8.811-7.135V-30.559H1.071V-36.21h21.54v5.651H14.789V-7.135Zm26.782,0-12-29.075h6.429l8.231,20.189L46.362-36.21h6.552L40.875-7.135Z" transform="translate(419.959 713.711)" fill="#fff"/>
  </g>
</svg>
