<svg xmlns="http://www.w3.org/2000/svg" width="17.547" height="18.199" viewBox="0 0 17.547 18.199">
  <g id="Group_2762" data-name="Group 2762" transform="translate(-131.248 -285.901)">
    <path id="Path_6180" data-name="Path 6180" d="M8.787,18.2a8.839,8.839,0,0,1-2-.23A8.77,8.77,0,0,1,4.13,1.985a8.8,8.8,0,0,1,7.856-.717.75.75,0,0,1-.55,1.4,7.3,7.3,0,0,0-6.512.595A7.27,7.27,0,1,0,15.131,5.9a.75.75,0,1,1,1.312-.728A8.775,8.775,0,0,1,8.787,18.2Z" transform="translate(131.25 285.901)" fill="#fec53d"/>
    <path id="Path_6179" data-name="Path 6179" d="M8.185,11.835a.75.75,0,0,1-.476-.17l-2.071-1.7A.75.75,0,1,1,6.59,8.805l1.471,1.207L15.483.295a.75.75,0,1,1,1.192.911L8.781,11.54a.75.75,0,0,1-.6.295Z" transform="translate(131.25 285.901)" fill="#fec53d"/>
  </g>
</svg>
