<svg xmlns="http://www.w3.org/2000/svg" width="31.936" height="31.936" viewBox="0 0 31.936 31.936">
  <g id="Group_2456" data-name="Group 2456" transform="translate(-485 -73)">
    <rect id="Rectangle_3240" data-name="Rectangle 3240" width="31.936" height="31.936" transform="translate(485 73)" fill="none"/>
    <g id="Group_2341" data-name="Group 2341" transform="translate(-314.617 -1136.459)">
      <g id="Group_2329" data-name="Group 2329" transform="translate(807.659 1231.198)">
        <g id="Group_2328" data-name="Group 2328" transform="translate(0 0)">
          <path id="Union_44" data-name="Union 44" d="M5.916,7.322.3,4.2a.5.5,0,0,1,0-.875L5.916.209a.5.5,0,0,1,.743.437V2.277a18.5,18.5,0,0,0,4.377-.241A27.088,27.088,0,0,0,16.745,0a34.223,34.223,0,0,1-5.322,4.215A11.485,11.485,0,0,1,6.659,5.661V6.886a.5.5,0,0,1-.743.437Z" fill="#e0ad16"/>
        </g>
        <g id="Group_2166" data-name="Group 2166" transform="translate(0 0)">
          <path id="Union_44-2" data-name="Union 44" d="M5.916,7.322.3,4.2a.5.5,0,0,1,0-.875L5.916.209a.5.5,0,0,1,.743.437V2.277a18.5,18.5,0,0,0,4.377-.241A27.088,27.088,0,0,0,16.745,0a34.223,34.223,0,0,1-5.322,4.215A11.485,11.485,0,0,1,6.659,5.661V6.886a.5.5,0,0,1-.743.437Z" fill="none"/>
        </g>
      </g>
      <path id="Union_45" data-name="Union 45" d="M5.321,3.2a11.488,11.488,0,0,1,4.765-1.446V.529a.5.5,0,0,1,.742-.437l5.616,3.12a.5.5,0,0,1,0,.874l-5.616,3.12a.5.5,0,0,1-.742-.437V5.138a18.514,18.514,0,0,0-4.377.24A27.067,27.067,0,0,0,0,7.415,34.233,34.233,0,0,1,5.321,3.2Z" transform="translate(807.527 1212.608)" fill="#e0ad16"/>
      <path id="Path_5318" data-name="Path 5318" d="M.828-10.1v-.414h.524a3.066,3.066,0,0,1-.177-.908A1.525,1.525,0,0,1,1.651-12.5,1.576,1.576,0,0,1,2.829-13a1.582,1.582,0,0,1,1.2.506,1.741,1.741,0,0,1,.495,1.2H3.509a.7.7,0,0,0-.2-.5A.639.639,0,0,0,2.829-12a.629.629,0,0,0-.465.177.649.649,0,0,0-.177.48,2.543,2.543,0,0,0,.207.827H3.657v.414H2.534a2.174,2.174,0,0,1,.126.731,1.408,1.408,0,0,1-.2.709H4.521v1H.828v-1h.657a1.448,1.448,0,0,0,.17-.679A2.917,2.917,0,0,0,1.5-10.1Zm7.88,1.44v1H5.134v-.347a1.9,1.9,0,0,1,.044-.414,2.121,2.121,0,0,1,.107-.351,1.394,1.394,0,0,1,.188-.314q.126-.162.214-.266a2.19,2.19,0,0,1,.27-.251q.181-.148.277-.218t.3-.214q.207-.144.288-.2.827-.576.827-1.078a.675.675,0,0,0-.185-.487A.674.674,0,0,0,6.958-12a.805.805,0,0,0-.572.21.67.67,0,0,0-.218.528H5.149a1.631,1.631,0,0,1,.521-1.252A1.851,1.851,0,0,1,6.98-13a1.752,1.752,0,0,1,1.193.428,1.5,1.5,0,0,1,.491,1.189,1.816,1.816,0,0,1-.27,1.03,3.4,3.4,0,0,1-.838.816Q7.5-9.5,7.29-9.351t-.325.225a2.4,2.4,0,0,0-.247.214.723.723,0,0,0-.181.251ZM11.4-7.582a1.846,1.846,0,0,1-1.411-.583,2.1,2.1,0,0,1-.547-1.492v-1.27a2.085,2.085,0,0,1,.547-1.484A1.846,1.846,0,0,1,11.4-13a1.837,1.837,0,0,1,1.4.583,2.085,2.085,0,0,1,.547,1.484v1.27A2.1,2.1,0,0,1,12.8-8.166,1.837,1.837,0,0,1,11.4-7.582ZM10.71-8.867a.878.878,0,0,0,.687.288.867.867,0,0,0,.683-.288,1.151,1.151,0,0,0,.255-.79v-1.27a1.137,1.137,0,0,0-.255-.787A.872.872,0,0,0,11.4-12a.883.883,0,0,0-.687.284,1.126,1.126,0,0,0-.258.787v1.27A1.14,1.14,0,0,0,10.71-8.867Zm5.347,1.285a1.846,1.846,0,0,1-1.411-.583A2.1,2.1,0,0,1,14.1-9.658v-1.27a2.085,2.085,0,0,1,.547-1.484A1.846,1.846,0,0,1,16.057-13a1.837,1.837,0,0,1,1.4.583,2.085,2.085,0,0,1,.547,1.484v1.27a2.1,2.1,0,0,1-.547,1.492A1.837,1.837,0,0,1,16.057-7.582ZM15.37-8.867a.878.878,0,0,0,.687.288.867.867,0,0,0,.683-.288,1.151,1.151,0,0,0,.255-.79v-1.27a1.137,1.137,0,0,0-.255-.787A.872.872,0,0,0,16.057-12a.883.883,0,0,0-.687.284,1.126,1.126,0,0,0-.258.787v1.27A1.14,1.14,0,0,0,15.37-8.867Z" transform="translate(806.548 1235.565)" fill="#e0ad16"/>
    </g>
  </g>
</svg>
