<svg id="Group_2157" data-name="Group 2157" xmlns="http://www.w3.org/2000/svg" width="31.936" height="31.936" viewBox="0 0 31.936 31.936">
  <rect id="Rectangle_3240" data-name="Rectangle 3240" width="31.936" height="31.936" fill="none"/>
  <g id="Group_1741" data-name="Group 1741" transform="translate(3.319 5.319)">
    <g id="Group_1737" data-name="Group 1737">
      <path id="Path_36" data-name="Path 36" d="M845.25,343.534a7.883,7.883,0,0,1-.091.826,10.594,10.594,0,0,1-.708,2.43c-.12.287-.254.578-.4.873-.134.27-.285.547-.448.826a19.934,19.934,0,0,1-1.73,2.49q-.331.412-.7.83c-.308.351-.636.708-.985,1.067-.246.254-.5.508-.768.766a44.335,44.335,0,0,1-4.238,3.574q-.4.3-.826.609-.793.57-1.651,1.152-.861-.582-1.651-1.152-.424-.307-.826-.609a44.517,44.517,0,0,1-4.151-3.491q-.409-.39-.783-.774c-.351-.359-.681-.712-.987-1.063-.245-.273-.475-.545-.694-.811a19.941,19.941,0,0,1-1.808-2.587c-.165-.279-.314-.555-.448-.826-.151-.3-.285-.586-.4-.873a10.6,10.6,0,0,1-.708-2.43,7.851,7.851,0,0,1-.091-.826,6.811,6.811,0,0,1,.828-3.786,6.408,6.408,0,0,1,.6-.892,6.77,6.77,0,0,1,1.028-1.032,7.4,7.4,0,0,1,.941-.65,7.623,7.623,0,0,1,6.676-.5,6.482,6.482,0,0,1,.826.421,6.411,6.411,0,0,1,1.651,1.427,6.411,6.411,0,0,1,1.651-1.427,6.5,6.5,0,0,1,.826-.421,7.6,7.6,0,0,1,6.406.349,7.331,7.331,0,0,1,.958.6,6.935,6.935,0,0,1,1.082.991,6.648,6.648,0,0,1,.652.877A6.771,6.771,0,0,1,845.25,343.534Z" transform="translate(-820.049 -336.129)" fill="#012169"/>
      <path id="Path_39" data-name="Path 39" d="M857.627,342.949l-5.167,4.038-1.055.826-2.438,1.905-.437.343-.448.349-.378.3-.525.411-.277.215-.78.611-.095.074-1.627,1.272-.826.646-4.152,3.243q-.409-.39-.782-.774c-.351-.359-.681-.712-.986-1.063-.246-.273-.475-.545-.694-.811l3.311-2.587,1.057-.826,1.72-1.344.526-.413.349-.272.477-.372.7-.549.452-.353.431-.339.624-.487,1.094-.855.826-.646,6.406-5.006a7.311,7.311,0,0,1,.958.6,6.932,6.932,0,0,1,1.082.991A6.662,6.662,0,0,1,857.627,342.949Z" transform="translate(-833.403 -339.582)" fill="#fff"/>
      <path id="Path_39_-_Outline" data-name="Path 39 - Outline" d="M854.344,339.887l.052.028a7.445,7.445,0,0,1,.97.608,7.029,7.029,0,0,1,1.1,1,6.777,6.777,0,0,1,.662.889l.044.07-5.232,4.089-1.055.826-2.438,1.906-.438.343-.448.349-.378.3-.524.411-.277.215-.875.685-1.627,1.272-.826.646-4.214,3.292-.057-.055c-.262-.25-.526-.511-.785-.776-.379-.388-.7-.737-.99-1.066-.212-.235-.426-.486-.7-.814l-.06-.073,6.162-4.814.527-.413.349-.273.477-.371.7-.549.452-.353.431-.338,1.718-1.342.826-.646Zm2.58,2.557a6.61,6.61,0,0,0-.6-.8,6.85,6.85,0,0,0-1.068-.978,7.237,7.237,0,0,0-.894-.565L848,345.075l-.826.646-1.718,1.342-.431.338-.452.353-.7.549-.477.372-.349.273-.526.413-2.777,2.17-3.237,2.529c.24.291.437.52.631.735h0c.284.327.606.673.983,1.059.239.245.481.486.723.717l4.089-3.194.826-.646,1.722-1.346.78-.611.277-.215.524-.411.378-.3.448-.349.437-.343,2.438-1.906,1.055-.826Z" transform="translate(-832.822 -339.098)" fill="rgba(0,0,0,0)"/>
      <path id="Path_37" data-name="Path 37" d="M845.1,354.995q-.331.412-.7.83c-.307.351-.636.708-.985,1.067-.246.254-.5.508-.768.766l-4.238-3.194-.826-.623-1.676-1.261-.1-.074-.807-.607-.289-.219-.433-.326L833.81,351l-.353-.266-.526-.4-2.6-1.959-1.1-.826-5.025-3.786a6.41,6.41,0,0,1,.6-.892,6.758,6.758,0,0,1,1.028-1.032,7.409,7.409,0,0,1,.941-.65l6.676,5.031.826.621.939.708.646.487.45.339.431.324.836.63.359.27.466.353.438.328,1.854,1.4,1.1.826Z" transform="translate(-823.285 -340.145)" fill="#fff"/>
      <path id="Path_37_-_Outline" data-name="Path 37 - Outline" d="M842.128,357.29l-4.3-3.241-.826-.624-1.676-1.261-.1-.075-.807-.606-.289-.219-.906-.681-.353-.267-.526-.4-3.7-2.785-5.089-3.834.039-.07a6.532,6.532,0,0,1,.609-.9,6.842,6.842,0,0,1,1.042-1.046,7.492,7.492,0,0,1,.953-.658l.053-.031.049.037,6.676,5.031.826.621,1.585,1.2.881.663,1.2.9.467.353.437.328,1.854,1.4,4.477,3.373-.059.074c-.228.283-.465.563-.7.833-.319.364-.651.724-.987,1.07-.227.234-.479.485-.77.768ZM823.8,343.25l6.057,4.564,3.479,2.622.906.681.289.219.807.607.1.075,1.676,1.261.826.624,4.175,3.146c.266-.259.5-.491.71-.709.334-.344.664-.7.981-1.064.218-.245.432-.5.64-.753l-4.325-3.258-1.854-1.4-.437-.328-.467-.353-1.2-.9-.882-.663-1.585-1.2-.826-.621-6.627-4.994a7.323,7.323,0,0,0-.877.611,6.676,6.676,0,0,0-1.014,1.018A6.347,6.347,0,0,0,823.8,343.25Z" transform="translate(-822.756 -339.656)" fill="rgba(0,0,0,0)"/>
      <path id="Path_40" data-name="Path 40" d="M873.954,338.79v20.537q-.4.3-.826.609-.793.57-1.652,1.152-.861-.582-1.651-1.152-.424-.307-.826-.609V338.79a6.475,6.475,0,0,1,.826.421,6.406,6.406,0,0,1,1.651,1.427,6.483,6.483,0,0,1,2.477-1.848Z" transform="translate(-858.829 -338.241)" fill="#fff"/>
      <path id="Path_40_-_Outline" data-name="Path 40 - Outline" d="M868.5,338.035l.128.054a6.616,6.616,0,0,1,.837.427,6.5,6.5,0,0,1,1.6,1.362,6.493,6.493,0,0,1,1.6-1.362,6.593,6.593,0,0,1,.837-.427l.128-.054v20.721l-.037.028c-.264.2-.535.4-.827.61-.55.4-1.106.783-1.654,1.154l-.051.035-.051-.035c-.548-.37-1.1-.759-1.654-1.154-.294-.212-.564-.412-.828-.61l-.037-.028Zm4.955,20.63V338.314a6.383,6.383,0,0,0-2.315,1.766l-.071.086L871,340.08a6.327,6.327,0,0,0-1.628-1.406,6.424,6.424,0,0,0-.687-.359v20.351c.25.189.509.379.787.58.531.381,1.068.756,1.6,1.115.529-.359,1.067-.734,1.6-1.116C872.945,359.045,873.2,358.854,873.455,358.665Z" transform="translate(-858.42 -337.625)" fill="rgba(0,0,0,0)"/>
      <path id="Path_41" data-name="Path 41" d="M846.711,358.324c-.307.351-.636.708-.984,1.067l-5.006-3.772L839.9,355l-.008-.006-.8-.6-.285-.215-.619-.467-1.2-.9-.4-.3-.477-.359-.349-.262-1.342-1.012-1.1-.826-6.208-4.678a6.756,6.756,0,0,1,1.028-1.032l7.581,5.71.037.029.826.621.233.175.469.353.879.663,1.2.9.526.4.378.285.448.339.487.368,1.1.826Z" transform="translate(-825.594 -342.645)" fill="#c8102e"/>
      <path id="Path_42" data-name="Path 42" d="M859.641,344.381l-6.29,4.915-1.057.826-1.1.859-.466.365-.359.281-.526.411-1.179.921-.6.467-.279.219-.723.563-.054.043-.772.6-4.934,3.858c-.351-.359-.681-.712-.987-1.063l4.346-3.4,1.057-.826.518-.4.353-.277.473-.369.4-.316,1.179-.921.886-.691.415-.324.421-.33.636-.5.19-.149,7.364-5.758A6.925,6.925,0,0,1,859.641,344.381Z" transform="translate(-836.069 -341.891)" fill="#c8102e"/>
      <path id="Path_38" data-name="Path 38" d="M845.25,343.534a7.883,7.883,0,0,1-.091.826,10.594,10.594,0,0,1-.708,2.43c-.12.287-.254.578-.4.873-.134.27-.285.547-.448.826a19.934,19.934,0,0,1-1.73,2.49q-.331.412-.7.83c-.308.351-.636.708-.985,1.067-.246.254-.5.508-.768.766a44.335,44.335,0,0,1-4.238,3.574q-.4.3-.826.609-.793.57-1.651,1.152-.861-.582-1.651-1.152-.424-.307-.826-.609a44.517,44.517,0,0,1-4.151-3.491q-.409-.39-.783-.774c-.351-.359-.681-.712-.987-1.063-.245-.273-.475-.545-.694-.811a19.941,19.941,0,0,1-1.808-2.587c-.165-.279-.314-.555-.448-.826-.151-.3-.285-.586-.4-.873a10.6,10.6,0,0,1-.708-2.43,7.851,7.851,0,0,1-.091-.826,6.811,6.811,0,0,1,.828-3.786,6.408,6.408,0,0,1,.6-.892,6.77,6.77,0,0,1,1.028-1.032,7.4,7.4,0,0,1,.941-.65,7.623,7.623,0,0,1,6.676-.5,6.482,6.482,0,0,1,.826.421,6.411,6.411,0,0,1,1.651,1.427,6.411,6.411,0,0,1,1.651-1.427,6.5,6.5,0,0,1,.826-.421,7.6,7.6,0,0,1,6.406.349,7.331,7.331,0,0,1,.958.6,6.935,6.935,0,0,1,1.082.991,6.648,6.648,0,0,1,.652.877A6.771,6.771,0,0,1,845.25,343.534Z" transform="translate(-820.049 -336.129)" fill="none"/>
      <path id="Path_43" data-name="Path 43" d="M845.3,372a7.76,7.76,0,0,1-.091.826,10.6,10.6,0,0,1-.708,2.43c-.12.287-.254.578-.4.873-.134.27-.285.547-.448.826h-21.8c-.165-.279-.314-.555-.448-.826-.151-.3-.285-.586-.4-.873a10.6,10.6,0,0,1-.708-2.43A7.76,7.76,0,0,1,820.2,372Z" transform="translate(-820.103 -364.595)" fill="#fff"/>
      <path id="Path_43_-_Outline" data-name="Path 43 - Outline" d="M819.672,371.5h25.3l0,.1a8.063,8.063,0,0,1-.092.836,10.762,10.762,0,0,1-.714,2.451c-.123.295-.26.59-.407.879-.131.265-.283.544-.451.831l-.027.046H821.368l-.027-.045c-.157-.265-.309-.545-.451-.831s-.284-.584-.407-.879a10.733,10.733,0,0,1-.714-2.451,7.954,7.954,0,0,1-.092-.835Zm25.1.184H819.867c.016.23.044.472.084.719a10.547,10.547,0,0,0,.7,2.409c.121.291.257.583.4.867h0c.132.266.273.527.418.775h21.7c.155-.267.3-.528.418-.775h0c.145-.285.28-.576.4-.867a10.561,10.561,0,0,0,.7-2.409C844.731,372.156,844.759,371.915,844.775,371.684Z" transform="translate(-819.672 -364.187)" fill="rgba(0,0,0,0)"/>
      <path id="Path_44" data-name="Path 44" d="M845.562,376a10.6,10.6,0,0,1-.708,2.43q-.179.43-.4.873h-22.7q-.226-.443-.4-.873a10.6,10.6,0,0,1-.708-2.43Z" transform="translate(-820.452 -367.769)" fill="#c8102e"/>
      <path id="Path_45" data-name="Path 45" d="M876.3,340.83v20.725q-.793.57-1.651,1.152-.861-.582-1.651-1.152V340.83a6.406,6.406,0,0,1,1.651,1.427A6.411,6.411,0,0,1,876.3,340.83Z" transform="translate(-862.003 -339.859)" fill="#c8102e"/>
    </g>
  </g>
  <path id="Path_5381" data-name="Path 5381" d="M845.25,343.534a7.883,7.883,0,0,1-.091.826,10.594,10.594,0,0,1-.708,2.43c-.12.287-.254.578-.4.873-.134.27-.285.547-.448.826a19.934,19.934,0,0,1-1.73,2.49q-.331.412-.7.83c-.308.351-.636.708-.985,1.067-.246.254-.5.508-.768.766a44.335,44.335,0,0,1-4.238,3.574q-.4.3-.826.609-.793.57-1.651,1.152-.861-.582-1.651-1.152-.424-.307-.826-.609a44.517,44.517,0,0,1-4.151-3.491q-.409-.39-.783-.774c-.351-.359-.681-.712-.987-1.063-.245-.273-.475-.545-.694-.811a19.941,19.941,0,0,1-1.808-2.587c-.165-.279-.314-.555-.448-.826-.151-.3-.285-.586-.4-.873a10.6,10.6,0,0,1-.708-2.43,7.851,7.851,0,0,1-.091-.826,6.811,6.811,0,0,1,.828-3.786,6.408,6.408,0,0,1,.6-.892,6.77,6.77,0,0,1,1.028-1.032,7.4,7.4,0,0,1,.941-.65,7.623,7.623,0,0,1,6.676-.5,6.482,6.482,0,0,1,.826.421,6.411,6.411,0,0,1,1.651,1.427,6.411,6.411,0,0,1,1.651-1.427,6.5,6.5,0,0,1,.826-.421,7.6,7.6,0,0,1,6.406.349,7.331,7.331,0,0,1,.958.6,6.935,6.935,0,0,1,1.082.991,6.648,6.648,0,0,1,.652.877A6.771,6.771,0,0,1,845.25,343.534Z" transform="translate(-816.73 -330.81)" fill="none" stroke="#012169" stroke-width="1"/>
</svg>
