<svg xmlns="http://www.w3.org/2000/svg" width="31.936" height="31.936" viewBox="0 0 31.936 31.936">
  <g id="Group_2457" data-name="Group 2457" transform="translate(-656 -73)">
    <g id="Group_2186" data-name="Group 2186" transform="translate(628.109 20.85)">
      <path id="Path_5332" data-name="Path 5332" d="M41.4,11.872a1.568,1.568,0,0,1,.25.848v2.741a.571.571,0,0,1-.569.573H34.89a.571.571,0,0,1-.569-.573V7.123a.571.571,0,0,1,.569-.573H37.8a.7.7,0,0,1,.593.317Z" transform="translate(17.164 58.296)" fill="#f0dbe7"/>
      <path id="Path_5332_-_Outline" data-name="Path 5332 - Outline" d="M40.917,16.212H34.729a.911.911,0,0,1-.908-.912V6.962a.911.911,0,0,1,.908-.912h2.91a1.035,1.035,0,0,1,.879.474l.005.008,3,5a1.906,1.906,0,0,1,.3,1.027V15.3A.911.911,0,0,1,40.917,16.212ZM34.729,6.728a.232.232,0,0,0-.23.234V15.3a.232.232,0,0,0,.23.234h6.188a.232.232,0,0,0,.23-.234V12.559a1.229,1.229,0,0,0-.2-.665l-.005-.009-3-5a.365.365,0,0,0-.305-.158Z" transform="translate(17.325 58.457)" fill="#713e5a"/>
      <path id="Path_5330" data-name="Path 5330" d="M8.47,2.814V1.236A.986.986,0,0,1,9.456.25H25.007a.986.986,0,0,1,.986.986V13.018a.986.986,0,0,1-.986.986H9.456a.986.986,0,0,1-.986-.986V10.3" transform="translate(25.492 60.325)" fill="#f0dbe7"/>
      <path id="Path_5331" data-name="Path 5331" d="M8.47,2.523v-1.4A.922.922,0,0,1,9.434.25H24.627a.922.922,0,0,1,.964.875V11.572a.922.922,0,0,1-.964.875H9.434a.922.922,0,0,1-.964-.875V9.163" transform="translate(23.49 62.561)" fill="#fff"/>
      <path id="Path_5329" data-name="Path 5329" d="M5.788,4.932a1.6,1.6,0,0,1,.2.786V8.257a.5.5,0,0,1-.465.531H.466A.5.5,0,0,1,0,8.257V.531A.5.5,0,0,1,.466,0h2.38a.56.56,0,0,1,.485.294Z" transform="matrix(1, -0.017, 0.017, 1, 51.276, 66.214)" fill="#fff"/>
      <path id="Path_5325" data-name="Path 5325" d="M24.846,14.182H9.3A1.327,1.327,0,0,1,7.97,12.857V10.141h.678v2.716A.648.648,0,0,0,9.3,13.5H24.846a.648.648,0,0,0,.647-.647V1.075a.648.648,0,0,0-.647-.647H9.3a.648.648,0,0,0-.647.647V2.653H7.97V1.075A1.327,1.327,0,0,1,9.3-.25H24.846a1.327,1.327,0,0,1,1.325,1.325V12.857A1.327,1.327,0,0,1,24.846,14.182Z" transform="translate(25.653 60.486)" fill="#713e5a"/>
      <path id="Line_9" data-name="Line 9" d="M-.161,3.724A.339.339,0,0,1-.5,3.385V-.161A.339.339,0,0,1-.161-.5a.339.339,0,0,1,.339.339V3.385A.339.339,0,0,1-.161,3.724Z" transform="translate(34.123 65.007)" fill="#713e5a"/>
      <path id="Path_5328" data-name="Path 5328" d="M40.917,16.212H34.729a.911.911,0,0,1-.908-.912V6.962a.911.911,0,0,1,.908-.912h2.91a1.035,1.035,0,0,1,.879.474l.005.008,3,5a1.906,1.906,0,0,1,.3,1.027V15.3A.911.911,0,0,1,40.917,16.212ZM34.729,6.728a.232.232,0,0,0-.23.234V15.3a.232.232,0,0,0,.23.234h6.188a.232.232,0,0,0,.23-.234V12.559a1.229,1.229,0,0,0-.2-.665l-.005-.009-3-5a.365.365,0,0,0-.305-.158Z" transform="translate(17.325 58.457)" fill="#713e5a"/>
      <path id="Path_5327" data-name="Path 5327" d="M10.509,4.21H4.145a.339.339,0,0,1,0-.678h6.364a.339.339,0,0,1,0,.678Z" transform="translate(26.995 59.268)" fill="#713e5a"/>
      <path id="Line_10" data-name="Line 10" d="M6.047.178H-.161A.339.339,0,0,1-.5-.161.339.339,0,0,1-.161-.5H6.047a.339.339,0,0,1,.339.339A.339.339,0,0,1,6.047.178Z" transform="translate(29.937 70.788)" fill="#713e5a"/>
      <path id="Line_11" data-name="Line 11" d="M3.292.178H-.161A.339.339,0,0,1-.5-.161.339.339,0,0,1-.161-.5H3.292a.339.339,0,0,1,.339.339A.339.339,0,0,1,3.292.178Z" transform="translate(28.757 65.955)" fill="#713e5a"/>
      <path id="Line_12" data-name="Line 12" d="M7.52.178H-.161A.339.339,0,0,1-.5-.161.339.339,0,0,1-.161-.5H7.52a.339.339,0,0,1,.339.339A.339.339,0,0,1,7.52.178Z" transform="translate(32.425 68.553)" fill="#713e5a"/>
      <g id="Group_2172" data-name="Group 2172" transform="translate(38.156 71.213)">
        <circle id="Ellipse_608" data-name="Ellipse 608" cx="2.273" cy="2.273" r="2.273" transform="translate(0.448 0.844)" fill="#f0dbe7"/>
        <path id="Path_5404" data-name="Path 5404" d="M1.61,0C2.3,0,3.128,1.089,3.128,2.26A1.988,1.988,0,0,1,1.543,4.318C.849,4.318,0,3.391,0,2.22S.916,0,1.61,0Z" transform="matrix(0.914, 0.407, -0.407, 0.914, 1.756, 0)" fill="#fff"/>
        <path id="Ellipse_609" data-name="Ellipse 609" d="M2.112-.5A2.612,2.612,0,1,1-.5,2.112,2.615,2.615,0,0,1,2.112-.5Zm0,4.546A1.934,1.934,0,1,0,.178,2.112,1.936,1.936,0,0,0,2.112,4.046Z" transform="translate(0.609 1.005)" fill="#713e5a"/>
      </g>
      <g id="Group_2197" data-name="Group 2197" transform="translate(52.427 71.213)">
        <circle id="Ellipse_608-2" data-name="Ellipse 608" cx="2.273" cy="2.273" r="2.273" transform="translate(0.448 0.844)" fill="#f0dbe7"/>
        <path id="Path_5404-2" data-name="Path 5404" d="M1.61,0C2.3,0,3.128,1.089,3.128,2.26A1.988,1.988,0,0,1,1.543,4.318C.849,4.318,0,3.391,0,2.22S.916,0,1.61,0Z" transform="matrix(0.914, 0.407, -0.407, 0.914, 1.756, 0)" fill="#fff"/>
        <path id="Ellipse_609-2" data-name="Ellipse 609" d="M2.112-.5A2.612,2.612,0,1,1-.5,2.112,2.615,2.615,0,0,1,2.112-.5Zm0,4.546A1.934,1.934,0,1,0,.178,2.112,1.936,1.936,0,0,0,2.112,4.046Z" transform="translate(0.609 1.005)" fill="#713e5a"/>
      </g>
    </g>
    <rect id="Rectangle_3240" data-name="Rectangle 3240" width="31.936" height="31.936" transform="translate(656 73)" fill="none"/>
  </g>
</svg>
