<svg xmlns="http://www.w3.org/2000/svg" width="31.936" height="31.936" viewBox="0 0 31.936 31.936">
  <g id="Group_2460" data-name="Group 2460" transform="translate(-861 -73)">
    <rect id="Rectangle_3240" data-name="Rectangle 3240" width="31.936" height="31.936" transform="translate(861 73)" fill="none"/>
    <g id="Group_2459" data-name="Group 2459" transform="translate(599.02 39.822)">
      <g id="Group_2183" data-name="Group 2183" transform="translate(270.786 46.416)">
        <path id="Path_47" data-name="Path 47" d="M0,0H5.5V12.879L2.792,10.174,0,12.879Z" transform="translate(3.915 0.447) rotate(15.009)" fill="#ffd3d4"/>
        <path id="Path_47-2" data-name="Path 47" d="M0,0H6.227V14.123L3.153,11.05,0,14.1ZM5.5.729H.729V12.383l2.432-2.356L5.5,12.364Z" transform="translate(3.657 0) rotate(15.009)" fill="#a82024"/>
      </g>
      <g id="Group_2184" data-name="Group 2184" transform="translate(270.786 46.416)">
        <path id="Path_47-3" data-name="Path 47" d="M0,0H5.5V12.879L2.792,10.174,0,12.879Z" transform="translate(3.915 0.447) rotate(15.009)" fill="#ffd3d4"/>
        <path id="Path_47-4" data-name="Path 47" d="M0,0H6.227V14.123L3.153,11.05,0,14.1ZM5.5.729H.729V12.383l2.432-2.356L5.5,12.364Z" transform="translate(3.657 0) rotate(15.009)" fill="#a82024"/>
      </g>
      <g id="Group_2182" data-name="Group 2182" transform="translate(276.655 46.416)">
        <path id="Path_47-5" data-name="Path 47" d="M0,12.877H5.5V0L2.792,2.7,0,0Z" transform="translate(9.092 12.886) rotate(164.991)" fill="#ffd3d4"/>
        <path id="Path_47-6" data-name="Path 47" d="M.048,10.643H4.6L4.257,0,1.893,2.135,0,.179Z" transform="translate(7.648 10.96) rotate(164.991)" fill="#fff"/>
        <path id="Path_47-7" data-name="Path 47" d="M6.227,14.121H0V.019L3.152,3.073,6.227,0Zm-5.5-.729H5.5V1.76L3.16,4.1.729,1.741Z" transform="translate(9.672 13.641) rotate(164.991)" fill="#a82024"/>
      </g>
      <g id="Group_2185" data-name="Group 2185" transform="translate(276.655 46.416)">
        <path id="Path_47-8" data-name="Path 47" d="M0,12.877H5.5V0L2.792,2.7,0,0Z" transform="translate(9.092 12.886) rotate(164.991)" fill="#ffd3d4"/>
        <path id="Path_47-9" data-name="Path 47" d="M.048,10.643H4.6L4.257,0,1.893,2.135,0,.179Z" transform="translate(7.648 10.96) rotate(164.991)" fill="#fff"/>
        <path id="Path_47-10" data-name="Path 47" d="M6.227,14.121H0V.019L3.152,3.073,6.227,0Zm-5.5-.729H5.5V1.76L3.16,4.1.729,1.741Z" transform="translate(9.672 13.641) rotate(164.991)" fill="#a82024"/>
      </g>
      <path id="Polygon_4" data-name="Polygon 4" d="M12.069,2.537a1.779,1.779,0,0,1,1.357-.123,1.7,1.7,0,0,1,1.023.865l.25.51a1.71,1.71,0,0,0,1.29.925l.551.082a1.728,1.728,0,0,1,1.125.659,1.6,1.6,0,0,1,.306,1.231l-.124.723a1.607,1.607,0,0,0,.464,1.411l.518.512a1.6,1.6,0,0,1,0,2.3l-.518.512a1.607,1.607,0,0,0-.464,1.411l.122.724a1.6,1.6,0,0,1-.306,1.231,1.728,1.728,0,0,1-1.124.66l-.55.082a1.71,1.71,0,0,0-1.289.925l-.25.51a1.7,1.7,0,0,1-1.023.865,1.779,1.779,0,0,1-1.357-.123l-.4-.212a1.778,1.778,0,0,0-1.654,0l-.4.212a1.779,1.779,0,0,1-1.357.123,1.7,1.7,0,0,1-1.023-.865l-.25-.51a1.71,1.71,0,0,0-1.293-.925l-.551-.082a1.728,1.728,0,0,1-1.125-.659,1.6,1.6,0,0,1-.306-1.231l.124-.723a1.607,1.607,0,0,0-.464-1.411l-.519-.512a1.6,1.6,0,0,1,0-2.3l.518-.512A1.607,1.607,0,0,0,3.835,7.41l-.122-.724a1.6,1.6,0,0,1,.306-1.231A1.728,1.728,0,0,1,5.144,4.8l.55-.082a1.71,1.71,0,0,0,1.289-.925l.25-.51a1.7,1.7,0,0,1,1.023-.865,1.779,1.779,0,0,1,1.357.123l.4.212a1.778,1.778,0,0,0,1.654,0Z" transform="translate(267.979 34.654)" fill="#fff"/>
      <path id="Polygon_4_-_Outline" data-name="Polygon 4 - Outline" d="M8.65,1.832a2.143,2.143,0,0,1,1,.246l.4.212a1.413,1.413,0,0,0,1.313,0l.4-.212A2.144,2.144,0,0,1,13.4,1.93,2.068,2.068,0,0,1,14.64,2.983l.25.51a1.344,1.344,0,0,0,1.016.725l.552.083a2.078,2.078,0,0,1,1.362.8A1.975,1.975,0,0,1,18.2,6.611l-.124.724a1.248,1.248,0,0,0,.36,1.09l.518.512a1.966,1.966,0,0,1,0,2.816l-.518.512a1.249,1.249,0,0,0-.36,1.091l.122.724a1.975,1.975,0,0,1-.375,1.511,2.079,2.079,0,0,1-1.361.8l-.55.082a1.344,1.344,0,0,0-1.016.726l-.25.51A2.068,2.068,0,0,1,13.4,18.762a2.144,2.144,0,0,1-1.635-.149l-.4-.212a1.413,1.413,0,0,0-1.313,0l-.4.212a2.144,2.144,0,0,1-1.635.149A2.068,2.068,0,0,1,6.774,17.71l-.25-.51a1.343,1.343,0,0,0-1.018-.725l-.552-.083a2.078,2.078,0,0,1-1.362-.8,1.975,1.975,0,0,1-.375-1.512l.124-.724a1.248,1.248,0,0,0-.36-1.09l-.519-.512a1.966,1.966,0,0,1,0-2.816l.518-.512A1.249,1.249,0,0,0,3.34,7.334l-.122-.724A1.975,1.975,0,0,1,3.593,5.1a2.079,2.079,0,0,1,1.361-.8l.55-.082A1.344,1.344,0,0,0,6.52,3.492l.25-.51A2.068,2.068,0,0,1,8.012,1.929,2.142,2.142,0,0,1,8.65,1.832ZM10.7,3.181a2.142,2.142,0,0,1-1-.246l-.4-.212a1.429,1.429,0,0,0-1.078-.1,1.336,1.336,0,0,0-.8.678l-.25.51A2.073,2.073,0,0,1,5.612,4.938l-.55.082a1.372,1.372,0,0,0-.888.519,1.226,1.226,0,0,0-.237.951l.122.724a1.979,1.979,0,0,1-.568,1.731l-.518.512a1.237,1.237,0,0,0,0,1.779l.519.512a1.979,1.979,0,0,1,.567,1.73l-.124.724a1.226,1.226,0,0,0,.237.95,1.372,1.372,0,0,0,.888.519l.551.082a2.072,2.072,0,0,1,1.566,1.125l.25.51a1.336,1.336,0,0,0,.8.678,1.429,1.429,0,0,0,1.078-.1l.4-.212a2.142,2.142,0,0,1,1.995,0l.4.212a1.429,1.429,0,0,0,1.078.1,1.336,1.336,0,0,0,.8-.678l.25-.51A2.073,2.073,0,0,1,15.8,15.753l.55-.082a1.372,1.372,0,0,0,.888-.519,1.226,1.226,0,0,0,.237-.951l-.122-.724a1.979,1.979,0,0,1,.567-1.731l.518-.512a1.237,1.237,0,0,0,0-1.779l-.518-.512a1.979,1.979,0,0,1-.567-1.73l.124-.724a1.226,1.226,0,0,0-.237-.95,1.372,1.372,0,0,0-.888-.519L15.8,4.938a2.072,2.072,0,0,1-1.563-1.124l-.25-.51a1.336,1.336,0,0,0-.8-.678,1.429,1.429,0,0,0-1.078.1l-.4.212A2.141,2.141,0,0,1,10.7,3.181Z" transform="translate(268.114 34.789)" fill="#a82024"/>
      <path id="Polygon_4-2" data-name="Polygon 4" d="M12.069,2.537a1.779,1.779,0,0,1,1.357-.123,1.7,1.7,0,0,1,1.023.865l.25.51a1.71,1.71,0,0,0,1.29.925l.551.082a1.728,1.728,0,0,1,1.125.659,1.6,1.6,0,0,1,.306,1.231l-.124.723a1.607,1.607,0,0,0,.464,1.411l.518.512a1.6,1.6,0,0,1,0,2.3l-.518.512a1.607,1.607,0,0,0-.464,1.411l.122.724a1.6,1.6,0,0,1-.306,1.231,1.728,1.728,0,0,1-1.124.66l-.55.082a1.71,1.71,0,0,0-1.289.925l-.25.51a1.7,1.7,0,0,1-1.023.865,1.779,1.779,0,0,1-1.357-.123l-.4-.212a1.778,1.778,0,0,0-1.654,0l-.4.212a1.779,1.779,0,0,1-1.357.123,1.7,1.7,0,0,1-1.023-.865l-.25-.51a1.71,1.71,0,0,0-1.293-.925l-.551-.082a1.728,1.728,0,0,1-1.125-.659,1.6,1.6,0,0,1-.306-1.231l.124-.723a1.607,1.607,0,0,0-.464-1.411l-.519-.512a1.6,1.6,0,0,1,0-2.3l.518-.512A1.607,1.607,0,0,0,3.835,7.41l-.122-.724a1.6,1.6,0,0,1,.306-1.231A1.728,1.728,0,0,1,5.144,4.8l.55-.082a1.71,1.71,0,0,0,1.289-.925l.25-.51a1.7,1.7,0,0,1,1.023-.865,1.779,1.779,0,0,1,1.357.123l.4.212a1.778,1.778,0,0,0,1.654,0Z" transform="translate(267.979 34.654)" fill="#ffd3d4"/>
      <path id="Polygon_4-3" data-name="Polygon 4" d="M9.748,2.5a1.454,1.454,0,0,1,1.109-.1,1.386,1.386,0,0,1,.836.707l.2.417a1.4,1.4,0,0,0,1.055.756l.451.067a1.413,1.413,0,0,1,.92.539,1.307,1.307,0,0,1,.25,1.007l-.1.591a1.314,1.314,0,0,0,.379,1.153l.424.419a1.309,1.309,0,0,1,0,1.878l-.424.419a1.314,1.314,0,0,0-.379,1.154l.1.592a3.332,3.332,0,0,0,.516.93,1.032,1.032,0,0,0,.658.328l-.47.776-.121.252-.95.234c-.46.068-.814.019-1.013.424l-.46.562A4.355,4.355,0,0,1,11.348,17a1.38,1.38,0,0,1-1.081-.069l-.377-.161c-.421-.222-.573-.326-.994-.1l-.729-.222c-.339.179-.735.671-1.1.556s-.43.336-.6,0l-.726-.334c-.2-.405-.607-.941-1.068-1.008l-.4-.51a2.114,2.114,0,0,1-1.15-.631c-.22-.29-.718-.022-.659-.376l-.542-.733c.071-.42.247-.9-.062-1.2l-.391-1.327c-.529-.523-1.511-1.6-.982-2.125l.559-1.208c.309-.305.885-.647.815-1.067l-.1-.592a2.883,2.883,0,0,1,.1-1.545c.22-.29,1.166.055,1.535,0l1.143-.067A1.4,1.4,0,0,0,5.59,3.522l.2-.417A1.386,1.386,0,0,1,6.63,2.4a1.454,1.454,0,0,1,1.109.1l.327.173a1.454,1.454,0,0,0,1.352,0Z" transform="translate(270.076 36.14)" fill="#fff"/>
      <path id="Polygon_4-4" data-name="Polygon 4" d="M8.65,1.832a2.143,2.143,0,0,1,1,.246l.4.212a1.413,1.413,0,0,0,1.313,0l.4-.212A2.144,2.144,0,0,1,13.4,1.93,2.068,2.068,0,0,1,14.64,2.983l.25.51a1.344,1.344,0,0,0,1.016.725l.552.083a2.078,2.078,0,0,1,1.362.8A1.975,1.975,0,0,1,18.2,6.611l-.124.724a1.248,1.248,0,0,0,.36,1.09l.518.512a1.966,1.966,0,0,1,0,2.816l-.518.512a1.249,1.249,0,0,0-.36,1.091l.122.724a1.975,1.975,0,0,1-.375,1.511,2.079,2.079,0,0,1-1.361.8l-.55.082a1.344,1.344,0,0,0-1.016.726l-.25.51A2.068,2.068,0,0,1,13.4,18.762a2.144,2.144,0,0,1-1.635-.149l-.4-.212a1.413,1.413,0,0,0-1.313,0l-.4.212a2.144,2.144,0,0,1-1.635.149A2.068,2.068,0,0,1,6.774,17.71l-.25-.51a1.343,1.343,0,0,0-1.018-.725l-.552-.083a2.078,2.078,0,0,1-1.362-.8,1.975,1.975,0,0,1-.375-1.512l.124-.724a1.248,1.248,0,0,0-.36-1.09l-.519-.512a1.966,1.966,0,0,1,0-2.816l.518-.512A1.249,1.249,0,0,0,3.34,7.334l-.122-.724A1.975,1.975,0,0,1,3.593,5.1a2.079,2.079,0,0,1,1.361-.8l.55-.082A1.344,1.344,0,0,0,6.52,3.492l.25-.51A2.068,2.068,0,0,1,8.012,1.929,2.142,2.142,0,0,1,8.65,1.832ZM10.7,3.181a2.142,2.142,0,0,1-1-.246l-.4-.212a1.429,1.429,0,0,0-1.078-.1,1.336,1.336,0,0,0-.8.678l-.25.51A2.073,2.073,0,0,1,5.612,4.938l-.55.082a1.372,1.372,0,0,0-.888.519,1.226,1.226,0,0,0-.237.951l.122.724a1.979,1.979,0,0,1-.568,1.731l-.518.512a1.237,1.237,0,0,0,0,1.779l.519.512a1.979,1.979,0,0,1,.567,1.73l-.124.724a1.226,1.226,0,0,0,.237.95,1.372,1.372,0,0,0,.888.519l.551.082a2.072,2.072,0,0,1,1.566,1.125l.25.51a1.336,1.336,0,0,0,.8.678,1.429,1.429,0,0,0,1.078-.1l.4-.212a2.142,2.142,0,0,1,1.995,0l.4.212a1.429,1.429,0,0,0,1.078.1,1.336,1.336,0,0,0,.8-.678l.25-.51A2.073,2.073,0,0,1,15.8,15.753l.55-.082a1.372,1.372,0,0,0,.888-.519,1.226,1.226,0,0,0,.237-.951l-.122-.724a1.979,1.979,0,0,1,.567-1.731l.518-.512a1.237,1.237,0,0,0,0-1.779l-.518-.512a1.979,1.979,0,0,1-.567-1.73l.124-.724a1.226,1.226,0,0,0-.237-.95,1.372,1.372,0,0,0-.888-.519L15.8,4.938a2.072,2.072,0,0,1-1.563-1.124l-.25-.51a1.336,1.336,0,0,0-.8-.678,1.429,1.429,0,0,0-1.078.1l-.4.212A2.141,2.141,0,0,1,10.7,3.181Z" transform="translate(268.114 34.789)" fill="#a82024"/>
      <path id="Polygon_4-5" data-name="Polygon 4" d="M8.65,1.832a2.143,2.143,0,0,1,1,.246l.4.212a1.413,1.413,0,0,0,1.313,0l.4-.212A2.144,2.144,0,0,1,13.4,1.93,2.068,2.068,0,0,1,14.64,2.983l.25.51a1.344,1.344,0,0,0,1.016.725l.552.083a2.078,2.078,0,0,1,1.362.8A1.975,1.975,0,0,1,18.2,6.611l-.124.724a1.248,1.248,0,0,0,.36,1.09l.518.512a1.966,1.966,0,0,1,0,2.816l-.518.512a1.249,1.249,0,0,0-.36,1.091l.122.724a1.975,1.975,0,0,1-.375,1.511,2.079,2.079,0,0,1-1.361.8l-.55.082a1.344,1.344,0,0,0-1.016.726l-.25.51A2.068,2.068,0,0,1,13.4,18.762a2.144,2.144,0,0,1-1.635-.149l-.4-.212a1.413,1.413,0,0,0-1.313,0l-.4.212a2.144,2.144,0,0,1-1.635.149A2.068,2.068,0,0,1,6.774,17.71l-.25-.51a1.343,1.343,0,0,0-1.018-.725l-.552-.083a2.078,2.078,0,0,1-1.362-.8,1.975,1.975,0,0,1-.375-1.512l.124-.724a1.248,1.248,0,0,0-.36-1.09l-.519-.512a1.966,1.966,0,0,1,0-2.816l.518-.512A1.249,1.249,0,0,0,3.34,7.334l-.122-.724A1.975,1.975,0,0,1,3.593,5.1a2.079,2.079,0,0,1,1.361-.8l.55-.082A1.344,1.344,0,0,0,6.52,3.492l.25-.51A2.068,2.068,0,0,1,8.012,1.929,2.142,2.142,0,0,1,8.65,1.832ZM10.7,3.181a2.142,2.142,0,0,1-1-.246l-.4-.212a1.429,1.429,0,0,0-1.078-.1,1.336,1.336,0,0,0-.8.678l-.25.51A2.073,2.073,0,0,1,5.612,4.938l-.55.082a1.372,1.372,0,0,0-.888.519,1.226,1.226,0,0,0-.237.951l.122.724a1.979,1.979,0,0,1-.568,1.731l-.518.512a1.237,1.237,0,0,0,0,1.779l.519.512a1.979,1.979,0,0,1,.567,1.73l-.124.724a1.226,1.226,0,0,0,.237.95,1.372,1.372,0,0,0,.888.519l.551.082a2.072,2.072,0,0,1,1.566,1.125l.25.51a1.336,1.336,0,0,0,.8.678,1.429,1.429,0,0,0,1.078-.1l.4-.212a2.142,2.142,0,0,1,1.995,0l.4.212a1.429,1.429,0,0,0,1.078.1,1.336,1.336,0,0,0,.8-.678l.25-.51A2.073,2.073,0,0,1,15.8,15.753l.55-.082a1.372,1.372,0,0,0,.888-.519,1.226,1.226,0,0,0,.237-.951l-.122-.724a1.979,1.979,0,0,1,.567-1.731l.518-.512a1.237,1.237,0,0,0,0-1.779l-.518-.512a1.979,1.979,0,0,1-.567-1.73l.124-.724a1.226,1.226,0,0,0-.237-.95,1.372,1.372,0,0,0-.888-.519L15.8,4.938a2.072,2.072,0,0,1-1.563-1.124l-.25-.51a1.336,1.336,0,0,0-.8-.678,1.429,1.429,0,0,0-1.078.1l-.4.212A2.141,2.141,0,0,1,10.7,3.181Z" transform="translate(268.114 34.789)" fill="#a82024"/>
      <path id="Ellipse_17" data-name="Ellipse 17" d="M4.577,0A4.577,4.577,0,1,1,0,4.577,4.577,4.577,0,0,1,4.577,0Z" transform="translate(274.406 40.537)" fill="#ffd3d4"/>
      <path id="Ellipse_17_-_Outline" data-name="Ellipse 17 - Outline" d="M4.441-.5A4.941,4.941,0,1,1-.5,4.441,4.947,4.947,0,0,1,4.441-.5Zm0,9.154A4.212,4.212,0,1,0,.229,4.441,4.217,4.217,0,0,0,4.441,8.654Z" transform="translate(274.542 40.673)" fill="#a82024"/>
      <path id="Ellipse_17-2" data-name="Ellipse 17" d="M4.577,0A4.577,4.577,0,1,1,0,4.577,4.577,4.577,0,0,1,4.577,0Z" transform="translate(274.406 40.537)" fill="#ffd3d4"/>
      <path id="Ellipse_17_-_Outline-2" data-name="Ellipse 17 - Outline" d="M4.441-.5A4.941,4.941,0,1,1-.5,4.441,4.947,4.947,0,0,1,4.441-.5Zm0,9.154A4.212,4.212,0,1,0,.229,4.441,4.217,4.217,0,0,0,4.441,8.654Z" transform="translate(274.542 40.673)" fill="#a82024"/>
      <path id="Path_5380" data-name="Path 5380" d="M.964-10.827v-3.609H.1l.5-.654H1.624v4.263Zm4.179-.4a1.462,1.462,0,0,1-1.111.456,1.457,1.457,0,0,1-1.111-.459,1.652,1.652,0,0,1-.432-1.18v-1.117a1.652,1.652,0,0,1,.432-1.18,1.457,1.457,0,0,1,1.111-.459,1.467,1.467,0,0,1,1.114.459,1.646,1.646,0,0,1,.435,1.18v1.117A1.65,1.65,0,0,1,5.143-11.223Zm-1.111-.192a.835.835,0,0,0,.645-.264,1.032,1.032,0,0,0,.243-.727v-1.117a1.032,1.032,0,0,0-.243-.727.835.835,0,0,0-.645-.264.828.828,0,0,0-.639.264,1.032,1.032,0,0,0-.243.727v1.117a1.032,1.032,0,0,0,.243.727A.828.828,0,0,0,4.032-11.415Z" transform="translate(275.977 58.025)" fill="#a82024"/>
    </g>
  </g>
</svg>
