<svg xmlns="http://www.w3.org/2000/svg" width="20" height="20" viewBox="0 0 20 20">
  <g id="Group_1942" data-name="Group 1942" transform="translate(-52 -23)">
    <circle id="Ellipse_390" data-name="Ellipse 390" cx="6" cy="6" r="6" transform="translate(55 25)" fill="#d3efe5"/>
    <path id="Path_2023" data-name="Path 2023" d="M269.7,316.684v-.577a.218.218,0,0,0,.054-.117L271.744,314a.22.22,0,1,0-.311-.311l-1.729,1.729v-.9a.217.217,0,0,0,.053-.113l2.465-2.465a.22.22,0,1,0-.311-.311l-2.207,2.207v-.9a.217.217,0,0,0,.051-.11l3.055-3.054a.22.22,0,0,0-.311-.311l-2.795,2.795v-.9a.217.217,0,0,0,.05-.107l3.02-3.02a.22.22,0,0,0-.311-.311l-2.759,2.759v-.9a.217.217,0,0,0,.048-.1l2.47-2.47a.22.22,0,1,0-.311-.311l-2.208,2.208v-.9a.219.219,0,0,0,.047-.1l2.181-2.181a.22.22,0,0,0-.311-.311l-1.917,1.917v-.905a.217.217,0,0,0,.045-.1l1.694-1.694a.22.22,0,0,0-.311-.311L269.7,305.95v-.907a.219.219,0,0,0,.044-.094l1.362-1.362a.22.22,0,0,0-.311-.311l-1.1,1.1v-.909a.217.217,0,0,0,.042-.09l.845-.845a.22.22,0,0,0-.311-.311l-.576.576V301.9a.22.22,0,0,0-.44,0v.849l-.53-.53a.22.22,0,0,0-.311.311l.841.841v.956l-1.049-1.049a.22.22,0,1,0-.311.311l1.36,1.36v.956l-1.381-1.38a.22.22,0,0,0-.311.311l1.691,1.691v.956l-1.869-1.869a.22.22,0,0,0-.311.311l2.18,2.18v.956l-2.158-2.158a.22.22,0,0,0-.311.311l2.469,2.469v.956l-2.709-2.709a.22.22,0,0,0-.311.311l3.02,3.02v.956l-2.743-2.743a.22.22,0,0,0-.311.311l3.054,3.054v.956l-2.153-2.153a.22.22,0,0,0-.311.311l2.464,2.464v.956l-1.674-1.674a.22.22,0,0,0-.311.311l1.985,1.985v.69" transform="translate(-207.012 -275.684)" fill="#16494d"/>
    <rect id="Rectangle_3268" data-name="Rectangle 3268" width="20" height="20" transform="translate(52 23)" fill="none"/>
  </g>
</svg>
