<svg xmlns="http://www.w3.org/2000/svg" width="20" height="20" viewBox="0 0 20 20">
  <g id="Group_1944" data-name="Group 1944" transform="translate(-4 -23)">
    <circle id="Ellipse_388" data-name="Ellipse 388" cx="6" cy="6" r="6" transform="translate(10 24.5)" fill="#d4eee5"/>
    <g id="Group_1933" data-name="Group 1933" transform="translate(8.613 24.495)">
      <path id="Path_1988" data-name="Path 1988" d="M61.838,306.763a1.668,1.668,0,0,0-.506.074,2.806,2.806,0,0,1-.41.07l-.072.01a.474.474,0,0,1-.176.008h0l.011-.01c.046-.041.085-.083.123-.123l1.082-1.131.207-.217A.928.928,0,0,0,62.35,305a.824.824,0,0,0-.322-.827,1.064,1.064,0,0,0-.769-.2,1.323,1.323,0,0,0-.341.1l-.062.025c-.1.039-.2.073-.3.109l-.125.043-.093.035a.544.544,0,0,1-.249.06,1.1,1.1,0,0,1,.124-.155c.024-.027.047-.053.067-.077l.675-.812c.066-.079.133-.159.2-.239.028-.035.058-.069.088-.1.06-.07.123-.142.18-.222a.8.8,0,0,0,.022-.934,1,1,0,0,0-.881-.414,1.172,1.172,0,0,0-.492.153l-.274.148-.208.112-.138.075-.049.028a.613.613,0,0,1-.092.047.115.115,0,0,1-.074,0,.471.471,0,0,1,.093-.132,6.522,6.522,0,0,0,.52-.615.805.805,0,0,0,.115-.744.91.91,0,0,0-.614-.571,2.3,2.3,0,0,0-.316-.062l-.115-.018a.485.485,0,0,1-.089-.022c0-.026,0-.065,0-.094s0-.069,0-.1a.918.918,0,0,0-.106-.481.956.956,0,0,0-.685-.447,1.039,1.039,0,0,0-.848.229.96.96,0,0,0-.284.832v.008c0,.017,0,.039,0,.056a.819.819,0,0,1-.158.032l-.073.011-.02,0a1.423,1.423,0,0,0-.457.132.93.93,0,0,0-.342.31.818.818,0,0,0,.06.963c.129.164.267.323.4.476l.144.167a.28.28,0,0,1,.045.067.076.076,0,0,1-.021.008c-.034.007-.076-.013-.164-.062l-.006,0-.185-.1c-.071-.038-.143-.076-.213-.116l-.063-.036a1.4,1.4,0,0,0-.787-.251.979.979,0,0,0-.81.485.784.784,0,0,0,0,.776,1.576,1.576,0,0,0,.205.27c.023.026.046.052.068.078l.292.351.26.314.315.381c.031.037.063.074.1.111a2.387,2.387,0,0,1,.157.191.1.1,0,0,1-.048.012.321.321,0,0,1-.069-.024l-.016-.007c-.065-.026-.137-.053-.224-.084l-.162-.056c-.093-.031-.18-.061-.266-.094l-.064-.025a1.249,1.249,0,0,0-.419-.109,1,1,0,0,0-.824.35.817.817,0,0,0-.154.766,1,1,0,0,0,.244.38l.149.154.148.153.658.688c.084.087.17.177.251.267a2.083,2.083,0,0,0,.15.153l.03.026.025.022a.549.549,0,0,1-.171-.007l-.113-.013a2.339,2.339,0,0,1-.313-.05l-.062-.016a1.792,1.792,0,0,0-.387-.072,1.2,1.2,0,0,0-1.292.963,1.016,1.016,0,0,0,.268.833,1.668,1.668,0,0,0,.355.27l2.376,1.469c.034.021.068.039.1.056a.9.9,0,0,1,.092.052.2.2,0,0,1-.1.014,1.018,1.018,0,0,0-.864.422.785.785,0,0,0-.082.762.973.973,0,0,0,.742.549l.382.072q-.075.046-.146.1a.608.608,0,0,0-.251.455.583.583,0,0,0,.19.46.711.711,0,0,0,.468.182.793.793,0,0,0,.231-.036.266.266,0,0,1,.1-.017.1.1,0,0,1,.048.026.244.244,0,0,0,.24.2l.034,0a.244.244,0,0,0,.208-.275.531.531,0,0,0-.423-.427.666.666,0,0,0-.336.022.43.43,0,0,1-.1.019h0a.225.225,0,0,1-.144-.053.093.093,0,0,1-.034-.075.123.123,0,0,1,.054-.089,1.426,1.426,0,0,1,.3-.171.452.452,0,0,0,.29-.29.347.347,0,0,0-.071-.307.571.571,0,0,0-.421-.179c-.025,0-.048,0-.069-.008l-.027-.005-.432-.081a.511.511,0,0,1-.386-.26.3.3,0,0,1,.035-.3.519.519,0,0,1,.447-.21.581.581,0,0,0,.518-.226.481.481,0,0,0,.022-.516.667.667,0,0,0-.3-.245c-.024-.012-.047-.024-.068-.037L53.6,308.416a1.264,1.264,0,0,1-.256-.188.537.537,0,0,1-.14-.435.726.726,0,0,1,.785-.541,1.38,1.38,0,0,1,.285.056l.066.017a2.721,2.721,0,0,0,.38.062l.11.013a.687.687,0,0,0,.526-.09.478.478,0,0,0,.14-.617.627.627,0,0,0-.143-.161l-.022-.019a1.645,1.645,0,0,1-.115-.119c-.086-.095-.175-.188-.261-.277l-.658-.688-.151-.156L54,305.122a.528.528,0,0,1-.132-.191.332.332,0,0,1,.068-.309.513.513,0,0,1,.422-.171.819.819,0,0,1,.262.075l.07.027c.095.037.191.069.284.1l.155.053c.081.029.146.053.2.077l.014.006a.658.658,0,0,0,.234.059.569.569,0,0,0,.459-.2.468.468,0,0,0,.012-.57,2.727,2.727,0,0,0-.195-.239c-.03-.034-.059-.067-.087-.1l-.314-.379-.261-.315-.292-.351c-.025-.03-.051-.06-.078-.09a1.175,1.175,0,0,1-.145-.185.3.3,0,0,1,0-.3.489.489,0,0,1,.408-.234.978.978,0,0,1,.519.187l.066.038c.074.042.148.081.223.121l.178.1.006,0a.69.69,0,0,0,.5.112.508.508,0,0,0,.394-.354.55.55,0,0,0-.151-.514l-.146-.169c-.129-.149-.263-.3-.386-.459a.329.329,0,0,1-.034-.4.44.44,0,0,1,.163-.146,1.013,1.013,0,0,1,.306-.08l.021,0,.061-.009a.859.859,0,0,0,.39-.125.5.5,0,0,0,.186-.471V299.7c-.012-.241.018-.353.119-.442a.549.549,0,0,1,.448-.114.392.392,0,0,1,.381.449c0,.023,0,.046,0,.07a.752.752,0,0,0,.029.312.556.556,0,0,0,.461.314l.127.02a1.9,1.9,0,0,1,.251.048.417.417,0,0,1,.289.26.32.32,0,0,1-.047.3,6.06,6.06,0,0,1-.482.57.721.721,0,0,0-.228.547.449.449,0,0,0,.224.33.593.593,0,0,0,.5.052.981.981,0,0,0,.178-.087l.039-.022.134-.073.21-.113.271-.146a.677.677,0,0,1,.289-.1.521.521,0,0,1,.451.2.317.317,0,0,1-.016.378c-.043.061-.1.122-.151.186-.033.038-.065.075-.1.114-.064.079-.129.157-.195.235l-.676.813c-.016.02-.035.04-.055.062-.119.133-.436.484-.128.811a.681.681,0,0,0,.791.065l.078-.029.122-.042c.106-.037.216-.074.324-.117l.069-.028a.91.91,0,0,1,.219-.071.575.575,0,0,1,.41.1.341.341,0,0,1,.14.339.442.442,0,0,1-.13.208l-.205.215-1.084,1.134c-.033.034-.063.067-.095.1a.531.531,0,0,0-.159.225.488.488,0,0,0,.264.589.765.765,0,0,0,.457.035l.064-.009a3.184,3.184,0,0,0,.478-.083,1.2,1.2,0,0,1,.361-.056.693.693,0,0,1,.711.613.558.558,0,0,1-.226.436,2.144,2.144,0,0,1-.214.14L62,308.5l-.277.172-1.716,1.061-.116.073c-.086.055-.167.107-.25.15a.538.538,0,0,0-.314.406.49.49,0,0,0,.3.5.834.834,0,0,0,.332.056c.028,0,.056,0,.084,0a.421.421,0,0,1,.348.224.327.327,0,0,1-.009.325.418.418,0,0,1-.136.133.926.926,0,0,1-.3.091l-.131.026c-.112.022-.218.043-.324.058l-.026,0c-.121.016-.444.06-.468.372a.414.414,0,0,0,.312.4l.037.016a1.012,1.012,0,0,1,.27.169.1.1,0,0,1,.033.083.116.116,0,0,1-.058.083.224.224,0,0,1-.162.03l-.06-.014a.63.63,0,0,0-.45.018.545.545,0,0,0-.239.209.244.244,0,0,0,.418.251.082.082,0,0,1,.027-.018c.022-.01.041-.008.128.013l.077.018a.71.71,0,0,0,.525-.1.6.6,0,0,0,.279-.441.589.589,0,0,0-.173-.48,1.142,1.142,0,0,0-.215-.164l.165-.032.128-.025a1.324,1.324,0,0,0,.466-.155.908.908,0,0,0,.294-.291.815.815,0,0,0,.031-.8.906.906,0,0,0-.744-.491c-.038,0-.077,0-.116,0a.5.5,0,0,1-.144-.014.226.226,0,0,1,.039-.025c.1-.053.2-.115.291-.174l.108-.069,1.716-1.061.279-.173.087-.053a2.561,2.561,0,0,0,.262-.173,1.042,1.042,0,0,0,.414-.821,1.172,1.172,0,0,0-1.185-1.1" transform="translate(-52.715 -298.651)" fill="#18494d"/>
      <path id="Path_1989" data-name="Path 1989" d="M134.733,386.325V374.087a.241.241,0,0,0-.482,0v12.238" transform="translate(-129.338 -369.315)" fill="#18494d"/>
    </g>
    <rect id="Rectangle_3266" data-name="Rectangle 3266" width="20" height="20" transform="translate(4 23)" fill="none"/>
  </g>
</svg>
