<svg xmlns="http://www.w3.org/2000/svg" xmlns:xlink="http://www.w3.org/1999/xlink" width="20" height="20" viewBox="0 0 20 20">
  <defs>
    <clipPath id="clip-path">
      <rect id="Rectangle_3265" data-name="Rectangle 3265" width="9.213" height="14.169" fill="#19484d" stroke="#17494d" stroke-width="1"/>
    </clipPath>
  </defs>
  <g id="Group_1940" data-name="Group 1940" transform="translate(-99 -23)">
    <circle id="Ellipse_392" data-name="Ellipse 392" cx="6" cy="6" r="6" transform="translate(102.609 25.521)" fill="#d2f0e3"/>
    <g id="Group_1939" data-name="Group 1939" transform="translate(106.178 26.416)">
      <g id="Group_1938" data-name="Group 1938" clip-path="url(#clip-path)">
        <path id="Line_1" data-name="Line 1" d="M-3.85,7.835a.2.2,0,0,1-.2-.2V-3.85a.2.2,0,0,1,.2-.2.2.2,0,0,1,.2.2V7.637A.2.2,0,0,1-3.85,7.835Z" transform="translate(8.476 6.334)" fill="#19484d"/>
        <path id="Path_2024" data-name="Path 2024" d="M104.46,45.219a.8.8,0,0,1-.509-.171l-.074-.092-.043-.059c-.13-.29-.136-.867.608-1.261a2.818,2.818,0,0,1,1.3-.357,1.155,1.155,0,0,1,.168.01.2.2,0,0,1,.166.225,2.558,2.558,0,0,1-.769,1.3A1.213,1.213,0,0,1,104.46,45.219Zm-.225-.446a.568.568,0,0,0,.225.05.841.841,0,0,0,.567-.293,2.562,2.562,0,0,0,.585-.85,2.548,2.548,0,0,0-.985.306c-.589.312-.466.678-.45.719l.019.016.038.051Z" transform="translate(-98.695 -41.164)" fill="#19484d"/>
        <path id="Path_2025" data-name="Path 2025" d="M80.133,2.682h-.146c-.31-.068-.779-.405-.654-1.238A2.557,2.557,0,0,1,79.925.057a.2.2,0,0,1,.28,0,2.558,2.558,0,0,1,.586,1.388c.122.833-.348,1.169-.614,1.23A.2.2,0,0,1,80.133,2.682ZM80.064.529a2.564,2.564,0,0,0-.339.973c-.1.659.269.778.311.79l.025-.006H80.1c.086-.031.383-.182.3-.782A2.563,2.563,0,0,0,80.064.529Z" transform="translate(-75.435 0)" fill="#19484d"/>
        <path id="Path_2026" data-name="Path 2026" d="M105.291,84.618h0a.937.937,0,0,1-.678-.25.2.2,0,0,1-.031-.044l-.078-.15a.2.2,0,0,1-.018-.05c-.007-.035-.167-.87,1.128-1.352a4.543,4.543,0,0,1,1.572-.311,2.047,2.047,0,0,1,.408.033.2.2,0,0,1,.14.27,3.8,3.8,0,0,1-1.365,1.46A1.942,1.942,0,0,1,105.291,84.618Zm-.375-.508a.6.6,0,0,0,.375.112,1.565,1.565,0,0,0,.852-.327,4.091,4.091,0,0,0,1.081-1.04,4.1,4.1,0,0,0-1.473.286c-.86.32-.886.781-.881.881Z" transform="translate(-99.368 -78.428)" fill="#19484d"/>
        <path id="Path_2027" data-name="Path 2027" d="M107.8,133.481h0a1.178,1.178,0,0,1-1.1-.537.2.2,0,0,1-.018-.051l-.038-.19a.2.2,0,0,1,0-.054c0-.04.092-.986,1.645-1.1.166-.012.323-.018.471-.018a3.963,3.963,0,0,1,1.779.339.2.2,0,0,1,.06.3,4.318,4.318,0,0,1-1.954,1.161A2.715,2.715,0,0,1,107.8,133.481Zm-.734-.7a.842.842,0,0,0,.734.3,2.325,2.325,0,0,0,.72-.132,4.668,4.668,0,0,0,1.568-.839,4.669,4.669,0,0,0-1.769-.172c-1.083.081-1.252.6-1.277.717Z" transform="translate(-101.433 -125.1)" fill="#19484d"/>
        <path id="Path_2028" data-name="Path 2028" d="M39.068,45.219a1.213,1.213,0,0,1-.846-.408,2.558,2.558,0,0,1-.769-1.3.2.2,0,0,1,.166-.225,1.155,1.155,0,0,1,.168-.01,2.818,2.818,0,0,1,1.3.357c.744.394.737.972.63,1.222l-.066.1-.043.059A.784.784,0,0,1,39.068,45.219Zm-1.152-1.538a2.563,2.563,0,0,0,.585.85.841.841,0,0,0,.567.293.437.437,0,0,0,.251-.076l.012-.025.043-.059c-.008,0,.115-.366-.474-.677A2.548,2.548,0,0,0,37.916,43.681Z" transform="translate(-35.62 -41.164)" fill="#19484d"/>
        <path id="Path_2029" data-name="Path 2029" d="M19.487,84.617a1.942,1.942,0,0,1-1.077-.4,3.8,3.8,0,0,1-1.365-1.46.2.2,0,0,1,.14-.27,2.046,2.046,0,0,1,.407-.033,4.544,4.544,0,0,1,1.572.311c1.3.482,1.136,1.317,1.128,1.352a.2.2,0,0,1-.018.051l-.078.15a.2.2,0,0,1-.031.044A.937.937,0,0,1,19.487,84.617Zm-1.932-1.763a4.111,4.111,0,0,0,1.079,1.04,1.565,1.565,0,0,0,.852.327.6.6,0,0,0,.375-.113l.046-.088c.006-.1-.016-.559-.881-.881A4.1,4.1,0,0,0,17.555,82.855Z" transform="translate(-16.197 -78.427)" fill="#19484d"/>
        <path id="Path_2030" data-name="Path 2030" d="M2.842,133.481A2.715,2.715,0,0,1,2,133.328a4.317,4.317,0,0,1-1.954-1.161.2.2,0,0,1,.06-.3,3.962,3.962,0,0,1,1.779-.339c.148,0,.3.005.471.018,1.554.115,1.642,1.061,1.645,1.1a.2.2,0,0,1,0,.054l-.038.19a.2.2,0,0,1-.018.051A1.178,1.178,0,0,1,2.842,133.481ZM.554,132.114a4.668,4.668,0,0,0,1.568.839,2.326,2.326,0,0,0,.72.133.842.842,0,0,0,.734-.3l.025-.123c-.023-.111-.189-.635-1.277-.716A4.67,4.67,0,0,0,.554,132.114Z" transform="translate(0.001 -125.1)" fill="#19484d"/>
        <path id="Line_2" data-name="Line 2" d="M-3.094-3.1a.2.2,0,0,1-.117-.038l-.756-.554a.2.2,0,0,1-.043-.277.2.2,0,0,1,.277-.043l.756.554a.2.2,0,0,1,.043.277A.2.2,0,0,1-3.094-3.1Z" transform="translate(7.721 7.525)" fill="#19484d"/>
        <path id="Line_3" data-name="Line 3" d="M-3.85-3.1a.2.2,0,0,1-.16-.081.2.2,0,0,1,.043-.277l.756-.554a.2.2,0,0,1,.277.043.2.2,0,0,1-.043.277l-.756.554A.2.2,0,0,1-3.85-3.1Z" transform="translate(8.434 7.525)" fill="#19484d"/>
        <path id="Line_4" data-name="Line 4" d="M-3.094-3.1a.2.2,0,0,1-.117-.038l-.756-.554a.2.2,0,0,1-.043-.277.2.2,0,0,1,.277-.043l.756.554a.2.2,0,0,1,.043.277A.2.2,0,0,1-3.094-3.1Z" transform="translate(7.721 9.565)" fill="#19484d"/>
        <path id="Line_5" data-name="Line 5" d="M-3.85-3.1a.2.2,0,0,1-.16-.081.2.2,0,0,1,.043-.277l.756-.554a.2.2,0,0,1,.277.043.2.2,0,0,1-.043.277l-.756.554A.2.2,0,0,1-3.85-3.1Z" transform="translate(8.434 9.565)" fill="#19484d"/>
        <path id="Path_2031" data-name="Path 2031" d="M105.128,223.065a1.213,1.213,0,0,1,.846.408,2.558,2.558,0,0,1,.769,1.3.2.2,0,0,1-.166.225,1.153,1.153,0,0,1-.168.01,2.818,2.818,0,0,1-1.3-.357c-.744-.394-.737-.972-.63-1.222l.066-.1.043-.059A.784.784,0,0,1,105.128,223.065Zm1.152,1.538a2.563,2.563,0,0,0-.585-.85.841.841,0,0,0-.567-.293.437.437,0,0,0-.251.076l-.012.025-.043.059c.008,0-.115.366.474.677A2.548,2.548,0,0,0,106.28,224.6Z" transform="translate(-99.322 -212.16)" fill="#19484d"/>
        <path id="Path_2032" data-name="Path 2032" d="M108.009,181.551a4.543,4.543,0,0,1-1.572-.311c-1.3-.482-1.136-1.317-1.128-1.352a.2.2,0,0,1,.018-.051l.078-.15a.2.2,0,0,1,.031-.044.937.937,0,0,1,.678-.25,1.942,1.942,0,0,1,1.077.4,3.8,3.8,0,0,1,1.365,1.46.2.2,0,0,1-.14.27A2.048,2.048,0,0,1,108.009,181.551Zm-2.315-1.563c-.006.1.016.559.881.88a4.1,4.1,0,0,0,1.471.286,4.111,4.111,0,0,0-1.079-1.04,1.565,1.565,0,0,0-.852-.327.6.6,0,0,0-.375.113Z" transform="translate(-100.151 -170.622)" fill="#19484d"/>
        <path id="Line_6" data-name="Line 6" d="M-3.094-3.1a.2.2,0,0,1-.117-.038l-.756-.554a.2.2,0,0,1-.043-.277.2.2,0,0,1,.277-.043l.756.554a.2.2,0,0,1,.043.277A.2.2,0,0,1-3.094-3.1Z" transform="translate(8.476 14.581)" fill="#19484d"/>
        <path id="Line_7" data-name="Line 7" d="M-3.094-3.1a.2.2,0,0,1-.117-.038l-.756-.554a.2.2,0,0,1-.043-.277.2.2,0,0,1,.277-.043l.756.554a.2.2,0,0,1,.043.277A.2.2,0,0,1-3.094-3.1Z" transform="translate(8.476 12.541)" fill="#19484d"/>
        <path id="Path_2033" data-name="Path 2033" d="M39.068,223.065a.815.815,0,0,1,.509.171l.074.092.043.059c.13.29.136.867-.608,1.261a2.818,2.818,0,0,1-1.3.357,1.153,1.153,0,0,1-.168-.01.2.2,0,0,1-.166-.225,2.558,2.558,0,0,1,.769-1.3A1.213,1.213,0,0,1,39.068,223.065Zm.225.446a.6.6,0,0,0-.225-.05h0a.841.841,0,0,0-.567.293,2.562,2.562,0,0,0-.585.85,2.548,2.548,0,0,0,.985-.306c.589-.312.466-.678.45-.719l-.019-.016-.038-.051Z" transform="translate(-35.62 -212.16)" fill="#19484d"/>
        <path id="Path_2034" data-name="Path 2034" d="M19.487,179.392h0a.937.937,0,0,1,.678.25.2.2,0,0,1,.031.044l.078.15a.2.2,0,0,1,.018.051c.007.035.167.87-1.128,1.352a4.543,4.543,0,0,1-1.572.311,2.048,2.048,0,0,1-.407-.033.2.2,0,0,1-.14-.27,3.8,3.8,0,0,1,1.365-1.46A1.942,1.942,0,0,1,19.487,179.392Zm.375.508a.6.6,0,0,0-.375-.112,1.565,1.565,0,0,0-.852.327,4.111,4.111,0,0,0-1.079,1.04,4.1,4.1,0,0,0,1.471-.286c.86-.32.886-.781.881-.881Z" transform="translate(-16.197 -170.622)" fill="#19484d"/>
        <path id="Line_8" data-name="Line 8" d="M-3.85-3.1a.2.2,0,0,1-.16-.081.2.2,0,0,1,.043-.277l.756-.554a.2.2,0,0,1,.277.043.2.2,0,0,1-.043.277l-.756.554A.2.2,0,0,1-3.85-3.1Z" transform="translate(7.721 14.581)" fill="#19484d"/>
        <path id="Line_9" data-name="Line 9" d="M-3.85-3.1a.2.2,0,0,1-.16-.081.2.2,0,0,1,.043-.277l.756-.554a.2.2,0,0,1,.277.043.2.2,0,0,1-.043.277l-.756.554A.2.2,0,0,1-3.85-3.1Z" transform="translate(7.721 12.541)" fill="#19484d"/>
        <path id="Line_10" data-name="Line 10" d="M-2.273-3.652H-3.85a.2.2,0,0,1-.2-.2.2.2,0,0,1,.2-.2h1.577a.2.2,0,0,1,.2.2A.2.2,0,0,1-2.273-3.652Z" transform="translate(7.632 11.509)" fill="#19484d"/>
      </g>
    </g>
    <rect id="Rectangle_3270" data-name="Rectangle 3270" width="20" height="20" transform="translate(99 23)" fill="none"/>
  </g>
</svg>
