<svg xmlns="http://www.w3.org/2000/svg" width="20" height="20" viewBox="0 0 20 20">
  <g id="Group_2002" data-name="Group 2002" transform="translate(-75 -48)">
    <g id="Group_1998" data-name="Group 1998" transform="translate(0 25)">
      <circle id="Ellipse_391" data-name="Ellipse 391" cx="6" cy="6" r="6" transform="translate(80.824 28.751)" fill="#d3efe5"/>
      <rect id="Rectangle_3269" data-name="Rectangle 3269" width="20" height="20" transform="translate(75 23)" fill="none"/>
    </g>
    <g id="Group_1995" data-name="Group 1995" transform="translate(80.99 51.5)">
      <path id="Path_2017" data-name="Path 2017" d="M669.451,7.732a5.167,5.167,0,0,0-1.792-3.379A2.983,2.983,0,0,1,666.694,3a.226.226,0,0,0-.438,0,2.983,2.983,0,0,1-.965,1.354A5.167,5.167,0,0,0,663.5,7.732c-.287,2.113,1.119,4.636,1.984,5.952a.226.226,0,1,0,.378-.248c-.829-1.263-2.181-3.676-1.913-5.642a4.719,4.719,0,0,1,1.659-3.115,4.607,4.607,0,0,0,.868-1.023,4.615,4.615,0,0,0,.868,1.023A4.718,4.718,0,0,1,669,7.793c.266,1.953-1.068,4.348-1.886,5.6a.226.226,0,1,0,.379.247c1.888-2.892,2.106-4.81,1.956-5.91" transform="translate(-663.462 -2.83)" fill="#18494d"/>
      <path id="Path_2018" data-name="Path 2018" d="M682.613,49.637a.226.226,0,0,0-.272-.362l-.956.719V48.673l1.8-1.129a.226.226,0,0,0-.24-.384l-1.56.978V46.669l1.228-.924a.226.226,0,0,0-.272-.362l-.956.719V44.4a.226.226,0,1,0-.453,0V46.1l-.956-.719a.226.226,0,0,0-.272.362l1.228.924v1.469l-1.56-.978a.226.226,0,0,0-.24.384l1.8,1.129v1.322l-.956-.719a.226.226,0,0,0-.272.362l1.228.924v4.451a.226.226,0,1,0,.453,0V50.561Z" transform="translate(-678.146 -41.831)" fill="#18494d"/>
    </g>
  </g>
</svg>
