<svg xmlns="http://www.w3.org/2000/svg" width="20" height="20" viewBox="0 0 20 20">
  <g id="Group_2001" data-name="Group 2001" transform="translate(-52 -48)">
    <circle id="Ellipse_390" data-name="Ellipse 390" cx="6" cy="6" r="6" transform="translate(55 50)" fill="#d1efe5"/>
    <rect id="Rectangle_3268" data-name="Rectangle 3268" width="20" height="20" transform="translate(52 48)" fill="none"/>
    <g id="Group_1993" data-name="Group 1993" transform="translate(56.857 51.5)">
      <path id="Path_2007" data-name="Path 2007" d="M475.162,65.484a.226.226,0,0,0-.166-.421l-2.608,1.026V63.765l1.592-1.08a.226.226,0,0,0-.254-.375l-1.338.908v-3.7a.226.226,0,1,0-.453,0v3.7l-1.338-.908a.226.226,0,0,0-.254.375l1.592,1.08v2.323l-2.608-1.026a.226.226,0,1,0-.166.421l2.773,1.091V68.9a.226.226,0,1,0,.453,0V66.575Z" transform="translate(-466.519 -56.466)" fill="#17484d"/>
      <path id="Path_2008" data-name="Path 2008" d="M435.363,16.261l-.009-.009a17.492,17.492,0,0,1-4.647-6.7.226.226,0,0,0-.426,0,17.493,17.493,0,0,1-4.647,6.7l-.009.009a2.95,2.95,0,0,0,3.884,4.4.226.226,0,1,0-.266-.366,2.5,2.5,0,0,1-3.293-3.722,18.421,18.421,0,0,0,4.544-6.311,18.421,18.421,0,0,0,4.544,6.311,2.5,2.5,0,0,1-3.429,3.616.226.226,0,1,0-.291.347,2.952,2.952,0,0,0,4.044-4.279" transform="translate(-424.85 -9.407)" fill="#16494d"/>
    </g>
  </g>
</svg>
