<svg xmlns="http://www.w3.org/2000/svg" width="20" height="20" viewBox="0 0 20 20">
  <g id="Group_1943" data-name="Group 1943" transform="translate(-28 -23)">
    <circle id="Ellipse_389" data-name="Ellipse 389" cx="6" cy="6" r="6" transform="translate(30 27.751)" fill="#d3efe5"/>
    <g id="Group_1934" data-name="Group 1934" transform="translate(33.264 26.249)">
      <path id="Path_1990" data-name="Path 1990" d="M442.614,343.322l2.711-2.174a.244.244,0,0,0-.012-.389l-.025-.018a1.138,1.138,0,0,1-.443-1.222l.292-1.086a.244.244,0,0,0-.271-.3l-.886.133a1.133,1.133,0,0,1-1.178-.6.244.244,0,0,0-.383-.067l-.695.647a.225.225,0,0,1-.373-.21l.479-2.285a.244.244,0,0,0-.33-.276,1.491,1.491,0,0,1-1.856-.652l-.518-.926a.244.244,0,0,0-.425,0l-.518.926a1.491,1.491,0,0,1-1.856.652.244.244,0,0,0-.33.276l.479,2.285a.225.225,0,0,1-.373.21l-.694-.647a.244.244,0,0,0-.383.067,1.134,1.134,0,0,1-1.178.6l-.886-.133a.244.244,0,0,0-.271.3l.292,1.086a1.138,1.138,0,0,1-.443,1.222l-.025.017a.244.244,0,0,0-.012.389l2.711,2.174a.65.65,0,0,1,.215.706l-.207.66a.244.244,0,0,0,.279.312l2.327-.454a.48.48,0,0,1,.184,0,.244.244,0,1,0,.093-.478.96.96,0,0,0-.371,0l-1.926.376.085-.27a1.134,1.134,0,0,0-.375-1.232l-2.479-1.988a1.629,1.629,0,0,0,.414-1.561l-.2-.727.518.078a1.621,1.621,0,0,0,1.514-.6l.482.449a.712.712,0,0,0,1.182-.667l-.4-1.893a1.98,1.98,0,0,0,2.052-.983l.306-.546.306.546a1.98,1.98,0,0,0,2.052.983l-.4,1.893a.712.712,0,0,0,1.182.667l.482-.449a1.62,1.62,0,0,0,1.514.6l.518-.078-.2.727a1.628,1.628,0,0,0,.414,1.561l-2.479,1.988a1.134,1.134,0,0,0-.375,1.232l.085.27-1.926-.376a.962.962,0,0,0-.393,0,.244.244,0,0,0,.1.476.476.476,0,0,1,.195,0l2.327.454a.253.253,0,0,0,.047,0,.244.244,0,0,0,.232-.317l-.207-.66a.65.65,0,0,1,.215-.706" transform="translate(-432.41 -333.763)" fill="#16494c"/>
      <path id="Path_1991" data-name="Path 1991" d="M483.815,390.565a.241.241,0,0,0-.3-.375l-3.237,2.614V387.08a.241.241,0,1,0-.482,0V392.8l-3.237-2.614a.241.241,0,0,0-.3.375l3.539,2.858v2.985a.241.241,0,1,0,.482,0v-2.985Z" transform="translate(-473.531 -383.644)" fill="#16494c"/>
    </g>
    <rect id="Rectangle_3267" data-name="Rectangle 3267" width="20" height="20" transform="translate(28 23)" fill="none"/>
  </g>
</svg>
