<svg xmlns="http://www.w3.org/2000/svg" width="20" height="20" viewBox="0 0 20 20">
  <g id="Group_2000" data-name="Group 2000" transform="translate(-28 -48)">
    <circle id="Ellipse_389" data-name="Ellipse 389" cx="6" cy="6" r="6" transform="translate(30 52.751)" fill="#d3efe5"/>
    <rect id="Rectangle_3267" data-name="Rectangle 3267" width="20" height="20" transform="translate(28 48)" fill="none"/>
    <g id="Group_1992" data-name="Group 1992" transform="translate(34.404 51.5)">
      <path id="Path_2011" data-name="Path 2011" d="M241.926,56.758a.226.226,0,0,0-.166-.421l-2.608,1.026V55.039l1.592-1.08a.226.226,0,0,0-.254-.375l-1.338.908V51.11a.226.226,0,1,0-.453,0v3.382l-1.338-.908a.226.226,0,1,0-.254.375l1.592,1.08v2.323l-2.608-1.026a.226.226,0,1,0-.166.421l2.773,1.091v3.636a.226.226,0,0,0,.453,0V57.849Z" transform="translate(-233.564 -48.004)" fill="#164a4d"/>
      <path id="Path_2012" data-name="Path 2012" d="M207.123,7.97l-.009-.021A14.728,14.728,0,0,0,204.556,4.2c-.092-.1-.182-.2-.27-.305l-.024-.027A7.239,7.239,0,0,1,202.2.223a.248.248,0,0,0-.493,0,7.239,7.239,0,0,1-2.063,3.645l-.024.027c-.088.1-.178.2-.27.305A14.729,14.729,0,0,0,196.79,7.95l-.009.021a2.114,2.114,0,0,0,.113,1.986,3.4,3.4,0,0,0,2.023,1.241,10.823,10.823,0,0,0,2.252.337h.013a.248.248,0,0,0,.012-.5c-.932-.048-3.177-.276-3.885-1.355a1.622,1.622,0,0,1-.067-1.53,14.11,14.11,0,0,1,2.477-3.625c.093-.1.184-.207.273-.308l.024-.027a9.811,9.811,0,0,0,1.937-2.886,9.811,9.811,0,0,0,1.937,2.886l.024.027c.089.1.18.2.273.308a14.11,14.11,0,0,1,2.477,3.625,1.624,1.624,0,0,1-.065,1.528c-.7,1.072-2.923,1.3-3.845,1.355a.248.248,0,1,0,.027.495,10.715,10.715,0,0,0,2.239-.344,3.375,3.375,0,0,0,1.994-1.235,2.115,2.115,0,0,0,.111-1.983" transform="translate(-196.591 0)" fill="#164a4d"/>
    </g>
  </g>
</svg>
