<svg xmlns="http://www.w3.org/2000/svg" width="20" height="20" viewBox="0 0 20 20">
  <g id="Group_1999" data-name="Group 1999" transform="translate(-4 -48)">
    <circle id="Ellipse_388" data-name="Ellipse 388" cx="6" cy="6" r="6" transform="translate(10 49.5)" fill="#d3efe3"/>
    <rect id="Rectangle_3266" data-name="Rectangle 3266" width="20" height="20" transform="translate(4 48)" fill="none"/>
    <g id="Group_1994" data-name="Group 1994" transform="translate(9.176 51.511)">
      <path id="Path_2009" data-name="Path 2009" d="M24.786,55.907a.234.234,0,0,0-.211-.418l-1.925.97V54.873l3.132-1.315a.234.234,0,1,0-.181-.431l-2.951,1.239V52.506l2.136-1.076a.234.234,0,0,0-.211-.418l-1.925.97V49.649a.234.234,0,1,0-.468,0v2.333l-1.925-.97a.234.234,0,0,0-.21.418l2.136,1.076v1.859l-2.951-1.239a.234.234,0,1,0-.181.431l3.132,1.315v1.586l-1.925-.97a.234.234,0,1,0-.21.418l2.136,1.076v3.333a.234.234,0,0,0,.468,0V56.983Z" transform="translate(-17.801 -46.689)" fill="#16494d"/>
      <path id="Path_2010" data-name="Path 2010" d="M.025,9.839a7.3,7.3,0,0,0,3.067,5.108.964.964,0,0,0,.377.071,1.575,1.575,0,0,0,.433-.067.234.234,0,0,0-.129-.45.78.78,0,0,1-.5.014A6.873,6.873,0,0,1,.491,9.8,3.626,3.626,0,0,1,1.941,6.2c.016-.008.071-.027.12-.045A3.651,3.651,0,0,0,4.553,3.721a1.966,1.966,0,0,1,.062-.19,1.962,1.962,0,0,1,.062.19A3.65,3.65,0,0,0,7.169,6.152c.049.017.1.037.12.045A3.625,3.625,0,0,1,8.739,9.8a6.873,6.873,0,0,1-2.782,4.718.7.7,0,0,1-.423.006.234.234,0,0,0-.106.456,1.147,1.147,0,0,0,.71-.031A7.3,7.3,0,0,0,9.206,9.839,4.036,4.036,0,0,0,7.5,5.778a1.687,1.687,0,0,0-.173-.067A3.171,3.171,0,0,1,5.129,3.6a2.241,2.241,0,0,0-.322-.7.234.234,0,0,0-.383,0,2.239,2.239,0,0,0-.322.7A3.171,3.171,0,0,1,1.9,5.711a1.7,1.7,0,0,0-.173.067A4.036,4.036,0,0,0,.025,9.839" transform="translate(0 -2.8)" fill="#16494d"/>
    </g>
  </g>
</svg>
