<svg xmlns="http://www.w3.org/2000/svg" width="20" height="20" viewBox="0 0 20 20">
  <g id="Group_2003" data-name="Group 2003" transform="translate(-99 -48)">
    <circle id="Ellipse_392" data-name="Ellipse 392" cx="6" cy="6" r="6" transform="translate(101.609 50.521)" fill="#d3eee5"/>
    <rect id="Rectangle_3270" data-name="Rectangle 3270" width="20" height="20" transform="translate(99 48)" fill="none"/>
    <g id="Group_1996" data-name="Group 1996" transform="translate(105.217 51.5)">
      <path id="Path_2015" data-name="Path 2015" d="M819.995,20.786l-4.259.382,4.147-2.3a.229.229,0,0,0-.222-.4l-3.89,2.157,3.593-3.976a.229.229,0,1,0-.34-.307l-3.261,3.608,2.778-5.191a.229.229,0,1,0-.4-.216l-2.477,4.628,1.813-5.859a.229.229,0,0,0-.438-.135l-1.714,5.541.913-6.321a.229.229,0,0,0-.453-.065l-.9,6.26V12.062a.2.2,0,0,0-.4,0V18.59l-.9-6.26a.229.229,0,0,0-.453.065l.913,6.321-1.714-5.541a.229.229,0,0,0-.438.135l1.813,5.86-2.477-4.628a.229.229,0,1,0-.4.216l2.778,5.191-3.261-3.608a.229.229,0,0,0-.34.307l3.593,3.976-3.89-2.157a.229.229,0,1,0-.222.4l4.147,2.3-4.259-.382a.229.229,0,1,0-.041.456l4.445.4-2.814.844a.229.229,0,1,0,.132.439l3.6-1.079,3.6,1.079a.229.229,0,0,0,.132-.439l-2.814-.844,4.446-.4a.229.229,0,0,0-.041-.456" transform="translate(-809.11 -11.863)" fill="#16494d"/>
      <path id="Path_2016" data-name="Path 2016" d="M903.673,195.567c-.126,0-.229.169-.229.378v3.375c0,.209.1.378.229.378s.229-.169.229-.378v-3.375c0-.209-.1-.378-.229-.378" transform="translate(-898.106 -186.799)" fill="#17494d"/>
    </g>
  </g>
</svg>
