<svg xmlns="http://www.w3.org/2000/svg" width="20" height="20" viewBox="0 0 20 20">
  <g id="Group_2004" data-name="Group 2004" transform="translate(-121 -48)">
    <circle id="Ellipse_393" data-name="Ellipse 393" cx="6" cy="6" r="6" transform="translate(124.609 50.521)" fill="#d2f0e4"/>
    <rect id="Rectangle_3271" data-name="Rectangle 3271" width="20" height="20" transform="translate(121 48)" fill="none"/>
    <g id="Group_1997" data-name="Group 1997" transform="translate(128.607 52.614)">
      <path id="Path_2013" data-name="Path 2013" d="M1069.44,49a.226.226,0,1,0-.166-.421l-2.608,1.026v-2.1l1.592-1.08a.226.226,0,1,0-.254-.375l-1.338.908V44.505a.226.226,0,0,0-.453,0v2.458l-1.338-.908a.226.226,0,1,0-.254.375l1.592,1.08v2.1l-2.608-1.026a.226.226,0,1,0-.166.421l2.773,1.091v4.7a.226.226,0,0,0,.453,0v-4.7Z" transform="translate(-1062.264 -42.251)" fill="#164a4d"/>
      <path id="Path_2014" data-name="Path 2014" d="M1052.325,11.761c-.186-.21-.509-.529-.883-.9a12.825,12.825,0,0,1-2.011-2.257.226.226,0,0,0-.436,0,12.828,12.828,0,0,1-2.011,2.257c-.374.37-.7.689-.883.9-.545.613-1.49,2.735-.851,4.065a5.531,5.531,0,0,0,3.035,2.73.226.226,0,1,0,.164-.422,5.082,5.082,0,0,1-2.789-2.5c-.546-1.134.31-3.04.78-3.57.177-.2.495-.513.863-.878a19.632,19.632,0,0,0,1.91-2.053,19.668,19.668,0,0,0,1.911,2.053c.368.364.686.678.863.877.47.529,1.326,2.435.779,3.572a5.081,5.081,0,0,1-2.789,2.5.226.226,0,0,0,.082.437.224.224,0,0,0,.082-.015,5.53,5.53,0,0,0,3.034-2.728c.641-1.331-.3-3.454-.85-4.067" transform="translate(-1045.037 -8.441)" fill="#164a4d"/>
    </g>
  </g>
</svg>
