<svg xmlns="http://www.w3.org/2000/svg" width="83" height="55" viewBox="0 0 83 55">
  <g id="Group_2601" data-name="Group 2601" transform="translate(-13544 14186)">
    <rect id="Rectangle_3706" data-name="Rectangle 3706" width="83" height="55" transform="translate(13544 -14186)" fill="none"/>
    <g id="wfot_logo" transform="translate(13544 -14182)">
      <g id="Group_2561" data-name="Group 2561" transform="translate(19.324 18.749)">
        <path id="Path_5776" data-name="Path 5776" d="M47.654,54.132H44.433l-4.026-20.8-3.959,20.8H33.228L28.8,28.3h3.422l2.617,20.8,3.824-20.8h3.489l3.892,20.8L48.66,28.3h3.422Z" transform="translate(-28.8 -28.032)" fill="#1e1834"/>
        <path id="Path_5777" data-name="Path 5777" d="M70.286,31.151v8.655h5.9v2.818h-5.9v11.54H67.2V28.4h10v2.818H70.286Z" transform="translate(-41.435 -28.065)" fill="#1e1834"/>
        <path id="Path_5778" data-name="Path 5778" d="M95.335,52.457a5.811,5.811,0,0,1-4.428,1.879,5.491,5.491,0,0,1-4.428-1.879c-1.744-1.946-1.879-4.9-1.879-11.339s.134-9.393,1.879-11.339A5.7,5.7,0,0,1,90.907,27.9a5.4,5.4,0,0,1,4.428,1.879c1.744,1.946,1.879,4.9,1.879,11.339S97.147,50.511,95.335,52.457ZM92.987,31.724a2.653,2.653,0,0,0-4.16,0c-.939,1.208-1.074,3.288-1.074,9.46s.2,8.186,1.074,9.46a2.653,2.653,0,0,0,4.16,0c.939-1.208,1.074-3.288,1.074-9.46S93.926,32.932,92.987,31.724Z" transform="translate(-47.161 -27.9)" fill="#1e1834"/>
        <path id="Path_5779" data-name="Path 5779" d="M112.948,31.118V54.132h-3.086V31.118H105.5V28.3h11.742v2.818Z" transform="translate(-54.038 -28.032)" fill="#1e1834"/>
      </g>
      <path id="Path_5780" data-name="Path 5780" d="M9.125,27.562a8.792,8.792,0,0,1,0,17.579v1.946h-.6V45.141a8.795,8.795,0,0,1-.067-17.579v-.268H7.515v-.4h.4a1,1,0,0,1-.268-.6,1.076,1.076,0,0,1,.738-.939V25.28a1.06,1.06,0,0,1-.872-1.006,1.136,1.136,0,0,1,.872-1.006h0c-.738-.134-1.275-.6-1.275-1.208a1.156,1.156,0,0,1,.537-.939c.335-.2.537.268.2.335a.587.587,0,0,0-.335.6.861.861,0,0,0,.805.738V19.175A39.369,39.369,0,0,1,5.5,15.552C4.831,14.478,3.757,12.13,3.959,12c.067-.067.268,0,.4,0,.335,0,.335-.2.268-.268a20.715,20.715,0,0,1-1.879-4.7c0-.134.067-.134.134-.067a5.121,5.121,0,0,0,.738.537c.2.067.47.335.47-.268A44.1,44.1,0,0,1,4.026.12a.208.208,0,0,1,.067-.134.093.093,0,0,1,.134,0,.246.246,0,0,1,.067.2,37.128,37.128,0,0,0,3.757,12.48s.268.872.47,0V8.439h.6v4.294c.2.872.47,0,.47,0A40.853,40.853,0,0,0,13.419.187a.246.246,0,0,1,.067-.2h.134a.234.234,0,0,1,.067.134,44.1,44.1,0,0,1-.067,7.112c0,.6.268.335.47.268a2.342,2.342,0,0,0,.6-.4c.067-.067.134,0,.134.067a20.715,20.715,0,0,1-1.879,4.7c0,.067-.067.268.268.268.134,0,.335-.067.4,0a13.561,13.561,0,0,1-1.543,3.556,26.96,26.96,0,0,1-2.818,3.623v3.623a.861.861,0,0,0,.805-.738c0-.268-.134-.4-.335-.6-.268-.067-.134-.537.2-.335a1.071,1.071,0,0,1,.537.939c0,.6-.537,1.074-1.275,1.208h0a1.06,1.06,0,0,1,.872,1.006,1.136,1.136,0,0,1-.872,1.006v.067a1.006,1.006,0,0,1,.738.939.82.82,0,0,1-.268.6h.4v.4H9.125Zm-4.7,8.79a4.386,4.386,0,0,0,4.026,4.361v-.671a3.707,3.707,0,0,1,0-7.381V31.99a4.386,4.386,0,0,0-4.026,4.361m4.7,4.361a4.453,4.453,0,0,0,4.16-4.361,4.4,4.4,0,0,0-4.16-4.361v.671a3.7,3.7,0,0,1,0,7.381v.671Zm-5.3-4.361a4.981,4.981,0,0,1,4.63-4.965v-.671a5.647,5.647,0,0,0,0,11.272v-.671a5.033,5.033,0,0,1-4.63-4.965m5.3-4.965a4.973,4.973,0,0,1,0,9.93v.671a5.643,5.643,0,0,0,0-11.272ZM2.55,36.351a6.208,6.208,0,0,1,5.9-6.24v-.6a6.919,6.919,0,0,0,0,13.822v-.6a6.426,6.426,0,0,1-5.9-6.374m6.575-6.24a6.243,6.243,0,0,1,0,12.48v.6a6.916,6.916,0,0,0,0-13.822ZM5.7,36.351a3.119,3.119,0,0,0,2.751,3.086V33.265A3.07,3.07,0,0,0,5.7,36.351m3.422,3.086a3.093,3.093,0,0,0,0-6.173v6.173Zm-7.85-3.086a7.525,7.525,0,0,1,7.179-7.515v-.671A8.141,8.141,0,0,0,.671,36.351a8.244,8.244,0,0,0,7.85,8.186v-.671a7.583,7.583,0,0,1-7.246-7.515m7.85-7.515a7.52,7.52,0,0,1,0,15.029v.671a8.19,8.19,0,0,0,0-16.371v.671Zm-.671-1.946V25.683a.645.645,0,0,0-.4.6.587.587,0,0,0,.4.6Zm0-1.879a.8.8,0,0,1-.537-.671.772.772,0,0,1,.537-.671Zm.671.671v1.208h0a.654.654,0,0,0,0-1.208m0-1.946a.8.8,0,0,1,.537.671.772.772,0,0,1-.537.671Z" transform="translate(0 0.044)" fill="#1e1834" fill-rule="evenodd"/>
    </g>
  </g>
</svg>
