<svg xmlns="http://www.w3.org/2000/svg" xmlns:xlink="http://www.w3.org/1999/xlink" width="39" height="33" viewBox="0 0 39 33">
  <defs>
    <clipPath id="clip-path">
      <rect id="Rectangle_3803" data-name="Rectangle 3803" width="28.004" height="27.124" transform="translate(0 0)" fill="#17494d"/>
    </clipPath>
  </defs>
  <g id="Group_2736" data-name="Group 2736" transform="translate(12535 -3157)">
    <rect id="Rectangle_3498" data-name="Rectangle 3498" width="39" height="33" transform="translate(-12535 3157)" fill="none"/>
    <g id="Group_2735" data-name="Group 2735" transform="translate(-12529.502 3159.942)">
      <g id="Group_2735-2" data-name="Group 2735" transform="translate(0 -0.004)" clip-path="url(#clip-path)">
        <path id="Path_6121" data-name="Path 6121" d="M27.946,21.748a6.032,6.032,0,0,0-.143-.7,6.34,6.34,0,0,0-.217-.664,3.637,3.637,0,0,0-.206-.475,1.927,1.927,0,0,0-.3-.384,2.789,2.789,0,0,0-.86-.233l-7.974-1.611a1.08,1.08,0,0,0-.583.01,1.1,1.1,0,0,0-.6.461c-.063.126-.125.262-.183.409a4.978,4.978,0,0,0-.307,1.209A20.03,20.03,0,0,1,11.8,16.552a19.881,19.881,0,0,1-4.179-5.334c.751-.226,1.325-.428,1.622-.551a.762.762,0,0,0,.34-.247.8.8,0,0,0,.134-.365,1.428,1.428,0,0,0,0-.282c-.007-.147-2.352-8.384-2.366-8.432A1.9,1.9,0,0,0,7.157.9,1.834,1.834,0,0,0,6.773.421,1.635,1.635,0,0,0,6.36.157,1.664,1.664,0,0,0,5.688.008,4.207,4.207,0,0,0,4.928.02,6.348,6.348,0,0,0,1.149,1.485a4.694,4.694,0,0,0-1.1,3.852q.012.085.026.17C1.725,16.22,11.218,25.375,21.915,26.948h0q.759.112,1.526.172a4.507,4.507,0,0,0,4.5-5.372" transform="translate(0 0.004)" fill="#17494d"/>
      </g>
    </g>
  </g>
</svg>
