<svg xmlns="http://www.w3.org/2000/svg" width="31.181" height="22.838" viewBox="0 0 31.181 22.838">
  <g id="Group_1042" data-name="Group 1042" transform="translate(-36.594 -27.098)">
    <path id="Path_923" data-name="Path 923" d="M.538,0H30.643a.5.5,0,0,1,.538.44V3.08a.5.5,0,0,1-.538.44H.538A.5.5,0,0,1,0,3.08V.44A.5.5,0,0,1,.538,0Z" transform="translate(36.594 27.098)" fill="#212923"/>
    <path id="Path_926" data-name="Path 926" d="M.538,0H30.643a.5.5,0,0,1,.538.44V3.08a.5.5,0,0,1-.538.44H.538A.5.5,0,0,1,0,3.08V.44A.5.5,0,0,1,.538,0Z" transform="translate(36.594 36.757)" fill="#212923"/>
    <path id="Path_927" data-name="Path 927" d="M.538,0H30.643a.5.5,0,0,1,.538.44V3.08a.5.5,0,0,1-.538.44H.538A.5.5,0,0,1,0,3.08V.44A.5.5,0,0,1,.538,0Z" transform="translate(36.594 46.416)" fill="#212923"/>
  </g>
</svg>
