<svg xmlns="http://www.w3.org/2000/svg" width="25" height="25" viewBox="0 0 25 25">
  <g id="Group_2000" data-name="Group 2000" transform="translate(-1823 188)">
    <rect id="Rectangle_3269" data-name="Rectangle 3269" width="25" height="25" transform="translate(1823 -188)" fill="none"/>
    <g id="Group_1992" data-name="Group 1992" transform="translate(1829.077 -184)">
      <path id="Path_2011" data-name="Path 2011" d="M243.187,57.963a.273.273,0,1,0-.2-.508l-3.143,1.236v-2.8l1.919-1.3a.273.273,0,0,0-.306-.452l-1.613,1.094V51.157a.273.273,0,1,0-.546,0v4.076l-1.613-1.094a.273.273,0,1,0-.306.452l1.919,1.3v2.8l-3.143-1.236a.273.273,0,1,0-.2.508l3.342,1.315V63.66a.273.273,0,1,0,.546,0V59.278Z" transform="translate(-233.109 -47.414)" fill="#164a4d"/>
      <path id="Path_2012" data-name="Path 2012" d="M209.284,9.606c0-.008-.007-.017-.011-.025a17.75,17.75,0,0,0-3.083-4.519c-.111-.125-.22-.247-.326-.368l-.029-.033c-.921-1.052-2.312-2.642-2.486-4.392a.3.3,0,0,0-.594,0c-.175,1.751-1.566,3.34-2.487,4.392l-.029.033c-.106.121-.215.243-.326.368a17.751,17.751,0,0,0-3.083,4.519c0,.008-.008.017-.011.025A2.548,2.548,0,0,0,196.956,12a4.1,4.1,0,0,0,2.438,1.5,13.043,13.043,0,0,0,2.714.406h.016a.3.3,0,0,0,.015-.6c-1.124-.058-3.829-.332-4.682-1.633a1.955,1.955,0,0,1-.08-1.844,17,17,0,0,1,2.985-4.369c.112-.126.222-.249.329-.372l.029-.033a11.824,11.824,0,0,0,2.334-3.478,11.824,11.824,0,0,0,2.334,3.478l.029.033c.107.122.216.245.329.372a17.005,17.005,0,0,1,2.985,4.369,1.957,1.957,0,0,1-.079,1.841c-.844,1.292-3.522,1.572-4.634,1.633a.3.3,0,1,0,.032.6,12.913,12.913,0,0,0,2.7-.414,4.067,4.067,0,0,0,2.4-1.488,2.549,2.549,0,0,0,.133-2.39" transform="translate(-196.591 0)" fill="#164a4d"/>
    </g>
  </g>
</svg>
