<svg xmlns="http://www.w3.org/2000/svg" width="25" height="25" viewBox="0 0 25 25">
  <g id="Group_1959" data-name="Group 1959" transform="translate(-1853 219)">
    <rect id="Rectangle_3270" data-name="Rectangle 3270" width="25" height="25" transform="translate(1853 -219)" fill="none"/>
    <path id="Path_2029" data-name="Path 2029" d="M270.926,321.836v-.776A.293.293,0,0,0,271,320.9l2.668-2.668a.3.3,0,1,0-.418-.418l-2.323,2.323v-1.2a.292.292,0,0,0,.071-.152l3.311-3.311a.3.3,0,0,0-.418-.418l-2.965,2.965v-1.207a.292.292,0,0,0,.069-.148l4.1-4.1a.3.3,0,0,0-.418-.418l-3.755,3.755v-1.209a.292.292,0,0,0,.067-.143l4.057-4.057a.3.3,0,1,0-.418-.418l-3.707,3.707v-1.212a.292.292,0,0,0,.065-.139l3.319-3.319a.3.3,0,0,0-.418-.418l-2.966,2.966v-1.214a.294.294,0,0,0,.063-.135l2.93-2.931a.3.3,0,1,0-.418-.418l-2.576,2.576v-1.216a.292.292,0,0,0,.061-.13l2.275-2.275a.3.3,0,0,0-.418-.418l-1.918,1.918V306.2a.294.294,0,0,0,.059-.126l1.83-1.83a.3.3,0,0,0-.418-.418l-1.471,1.471v-1.221a.292.292,0,0,0,.056-.121l1.135-1.135a.3.3,0,0,0-.418-.418l-.774.774v-1.195a.3.3,0,1,0-.591,0v1.14l-.713-.713a.3.3,0,0,0-.418.418l1.13,1.13v1.284l-1.409-1.409a.3.3,0,0,0-.418.418l1.827,1.827v1.284l-1.855-1.855a.3.3,0,0,0-.418.418l2.272,2.272v1.284l-2.511-2.511a.3.3,0,0,0-.418.418l2.928,2.928V311.6l-2.9-2.9a.3.3,0,1,0-.418.418l3.317,3.317v1.284l-3.639-3.639a.3.3,0,1,0-.418.418l4.057,4.057v1.284l-3.686-3.686a.3.3,0,0,0-.418.418l4.1,4.1v1.284l-2.893-2.893a.3.3,0,0,0-.418.418l3.31,3.311v1.284l-2.249-2.249a.3.3,0,0,0-.418.418l2.667,2.667v.927" transform="translate(1594.834 -518.202)" fill="#17494d"/>
  </g>
</svg>
