<svg xmlns="http://www.w3.org/2000/svg" width="25" height="25" viewBox="0 0 25 25">
  <g id="Group_1999" data-name="Group 1999" transform="translate(-1793 188)">
    <rect id="Rectangle_3268" data-name="Rectangle 3268" width="25" height="25" transform="translate(1793 -188)" fill="none"/>
    <g id="Group_1994" data-name="Group 1994" transform="translate(1800.221 -184)">
      <path id="Path_2009" data-name="Path 2009" d="M25.913,57.151a.279.279,0,0,0-.251-.5l-2.294,1.156v-1.89L27.1,54.353a.279.279,0,1,0-.216-.514l-3.517,1.476V53.1l2.545-1.282a.279.279,0,0,0-.251-.5l-2.294,1.156V49.694a.279.279,0,1,0-.558,0v2.781l-2.294-1.156a.279.279,0,0,0-.251.5L22.811,53.1v2.216l-3.517-1.476a.279.279,0,1,0-.216.514l3.732,1.567v1.89l-2.294-1.156a.279.279,0,1,0-.251.5l2.545,1.282v3.972a.279.279,0,0,0,.558,0V58.434Z" transform="translate(-17.589 -46.166)" fill="#16494d"/>
      <path id="Path_2010" data-name="Path 2010" d="M.029,11.189a8.694,8.694,0,0,0,3.655,6.087,1.149,1.149,0,0,0,.449.085,1.877,1.877,0,0,0,.516-.08.279.279,0,0,0-.154-.536.929.929,0,0,1-.595.016A8.191,8.191,0,0,1,.585,11.14C.306,8,2.294,6.858,2.314,6.848s.085-.033.143-.053A4.35,4.35,0,0,0,5.426,3.9,2.342,2.342,0,0,1,5.5,3.671a2.338,2.338,0,0,1,.074.227,4.35,4.35,0,0,0,2.969,2.9c.058.021.125.044.143.053S10.694,8,10.415,11.14A8.191,8.191,0,0,1,7.1,16.762a.832.832,0,0,1-.5.007.279.279,0,0,0-.126.543,1.367,1.367,0,0,0,.846-.037,8.694,8.694,0,0,0,3.655-6.087c.316-3.56-2.011-4.828-2.035-4.84a2.01,2.01,0,0,0-.206-.08A3.779,3.779,0,0,1,6.112,3.75a2.67,2.67,0,0,0-.384-.831.279.279,0,0,0-.457,0,2.668,2.668,0,0,0-.384.831A3.78,3.78,0,0,1,2.27,6.269a2.024,2.024,0,0,0-.206.08c-.024.012-2.351,1.28-2.035,4.84" transform="translate(0 -2.8)" fill="#16494d"/>
    </g>
  </g>
</svg>
