<svg xmlns="http://www.w3.org/2000/svg" width="25" height="25" viewBox="0 0 25 25">
  <g id="Group_2003" data-name="Group 2003" transform="translate(-1913 188)">
    <rect id="Rectangle_3272" data-name="Rectangle 3272" width="25" height="25" transform="translate(1913 -188)" fill="none"/>
    <g id="Group_1996" data-name="Group 1996" transform="translate(1917.923 -184)">
      <path id="Path_2015" data-name="Path 2015" d="M823.925,24.008l-5.8.52,5.645-3.13a.312.312,0,0,0-.3-.545l-5.295,2.936,4.89-5.411a.312.312,0,1,0-.463-.418l-4.438,4.911,3.781-7.066a.312.312,0,1,0-.55-.294l-3.371,6.3,2.467-7.975a.312.312,0,0,0-.6-.184l-2.333,7.541,1.243-8.6a.312.312,0,0,0-.617-.089l-1.23,8.52V12.134a.271.271,0,0,0-.543,0v8.884l-1.23-8.52a.312.312,0,0,0-.617.089l1.243,8.6-2.333-7.541a.312.312,0,1,0-.6.184l2.467,7.975-3.371-6.3a.312.312,0,1,0-.55.294l3.781,7.066-4.438-4.911a.312.312,0,1,0-.463.418l4.89,5.411L809.9,20.853a.312.312,0,1,0-.3.545l5.644,3.13-5.8-.52a.312.312,0,1,0-.056.621l6.051.543-3.83,1.149a.312.312,0,1,0,.179.6l4.894-1.468,4.894,1.468a.312.312,0,0,0,.179-.6l-3.83-1.149,6.051-.543a.312.312,0,0,0-.056-.621" transform="translate(-809.11 -11.863)" fill="#16494d"/>
      <path id="Path_2016" data-name="Path 2016" d="M903.756,195.567c-.172,0-.312.23-.312.514v4.594c0,.284.14.515.312.515s.312-.23.312-.515v-4.594c0-.284-.14-.514-.312-.514" transform="translate(-896.179 -183.633)" fill="#17494d"/>
    </g>
  </g>
</svg>
