<svg xmlns="http://www.w3.org/2000/svg" width="25" height="25" viewBox="0 0 25 25">
  <g id="Group_2001" data-name="Group 2001" transform="translate(-1853 188)">
    <rect id="Rectangle_3270" data-name="Rectangle 3270" width="25" height="25" transform="translate(1853 -188)" fill="none"/>
    <g id="Group_1993" data-name="Group 1993" transform="translate(1858.542 -184)">
      <path id="Path_2007" data-name="Path 2007" d="M476.593,66.927a.279.279,0,0,0-.2-.519l-3.215,1.264V64.808l1.963-1.331a.279.279,0,0,0-.313-.462l-1.65,1.119V59.568a.279.279,0,1,0-.558,0v4.565l-1.65-1.119a.279.279,0,1,0-.313.462l1.963,1.331v2.864L469.4,66.407a.279.279,0,1,0-.2.519l3.419,1.345v2.871a.279.279,0,1,0,.558,0V68.272Z" transform="translate(-465.937 -55.809)" fill="#17484d"/>
      <path id="Path_2008" data-name="Path 2008" d="M437.811,17.858l-.011-.011a21.566,21.566,0,0,1-5.729-8.254.279.279,0,0,0-.526,0,21.566,21.566,0,0,1-5.729,8.254l-.011.011a3.637,3.637,0,0,0,4.789,5.43.279.279,0,1,0-.328-.451,3.083,3.083,0,0,1-4.06-4.589,22.71,22.71,0,0,0,5.6-7.78,22.711,22.711,0,0,0,5.6,7.78,3.078,3.078,0,0,1-4.228,4.459.279.279,0,1,0-.358.428,3.639,3.639,0,0,0,4.986-5.275" transform="translate(-424.85 -9.407)" fill="#16494d"/>
    </g>
  </g>
</svg>
