<svg xmlns="http://www.w3.org/2000/svg" width="25" height="25" viewBox="0 0 25 25">
  <g id="Group_1960" data-name="Group 1960" transform="translate(-1823 219)">
    <rect id="Rectangle_3269" data-name="Rectangle 3269" width="25" height="25" transform="translate(1823 -219)" fill="none"/>
    <g id="Group_1949" data-name="Group 1949" transform="translate(1827.355 -214.716)">
      <path id="Path_1990" data-name="Path 1990" d="M445.19,345.736l3.4-2.723a.3.3,0,0,0-.015-.487l-.031-.022a1.425,1.425,0,0,1-.555-1.53l.366-1.36a.305.305,0,0,0-.34-.381l-1.11.167a1.419,1.419,0,0,1-1.475-.758.305.305,0,0,0-.48-.084l-.87.811a.282.282,0,0,1-.467-.264l.6-2.862a.305.305,0,0,0-.413-.346,1.868,1.868,0,0,1-2.325-.817l-.649-1.16a.305.305,0,0,0-.533,0l-.649,1.16a1.867,1.867,0,0,1-2.325.817.305.305,0,0,0-.413.346l.6,2.862a.282.282,0,0,1-.468.264l-.87-.811a.305.305,0,0,0-.48.084,1.42,1.42,0,0,1-1.475.758l-1.11-.167a.305.305,0,0,0-.34.381l.365,1.36a1.426,1.426,0,0,1-.555,1.531l-.031.022a.305.305,0,0,0-.015.487l3.4,2.723a.815.815,0,0,1,.269.885l-.26.827a.305.305,0,0,0,.35.391l2.915-.569a.6.6,0,0,1,.231,0,.305.305,0,1,0,.117-.6,1.2,1.2,0,0,0-.464,0l-2.412.471.106-.338a1.421,1.421,0,0,0-.47-1.544l-3.105-2.49a2.04,2.04,0,0,0,.518-1.955l-.245-.91.649.1a2.031,2.031,0,0,0,1.9-.75l.6.562a.892.892,0,0,0,1.481-.835l-.5-2.371a2.48,2.48,0,0,0,2.57-1.231l.383-.684.383.684a2.48,2.48,0,0,0,2.57,1.231l-.5,2.371a.892.892,0,0,0,1.481.835l.6-.562a2.029,2.029,0,0,0,1.9.75l.649-.1-.245.91a2.04,2.04,0,0,0,.518,1.955l-3.105,2.49a1.421,1.421,0,0,0-.47,1.544l.106.338-2.412-.471a1.2,1.2,0,0,0-.492.005.305.305,0,0,0,.131.6.6.6,0,0,1,.244,0l2.915.569a.314.314,0,0,0,.059.006.305.305,0,0,0,.291-.4l-.26-.827a.815.815,0,0,1,.269-.885" transform="translate(-432.41 -333.763)" fill="#17494d"/>
      <path id="Path_1991" data-name="Path 1991" d="M485.746,391.506a.3.3,0,0,0-.379-.469l-4.054,3.274v-7.17a.3.3,0,1,0-.6,0v7.17l-4.054-3.274a.3.3,0,0,0-.379.469l4.433,3.58v3.739a.3.3,0,1,0,.6,0v-3.739Z" transform="translate(-472.866 -382.838)" fill="#17494d"/>
    </g>
  </g>
</svg>
