<svg xmlns="http://www.w3.org/2000/svg" width="25" height="25" viewBox="0 0 25 25">
  <g id="Group_1961" data-name="Group 1961" transform="translate(-1793 219)">
    <rect id="Rectangle_3268" data-name="Rectangle 3268" width="25" height="25" transform="translate(1793 -219)" fill="none"/>
    <g id="Group_1933" data-name="Group 1933" transform="translate(1799.536 -216.778)">
      <path id="Path_1988" data-name="Path 1988" d="M63.663,308.386a2,2,0,0,0-.607.088,3.366,3.366,0,0,1-.492.084l-.086.012a.569.569,0,0,1-.211.009h0l.014-.012c.055-.05.1-.1.148-.147l1.3-1.358.248-.26a1.114,1.114,0,0,0,.3-.533.989.989,0,0,0-.387-.992,1.277,1.277,0,0,0-.922-.239,1.588,1.588,0,0,0-.41.125l-.075.03c-.117.046-.237.088-.364.131l-.15.052-.111.042a.653.653,0,0,1-.3.072,1.318,1.318,0,0,1,.149-.186c.029-.032.057-.063.081-.092l.81-.974c.08-.1.159-.191.237-.287.034-.042.07-.083.105-.124.072-.084.148-.171.215-.266a.963.963,0,0,0,.027-1.121,1.194,1.194,0,0,0-1.057-.5,1.407,1.407,0,0,0-.591.184l-.328.177-.25.135-.166.09-.058.033a.733.733,0,0,1-.111.057.138.138,0,0,1-.088,0,.565.565,0,0,1,.111-.158,7.825,7.825,0,0,0,.624-.739.967.967,0,0,0,.138-.893,1.092,1.092,0,0,0-.737-.686,2.765,2.765,0,0,0-.38-.075l-.138-.021a.583.583,0,0,1-.106-.026c0-.032,0-.078,0-.112s0-.083,0-.123a1.1,1.1,0,0,0-.128-.577,1.147,1.147,0,0,0-.822-.537,1.247,1.247,0,0,0-1.018.275,1.152,1.152,0,0,0-.341,1v.009c0,.02,0,.047,0,.068a.982.982,0,0,1-.19.038l-.087.013-.025,0a1.707,1.707,0,0,0-.549.158,1.116,1.116,0,0,0-.41.372.982.982,0,0,0,.072,1.156c.155.2.32.387.48.572l.173.2a.336.336,0,0,1,.054.08.091.091,0,0,1-.025.009c-.041.009-.092-.016-.2-.074l-.007,0c-.073-.041-.148-.08-.222-.12s-.171-.091-.255-.139l-.076-.043a1.677,1.677,0,0,0-.944-.3,1.175,1.175,0,0,0-.972.582.941.941,0,0,0,0,.932,1.89,1.89,0,0,0,.246.325c.028.031.055.062.081.094l.35.421.311.377q.189.229.379.457c.037.045.076.089.115.133a2.862,2.862,0,0,1,.189.229.119.119,0,0,1-.058.015.386.386,0,0,1-.083-.028l-.019-.008c-.078-.032-.164-.064-.269-.1l-.194-.067c-.111-.038-.216-.073-.319-.113l-.076-.03a1.5,1.5,0,0,0-.5-.131,1.2,1.2,0,0,0-.989.42.981.981,0,0,0-.185.919,1.2,1.2,0,0,0,.293.456l.179.184.178.183.79.826c.1.1.2.213.3.321a2.5,2.5,0,0,0,.18.184l.036.031.03.026a.658.658,0,0,1-.206-.008l-.136-.016a2.807,2.807,0,0,1-.376-.06l-.074-.02a2.15,2.15,0,0,0-.464-.086,1.444,1.444,0,0,0-1.551,1.156,1.219,1.219,0,0,0,.322,1,2,2,0,0,0,.426.324l2.852,1.762c.041.026.082.047.121.067a1.092,1.092,0,0,1,.111.062.239.239,0,0,1-.117.017,1.221,1.221,0,0,0-1.037.506.942.942,0,0,0-.1.915,1.168,1.168,0,0,0,.89.659l.458.087q-.089.055-.176.118a.73.73,0,0,0-.3.546.7.7,0,0,0,.228.552.853.853,0,0,0,.561.219.952.952,0,0,0,.278-.044.319.319,0,0,1,.122-.021.115.115,0,0,1,.057.031.293.293,0,0,0,.288.242l.04,0a.293.293,0,0,0,.25-.33.637.637,0,0,0-.507-.512.8.8,0,0,0-.4.027.516.516,0,0,1-.115.023h0a.27.27,0,0,1-.173-.064.112.112,0,0,1-.04-.09.147.147,0,0,1,.065-.107,1.711,1.711,0,0,1,.358-.205.543.543,0,0,0,.347-.348.416.416,0,0,0-.085-.368.685.685,0,0,0-.5-.215c-.029,0-.058-.006-.083-.01l-.033-.006-.519-.1a.613.613,0,0,1-.463-.312.36.36,0,0,1,.042-.356.623.623,0,0,1,.536-.252.7.7,0,0,0,.622-.271.577.577,0,0,0,.026-.619.8.8,0,0,0-.355-.294c-.028-.015-.056-.029-.082-.045l-2.852-1.763a1.518,1.518,0,0,1-.307-.226.645.645,0,0,1-.168-.522.872.872,0,0,1,.942-.65,1.654,1.654,0,0,1,.342.067l.079.021a3.264,3.264,0,0,0,.456.074l.132.016a.824.824,0,0,0,.632-.108.574.574,0,0,0,.169-.741.752.752,0,0,0-.172-.194l-.026-.023a1.971,1.971,0,0,1-.138-.142c-.1-.114-.209-.225-.313-.333l-.789-.826-.182-.187-.175-.181a.634.634,0,0,1-.159-.23.4.4,0,0,1,.081-.371.616.616,0,0,1,.506-.205.984.984,0,0,1,.315.09l.084.033c.114.044.229.083.341.121l.187.064c.1.034.175.064.245.092l.017.007a.789.789,0,0,0,.281.071.683.683,0,0,0,.551-.245.561.561,0,0,0,.014-.684,3.271,3.271,0,0,0-.234-.287c-.036-.04-.071-.08-.1-.121q-.189-.227-.376-.455l-.313-.378-.35-.421c-.03-.036-.061-.072-.093-.107a1.41,1.41,0,0,1-.174-.222.358.358,0,0,1,0-.363.587.587,0,0,1,.489-.281,1.173,1.173,0,0,1,.623.225l.079.045c.088.05.178.1.268.146.071.038.143.076.213.115l.007,0a.828.828,0,0,0,.6.135.609.609,0,0,0,.473-.425.659.659,0,0,0-.181-.617l-.175-.2c-.155-.179-.316-.364-.463-.551a.4.4,0,0,1-.04-.475.528.528,0,0,1,.2-.175,1.215,1.215,0,0,1,.367-.1l.025,0,.073-.011a1.031,1.031,0,0,0,.468-.151.6.6,0,0,0,.224-.565v-.009c-.014-.29.022-.424.143-.531a.658.658,0,0,1,.537-.136.47.47,0,0,1,.457.539c0,.027,0,.055,0,.084a.9.9,0,0,0,.035.375.667.667,0,0,0,.554.377l.153.024a2.282,2.282,0,0,1,.3.057.5.5,0,0,1,.347.312.384.384,0,0,1-.056.359,7.272,7.272,0,0,1-.579.683.865.865,0,0,0-.273.656.539.539,0,0,0,.269.4.711.711,0,0,0,.6.062,1.18,1.18,0,0,0,.214-.1l.047-.027.161-.087.252-.136.326-.175a.812.812,0,0,1,.346-.116.626.626,0,0,1,.541.241.381.381,0,0,1-.019.453c-.052.073-.115.146-.182.223-.039.045-.078.09-.115.136-.077.094-.155.188-.234.282l-.811.975c-.02.024-.042.049-.066.075-.143.159-.524.581-.153.974a.818.818,0,0,0,.95.078l.094-.035.146-.051c.128-.044.259-.089.389-.14l.083-.034a1.092,1.092,0,0,1,.263-.085.69.69,0,0,1,.492.124.409.409,0,0,1,.168.406.531.531,0,0,1-.155.25l-.247.258-1.3,1.36c-.039.041-.076.08-.114.114a.637.637,0,0,0-.191.27.586.586,0,0,0,.317.707.919.919,0,0,0,.549.042l.077-.011a3.82,3.82,0,0,0,.573-.1,1.437,1.437,0,0,1,.433-.067.831.831,0,0,1,.853.736.669.669,0,0,1-.271.523,2.572,2.572,0,0,1-.257.168l-.113.069-.333.206-2.059,1.273-.139.088c-.1.066-.2.129-.3.18a.646.646,0,0,0-.377.488.588.588,0,0,0,.36.6,1,1,0,0,0,.4.067c.034,0,.068,0,.1,0a.506.506,0,0,1,.418.269.392.392,0,0,1-.011.39.5.5,0,0,1-.163.16,1.111,1.111,0,0,1-.361.109l-.158.031c-.134.026-.261.051-.389.07l-.032,0c-.146.02-.533.072-.562.446a.5.5,0,0,0,.374.481l.044.019a1.214,1.214,0,0,1,.324.2.122.122,0,0,1,.04.1.139.139,0,0,1-.069.1.269.269,0,0,1-.194.036l-.072-.017a.756.756,0,0,0-.54.022.655.655,0,0,0-.287.251.293.293,0,0,0,.5.3.1.1,0,0,1,.032-.022c.026-.012.049-.01.154.016l.092.021a.852.852,0,0,0,.63-.116.722.722,0,0,0,.335-.529.707.707,0,0,0-.208-.576,1.371,1.371,0,0,0-.259-.2l.2-.038.153-.03a1.588,1.588,0,0,0,.559-.186,1.09,1.09,0,0,0,.353-.349.978.978,0,0,0,.037-.962,1.087,1.087,0,0,0-.892-.59c-.045,0-.092,0-.139-.006a.594.594,0,0,1-.173-.017.272.272,0,0,1,.047-.03c.125-.064.239-.137.349-.208l.13-.083,2.059-1.273.335-.208.1-.064a3.077,3.077,0,0,0,.315-.208,1.25,1.25,0,0,0,.5-.985,1.406,1.406,0,0,0-1.421-1.321" transform="translate(-52.714 -298.651)" fill="#17494d"/>
      <path id="Path_1989" data-name="Path 1989" d="M134.829,388.821V374.135a.289.289,0,0,0-.578,0v14.686" transform="translate(-128.355 -368.409)" fill="#17494d"/>
    </g>
  </g>
</svg>
