<svg xmlns="http://www.w3.org/2000/svg" width="25" height="25" viewBox="0 0 25 25">
  <g id="Group_2002" data-name="Group 2002" transform="translate(-1883 188)">
    <rect id="Rectangle_3271" data-name="Rectangle 3271" width="25" height="25" transform="translate(1883 -188)" fill="none"/>
    <g id="Group_1998" data-name="Group 1998" transform="translate(10.505 -28.5)">
      <path id="Path_2017" data-name="Path 2017" d="M671.421,9.344a6.866,6.866,0,0,0-2.382-4.49,3.964,3.964,0,0,1-1.282-1.8.3.3,0,0,0-.582,0,3.964,3.964,0,0,1-1.282,1.8,6.867,6.867,0,0,0-2.382,4.49c-.382,2.808,1.488,6.161,2.636,7.91a.3.3,0,1,0,.5-.33c-1.1-1.679-2.9-4.885-2.542-7.5a6.271,6.271,0,0,1,2.2-4.14,6.123,6.123,0,0,0,1.153-1.359,6.132,6.132,0,0,0,1.154,1.359,6.269,6.269,0,0,1,2.205,4.14c.353,2.595-1.419,5.778-2.507,7.444a.3.3,0,1,0,.5.329c2.509-3.843,2.8-6.392,2.6-7.854" transform="translate(1217.528 -158.33)" fill="#18494d"/>
      <path id="Path_2018" data-name="Path 2018" d="M683.793,51.435a.3.3,0,0,0-.362-.481l-1.27.956V50.153l2.393-1.5a.3.3,0,0,0-.32-.51l-2.073,1.3V47.492l1.632-1.228a.3.3,0,0,0-.362-.481l-1.27.956V44.471a.3.3,0,1,0-.6,0v2.268l-1.27-.956a.3.3,0,0,0-.362.481l1.632,1.228v1.952l-2.073-1.3a.3.3,0,0,0-.32.51l2.393,1.5V51.91l-1.27-.956a.3.3,0,0,0-.362.481l1.632,1.228v5.915a.3.3,0,1,0,.6,0V52.662Z" transform="translate(1203.134 -196.561)" fill="#18494d"/>
    </g>
  </g>
</svg>
