<svg xmlns="http://www.w3.org/2000/svg" width="25" height="25" viewBox="0 0 25 25">
  <g id="Group_2004" data-name="Group 2004" transform="translate(-1942 188)">
    <rect id="Rectangle_3273" data-name="Rectangle 3273" width="25" height="25" transform="translate(1942 -188)" fill="none"/>
    <g id="Group_1997" data-name="Group 1997" transform="translate(1948.76 -184)">
      <path id="Path_2013" data-name="Path 2013" d="M1071.741,50.772a.311.311,0,1,0-.228-.579l-3.584,1.41V48.721l2.188-1.484a.311.311,0,1,0-.349-.515l-1.839,1.248V44.59a.311.311,0,0,0-.623,0v3.379l-1.84-1.248a.311.311,0,1,0-.349.515l2.189,1.484V51.6l-3.584-1.41a.311.311,0,1,0-.228.579l3.812,1.5v6.466a.311.311,0,0,0,.623,0V52.271Z" transform="translate(-1061.877 -41.491)" fill="#164a4d"/>
      <path id="Path_2014" data-name="Path 2014" d="M1055.055,13.005c-.256-.288-.7-.727-1.213-1.235a17.636,17.636,0,0,1-2.765-3.1.311.311,0,0,0-.6,0,17.638,17.638,0,0,1-2.765,3.1c-.514.508-.957.947-1.213,1.235-.749.842-2.049,3.76-1.169,5.587a7.6,7.6,0,0,0,4.171,3.752.311.311,0,1,0,.225-.58,6.984,6.984,0,0,1-3.834-3.439c-.751-1.559.426-4.179,1.072-4.907.243-.274.68-.706,1.187-1.206a27,27,0,0,0,2.626-2.821,27.01,27.01,0,0,0,2.627,2.822c.506.5.943.932,1.186,1.206.646.727,1.823,3.348,1.071,4.91a6.985,6.985,0,0,1-3.833,3.436.311.311,0,0,0,.113.6.307.307,0,0,0,.112-.021,7.6,7.6,0,0,0,4.17-3.749c.881-1.83-.419-4.748-1.168-5.59" transform="translate(-1045.037 -8.441)" fill="#164a4d"/>
    </g>
  </g>
</svg>
