<svg xmlns="http://www.w3.org/2000/svg" width="25" height="25" viewBox="0 0 25 25">
  <g id="Group_2013" data-name="Group 2013" transform="translate(-1793 155)">
    <rect id="Rectangle_3268" data-name="Rectangle 3268" width="25" height="25" transform="translate(1793 -155)" fill="none"/>
    <g id="Group_2012" data-name="Group 2012" transform="translate(-23114.869 -367.588)">
      <path id="Path_2019" data-name="Path 2019" d="M1314.454,391.706c0-.007,0-.014,0-.022-.2-1.97-1.9-5.867-4.136-9.475a1.338,1.338,0,0,0-2.277,0c-2.231,3.608-3.932,7.5-4.136,9.475,0,.007,0,.014,0,.022a5.389,5.389,0,0,0-.034.595,5.311,5.311,0,0,0,10.621,0,5.386,5.386,0,0,0-.034-.595m-5.276,5.207a4.607,4.607,0,0,1-4.58-5.152c0-.009,0-.019,0-.029.2-1.856,1.9-5.7,4.033-9.155a.639.639,0,0,1,1.089,0c2.138,3.457,3.829,7.3,4.033,9.155,0,.01,0,.019,0,.029a4.605,4.605,0,0,1-4.579,5.152" transform="translate(23611.002 -164.986)" fill="#16494d"/>
      <path id="Path_2020" data-name="Path 2020" d="M1400.664,507.094a.349.349,0,0,0-.409.288s0,.009,0,.014a.349.349,0,0,0,.286.411.358.358,0,0,0,.057,0,.363.363,0,0,0,.069-.717" transform="translate(23522.938 -279.671)" fill="#16494d"/>
      <path id="Path_2021" data-name="Path 2021" d="M1378.4,518.182a.349.349,0,0,0-.466.164,3.046,3.046,0,0,1-1.607,1.508.349.349,0,0,0,.262.648,3.744,3.744,0,0,0,1.975-1.853.349.349,0,0,0-.164-.466" transform="translate(23544.996 -289.776)" fill="#16494d"/>
    </g>
  </g>
</svg>
