<svg xmlns="http://www.w3.org/2000/svg" xmlns:xlink="http://www.w3.org/1999/xlink" width="25" height="25" viewBox="0 0 25 25">
  <defs>
    <clipPath id="clip-path">
      <rect id="Rectangle_3265" data-name="Rectangle 3265" width="13.103" height="20.152" fill="#17494d" stroke="#17494d" stroke-width="1"/>
    </clipPath>
  </defs>
  <g id="Group_1957" data-name="Group 1957" transform="translate(-1913 219)">
    <rect id="Rectangle_3272" data-name="Rectangle 3272" width="25" height="25" transform="translate(1913 -219)" fill="none"/>
    <g id="Group_1951" data-name="Group 1951" transform="translate(1918.948 -216.518)">
      <g id="Group_1938" data-name="Group 1938" clip-path="url(#clip-path)">
        <path id="Line_1" data-name="Line 1" d="M-3.766,12.853a.281.281,0,0,1-.281-.281V-3.766a.281.281,0,0,1,.281-.281.281.281,0,0,1,.281.281V12.571A.281.281,0,0,1-3.766,12.853Z" transform="translate(10.346 7.299)" fill="#17494d"/>
        <path id="Path_2024" data-name="Path 2024" d="M104.753,46.038a1.143,1.143,0,0,1-.724-.243l-.105-.13-.061-.083c-.185-.412-.194-1.234.864-1.794a4.008,4.008,0,0,1,1.847-.508,1.643,1.643,0,0,1,.239.014.284.284,0,0,1,.236.321,3.638,3.638,0,0,1-1.093,1.844A1.725,1.725,0,0,1,104.753,46.038Zm-.32-.635a.808.808,0,0,0,.32.072,1.2,1.2,0,0,0,.806-.417,3.644,3.644,0,0,0,.832-1.208,3.624,3.624,0,0,0-1.4.435c-.837.443-.663.965-.64,1.023l.028.023.054.073Z" transform="translate(-96.553 -40.27)" fill="#17494d"/>
        <path id="Path_2025" data-name="Path 2025" d="M80.479,3.814h-.207c-.441-.1-1.108-.577-.93-1.761A3.638,3.638,0,0,1,80.184.082a.281.281,0,0,1,.4,0,3.638,3.638,0,0,1,.834,1.975c.173,1.185-.5,1.663-.873,1.75A.281.281,0,0,1,80.479,3.814Zm-.1-3.062A3.646,3.646,0,0,0,79.9,2.137c-.141.937.382,1.107.443,1.123l.035-.008h.062c.122-.044.545-.259.421-1.113A3.646,3.646,0,0,0,80.381.752Z" transform="translate(-73.798 0)" fill="#17494d"/>
        <path id="Path_2026" data-name="Path 2026" d="M105.635,85.53h0a1.333,1.333,0,0,1-.965-.356.282.282,0,0,1-.044-.062l-.111-.214a.281.281,0,0,1-.026-.072c-.011-.05-.237-1.238,1.6-1.924a6.462,6.462,0,0,1,2.235-.443,2.911,2.911,0,0,1,.58.047.281.281,0,0,1,.2.383,5.4,5.4,0,0,1-1.942,2.076A2.762,2.762,0,0,1,105.635,85.53Zm-.533-.723a.858.858,0,0,0,.533.16,2.226,2.226,0,0,0,1.213-.465,5.819,5.819,0,0,0,1.537-1.48,5.825,5.825,0,0,0-2.095.407c-1.223.455-1.26,1.111-1.253,1.253Z" transform="translate(-97.211 -76.726)" fill="#17494d"/>
        <path id="Path_2027" data-name="Path 2027" d="M108.292,134.3h0a1.676,1.676,0,0,1-1.561-.764.28.28,0,0,1-.025-.072l-.054-.271a.281.281,0,0,1,0-.076c0-.057.13-1.4,2.34-1.567.236-.018.459-.025.67-.025a5.636,5.636,0,0,1,2.53.482.281.281,0,0,1,.085.424,6.141,6.141,0,0,1-2.779,1.652A3.862,3.862,0,0,1,108.292,134.3Zm-1.043-.994a1.2,1.2,0,0,0,1.043.431,3.307,3.307,0,0,0,1.025-.188,6.64,6.64,0,0,0,2.23-1.193,6.642,6.642,0,0,0-2.517-.244c-1.54.115-1.781.853-1.816,1.02Z" transform="translate(-99.231 -122.384)" fill="#17494d"/>
        <path id="Path_2028" data-name="Path 2028" d="M39.75,46.038a1.725,1.725,0,0,1-1.2-.58,3.638,3.638,0,0,1-1.093-1.844.284.284,0,0,1,.236-.321,1.642,1.642,0,0,1,.239-.014,4.008,4.008,0,0,1,1.847.508c1.058.56,1.049,1.382.9,1.738l-.093.139-.061.083A1.115,1.115,0,0,1,39.75,46.038ZM38.112,43.85a3.646,3.646,0,0,0,.832,1.208,1.2,1.2,0,0,0,.806.417.621.621,0,0,0,.358-.107l.018-.036.061-.083c-.011,0,.163-.52-.674-.963A3.624,3.624,0,0,0,38.112,43.85Z" transform="translate(-34.847 -40.27)" fill="#17494d"/>
        <path id="Path_2029" data-name="Path 2029" d="M20.524,85.529a2.762,2.762,0,0,1-1.531-.564,5.4,5.4,0,0,1-1.942-2.076.281.281,0,0,1,.2-.383,2.911,2.911,0,0,1,.58-.047,6.462,6.462,0,0,1,2.235.443c1.842.686,1.615,1.873,1.6,1.924a.282.282,0,0,1-.026.072l-.111.214a.281.281,0,0,1-.044.062A1.333,1.333,0,0,1,20.524,85.529Zm-2.747-2.507a5.847,5.847,0,0,0,1.535,1.48,2.226,2.226,0,0,0,1.212.465.856.856,0,0,0,.533-.161l.065-.125c.009-.143-.023-.795-1.253-1.252A5.828,5.828,0,0,0,17.777,83.022Z" transform="translate(-15.845 -76.725)" fill="#17494d"/>
        <path id="Path_2030" data-name="Path 2030" d="M4.042,134.3a3.862,3.862,0,0,1-1.2-.217,6.14,6.14,0,0,1-2.779-1.652.281.281,0,0,1,.085-.424,5.635,5.635,0,0,1,2.53-.482c.21,0,.434.008.67.025,2.21.164,2.336,1.509,2.34,1.566a.281.281,0,0,1,0,.076l-.054.271a.281.281,0,0,1-.025.072A1.676,1.676,0,0,1,4.042,134.3ZM.788,132.36a6.639,6.639,0,0,0,2.23,1.193,3.308,3.308,0,0,0,1.025.188,1.2,1.2,0,0,0,1.044-.432l.035-.174c-.033-.159-.268-.9-1.816-1.019A6.641,6.641,0,0,0,.788,132.36Z" transform="translate(0 -122.384)" fill="#17494d"/>
        <path id="Line_2" data-name="Line 2" d="M-2.691-2.7a.28.28,0,0,1-.166-.054l-1.075-.787a.281.281,0,0,1-.061-.393A.281.281,0,0,1-3.6-3.993l1.075.787a.281.281,0,0,1,.061.393A.281.281,0,0,1-2.691-2.7Z" transform="translate(9.272 8.994)" fill="#17494d"/>
        <path id="Line_3" data-name="Line 3" d="M-3.766-2.7a.281.281,0,0,1-.227-.115.281.281,0,0,1,.061-.393l1.075-.787a.281.281,0,0,1,.393.061.281.281,0,0,1-.061.393L-3.6-2.752A.28.28,0,0,1-3.766-2.7Z" transform="translate(10.287 8.994)" fill="#17494d"/>
        <path id="Line_4" data-name="Line 4" d="M-2.691-2.7a.28.28,0,0,1-.166-.054l-1.075-.787a.281.281,0,0,1-.061-.393A.281.281,0,0,1-3.6-3.993l1.075.787a.281.281,0,0,1,.061.393A.281.281,0,0,1-2.691-2.7Z" transform="translate(9.272 11.896)" fill="#17494d"/>
        <path id="Line_5" data-name="Line 5" d="M-3.766-2.7a.281.281,0,0,1-.227-.115.281.281,0,0,1,.061-.393l1.075-.787a.281.281,0,0,1,.393.061.281.281,0,0,1-.061.393L-3.6-2.752A.28.28,0,0,1-3.766-2.7Z" transform="translate(10.287 11.896)" fill="#17494d"/>
        <path id="Path_2031" data-name="Path 2031" d="M105.424,223.065a1.725,1.725,0,0,1,1.2.58,3.638,3.638,0,0,1,1.093,1.844.284.284,0,0,1-.236.321,1.641,1.641,0,0,1-.239.014,4.008,4.008,0,0,1-1.847-.508c-1.058-.56-1.049-1.382-.9-1.738l.093-.139.061-.083A1.115,1.115,0,0,1,105.424,223.065Zm1.639,2.188a3.646,3.646,0,0,0-.832-1.208,1.2,1.2,0,0,0-.806-.417.621.621,0,0,0-.358.107l-.018.036-.061.083c.011,0-.163.52.674.963A3.623,3.623,0,0,0,107.062,225.253Z" transform="translate(-97.166 -207.555)" fill="#17494d"/>
        <path id="Path_2032" data-name="Path 2032" d="M109.153,182.463a6.462,6.462,0,0,1-2.235-.443c-1.842-.686-1.615-1.873-1.6-1.924a.281.281,0,0,1,.026-.072l.111-.214a.282.282,0,0,1,.044-.062,1.333,1.333,0,0,1,.965-.356,2.761,2.761,0,0,1,1.531.564,5.4,5.4,0,0,1,1.942,2.076.281.281,0,0,1-.2.383A2.914,2.914,0,0,1,109.153,182.463Zm-3.292-2.223c-.009.143.023.795,1.253,1.252a5.828,5.828,0,0,0,2.092.407,5.847,5.847,0,0,0-1.535-1.48,2.226,2.226,0,0,0-1.213-.465.856.856,0,0,0-.533.161Z" transform="translate(-97.977 -166.919)" fill="#17494d"/>
        <path id="Line_6" data-name="Line 6" d="M-2.691-2.7a.28.28,0,0,1-.166-.054l-1.075-.787a.281.281,0,0,1-.061-.393A.281.281,0,0,1-3.6-3.993l1.075.787a.281.281,0,0,1,.061.393A.281.281,0,0,1-2.691-2.7Z" transform="translate(10.347 19.029)" fill="#17494d"/>
        <path id="Line_7" data-name="Line 7" d="M-2.691-2.7a.28.28,0,0,1-.166-.054l-1.075-.787a.281.281,0,0,1-.061-.393A.281.281,0,0,1-3.6-3.993l1.075.787a.281.281,0,0,1,.061.393A.281.281,0,0,1-2.691-2.7Z" transform="translate(10.347 16.128)" fill="#17494d"/>
        <path id="Path_2033" data-name="Path 2033" d="M39.75,223.065a1.159,1.159,0,0,1,.724.243l.105.13.061.083c.185.412.194,1.234-.864,1.794a4.008,4.008,0,0,1-1.847.508,1.642,1.642,0,0,1-.239-.014.284.284,0,0,1-.236-.321,3.638,3.638,0,0,1,1.093-1.844A1.725,1.725,0,0,1,39.75,223.065Zm.32.635a.856.856,0,0,0-.32-.072h0a1.2,1.2,0,0,0-.806.417,3.644,3.644,0,0,0-.832,1.208,3.623,3.623,0,0,0,1.4-.435c.837-.443.663-.965.64-1.023l-.028-.023-.054-.073Z" transform="translate(-34.847 -207.555)" fill="#17494d"/>
        <path id="Path_2034" data-name="Path 2034" d="M20.524,179.392h0a1.333,1.333,0,0,1,.965.356.281.281,0,0,1,.044.062l.111.214a.281.281,0,0,1,.026.072c.011.05.237,1.238-1.6,1.924a6.462,6.462,0,0,1-2.235.443,2.914,2.914,0,0,1-.58-.047.281.281,0,0,1-.2-.383,5.4,5.4,0,0,1,1.942-2.076A2.761,2.761,0,0,1,20.524,179.392Zm.533.723a.858.858,0,0,0-.533-.16,2.226,2.226,0,0,0-1.212.465,5.847,5.847,0,0,0-1.535,1.48,5.828,5.828,0,0,0,2.092-.407c1.223-.455,1.26-1.111,1.253-1.253Z" transform="translate(-15.845 -166.919)" fill="#17494d"/>
        <path id="Line_8" data-name="Line 8" d="M-3.766-2.7a.281.281,0,0,1-.227-.115.281.281,0,0,1,.061-.393l1.075-.787a.281.281,0,0,1,.393.061.281.281,0,0,1-.061.393L-3.6-2.752A.28.28,0,0,1-3.766-2.7Z" transform="translate(9.272 19.029)" fill="#17494d"/>
        <path id="Line_9" data-name="Line 9" d="M-3.766-2.7a.281.281,0,0,1-.227-.115.281.281,0,0,1,.061-.393l1.075-.787a.281.281,0,0,1,.393.061.281.281,0,0,1-.061.393L-3.6-2.752A.28.28,0,0,1-3.766-2.7Z" transform="translate(9.272 16.128)" fill="#17494d"/>
        <path id="Line_10" data-name="Line 10" d="M-1.523-3.485H-3.766a.281.281,0,0,1-.281-.281.281.281,0,0,1,.281-.281h2.243a.281.281,0,0,1,.281.281A.281.281,0,0,1-1.523-3.485Z" transform="translate(9.146 14.66)" fill="#17494d"/>
      </g>
    </g>
  </g>
</svg>
