<svg xmlns="http://www.w3.org/2000/svg" width="25" height="25" viewBox="0 0 25 25">
  <g id="Group_1958" data-name="Group 1958" transform="translate(-1883 219)">
    <rect id="Rectangle_3271" data-name="Rectangle 3271" width="25" height="25" transform="translate(1883 -219)" fill="none"/>
    <g id="Group_1956" data-name="Group 1956" transform="translate(49.355 -87.417)">
      <path id="Path_2005" data-name="Path 2005" d="M976.381,389.351a.3.3,0,1,0-.219-.556l-4.053,1.594v-2.608l2.164-2.66a.3.3,0,0,0-.463-.377l-1.7,2.091v-1.591a.3.3,0,0,0-.6,0v1.591l-1.7-2.091a.3.3,0,1,0-.463.377l2.164,2.66v2.608l-4.053-1.594a.3.3,0,1,0-.218.556l4.271,1.68v5.181a.3.3,0,0,0,.6,0v-5.181Z" transform="translate(874.335 -507.288)" fill="#17494d"/>
      <path id="Path_2006" data-name="Path 2006" d="M937.951,346.846a.3.3,0,0,0-.17-.187l-2.508-1.063a1.751,1.751,0,0,1-1.027-1.477l-.372-4.051a.3.3,0,0,0-.468-.224l-3.586,2.376-3.586-2.376a.3.3,0,0,0-.467.224l-.372,4.051a1.751,1.751,0,0,1-1.027,1.477l-2.509,1.063a.3.3,0,0,0-.138.438A8.761,8.761,0,0,0,926,350.661l2.663,1.006a.3.3,0,1,0,.213-.565l-2.663-1.006a8.12,8.12,0,0,1-3.789-3.022l2.176-.922A2.354,2.354,0,0,0,926,344.174l.326-3.548,3.331,2.208a.3.3,0,0,0,.334,0l3.331-2.208.326,3.548a2.353,2.353,0,0,0,1.393,1.978l2.176.922a8.12,8.12,0,0,1-3.789,3.022l-2.654,1a.3.3,0,0,0,.213.565l2.654-1a8.761,8.761,0,0,0,4.283-3.564.3.3,0,0,0,.032-.251" transform="translate(916.325 -465.793)" fill="#17494d"/>
    </g>
  </g>
</svg>
