<svg id="Group_2134" data-name="Group 2134" xmlns="http://www.w3.org/2000/svg" width="62" height="62" viewBox="0 0 62 62">
  <g id="Group_2136" data-name="Group 2136">
    <path id="Path_5203" data-name="Path 5203" d="M31,0A31,31,0,1,1,0,31,31,31,0,0,1,31,0Z" fill="none"/>
    <path id="Subtraction_22" data-name="Subtraction 22" d="M.791,29.434h0L0,28.611,20.788,8.389a.568.568,0,0,1,.8.014.58.58,0,0,1-.014.812L.792,29.433ZM8,28.579a1.488,1.488,0,0,1-.353-.042A1.673,1.673,0,0,1,6.62,27.8c-.021-.034-.041-.068-.062-.1l-.035-.059c-.107-.187-.134-.221-.187-.242a.216.216,0,0,0-.066-.014H6.262a.564.564,0,0,1-.131.015.573.573,0,0,1-.559-.449.585.585,0,0,1,.431-.7,1.129,1.129,0,0,1,.261-.029,1.379,1.379,0,0,1,.487.092,1.488,1.488,0,0,1,.77.742l.025.042.051.084a.523.523,0,0,0,.315.226A.34.34,0,0,0,8,27.419a.228.228,0,0,0,.237-.244,2.359,2.359,0,0,0-.155-.739.958.958,0,0,0-.034-.09l0-.006a.989.989,0,0,1,.171-1.187.818.818,0,0,1,.532-.2,1.483,1.483,0,0,1,.866.389l.051.041c.176.137.362.268.543.395l.089.063.128.091c.045.031.089.062.131.092l.022.016a2.092,2.092,0,0,0,.625.348,1.015,1.015,0,0,0,.253.032.884.884,0,0,0,.2-.021.769.769,0,0,0,.568-.52,1.01,1.01,0,0,0-.192-.968c-.025-.031-.052-.061-.079-.091l-.01-.011-.041-.047a2.01,2.01,0,0,1-.451-.658A1.169,1.169,0,0,1,11.8,22.76a1.128,1.128,0,0,1,.691-.226,1.569,1.569,0,0,1,.514.092c.2.066.4.116.621.168l.042.011c.1.023.206.048.313.077L18.6,24.064c.213.057.437.114.746.192.083.021.166.043.25.065a5.076,5.076,0,0,0,.589.136,1.55,1.55,0,0,0,.21.015,1.276,1.276,0,0,0,.9-.35,1.654,1.654,0,0,0-.126-2.229,2.78,2.78,0,0,0-.685-.524,7.342,7.342,0,0,1-.925-.681c-.044-.036-.082-.065-.121-.095a1.794,1.794,0,0,1-.69-.841,1.164,1.164,0,0,1,.566-1.424,1.118,1.118,0,0,1,.5-.105c.046,0,.095,0,.148.006s.122.006.2.006h.119l3.7-.019.352,0,.352,0a1.029,1.029,0,0,0,.566-.122.817.817,0,0,0,.345-.8,1.367,1.367,0,0,0-.5-.87,1.976,1.976,0,0,0-.46-.249l-.021-.009c-.053-.022-.107-.047-.161-.072-.256-.118-.511-.249-.73-.362l-.136-.07-.135-.07-.08-.037-.1-.046c-.429-.2-1.229-.574-1.187-1.463.047-1.072,1.166-1.108,1.587-1.121l.076,0h.009c.039,0,.076,0,.111-.007l2.488-.185L26.6,12.7c.157-.011.315-.023.473-.036.114-.009.231-.016.348-.022.182-.01.385-.022.568-.05A.75.75,0,0,0,28.66,12a1.249,1.249,0,0,0-.4-1.105,1.62,1.62,0,0,0-.639-.335c-.284-.092-.5-.16-.694-.221l-.536-.172c-.108-.037-.221-.072-.33-.107l-.013,0L26,10.042l-.051-.015a2.472,2.472,0,0,1-.439-.161,1.415,1.415,0,0,1-.729-.94A1.059,1.059,0,0,1,24.975,8a1.69,1.69,0,0,1,1.3-.516,14.261,14.261,0,0,0,1.756-.115.759.759,0,0,0,.586-.416,1,1,0,0,0-.033-.922,4.1,4.1,0,0,0-.318-.489l-.014-.02-.039-.056c-.046-.065-.091-.129-.134-.194a1.33,1.33,0,0,1-.226-1.307,1.828,1.828,0,0,1,.482-.564c.049-.042.09-.078.126-.112a1.13,1.13,0,0,0,.338-.461,1.127,1.127,0,0,0-.2-.934,1.3,1.3,0,0,0-.927-.579l-.072,0c-.285,0-.515.139-.877.529l-.011.014a1.244,1.244,0,0,1-.9.479,1.1,1.1,0,0,1-.2-.02,2.007,2.007,0,0,1-.846-.456l-.007-.005c-.026-.019-.052-.039-.076-.059l-.041-.032L24.6,1.733l-.019-.014a2.338,2.338,0,0,0-.622-.375,1.026,1.026,0,0,0-.332-.056.955.955,0,0,0-.182.017.778.778,0,0,0-.615.71c-.062.454-.1.933-.144,1.355l0,.064-.031.338-.017.191a1.316,1.316,0,0,1-.626,1.108,1.1,1.1,0,0,1-.536.137,1.27,1.27,0,0,1-.714-.227,1.645,1.645,0,0,1-.634-1.041l0-.02q-.042-.16-.088-.319l-.017-.06L20,3.458c-.046-.156-.105-.363-.16-.583L19.79,2.7a2.358,2.358,0,0,0-.532-1.2,1.227,1.227,0,0,0-.821-.341.957.957,0,0,0-.247.032.712.712,0,0,0-.515.5,2.479,2.479,0,0,0-.074.5l0,.051,0,.018,0,.06c0,.067-.011.136-.017.2L17.454,3.6c-.033.321-.069.644-.105.967q-.067.58-.131,1.162c-.008.071-.014.143-.02.214,0,.032,0,.064-.007.1a6.459,6.459,0,0,1-.087.734,1.1,1.1,0,0,1-.986.92c-.039,0-.076.005-.111.005a1.354,1.354,0,0,1-.991-.453,1.554,1.554,0,0,1-.281-.5l-.015-.037c-.056-.136-.12-.287-.205-.475l-.039-.084c-.041-.09-.082-.181-.125-.27-.077-.163-.191-.407-.3-.651-.022-.056-.045-.11-.067-.165l0-.009a1.965,1.965,0,0,0-.3-.563,1.228,1.228,0,0,0-.9-.442c-.026,0-.053,0-.079,0a.781.781,0,0,0-.636.393A1.261,1.261,0,0,0,11.958,5l-.009.25c0,.086-.006.168-.009.25,0,.172-.009.343-.016.515l-.09,2.263,0,.026c-.01.271-.021.579-.044.878-.008.129-.016.266-.011.391,0,.011,0,.023,0,.035s0,.024,0,.035V9.65a1.486,1.486,0,0,1-.039.5,1.124,1.124,0,0,1-1.084.794,1.177,1.177,0,0,1-.194-.016,1.617,1.617,0,0,1-1.016-.749l-.1-.13-.017-.022-.046-.059-.015-.02a6.083,6.083,0,0,1-.5-.734l-.079-.14A3.089,3.089,0,0,0,8.32,8.5a1.945,1.945,0,0,0-1.436-.689A1.242,1.242,0,0,0,5.606,9a3.005,3.005,0,0,0,.1.751l1.4,6.493c.012.05.025.1.042.155l.008.024a1.614,1.614,0,0,1,.07.909,1.147,1.147,0,0,1-.914.816,1.176,1.176,0,0,1-.181.014,1.418,1.418,0,0,1-1.052-.527,1.268,1.268,0,0,0-.924-.432,1.008,1.008,0,0,0-.168.014.71.71,0,0,0-.559.432,1.212,1.212,0,0,0,.191,1.09c.128.2.26.4.388.595l.007.01c.06.089.118.178.176.268l.036.056c.022.033.048.065.073.1l.026.036a1.347,1.347,0,0,1,.386,1.015.819.819,0,0,1-.4.626.861.861,0,0,1-.431.109,1.381,1.381,0,0,1-.539-.123,3.27,3.27,0,0,0-.78-.231.4.4,0,0,0-.062-.005.259.259,0,0,0-.177.062.215.215,0,0,0-.072.181.549.549,0,0,0,.144.334.971.971,0,0,0,.192.133,1.579,1.579,0,0,1,.588.538,1.272,1.272,0,0,1-.029,1.429.578.578,0,0,1-.455.221.568.568,0,0,1-.354-.124.4.4,0,0,1-.059-.054.584.584,0,0,1-.052-.744.228.228,0,0,0-.033-.125A.606.606,0,0,0,2,22.9l-.021-.013a1.838,1.838,0,0,1-.421-.325,1.691,1.691,0,0,1-.456-1.1,1.377,1.377,0,0,1,.469-1.085,1.424,1.424,0,0,1,.936-.344,1.481,1.481,0,0,1,.25.021c.124.022.27.05.408.088L3,19.9c-.119-.183-.231-.356-.343-.53A2.326,2.326,0,0,1,2.371,17.2,1.857,1.857,0,0,1,3.8,16.075a2.113,2.113,0,0,1,.355-.03,2.425,2.425,0,0,1,1.779.812A.482.482,0,0,0,6.118,17a1.854,1.854,0,0,0-.054-.21l-.01-.034-.009-.028c-.021-.071-.045-.152-.063-.237L4.581,10a4.026,4.026,0,0,1-.127-1.053,2.4,2.4,0,0,1,2.434-2.3,3.078,3.078,0,0,1,2.3,1.087A4.158,4.158,0,0,1,9.7,8.5l.079.141a5.17,5.17,0,0,0,.429.617l.021.029.051.067.09.119a1.294,1.294,0,0,0,.271.305c0-.024,0-.052,0-.079s0-.063,0-.094c0-.178,0-.35.016-.509.02-.283.031-.579.041-.84l0-.03.088-2.266c.006-.167.013-.334.018-.5s.009-.339.016-.509a2.379,2.379,0,0,1,.246-1.044,1.93,1.93,0,0,1,1.553-1c.058,0,.117-.008.177-.008a2.362,2.362,0,0,1,1.769.84,2.941,2.941,0,0,1,.5.9l.062.15c.078.185.161.364.277.611.028.061.057.122.086.183l.085.183c.1.219.165.375.226.524l.014.038.007.016,0,.005a.663.663,0,0,0,.065.135.237.237,0,0,0,.1.063c.03-.162.046-.338.063-.525l0-.058,0-.034c.008-.105.017-.212.026-.314.023-.206.046-.412.069-.617l0-.021q.031-.266.06-.532l.108-.963L16.429,2.4c.006-.054.011-.108.015-.162,0-.028,0-.055.006-.082V2.147a3.93,3.93,0,0,1,.124-.794A1.858,1.858,0,0,1,17.892.071,2.086,2.086,0,0,1,18.435,0a2.376,2.376,0,0,1,1.61.657,3.335,3.335,0,0,1,.861,1.753v.007l.043.167c.041.158.085.317.128.472l.007.022.017.06c.045.161.09.321.133.482l0,.016c.061.231.095.336.164.382a.15.15,0,0,0,.048.025.684.684,0,0,0,.038-.187c.012-.116.021-.231.031-.347l.008-.088.008-.09,0-.051c.037-.414.083-.929.148-1.42A1.939,1.939,0,0,1,23.229.167a2.034,2.034,0,0,1,.4-.039,2.243,2.243,0,0,1,.69.111A3.362,3.362,0,0,1,25.287.8l.041.032c.045.034.093.07.138.106a2,2,0,0,0,.315.219c.029-.029.065-.067.093-.1l.011-.013A2.323,2.323,0,0,1,27.6.153c.056,0,.112,0,.167.007a2.441,2.441,0,0,1,1.781,1.072,2.3,2.3,0,0,1,.365,1.912,2.2,2.2,0,0,1-.643.975c-.051.049-.109.1-.181.163-.052.043-.119.1-.164.149a1.163,1.163,0,0,0,.11.19l.158.226,0,.006,0,.005a5.122,5.122,0,0,1,.4.633,2.178,2.178,0,0,1,.038,2A1.9,1.9,0,0,1,28.189,8.52a15.16,15.16,0,0,1-1.9.124,1.032,1.032,0,0,0-.374.061.254.254,0,0,0,.117.127,1.37,1.37,0,0,0,.231.079l.063.019.063.019c.114.035.229.072.34.108l.014,0,.532.169.261.084.1.032.342.11a2.742,2.742,0,0,1,1.068.59,2.378,2.378,0,0,1,.739,2.19,1.9,1.9,0,0,1-1.623,1.505c-.206.03-.414.043-.6.054l-.075,0-.068,0-.035,0h-.022c-.065,0-.13.007-.194.013-.243.021-.486.039-.73.057l-2.486.188-.1,0h-.024l-.114,0a2.4,2.4,0,0,0-.464.043c.053.118.337.249.507.327.067.031.137.064.214.1l.137.07.008,0,.135.068c.273.142.473.243.684.339l.053.023.092.042a3.061,3.061,0,0,1,.736.412,2.526,2.526,0,0,1,.922,1.643,1.963,1.963,0,0,1-.874,1.917,2.171,2.171,0,0,1-1.17.3l-.355,0-.353,0-3.694.018h-.163c-.1,0-.175,0-.25-.008h-.036c.024.073.165.184.278.273l.024.019c.039.028.082.062.135.106a6.483,6.483,0,0,0,.791.585,3.928,3.928,0,0,1,.954.744,2.805,2.805,0,0,1,.074,3.846,2.415,2.415,0,0,1-1.7.676,2.655,2.655,0,0,1-.374-.027,5.844,5.844,0,0,1-.673-.149l-.053-.014-.117-.031-.115-.032c-.157-.039-.315-.078-.473-.119l-.062-.015-.22-.056L13.7,24.006l-.2-.048-.038-.009-.056-.013-.043-.01-.014,0c-.233-.057-.475-.115-.717-.2a.583.583,0,0,0-.105-.027,1.116,1.116,0,0,0,.21.27c.073.078.131.144.185.208a2.168,2.168,0,0,1,.384,2.084,1.931,1.931,0,0,1-1.414,1.271,2.03,2.03,0,0,1-.434.047,2.14,2.14,0,0,1-.54-.07,3.059,3.059,0,0,1-1.015-.53l-.014-.01-.179-.127-.074-.051c-.113-.079-.223-.156-.324-.23a2.807,2.807,0,0,1,.074.642,1.41,1.41,0,0,1-.531,1.089A1.368,1.368,0,0,1,8,28.579Z" transform="translate(9.993 31.195) rotate(-45)" fill="#00ad74" stroke="rgba(0,0,0,0)" stroke-miterlimit="10" stroke-width="1"/>
  </g>
</svg>
