<svg xmlns="http://www.w3.org/2000/svg" width="62" height="62" viewBox="0 0 62 62">
  <g id="Group_2139" data-name="Group 2139" transform="translate(3322 1836)">
    <path id="Path_5208" data-name="Path 5208" d="M31,0A31,31,0,1,1,0,31,31,31,0,0,1,31,0Z" transform="translate(-3322 -1836)" fill="none"/>
    <g id="Group_2132" data-name="Group 2132" transform="translate(-3307.457 -1817.567)">
      <path id="Path_2005" data-name="Path 2005" d="M985.9,394.165a.6.6,0,0,0-.442-1.123l-8.189,3.221v-5.27l4.372-5.375a.6.6,0,0,0-.936-.761l-3.436,4.225v-3.215a.6.6,0,0,0-1.207,0v3.215l-3.436-4.224a.6.6,0,1,0-.936.761l4.372,5.375v5.27l-8.189-3.221a.6.6,0,1,0-.441,1.123l8.63,3.394v10.469a.6.6,0,0,0,1.207,0V397.56Z" transform="translate(-960.21 -377.873)" fill="#00ad74"/>
      <path id="Path_2006" data-name="Path 2006" d="M954.562,354.043a.609.609,0,0,0-.344-.378l-5.068-2.147a3.538,3.538,0,0,1-2.075-2.984l-.751-8.185a.61.61,0,0,0-.945-.453l-7.246,4.8-7.246-4.8a.61.61,0,0,0-.945.453l-.752,8.185a3.538,3.538,0,0,1-2.075,2.984l-5.069,2.147a.61.61,0,0,0-.279.885,17.7,17.7,0,0,0,8.654,7.2l5.381,2.032a.61.61,0,0,0,.431-1.142l-5.381-2.032A16.407,16.407,0,0,1,923.2,354.5l4.4-1.862a4.756,4.756,0,0,0,2.815-4l.658-7.168,6.731,4.461a.611.611,0,0,0,.674,0l6.731-4.461.658,7.168a4.756,4.756,0,0,0,2.815,4l4.4,1.862a16.407,16.407,0,0,1-7.657,6.106l-5.362,2.025a.61.61,0,0,0,.431,1.142l5.362-2.025a17.7,17.7,0,0,0,8.654-7.2.61.61,0,0,0,.064-.507" transform="translate(-921.675 -339.793)" fill="#00ad74"/>
    </g>
  </g>
</svg>
