<svg xmlns="http://www.w3.org/2000/svg" xmlns:xlink="http://www.w3.org/1999/xlink" width="34" height="34" viewBox="0 0 34 34">
  <defs>
    <clipPath id="clip-path">
      <rect id="Rectangle_3265" data-name="Rectangle 3265" width="16.27" height="25.022" fill="#009b72" stroke="#17494d" stroke-width="1"/>
    </clipPath>
  </defs>
  <g id="Group_2244" data-name="Group 2244" transform="translate(6109 7895)">
    <rect id="Rectangle_3414" data-name="Rectangle 3414" width="34" height="34" transform="translate(-6109 -7895)" fill="none"/>
    <g id="Group_2238" data-name="Group 2238" transform="translate(-6100 -7891)">
      <g id="Group_1938" data-name="Group 1938" transform="translate(0 0)" clip-path="url(#clip-path)">
        <path id="Line_1" data-name="Line 1" d="M-3.7,16.937a.349.349,0,0,1-.349-.349V-3.7A.349.349,0,0,1-3.7-4.048a.349.349,0,0,1,.349.349V16.588A.349.349,0,0,1-3.7,16.937Z" transform="translate(11.869 8.085)" fill="#009b72"/>
        <path id="Path_2024" data-name="Path 2024" d="M104.991,46.7a1.419,1.419,0,0,1-.9-.3l-.13-.162-.076-.1c-.229-.512-.241-1.532,1.073-2.228a4.977,4.977,0,0,1,2.294-.631,2.041,2.041,0,0,1,.3.017.353.353,0,0,1,.293.4,4.517,4.517,0,0,1-1.358,2.289A2.142,2.142,0,0,1,104.991,46.7Zm-.4-.788a1,1,0,0,0,.4.089,1.485,1.485,0,0,0,1-.517,4.525,4.525,0,0,0,1.033-1.5,4.5,4.5,0,0,0-1.739.54c-1.039.55-.823,1.2-.8,1.27l.034.029.067.091S104.592,45.917,104.593,45.917Z" transform="translate(-94.809 -39.543)" fill="#009b72"/>
        <path id="Path_2025" data-name="Path 2025" d="M80.761,4.736H80.5c-.548-.119-1.376-.716-1.155-2.186A4.517,4.517,0,0,1,80.394.1a.349.349,0,0,1,.494,0,4.518,4.518,0,0,1,1.035,2.452c.215,1.471-.615,2.065-1.084,2.173A.35.35,0,0,1,80.761,4.736Zm-.122-3.8a4.527,4.527,0,0,0-.6,1.719c-.175,1.163.475,1.374.55,1.394l.044-.01h.077c.151-.054.677-.322.522-1.382A4.527,4.527,0,0,0,80.639.934Z" transform="translate(-72.465 0)" fill="#009b72"/>
        <path id="Path_2026" data-name="Path 2026" d="M105.915,86.272h0a1.656,1.656,0,0,1-1.2-.442.35.35,0,0,1-.055-.078l-.138-.266a.349.349,0,0,1-.032-.089c-.013-.062-.295-1.537,1.992-2.388a8.023,8.023,0,0,1,2.776-.55,3.615,3.615,0,0,1,.72.058.349.349,0,0,1,.247.476,6.7,6.7,0,0,1-2.411,2.578A3.429,3.429,0,0,1,105.915,86.272Zm-.661-.9a1.065,1.065,0,0,0,.661.2A2.764,2.764,0,0,0,107.421,85a7.225,7.225,0,0,0,1.909-1.837,7.234,7.234,0,0,0-2.6.505c-1.519.565-1.564,1.38-1.555,1.556Z" transform="translate(-95.455 -75.34)" fill="#009b72"/>
        <path id="Path_2027" data-name="Path 2027" d="M108.689,134.975h0a2.081,2.081,0,0,1-1.938-.949.348.348,0,0,1-.031-.09l-.067-.336a.35.35,0,0,1-.006-.095c.005-.071.162-1.741,2.906-1.945.293-.022.57-.031.831-.031a7,7,0,0,1,3.142.6.349.349,0,0,1,.105.526,7.624,7.624,0,0,1-3.45,2.051A4.8,4.8,0,0,1,108.689,134.975Zm-1.3-1.235a1.487,1.487,0,0,0,1.3.536,4.107,4.107,0,0,0,1.272-.234,8.245,8.245,0,0,0,2.768-1.481,8.247,8.247,0,0,0-3.125-.3c-1.913.142-2.211,1.059-2.255,1.266Z" transform="translate(-97.439 -120.174)" fill="#009b72"/>
        <path id="Path_2028" data-name="Path 2028" d="M40.306,46.7a2.142,2.142,0,0,1-1.493-.72A4.517,4.517,0,0,1,37.455,43.7a.353.353,0,0,1,.293-.4,2.04,2.04,0,0,1,.3-.017,4.977,4.977,0,0,1,2.294.631c1.314.7,1.3,1.716,1.113,2.158l-.116.173-.076.1A1.384,1.384,0,0,1,40.306,46.7Zm-2.034-2.717a4.527,4.527,0,0,0,1.033,1.5,1.485,1.485,0,0,0,1,.517.771.771,0,0,0,.444-.133l.022-.045.076-.1c-.014,0,.2-.646-.837-1.2A4.5,4.5,0,0,0,38.272,43.988Z" transform="translate(-34.218 -39.543)" fill="#009b72"/>
        <path id="Path_2029" data-name="Path 2029" d="M21.369,86.271a3.429,3.429,0,0,1-1.9-.7,6.7,6.7,0,0,1-2.411-2.578.349.349,0,0,1,.247-.476,3.613,3.613,0,0,1,.72-.058,8.024,8.024,0,0,1,2.776.55c2.287.851,2.005,2.326,1.992,2.389a.35.35,0,0,1-.032.089l-.138.266a.35.35,0,0,1-.055.077A1.655,1.655,0,0,1,21.369,86.271Zm-3.411-3.113A7.261,7.261,0,0,0,19.863,85a2.764,2.764,0,0,0,1.506.577,1.062,1.062,0,0,0,.662-.2l.08-.155c.011-.178-.029-.987-1.556-1.555A7.237,7.237,0,0,0,17.958,83.158Z" transform="translate(-15.559 -75.339)" fill="#009b72"/>
        <path id="Path_2030" data-name="Path 2030" d="M5.019,134.975a4.8,4.8,0,0,1-1.492-.27,7.624,7.624,0,0,1-3.45-2.051.349.349,0,0,1,.105-.526,7,7,0,0,1,3.142-.6c.261,0,.538.01.831.031,2.744.2,2.9,1.874,2.906,1.945a.349.349,0,0,1-.006.095l-.067.336a.348.348,0,0,1-.031.09A2.081,2.081,0,0,1,5.019,134.975ZM.978,132.561a8.244,8.244,0,0,0,2.768,1.481,4.107,4.107,0,0,0,1.272.234,1.488,1.488,0,0,0,1.3-.537l.043-.216c-.041-.2-.333-1.122-2.255-1.265A8.246,8.246,0,0,0,.978,132.561Z" transform="translate(0 -120.174)" fill="#009b72"/>
        <path id="Line_2" data-name="Line 2" d="M-2.364-2.371a.348.348,0,0,1-.206-.068L-3.9-3.416A.349.349,0,0,1-3.98-3.9a.349.349,0,0,1,.488-.075L-2.157-3a.349.349,0,0,1,.075.488A.349.349,0,0,1-2.364-2.371Z" transform="translate(10.534 10.189)" fill="#009b72"/>
        <path id="Line_3" data-name="Line 3" d="M-3.7-2.371a.349.349,0,0,1-.282-.143A.349.349,0,0,1-3.9-3L-2.57-3.98a.349.349,0,0,1,.488.075.349.349,0,0,1-.075.488l-1.335.978A.348.348,0,0,1-3.7-2.371Z" transform="translate(11.794 10.189)" fill="#009b72"/>
        <path id="Line_4" data-name="Line 4" d="M-2.364-2.371a.348.348,0,0,1-.206-.068L-3.9-3.416A.349.349,0,0,1-3.98-3.9a.349.349,0,0,1,.488-.075L-2.157-3a.349.349,0,0,1,.075.488A.349.349,0,0,1-2.364-2.371Z" transform="translate(10.534 13.792)" fill="#009b72"/>
        <path id="Line_5" data-name="Line 5" d="M-3.7-2.371a.349.349,0,0,1-.282-.143A.349.349,0,0,1-3.9-3L-2.57-3.98a.349.349,0,0,1,.488.075.349.349,0,0,1-.075.488l-1.335.978A.348.348,0,0,1-3.7-2.371Z" transform="translate(11.794 13.792)" fill="#009b72"/>
        <path id="Path_2031" data-name="Path 2031" d="M105.664,223.065a2.142,2.142,0,0,1,1.493.72,4.517,4.517,0,0,1,1.358,2.289.353.353,0,0,1-.293.4,2.042,2.042,0,0,1-.3.017,4.977,4.977,0,0,1-2.294-.631c-1.314-.7-1.3-1.716-1.113-2.158l.116-.173.076-.1A1.384,1.384,0,0,1,105.664,223.065Zm2.034,2.717a4.527,4.527,0,0,0-1.033-1.5,1.485,1.485,0,0,0-1-.517.771.771,0,0,0-.444.133l-.022.045-.076.1c.014,0-.2.645.837,1.2A4.5,4.5,0,0,0,107.7,225.782Z" transform="translate(-95.411 -203.806)" fill="#009b72"/>
        <path id="Path_2032" data-name="Path 2032" d="M110.085,183.205a8.023,8.023,0,0,1-2.776-.55c-2.287-.851-2.005-2.326-1.992-2.388a.35.35,0,0,1,.032-.089l.138-.266a.349.349,0,0,1,.055-.078,1.655,1.655,0,0,1,1.2-.442,3.429,3.429,0,0,1,1.9.7,6.7,6.7,0,0,1,2.411,2.578.349.349,0,0,1-.247.476A3.616,3.616,0,0,1,110.085,183.205ZM106,180.445c-.011.178.029.987,1.556,1.555a7.237,7.237,0,0,0,2.6.506,7.26,7.26,0,0,0-1.906-1.837,2.765,2.765,0,0,0-1.506-.577,1.063,1.063,0,0,0-.662.2Z" transform="translate(-96.208 -163.904)" fill="#009b72"/>
        <path id="Line_6" data-name="Line 6" d="M-2.364-2.371a.348.348,0,0,1-.206-.068L-3.9-3.416A.349.349,0,0,1-3.98-3.9a.349.349,0,0,1,.488-.075L-2.157-3a.349.349,0,0,1,.075.488A.349.349,0,0,1-2.364-2.371Z" transform="translate(11.869 22.65)" fill="#009b72"/>
        <path id="Line_7" data-name="Line 7" d="M-2.364-2.371a.348.348,0,0,1-.206-.068L-3.9-3.416A.349.349,0,0,1-3.98-3.9a.349.349,0,0,1,.488-.075L-2.157-3a.349.349,0,0,1,.075.488A.349.349,0,0,1-2.364-2.371Z" transform="translate(11.869 19.047)" fill="#009b72"/>
        <path id="Path_2033" data-name="Path 2033" d="M40.306,223.065a1.439,1.439,0,0,1,.9.3l.13.162.076.1c.229.512.241,1.532-1.073,2.228a4.977,4.977,0,0,1-2.294.631,2.043,2.043,0,0,1-.3-.017.353.353,0,0,1-.293-.4,4.517,4.517,0,0,1,1.358-2.289A2.142,2.142,0,0,1,40.306,223.065Zm.4.788a1.063,1.063,0,0,0-.4-.089h0a1.485,1.485,0,0,0-1,.517,4.525,4.525,0,0,0-1.033,1.5,4.5,4.5,0,0,0,1.739-.54c1.039-.55.823-1.2.8-1.27l-.034-.029-.067-.091S40.7,223.853,40.7,223.853Z" transform="translate(-34.218 -203.806)" fill="#009b72"/>
        <path id="Path_2034" data-name="Path 2034" d="M21.369,179.392h0a1.656,1.656,0,0,1,1.2.442.349.349,0,0,1,.055.077l.138.266a.349.349,0,0,1,.032.089c.013.062.295,1.537-1.992,2.389a8.024,8.024,0,0,1-2.776.55,3.616,3.616,0,0,1-.72-.058.349.349,0,0,1-.247-.476,6.7,6.7,0,0,1,2.411-2.578A3.429,3.429,0,0,1,21.369,179.392Zm.662.9a1.065,1.065,0,0,0-.661-.2,2.764,2.764,0,0,0-1.506.577,7.261,7.261,0,0,0-1.906,1.837,7.238,7.238,0,0,0,2.6-.506c1.519-.565,1.565-1.38,1.555-1.556Z" transform="translate(-15.559 -163.904)" fill="#009b72"/>
        <path id="Line_8" data-name="Line 8" d="M-3.7-2.371a.349.349,0,0,1-.282-.143A.349.349,0,0,1-3.9-3L-2.57-3.98a.349.349,0,0,1,.488.075.349.349,0,0,1-.075.488l-1.335.978A.348.348,0,0,1-3.7-2.371Z" transform="translate(10.534 22.65)" fill="#009b72"/>
        <path id="Line_9" data-name="Line 9" d="M-3.7-2.371a.349.349,0,0,1-.282-.143A.349.349,0,0,1-3.9-3L-2.57-3.98a.349.349,0,0,1,.488.075.349.349,0,0,1-.075.488l-1.335.978A.348.348,0,0,1-3.7-2.371Z" transform="translate(10.534 19.047)" fill="#009b72"/>
        <path id="Line_10" data-name="Line 10" d="M-.913-3.349H-3.7A.349.349,0,0,1-4.048-3.7.349.349,0,0,1-3.7-4.048H-.913A.349.349,0,0,1-.564-3.7.349.349,0,0,1-.913-3.349Z" transform="translate(10.378 17.225)" fill="#009b72"/>
      </g>
    </g>
  </g>
</svg>
