<svg xmlns="http://www.w3.org/2000/svg" width="62" height="62" viewBox="0 0 62 62">
  <g id="Group_2138" data-name="Group 2138" transform="translate(3217.979 1836.262)">
    <path id="Path_5210" data-name="Path 5210" d="M31,0A31,31,0,1,1,0,31,31,31,0,0,1,31,0Z" transform="translate(-3217.979 -1836.262)" fill="none"/>
    <path id="Path_5207" data-name="Path 5207" d="M275.5,341.129v-1.518a.573.573,0,0,0,.143-.307l5.222-5.222a.578.578,0,0,0-.817-.817l-4.547,4.547v-2.358a.572.572,0,0,0,.139-.3l6.482-6.481a.578.578,0,0,0-.817-.818l-5.8,5.8V331.3a.571.571,0,0,0,.135-.289l8.033-8.032a.578.578,0,0,0-.817-.818l-7.35,7.35v-2.367a.571.571,0,0,0,.131-.281l7.942-7.941a.578.578,0,0,0-.817-.818l-7.255,7.255v-2.371a.571.571,0,0,0,.127-.272l6.5-6.5a.578.578,0,1,0-.818-.818l-5.805,5.806v-2.376a.575.575,0,0,0,.123-.264l5.736-5.736a.578.578,0,0,0-.818-.817l-5.042,5.041v-2.381a.572.572,0,0,0,.119-.255l4.454-4.454a.578.578,0,1,0-.818-.817L275.5,312.9v-2.385a.574.574,0,0,0,.115-.246l3.582-3.582a.578.578,0,0,0-.817-.818l-2.88,2.88v-2.39a.571.571,0,0,0,.11-.237l2.222-2.222a.578.578,0,0,0-.818-.817L275.5,304.6v-2.339a.578.578,0,0,0-1.156,0v2.232l-1.395-1.395a.578.578,0,0,0-.818.817l2.212,2.212v2.513l-2.758-2.758a.578.578,0,0,0-.818.817l3.576,3.575v2.513l-3.63-3.63a.578.578,0,0,0-.817.817l4.448,4.448v2.513l-4.915-4.914a.578.578,0,1,0-.817.817l5.732,5.732v2.513l-5.676-5.676a.578.578,0,0,0-.817.818l6.493,6.493v2.513l-7.123-7.123a.578.578,0,0,0-.817.817l7.941,7.941v2.513l-7.214-7.214a.578.578,0,1,0-.818.817l8.032,8.032v2.513l-5.662-5.662a.578.578,0,0,0-.817.817l6.48,6.48v2.513l-4.4-4.4a.578.578,0,0,0-.817.817l5.22,5.22v1.815" transform="translate(-3462.125 -2126.668)" fill="#00ad74"/>
  </g>
</svg>
