<svg xmlns="http://www.w3.org/2000/svg" width="62" height="62" viewBox="0 0 62 62">
  <g id="Group_2137" data-name="Group 2137" transform="translate(3127 1836)">
    <path id="Path_5209" data-name="Path 5209" d="M31,0A31,31,0,1,1,0,31,31,31,0,0,1,31,0Z" transform="translate(-3127 -1836)" fill="none"/>
    <g id="Group_2133" data-name="Group 2133" transform="translate(-3112.213 -1821.595)">
      <path id="Path_1990" data-name="Path 1990" d="M458.043,357.776l6.811-5.461a.612.612,0,0,0-.03-.978l-.063-.044a2.859,2.859,0,0,1-1.112-3.07l.733-2.728a.612.612,0,0,0-.682-.764l-2.227.334a2.847,2.847,0,0,1-2.959-1.52.612.612,0,0,0-.962-.169L455.807,345a.565.565,0,0,1-.938-.529l1.2-5.74a.612.612,0,0,0-.828-.693,3.746,3.746,0,0,1-4.663-1.639l-1.3-2.326a.612.612,0,0,0-1.068,0l-1.3,2.326a3.745,3.745,0,0,1-4.662,1.639.612.612,0,0,0-.828.693l1.2,5.74a.565.565,0,0,1-.938.529l-1.745-1.626a.612.612,0,0,0-.962.169,2.848,2.848,0,0,1-2.959,1.52l-2.226-.334a.612.612,0,0,0-.682.764l.733,2.728a2.86,2.86,0,0,1-1.113,3.07l-.062.044a.612.612,0,0,0-.03.977l6.81,5.461a1.634,1.634,0,0,1,.54,1.775l-.521,1.658a.612.612,0,0,0,.7.784l5.846-1.141a1.207,1.207,0,0,1,.463,0,.612.612,0,1,0,.234-1.2,2.411,2.411,0,0,0-.931,0l-4.837.944.213-.677a2.849,2.849,0,0,0-.942-3.1l-6.228-4.994a4.091,4.091,0,0,0,1.039-3.922l-.491-1.826,1.3.2a4.073,4.073,0,0,0,3.8-1.505l1.21,1.128a1.788,1.788,0,0,0,2.97-1.675l-1-4.755A4.975,4.975,0,0,0,447.978,337l.769-1.372.768,1.372a4.975,4.975,0,0,0,5.154,2.468l-1,4.755a1.789,1.789,0,0,0,2.97,1.676l1.21-1.128a4.07,4.07,0,0,0,3.8,1.505l1.3-.2-.491,1.826a4.091,4.091,0,0,0,1.039,3.922l-6.228,4.994a2.85,2.85,0,0,0-.942,3.1l.213.677-4.837-.944a2.415,2.415,0,0,0-.987.011.612.612,0,0,0,.263,1.2,1.2,1.2,0,0,1,.49,0l5.846,1.141a.631.631,0,0,0,.117.011.612.612,0,0,0,.584-.8l-.521-1.658a1.634,1.634,0,0,1,.54-1.775" transform="translate(-432.41 -333.763)" fill="#00ad74"/>
      <path id="Path_1991" data-name="Path 1991" d="M495.381,396.2a.6.6,0,0,0-.76-.941l-8.131,6.566v-14.38a.6.6,0,1,0-1.209,0v14.38l-8.131-6.566a.6.6,0,0,0-.76.941l8.891,7.179v7.5a.6.6,0,1,0,1.209,0v-7.5Z" transform="translate(-469.549 -378.814)" fill="#00ad74"/>
    </g>
  </g>
</svg>
