<svg xmlns="http://www.w3.org/2000/svg" xmlns:xlink="http://www.w3.org/1999/xlink" width="62" height="62" viewBox="0 0 62 62">
  <defs>
    <clipPath id="clip-path">
      <rect id="Rectangle_3265" data-name="Rectangle 3265" width="24.875" height="38.257" fill="#00ad74" stroke="#17494d" stroke-width="1"/>
    </clipPath>
  </defs>
  <g id="Group_2135" data-name="Group 2135" transform="translate(3422 1836.262)">
    <path id="Path_5206" data-name="Path 5206" d="M31,0A31,31,0,1,1,0,31,31,31,0,0,1,31,0Z" transform="translate(-3422 -1836.262)" fill="none"/>
    <g id="Group_2131" data-name="Group 2131" transform="translate(-3403.438 -1824.39)">
      <g id="Group_1938" data-name="Group 1938" transform="translate(0 0)" clip-path="url(#clip-path)">
        <path id="Line_1" data-name="Line 1" d="M-3.513,28.036a.534.534,0,0,1-.534-.534V-3.513a.534.534,0,0,1,.534-.534.534.534,0,0,1,.534.534V27.5A.534.534,0,0,1-3.513,28.036Z" transform="translate(16.005 10.221)" fill="#00ad74"/>
        <path id="Path_2024" data-name="Path 2024" d="M105.637,48.516a2.17,2.17,0,0,1-1.374-.461l-.2-.248-.116-.158c-.351-.782-.368-2.342,1.641-3.406a7.609,7.609,0,0,1,3.507-.964,3.119,3.119,0,0,1,.453.026.539.539,0,0,1,.448.609,6.906,6.906,0,0,1-2.076,3.5A3.275,3.275,0,0,1,105.637,48.516Zm-.607-1.2a1.534,1.534,0,0,0,.607.136,2.27,2.27,0,0,0,1.531-.791,6.919,6.919,0,0,0,1.579-2.294,6.878,6.878,0,0,0-2.659.826c-1.589.841-1.259,1.832-1.216,1.942l.052.044.1.139S105.028,47.311,105.03,47.311Z" transform="translate(-90.07 -37.567)" fill="#00ad74"/>
        <path id="Path_2025" data-name="Path 2025" d="M81.528,7.242h-.393c-.838-.182-2.1-1.095-1.766-3.343a6.906,6.906,0,0,1,1.6-3.743.534.534,0,0,1,.756,0A6.907,6.907,0,0,1,83.3,3.906c.329,2.249-.94,3.157-1.657,3.322A.534.534,0,0,1,81.528,7.242Zm-.186-5.813a6.921,6.921,0,0,0-.916,2.628c-.267,1.778.726,2.1.84,2.132l.067-.016h.117c.232-.083,1.035-.492.8-2.113A6.922,6.922,0,0,0,81.341,1.429Z" transform="translate(-68.843 0)" fill="#00ad74"/>
        <path id="Path_2026" data-name="Path 2026" d="M106.677,88.289h0a2.531,2.531,0,0,1-1.832-.676.535.535,0,0,1-.084-.118l-.211-.406a.534.534,0,0,1-.049-.136c-.02-.1-.451-2.35,3.046-3.652a12.267,12.267,0,0,1,4.244-.841,5.526,5.526,0,0,1,1.1.089.534.534,0,0,1,.378.728,10.248,10.248,0,0,1-3.686,3.942A5.243,5.243,0,0,1,106.677,88.289Zm-1.011-1.372a1.628,1.628,0,0,0,1.011.3,4.226,4.226,0,0,0,2.3-.883,11.046,11.046,0,0,0,2.918-2.809,11.06,11.06,0,0,0-3.976.773c-2.322.864-2.392,2.11-2.378,2.378Z" transform="translate(-90.684 -71.575)" fill="#00ad74"/>
        <path id="Path_2027" data-name="Path 2027" d="M109.77,136.8h0a3.181,3.181,0,0,1-2.963-1.45.532.532,0,0,1-.047-.137l-.1-.514a.535.535,0,0,1-.009-.145c.008-.109.248-2.662,4.443-2.974.448-.033.872-.048,1.271-.048a10.7,10.7,0,0,1,4.8.916.534.534,0,0,1,.161.8,11.657,11.657,0,0,1-5.275,3.135A7.331,7.331,0,0,1,109.77,136.8Zm-1.981-1.887a2.274,2.274,0,0,0,1.981.819,6.279,6.279,0,0,0,1.945-.358,12.605,12.605,0,0,0,4.233-2.264,12.608,12.608,0,0,0-4.778-.463c-2.924.217-3.381,1.619-3.447,1.936Z" transform="translate(-92.569 -114.168)" fill="#00ad74"/>
        <path id="Path_2028" data-name="Path 2028" d="M41.816,48.516a3.275,3.275,0,0,1-2.283-1.1,6.906,6.906,0,0,1-2.076-3.5.539.539,0,0,1,.448-.609,3.118,3.118,0,0,1,.453-.026,7.609,7.609,0,0,1,3.507.964c2.009,1.064,1.991,2.624,1.7,3.3l-.177.264-.116.158A2.116,2.116,0,0,1,41.816,48.516Zm-3.111-4.153a6.922,6.922,0,0,0,1.58,2.294,2.27,2.27,0,0,0,1.531.791,1.179,1.179,0,0,0,.679-.2l.033-.069.116-.158c-.021,0,.309-.987-1.28-1.828A6.879,6.879,0,0,0,38.705,44.362Z" transform="translate(-32.507 -37.567)" fill="#00ad74"/>
        <path id="Path_2029" data-name="Path 2029" d="M23.664,88.288a5.242,5.242,0,0,1-2.907-1.071,10.25,10.25,0,0,1-3.686-3.942.534.534,0,0,1,.378-.728,5.523,5.523,0,0,1,1.1-.089,12.268,12.268,0,0,1,4.244.841c3.5,1.3,3.066,3.556,3.046,3.652a.536.536,0,0,1-.049.137l-.211.406a.535.535,0,0,1-.084.118A2.531,2.531,0,0,1,23.664,88.288Zm-5.216-4.76a11.1,11.1,0,0,0,2.914,2.809,4.226,4.226,0,0,0,2.3.883,1.624,1.624,0,0,0,1.012-.3l.123-.236c.017-.272-.044-1.509-2.379-2.377A11.065,11.065,0,0,0,18.448,83.528Z" transform="translate(-14.782 -71.574)" fill="#00ad74"/>
        <path id="Path_2030" data-name="Path 2030" d="M7.674,136.8a7.332,7.332,0,0,1-2.281-.412A11.656,11.656,0,0,1,.118,133.25a.534.534,0,0,1,.161-.8,10.7,10.7,0,0,1,4.8-.916c.4,0,.823.015,1.271.048,4.2.312,4.435,2.865,4.443,2.974a.534.534,0,0,1-.009.145l-.1.514a.532.532,0,0,1-.047.137A3.181,3.181,0,0,1,7.674,136.8ZM1.5,133.107a12.6,12.6,0,0,0,4.233,2.264,6.279,6.279,0,0,0,1.945.358,2.274,2.274,0,0,0,1.981-.821l.066-.331c-.062-.3-.509-1.715-3.447-1.934A12.608,12.608,0,0,0,1.5,133.107Z" transform="translate(0 -114.168)" fill="#00ad74"/>
        <path id="Line_2" data-name="Line 2" d="M-1.473-1.485a.532.532,0,0,1-.315-.1L-3.829-3.082a.534.534,0,0,1-.115-.747A.534.534,0,0,1-3.2-3.945L-1.157-2.45a.534.534,0,0,1,.115.747A.534.534,0,0,1-1.473-1.485Z" transform="translate(13.965 13.438)" fill="#00ad74"/>
        <path id="Line_3" data-name="Line 3" d="M-3.513-1.485A.534.534,0,0,1-3.945-1.7a.534.534,0,0,1,.115-.747l2.041-1.495a.534.534,0,0,1,.747.115.534.534,0,0,1-.115.747L-3.2-1.588A.532.532,0,0,1-3.513-1.485Z" transform="translate(15.891 13.438)" fill="#00ad74"/>
        <path id="Line_4" data-name="Line 4" d="M-1.473-1.485a.532.532,0,0,1-.315-.1L-3.829-3.082a.534.534,0,0,1-.115-.747A.534.534,0,0,1-3.2-3.945L-1.157-2.45a.534.534,0,0,1,.115.747A.534.534,0,0,1-1.473-1.485Z" transform="translate(13.965 18.946)" fill="#00ad74"/>
        <path id="Line_5" data-name="Line 5" d="M-3.513-1.485A.534.534,0,0,1-3.945-1.7a.534.534,0,0,1,.115-.747l2.041-1.495a.534.534,0,0,1,.747.115.534.534,0,0,1-.115.747L-3.2-1.588A.532.532,0,0,1-3.513-1.485Z" transform="translate(15.891 18.946)" fill="#00ad74"/>
        <path id="Path_2031" data-name="Path 2031" d="M106.318,223.065a3.275,3.275,0,0,1,2.283,1.1,6.906,6.906,0,0,1,2.076,3.5.539.539,0,0,1-.448.609,3.122,3.122,0,0,1-.453.026,7.609,7.609,0,0,1-3.507-.964c-2.009-1.064-1.991-2.624-1.7-3.3l.177-.264.116-.158A2.116,2.116,0,0,1,106.318,223.065Zm3.111,4.153a6.922,6.922,0,0,0-1.58-2.294,2.27,2.27,0,0,0-1.531-.791,1.179,1.179,0,0,0-.679.2l-.033.069-.116.158c.021,0-.309.987,1.28,1.828A6.878,6.878,0,0,0,109.429,227.219Z" transform="translate(-90.643 -193.621)" fill="#00ad74"/>
        <path id="Path_2032" data-name="Path 2032" d="M112.616,185.222a12.266,12.266,0,0,1-4.244-.841c-3.5-1.3-3.066-3.556-3.046-3.652a.534.534,0,0,1,.049-.136l.211-.406a.534.534,0,0,1,.084-.119,2.531,2.531,0,0,1,1.832-.676,5.242,5.242,0,0,1,2.907,1.071,10.249,10.249,0,0,1,3.686,3.942.534.534,0,0,1-.378.728A5.53,5.53,0,0,1,112.616,185.222ZM106.366,181c-.017.272.044,1.508,2.379,2.377a11.065,11.065,0,0,0,3.972.773,11.1,11.1,0,0,0-2.914-2.809,4.227,4.227,0,0,0-2.3-.883,1.625,1.625,0,0,0-1.012.3Z" transform="translate(-91.4 -155.712)" fill="#00ad74"/>
        <path id="Line_6" data-name="Line 6" d="M-1.473-1.485a.532.532,0,0,1-.315-.1L-3.829-3.082a.534.534,0,0,1-.115-.747A.534.534,0,0,1-3.2-3.945L-1.157-2.45a.534.534,0,0,1,.115.747A.534.534,0,0,1-1.473-1.485Z" transform="translate(16.005 32.488)" fill="#00ad74"/>
        <path id="Line_7" data-name="Line 7" d="M-1.473-1.485a.532.532,0,0,1-.315-.1L-3.829-3.082a.534.534,0,0,1-.115-.747A.534.534,0,0,1-3.2-3.945L-1.157-2.45a.534.534,0,0,1,.115.747A.534.534,0,0,1-1.473-1.485Z" transform="translate(16.005 26.981)" fill="#00ad74"/>
        <path id="Path_2033" data-name="Path 2033" d="M41.816,223.065a2.2,2.2,0,0,1,1.374.461l.2.247.116.158c.351.782.368,2.342-1.641,3.406a7.609,7.609,0,0,1-3.507.964,3.123,3.123,0,0,1-.453-.026.539.539,0,0,1-.448-.609,6.906,6.906,0,0,1,2.076-3.5A3.275,3.275,0,0,1,41.816,223.065Zm.607,1.2a1.625,1.625,0,0,0-.607-.136h0a2.27,2.27,0,0,0-1.531.791,6.919,6.919,0,0,0-1.579,2.294,6.878,6.878,0,0,0,2.659-.826c1.589-.841,1.259-1.832,1.216-1.942l-.052-.044-.1-.139S42.425,224.27,42.423,224.27Z" transform="translate(-32.507 -193.621)" fill="#00ad74"/>
        <path id="Path_2034" data-name="Path 2034" d="M23.664,179.392h0a2.531,2.531,0,0,1,1.832.676.534.534,0,0,1,.084.118l.211.406a.534.534,0,0,1,.049.137c.02.1.451,2.35-3.046,3.652a12.267,12.267,0,0,1-4.244.841,5.53,5.53,0,0,1-1.1-.089.534.534,0,0,1-.378-.728,10.249,10.249,0,0,1,3.686-3.942A5.242,5.242,0,0,1,23.664,179.392Zm1.011,1.372a1.628,1.628,0,0,0-1.011-.3,4.226,4.226,0,0,0-2.3.883,11.1,11.1,0,0,0-2.914,2.809,11.066,11.066,0,0,0,3.972-.773c2.322-.864,2.392-2.11,2.378-2.378Z" transform="translate(-14.782 -155.712)" fill="#00ad74"/>
        <path id="Line_8" data-name="Line 8" d="M-3.513-1.485A.534.534,0,0,1-3.945-1.7a.534.534,0,0,1,.115-.747l2.041-1.495a.534.534,0,0,1,.747.115.534.534,0,0,1-.115.747L-3.2-1.588A.532.532,0,0,1-3.513-1.485Z" transform="translate(13.965 32.488)" fill="#00ad74"/>
        <path id="Line_9" data-name="Line 9" d="M-3.513-1.485A.534.534,0,0,1-3.945-1.7a.534.534,0,0,1,.115-.747l2.041-1.495a.534.534,0,0,1,.747.115.534.534,0,0,1-.115.747L-3.2-1.588A.532.532,0,0,1-3.513-1.485Z" transform="translate(13.965 26.981)" fill="#00ad74"/>
        <path id="Line_10" data-name="Line 10" d="M.744-2.979H-3.513a.534.534,0,0,1-.534-.534.534.534,0,0,1,.534-.534H.744a.534.534,0,0,1,.534.534A.534.534,0,0,1,.744-2.979Z" transform="translate(13.726 24.194)" fill="#00ad74"/>
      </g>
    </g>
  </g>
</svg>
