<svg xmlns="http://www.w3.org/2000/svg" width="77" height="77" viewBox="0 0 77 77">
  <g id="Group_1275" data-name="Group 1275" transform="translate(-149 -5218)">
    <circle id="Ellipse_380" data-name="Ellipse 380" cx="38.5" cy="38.5" r="38.5" transform="translate(149 5218)" fill="#ffebee"/>
    <path id="bhf" d="M139.746,179.175c-.976-.07-.715-2.353-2.78-2.1-1.464.174-1.621,1.917-1.743,3.277-.148,1.516-.322,2.807-.767,2.615s-.279-.871-.445-2.989c-.183-2.423-.776-3.756-2.222-3.992-1.743-.279-2.449,2.388-2.754,3.425s-.871,1.5-1.177,1.5-.785-.139-.924-1.359.871-3.321,2.258-4.794c4.184-4.41,10.2-7.522,10.2-14.337-.009-6.45-4.6-9.857-8.9-9.857a7.724,7.724,0,0,0-5.7,2.536c-1.02,1-1.455,2.126-1.848,2.126s-.819-1.124-1.83-2.126a7.74,7.74,0,0,0-5.7-2.536c-4.262,0-8.89,3.4-8.89,9.84,0,6.816,6.005,9.927,10.2,14.337,1.386,1.473,2.371,3.565,2.258,4.794s-.636,1.264-.871,1.255-.793-.235-1.194-1.743-.819-2.615-2.344-2.719c-1.7-.1-2.144,2.231-2.292,4.088-.122,1.6-.166,4.593-.767,4.358-.349-.148-.523-3.582-.81-6.214-.218-2.04-.488-6.4-1.673-7.173-1.438-.941-2.7.113-3.094,1.787-.3,1.246-.34,2.283-.715,3.957-.279,1.246-.593,2.031-1.8,2.031H100v1.83h.793c4.41.183,5.648-.27,6.179-2.258a43.373,43.373,0,0,0,.758-4.358c.157-.871.689-1.3.924,1.107.113,1.194.227,2.719.41,4.262.54,4.55.68,7.7,2.667,7.844,2.205.192,2.222-3.861,2.371-5.465.087-1.02.218-3.931.732-3.617.715.427.445,4.088,3.835,4.236,1.944.1,2.658-1.377,2.789-3.016s-1.351-3.826-3.356-5.8c-4.829-4.75-8.184-7.2-8.184-12.428s3.722-8,6.973-8c.715,0,2.911-.122,5.561,4.166a.584.584,0,0,0,1.011,0c2.615-4.288,4.837-4.166,5.561-4.166,3.251,0,6.973,2.615,6.973,8s-3.39,7.574-8.184,12.324c-2,1.97-3.364,4.358-3.329,5.927s.871,3.111,2.789,3.016c3.277-.148,3.094-2.833,3.765-4.288.366-.776.871-.776.95.392s.122,1.577.253,2.824c.157,1.6.732,3.408,2.179,3.268,1.246-.122,1.961-.871,2.2-3.2.061-.671.113-.976.2-1.952.052-.558.218-.976.462-.871s.471.654.636,1.037a2,2,0,0,0,1.979,1.1H145v-1.83c-2,0-4.637,0-5.229-.061" transform="translate(64.997 5087.424)" fill="#ef0c2d" fill-rule="evenodd"/>
  </g>
</svg>
