<svg xmlns="http://www.w3.org/2000/svg" width="77" height="77" viewBox="0 0 77 77">
  <g id="Group_1271" data-name="Group 1271" transform="translate(-149 -4196)">
    <circle id="Ellipse_376" data-name="Ellipse 376" cx="38.5" cy="38.5" r="38.5" transform="translate(149 4196)" fill="#d6efe3"/>
    <g id="Group_1258" data-name="Group 1258" transform="translate(165.857 4218)">
      <path id="Path_36" data-name="Path 36" d="M863.263,348.845a13.448,13.448,0,0,1-.156,1.418,18.21,18.21,0,0,1-1.216,4.172q-.308.739-.695,1.5c-.231.464-.489.939-.769,1.418a34.257,34.257,0,0,1-2.971,4.275q-.569.707-1.205,1.425c-.528.6-1.092,1.216-1.691,1.833-.422.436-.861.872-1.319,1.315a76.09,76.09,0,0,1-7.278,6.136q-.691.521-1.418,1.046-1.361.978-2.836,1.978-1.478-1-2.836-1.978-.728-.527-1.418-1.046a76.419,76.419,0,0,1-7.129-5.994q-.7-.67-1.344-1.329c-.6-.617-1.17-1.223-1.694-1.826-.422-.468-.815-.936-1.191-1.393a34.243,34.243,0,0,1-3.105-4.442c-.284-.479-.539-.954-.769-1.418-.259-.507-.489-1.007-.695-1.5a18.2,18.2,0,0,1-1.216-4.172,13.449,13.449,0,0,1-.156-1.418,11.693,11.693,0,0,1,1.422-6.5,11.018,11.018,0,0,1,1.032-1.531,11.6,11.6,0,0,1,1.765-1.772,12.716,12.716,0,0,1,1.617-1.117,13.09,13.09,0,0,1,11.464-.851,11.118,11.118,0,0,1,1.418.723,11,11,0,0,1,2.836,2.449,11.124,11.124,0,0,1,4.254-3.173,13.042,13.042,0,0,1,11,.6,12.547,12.547,0,0,1,1.645,1.032,11.894,11.894,0,0,1,1.858,1.7,11.449,11.449,0,0,1,1.12,1.507A11.627,11.627,0,0,1,863.263,348.845Z" transform="translate(-819.989 -336.129)" fill="#0a5d37"/>
      <path id="Path_39" data-name="Path 39" d="M872.448,344.72l-8.873,6.934-1.811,1.418-4.186,3.272-.752.588-.769.6-.649.507-.9.705-.475.369-1.34,1.049-.163.128-2.794,2.184-1.418,1.11-7.129,5.569q-.7-.67-1.343-1.329c-.6-.617-1.17-1.223-1.694-1.826-.422-.468-.815-.936-1.191-1.393l5.686-4.442,1.815-1.418,2.953-2.308.9-.709.6-.468.819-.638,1.206-.943.776-.606.741-.581,1.071-.837,1.879-1.468,1.418-1.109,11-8.6a12.554,12.554,0,0,1,1.645,1.032,11.9,11.9,0,0,1,1.858,1.7A11.429,11.429,0,0,1,872.448,344.72Z" transform="translate(-830.852 -338.938)" fill="#d6efe3"/>
      <path id="Path_39_-_Outline" data-name="Path 39 - Outline" d="M867.322,339.887l.09.047a12.746,12.746,0,0,1,1.666,1.045,12.07,12.07,0,0,1,1.882,1.724,11.648,11.648,0,0,1,1.136,1.527l.075.12-8.985,7.021-1.811,1.418-4.187,3.272-.751.588-.769.6-.648.507-.9.705-.476.369-1.5,1.177-2.794,2.184-1.418,1.109-7.236,5.653-.1-.094c-.449-.429-.9-.877-1.348-1.333-.651-.667-1.207-1.266-1.7-1.831-.364-.4-.733-.835-1.2-1.4l-.1-.125,10.581-8.267.9-.709.6-.468.819-.638,1.205-.943.777-.606.74-.581,2.95-2.3,1.418-1.109Zm4.43,4.39a11.342,11.342,0,0,0-1.029-1.366,11.753,11.753,0,0,0-1.833-1.679,12.434,12.434,0,0,0-1.534-.971L856.436,348.8l-1.418,1.109-2.95,2.3-.741.581-.777.606-1.205.943-.819.638-.6.468-.9.709-4.768,3.726-5.558,4.342c.412.5.75.893,1.084,1.263l0,0c.489.561,1.041,1.156,1.688,1.819.41.42.827.834,1.241,1.231l7.021-5.485,1.418-1.109,2.956-2.311,1.34-1.049.476-.369.9-.7.649-.507.769-.6.751-.588,4.187-3.272,1.811-1.418Z" transform="translate(-830.365 -338.532)" fill="rgba(0,0,0,0)"/>
      <path id="Path_37" data-name="Path 37" d="M860.088,364.895q-.569.707-1.205,1.425c-.528.6-1.092,1.216-1.691,1.833-.422.436-.861.872-1.319,1.315l-7.278-5.484-1.418-1.071-2.879-2.166-.166-.128-1.386-1.042-.5-.376-.745-.56-.812-.61-.606-.457-.9-.681-4.463-3.364-1.882-1.418-8.628-6.5a11.028,11.028,0,0,1,1.031-1.531,11.6,11.6,0,0,1,1.765-1.772,12.715,12.715,0,0,1,1.616-1.117l11.464,8.639,1.418,1.067,1.613,1.216,1.11.837.773.581.741.557,1.436,1.081.617.464.8.606.751.564,3.183,2.4,1.882,1.418Z" transform="translate(-822.622 -339.396)" fill="#d6efe3"/>
      <path id="Path_37_-_Outline" data-name="Path 37 - Outline" d="M855.442,369.265l-7.386-5.565-1.418-1.071-2.878-2.166-.168-.128-1.385-1.041-.5-.376-1.556-1.169-.606-.458-.9-.68-6.346-4.782-8.738-6.584.067-.12a11.2,11.2,0,0,1,1.046-1.553,11.787,11.787,0,0,1,1.789-1.8,12.878,12.878,0,0,1,1.636-1.13l.091-.053.084.063,11.464,8.639,1.418,1.067,2.723,2.053,1.514,1.138,2.052,1.546.8.606.751.563,3.184,2.4,7.688,5.791-.1.127c-.391.486-.8.967-1.21,1.431-.548.625-1.119,1.244-1.7,1.838-.389.4-.822.834-1.322,1.318Zm-31.471-24.108,10.4,7.836,5.973,4.5,1.556,1.17.5.376,1.386,1.042.168.128,2.877,2.165,1.418,1.071,7.17,5.4c.457-.445.856-.844,1.218-1.217.573-.59,1.141-1.205,1.686-1.827.374-.42.742-.854,1.1-1.293l-7.427-5.595-3.184-2.4-.751-.563-.8-.607L845.2,353.8l-1.514-1.138-2.723-2.053-1.418-1.067-11.38-8.576a12.59,12.59,0,0,0-1.506,1.05,11.468,11.468,0,0,0-1.742,1.749A10.967,10.967,0,0,0,823.972,345.158Z" transform="translate(-822.178 -338.986)" fill="rgba(0,0,0,0)"/>
      <path id="Path_40" data-name="Path 40" d="M877.508,338.79v35.265q-.691.521-1.418,1.046-1.362.978-2.836,1.978-1.478-1-2.836-1.978-.728-.527-1.418-1.046V338.79a11.119,11.119,0,0,1,1.418.723,11.006,11.006,0,0,1,2.836,2.45,11.128,11.128,0,0,1,4.254-3.173Z" transform="translate(-851.534 -337.847)" fill="#d6efe3"/>
      <path id="Path_40_-_Outline" data-name="Path 40 - Outline" d="M868.5,338.035l.219.093a11.322,11.322,0,0,1,1.438.733,11.155,11.155,0,0,1,2.754,2.339,11.154,11.154,0,0,1,2.755-2.339,11.3,11.3,0,0,1,1.438-.733l.219-.093v35.582l-.063.047c-.454.342-.919.685-1.421,1.048-.944.679-1.9,1.345-2.84,1.981l-.088.06-.088-.06c-.941-.636-1.9-1.3-2.84-1.981-.5-.364-.969-.707-1.421-1.048l-.063-.047Zm8.508,35.424V338.514a10.965,10.965,0,0,0-3.974,3.032l-.122.148-.122-.148a10.852,10.852,0,0,0-2.8-2.415,11,11,0,0,0-1.179-.617V373.46c.431.324.874.651,1.352,1,.911.655,1.834,1.3,2.744,1.915.909-.616,1.832-1.26,2.744-1.916C876.132,374.111,876.576,373.785,877.008,373.46Z" transform="translate(-851.192 -337.33)" fill="rgba(0,0,0,0)"/>
      <path id="Path_41" data-name="Path 41" d="M860.761,368.353c-.528.6-1.092,1.216-1.691,1.833l-8.6-6.477-1.4-1.056-.014-.011L847.68,361.6l-.489-.369-1.063-.8-2.053-1.546-.691-.521-.819-.617-.6-.45-2.3-1.737-1.882-1.418-10.66-8.033a11.6,11.6,0,0,1,1.765-1.772l13.017,9.805.064.05,1.418,1.067.4.3.8.606,1.51,1.138,2.052,1.546.9.681.649.489.769.581.836.631,1.882,1.418Z" transform="translate(-824.5 -341.429)" fill="#0a5d37"/>
      <path id="Path_42" data-name="Path 42" d="M873.5,345.091l-10.8,8.44-1.815,1.418-1.886,1.475-.8.628-.617.482-.9.706-2.024,1.581-1.024.8-.479.376-1.241.968-.092.074-1.326,1.035-8.472,6.626c-.6-.617-1.17-1.223-1.694-1.826l7.462-5.835,1.815-1.418.89-.695.606-.475.812-.635.691-.542,2.024-1.581,1.521-1.188.712-.557.723-.567,1.092-.851.326-.255,12.645-9.887A11.9,11.9,0,0,1,873.5,345.091Z" transform="translate(-833.021 -340.816)" fill="#0a5d37"/>
      <path id="Path_38" data-name="Path 38" d="M863.263,348.845a13.448,13.448,0,0,1-.156,1.418,18.21,18.21,0,0,1-1.216,4.172q-.308.739-.695,1.5c-.231.464-.489.939-.769,1.418a34.257,34.257,0,0,1-2.971,4.275q-.569.707-1.205,1.425c-.528.6-1.092,1.216-1.691,1.833-.422.436-.861.872-1.319,1.315a76.09,76.09,0,0,1-7.278,6.136q-.691.521-1.418,1.046-1.361.978-2.836,1.978-1.478-1-2.836-1.978-.728-.527-1.418-1.046a76.419,76.419,0,0,1-7.129-5.994q-.7-.67-1.344-1.329c-.6-.617-1.17-1.223-1.694-1.826-.422-.468-.815-.936-1.191-1.393a34.243,34.243,0,0,1-3.105-4.442c-.284-.479-.539-.954-.769-1.418-.259-.507-.489-1.007-.695-1.5a18.2,18.2,0,0,1-1.216-4.172,13.449,13.449,0,0,1-.156-1.418,11.693,11.693,0,0,1,1.422-6.5,11.018,11.018,0,0,1,1.032-1.531,11.6,11.6,0,0,1,1.765-1.772,12.716,12.716,0,0,1,1.617-1.117,13.09,13.09,0,0,1,11.464-.851,11.118,11.118,0,0,1,1.418.723,11,11,0,0,1,2.836,2.449,11.124,11.124,0,0,1,4.254-3.173,13.042,13.042,0,0,1,11,.6,12.547,12.547,0,0,1,1.645,1.032,11.894,11.894,0,0,1,1.858,1.7,11.449,11.449,0,0,1,1.12,1.507A11.627,11.627,0,0,1,863.263,348.845Z" transform="translate(-819.989 -336.129)" fill="none"/>
      <path id="Path_43" data-name="Path 43" d="M863.306,372a13.386,13.386,0,0,1-.156,1.418,18.184,18.184,0,0,1-1.216,4.172q-.308.739-.695,1.5c-.23.464-.489.939-.769,1.418H823.036c-.284-.479-.539-.954-.769-1.418q-.388-.761-.695-1.5a18.2,18.2,0,0,1-1.216-4.172A13.417,13.417,0,0,1,820.2,372Z" transform="translate(-820.033 -359.284)" fill="#d6efe3"/>
      <path id="Path_44" data-name="Path 44" d="M863.434,376a18.2,18.2,0,0,1-1.216,4.172c-.206.493-.436.993-.695,1.5H822.551c-.259-.507-.489-1.007-.695-1.5A18.208,18.208,0,0,1,820.64,376Z" transform="translate(-820.317 -361.866)" fill="#0a5d37"/>
      <path id="Path_45" data-name="Path 45" d="M878.672,340.83v35.588q-1.361.978-2.836,1.978-1.478-1-2.836-1.978V340.83a11.005,11.005,0,0,1,2.836,2.45A11,11,0,0,1,878.672,340.83Z" transform="translate(-854.116 -339.163)" fill="#0a5d37"/>
    </g>
  </g>
</svg>
