<svg xmlns="http://www.w3.org/2000/svg" width="77" height="77" viewBox="0 0 77 77">
  <g id="Group_1274" data-name="Group 1274" transform="translate(-149 -4963)">
    <circle id="Ellipse_379" data-name="Ellipse 379" cx="38.5" cy="38.5" r="38.5" transform="translate(149 4963)" fill="#d6efe3"/>
    <g id="Group_1261" data-name="Group 1261" transform="translate(34.752 114.016)">
      <path id="Path_896" data-name="Path 896" d="M.014-.006,21.362,11l-.091,22.09L.281,22.143Z" transform="translate(131.251 4876.037)" fill="#0a5d37"/>
      <path id="Path_897" data-name="Path 897" d="M1.91,11.432,22.795.448l.01,22.033L1.854,33.44Z" transform="translate(150.664 4875.687)" fill="#074327"/>
      <path id="Path_898" data-name="Path 898" d="M7.661,6.609,30.426,0,23.042,22.414,0,29.242Z" transform="matrix(0.719, 0.695, -0.695, 0.719, 151.572, 4855)" fill="#1d794f"/>
      <path id="Path_899" data-name="Path 899" d="M-.091-11.3,5.954-14.5,5.925-5.6l-5.966,2.9Z" transform="translate(160.524 4894.291)" fill="rgba(247,247,255,0.79)"/>
      <path id="Path_900" data-name="Path 900" d="M-.483-11.1l6.134-3.166L27.145-3.422,21.1-.216Z" transform="translate(139.333 4883.215)" fill="#f7f7ff"/>
      <path id="Path_910" data-name="Path 910" d="M0,0,7.628,3.9" transform="translate(141.205 4898.875) rotate(-0.974)" fill="#f7f7ff"/>
      <path id="Path_910_-_Outline" data-name="Path 910 - Outline" d="M7.627,4.911,0,1.008.516,0,8.144,3.9Z" transform="translate(140.938 4898.376) rotate(-0.974)" fill="#f7f7ff"/>
      <path id="Path_911" data-name="Path 911" d="M0,0,3.7,1.894" transform="translate(145.225 4896.448) rotate(-0.974)" fill="#f7f7ff"/>
      <path id="Path_911_-_Outline" data-name="Path 911 - Outline" d="M3.7,2.9,0,1.008.516,0l3.7,1.894Z" transform="translate(144.958 4895.949) rotate(-0.974)" fill="#f7f7ff"/>
    </g>
  </g>
</svg>
