<svg xmlns="http://www.w3.org/2000/svg" width="77" height="77" viewBox="0 0 77 77">
  <g id="Group_1272" data-name="Group 1272" transform="translate(-149 -4455)">
    <circle id="Ellipse_377" data-name="Ellipse 377" cx="38.5" cy="38.5" r="38.5" transform="translate(149 4455)" fill="#d6efe3"/>
    <g id="Group_1260" data-name="Group 1260" transform="translate(-900.316 4369.369)">
      <circle id="Ellipse_36" data-name="Ellipse 36" cx="4.044" cy="4.044" r="4.044" transform="translate(1070.87 105.631)" fill="#0a5d37"/>
      <path id="Path_192" data-name="Path 192" d="M1085.89,128.275l12.1-2.733a2.3,2.3,0,1,0-1.109-4.458l-3.567.97a2.292,2.292,0,0,1-2.475-.9,15.745,15.745,0,0,0-2.557-2.883,6.493,6.493,0,0,0-3.587-1.757,4.862,4.862,0,0,0-2.937.707,3.9,3.9,0,0,0-1.276,1.238,4.067,4.067,0,0,0-.515,2.569c.27,2.522,2.081,4.782,3.736,6.58A2.283,2.283,0,0,0,1085.89,128.275Z" transform="translate(-3.644 -2.707)" fill="#0a5d37"/>
      <path id="Path_193" data-name="Path 193" d="M1098.906,126.637l-19,3.8-12.293-17.66a1.248,1.248,0,0,0-2.162,1.235l14.469,29.01a2.032,2.032,0,0,0,1.832,1.154h12.01a1.9,1.9,0,0,0,1.767-1.2l5.448-13.858A1.84,1.84,0,0,0,1098.906,126.637Z" transform="translate(0 -1.64)" fill="#0a5d37"/>
      <path id="Path_194" data-name="Path 194" d="M1112.988,143.915l2.114-5.292,5.235,7.65a2.322,2.322,0,0,1-.644,3.253h0a2.321,2.321,0,0,1-3.169-.6Z" transform="translate(-11.878 -8.22)" fill="#0a5d37"/>
    </g>
  </g>
</svg>
