<svg xmlns="http://www.w3.org/2000/svg" width="77" height="77" viewBox="0 0 77 77">
  <g id="Group_1273" data-name="Group 1273" transform="translate(-149 -4709)">
    <circle id="Ellipse_378" data-name="Ellipse 378" cx="38.5" cy="38.5" r="38.5" transform="translate(149 4709)" fill="#d6efe3"/>
    <path id="Path_1107" data-name="Path 1107" d="M961.382,122.14a.735.735,0,0,0-.72.349.7.7,0,0,0-.1.111,11.762,11.762,0,0,1-1.83,1.943c-4.08,3.587-9.343,5.038-13.417,5.61l-.273.038c-.323.043-.641.081-.946.114-7.819.829-13.641-.785-17.513-3.227a13.73,13.73,0,0,1,3.576-1.363v.609a1.667,1.667,0,0,0,1.163,1.594,31.179,31.179,0,0,0,16.048.577,2.065,2.065,0,0,0,1.6-2.02V117.31h-.054a4.349,4.349,0,0,0-.463-1.5c-1.943-3.716-8.925-5.148-12-5.26-4.207-.151-9.908.847-13.294,4.114a8.614,8.614,0,0,0-2.717,6.424v7.076c0,.507-.009,1.013-.018,1.517-.057,3.14-.115,6.385,2.113,9.225,4.3,5.486,12.513,6.323,15.844,6.428q.78.024,1.53.025c16.06,0,21.756-8.2,22-8.562l.125-.187V122.921A.772.772,0,0,0,961.382,122.14Zm-20.182.988a13.623,13.623,0,0,1-5.72-.239v-1.71a5.175,5.175,0,0,0,1.588.528,7.716,7.716,0,0,0,2.175.012,5.458,5.458,0,0,0,1.956-.574Zm-.08-3.946c-.2.569-.9.929-2.054,1.069a6.307,6.307,0,0,1-1.761,0,3.457,3.457,0,0,1-1.494-.6.911.911,0,0,1-.34-.388.549.549,0,0,1,.077-.165.774.774,0,0,0-.2-1.024.738.738,0,0,0-1.047.23,1.776,1.776,0,0,0-.3,1.075v3.026a4.886,4.886,0,0,1-1.427-.882,2.622,2.622,0,0,1-.92-2.119,3.421,3.421,0,0,1,2.306-2.395,7.669,7.669,0,0,1,5.2-.166,3.516,3.516,0,0,1,1.6.95A1.476,1.476,0,0,1,941.12,119.182Zm-19.01,3.628a1.242,1.242,0,0,1-.194-.679v-1.041a7.186,7.186,0,0,1,2.265-5.359c3.057-2.948,8.489-3.838,12.215-3.7,2.989.108,9.209,1.53,10.745,4.467a3.454,3.454,0,0,1-.466,3.641,7,7,0,0,1-4,2.651v-3.723a.724.724,0,0,0-.029-.193,3.1,3.1,0,0,0-.77-2.047,4.923,4.923,0,0,0-2.258-1.385,9.17,9.17,0,0,0-6.212.2,4.724,4.724,0,0,0-3.224,3.6,3.332,3.332,0,0,0-.018.42h-.007v4.564a16.017,16.017,0,0,0-4.929,1.9A13.6,13.6,0,0,1,922.11,122.81Zm2.16,9.159a.739.739,0,0,1-.739.725h-.014a.74.74,0,0,1-.725-.754l.113-5.82a15.565,15.565,0,0,0,1.454,1.26Zm2.853,5.4a.739.739,0,1,1-1.478,0v-9.081c.476.3.973.572,1.478.832Zm3.714-1.292a.739.739,0,1,1-1.478,0v-5.965c.485.184.979.351,1.478.505Zm3.8,3.769a.739.739,0,0,1-1.478,0v-8.623q.736.159,1.478.282Zm3.741-2.37a.739.739,0,1,1-1.478,0V131.8q.741.071,1.478.111Zm3.769,3.284a.739.739,0,0,1-1.479,0v-8.789q.748-.005,1.479-.039Zm3.876-3.446a.739.739,0,0,1-1.479,0v-5.571c.475-.055.967-.118,1.479-.2Zm3.634,2.262a.739.739,0,1,1-1.478,0v-8.432c.485-.106.979-.223,1.478-.356Zm3.8-4.091a.739.739,0,0,1-1.478,0v-5.413c.492-.174.986-.367,1.478-.573Zm3.714.626a.739.739,0,1,1-1.478,0V128.43q.749-.4,1.478-.872Z" transform="translate(-754.4 4619.461)" fill="#0a5d37"/>
  </g>
</svg>
