<svg id="Icons_oak-collection-page_Oak_icon_set_Arm_Caps.svg" data-name="Icons/oak-collection-page/Oak icon set/Arm Caps.svg" xmlns="http://www.w3.org/2000/svg" width="36" height="36" viewBox="0 0 36 36">
  <defs>
    <style>
      .cls-1 {
        fill: #eceff2;
      }

      .cls-2 {
        fill: #5c5e61;
        stroke: #66696c;
        stroke-linejoin: round;
        stroke-width: 1px;
        fill-rule: evenodd;
      }
    </style>
  </defs>
  <circle id="Ellipse_567_copy_7" data-name="Ellipse 567 copy 7" class="cls-1" cx="18" cy="18" r="18"/>
  <path class="cls-2" d="M1437.51,266.964c-3.11,0-6.33-.694-6.7-5.841V250.9a1.2,1.2,0,1,1,2.4,0V255.6a0.345,0.345,0,0,0,.34.33,0.334,0.334,0,0,0,.34-0.33v-7.529a1.2,1.2,0,1,1,2.4,0v6.772a0.33,0.33,0,0,0,.32.333h0a0.344,0.344,0,0,0,.35-0.323v-8.48a1.39,1.39,0,0,1,2.78,0v8.478a0.33,0.33,0,0,0,.33.333,0.334,0.334,0,0,0,.34-0.329V249.02a1.39,1.39,0,0,1,2.78,0V258.1l0.17-.031a0.95,0.95,0,0,0,.66-0.476,6.591,6.591,0,0,1,1.98-2.158,3.8,3.8,0,0,1,1.94-.625h0a0.748,0.748,0,0,1,.66.352l0.02,0.035a1.192,1.192,0,0,1,.05.961,2.586,2.586,0,0,1-.66.851,4.616,4.616,0,0,0-1.1,1.435c-0.15.277-1.27,2-2.34,3.665-0.49.74-.89,1.367-1.05,1.6a6.878,6.878,0,0,1-5.83,3.258Zm-5.5-16.772a0.725,0.725,0,0,0-.72.706v10.21c0.27,3.833,2.07,5.392,6.21,5.392l0.2,0a6.4,6.4,0,0,0,5.41-3.022c0.16-.251,1.68-2.591,1.68-2.591,0.78-1.206,1.58-2.454,1.69-2.671a5.156,5.156,0,0,1,1.23-1.574,2.341,2.341,0,0,0,.53-0.692,0.833,0.833,0,0,0-.07-0.57l-0.04-.077-0.17-.041a3.312,3.312,0,0,0-1.68.546,6,6,0,0,0-1.84,2.007,1.429,1.429,0,0,1-1.18.715h-0.01a0.584,0.584,0,0,1-.4-0.129,0.84,0.84,0,0,1-.14-0.628,3.08,3.08,0,0,0,0-.43v-8.334a0.917,0.917,0,0,0-1.56-.634,0.888,0.888,0,0,0-.26.634v5.834a0.815,0.815,0,1,1-1.63,0v-8.47a0.915,0.915,0,0,0-1.83,0v8.47a0.81,0.81,0,1,1-1.62,0v-6.772a0.72,0.72,0,0,0-1.44,0v7.531a0.82,0.82,0,0,1-1.64,0v-4.7a0.71,0.71,0,0,0-.71-0.708h-0.01Z" transform="translate(-1419.84 -238.719)"/>
</svg>
