<svg id="Icons_oak-collection-page_Oak_icon_set_Castors.svg" data-name="Icons/oak-collection-page/Oak icon set/Castors.svg" xmlns="http://www.w3.org/2000/svg" width="36" height="36" viewBox="0 0 36 36">
  <defs>
    <style>
      .cls-1 {
        fill: #eceff2;
      }

      .cls-2, .cls-3 {
        fill: #6a6c6f;
      }

      .cls-2 {
        fill-rule: evenodd;
      }
    </style>
  </defs>
  <circle id="Ellipse_567_copy_8" data-name="Ellipse 567 copy 8" class="cls-1" cx="18" cy="18" r="18"/>
  <path class="cls-2" d="M1443.87,714.444a5.9,5.9,0,0,0-1.16-2.866,5.811,5.811,0,0,1,.87,3.037,5.671,5.671,0,1,1-11.34,0,5.81,5.81,0,0,1,.91-3.116,6.211,6.211,0,0,0-1.34,2.989,2,2,0,0,1-.7,1.307,6.877,6.877,0,0,0,13.58.09A2.054,2.054,0,0,1,1443.87,714.444Zm-2.12-7.272a0.588,0.588,0,0,1-.51.07,8.331,8.331,0,0,1,5.38,6.936,0.764,0.764,0,1,1-1.52.145,6.812,6.812,0,0,0-7.19-6.072,7.046,7.046,0,0,0-7.33,6.089,0.763,0.763,0,0,1-.75.688l-0.09,0a0.772,0.772,0,0,1-.67-0.862,8.5,8.5,0,0,1,5.5-6.916,0.635,0.635,0,0,1-.2.033,0.6,0.6,0,0,1-.33-0.1,0.615,0.615,0,0,1-.28-0.473l-0.04-.477a9.863,9.863,0,0,0-5.88,7.791,2.031,2.031,0,0,0,1.76,2.249,1.957,1.957,0,0,0,1.51-.471,2,2,0,0,0,.7-1.307,6.211,6.211,0,0,1,1.34-2.989,5.873,5.873,0,0,1,4.76-2,5.666,5.666,0,0,1,4.8,2.076,5.9,5.9,0,0,1,1.16,2.866,2.054,2.054,0,0,0,.82,1.441,2,2,0,0,0,1.17.393c0.06,0,.12,0,0.19-0.01a1.97,1.97,0,0,0,1.35-.727,2.031,2.031,0,0,0,.44-1.483,9.6,9.6,0,0,0-5.77-7.841l-0.04.482A0.613,0.613,0,0,1,1441.75,707.172Zm-0.06-1.934c-0.25-.091-0.51-0.166-0.77-0.238a11.562,11.562,0,0,0-6.05.009c-0.26.071-.51,0.148-0.77,0.239a0.613,0.613,0,0,0-.4.562,0.2,0.2,0,0,0,0,.077l0.02,0.339,0.04,0.477a0.615,0.615,0,0,0,.28.473,0.6,0.6,0,0,0,.33.1,0.635,0.635,0,0,0,.2-0.033l0.01,0a9.175,9.175,0,0,1,1.51-.385l0.21-.033a10.866,10.866,0,0,1,1.61-.126,10.5,10.5,0,0,1,1.59.124l0.21,0.031a9.546,9.546,0,0,1,1.51.385,0.08,0.08,0,0,0,.02,0,0.588,0.588,0,0,0,.51-0.07,0.613,0.613,0,0,0,.28-0.473l0.04-.482,0.03-.34c0-.022-0.01-0.043-0.01-0.064A0.627,0.627,0,0,0,1441.69,705.238Z" transform="translate(-1419.84 -693.625)"/>
  <rect class="cls-3" x="17" y="6" width="2" height="7"/>
</svg>
