<svg id="Icons_lilac-collection-page_Lilac_con_set_Grab_Rails.svg" data-name="Icons/lilac-collection-page/Lilac con set/Grab Rails.svg" xmlns="http://www.w3.org/2000/svg" width="36" height="36" viewBox="0 0 36 36">
  <defs>
    <style>
      .cls-1 {
        fill: #eceff2;
      }

      .cls-2 {
        fill: #7e8183;
        fill-rule: evenodd;
      }

      .cls-3 {
        fill: #6a6c6f;
      }
    </style>
  </defs>
  <circle id="Ellipse_567_copy_8" data-name="Ellipse 567 copy 8" class="cls-1" cx="18" cy="18" r="18"/>
  <path class="cls-2" d="M2734.54,745.972h-0.98a2.413,2.413,0,0,0-.65-1.268,2.372,2.372,0,0,0-1.8-.632,2.184,2.184,0,0,0-.98.154c-0.16-.316-0.33-0.473-0.49-0.789a2.594,2.594,0,0,0-4.09.951,6.916,6.916,0,0,0-.82-0.162,3,3,0,0,0-1.79.633,3.812,3.812,0,0,0-.82,2.37v0.635a3.283,3.283,0,0,0-2.29.795c-0.98,1.105-.98,2.524-0.98,4.425V754.2c0,2.208,1.14,3.32,2.29,4.425l0.49,0.633c2.12,1.9,4.08,2.535,8.34,2.535,4.74,0,6.86-2.535,6.86-8.071v-3.955c0-1.105-.32-3.321-2.29-3.792h0Zm-3.43-.318a0.868,0.868,0,0,1,.81.951v1.259a0.735,0.735,0,0,0,.66.795,0.657,0.657,0,0,0,.82-0.633,0.482,0.482,0,0,1,.65-0.481c0.99,0.319,1.15,1.747,1.15,2.063v4.111c0,5.374-2.13,6.487-5.23,6.487-3.93,0-5.4-.478-7.03-2.054l-0.66-.635c-1.14-1.112-1.79-1.743-1.79-3.32v-0.951c0-1.583,0-2.849.48-3.32a1.308,1.308,0,0,1,1.15-.48v1.267l-0.49,1.9c0,0.154,0,.154.17,0.154a0.219,0.219,0,0,0,.32,0l1.63-1.9v-3.323a2.041,2.041,0,0,1,.33-1.257,0.86,0.86,0,0,1,.65-0.316,0.589,0.589,0,0,1,.66.633v0.624a0.815,0.815,0,0,0,1.63,0v-2.055a0.72,0.72,0,0,1,.82-0.786,0.761,0.761,0,0,1,.82.786v1.9a0.9,0.9,0,0,0,.81.951,0.871,0.871,0,0,0,.83-0.8v-0.786a0.755,0.755,0,0,1,.81-0.789h0Zm0,0" transform="translate(-2709.84 -733.781)"/>
  <rect id="Rectangle_587_copy" data-name="Rectangle 587 copy" class="cls-3" x="26" y="17" width="5" height="2"/>
  <rect id="Rectangle_587_copy_2" data-name="Rectangle 587 copy 2" class="cls-3" x="5" y="17" width="5" height="2"/>
  <rect id="Rectangle_587_copy_3" data-name="Rectangle 587 copy 3" class="cls-3" x="26" y="21" width="5" height="2"/>
  <rect id="Rectangle_587_copy_3-2" data-name="Rectangle 587 copy 3" class="cls-3" x="5" y="21" width="5" height="2"/>
</svg>
