<svg id="Icons_oak-collection-page_Oak_icon_set_Head_Cushions.svg" data-name="Icons/oak-collection-page/Oak icon set/Head Cushions.svg" xmlns="http://www.w3.org/2000/svg" width="36" height="36" viewBox="0 0 36 36">
  <defs>
    <style>
      .cls-1 {
        fill: #eceff2;
      }

      .cls-2 {
        fill: #6a6c6f;
        fill-rule: evenodd;
      }
    </style>
  </defs>
  <circle id="Ellipse_567_copy_2" data-name="Ellipse 567 copy 2" class="cls-1" cx="18" cy="18" r="18"/>
  <path class="cls-2" d="M736.812,707.151l0.424-.841a1.7,1.7,0,0,0-2.284-2.265l-0.006,0-0.879.446a24.2,24.2,0,0,0-6.436-.872,23.634,23.634,0,0,0-6.408.875l-0.911-.452a1.7,1.7,0,0,0-2.285,2.265l0,0.007,0.419,0.8a12.644,12.644,0,0,0,0,8.969l-0.424.841a1.7,1.7,0,0,0,2.285,2.264l0,0,0.88-.446a24.158,24.158,0,0,0,6.435.872,23.68,23.68,0,0,0,6.409-.874,3.623,3.623,0,0,0,1.674.63,1.69,1.69,0,0,0,1.522-2.444,0.021,0.021,0,0,0,0-.006l-0.418-.806A12.646,12.646,0,0,0,736.812,707.151Zm-1.3,9.3,0.551,1.061a0.391,0.391,0,0,1-.353.563,4.436,4.436,0,0,1-1.318-.607,0.664,0.664,0,0,0-.478-0.042,22.294,22.294,0,0,1-6.286.894,22.869,22.869,0,0,1-6.322-.892,0.66,0.66,0,0,0-.48.046l-1.107.56a0.392,0.392,0,0,1-.526-0.525l0.555-1.1a0.644,0.644,0,0,0,.02-0.536,11.343,11.343,0,0,1,0-8.549,0.643,0.643,0,0,0-.025-0.539l-0.552-1.062a0.392,0.392,0,0,1,.531-0.52l1.14,0.564a0.656,0.656,0,0,0,.478.042,22.3,22.3,0,0,1,6.288-.894,22.867,22.867,0,0,1,6.321.892,0.661,0.661,0,0,0,.48-0.045l1.106-.561a0.393,0.393,0,0,1,.527.526l-0.555,1.1a0.638,0.638,0,0,0-.02.535,11.34,11.34,0,0,1,0,8.548A0.642,0.642,0,0,0,735.516,716.454Z" transform="translate(-709.625 -693.625)"/>
</svg>
