<svg id="Icons_oak-collection-page_Oak_icon_set_Head_Cover.svg" data-name="Icons/oak-collection-page/Oak icon set/Head Cover.svg" xmlns="http://www.w3.org/2000/svg" width="36.03" height="36" viewBox="0 0 36.03 36">
  <defs>
    <style>
      .cls-1 {
        fill: #eceff2;
      }

      .cls-2 {
        fill: #5c5e61;
        fill-rule: evenodd;
      }
    </style>
  </defs>
  <circle id="Ellipse_567_copy_6" data-name="Ellipse 567 copy 6" class="cls-1" cx="18.015" cy="18" r="18.015"/>
  <path class="cls-2" d="M1092.73,251.635c-0.01-.621-0.02-1.208-0.02-1.775a0.8,0.8,0,0,0-.8-0.805,10.854,10.854,0,0,1-8.13-3.114,0.789,0.789,0,0,0-1.11,0,10.854,10.854,0,0,1-8.13,3.114,0.8,0.8,0,0,0-.79.805c0,0.567-.01,1.155-0.03,1.775-0.11,5.778-.25,13.692,9.25,17.032a0.748,0.748,0,0,0,.26.045,0.837,0.837,0,0,0,.26-0.045c9.5-3.34,9.35-11.254,9.24-17.032h0Zm-9.5,15.418c-8.15-3-8.03-9.578-7.92-15.387,0.01-.349.01-0.687,0.02-1.018a12.153,12.153,0,0,0,7.9-3.036,12.132,12.132,0,0,0,7.9,3.036c0,0.331.01,0.669,0.01,1.017,0.11,5.81.24,12.386-7.91,15.388h0Zm0,0,2.73-12.637-3.83,3.885-1.64-1.658a0.784,0.784,0,0,0-1.12,0,0.813,0.813,0,0,0,0,1.138l2.2,2.228a0.782,0.782,0,0,0,1.12,0l4.39-4.455a0.813,0.813,0,0,0,0-1.138,0.784,0.784,0,0,0-1.12,0h0Zm0,0" transform="translate(-1065.72 -238.719)"/>
</svg>
