<svg id="Icons_oak-collection-page_Oak_icon_set_Heat-Massage.svg" data-name="Icons/oak-collection-page/Oak icon set/Heat-Massage.svg" xmlns="http://www.w3.org/2000/svg" width="36" height="36" viewBox="0 0 36 36">
  <defs>
    <style>
      .cls-1 {
        fill: #eceff2;
      }

      .cls-2 {
        fill: #5c5e61;
        fill-rule: evenodd;
      }
    </style>
  </defs>
  <circle class="cls-1" cx="18" cy="18" r="18"/>
  <path class="cls-2" d="M727.1,262.8a1.147,1.147,0,0,0,.8.331,1.134,1.134,0,0,0,.8-0.331,1.112,1.112,0,0,0,0-1.586,3.556,3.556,0,0,1,0-5.052,5.8,5.8,0,0,0,0-8.225,1.141,1.141,0,0,0-1.6,0,1.123,1.123,0,0,0,0,1.592,3.55,3.55,0,0,1,0,5.048,5.794,5.794,0,0,0,0,8.223h0Zm0,0-9.638-2.755a3.858,3.858,0,0,0,1.149,2.755,1.145,1.145,0,0,0,.8.331,1.126,1.126,0,0,0,.8-0.331,1.111,1.111,0,0,0,0-1.586,1.656,1.656,0,0,1,0-2.342,3.881,3.881,0,0,0,0-5.513,1.137,1.137,0,0,0-1.6,0,1.118,1.118,0,0,0,0,1.589,1.642,1.642,0,0,1,0,2.338,3.866,3.866,0,0,0-1.149,2.759h0Zm0,0" transform="translate(-709.625 -238.719)"/>
  <path class="cls-2" d="M727.1,262.8a1.147,1.147,0,0,0,.8.331,1.134,1.134,0,0,0,.8-0.331,1.112,1.112,0,0,0,0-1.586,3.556,3.556,0,0,1,0-5.052,5.8,5.8,0,0,0,0-8.225,1.141,1.141,0,0,0-1.6,0,1.123,1.123,0,0,0,0,1.592,3.55,3.55,0,0,1,0,5.048,5.794,5.794,0,0,0,0,8.223h0Zm0,0-9.638-2.755a3.858,3.858,0,0,0,1.149,2.755,1.145,1.145,0,0,0,.8.331,1.126,1.126,0,0,0,.8-0.331,1.111,1.111,0,0,0,0-1.586,1.656,1.656,0,0,1,0-2.342,3.881,3.881,0,0,0,0-5.513,1.137,1.137,0,0,0-1.6,0,1.118,1.118,0,0,0,0,1.589,1.642,1.642,0,0,1,0,2.338,3.866,3.866,0,0,0-1.149,2.759h0Zm0,0" transform="translate(-709.625 -238.719)"/>
  <path id="Shape_566_copy" data-name="Shape 566 copy" class="cls-2" d="M733.457,260.048a3.858,3.858,0,0,0,1.149,2.755,1.145,1.145,0,0,0,.8.331,1.126,1.126,0,0,0,.8-0.331,1.111,1.111,0,0,0,0-1.586,1.656,1.656,0,0,1,0-2.342,3.881,3.881,0,0,0,0-5.513,1.137,1.137,0,0,0-1.6,0,1.118,1.118,0,0,0,0,1.589,1.642,1.642,0,0,1,0,2.338,3.866,3.866,0,0,0-1.149,2.759h0Zm0,0" transform="translate(-709.625 -238.719)"/>
</svg>
