<svg id="Icons_lilac-collection-page_Lilac_con_set_Handmade_in_the_UK.svg" data-name="Icons/lilac-collection-page/Lilac con set/Handmade in the UK.svg" xmlns="http://www.w3.org/2000/svg" width="36" height="36" viewBox="0 0 36 36">
  <defs>
    <style>
      .cls-1 {
        fill: #eceff2;
      }

      .cls-2 {
        fill: #5c5e61;
        fill-rule: evenodd;
      }
    </style>
  </defs>
  <circle id="Ellipse_567_copy_2" data-name="Ellipse 567 copy 2" class="cls-1" cx="18" cy="18" r="18"/>
  <path class="cls-2" d="M2029.55,746.326a2.254,2.254,0,0,0-1.62-2.756,2.289,2.289,0,0,0-2.8,1.591,2.221,2.221,0,0,0,.91,2.438l-1.99,7.295a15.437,15.437,0,0,0-5.17-1.15V746.16a2.29,2.29,0,1,0-1.52,0v7.584a15.472,15.472,0,0,0-5.16,1.145l-1.99-7.29a2.241,2.241,0,0,0,.92-2.438,2.3,2.3,0,0,0-2.81-1.591,2.24,2.24,0,0,0-1.61,2.756,2.271,2.271,0,0,0,2.03,1.661l2.06,7.56a15.145,15.145,0,0,0-3.91,2.98,0.736,0.736,0,0,0,.04,1.059,0.762,0.762,0,0,0,1.07-.036,13.975,13.975,0,0,1,3.2-2.514l0.53,1.94a0.77,0.77,0,0,0,.94.531,0.762,0.762,0,0,0,.54-0.919l-0.62-2.244a13.963,13.963,0,0,1,4.77-1.1v2.292a0.76,0.76,0,0,0,1.52,0v-2.292a13.978,13.978,0,0,1,4.78,1.1l-0.61,2.239a0.746,0.746,0,0,0,.54.919,0.764,0.764,0,0,0,.93-0.531l0.53-1.933a13.974,13.974,0,0,1,3.19,2.507,0.774,0.774,0,0,0,1.08.036,0.744,0.744,0,0,0,.03-1.059,15.141,15.141,0,0,0-3.9-2.974l2.06-7.567A2.294,2.294,0,0,0,2029.55,746.326Zm-20.44.142h0a0.764,0.764,0,0,1-.93-0.531,0.746,0.746,0,0,1,.54-0.918,0.763,0.763,0,0,1,.93.53A0.746,0.746,0,0,1,2009.11,746.468Zm9.01-1.679a0.75,0.75,0,1,1,.76-0.75A0.755,0.755,0,0,1,2018.12,744.789Zm9.02,1.679a0.746,0.746,0,0,1-.54-0.919,0.763,0.763,0,0,1,.93-0.53,0.745,0.745,0,0,1,.54.918A0.759,0.759,0,0,1,2027.14,746.468Z" transform="translate(-1999.62 -733.781)"/>
</svg>
