<svg id="Icons_lilac-collection-page_Lilac_con_set_Massage_System.svg" data-name="Icons/lilac-collection-page/Lilac con set/Massage System.svg" xmlns="http://www.w3.org/2000/svg" width="36" height="36" viewBox="0 0 36 36">
  <defs>
    <style>
      .cls-1 {
        fill: #eceff2;
      }

      .cls-2 {
        fill: #606265;
        fill-rule: evenodd;
      }
    </style>
  </defs>
  <circle id="Ellipse_567_copy_7" data-name="Ellipse 567 copy 7" class="cls-1" cx="18" cy="18" r="18"/>
  <path class="cls-2" d="M2727.84,298.919a0.753,0.753,0,0,1-.74-0.767v-2.621a0.753,0.753,0,0,1,.74-0.767,0.762,0.762,0,0,1,.75.767v2.621A0.761,0.761,0,0,1,2727.84,298.919Zm4.1-6.006a12.822,12.822,0,0,1,.37,1.946,17.137,17.137,0,0,1-.01,3.964,12.856,12.856,0,0,1-.38,1.945h0a0.573,0.573,0,0,1-.71.4,0.605,0.605,0,0,1-.42-0.588l0.07-1.879c0.01-.623.02-1.244,0.02-1.865s-0.02-1.241-.04-1.863l-0.07-1.875a0.612,0.612,0,0,1,.57-0.637,0.6,0.6,0,0,1,.6.443v0Zm2.95-1.6a0.308,0.308,0,0,0-.08.008,0.472,0.472,0,0,0-.37.553v0c0.14,0.835.28,1.659,0.36,2.486a22.819,22.819,0,0,1-.03,4.957c-0.09.824-.23,1.645-0.38,2.475v0a0.529,0.529,0,0,0,.29.573,0.488,0.488,0,0,0,.21.049,0.512,0.512,0,0,0,.46-0.3,11.46,11.46,0,0,0,.79-2.573,13.592,13.592,0,0,0,.25-2.7,14.3,14.3,0,0,0-.27-2.694,11.892,11.892,0,0,0-.81-2.563,0.469,0.469,0,0,0-.42-0.274m3.51-2.468a0.342,0.342,0,0,0-.12.024,0.371,0.371,0,0,0-.21.47v0a23.515,23.515,0,0,1,1.05,3.707c0.06,0.316.11,0.631,0.16,0.943l0.12,0.949,0.07,0.951c0.01,0.318.01,0.635,0.03,0.953a21.106,21.106,0,0,1-.36,3.8,23.512,23.512,0,0,1-1.05,3.712v0a0.341,0.341,0,0,0,.13.415,0.3,0.3,0,0,0,.18.056,0.353,0.353,0,0,0,.29-0.159,14.128,14.128,0,0,0,1.61-3.739,16.058,16.058,0,0,0,.55-4.087c-0.01-.344-0.02-0.689-0.04-1.034l-0.09-1.031-0.17-1.02c-0.08-.335-0.15-0.672-0.24-1a13.477,13.477,0,0,0-1.61-3.743,0.363,0.363,0,0,0-.3-0.167m-14.65,11.93a11.731,11.731,0,0,1-.37-1.947,15.784,15.784,0,0,1,.01-3.965,12.881,12.881,0,0,1,.38-1.945h0a0.565,0.565,0,0,1,.71-0.4,0.6,0.6,0,0,1,.41.588l-0.06,1.878c-0.02.623-.03,1.244-0.02,1.865s0.01,1.241.03,1.863l0.07,1.876a0.606,0.606,0,0,1-.57.637,0.589,0.589,0,0,1-.59-0.444v0Zm-2.95-9.507a0.516,0.516,0,0,0-.47.3,11.982,11.982,0,0,0-.79,2.573,13.862,13.862,0,0,0,.03,5.395,11.927,11.927,0,0,0,.81,2.563,0.458,0.458,0,0,0,.42.274,0.537,0.537,0,0,0,.08-0.008,0.472,0.472,0,0,0,.37-0.554v0c-0.15-.835-0.28-1.66-0.37-2.486s-0.12-1.654-.12-2.481,0.06-1.652.15-2.476,0.23-1.645.38-2.475v0a0.52,0.52,0,0,0-.28-0.572,0.488,0.488,0,0,0-.21-0.049m-3.52-2.408a0.326,0.326,0,0,0-.28.159,13.828,13.828,0,0,0-1.61,3.74,15.618,15.618,0,0,0-.55,4.086c0,0.345.02,0.69,0.03,1.035l0.1,1.031,0.17,1.02c0.07,0.336.15,0.672,0.23,1a13.527,13.527,0,0,0,1.62,3.743,0.332,0.332,0,0,0,.29.166,0.4,0.4,0,0,0,.13-0.023,0.367,0.367,0,0,0,.2-0.47v0a25.859,25.859,0,0,1-1.05-3.709c-0.05-.314-0.1-0.629-0.16-0.942l-0.11-.948-0.08-.951c-0.01-.318-0.01-0.636-0.02-0.954a19.435,19.435,0,0,1,.36-3.8,23.471,23.471,0,0,1,1.05-3.711v0a0.356,0.356,0,0,0-.13-0.416,0.34,0.34,0,0,0-.19-0.056" transform="translate(-2709.84 -278.844)"/>
</svg>
