<svg id="Icons_oak-collection-page_Oak_icon_set_Reading_Light.svg" data-name="Icons/oak-collection-page/Oak icon set/Reading Light.svg" xmlns="http://www.w3.org/2000/svg" width="36.03" height="36" viewBox="0 0 36.03 36">
  <defs>
    <style>
      .cls-1 {
        fill: #eceff2;
      }

      .cls-2 {
        fill: #6a6c6f;
        fill-rule: evenodd;
      }
    </style>
  </defs>
  <circle id="Ellipse_567_copy_8" data-name="Ellipse 567 copy 8" class="cls-1" cx="18.015" cy="18" r="18.015"/>
  <path class="cls-2" d="M1082.35,701.675a7.6,7.6,0,0,0-6.55,6.2,7.769,7.769,0,0,0,1.57,5.809,8.6,8.6,0,0,1,1.84,5.55,1.738,1.738,0,0,0,1.01,1.61l1.21,2.392a0.463,0.463,0,0,0,.53.387h2.62a0.7,0.7,0,0,0,.52-0.387l1.19-2.337a1.8,1.8,0,0,0,1.04-1.665v-0.388a8.919,8.919,0,0,1,1.97-5.42,7.629,7.629,0,0,0,1.44-4.389,7.44,7.44,0,0,0-8.39-7.357h0Zm3.8,17.166v0.388a0.558,0.558,0,0,1-.52.517h-4.59a0.475,0.475,0,0,1-.52-0.517,10.413,10.413,0,0,0-.38-2.71h6.36a9,9,0,0,0-.35,2.322h0Zm-1.96,3.486h-1.84l-0.65-1.291h3.14Zm4.19-9.681a11.765,11.765,0,0,0-1.44,2.582h-7.22a9.511,9.511,0,0,0-1.3-2.324,5.643,5.643,0,0,1-1.31-4.775,6.075,6.075,0,0,1,5.37-5.164h0.79a6.219,6.219,0,0,1,6.29,6.067,5.951,5.951,0,0,1-1.18,3.614h0Zm0,0" transform="translate(-1065.72 -693.625)"/>
</svg>
