<svg xmlns="http://www.w3.org/2000/svg" width="30.485" height="42.612" viewBox="0 0 30.485 42.612">
  <g id="Group_52" data-name="Group 52" transform="translate(-654.572 -1046.163)">
    <path id="Path_47" data-name="Path 47" d="M0,23.181H9.9V0L5.026,4.869,0,0Z" transform="translate(682.143 1086.21) rotate(164.991)" fill="#28686c"/>
    <path id="Path_48" data-name="Path 48" d="M0,0H9.9V23.181l-4.871-4.87L0,23.181Z" transform="translate(662.281 1063.819) rotate(15.009)" fill="#00ad74"/>
    <path id="Polygon_4" data-name="Polygon 4" d="M19.172,2.687a3.081,3.081,0,0,1,2.35-.214,2.937,2.937,0,0,1,1.771,1.5l.433.883a2.962,2.962,0,0,0,2.235,1.6l.954.143a2.993,2.993,0,0,1,1.949,1.142,2.768,2.768,0,0,1,.53,2.133l-.214,1.253a2.783,2.783,0,0,0,.8,2.443l.9.887a2.774,2.774,0,0,1,0,3.979l-.9.887a2.783,2.783,0,0,0-.8,2.444l.211,1.254a2.768,2.768,0,0,1-.53,2.132,2.993,2.993,0,0,1-1.947,1.142l-.952.143a2.962,2.962,0,0,0-2.233,1.6l-.433.883a2.937,2.937,0,0,1-1.771,1.5,3.081,3.081,0,0,1-2.35-.214l-.693-.367a3.079,3.079,0,0,0-2.865,0l-.693.367a3.081,3.081,0,0,1-2.35.214,2.937,2.937,0,0,1-1.771-1.5l-.433-.883a2.962,2.962,0,0,0-2.239-1.6l-.954-.143a2.993,2.993,0,0,1-1.949-1.142,2.768,2.768,0,0,1-.53-2.133l.214-1.253a2.783,2.783,0,0,0-.8-2.443l-.9-.887a2.774,2.774,0,0,1,0-3.979l.9-.887a2.783,2.783,0,0,0,.8-2.444L4.7,9.873a2.768,2.768,0,0,1,.53-2.132A2.993,2.993,0,0,1,7.176,6.6l.952-.143a2.962,2.962,0,0,0,2.233-1.6L10.8,3.97a2.937,2.937,0,0,1,1.771-1.5,3.081,3.081,0,0,1,2.35.214l.693.367a3.079,3.079,0,0,0,2.865,0Z" transform="translate(652.628 1044.26)" fill="#5c946e"/>
    <g id="Group_43" data-name="Group 43" transform="translate(654.572 1046.163)">
      <path id="Subtraction_4" data-name="Subtraction 4" d="M11.084,28.677a2.9,2.9,0,0,1-2.6-1.613l-.524-1.059a2.9,2.9,0,0,0-2.175-1.582l-1.168-.172A2.9,2.9,0,0,1,2.181,20.9l.2-1.174a2.9,2.9,0,0,0-.829-2.555L.7,16.339A2.9,2.9,0,0,1,.7,12.2l.85-.833A2.9,2.9,0,0,0,2.377,8.81l-.2-1.173A2.9,2.9,0,0,1,4.614,4.285l1.17-.173A2.9,2.9,0,0,0,7.958,2.531l.525-1.057A2.9,2.9,0,0,1,12.428.191L13.47.736a2.912,2.912,0,0,0,1.346.331c.086,0,.172,0,.258-.012V27.48c-.084-.007-.17-.012-.258-.012a2.912,2.912,0,0,0-1.346.331l-1.041.546A2.907,2.907,0,0,1,11.084,28.677Z" transform="translate(0.17 0.141)" fill="#28686c"/>
      <path id="Subtraction_5" data-name="Subtraction 5" d="M11.253,28.818a2.9,2.9,0,0,1-2.6-1.613l-.524-1.059a2.9,2.9,0,0,0-2.175-1.581l-1.168-.172A2.9,2.9,0,0,1,2.35,21.041l.2-1.174a2.9,2.9,0,0,0-.829-2.555L.87,16.48a2.9,2.9,0,0,1,0-4.142l.85-.832a2.9,2.9,0,0,0,.827-2.554l-.2-1.173A2.9,2.9,0,0,1,4.783,4.426l1.17-.173A2.9,2.9,0,0,0,8.128,2.672l.525-1.057A2.9,2.9,0,0,1,12.6.331l1.041.546a2.912,2.912,0,0,0,1.346.331c.086,0,.172,0,.258-.012V27.621c-.084-.007-.17-.012-.258-.012a2.912,2.912,0,0,0-1.346.331l-1.041.546A2.906,2.906,0,0,1,11.253,28.818Z" transform="translate(30.485 28.818) rotate(180)" fill="#00ad74"/>
    </g>
    <circle id="Ellipse_17" data-name="Ellipse 17" cx="8.239" cy="8.239" r="8.239" transform="translate(661.726 1052.43)" fill="#fcfcfc"/>
    <path id="Path_1351" data-name="Path 1351" d="M1.651-7.358v-6.5H.1l.908-1.178H2.84v7.674Zm7.523-.713a2.632,2.632,0,0,1-2,.821,2.624,2.624,0,0,1-2-.827A2.974,2.974,0,0,1,4.4-10.2v-2.01a2.974,2.974,0,0,1,.778-2.124,2.624,2.624,0,0,1,2-.827,2.641,2.641,0,0,1,2.005.827,2.962,2.962,0,0,1,.784,2.124v2.01A2.97,2.97,0,0,1,9.174-8.071Zm-2-.346a1.5,1.5,0,0,0,1.162-.476A1.857,1.857,0,0,0,8.774-10.2v-2.01a1.857,1.857,0,0,0-.438-1.308,1.5,1.5,0,0,0-1.162-.476,1.491,1.491,0,0,0-1.151.476,1.857,1.857,0,0,0-.438,1.308v2.01a1.857,1.857,0,0,0,.438,1.308A1.491,1.491,0,0,0,7.174-8.417Z" transform="translate(664.638 1071.778)" fill="#17494d"/>
  </g>
</svg>
