<svg xmlns="http://www.w3.org/2000/svg" width="100" height="100" viewBox="0 0 100 100">
  <g id="Group_1700" data-name="Group 1700" transform="translate(-8635 -11135)">
    <rect id="Rectangle_3157" data-name="Rectangle 3157" width="100" height="100" transform="translate(8635 11135)" fill="#fff"/>
    <g id="Group_52" data-name="Group 52" transform="translate(8008.557 10108.266)">
      <path id="Path_47" data-name="Path 47" d="M0,33.262H14.2V0L7.211,6.987,0,0Z" transform="translate(694.133 1103.625) rotate(164.991)" fill="#28686c"/>
      <path id="Path_48" data-name="Path 48" d="M0,0H14.2V33.262L7.211,26.275,0,33.262Z" transform="translate(665.633 1071.496) rotate(15.009)" fill="#00ad74"/>
      <path id="Polygon_4" data-name="Polygon 4" d="M26.479,2.841a4.421,4.421,0,0,1,3.371-.307,4.214,4.214,0,0,1,2.541,2.15l.622,1.267a4.25,4.25,0,0,0,3.207,2.3l1.37.2a4.294,4.294,0,0,1,2.8,1.639,3.972,3.972,0,0,1,.761,3.06l-.307,1.8a3.993,3.993,0,0,0,1.152,3.506l1.288,1.273a3.98,3.98,0,0,1,0,5.709l-1.288,1.273a3.993,3.993,0,0,0-1.152,3.507l.3,1.8a3.972,3.972,0,0,1-.761,3.059,4.294,4.294,0,0,1-2.794,1.639l-1.367.2a4.25,4.25,0,0,0-3.2,2.3l-.622,1.267a4.214,4.214,0,0,1-2.541,2.15,4.421,4.421,0,0,1-3.371-.307l-1-.526a4.419,4.419,0,0,0-4.111,0l-.995.526a4.421,4.421,0,0,1-3.371.307,4.214,4.214,0,0,1-2.541-2.15l-.622-1.267a4.25,4.25,0,0,0-3.212-2.3l-1.37-.2a4.294,4.294,0,0,1-2.8-1.639,3.972,3.972,0,0,1-.761-3.06l.307-1.8a3.993,3.993,0,0,0-1.152-3.506l-1.29-1.273a3.98,3.98,0,0,1,0-5.709l1.288-1.273A3.993,3.993,0,0,0,6.015,14.95l-.3-1.8a3.972,3.972,0,0,1,.761-3.059A4.294,4.294,0,0,1,9.268,8.454l1.367-.2a4.25,4.25,0,0,0,3.2-2.3l.622-1.267A4.214,4.214,0,0,1,17,2.532a4.421,4.421,0,0,1,3.371.307l.995.526a4.418,4.418,0,0,0,4.111,0Z" transform="translate(652.811 1044.447)" fill="#5c946e"/>
      <g id="Group_43" data-name="Group 43" transform="translate(654.572 1046.163)">
        <path id="Subtraction_4" data-name="Subtraction 4" d="M15.978,41.209a4.16,4.16,0,0,1-3.732-2.315l-.752-1.519a4.16,4.16,0,0,0-3.12-2.269L6.7,34.859A4.16,4.16,0,0,1,3.2,30.05l.282-1.685A4.16,4.16,0,0,0,2.294,24.7L1.079,23.505a4.16,4.16,0,0,1,0-5.943L2.3,16.368A4.16,4.16,0,0,0,3.484,12.7L3.2,11.019a4.16,4.16,0,0,1,3.495-4.81l1.679-.248a4.16,4.16,0,0,0,3.12-2.269l.753-1.517A4.16,4.16,0,0,1,17.907.335l1.494.783a4.178,4.178,0,0,0,1.931.475c.123,0,.247-.006.37-.017V39.491c-.12-.01-.244-.017-.37-.017a4.178,4.178,0,0,0-1.931.475l-1.494.784A4.171,4.171,0,0,1,15.978,41.209Z" transform="translate(0.17 0.142)" fill="#28686c"/>
        <path id="Subtraction_5" data-name="Subtraction 5" d="M16.147,41.35a4.16,4.16,0,0,1-3.731-2.314l-.752-1.519a4.16,4.16,0,0,0-3.12-2.269L6.868,35a4.16,4.16,0,0,1-3.5-4.81l.282-1.685a4.16,4.16,0,0,0-1.19-3.666L1.249,23.646a4.16,4.16,0,0,1,0-5.943l1.219-1.194a4.16,4.16,0,0,0,1.186-3.665L3.369,11.16A4.16,4.16,0,0,1,6.864,6.35L8.542,6.1a4.16,4.16,0,0,0,3.12-2.269l.753-1.517A4.16,4.16,0,0,1,18.076.475l1.494.784a4.178,4.178,0,0,0,1.931.475c.123,0,.247-.006.37-.017V39.633c-.12-.01-.244-.017-.37-.017a4.178,4.178,0,0,0-1.931.475l-1.494.783A4.17,4.17,0,0,1,16.147,41.35Z" transform="translate(43.742 41.35) rotate(180)" fill="#00ad74"/>
      </g>
      <circle id="Ellipse_17" data-name="Ellipse 17" cx="11.822" cy="11.822" r="11.822" transform="translate(664.838 1055.155)" fill="#fcfcfc"/>
      <path id="Path_1351" data-name="Path 1351" d="M2.323-3.964v-9.321H.1l1.3-1.69H4.029V-3.964ZM13.117-4.988a3.777,3.777,0,0,1-2.869,1.179A3.764,3.764,0,0,1,7.379-5,4.268,4.268,0,0,1,6.262-8.043v-2.885a4.268,4.268,0,0,1,1.117-3.048,3.765,3.765,0,0,1,2.869-1.186,3.789,3.789,0,0,1,2.877,1.186,4.251,4.251,0,0,1,1.124,3.048v2.885A4.261,4.261,0,0,1,13.117-4.988Zm-2.869-.5a2.157,2.157,0,0,0,1.667-.682,2.665,2.665,0,0,0,.628-1.877v-2.885a2.665,2.665,0,0,0-.628-1.877,2.157,2.157,0,0,0-1.667-.682A2.139,2.139,0,0,0,8.6-12.8a2.665,2.665,0,0,0-.628,1.877v2.885A2.665,2.665,0,0,0,8.6-6.167,2.139,2.139,0,0,0,10.248-5.484Z" transform="translate(669.061 1076.324)" fill="#17494d"/>
    </g>
  </g>
</svg>
