<svg xmlns="http://www.w3.org/2000/svg" width="106" height="74" viewBox="0 0 106 74">
  <g id="Group_2172" data-name="Group 2172" transform="translate(-11208 -6703)">
    <rect id="Rectangle_3345" data-name="Rectangle 3345" width="106" height="74" transform="translate(11208 6703)" fill="none"/>
    <g id="Group_2165" data-name="Group 2165" transform="translate(11056.123 1992.563)">
      <path id="Path_5290" data-name="Path 5290" d="M3.015,10.582v5.735H8.433l2.577-5.735Z" transform="translate(184.727 4765.271)" fill="#bfbfbf"/>
      <path id="Path_5291" data-name="Path 5291" d="M15.5,10.582v5.735H10.086L7.508,10.582Z" transform="translate(206.556 4765.271)" fill="#bfbfbf"/>
      <path id="Path_5285" data-name="Path 5285" d="M61.894,6.872v8.845A12.937,12.937,0,0,1,48.949,28.6H13.627A12.925,12.925,0,0,1,.74,15.717V6.931a1.142,1.142,0,0,0,.469.059H61.191A1.486,1.486,0,0,0,61.894,6.872Z" transform="translate(173.677 4748.148)" fill="#b2dbed"/>
      <path id="Path_5311" data-name="Path 5311" d="M56.478,6.872v8.845c0,7.088-5.285,12.887-11.8,12.887H12.485C6.025,28.6.74,22.8.74,15.717V6.931a.955.955,0,0,0,.427.059h54.67A1.248,1.248,0,0,0,56.478,6.872Z" transform="translate(173.677 4748.148)" fill="#bde4f5"/>
      <path id="Path_5286" data-name="Path 5286" d="M69.054,9.852A4.44,4.44,0,0,1,65.246,14.3a1.486,1.486,0,0,1-.7.117H4.56a1.142,1.142,0,0,1-.469-.059A4.523,4.523,0,0,1,4.56,5.342H64.543A4.512,4.512,0,0,1,69.054,9.852Z" transform="translate(170.325 4740.715)" fill="#60b3dd"/>
      <path id="Path_5312" data-name="Path 5312" d="M64.339,9.852A4.354,4.354,0,0,1,60.792,14.3a1.3,1.3,0,0,1-.655.117H4.252a1,1,0,0,1-.437-.059A4.412,4.412,0,0,1,.05,9.852a4.366,4.366,0,0,1,4.2-4.51H60.137A4.366,4.366,0,0,1,64.339,9.852Z" transform="translate(170.325 4740.715)" fill="#72c4ed"/>
      <path id="Path_5288" data-name="Path 5288" d="M2.7,30.252H-.09V7.356a8.659,8.659,0,1,1,17.318,0v1.29H14.437V7.356a5.92,5.92,0,0,0-1.733-4.2,5.8,5.8,0,0,0-8.271,0A5.92,5.92,0,0,0,2.7,7.356Z" transform="translate(177.329 4715.805)" fill="#bfbfbf"/>
      <path id="Path_5289" data-name="Path 5289" d="M16.214,8.33V12.2H2.8V8.33a6.707,6.707,0,0,1,13.414,0Z" transform="translate(183.684 4721.89)" fill="#bde4f5"/>
    </g>
  </g>
</svg>
