<svg xmlns="http://www.w3.org/2000/svg" width="106" height="74" viewBox="0 0 106 74">
  <g id="Group_2174" data-name="Group 2174" transform="translate(-10946 -6703)">
    <rect id="Rectangle_3348" data-name="Rectangle 3348" width="106" height="74" transform="translate(10946 6703)" fill="none"/>
    <g id="Group_2168" data-name="Group 2168" transform="translate(10967.693 6712)">
      <path id="Path_36" data-name="Path 36" d="M882.495,354.515a19.442,19.442,0,0,1-.226,2.05,26.328,26.328,0,0,1-1.758,6.033q-.446,1.069-1,2.168c-.333.671-.708,1.358-1.112,2.05A49.535,49.535,0,0,1,874.1,373q-.823,1.023-1.743,2.061c-.764.871-1.579,1.758-2.445,2.65-.61.63-1.246,1.261-1.907,1.9a110.011,110.011,0,0,1-10.523,8.872q-1,.754-2.05,1.512-1.968,1.414-4.1,2.86-2.137-1.446-4.1-2.86-1.053-.761-2.05-1.512a110.493,110.493,0,0,1-10.308-8.667q-1.015-.969-1.943-1.922c-.871-.892-1.692-1.768-2.45-2.64-.61-.677-1.179-1.353-1.722-2.014a49.514,49.514,0,0,1-4.49-6.422c-.41-.692-.779-1.379-1.112-2.05-.374-.733-.707-1.456-1-2.168a26.315,26.315,0,0,1-1.758-6.033,19.428,19.428,0,0,1-.226-2.05,16.906,16.906,0,0,1,2.056-9.4,15.926,15.926,0,0,1,1.492-2.214,16.781,16.781,0,0,1,2.552-2.563,18.389,18.389,0,0,1,2.337-1.615,18.927,18.927,0,0,1,16.576-1.23,16.079,16.079,0,0,1,2.05,1.046,15.912,15.912,0,0,1,4.1,3.542,16.084,16.084,0,0,1,6.151-4.587,18.858,18.858,0,0,1,15.9.866,18.146,18.146,0,0,1,2.378,1.492,17.2,17.2,0,0,1,2.686,2.46,16.552,16.552,0,0,1,1.62,2.178A16.811,16.811,0,0,1,882.495,354.515Z" transform="translate(-819.926 -336.129)" fill="#032169"/>
      <path id="Path_39" data-name="Path 39" d="M888.272,346.61l-12.829,10.026-2.619,2.05-6.053,4.731-1.087.851-1.112.866-.938.733-1.3,1.02-.687.533-1.937,1.517-.236.184-4.039,3.157-2.05,1.6-10.308,8.052q-1.015-.969-1.943-1.922c-.871-.892-1.691-1.768-2.45-2.64-.61-.677-1.179-1.353-1.722-2.014l8.222-6.422,2.624-2.05,4.27-3.337,1.307-1.025.866-.677,1.184-.923,1.743-1.363,1.122-.877,1.072-.841,1.548-1.21,2.716-2.122,2.05-1.6,15.9-12.43a18.146,18.146,0,0,1,2.378,1.492,17.2,17.2,0,0,1,2.686,2.46A16.522,16.522,0,0,1,888.272,346.61Z" transform="translate(-828.129 -338.25)" fill="#fff"/>
      <path id="Path_39_-_Outline" data-name="Path 39 - Outline" d="M881.177,339.887l.13.068a18.427,18.427,0,0,1,2.408,1.51,17.45,17.45,0,0,1,2.722,2.493,16.838,16.838,0,0,1,1.642,2.208l.108.174L875.2,356.493l-2.619,2.05-6.054,4.731-1.086.851-1.113.867-.937.733-1.3,1.02-.688.534-2.172,1.7-4.039,3.158-2.05,1.6-10.463,8.174-.143-.136c-.65-.62-1.305-1.268-1.948-1.928-.942-.964-1.745-1.83-2.457-2.648-.526-.584-1.059-1.207-1.728-2.021l-.148-.181,15.3-11.953,1.307-1.025.867-.677,1.184-.923,1.742-1.363,1.123-.877,1.07-.84,4.265-3.332,2.05-1.6Zm6.405,6.348a16.4,16.4,0,0,0-1.488-1.975,17,17,0,0,0-2.651-2.428,17.979,17.979,0,0,0-2.218-1.4l-15.788,12.339-2.05,1.6-4.265,3.332-1.071.84-1.123.877-1.742,1.363-1.185.923-.866.676-1.307,1.025-6.894,5.387-8.037,6.278c.6.722,1.085,1.291,1.567,1.826l0,0c.706.811,1.5,1.672,2.441,2.63.593.607,1.2,1.206,1.794,1.78l10.152-7.931,2.05-1.6,4.275-3.342,1.938-1.517.688-.534,1.3-1.019.938-.733,1.112-.866,1.086-.85,6.053-4.731,2.619-2.05Z" transform="translate(-827.742 -337.928)" fill="rgba(0,0,0,0)"/>
      <path id="Path_37" data-name="Path 37" d="M876.086,375.465q-.823,1.022-1.743,2.061c-.763.871-1.578,1.758-2.445,2.65-.61.63-1.245,1.261-1.907,1.9l-10.523-7.929-2.05-1.548-4.162-3.132-.241-.185-2-1.507-.717-.543-1.077-.81-1.174-.882-.877-.661-1.307-.984-6.453-4.864-2.722-2.05-12.476-9.4a15.942,15.942,0,0,1,1.491-2.214,16.77,16.77,0,0,1,2.553-2.563,18.387,18.387,0,0,1,2.337-1.614l16.576,12.491,2.05,1.543,2.332,1.758,1.6,1.21,1.117.841,1.071.8,2.076,1.563.892.671,1.158.877,1.087.815,4.6,3.47,2.722,2.05Z" transform="translate(-821.914 -338.596)" fill="#fff"/>
      <path id="Path_37_-_Outline" data-name="Path 37 - Outline" d="M869.658,382.051,858.979,374l-2.051-1.548-4.162-3.132-.242-.186-2-1.506-.718-.544-2.249-1.691-.877-.662-1.307-.984-9.175-6.914-12.634-9.52.1-.174a16.2,16.2,0,0,1,1.513-2.246,17.043,17.043,0,0,1,2.587-2.6,18.615,18.615,0,0,1,2.366-1.634l.131-.076.121.091,16.576,12.491,2.05,1.543,3.937,2.968,2.188,1.645,2.968,2.235,1.159.877,1.086.814,4.6,3.47,11.116,8.373-.148.184c-.565.7-1.154,1.4-1.75,2.069-.792.9-1.618,1.8-2.452,2.657-.562.582-1.188,1.205-1.912,1.906Zm-45.5-34.857,15.038,11.33,8.637,6.51,2.25,1.691.718.544,2,1.506.242.186,4.16,3.131,2.051,1.548,10.367,7.812c.661-.643,1.238-1.22,1.761-1.76.829-.854,1.649-1.742,2.437-2.642.54-.608,1.073-1.235,1.588-1.87l-10.739-8.09-4.6-3.47-1.086-.815-1.159-.877-2.967-2.234-2.189-1.645-3.937-2.968-2.05-1.543-16.455-12.4a18.207,18.207,0,0,0-2.178,1.518,16.583,16.583,0,0,0-2.518,2.528A15.848,15.848,0,0,0,824.154,347.194Z" transform="translate(-821.561 -338.27)" fill="rgba(0,0,0,0)"/>
      <path id="Path_40" data-name="Path 40" d="M881.3,338.79v50.989q-1,.754-2.05,1.512-1.969,1.414-4.1,2.86-2.138-1.445-4.1-2.86Q870,390.53,869,389.779V338.79a16.081,16.081,0,0,1,2.05,1.046,15.915,15.915,0,0,1,4.1,3.542,16.088,16.088,0,0,1,6.151-4.587Z" transform="translate(-843.746 -337.426)" fill="#fff"/>
      <path id="Path_40_-_Outline" data-name="Path 40 - Outline" d="M868.5,338.035l.317.134a16.374,16.374,0,0,1,2.079,1.06,16.126,16.126,0,0,1,3.982,3.382,16.129,16.129,0,0,1,3.983-3.382,16.36,16.36,0,0,1,2.079-1.06l.317-.134v51.448l-.091.068c-.656.495-1.328.99-2.054,1.515-1.365.981-2.747,1.945-4.106,2.864l-.128.086-.128-.086c-1.36-.92-2.742-1.883-4.106-2.864-.729-.527-1.4-1.022-2.055-1.515l-.091-.068Zm12.3,51.22V338.728a15.852,15.852,0,0,0-5.747,4.384l-.176.214-.176-.214a15.69,15.69,0,0,0-4.041-3.491,15.909,15.909,0,0,0-1.7-.893v50.527c.623.469,1.263.941,1.956,1.441,1.317.947,2.652,1.878,3.967,2.77,1.315-.891,2.648-1.822,3.967-2.77C879.536,390.2,880.176,389.726,880.8,389.255Z" transform="translate(-843.474 -337.016)" fill="rgba(0,0,0,0)"/>
      <path id="Path_41" data-name="Path 41" d="M875.762,379.061c-.764.871-1.579,1.758-2.445,2.65l-12.43-9.364-2.03-1.527-.02-.015-1.989-1.5-.707-.533L854.6,367.61l-2.968-2.235-1-.753-1.184-.892-.866-.651-3.332-2.512-2.722-2.05L827.12,346.9a16.763,16.763,0,0,1,2.552-2.563l18.821,14.178.092.072,2.05,1.543.579.436,1.164.876,2.184,1.645,2.968,2.235,1.307.984.938.707,1.113.841,1.209.912,2.722,2.05Z" transform="translate(-823.332 -340.131)" fill="#c90d2d"/>
      <path id="Path_42" data-name="Path 42" d="M888.291,345.85l-15.618,12.2-2.625,2.05-2.726,2.132-1.159.907-.892.7-1.307,1.02-2.927,2.286-1.481,1.158-.692.543-1.794,1.4-.133.108-1.917,1.5-12.25,9.58c-.871-.892-1.691-1.768-2.45-2.64l10.789-8.437,2.624-2.05,1.287-1,.876-.687,1.174-.918,1-.784L861,362.626l2.2-1.717,1.03-.8,1.046-.82,1.579-1.23.472-.369,18.283-14.3A17.2,17.2,0,0,1,888.291,345.85Z" transform="translate(-829.766 -339.668)" fill="#c90d2d"/>
      <path id="Path_38" data-name="Path 38" d="M882.495,354.515a19.442,19.442,0,0,1-.226,2.05,26.328,26.328,0,0,1-1.758,6.033q-.446,1.069-1,2.168c-.333.671-.708,1.358-1.112,2.05A49.535,49.535,0,0,1,874.1,373q-.823,1.023-1.743,2.061c-.764.871-1.579,1.758-2.445,2.65-.61.63-1.246,1.261-1.907,1.9a110.011,110.011,0,0,1-10.523,8.872q-1,.754-2.05,1.512-1.968,1.414-4.1,2.86-2.137-1.446-4.1-2.86-1.053-.761-2.05-1.512a110.493,110.493,0,0,1-10.308-8.667q-1.015-.969-1.943-1.922c-.871-.892-1.692-1.768-2.45-2.64-.61-.677-1.179-1.353-1.722-2.014a49.514,49.514,0,0,1-4.49-6.422c-.41-.692-.779-1.379-1.112-2.05-.374-.733-.707-1.456-1-2.168a26.315,26.315,0,0,1-1.758-6.033,19.428,19.428,0,0,1-.226-2.05,16.906,16.906,0,0,1,2.056-9.4,15.926,15.926,0,0,1,1.492-2.214,16.781,16.781,0,0,1,2.552-2.563,18.389,18.389,0,0,1,2.337-1.615,18.927,18.927,0,0,1,16.576-1.23,16.079,16.079,0,0,1,2.05,1.046,15.912,15.912,0,0,1,4.1,3.542,16.084,16.084,0,0,1,6.151-4.587,18.858,18.858,0,0,1,15.9.866,18.146,18.146,0,0,1,2.378,1.492,17.2,17.2,0,0,1,2.686,2.46,16.552,16.552,0,0,1,1.62,2.178A16.811,16.811,0,0,1,882.495,354.515Z" transform="translate(-819.926 -336.129)" fill="none"/>
      <path id="Path_43" data-name="Path 43" d="M882.527,372a19.35,19.35,0,0,1-.226,2.05,26.3,26.3,0,0,1-1.758,6.033q-.446,1.069-1,2.168c-.333.671-.707,1.358-1.112,2.05H824.3c-.41-.692-.779-1.379-1.112-2.05q-.562-1.1-1-2.168a26.323,26.323,0,0,1-1.758-6.033A19.4,19.4,0,0,1,820.2,372Z" transform="translate(-819.959 -353.614)" fill="#fff"/>
      <path id="Path_43_-_Outline" data-name="Path 43 - Outline" d="M819.672,371.5h62.809l-.013.24a19.679,19.679,0,0,1-.228,2.074,26.648,26.648,0,0,1-1.773,6.085c-.305.731-.645,1.466-1.011,2.182-.326.657-.7,1.351-1.119,2.063l-.066.113H823.883l-.066-.112c-.39-.658-.767-1.353-1.12-2.064s-.706-1.45-1.011-2.183a26.665,26.665,0,0,1-1.773-6.085,19.706,19.706,0,0,1-.228-2.074Zm62.326.456H820.156c.039.572.109,1.172.208,1.786a26.215,26.215,0,0,0,1.743,5.981c.3.722.637,1.447,1,2.153v0c.328.661.677,1.308,1.038,1.923h53.865c.385-.663.734-1.31,1.039-1.923v0c.361-.707.7-1.431,1-2.152a26.212,26.212,0,0,0,1.743-5.981C881.889,373.129,881.959,372.529,882,371.956Z" transform="translate(-819.672 -353.342)" fill="rgba(0,0,0,0)"/>
      <path id="Path_44" data-name="Path 44" d="M882.516,376a26.312,26.312,0,0,1-1.758,6.033c-.3.713-.63,1.435-1,2.168H823.4c-.374-.733-.707-1.456-1-2.168A26.325,26.325,0,0,1,820.64,376Z" transform="translate(-820.173 -355.564)" fill="#c8102e"/>
      <path id="Path_45" data-name="Path 45" d="M881.2,340.83v51.456q-1.968,1.415-4.1,2.86-2.138-1.446-4.1-2.86V340.83a15.912,15.912,0,0,1,4.1,3.542A15.91,15.91,0,0,1,881.2,340.83Z" transform="translate(-845.696 -338.42)" fill="#c8102e"/>
    </g>
  </g>
</svg>
