<svg id="Group_1453" data-name="Group 1453" xmlns="http://www.w3.org/2000/svg" width="43.722" height="39.679" viewBox="0 0 43.722 39.679">
  <path id="Path_36" data-name="Path 36" d="M863.543,348.928a13.5,13.5,0,0,1-.157,1.427,18.329,18.329,0,0,1-1.224,4.2c-.207.5-.439,1-.7,1.509-.232.467-.492.945-.774,1.427a34.5,34.5,0,0,1-2.99,4.3q-.573.712-1.213,1.434c-.532.607-1.1,1.224-1.7,1.845-.425.439-.867.878-1.327,1.324a76.591,76.591,0,0,1-7.325,6.176q-.7.525-1.427,1.053-1.37.985-2.854,1.991-1.488-1.006-2.854-1.991-.733-.53-1.427-1.053a76.916,76.916,0,0,1-7.175-6.033q-.707-.674-1.352-1.338c-.607-.621-1.177-1.231-1.706-1.837-.425-.471-.821-.942-1.2-1.4a34.448,34.448,0,0,1-3.126-4.471c-.285-.482-.543-.96-.774-1.427-.26-.51-.492-1.013-.7-1.509a18.325,18.325,0,0,1-1.224-4.2,13.52,13.52,0,0,1-.157-1.427,11.768,11.768,0,0,1,1.431-6.544,11.1,11.1,0,0,1,1.038-1.541,11.687,11.687,0,0,1,1.777-1.784,12.813,12.813,0,0,1,1.627-1.124,13.176,13.176,0,0,1,11.539-.856,11.189,11.189,0,0,1,1.427.728,11.076,11.076,0,0,1,2.854,2.465,11.077,11.077,0,0,1,2.854-2.465,11.193,11.193,0,0,1,1.427-.728,13.127,13.127,0,0,1,11.071.6,12.629,12.629,0,0,1,1.656,1.038,11.972,11.972,0,0,1,1.87,1.713,11.5,11.5,0,0,1,1.128,1.516A11.7,11.7,0,0,1,863.543,348.928Z" transform="translate(-819.989 -336.129)" fill="#012169"/>
  <path id="Path_39" data-name="Path 39" d="M872.679,344.747l-8.931,6.979-1.823,1.427-4.214,3.293-.756.592-.774.6-.653.51-.906.71-.478.371-1.349,1.056-.164.128-2.812,2.2-1.427,1.117-7.175,5.605q-.706-.674-1.352-1.338c-.606-.621-1.177-1.231-1.705-1.838-.425-.471-.821-.942-1.2-1.4l5.723-4.471,1.827-1.427,2.972-2.323.91-.714.6-.471.824-.642,1.213-.949.781-.61.746-.585,1.078-.842,1.891-1.477,1.427-1.117,11.071-8.652a12.631,12.631,0,0,1,1.656,1.038,11.975,11.975,0,0,1,1.87,1.713A11.51,11.51,0,0,1,872.679,344.747Z" transform="translate(-830.812 -338.928)" fill="#fff"/>
  <path id="Path_39_-_Outline" data-name="Path 39 - Outline" d="M867.524,339.887l.091.048a12.839,12.839,0,0,1,1.676,1.051,12.146,12.146,0,0,1,1.894,1.735,11.709,11.709,0,0,1,1.143,1.537l.076.121-9.043,7.067-1.823,1.427-4.214,3.293-.756.592-.774.6-.653.51-.906.71-.479.372-1.512,1.184-2.812,2.2L848,363.453l-7.284,5.69-.1-.095c-.452-.431-.908-.883-1.356-1.342-.656-.671-1.215-1.274-1.711-1.843-.366-.406-.737-.84-1.2-1.407l-.1-.126,10.65-8.321.91-.713.6-.471.824-.642,1.213-.949.782-.61.745-.585,2.969-2.319,1.427-1.117Zm4.459,4.419a11.392,11.392,0,0,0-1.036-1.375,11.817,11.817,0,0,0-1.845-1.69,12.505,12.505,0,0,0-1.544-.977l-10.99,8.589-1.427,1.117-2.969,2.319-.745.585-.782.61-1.213.949-.824.642-.6.471-.91.713-4.8,3.75-5.595,4.37c.415.5.755.9,1.091,1.271l0,0c.492.565,1.047,1.164,1.7,1.831.413.423.832.839,1.249,1.239l7.067-5.521,1.427-1.117,2.976-2.326,1.349-1.056.479-.371.906-.71.653-.51.774-.6.756-.592,4.214-3.293,1.823-1.427Z" transform="translate(-830.327 -338.523)" fill="rgba(0,0,0,0)"/>
  <path id="Path_37" data-name="Path 37" d="M860.322,365.049q-.573.712-1.213,1.434c-.532.607-1.1,1.224-1.7,1.845-.425.439-.867.878-1.327,1.324l-7.325-5.52-1.427-1.078-2.9-2.18-.167-.128-1.4-1.049-.5-.378-.749-.564-.817-.614-.61-.46-.91-.685-4.492-3.386-1.895-1.427-8.684-6.544a11.1,11.1,0,0,1,1.038-1.541,11.677,11.677,0,0,1,1.777-1.784,12.8,12.8,0,0,1,1.627-1.124l11.539,8.7,1.427,1.074,1.624,1.224,1.117.842.778.585.746.56,1.445,1.088.621.467.806.61.756.567,3.2,2.415,1.895,1.427Z" transform="translate(-822.612 -339.384)" fill="#fff"/>
  <path id="Path_37_-_Outline" data-name="Path 37 - Outline" d="M855.65,369.452l-7.434-5.6-1.427-1.078-2.9-2.18-.169-.129-1.394-1.048-.5-.378-1.566-1.177-.61-.461-.91-.685-6.387-4.813-8.795-6.627.067-.121a11.274,11.274,0,0,1,1.053-1.563,11.86,11.86,0,0,1,1.8-1.808,12.976,12.976,0,0,1,1.647-1.138l.091-.053.084.063,11.539,8.7,1.427,1.074,2.74,2.066,1.523,1.145,2.066,1.556.807.61.756.567,3.2,2.416,7.738,5.829-.1.128c-.393.489-.8.974-1.218,1.44-.552.629-1.126,1.252-1.707,1.85-.392.4-.827.839-1.331,1.327Zm-31.676-24.264,10.468,7.887,6.012,4.531,1.566,1.177.5.379,1.395,1.049.169.129,2.9,2.179,1.427,1.078,7.216,5.438c.46-.447.862-.849,1.226-1.225.577-.594,1.148-1.213,1.7-1.839.376-.423.747-.86,1.106-1.3l-7.476-5.631-3.2-2.416-.756-.567-.807-.611-2.066-1.555-1.523-1.145-2.74-2.066-1.427-1.074L828.2,340.972a12.686,12.686,0,0,0-1.516,1.057,11.547,11.547,0,0,0-1.753,1.76A11.035,11.035,0,0,0,823.974,345.187Z" transform="translate(-822.169 -338.975)" fill="rgba(0,0,0,0)"/>
  <path id="Path_40" data-name="Path 40" d="M877.563,338.79v35.494q-.7.525-1.427,1.053-1.37.985-2.854,1.991-1.488-1.006-2.854-1.991-.733-.53-1.427-1.053V338.79a11.207,11.207,0,0,1,1.427.728,11.078,11.078,0,0,1,2.854,2.465,11.2,11.2,0,0,1,4.282-3.193Z" transform="translate(-851.42 -337.841)" fill="#fff"/>
  <path id="Path_40_-_Outline" data-name="Path 40 - Outline" d="M868.5,338.035l.221.093a11.4,11.4,0,0,1,1.447.738,11.226,11.226,0,0,1,2.772,2.354,11.224,11.224,0,0,1,2.773-2.354,11.376,11.376,0,0,1,1.447-.738l.221-.093v35.813l-.063.048c-.457.344-.924.689-1.43,1.055-.951.683-1.912,1.354-2.859,1.994l-.089.06-.089-.06c-.947-.64-1.909-1.311-2.858-1.994-.507-.367-.975-.712-1.43-1.055l-.063-.048Zm8.563,35.655V338.518a11.045,11.045,0,0,0-1.186.621,10.921,10.921,0,0,0-2.814,2.431l-.123.149-.123-.149a10.927,10.927,0,0,0-2.814-2.43,11.061,11.061,0,0,0-1.187-.621V373.69c.434.326.88.655,1.361,1,.917.659,1.846,1.307,2.761,1.928.915-.62,1.844-1.268,2.762-1.928C876.182,374.346,876.628,374.018,877.063,373.69Z" transform="translate(-851.079 -337.326)" fill="rgba(0,0,0,0)"/>
  <path id="Path_41" data-name="Path 41" d="M860.98,368.51c-.532.607-1.1,1.224-1.7,1.845l-8.652-6.519-1.413-1.063-.014-.011-1.385-1.045-.492-.371-1.07-.806-2.066-1.556-.7-.525-.824-.621-.6-.453-2.319-1.748-1.895-1.427-10.729-8.085a11.666,11.666,0,0,1,1.777-1.784l13.1,9.869.064.05,1.427,1.074.4.3.81.61,1.52,1.145,2.066,1.556.91.685.653.492.774.585.842.635,1.895,1.427Z" transform="translate(-824.483 -341.41)" fill="#c8102e"/>
  <path id="Path_42" data-name="Path 42" d="M873.713,345.1l-10.872,8.5-1.827,1.427-1.9,1.484-.806.632-.621.485-.91.71-2.037,1.591-1.031.806-.482.378-1.249.974-.093.075-1.334,1.042-8.528,6.669c-.607-.621-1.177-1.231-1.705-1.838l7.511-5.873,1.827-1.427.9-.7.61-.478.817-.639.7-.546,2.037-1.591,1.531-1.2.717-.56.728-.571,1.1-.856.328-.257,12.727-9.951A11.969,11.969,0,0,1,873.713,345.1Z" transform="translate(-832.973 -340.799)" fill="#c8102e"/>
  <path id="Path_38" data-name="Path 38" d="M863.543,348.928a13.5,13.5,0,0,1-.157,1.427,18.329,18.329,0,0,1-1.224,4.2c-.207.5-.439,1-.7,1.509-.232.467-.492.945-.774,1.427a34.5,34.5,0,0,1-2.99,4.3q-.573.712-1.213,1.434c-.532.607-1.1,1.224-1.7,1.845-.425.439-.867.878-1.327,1.324a76.591,76.591,0,0,1-7.325,6.176q-.7.525-1.427,1.053-1.37.985-2.854,1.991-1.488-1.006-2.854-1.991-.733-.53-1.427-1.053a76.916,76.916,0,0,1-7.175-6.033q-.707-.674-1.352-1.338c-.607-.621-1.177-1.231-1.706-1.837-.425-.471-.821-.942-1.2-1.4a34.448,34.448,0,0,1-3.126-4.471c-.285-.482-.543-.96-.774-1.427-.26-.51-.492-1.013-.7-1.509a18.325,18.325,0,0,1-1.224-4.2,13.52,13.52,0,0,1-.157-1.427,11.768,11.768,0,0,1,1.431-6.544,11.1,11.1,0,0,1,1.038-1.541,11.687,11.687,0,0,1,1.777-1.784,12.813,12.813,0,0,1,1.627-1.124,13.176,13.176,0,0,1,11.539-.856,11.189,11.189,0,0,1,1.427.728,11.076,11.076,0,0,1,2.854,2.465,11.077,11.077,0,0,1,2.854-2.465,11.193,11.193,0,0,1,1.427-.728,13.127,13.127,0,0,1,11.071.6,12.629,12.629,0,0,1,1.656,1.038,11.972,11.972,0,0,1,1.87,1.713,11.5,11.5,0,0,1,1.128,1.516A11.7,11.7,0,0,1,863.543,348.928Z" transform="translate(-819.989 -336.129)" fill="none"/>
  <path id="Path_43" data-name="Path 43" d="M863.587,372a13.5,13.5,0,0,1-.157,1.427,18.318,18.318,0,0,1-1.224,4.2q-.31.744-.7,1.509c-.232.467-.492.946-.774,1.427H823.054c-.285-.482-.542-.96-.774-1.427-.261-.51-.492-1.013-.7-1.509a18.328,18.328,0,0,1-1.224-4.2A13.5,13.5,0,0,1,820.2,372Z" transform="translate(-820.032 -359.201)" fill="#fff"/>
  <path id="Path_43_-_Outline" data-name="Path 43 - Outline" d="M819.672,371.5h43.722l-.009.167a13.713,13.713,0,0,1-.159,1.444,18.571,18.571,0,0,1-1.234,4.235c-.212.509-.449,1.02-.7,1.519-.227.458-.489.941-.779,1.436l-.046.079H822.6l-.046-.078c-.272-.458-.534-.942-.78-1.437s-.491-1.01-.7-1.519a18.558,18.558,0,0,1-1.234-4.236,13.7,13.7,0,0,1-.159-1.444Zm43.386.318H820.009c.027.4.076.816.145,1.243a18.248,18.248,0,0,0,1.214,4.164c.21.5.443,1.007.694,1.5v0c.228.46.471.91.723,1.339h37.5c.268-.462.511-.912.723-1.339v0c.251-.492.485-1,.694-1.5a18.239,18.239,0,0,0,1.213-4.163C862.982,372.634,863.031,372.216,863.058,371.818Z" transform="translate(-819.672 -358.86)" fill="rgba(0,0,0,0)"/>
  <path id="Path_44" data-name="Path 44" d="M863.713,376a18.316,18.316,0,0,1-1.224,4.2q-.31.744-.7,1.509H822.563q-.391-.765-.7-1.509a18.33,18.33,0,0,1-1.224-4.2Z" transform="translate(-820.315 -361.774)" fill="#c8102e"/>
  <path id="Path_45" data-name="Path 45" d="M878.709,340.83v35.819q-1.37.985-2.854,1.991-1.488-1.006-2.854-1.991V340.83a11.074,11.074,0,0,1,2.854,2.466A11.079,11.079,0,0,1,878.709,340.83Z" transform="translate(-853.993 -339.153)" fill="#c8102e"/>
</svg>
