<svg xmlns="http://www.w3.org/2000/svg" width="68.014" height="68" viewBox="0 0 68.014 68">
  <g id="Group_2776" data-name="Group 2776" transform="translate(19076.014 16384)">
    <rect id="Rectangle_2502" data-name="Rectangle 2502" width="68" height="68" transform="translate(-19076 -16384)" fill="#fff"/>
    <g id="Group_2457" data-name="Group 2457" transform="translate(-19732.014 -16454.982)">
      <g id="Group_2186" data-name="Group 2186" transform="translate(656.71 88.688)">
        <path id="Path_5332" data-name="Path 5332" d="M48.056,16.876a3.042,3.042,0,0,1,.485,1.645v5.318a1.108,1.108,0,0,1-1.1,1.112H35.425a1.108,1.108,0,0,1-1.1-1.112V7.662a1.108,1.108,0,0,1,1.1-1.112h5.646a1.358,1.358,0,0,1,1.151.615Z" transform="translate(10.746 2.394)" fill="#f0dbe7"/>
        <path id="Path_5332_-_Outline" data-name="Path 5332 - Outline" d="M47.589,25.766H35.583A1.768,1.768,0,0,1,33.821,24V7.82A1.768,1.768,0,0,1,35.583,6.05h5.646a2.008,2.008,0,0,1,1.705.92l.01.016,5.821,9.7a3.7,3.7,0,0,1,.582,1.993V24a1.768,1.768,0,0,1-1.758,1.769ZM35.583,7.365a.45.45,0,0,0-.446.454V24a.45.45,0,0,0,.446.454H47.589A.45.45,0,0,0,48.035,24V18.679a2.385,2.385,0,0,0-.388-1.29l-.01-.017-5.821-9.7a.708.708,0,0,0-.592-.307Z" transform="translate(10.588 2.237)" fill="#713e5a"/>
        <path id="Path_5330" data-name="Path 5330" d="M8.47,5.225V2.163A1.913,1.913,0,0,1,10.383.25H40.555a1.913,1.913,0,0,1,1.913,1.913v22.86a1.913,1.913,0,0,1-1.913,1.913H10.383A1.913,1.913,0,0,1,8.47,25.023V19.749" transform="translate(2.599 0.408)" fill="#f0dbe7"/>
        <path id="Path_5331" data-name="Path 5331" d="M8.47,4.661V1.945A1.789,1.789,0,0,1,10.34.251H39.818a1.789,1.789,0,0,1,1.87,1.7V22.218a1.789,1.789,0,0,1-1.87,1.7H10.34a1.789,1.789,0,0,1-1.87-1.7V17.544" transform="translate(-1.285 4.745)" fill="#fff"/>
        <path id="Path_5329" data-name="Path 5329" d="M11.232,9.569a3.1,3.1,0,0,1,.388,1.525V16.02a.97.97,0,0,1-.9,1.03H.906A.97.97,0,0,1,0,16.02V1.03A.97.97,0,0,1,.906,0H5.524a1.087,1.087,0,0,1,.941.57Z" transform="translate(44.66 11.599) rotate(-0.974)" fill="#fff"/>
        <path id="Path_5325" data-name="Path 5325" d="M40.713,27.751H10.55A2.575,2.575,0,0,1,7.97,25.18v-5.27H9.285v5.27a1.257,1.257,0,0,0,1.265,1.248H40.713a1.257,1.257,0,0,0,1.255-1.255V2.321a1.257,1.257,0,0,0-1.255-1.255H10.55A1.257,1.257,0,0,0,9.3,2.321V5.382H7.97V2.321A2.575,2.575,0,0,1,10.55-.25H40.713a2.575,2.575,0,0,1,2.571,2.571V25.18a2.575,2.575,0,0,1-2.571,2.571Z" transform="translate(2.441 0.25)" fill="#713e5a"/>
        <path id="Line_9" data-name="Line 9" d="M.158,7.7A.658.658,0,0,1-.5,7.038V.158a.658.658,0,0,1,1.315,0v6.88A.658.658,0,0,1,.158,7.7Z" transform="translate(10.911 8.787)" fill="#713e5a"/>
        <path id="Path_5328" data-name="Path 5328" d="M47.589,25.766H35.583A1.768,1.768,0,0,1,33.821,24V7.82A1.768,1.768,0,0,1,35.583,6.05h5.646a2.008,2.008,0,0,1,1.705.92l.01.016,5.821,9.7a3.7,3.7,0,0,1,.582,1.993V24a1.768,1.768,0,0,1-1.758,1.769ZM35.583,7.365a.45.45,0,0,0-.446.454V24a.45.45,0,0,0,.446.454H47.589A.45.45,0,0,0,48.035,24V18.679a2.385,2.385,0,0,0-.388-1.29l-.01-.017-5.821-9.7a.708.708,0,0,0-.592-.307Z" transform="translate(10.588 2.237)" fill="#713e5a"/>
        <path id="Path_5327" data-name="Path 5327" d="M16.811,4.847H4.464a.658.658,0,1,1,0-1.315H16.811a.658.658,0,1,1,0,1.315Z" transform="translate(1.13 1.443)" fill="#713e5a"/>
        <path id="Line_10" data-name="Line 10" d="M12.2.815H.158A.658.658,0,0,1,.158-.5H12.2a.658.658,0,0,1,0,1.315Z" transform="translate(2.789 20.003)" fill="#713e5a"/>
        <path id="Line_11" data-name="Line 11" d="M6.857.815H.158A.658.658,0,0,1,.158-.5h6.7a.658.658,0,0,1,0,1.315Z" transform="translate(0.5 10.626)" fill="#713e5a"/>
        <path id="Line_12" data-name="Line 12" d="M15.06.815H.158A.658.658,0,0,1,.158-.5h14.9a.658.658,0,0,1,0,1.315Z" transform="translate(7.617 15.667)" fill="#713e5a"/>
        <g id="Group_2172" data-name="Group 2172" transform="translate(19.203 21.298)">
          <circle id="Ellipse_608" data-name="Ellipse 608" cx="4.41" cy="4.41" r="4.41" transform="translate(0.872 1.638)" fill="#f0dbe7"/>
          <path id="Path_5404" data-name="Path 5404" d="M3.124,0C4.462,0,6.069,2.113,6.069,4.385A3.857,3.857,0,0,1,2.994,8.378C1.647,8.378,0,6.579,0,4.307S1.777,0,3.124,0Z" transform="matrix(0.914, 0.407, -0.407, 0.914, 3.41, 0)" fill="#fff"/>
          <path id="Ellipse_609" data-name="Ellipse 609" d="M4.568-.5A5.068,5.068,0,1,1-.5,4.568,5.068,5.068,0,0,1,4.568-.5Zm0,8.82A3.752,3.752,0,1,0,.815,4.568,3.752,3.752,0,0,0,4.568,8.32Z" transform="translate(0.714 1.48)" fill="#713e5a"/>
        </g>
        <g id="Group_2197" data-name="Group 2197" transform="translate(46.892 21.298)">
          <circle id="Ellipse_608-2" data-name="Ellipse 608" cx="4.41" cy="4.41" r="4.41" transform="translate(0.872 1.638)" fill="#f0dbe7"/>
          <path id="Path_5404-2" data-name="Path 5404" d="M3.124,0C4.462,0,6.069,2.113,6.069,4.385A3.857,3.857,0,0,1,2.994,8.378C1.647,8.378,0,6.579,0,4.307S1.777,0,3.124,0Z" transform="matrix(0.914, 0.407, -0.407, 0.914, 3.41, 0)" fill="#fff"/>
          <path id="Ellipse_609-2" data-name="Ellipse 609" d="M4.568-.5A5.068,5.068,0,1,1-.5,4.568,5.068,5.068,0,0,1,4.568-.5Zm0,8.82A3.752,3.752,0,1,0,.815,4.568,3.752,3.752,0,0,0,4.568,8.32Z" transform="translate(0.714 1.48)" fill="#713e5a"/>
        </g>
      </g>
      <rect id="Rectangle_3240" data-name="Rectangle 3240" width="61.962" height="61.962" transform="translate(656 73)" fill="none"/>
    </g>
  </g>
</svg>
