<svg xmlns="http://www.w3.org/2000/svg" width="68" height="68" viewBox="0 0 68 68">
  <g id="Group_2755" data-name="Group 2755" transform="translate(-424 -400)">
    <rect id="Rectangle_2502" data-name="Rectangle 2502" width="68" height="68" transform="translate(424 400)" fill="#fff"/>
    <circle id="Ellipse_568" data-name="Ellipse 568" cx="20" cy="20" r="20" transform="translate(433 415)" fill="#e7f9fa"/>
    <g id="Group_2754" data-name="Group 2754" transform="translate(-57.79 -6.979)">
      <path id="Path_6143" data-name="Path 6143" d="M14.7,2.92c-.054-.009-.108-.027-.172-.036V6.679A7.947,7.947,0,1,1,9.483,6.67V2.875a11.612,11.612,0,0,0,2.5,22.951H23.6V14.215A11.612,11.612,0,0,0,14.7,2.92Z" transform="translate(498.625 424.759)" fill="#94ccd0"/>
      <path id="Path_6143_-_Outline" data-name="Path 6143 - Outline" d="M9.983,2.253V7.03l-.341.114a7.438,7.438,0,1,0,4.723.008l-.339-.115V2.307l.571.082c.058.008.108.02.145.029l.038.009.034.007a12.162,12.162,0,0,1,6.639,4.222A11.986,11.986,0,0,1,24.1,14.215V26.326H11.986A12.112,12.112,0,0,1,9.375,2.387Zm-1,4.065v-2.8a11.112,11.112,0,0,0,3,21.81H23.1V14.215A11,11,0,0,0,20.67,7.28a11.168,11.168,0,0,0-5.646-3.758V6.329a8.447,8.447,0,1,1-6.042-.011Z" transform="translate(498.625 424.759)" fill="#17494d"/>
      <path id="Path_6144" data-name="Path 6144" d="M14.916,7.084V9.975a2.458,2.458,0,0,1-.425,1.391,3.876,3.876,0,1,1-4.2-.018,2.414,2.414,0,0,1-.416-1.373v-2.9a7.938,7.938,0,1,0,5.042.009Z" transform="translate(498.233 424.354)" fill="#fff"/>
      <path id="Path_6144_-_Outline" data-name="Path 6144 - Outline" d="M10.374,6.381V9.975a1.927,1.927,0,0,0,.329,1.092l.29.426-.434.277a3.386,3.386,0,1,0,3.662.017l-.432-.278.289-.424a1.96,1.96,0,0,0,.338-1.11V6.387l.661.224A8.447,8.447,0,1,1,9.716,6.6ZM9.636,11.2a2.96,2.96,0,0,1-.262-1.227V7.8a7.439,7.439,0,1,0,6.042.013V9.975a2.977,2.977,0,0,1-.271,1.248,4.377,4.377,0,1,1-5.509-.02Z" transform="translate(498.233 424.354)" fill="#17494d"/>
      <path id="Path_6145" data-name="Path 6145" d="M16.7,15.076a3.881,3.881,0,1,1-5.973-3.271,2.5,2.5,0,0,0,2.105,1.148,2.53,2.53,0,0,0,2.1-1.129A3.863,3.863,0,0,1,16.7,15.076Z" transform="translate(497.8 423.898)" fill="#94ccd0"/>
      <path id="Path_6145_-_Outline" data-name="Path 6145 - Outline" d="M10.875,11.116l.27.418a2,2,0,0,0,1.685.918,2.019,2.019,0,0,0,1.68-.907l.273-.41.414.266a4.376,4.376,0,1,1-4.741-.019Zm1.955,2.337a2.992,2.992,0,0,1-2.2-.958,3.384,3.384,0,1,0,4.386.016A3.009,3.009,0,0,1,12.829,13.453Z" transform="translate(497.8 423.898)" fill="#17494d"/>
      <path id="Path_6146" data-name="Path 6146" d="M15.5.827v8.5a2.458,2.458,0,0,1-.425,1.391,2.53,2.53,0,0,1-2.1,1.129A2.5,2.5,0,0,1,10.871,10.7a2.414,2.414,0,0,1-.416-1.373V.827a.447.447,0,0,1,.452-.452h4.138A.453.453,0,0,1,15.5.827Z" transform="translate(497.653 425)" fill="#fff"/>
      <path id="Path_6146_-_Outline" data-name="Path 6146 - Outline" d="M10.907-.125h4.138A.953.953,0,0,1,16,.827v8.5a2.956,2.956,0,0,1-.51,1.67,3.008,3.008,0,0,1-5.033-.021,2.923,2.923,0,0,1-.5-1.65V.827A.953.953,0,0,1,10.907-.125Zm4.09,1H10.955V9.329a1.927,1.927,0,0,0,.329,1.092l.007.011a2,2,0,0,0,1.685.918,2.019,2.019,0,0,0,1.68-.907l0,0A1.96,1.96,0,0,0,15,9.329Z" transform="translate(497.653 425)" fill="#17494d"/>
      <path id="Path_6147" data-name="Path 6147" d="M40.433,20.427v6.6a.455.455,0,0,1-.343.434H40.08a.384.384,0,0,1-.1.018H26.075v-7.5H39.981a.384.384,0,0,1,.1.018h.009A.455.455,0,0,1,40.433,20.427Z" transform="translate(496.147 423.11)" fill="#fff"/>
      <path id="Path_6147_-_Outline" data-name="Path 6147 - Outline" d="M25.575,19.475H39.981a.733.733,0,0,1,.161.018h.006l.057.014a.955.955,0,0,1,.728.92v6.6a.955.955,0,0,1-.728.92l-.064.014a.733.733,0,0,1-.161.018H25.575Zm14.358,1H26.575v6.5H39.933Z" transform="translate(496.147 423.11)" fill="#17494d"/>
      <path id="Path_6148" data-name="Path 6148" d="M41.565,20.429v6.6a.455.455,0,0,1-.343.434h-.009a3.748,3.748,0,0,1,0-7.463h.009A.455.455,0,0,1,41.565,20.429Z" transform="translate(495.014 423.108)" fill="#94ccd0"/>
      <path id="Path_6148_-_Outline" data-name="Path 6148 - Outline" d="M41.19,19.495h.09l.057.014a.955.955,0,0,1,.728.92v6.6a.955.955,0,0,1-.728.92l-.057.014-.113,0a4.248,4.248,0,0,1,0-8.459Zm-.125,7.442V20.516a3.249,3.249,0,0,0,0,6.421Z" transform="translate(495.014 423.108)" fill="#17494d"/>
      <path id="Path_6149" data-name="Path 6149" d="M30.654,25.455v2.485H29.335V25.455a.66.66,0,0,1,1.319,0Z" transform="translate(495.832 422.645)" fill="#17494d"/>
      <path id="Path_6149_-_Outline" data-name="Path 6149 - Outline" d="M29.995,24.3a1.161,1.161,0,0,1,1.16,1.16v2.985H28.835V25.455A1.161,1.161,0,0,1,29.995,24.3Zm.16,3.144V25.455a.16.16,0,1,0-.319,0v1.985Z" transform="translate(495.832 422.645)" fill="#17494d"/>
      <path id="Path_6150" data-name="Path 6150" d="M35.284,26.545v1.5H33.965v-1.5a.66.66,0,0,1,1.319,0Z" transform="translate(495.386 422.54)" fill="#17494d"/>
      <path id="Path_6150_-_Outline" data-name="Path 6150 - Outline" d="M34.625,25.385a1.161,1.161,0,0,1,1.16,1.16v2H33.465v-2A1.161,1.161,0,0,1,34.625,25.385Zm.16,2.16v-1a.16.16,0,1,0-.319,0v1Z" transform="translate(495.386 422.54)" fill="#17494d"/>
    </g>
  </g>
</svg>
