<svg xmlns="http://www.w3.org/2000/svg" width="68" height="68" viewBox="0 0 68 68">
  <g id="Group_2737" data-name="Group 2737" transform="translate(-7811 -6943)">
    <rect id="Rectangle_2502" data-name="Rectangle 2502" width="68" height="68" transform="translate(7811 6943)" fill="#fff"/>
    <circle id="Ellipse_568" data-name="Ellipse 568" cx="20" cy="20" r="20" transform="translate(7818 6957)" fill="#e7f9fa"/>
    <g id="Group_2186" data-name="Group 2186" transform="translate(7788.774 6904.643)">
      <path id="Path_5332" data-name="Path 5332" d="M47.1,17.305v4.778a1,1,0,0,1-.992,1H35.313a1,1,0,0,1-.992-1V7.549a1,1,0,0,1,.992-1h5.073a1.22,1.22,0,0,1,1.034.553S47.1,16.781,47.1,17.305Z" transform="translate(34.426 61.722)" fill="#fff"/>
      <path id="Path_5332_-_Outline" data-name="Path 5332 - Outline" d="M46.191,23.764H35.4a1.588,1.588,0,0,1-1.583-1.59V7.64A1.588,1.588,0,0,1,35.4,6.05h5.073a1.8,1.8,0,0,1,1.532.826l.009.014,5.229,8.716a3.322,3.322,0,0,1,.523,1.79v4.778a1.588,1.588,0,0,1-1.579,1.59ZM35.4,7.232a.4.4,0,0,0-.4.408V22.174a.4.4,0,0,0,.4.408H46.191a.4.4,0,0,0,.4-.408V17.4a2.142,2.142,0,0,0-.349-1.159l-.009-.016L41,7.506a.636.636,0,0,0-.532-.275Z" transform="translate(34.335 61.631)" fill="#713e5a"/>
      <path id="Path_5330" data-name="Path 5330" d="M8.47,4.719V1.969A1.719,1.719,0,0,1,10.189.25H37.3a1.719,1.719,0,0,1,1.719,1.719V22.507A1.719,1.719,0,0,1,37.3,24.226H10.189A1.719,1.719,0,0,1,8.47,22.507V17.769" transform="translate(29.732 60.577)" fill="#94ccd0"/>
      <path id="Path_5329" data-name="Path 5329" d="M10.091,8.6a2.789,2.789,0,0,1,.349,1.37v4.426a.872.872,0,0,1-.811.926H.814A.872.872,0,0,1,0,14.393V.926A.872.872,0,0,1,.814,0H4.963a.976.976,0,0,1,.845.512Z" transform="translate(68.381 70.657) rotate(-0.974)" fill="#fff"/>
      <path id="Path_5325" data-name="Path 5325" d="M37.388,24.907h-27.1A2.313,2.313,0,0,1,7.97,22.6V17.863H9.152V22.6a1.13,1.13,0,0,0,1.137,1.121h27.1a1.13,1.13,0,0,0,1.128-1.128V2.06A1.13,1.13,0,0,0,37.388.932h-27.1A1.13,1.13,0,0,0,9.161,2.06V4.81H7.97V2.06A2.313,2.313,0,0,1,10.288-.25h27.1A2.313,2.313,0,0,1,39.7,2.06V22.6a2.313,2.313,0,0,1-2.31,2.31Z" transform="translate(29.641 60.486)" fill="#17494d"/>
      <path id="Line_9" data-name="Line 9" d="M.091,6.863A.591.591,0,0,1-.5,6.272V.091a.591.591,0,0,1,1.182,0V6.272a.591.591,0,0,1-.591.591Z" transform="translate(38.111 68.181)" fill="#17494d"/>
      <path id="Path_5328" data-name="Path 5328" d="M46.191,23.764H35.4a1.588,1.588,0,0,1-1.583-1.59V7.64A1.588,1.588,0,0,1,35.4,6.05h5.073a1.8,1.8,0,0,1,1.532.826l.009.014,5.229,8.716a3.322,3.322,0,0,1,.523,1.79v4.778a1.588,1.588,0,0,1-1.579,1.59ZM35.4,7.232a.4.4,0,0,0-.4.408V22.174a.4.4,0,0,0,.4.408H46.191a.4.4,0,0,0,.4-.408V17.4a2.142,2.142,0,0,0-.349-1.159l-.009-.016L41,7.506a.636.636,0,0,0-.532-.275Z" transform="translate(34.335 61.631)" fill="#17494d"/>
      <path id="Path_5327" data-name="Path 5327" d="M15.49,4.714H4.4a.591.591,0,1,1,0-1.182H15.49a.591.591,0,0,1,0,1.182Z" transform="translate(28.886 61.173)" fill="#17494d"/>
      <path id="Line_10" data-name="Line 10" d="M10.913.682H.091A.591.591,0,0,1,.091-.5H10.913a.591.591,0,0,1,0,1.182Z" transform="translate(30.814 78.258)" fill="#17494d"/>
      <path id="Line_11" data-name="Line 11" d="M6.11.682H.091A.591.591,0,0,1,.091-.5H6.11a.591.591,0,1,1,0,1.182Z" transform="translate(28.757 69.834)" fill="#17494d"/>
      <path id="Line_12" data-name="Line 12" d="M13.48.682H.091A.591.591,0,0,1,.091-.5H13.48a.591.591,0,1,1,0,1.182Z" transform="translate(35.151 74.362)" fill="#17494d"/>
      <g id="Group_2172" data-name="Group 2172" transform="translate(45.51 79.371)">
        <path id="Ellipse_608" data-name="Ellipse 608" d="M3.962,0A3.962,3.962,0,1,1,0,3.962,3.962,3.962,0,0,1,3.962,0Z" transform="translate(1.375 2.062)" fill="#fff"/>
        <path id="Path_5404" data-name="Path 5404" d="M2.806,0c1.2,0,2.646,1.9,2.646,3.94A3.465,3.465,0,0,1,2.69,7.527C1.48,7.527,0,5.911,0,3.87S1.6,0,2.806,0Z" transform="matrix(0.914, 0.407, -0.407, 0.914, 3.063, 0)" fill="#fff"/>
        <path id="Ellipse_609" data-name="Ellipse 609" d="M4.053-.5A4.553,4.553,0,1,1-.5,4.053,4.553,4.553,0,0,1,4.053-.5Zm0,7.924A3.371,3.371,0,1,0,.682,4.053,3.371,3.371,0,0,0,4.053,7.424Z" transform="translate(0.692 1.38)" fill="#17494d"/>
      </g>
      <g id="Group_2197" data-name="Group 2197" transform="translate(70.387 79.371)">
        <path id="Ellipse_608-2" data-name="Ellipse 608" d="M3.962,0A3.962,3.962,0,1,1,0,3.962,3.962,3.962,0,0,1,3.962,0Z" transform="translate(0.783 1.471)" fill="#fff"/>
        <path id="Path_5404-2" data-name="Path 5404" d="M2.806,0c1.2,0,2.646,1.9,2.646,3.94A3.465,3.465,0,0,1,2.69,7.527C1.48,7.527,0,5.911,0,3.87S1.6,0,2.806,0Z" transform="matrix(0.914, 0.407, -0.407, 0.914, 3.063, 0)" fill="#fff"/>
        <path id="Ellipse_609-2" data-name="Ellipse 609" d="M4.053-.5A4.553,4.553,0,1,1-.5,4.053,4.553,4.553,0,0,1,4.053-.5Zm0,7.924A3.371,3.371,0,1,0,.682,4.053,3.371,3.371,0,0,0,4.053,7.424Z" transform="translate(0.692 1.38)" fill="#17494d"/>
      </g>
    </g>
  </g>
</svg>
