<svg xmlns="http://www.w3.org/2000/svg" width="37.832" height="48.514" viewBox="0 0 37.832 48.514">
  <g id="Group_1461" data-name="Group 1461" transform="translate(-24.13 -4787.279)">
    <path id="Path_896" data-name="Path 896" d="M.014-.006,19.147,9.857l-.079,19.8L.253,19.845Z" transform="translate(24.12 4806.134)" fill="#4a2c21"/>
    <path id="Path_897" data-name="Path 897" d="M1.9,10.294,20.623.448,20.632,20.2,1.854,30.017Z" transform="translate(41.33 4805.775)" fill="#26150f"/>
    <path id="Path_898" data-name="Path 898" d="M6.866,5.923,27.27,0,20.652,20.089,0,26.209Z" transform="matrix(0.719, 0.695, -0.695, 0.719, 42.337, 4787.279)" fill="#593b30"/>
    <path id="Path_899" data-name="Path 899" d="M-.091-11.63,5.326-14.5,5.3-6.522l-5.348,2.6Z" transform="translate(50.369 4823.997)" fill="rgba(247,247,255,0.79)"/>
    <path id="Path_900" data-name="Path 900" d="M-.483-11.425l5.5-2.837L24.279-4.545,18.865-1.672Z" transform="translate(31.416 4814.045)" fill="#f7f7ff"/>
    <path id="Path_910" data-name="Path 910" d="M0,0,6.836,3.5" transform="matrix(1, -0.017, 0.017, 1, 33.044, 4826.602)" fill="#f7f7ff"/>
    <path id="Path_910_-_Outline" data-name="Path 910 - Outline" d="M6.836,4.4,0,.9.462,0,7.3,3.5Z" transform="matrix(1, -0.017, 0.017, 1, 32.805, 4826.156)" fill="#f7f7ff"/>
    <path id="Path_911" data-name="Path 911" d="M0,0,3.317,1.7" transform="matrix(1, -0.017, 0.017, 1, 36.646, 4824.428)" fill="#f7f7ff"/>
    <path id="Path_911_-_Outline" data-name="Path 911 - Outline" d="M3.317,2.6,0,.9.462,0,3.779,1.7Z" transform="matrix(1, -0.017, 0.017, 1, 36.408, 4823.979)" fill="#f7f7ff"/>
  </g>
</svg>
