<svg xmlns="http://www.w3.org/2000/svg" width="100" height="100" viewBox="0 0 100 100">
  <g id="Group_1689" data-name="Group 1689" transform="translate(-11840 -15998)">
    <rect id="Rectangle_3158" data-name="Rectangle 3158" width="100" height="100" transform="translate(11840 15998)" fill="none"/>
    <g id="Group_1684" data-name="Group 1684" transform="translate(10792.684 15913.369)">
      <circle id="Ellipse_36" data-name="Ellipse 36" cx="5.944" cy="5.944" r="5.944" transform="translate(1073.478 105.631)" fill="#00ad74"/>
      <path id="Path_192" data-name="Path 192" d="M1088.682,133.806l17.789-4.017a3.376,3.376,0,1,0-1.63-6.551l-5.242,1.426a3.369,3.369,0,0,1-3.637-1.324,23.141,23.141,0,0,0-3.757-4.237,9.542,9.542,0,0,0-5.271-2.582,7.145,7.145,0,0,0-4.317,1.038,5.725,5.725,0,0,0-1.875,1.82,5.98,5.98,0,0,0-.757,3.776c.4,3.706,3.058,7.028,5.491,9.67A3.356,3.356,0,0,0,1088.682,133.806Z" transform="translate(1.513 1.124)" fill="#00ad74"/>
      <path id="Path_193" data-name="Path 193" d="M1114.68,133.412,1086.76,139l-18.066-25.953a1.834,1.834,0,0,0-3.177,1.815l21.263,42.633a2.987,2.987,0,0,0,2.693,1.7h17.651a2.791,2.791,0,0,0,2.6-1.769l8.007-20.365A2.7,2.7,0,0,0,1114.68,133.412Z" transform="translate(0 0.681)" fill="#28686c"/>
      <path id="Path_194" data-name="Path 194" d="M1112.988,146.4l3.107-7.777,7.693,11.243a3.412,3.412,0,0,1-.947,4.781h0a3.411,3.411,0,0,1-4.657-.886Z" transform="translate(4.932 3.413)" fill="#00ad74"/>
    </g>
  </g>
</svg>
