<svg xmlns="http://www.w3.org/2000/svg" width="68" height="68" viewBox="0 0 68 68">
  <g id="Group_2736" data-name="Group 2736" transform="translate(-7859 -6943)">
    <rect id="Rectangle_2502" data-name="Rectangle 2502" width="68" height="68" transform="translate(7859 6943)" fill="#fff"/>
    <circle id="Ellipse_567" data-name="Ellipse 567" cx="20" cy="20" r="20" transform="translate(7880 6957)" fill="#e7f9fa"/>
    <path id="Path_194" data-name="Path 194" d="M0,1.088,5.826,0l5.756,8.055a2.844,2.844,0,0,1-.792,3.987h0A2.844,2.844,0,0,1,6.906,11.3Z" transform="translate(7906.342 6979.518) rotate(-60)" fill="#fff" stroke="#17494d" stroke-linejoin="round" stroke-width="1.5"/>
    <g id="Group_2734" data-name="Group 2734">
      <path id="Path_193" data-name="Path 193" d="M1104.964,126.965l-22.231,3.892-13.8-16.371a1.529,1.529,0,0,0-2.64,1.513l15.418,31.045a2.49,2.49,0,0,0,2.244,1.415h14.716a2.326,2.326,0,0,0,2.165-1.476L1107.512,130a2.255,2.255,0,0,0-2.548-3.039Z" transform="translate(6798.82 6844.85)" fill="#94ccd0" stroke="#0b4a4c" stroke-linejoin="round" stroke-width="1.5"/>
      <path id="Path_5562" data-name="Path 5562" d="M1.4,0A1.4,1.4,0,0,1,2.8,1.4V4.188a1.4,1.4,0,1,1-2.8,0V1.4A1.4,1.4,0,0,1,1.4,0Z" transform="translate(7890.301 6980.033) rotate(48)" fill="#fff" stroke="#17494d" stroke-linejoin="round" stroke-width="1.5"/>
    </g>
  </g>
</svg>
