<svg xmlns="http://www.w3.org/2000/svg" width="68" height="68" viewBox="0 0 68 68">
  <g id="Group_2749" data-name="Group 2749" transform="translate(-7786 -6943)">
    <rect id="Rectangle_2502" data-name="Rectangle 2502" width="68" height="68" transform="translate(7786 6943)" fill="#fff"/>
    <circle id="Ellipse_568" data-name="Ellipse 568" cx="20" cy="20" r="20" transform="translate(7804 6954)" fill="#e7f9fa"/>
    <g id="Group_2750" data-name="Group 2750" transform="translate(103 -210.063)">
      <path id="Path_6139" data-name="Path 6139" d="M40.739,22.515V21.64a.413.413,0,0,0-.265-.385l-.713-.273a.416.416,0,0,1-.248-.278,5.167,5.167,0,0,0-.491-1.173A.41.41,0,0,1,39,19.158l.314-.707a.41.41,0,0,0-.085-.459l-.619-.618a.41.41,0,0,0-.459-.085l-.717.319a.411.411,0,0,1-.372-.021,5.085,5.085,0,0,0-1.155-.481.415.415,0,0,1-.279-.248c-.077-.2-.2-.51-.281-.731a.412.412,0,0,0-.384-.264h-.875a.411.411,0,0,0-.385.265l-.28.729a.411.411,0,0,1-.279.248,5.185,5.185,0,0,0-1.156.481.411.411,0,0,1-.372.022l-.647-.288a.446.446,0,0,0-.529.054l-.618.618a.414.414,0,0,0-.086.46l.314.7a.414.414,0,0,1-.023.375,5.151,5.151,0,0,0-.492,1.173.41.41,0,0,1-.247.278l-.643.247a.445.445,0,0,0-.334.411v.875a.412.412,0,0,0,.264.385l.695.267a.412.412,0,0,1,.248.281,5.168,5.168,0,0,0,.5,1.2.408.408,0,0,1,.023.372l-.273.614a.445.445,0,0,0,.055.527l.618.618a.412.412,0,0,0,.459.086l.669-.3a.411.411,0,0,1,.375.023,5.15,5.15,0,0,0,1.22.51.414.414,0,0,1,.28.248l.26.678a.412.412,0,0,0,.385.264h.875a.414.414,0,0,0,.385-.264l.26-.678a.408.408,0,0,1,.28-.248,5.143,5.143,0,0,0,1.219-.51.408.408,0,0,1,.375-.023l.669.3a.412.412,0,0,0,.459-.086l.619-.618a.41.41,0,0,0,.085-.459l-.3-.681a.412.412,0,0,1,.022-.374,5.186,5.186,0,0,0,.5-1.2.409.409,0,0,1,.248-.281l.695-.267A.411.411,0,0,0,40.739,22.515Z" transform="translate(7690.56 7168.863)" fill="#94ccd0"/>
      <path id="Path_6139_-_Outline" data-name="Path 6139 - Outline" d="M34.962,28.792h-.875a.917.917,0,0,1-.852-.585l-.243-.633a5.654,5.654,0,0,1-1.265-.529l-.626.279a.912.912,0,0,1-1.016-.189l-.618-.618a.939.939,0,0,1-.158-1.084l.253-.569a5.683,5.683,0,0,1-.518-1.247l-.65-.25a.917.917,0,0,1-.585-.852V21.64a.939.939,0,0,1,.655-.878l.6-.23a5.661,5.661,0,0,1,.51-1.216l-.295-.661a.92.92,0,0,1,.189-1.017l.618-.618a.887.887,0,0,1,.632-.26,1.113,1.113,0,0,1,.455.1l.6.268a5.7,5.7,0,0,1,1.2-.5l.263-.685a.917.917,0,0,1,.852-.586h.875a.917.917,0,0,1,.851.585l.1.26.164.427a5.593,5.593,0,0,1,1.2.5l.674-.3a.9.9,0,0,1,.371-.079.916.916,0,0,1,.646.269l.617.616a.916.916,0,0,1,.188,1.018l-.294.661a5.683,5.683,0,0,1,.508,1.215l.669.256a.908.908,0,0,1,.586.852v.875a.917.917,0,0,1-.587.852L40,23.617a5.7,5.7,0,0,1-.517,1.246l.284.638a.916.916,0,0,1-.188,1.016l-.619.618a.916.916,0,0,1-.645.267h0a.907.907,0,0,1-.369-.078l-.627-.279a5.656,5.656,0,0,1-1.264.529l-.243.633A.921.921,0,0,1,34.962,28.792Zm-.815-1H34.9l.238-.621a.911.911,0,0,1,.618-.552,4.646,4.646,0,0,0,1.1-.46.92.92,0,0,1,.462-.125.892.892,0,0,1,.369.079l.611.272.534-.533-.278-.626A.916.916,0,0,1,38.6,24.4a4.69,4.69,0,0,0,.45-1.084A.911.911,0,0,1,39.6,22.7l.637-.245V21.7l-.657-.251a.921.921,0,0,1-.55-.608,4.686,4.686,0,0,0-.444-1.062.915.915,0,0,1-.045-.825l.289-.651L38.3,17.77l-.662.295a.923.923,0,0,1-.821-.043,4.6,4.6,0,0,0-1.042-.434.922.922,0,0,1-.613-.551l-.181-.471-.078-.2h-.754l-.259.673a.914.914,0,0,1-.613.551,4.69,4.69,0,0,0-1.043.434.929.929,0,0,1-.456.121.892.892,0,0,1-.366-.078l-.647-.288-.015-.006-.533.533.289.649a.919.919,0,0,1-.045.826,4.661,4.661,0,0,0-.445,1.06.914.914,0,0,1-.55.61l-.642.247-.013.005v.754l.638.245a.915.915,0,0,1,.551.616,4.681,4.681,0,0,0,.451,1.087.911.911,0,0,1,.044.824l-.272.612-.006.013.533.533.613-.273a.9.9,0,0,1,.367-.078.921.921,0,0,1,.463.126,4.652,4.652,0,0,0,1.1.46.92.92,0,0,1,.615.55Z" transform="translate(7690.56 7168.863)" fill="#17494d"/>
      <path id="Path_6141" data-name="Path 6141" d="M37.331,22.1a2.808,2.808,0,1,1-2.807-2.807A2.807,2.807,0,0,1,37.331,22.1Z" transform="translate(7690.56 7168.863)" fill="#fff"/>
      <path id="Path_6141_-_Outline" data-name="Path 6141 - Outline" d="M34.524,25.407A3.307,3.307,0,1,1,37.831,22.1,3.311,3.311,0,0,1,34.524,25.407Zm0-5.614A2.307,2.307,0,1,0,36.831,22.1,2.31,2.31,0,0,0,34.524,19.793Z" transform="translate(7690.56 7168.863)" fill="#17494d"/>
      <path id="Path_6136" data-name="Path 6136" d="M34.347,9.213,34.4,8.124a.513.513,0,0,0-.305-.5l-.87-.387a.516.516,0,0,1-.291-.362A6.392,6.392,0,0,0,32.4,5.387.513.513,0,0,1,32.4,4.92l.437-.859a.512.512,0,0,0-.076-.576l-.73-.81a.515.515,0,0,0-.566-.136l-.913.351a.517.517,0,0,1-.463-.051,6.4,6.4,0,0,0-1.407-.674.512.512,0,0,1-.331-.326c-.082-.253-.21-.648-.3-.928a.511.511,0,0,0-.461-.354L26.5.5a.515.515,0,0,0-.5.305l-.4.89a.516.516,0,0,1-.363.291,6.413,6.413,0,0,0-1.47.524.518.518,0,0,1-.465,0l-.787-.4a.558.558,0,0,0-.662.033l-.81.73a.515.515,0,0,0-.136.566l.345.9A.515.515,0,0,1,21.2,4.8a6.39,6.39,0,0,0-.689,1.429.512.512,0,0,1-.325.33l-.817.265a.556.556,0,0,0-.443.492l-.057,1.088a.515.515,0,0,0,.3.5l.848.377a.514.514,0,0,1,.291.366,6.437,6.437,0,0,0,.543,1.529.509.509,0,0,1,0,.465l-.38.746a.557.557,0,0,0,.035.66l.729.81a.516.516,0,0,0,.567.136l.852-.328a.513.513,0,0,1,.465.054,6.394,6.394,0,0,0,1.485.713.515.515,0,0,1,.333.327l.28.861a.514.514,0,0,0,.462.354l1.089.057a.514.514,0,0,0,.5-.3l.368-.828a.516.516,0,0,1,.365-.29,6.429,6.429,0,0,0,1.551-.556.515.515,0,0,1,.468-.005l.814.415a.515.515,0,0,0,.577-.076l.81-.73a.514.514,0,0,0,.136-.567l-.333-.867a.511.511,0,0,1,.051-.463,6.424,6.424,0,0,0,.7-1.464.516.516,0,0,1,.327-.334l.884-.287A.514.514,0,0,0,34.347,9.213Z" transform="translate(7690.56 7168.863)" fill="#94ccd0"/>
      <path id="Path_6136_-_Outline" data-name="Path 6136 - Outline" d="M26.807,16.532h-.053l-1.089-.057a1.02,1.02,0,0,1-.911-.7l-.28-.862a.084.084,0,0,0-.015-.007,6.9,6.9,0,0,1-1.6-.768.032.032,0,0,0-.015-.006l-.85.327a1.016,1.016,0,0,1-1.117-.267l-.73-.811a1.052,1.052,0,0,1-.109-1.221l.38-.747a.036.036,0,0,0,0-.011,6.954,6.954,0,0,1-.586-1.651.034.034,0,0,0-.007-.016l-.847-.376a1.01,1.01,0,0,1-.6-.98l.057-1.088a1.053,1.053,0,0,1,.788-.941l.817-.265s0,0,.005-.013a6.906,6.906,0,0,1,.743-1.542.033.033,0,0,0,.006-.015l-.345-.9A1.019,1.019,0,0,1,20.713,2.5l.809-.73a.972.972,0,0,1,.66-.252,1.241,1.241,0,0,1,.564.145l.787.4a.082.082,0,0,0,.016-.005A6.93,6.93,0,0,1,25.132,1.5a.035.035,0,0,0,.016-.007l.4-.889a1.016,1.016,0,0,1,.98-.6l1.089.057a1.016,1.016,0,0,1,.911.7c.089.272.215.659.3.912l0,.014.013.006a6.916,6.916,0,0,1,1.518.727.034.034,0,0,0,.016.006l.912-.351a1.014,1.014,0,0,1,1.117.268l.73.809a1.018,1.018,0,0,1,.149,1.139l-.437.858s0,0,.006.014a6.908,6.908,0,0,1,.577,1.609.028.028,0,0,0,.007.014l.869.387a1.018,1.018,0,0,1,.6.979l-.057,1.089a1.02,1.02,0,0,1-.7.911l-.885.287s0,.005-.007.016A6.936,6.936,0,0,1,32.5,12.03a.031.031,0,0,0-.006.014l.333.867a1.009,1.009,0,0,1-.268,1.118l-.81.73a1.013,1.013,0,0,1-.679.26h0a1.022,1.022,0,0,1-.459-.109l-.816-.416-.015.006a6.933,6.933,0,0,1-1.67.6.034.034,0,0,0-.016.007l-.367.825A1.014,1.014,0,0,1,26.807,16.532Zm-3.963-3.4a1.022,1.022,0,0,1,.561.169,5.9,5.9,0,0,0,1.367.656,1.021,1.021,0,0,1,.653.648l.28.861a.013.013,0,0,0,.012.009l1.09.057a.014.014,0,0,0,.012-.007l.368-.828a1.021,1.021,0,0,1,.716-.576,5.934,5.934,0,0,0,1.43-.513,1.031,1.031,0,0,1,.921-.006l.815.416h.006a.014.014,0,0,0,.01,0l.809-.73a.015.015,0,0,0,0-.017l-.333-.866a1.014,1.014,0,0,1,.1-.913,5.936,5.936,0,0,0,.644-1.349,1.022,1.022,0,0,1,.648-.654l.884-.287a.013.013,0,0,0,.009-.012L33.9,8.1a.013.013,0,0,0-.007-.012L33.026,7.7a1.023,1.023,0,0,1-.576-.709,5.908,5.908,0,0,0-.493-1.376,1.007,1.007,0,0,1,0-.919l.437-.859a.013.013,0,0,0,0-.015l-.73-.809a.015.015,0,0,0-.011,0l-.917.352a1.025,1.025,0,0,1-.91-.1,5.917,5.917,0,0,0-1.3-.622,1.006,1.006,0,0,1-.648-.646l0-.014c-.082-.253-.207-.638-.3-.912,0-.009-.008-.011-.012-.011L26.471,1a.015.015,0,0,0-.014.009l-.4.89a1.008,1.008,0,0,1-.71.576,5.933,5.933,0,0,0-1.357.484,1.034,1.034,0,0,1-.913,0l-.789-.4a.291.291,0,0,0-.106-.036l-.8.725a.015.015,0,0,0,0,.015l.345.9a1.02,1.02,0,0,1-.1.914,5.906,5.906,0,0,0-.636,1.319,1,1,0,0,1-.644.646l-.818.265a.282.282,0,0,0-.1.049l-.057,1.082a.015.015,0,0,0,.009.015l.847.376a1.019,1.019,0,0,1,.577.717,5.947,5.947,0,0,0,.5,1.41,1.013,1.013,0,0,1,0,.917l-.38.746a.28.28,0,0,0-.035.1l.725.805a.014.014,0,0,0,.017,0l.851-.328A1,1,0,0,1,22.844,13.132Z" transform="translate(7690.56 7168.863)" fill="#17494d"/>
      <circle id="Ellipse_571" data-name="Ellipse 571" cx="3.5" cy="3.5" r="3.5" transform="translate(7713.697 7173.658)" fill="#fff"/>
      <path id="Ellipse_571_-_Outline" data-name="Ellipse 571 - Outline" d="M3.5-.5a4,4,0,1,1-4,4A4,4,0,0,1,3.5-.5Zm0,7a3,3,0,1,0-3-3A3,3,0,0,0,3.5,6.5Z" transform="translate(7713.697 7173.658)" fill="#17494d"/>
      <path id="Path_6140" data-name="Path 6140" d="M26.555,26.248l.08-1.541A.727.727,0,0,0,26.2,24l-1.232-.548a.729.729,0,0,1-.411-.512,9.033,9.033,0,0,0-.758-2.111.722.722,0,0,1-.006-.66c.169-.333.431-.848.619-1.216a.726.726,0,0,0-.109-.816l-1.033-1.147a.726.726,0,0,0-.8-.192l-1.292.5a.732.732,0,0,1-.655-.072,9.083,9.083,0,0,0-1.991-.954.722.722,0,0,1-.468-.461c-.117-.358-.3-.917-.428-1.315a.727.727,0,0,0-.654-.5l-1.541-.08a.726.726,0,0,0-.7.431l-.561,1.26a.726.726,0,0,1-.514.411,9.09,9.09,0,0,0-2.081.742.725.725,0,0,1-.657,0L9.815,16.2a.788.788,0,0,0-.937.047L7.732,17.278a.725.725,0,0,0-.192.8l.488,1.27a.729.729,0,0,1-.075.658,9.048,9.048,0,0,0-.974,2.022.727.727,0,0,1-.461.467l-1.156.376a.786.786,0,0,0-.627.695l-.081,1.541a.728.728,0,0,0,.431.7l1.2.534a.726.726,0,0,1,.411.518,9.105,9.105,0,0,0,.77,2.164.724.724,0,0,1,.005.658l-.537,1.057a.784.784,0,0,0,.048.933l1.033,1.147a.73.73,0,0,0,.8.192l1.2-.464a.728.728,0,0,1,.659.076,9.077,9.077,0,0,0,2.1,1.01.727.727,0,0,1,.471.463l.4,1.218a.729.729,0,0,0,.654.5l1.541.08a.73.73,0,0,0,.7-.431l.52-1.171a.726.726,0,0,1,.517-.411,9.13,9.13,0,0,0,2.2-.787.731.731,0,0,1,.663-.007l1.151.587a.726.726,0,0,0,.817-.108l1.147-1.033a.727.727,0,0,0,.192-.8l-.472-1.228a.728.728,0,0,1,.073-.656,9.032,9.032,0,0,0,.989-2.071.732.732,0,0,1,.464-.473l1.249-.406A.727.727,0,0,0,26.555,26.248Z" transform="translate(7690.56 7168.863)" fill="#94ccd0"/>
      <path id="Path_6140_-_Outline" data-name="Path 6140 - Outline" d="M15.882,36.4l-.062,0-1.542-.08a1.236,1.236,0,0,1-1.1-.847l-.4-1.218a.228.228,0,0,0-.152-.143,9.594,9.594,0,0,1-2.218-1.065.231.231,0,0,0-.208-.029L9,33.48a1.229,1.229,0,0,1-1.352-.323L6.61,32.009a1.271,1.271,0,0,1-.122-1.5l.536-1.056a.227.227,0,0,0-.006-.207,9.63,9.63,0,0,1-.812-2.283.228.228,0,0,0-.125-.167l-1.2-.534a1.235,1.235,0,0,1-.727-1.184l.081-1.542A1.272,1.272,0,0,1,5.208,22.4l1.156-.376a.23.23,0,0,0,.142-.151,9.564,9.564,0,0,1,1.028-2.134.231.231,0,0,0,.028-.208l-.488-1.27A1.23,1.23,0,0,1,7.4,16.906l1.145-1.032a1.168,1.168,0,0,1,.795-.3,1.552,1.552,0,0,1,.7.183l1.114.567a.227.227,0,0,0,.207-.006,9.612,9.612,0,0,1,2.2-.783.228.228,0,0,0,.166-.125l.562-1.262a1.227,1.227,0,0,1,1.185-.727l1.54.08a1.219,1.219,0,0,1,1.1.845c.129.4.311.957.428,1.314a.224.224,0,0,0,.15.142,9.612,9.612,0,0,1,2.1,1.007.235.235,0,0,0,.208.027l1.291-.5a1.226,1.226,0,0,1,1.353.325l1.032,1.146a1.234,1.234,0,0,1,.184,1.376c-.189.37-.451.884-.619,1.217a.225.225,0,0,0,.006.208,9.551,9.551,0,0,1,.8,2.228.23.23,0,0,0,.126.164l1.233.548a1.219,1.219,0,0,1,.727,1.186l-.08,1.54a1.235,1.235,0,0,1-.847,1.1l-1.249.406a.232.232,0,0,0-.144.154,9.552,9.552,0,0,1-1.043,2.185.229.229,0,0,0-.027.206l.472,1.228a1.235,1.235,0,0,1-.324,1.352l-1.147,1.033a1.221,1.221,0,0,1-.821.316,1.236,1.236,0,0,1-.557-.134l-1.151-.587a.237.237,0,0,0-.21.008,9.65,9.65,0,0,1-2.314.829.228.228,0,0,0-.167.125L17,35.67A1.232,1.232,0,0,1,15.882,36.4ZM10.274,32a1.245,1.245,0,0,1,.679.2,8.592,8.592,0,0,0,1.986.954,1.234,1.234,0,0,1,.79.784l.4,1.218a.23.23,0,0,0,.205.157l1.54.08h.011a.23.23,0,0,0,.21-.136l.519-1.17a1.232,1.232,0,0,1,.869-.7,8.648,8.648,0,0,0,2.073-.744,1.264,1.264,0,0,1,.569-.138,1.217,1.217,0,0,1,.546.13l1.153.588a.226.226,0,0,0,.1.025h0a.224.224,0,0,0,.151-.058l1.148-1.034a.226.226,0,0,0,.06-.25l-.472-1.228a1.219,1.219,0,0,1,.118-1.1,8.554,8.554,0,0,0,.935-1.957,1.239,1.239,0,0,1,.784-.793l1.25-.406a.226.226,0,0,0,.157-.205l.08-1.54a.226.226,0,0,0-.135-.22l-1.232-.548a1.236,1.236,0,0,1-.7-.859,8.551,8.551,0,0,0-.716-2,1.229,1.229,0,0,1,0-1.115c.168-.331.43-.846.618-1.215a.225.225,0,0,0-.034-.253L22.9,17.329a.229.229,0,0,0-.25-.06l-1.292.5a1.241,1.241,0,0,1-1.1-.116,8.608,8.608,0,0,0-1.882-.9,1.227,1.227,0,0,1-.785-.782c-.116-.356-.3-.915-.428-1.314a.226.226,0,0,0-.2-.155l-1.54-.08h-.013a.226.226,0,0,0-.206.135l-.561,1.261a1.231,1.231,0,0,1-.863.7,8.607,8.607,0,0,0-1.965.7,1.26,1.26,0,0,1-.56.133,1.207,1.207,0,0,1-.548-.132l-1.113-.566a.566.566,0,0,0-.25-.074.172.172,0,0,0-.125.047L8.067,17.649a.226.226,0,0,0-.061.249l.489,1.271a1.236,1.236,0,0,1-.121,1.108,8.563,8.563,0,0,0-.92,1.91,1.22,1.22,0,0,1-.78.783l-1.156.376c-.182.059-.277.141-.282.244l-.081,1.542a.226.226,0,0,0,.134.219l1.2.534a1.232,1.232,0,0,1,.7.87A8.627,8.627,0,0,0,7.913,28.8a1.216,1.216,0,0,1,0,1.111L7.38,30.967c-.087.17-.1.295-.026.372l1.033,1.147a.233.233,0,0,0,.252.06l1.2-.464A1.2,1.2,0,0,1,10.274,32Z" transform="translate(7690.56 7168.863)" fill="#17494d"/>
      <path id="Path_6142" data-name="Path 6142" d="M20.589,25.2A4.953,4.953,0,1,1,15.9,20,4.953,4.953,0,0,1,20.589,25.2Z" transform="translate(7690.56 7168.863)" fill="#fff"/>
      <path id="Path_6142_-_Outline" data-name="Path 6142 - Outline" d="M15.646,30.4c-.1,0-.192,0-.287-.007a5.453,5.453,0,0,1,.28-10.9c.1,0,.192,0,.287.007a5.453,5.453,0,0,1-.28,10.9Zm-.008-9.907a4.453,4.453,0,0,0-.228,8.9c.078,0,.157.006.235.006a4.453,4.453,0,0,0,.228-8.9C15.8,20.5,15.717,20.494,15.639,20.494Z" transform="translate(7690.56 7168.863)" fill="#17494d"/>
    </g>
  </g>
</svg>
