<svg xmlns="http://www.w3.org/2000/svg" width="100" height="100" viewBox="0 0 100 100">
  <g id="Group_1686" data-name="Group 1686" transform="translate(-11466 -15998)">
    <rect id="Rectangle_3156" data-name="Rectangle 3156" width="100" height="100" transform="translate(11466 15998)" fill="none"/>
    <path id="Path_1538" data-name="Path 1538" d="M983.481,128.4a1.132,1.132,0,0,0-1.108.538,1.069,1.069,0,0,0-.152.171A18.11,18.11,0,0,1,979.4,132.1c-6.28,5.522-14.382,7.754-20.652,8.634l-.421.059c-.5.065-.986.125-1.456.176-12.036,1.276-21-1.208-26.957-4.968a21.134,21.134,0,0,1,5.5-2.1v.938a2.567,2.567,0,0,0,1.79,2.454,47.992,47.992,0,0,0,24.7.888,3.179,3.179,0,0,0,2.457-3.109l0-14.107h-.083a6.7,6.7,0,0,0-.713-2.306c-2.992-5.719-13.737-7.923-18.473-8.1-6.476-.232-15.25,1.3-20.463,6.332a13.259,13.259,0,0,0-4.183,9.888v10.892c0,.781-.014,1.56-.028,2.335-.087,4.833-.177,9.829,3.253,14.2,6.625,8.445,19.261,9.733,24.387,9.894q1.2.038,2.356.038c24.72,0,33.488-12.625,33.86-13.179l.193-.288V129.6A1.188,1.188,0,0,0,983.481,128.4Zm-31.066,1.52a20.969,20.969,0,0,1-8.8-.369v-2.632a7.965,7.965,0,0,0,2.445.813,11.876,11.876,0,0,0,3.349.019,8.4,8.4,0,0,0,3.011-.883Zm-.123-6.074c-.314.876-1.379,1.43-3.162,1.646a9.709,9.709,0,0,1-2.71-.005,5.322,5.322,0,0,1-2.3-.916,1.4,1.4,0,0,1-.524-.6.843.843,0,0,1,.119-.254,1.192,1.192,0,0,0-.308-1.576,1.136,1.136,0,0,0-1.611.353,2.734,2.734,0,0,0-.461,1.654v4.658a7.521,7.521,0,0,1-2.2-1.358,4.036,4.036,0,0,1-1.416-3.262c.2-1.743,1.962-3.047,3.55-3.686a11.8,11.8,0,0,1,8-.255,5.412,5.412,0,0,1,2.47,1.463A2.271,2.271,0,0,1,952.292,123.843Zm-29.262,5.585a1.911,1.911,0,0,1-.3-1.045v-1.6a11.062,11.062,0,0,1,3.487-8.25c4.7-4.538,13.067-5.908,18.8-5.7,4.6.167,14.175,2.356,16.54,6.875.87,1.664.636,3.5-.718,5.6a10.779,10.779,0,0,1-6.152,4.081v-5.731a1.116,1.116,0,0,0-.045-.3,4.773,4.773,0,0,0-1.185-3.151,7.576,7.576,0,0,0-3.476-2.132,14.115,14.115,0,0,0-9.562.3c-2.845,1.146-4.7,3.218-4.963,5.544a5.133,5.133,0,0,0-.028.647h-.01V131.6a24.654,24.654,0,0,0-7.586,2.932A20.926,20.926,0,0,1,923.031,129.428Zm3.325,14.1a1.138,1.138,0,0,1-1.138,1.116H925.2a1.139,1.139,0,0,1-1.116-1.16l.173-8.958a23.958,23.958,0,0,0,2.238,1.939Zm4.392,8.308a1.138,1.138,0,1,1-2.275,0V137.856c.733.462,1.5.881,2.275,1.28Zm5.717-1.989a1.137,1.137,0,1,1-2.275,0v-9.182c.747.282,1.506.54,2.275.778Zm5.842,5.8a1.138,1.138,0,0,1-2.275,0V142.373q1.132.245,2.275.434ZM948.065,152a1.137,1.137,0,1,1-2.275,0v-8.729q1.14.11,2.275.171Zm5.8,5.055a1.138,1.138,0,0,1-2.276,0V143.525q1.152-.008,2.276-.06Zm5.966-5.3a1.138,1.138,0,0,1-2.276,0v-8.575c.732-.084,1.489-.181,2.276-.3Zm5.594,3.481a1.137,1.137,0,1,1-2.275,0V142.252c.747-.164,1.506-.344,2.275-.549Zm5.842-6.3a1.138,1.138,0,0,1-2.275,0V140.6c.758-.267,1.517-.565,2.275-.882Zm5.717.964a1.138,1.138,0,1,1-2.275,0V138.079q1.153-.622,2.275-1.343Z" transform="translate(10563.599 15910.462)" fill="#ba4a4d"/>
  </g>
</svg>
