<svg xmlns="http://www.w3.org/2000/svg" width="106" height="74" viewBox="0 0 106 74">
  <g id="Group_2180" data-name="Group 2180" transform="translate(-10976 -7001)">
    <rect id="Rectangle_3349" data-name="Rectangle 3349" width="106" height="74" transform="translate(10976 7001)" fill="none"/>
    <path id="Path_5319" data-name="Path 5319" d="M983.871,128.506a1.139,1.139,0,0,0-1.115.541,1.073,1.073,0,0,0-.153.172,18.224,18.224,0,0,1-2.835,3.009c-6.319,5.556-14.471,7.8-20.78,8.688l-.424.059c-.5.066-.992.126-1.465.177-12.11,1.284-21.127-1.216-27.124-5a21.264,21.264,0,0,1,5.538-2.11v.944a2.583,2.583,0,0,0,1.8,2.469,48.289,48.289,0,0,0,24.854.893,3.2,3.2,0,0,0,2.472-3.129l0-14.195h-.083a6.736,6.736,0,0,0-.718-2.32c-3.01-5.755-13.822-7.972-18.587-8.146-6.516-.234-15.345,1.312-20.59,6.371a13.341,13.341,0,0,0-4.209,9.949v10.959c0,.786-.014,1.569-.029,2.349-.088,4.862-.178,9.89,3.273,14.287,6.666,8.5,19.38,9.793,24.538,9.955q1.208.038,2.37.038c24.873,0,33.7-12.7,34.069-13.261l.194-.29v-21.2A1.2,1.2,0,0,0,983.871,128.506Zm-31.258,1.53a21.1,21.1,0,0,1-8.859-.371v-2.648a8.013,8.013,0,0,0,2.46.818,11.949,11.949,0,0,0,3.369.019,8.453,8.453,0,0,0,3.03-.889Zm-.124-6.111c-.316.881-1.387,1.439-3.181,1.656a9.769,9.769,0,0,1-2.727-.006,5.355,5.355,0,0,1-2.314-.922,1.411,1.411,0,0,1-.527-.6.846.846,0,0,1,.119-.256,1.2,1.2,0,0,0-.31-1.586,1.143,1.143,0,0,0-1.621.356,2.751,2.751,0,0,0-.464,1.665v4.687a7.567,7.567,0,0,1-2.21-1.366,4.062,4.062,0,0,1-1.424-3.282c.2-1.754,1.974-3.066,3.572-3.709a11.877,11.877,0,0,1,8.048-.257,5.446,5.446,0,0,1,2.486,1.472A2.285,2.285,0,0,1,952.489,123.925Zm-29.443,5.62a1.923,1.923,0,0,1-.3-1.051v-1.612a11.13,11.13,0,0,1,3.509-8.3c4.734-4.566,13.148-5.944,18.917-5.732,4.629.168,14.263,2.37,16.642,6.918.875,1.675.64,3.519-.722,5.639a10.846,10.846,0,0,1-6.19,4.106v-5.767a1.124,1.124,0,0,0-.045-.3,4.8,4.8,0,0,0-1.193-3.17,7.622,7.622,0,0,0-3.5-2.145,14.2,14.2,0,0,0-9.621.306c-2.863,1.153-4.73,3.238-4.993,5.578a5.162,5.162,0,0,0-.028.651h-.01v7.069a24.807,24.807,0,0,0-7.633,2.95A21.056,21.056,0,0,1,923.047,129.544Zm3.346,14.185a1.145,1.145,0,0,1-1.145,1.123h-.022a1.146,1.146,0,0,1-1.122-1.168l.174-9.014a24.107,24.107,0,0,0,2.252,1.951Zm4.419,8.36a1.145,1.145,0,1,1-2.289,0V138.025c.737.465,1.507.887,2.289,1.288Zm5.753-2a1.144,1.144,0,1,1-2.289,0v-9.239c.752.284,1.516.543,2.289.782Zm5.878,5.838a1.145,1.145,0,0,1-2.289,0V142.57q1.139.247,2.289.437Zm5.794-3.671a1.144,1.144,0,1,1-2.289,0v-8.783q1.147.11,2.289.172Zm5.838,5.086a1.145,1.145,0,0,1-2.29,0V143.729q1.159-.008,2.29-.06Zm6-5.337a1.145,1.145,0,0,1-2.29,0v-8.628c.736-.084,1.5-.182,2.29-.3Zm5.628,3.5a1.144,1.144,0,1,1-2.289,0V142.449c.752-.165,1.516-.346,2.289-.552Zm5.878-6.336a1.145,1.145,0,0,1-2.289,0v-8.384c.763-.269,1.526-.568,2.289-.888Zm5.752.97a1.145,1.145,0,0,1-2.289,0V138.249q1.16-.625,2.289-1.351Z" transform="translate(10076.599 6900.461)" fill="#a82024"/>
  </g>
</svg>
