<svg xmlns="http://www.w3.org/2000/svg" width="106" height="74" viewBox="0 0 106 74">
  <g id="Group_2170" data-name="Group 2170" transform="translate(-11470 -6703)">
    <rect id="Rectangle_3347" data-name="Rectangle 3347" width="106" height="74" transform="translate(11470 6703)" fill="none"/>
    <g id="Group_2167" data-name="Group 2167" transform="translate(11096.986 6564.063)">
      <rect id="Rectangle_3223" data-name="Rectangle 3223" width="26.621" height="22.361" transform="translate(411.92 172.56)" fill="#f0d27e"/>
      <path id="Path_2060" data-name="Path 2060" d="M68.476,82.528v.055a3.642,3.642,0,0,1-1.715,3.087L50.7,95.685a5.088,5.088,0,0,1-2.7.773H24.05V79.743a1.884,1.884,0,0,0,.8-.183l1.269-.614a11.97,11.97,0,0,1,10-.193l1.913.833a1.861,1.861,0,0,0,.748.159h8.836a3.677,3.677,0,0,1,2.671,1.15,3.178,3.178,0,0,1,.079,4.277,3.91,3.91,0,0,1-1.328.986,3.973,3.973,0,0,1-1.615.347h2.156a1.792,1.792,0,0,0,.828-.2l12.983-6.685a3.585,3.585,0,0,1,3.246-.015l.045.025A3.247,3.247,0,0,1,68.476,82.528Z" transform="translate(384.671 108.533)" fill="#fff2d1"/>
      <path id="Path_2060_-_Outline" data-name="Path 2060 - Outline" d="M31.4,76.752a12.96,12.96,0,0,1,5.216,1.089l1.912.832a.8.8,0,0,0,.323.07h8.836a4.761,4.761,0,0,1,3.445,1.483,4.243,4.243,0,0,1,.991,4.093l10.85-5.587a4.65,4.65,0,0,1,4.209-.021l.067.036a4.287,4.287,0,0,1,2.36,3.845v.055a4.737,4.737,0,0,1-2.216,3.991L51.324,96.653a6.138,6.138,0,0,1-3.259.934H23.05V78.743h1.065a.816.816,0,0,0,.345-.08l1.262-.611A13.113,13.113,0,0,1,31.4,76.752Zm17.272,8.5a2.827,2.827,0,0,0,.962-.715,2.114,2.114,0,0,0-.051-2.846,2.621,2.621,0,0,0-1.9-.815H38.847a2.915,2.915,0,0,1-1.175-.248l-1.911-.832a10.845,10.845,0,0,0-4.365-.912,10.97,10.97,0,0,0-4.747,1.087l-1.279.619q-.095.045-.191.082V95.458H48.065a4.012,4.012,0,0,0,2.131-.611L66.263,84.831a2.592,2.592,0,0,0,1.213-2.184v-.055a2.17,2.17,0,0,0-1.205-1.951l-.063-.034a2.52,2.52,0,0,0-2.265.02L50.96,87.311a2.87,2.87,0,0,1-1.315.321H47.49V85.5A2.888,2.888,0,0,0,48.668,85.249Z" transform="translate(384.606 108.468)" fill="#e0ad34"/>
      <path id="Path_2053" data-name="Path 2053" d="M31.4,76.752a12.96,12.96,0,0,1,5.216,1.089l1.912.832a.8.8,0,0,0,.323.07h8.836a4.761,4.761,0,0,1,3.445,1.483,4.243,4.243,0,0,1,.991,4.093l10.85-5.587a4.65,4.65,0,0,1,4.209-.021l.067.036a4.287,4.287,0,0,1,2.36,3.845v.055a4.737,4.737,0,0,1-2.216,3.991L51.324,96.653a6.138,6.138,0,0,1-3.259.934H23.05V78.743h1.065a.816.816,0,0,0,.345-.08l1.262-.611A13.113,13.113,0,0,1,31.4,76.752Zm17.272,8.5a2.827,2.827,0,0,0,.962-.715,2.114,2.114,0,0,0-.051-2.846,2.621,2.621,0,0,0-1.9-.815H38.847a2.915,2.915,0,0,1-1.175-.248l-1.911-.832a10.845,10.845,0,0,0-4.365-.912,10.97,10.97,0,0,0-4.747,1.087l-1.279.619q-.095.045-.191.082V95.458H48.065a4.012,4.012,0,0,0,2.131-.611L66.263,84.831a2.592,2.592,0,0,0,1.213-2.184v-.055a2.17,2.17,0,0,0-1.205-1.951l-.063-.034a2.52,2.52,0,0,0-2.265.02L50.96,87.311a2.87,2.87,0,0,1-1.315.321H47.49V85.5A2.888,2.888,0,0,0,48.668,85.249Z" transform="translate(384.606 108.468)" fill="#e0ad34"/>
      <path id="Line_5" data-name="Line 5" d="M11.388,1.13H0V-1H11.388Z" transform="translate(397.333 204.925)" fill="#e0ad34"/>
      <path id="Line_6" data-name="Line 6" d="M8.479,1.13H0V-1H8.479Z" transform="translate(423.617 194.97)" fill="#e0ad34"/>
      <path id="Line_7" data-name="Line 7" d="M11.918,1.13H0V-1H11.918Z" transform="translate(396.805 188.211)" fill="#e0ad34"/>
      <path id="Path_2054" data-name="Path 2054" d="M75.453,69.849h-2.13V50.27H64.18V48.14h9.212A2.063,2.063,0,0,1,75.453,50.2Z" transform="translate(364.428 122.901)" fill="#e0ad34"/>
      <path id="Path_2055" data-name="Path 2055" d="M31.86,63.913H29.73V50.2a2.063,2.063,0,0,1,2.061-2.061h9.762v2.13H31.86Z" transform="translate(381.237 122.901)" fill="#e0ad34"/>
      <path id="Path_2056" data-name="Path 2056" d="M58.258,49.14v4.827a.988.988,0,0,1-.991.991H53.431a.991.991,0,0,1-.991-.991V49.14Z" transform="translate(370.347 122.966)" fill="#e0ad34"/>
      <path id="Path_2056_-_Outline" data-name="Path 2056 - Outline" d="M51.44,48.14h7.947v5.891a2.058,2.058,0,0,1-2.056,2.056H53.5a2.058,2.058,0,0,1-2.056-2.056Zm5.818,2.13H53.57v3.688h3.688Z" transform="translate(370.283 122.901)" fill="#e0ad34"/>
      <path id="Path_2057" data-name="Path 2057" d="M67.1,38.945H62.068v-2.13H67.1a3.209,3.209,0,1,0,0-6.418H45.818a7.189,7.189,0,1,1,0-14.378H54.17v2.13H45.818a5.059,5.059,0,1,0,0,10.118H67.1a5.339,5.339,0,1,1,0,10.677Z" transform="translate(376.748 139.104)" fill="#e0ad34"/>
      <path id="Path_2058" data-name="Path 2058" d="M86.169.5H67.055a2.1,2.1,0,0,0-1.848.862L59.86,8.686l5.332,7.324c.61.674,1.1,1.3,1.863,1.3H86.169a1.383,1.383,0,0,0,1.383-1.383V1.883A1.383,1.383,0,0,0,86.169.5ZM66.852,11.427A2.517,2.517,0,1,1,69.37,8.909,2.521,2.521,0,0,1,66.852,11.427Z" transform="translate(366.607 147.502)" fill="#e0ad34"/>
      <path id="Path_2058_-_Outline" data-name="Path 2058 - Outline" d="M67.136-.5H86.249A2.45,2.45,0,0,1,88.7,1.947V16a2.45,2.45,0,0,1-2.447,2.447H67.136a3.368,3.368,0,0,1-2.5-1.485l-.152-.169-.038-.042-5.822-8L64.457.758,64.491.72A3.145,3.145,0,0,1,67.136-.5ZM86.249,16.314A.318.318,0,0,0,86.567,16V1.947a.318.318,0,0,0-.318-.318H67.136a1.053,1.053,0,0,0-1.02.468L61.258,8.752,66.1,15.4l.121.135c.356.4.693.775.914.775ZM66.932,5.392A3.582,3.582,0,1,1,63.35,8.974,3.586,3.586,0,0,1,66.932,5.392Zm0,5.035A1.453,1.453,0,1,0,65.48,8.974,1.454,1.454,0,0,0,66.932,10.427Z" transform="translate(366.526 147.438)" fill="#e0ad34"/>
      <path id="Ellipse_549" data-name="Ellipse 549" d="M2.582-1A3.582,3.582,0,1,1-1,2.582,3.586,3.586,0,0,1,2.582-1Zm0,5.035A1.453,1.453,0,1,0,1.13,2.582,1.454,1.454,0,0,0,2.582,4.035Z" transform="translate(430.877 153.829)" fill="#e0ad34"/>
      <path id="Ellipse_550" data-name="Ellipse 550" d="M2.582-1A3.582,3.582,0,1,1-1,2.582,3.586,3.586,0,0,1,2.582-1Zm0,5.035A1.453,1.453,0,1,0,1.13,2.582,1.454,1.454,0,0,0,2.582,4.035Z" transform="translate(430.877 153.829)" fill="#e0ad34"/>
      <path id="Path_2059" data-name="Path 2059" d="M14.03,100.2a2.518,2.518,0,1,1-2.518-2.518A2.518,2.518,0,0,1,14.03,100.2Z" transform="translate(391.25 98.476)" fill="#e0ad34"/>
      <path id="Path_2059_-_Outline" data-name="Path 2059 - Outline" d="M11.577,96.687A3.583,3.583,0,1,1,8,100.27,3.587,3.587,0,0,1,11.577,96.687Zm0,5.036a1.453,1.453,0,1,0-1.453-1.453A1.455,1.455,0,0,0,11.577,101.723Z" transform="translate(391.186 98.411)" fill="#e0ad34"/>
      <path id="Path_2171" data-name="Path 2171" d="M-2.728-3.35v-.656H-1.9a4.863,4.863,0,0,1-.281-1.441,2.418,2.418,0,0,1,.755-1.716A2.5,2.5,0,0,1,.446-7.942a2.508,2.508,0,0,1,1.9.8,2.762,2.762,0,0,1,.785,1.9h-1.6a1.116,1.116,0,0,0-.31-.8,1.014,1.014,0,0,0-.767-.328,1,1,0,0,0-.738.281,1.029,1.029,0,0,0-.281.761A4.033,4.033,0,0,0-.245-4.006h2v.656H-.022a3.448,3.448,0,0,1,.2,1.16A2.232,2.232,0,0,1-.139-1.066H3.129V.515H-2.728V-1.066h1.042a2.3,2.3,0,0,0,.269-1.078A4.625,4.625,0,0,0-1.662-3.35Z" transform="translate(444.753 160.332)" fill="#fff"/>
    </g>
  </g>
</svg>
