<svg xmlns="http://www.w3.org/2000/svg" width="25.624" height="39.309" viewBox="0 0 25.624 39.309">
  <g id="Group_1462" data-name="Group 1462" transform="translate(-1083.764 -104.977)">
    <path id="Path_1354" data-name="Path 1354" d="M.828-8.678v-.617H1.61a4.574,4.574,0,0,1-.264-1.355,2.274,2.274,0,0,1,.711-1.614A2.35,2.35,0,0,1,3.813-13a2.359,2.359,0,0,1,1.785.755,2.6,2.6,0,0,1,.738,1.79H4.827a1.05,1.05,0,0,0-.292-.749.954.954,0,0,0-.722-.308.938.938,0,0,0-.694.264.968.968,0,0,0-.264.716,3.793,3.793,0,0,0,.308,1.234H5.047v.617H3.373A3.243,3.243,0,0,1,3.56-7.587a2.1,2.1,0,0,1-.3,1.058H6.336v1.487H.828V-6.529h.98a2.159,2.159,0,0,0,.253-1.014A4.35,4.35,0,0,0,1.83-8.678ZM12.582-6.529v1.487H7.25V-5.56a2.836,2.836,0,0,1,.066-.617,3.164,3.164,0,0,1,.16-.523,2.079,2.079,0,0,1,.281-.468q.187-.242.319-.4a3.266,3.266,0,0,1,.4-.375q.27-.22.413-.325t.452-.319q.308-.215.43-.3,1.234-.859,1.234-1.608a1.006,1.006,0,0,0-.275-.727,1,1,0,0,0-.76-.286,1.2,1.2,0,0,0-.854.314,1,1,0,0,0-.325.788H7.273a2.433,2.433,0,0,1,.777-1.867A2.761,2.761,0,0,1,10-13a2.613,2.613,0,0,1,1.779.639,2.229,2.229,0,0,1,.733,1.774,2.708,2.708,0,0,1-.4,1.537,5.078,5.078,0,0,1-1.25,1.217q-.077.055-.4.27t-.485.336a3.583,3.583,0,0,0-.369.319,1.079,1.079,0,0,0-.27.375Zm4.01,1.608a2.753,2.753,0,0,1-2.1-.87,3.125,3.125,0,0,1-.815-2.225V-9.911a3.11,3.11,0,0,1,.815-2.214,2.753,2.753,0,0,1,2.1-.87,2.74,2.74,0,0,1,2.093.87A3.11,3.11,0,0,1,19.5-9.911v1.895a3.125,3.125,0,0,1-.815,2.225A2.74,2.74,0,0,1,16.592-4.921ZM15.568-6.838a1.309,1.309,0,0,0,1.025.43,1.293,1.293,0,0,0,1.019-.43,1.717,1.717,0,0,0,.38-1.179V-9.911a1.7,1.7,0,0,0-.38-1.173,1.3,1.3,0,0,0-1.019-.424,1.318,1.318,0,0,0-1.025.424,1.68,1.68,0,0,0-.386,1.173v1.895A1.7,1.7,0,0,0,15.568-6.838Zm7.976,1.917a2.753,2.753,0,0,1-2.1-.87,3.125,3.125,0,0,1-.815-2.225V-9.911a3.11,3.11,0,0,1,.815-2.214,2.753,2.753,0,0,1,2.1-.87,2.74,2.74,0,0,1,2.093.87,3.11,3.11,0,0,1,.815,2.214v1.895a3.125,3.125,0,0,1-.815,2.225A2.74,2.74,0,0,1,23.544-4.921ZM22.519-6.838a1.309,1.309,0,0,0,1.025.43,1.293,1.293,0,0,0,1.019-.43,1.717,1.717,0,0,0,.38-1.179V-9.911a1.7,1.7,0,0,0-.38-1.173,1.3,1.3,0,0,0-1.019-.424,1.318,1.318,0,0,0-1.025.424,1.68,1.68,0,0,0-.386,1.173v1.895A1.7,1.7,0,0,0,22.519-6.838Z" transform="translate(1082.936 133.257)" fill="#e0ad16"/>
    <g id="Group_1455" data-name="Group 1455" transform="translate(1084.48 133.9)">
      <path id="Union_4" data-name="Union 4" d="M7.113,10.229.8,6.233a1,1,0,0,1,0-1.69l6.311-4a1,1,0,0,1,1.535.845V2.674a14.318,14.318,0,0,0,5.843.131A27.259,27.259,0,0,0,21.475,0a19.847,19.847,0,0,1-5.138,4.973A35.286,35.286,0,0,1,8.648,8.438v.946a1,1,0,0,1-1,1A.99.99,0,0,1,7.113,10.229Z" transform="translate(0 0)" fill="#e0ad16"/>
    </g>
    <g id="Group_1456" data-name="Group 1456" transform="translate(1084.48 104.66)">
      <path id="Union_4-2" data-name="Union 4" d="M7.114,10.229.8,6.233a1,1,0,0,1,0-1.69l6.312-4a1,1,0,0,1,1.534.845V2.674a14.318,14.318,0,0,0,5.843.131A27.259,27.259,0,0,0,21.475,0a19.852,19.852,0,0,1-5.137,4.973,35.3,35.3,0,0,1-7.69,3.465v.946a1,1,0,0,1-1,1A.99.99,0,0,1,7.114,10.229Z" transform="translate(21.475 10.702) rotate(180)" fill="#f0d27e"/>
    </g>
  </g>
</svg>
