<svg xmlns="http://www.w3.org/2000/svg" width="100" height="100" viewBox="0 0 100 100">
  <g id="Group_1687" data-name="Group 1687" transform="translate(-11591 -15998)">
    <rect id="Rectangle_3157" data-name="Rectangle 3157" width="100" height="100" transform="translate(11591 15998)" fill="none"/>
    <g id="Group_1682" data-name="Group 1682" transform="translate(10536.236 15910.572)">
      <path id="Path_1354" data-name="Path 1354" d="M.828-5.771V-6.8H2.137A7.652,7.652,0,0,1,1.694-9.07a3.805,3.805,0,0,1,1.189-2.7A3.932,3.932,0,0,1,5.823-13a3.947,3.947,0,0,1,2.986,1.263,4.346,4.346,0,0,1,1.235,3H7.519A1.757,1.757,0,0,0,7.03-9.992a1.6,1.6,0,0,0-1.207-.516,1.57,1.57,0,0,0-1.161.442,1.619,1.619,0,0,0-.442,1.2A6.346,6.346,0,0,0,4.735-6.8H7.887v1.032h-2.8A5.426,5.426,0,0,1,5.4-3.946a3.513,3.513,0,0,1-.5,1.769h5.142V.312H.828V-2.177h1.64a3.613,3.613,0,0,0,.424-1.7,7.279,7.279,0,0,0-.387-1.9ZM20.494-2.177V.312H11.574V-.555a4.745,4.745,0,0,1,.111-1.032,5.294,5.294,0,0,1,.267-.876,3.478,3.478,0,0,1,.47-.783q.313-.405.535-.664a5.465,5.465,0,0,1,.673-.627q.452-.369.691-.544t.756-.535q.516-.359.719-.507,2.064-1.438,2.064-2.691a1.684,1.684,0,0,0-.461-1.216,1.681,1.681,0,0,0-1.272-.479,2.009,2.009,0,0,0-1.428.525,1.671,1.671,0,0,0-.544,1.318H11.61a4.07,4.07,0,0,1,1.3-3.124A4.62,4.62,0,0,1,16.181-13a4.372,4.372,0,0,1,2.977,1.069,3.73,3.73,0,0,1,1.226,2.967,4.531,4.531,0,0,1-.673,2.571,8.5,8.5,0,0,1-2.092,2.037q-.129.092-.664.452t-.811.562a5.994,5.994,0,0,0-.617.535,1.8,1.8,0,0,0-.452.627ZM27.2.514a4.606,4.606,0,0,1-3.52-1.456,5.229,5.229,0,0,1-1.364-3.723v-3.17a5.2,5.2,0,0,1,1.364-3.7A4.606,4.606,0,0,1,27.2-13a4.584,4.584,0,0,1,3.5,1.456,5.2,5.2,0,0,1,1.364,3.7v3.17A5.229,5.229,0,0,1,30.705-.942,4.584,4.584,0,0,1,27.2.514ZM25.489-2.693a2.191,2.191,0,0,0,1.714.719,2.163,2.163,0,0,0,1.7-.719,2.872,2.872,0,0,0,.636-1.972v-3.17A2.837,2.837,0,0,0,28.908-9.8a2.176,2.176,0,0,0-1.7-.71,2.2,2.2,0,0,0-1.714.71,2.811,2.811,0,0,0-.645,1.963v3.17A2.846,2.846,0,0,0,25.489-2.693ZM38.834.514a4.606,4.606,0,0,1-3.52-1.456,5.229,5.229,0,0,1-1.364-3.723v-3.17a5.2,5.2,0,0,1,1.364-3.7A4.606,4.606,0,0,1,38.834-13a4.584,4.584,0,0,1,3.5,1.456,5.2,5.2,0,0,1,1.364,3.7v3.17A5.229,5.229,0,0,1,42.336-.942,4.584,4.584,0,0,1,38.834.514ZM37.12-2.693a2.191,2.191,0,0,0,1.714.719,2.163,2.163,0,0,0,1.7-.719,2.872,2.872,0,0,0,.636-1.972v-3.17A2.837,2.837,0,0,0,40.539-9.8a2.176,2.176,0,0,0-1.7-.71,2.2,2.2,0,0,0-1.714.71,2.811,2.811,0,0,0-.645,1.963v3.17A2.846,2.846,0,0,0,37.12-2.693Z" transform="translate(1082.936 143.546)" fill="#e0ad16"/>
      <g id="Group_1455" data-name="Group 1455" transform="translate(1085.527 153.369)">
        <path id="Union_4" data-name="Union 4" d="M12.371,17.77-.12,9.859a1,1,0,0,1,0-1.69L12.371.258a1,1,0,0,1,1.535.844V4.474a23.955,23.955,0,0,0,9.776.22C29.174,3.608,35.366,0,35.366,0a33.212,33.212,0,0,1-8.6,8.321,59.1,59.1,0,0,1-12.865,5.8v2.805a1,1,0,0,1-1,1A.99.99,0,0,1,12.371,17.77Z" transform="translate(0 0)" fill="#e0ad16"/>
      </g>
      <g id="Group_1456" data-name="Group 1456" transform="translate(1084.963 104.977)">
        <path id="Union_4-2" data-name="Union 4" d="M12.371,17.77-.12,9.859a1,1,0,0,1,0-1.69L12.371.258a1,1,0,0,1,1.535.844V4.474a23.957,23.957,0,0,0,9.776.22C29.174,3.608,35.367,0,35.367,0a33.207,33.207,0,0,1-8.6,8.321,59.1,59.1,0,0,1-12.865,5.8v2.805a1,1,0,0,1-1,1A.99.99,0,0,1,12.371,17.77Z" transform="translate(35.366 17.377) rotate(180)" fill="#f0d27e"/>
      </g>
    </g>
  </g>
</svg>
