<svg xmlns="http://www.w3.org/2000/svg" xmlns:xlink="http://www.w3.org/1999/xlink" width="56.499" height="28.971" viewBox="0 0 56.499 28.971">
  <defs>
    <clipPath id="clip-path">
      <rect id="Rectangle_89" data-name="Rectangle 89" width="56.499" height="28.971" fill="none"/>
    </clipPath>
  </defs>
  <g id="Group_116" data-name="Group 116" transform="translate(-26.239 -169.189)">
    <g id="Group_115" data-name="Group 115" transform="translate(26.239 169.189)">
      <g id="Group_114" data-name="Group 114" clip-path="url(#clip-path)">
        <path id="Path_5303" data-name="Path 5303" d="M89.052,179.107h.85V177.58h1.126v1.527h1.016v.84H91.027v2.72a2.588,2.588,0,0,0,.015.307.518.518,0,0,0,.069.217.325.325,0,0,0,.163.133.789.789,0,0,0,.3.045c.079,0,.158,0,.237,0a1.209,1.209,0,0,0,.237-.034v.867l-.368.04a3.366,3.366,0,0,1-.368.02,2.5,2.5,0,0,1-.716-.084.949.949,0,0,1-.424-.245.847.847,0,0,1-.207-.409,3.033,3.033,0,0,1-.061-.562v-3.006h-.85Zm-2.9,4.345a1.3,1.3,0,0,0,.652-.158,1.386,1.386,0,0,0,.454-.414,1.807,1.807,0,0,0,.261-.577,2.556,2.556,0,0,0,0-1.3,1.731,1.731,0,0,0-.261-.577,1.414,1.414,0,0,0-.454-.41,1.432,1.432,0,0,0-1.3,0,1.415,1.415,0,0,0-.454.41,1.718,1.718,0,0,0-.262.577,2.592,2.592,0,0,0,0,1.3,1.8,1.8,0,0,0,.262.577,1.387,1.387,0,0,0,.454.414,1.294,1.294,0,0,0,.652.158m0,.887a2.781,2.781,0,0,1-1.091-.2,2.337,2.337,0,0,1-.81-.556,2.392,2.392,0,0,1-.5-.848,3.452,3.452,0,0,1,0-2.158,2.393,2.393,0,0,1,.5-.846,2.331,2.331,0,0,1,.81-.558,3.06,3.06,0,0,1,2.182,0,2.321,2.321,0,0,1,.808.558,2.356,2.356,0,0,1,.5.846,3.451,3.451,0,0,1,0,2.158,2.362,2.362,0,0,1-.5.848,2.327,2.327,0,0,1-.808.556,2.782,2.782,0,0,1-1.091.2m-4.571-7.173h1.128V184.2H81.582Zm-2.132,1.941h1.126V184.2H79.447Zm0-1.941h1.126v1.064H79.447Zm-1.984,4.492a2.52,2.52,0,0,0-.089-.67,1.8,1.8,0,0,0-.266-.577,1.385,1.385,0,0,0-.444-.4,1.214,1.214,0,0,0-.613-.153,1.244,1.244,0,0,0-1.072.491,2.169,2.169,0,0,0-.36,1.31,2.624,2.624,0,0,0,.094.715,1.591,1.591,0,0,0,.282.567,1.406,1.406,0,0,0,.449.374,1.288,1.288,0,0,0,.607.138,1.262,1.262,0,0,0,.651-.158,1.378,1.378,0,0,0,.44-.41,1.635,1.635,0,0,0,.245-.571,2.841,2.841,0,0,0,.074-.655M73.535,179.1H74.6v.69h.02a1.392,1.392,0,0,1,.661-.635,2.2,2.2,0,0,1,.92-.192,2.445,2.445,0,0,1,1.052.212,2.062,2.062,0,0,1,.745.581,2.524,2.524,0,0,1,.445.859,3.646,3.646,0,0,1,.148,1.055,3.756,3.756,0,0,1-.132.994,2.592,2.592,0,0,1-.4.853,1.976,1.976,0,0,1-1.665.818,2.738,2.738,0,0,1-.491-.045,2.087,2.087,0,0,1-.474-.143A1.871,1.871,0,0,1,75,183.9a1.367,1.367,0,0,1-.32-.359h-.02v2.541H73.535Zm-3.782,0H70.6v-1.527h1.124V179.1h1.016v.842H71.727v2.72a2.585,2.585,0,0,0,.015.307.527.527,0,0,0,.069.217.323.323,0,0,0,.163.133.792.792,0,0,0,.3.045c.079,0,.158,0,.237,0a1.2,1.2,0,0,0,.237-.034v.867l-.368.04a3.373,3.373,0,0,1-.368.02,2.488,2.488,0,0,1-.715-.084.955.955,0,0,1-.425-.245.846.846,0,0,1-.207-.409,3.086,3.086,0,0,1-.061-.562v-3.006h-.845Zm-3.712,3.459a.846.846,0,0,0,.375.689,1.472,1.472,0,0,0,.78.2,2.889,2.889,0,0,0,.361-.025,1.584,1.584,0,0,0,.38-.093.711.711,0,0,0,.291-.2.485.485,0,0,0,.1-.35.5.5,0,0,0-.158-.355,1.1,1.1,0,0,0-.38-.222,3.84,3.84,0,0,0-.528-.143c-.2-.039-.4-.082-.6-.127a5.865,5.865,0,0,1-.607-.168,1.932,1.932,0,0,1-.523-.266,1.227,1.227,0,0,1-.368-.429,1.367,1.367,0,0,1-.138-.645,1.158,1.158,0,0,1,.2-.694,1.544,1.544,0,0,1,.513-.453,2.238,2.238,0,0,1,.691-.241,4.119,4.119,0,0,1,.726-.069,3.327,3.327,0,0,1,.754.083,2.037,2.037,0,0,1,.652.271,1.6,1.6,0,0,1,.484.488,1.682,1.682,0,0,1,.241.724H68.114a.7.7,0,0,0-.368-.543,1.544,1.544,0,0,0-.666-.137,2.43,2.43,0,0,0-.282.02,1.322,1.322,0,0,0-.307.074.646.646,0,0,0-.245.158.383.383,0,0,0-.1.271.429.429,0,0,0,.143.335,1.146,1.146,0,0,0,.375.212,3.767,3.767,0,0,0,.528.143c.2.039.4.082.613.128a6.11,6.11,0,0,1,.6.167,1.963,1.963,0,0,1,.529.267,1.3,1.3,0,0,1,.375.423,1.281,1.281,0,0,1,.143.631,1.376,1.376,0,0,1-.207.769,1.635,1.635,0,0,1-.539.512,2.444,2.444,0,0,1-.736.286,3.71,3.71,0,0,1-.8.089,3.477,3.477,0,0,1-.894-.109,2.071,2.071,0,0,1-.711-.331,1.59,1.59,0,0,1-.474-.552,1.752,1.752,0,0,1-.184-.783ZM64.127,184.2h-1.1v-.709H63a1.549,1.549,0,0,1-.618.613,1.682,1.682,0,0,1-.834.232,1.877,1.877,0,0,1-1.456-.5,2.181,2.181,0,0,1-.449-1.5v-3.228h1.125v3.123a1.38,1.38,0,0,0,.256.945.933.933,0,0,0,.721.277,1.422,1.422,0,0,0,.593-.109,1.046,1.046,0,0,0,.385-.291,1.132,1.132,0,0,0,.212-.438,2.261,2.261,0,0,0,.064-.552v-2.956h1.126Zm-8.158-5.091h1.057v.985h.02a1.165,1.165,0,0,1,.192-.4,1.892,1.892,0,0,1,.347-.359,1.728,1.728,0,0,1,.448-.261,1.349,1.349,0,0,1,.5-.1,2.436,2.436,0,0,1,.271.009l.153.02v1.084c-.079-.013-.159-.025-.245-.034a1.91,1.91,0,0,0-.242-.015,1.288,1.288,0,0,0-.539.113,1.254,1.254,0,0,0-.439.334,1.661,1.661,0,0,0-.3.547,2.366,2.366,0,0,0-.109.749V184.2H55.97Zm-5.459-1.941h5.7v1.063H53.976v5.97H52.742v-5.97H50.511Z" transform="translate(-35.622 -172.273)" fill="#1d1d1b"/>
      </g>
    </g>
    <path id="Path_5304" data-name="Path 5304" d="M33.119,169.189l-1.592,4.892H26.375l4.171,3.024L28.951,182l4.171-3.022L37.293,182l-1.6-4.889,4.171-3.023H34.715Z" transform="translate(-0.053)" fill="#27aa7a"/>
    <path id="Path_5305" data-name="Path 5305" d="M40.309,183.2l-.361-1.108-2.576,1.868Z" transform="translate(-4.304 -4.989)" fill="#00532c"/>
    <rect id="Rectangle_90" data-name="Rectangle 90" width="10.593" height="10.572" transform="translate(26.239 187.588)" fill="#27aa7a"/>
    <rect id="Rectangle_91" data-name="Rectangle 91" width="10.593" height="10.572" transform="translate(37.716 187.588)" fill="#27aa7a"/>
    <rect id="Rectangle_92" data-name="Rectangle 92" width="10.593" height="10.572" transform="translate(49.192 187.588)" fill="#27aa7a"/>
    <rect id="Rectangle_93" data-name="Rectangle 93" width="10.593" height="10.572" transform="translate(60.668 187.588)" fill="#27aa7a"/>
    <rect id="Rectangle_94" data-name="Rectangle 94" width="10.593" height="10.572" transform="translate(72.145 187.586)" fill="#27aa7a"/>
    <path id="Path_5306" data-name="Path 5306" d="M36.245,204.761H33.412l-.874-2.669-.873,2.669H28.83l2.29,1.652-.873,2.67,2.29-1.652,1.417-1.018Zm-3.708,2.672,1.616-.41.675,2.074Z" transform="translate(-1.002 -12.721)" fill="#fff"/>
    <path id="Path_5307" data-name="Path 5307" d="M54.954,204.761H52.12l-.873-2.669-.874,2.669H47.539l2.291,1.652-.874,2.67,2.291-1.652,1.417-1.018Zm-3.707,2.672,1.616-.41.675,2.074Z" transform="translate(-8.235 -12.721)" fill="#fff"/>
    <path id="Path_5308" data-name="Path 5308" d="M73.664,204.761H70.83l-.874-2.669-.873,2.669H66.249l2.29,1.652-.873,2.67,2.29-1.652,1.417-1.018Zm-3.708,2.672,1.616-.41.675,2.074Z" transform="translate(-15.468 -12.721)" fill="#fff"/>
    <path id="Path_5309" data-name="Path 5309" d="M92.373,204.761H89.538l-.875-2.669-.874,2.669H84.955l2.291,1.652-.874,2.67,2.291-1.65,1.417-1.018Zm-3.71,2.672,1.616-.41.675,2.074Z" transform="translate(-22.7 -12.721)" fill="#fff"/>
    <rect id="Rectangle_95" data-name="Rectangle 95" width="5.297" height="10.572" transform="translate(77.441 187.586)" fill="#828281"/>
    <path id="Path_5310" data-name="Path 5310" d="M111.083,204.761h-2.834l-.874-2.669-.873,2.669h-2.834l2.29,1.652-.873,2.67,2.29-1.652,1.417-1.018Zm-3.708,2.67,1.616-.41.675,2.074Z" transform="translate(-29.935 -12.721)" fill="#fff"/>
  </g>
</svg>
