<svg xmlns="http://www.w3.org/2000/svg" width="100" height="100" viewBox="0 0 100 100">
  <g id="Group_1699" data-name="Group 1699" transform="translate(-8510 -11091)">
    <rect id="Rectangle_3161" data-name="Rectangle 3161" width="100" height="100" transform="translate(8510 11091)" fill="#fff"/>
    <g id="Group_1698" data-name="Group 1698" transform="translate(-1.464 0.14)">
      <g id="Trustpilot_brandmark_gr-blk-RGB" transform="translate(8519.464 11120.859)">
        <g id="Type" transform="translate(21.826 7.231)">
          <g id="Group_1695" data-name="Group 1695">
            <path id="Path_1541" data-name="Path 1541" d="M297.607,98.6h8.412v1.569h-3.308v8.823h-1.819v-8.823H297.6V98.6Zm8.053,2.868h1.555v1.452h.029a1.706,1.706,0,0,1,.286-.594,2.644,2.644,0,0,1,.506-.528,2.7,2.7,0,0,1,.66-.389,2.019,2.019,0,0,1,.741-.147c.191,0,.33.007.4.015s.147.022.227.029v1.6c-.117-.022-.235-.037-.359-.051a3.048,3.048,0,0,0-.359-.022,1.943,1.943,0,0,0-.792.169,1.826,1.826,0,0,0-.645.491,2.494,2.494,0,0,0-.44.807,3.419,3.419,0,0,0-.161,1.107v3.579h-1.658v-7.517Zm12.028,7.525H316.06v-1.049h-.029a2.261,2.261,0,0,1-.909.909,2.488,2.488,0,0,1-1.232.345,2.76,2.76,0,0,1-2.149-.733,3.244,3.244,0,0,1-.66-2.222v-4.774h1.657v4.613a2.026,2.026,0,0,0,.381,1.4,1.381,1.381,0,0,0,1.063.411,2.039,2.039,0,0,0,.873-.161,1.472,1.472,0,0,0,.565-.433,1.661,1.661,0,0,0,.315-.645,3.178,3.178,0,0,0,.1-.814v-4.364h1.658Zm2.824-2.413a1.276,1.276,0,0,0,.55,1.019,2.219,2.219,0,0,0,1.151.293,4.925,4.925,0,0,0,.528-.037,2.217,2.217,0,0,0,.557-.139,1.072,1.072,0,0,0,.433-.3.729.729,0,0,0,.154-.513.708.708,0,0,0-.235-.521,1.652,1.652,0,0,0-.557-.33,5.6,5.6,0,0,0-.777-.213c-.293-.059-.587-.125-.887-.191a8.426,8.426,0,0,1-.895-.249,2.733,2.733,0,0,1-.77-.4,1.742,1.742,0,0,1-.543-.631,1.972,1.972,0,0,1-.205-.953,1.719,1.719,0,0,1,.3-1.027,2.28,2.28,0,0,1,.755-.667,3.5,3.5,0,0,1,1.019-.359,6.207,6.207,0,0,1,1.071-.1,4.993,4.993,0,0,1,1.115.125,2.875,2.875,0,0,1,.961.4,2.376,2.376,0,0,1,.711.719,2.5,2.5,0,0,1,.359,1.071h-1.731a1.032,1.032,0,0,0-.543-.8,2.223,2.223,0,0,0-.983-.205,3.09,3.09,0,0,0-.418.029,2.287,2.287,0,0,0-.455.11.985.985,0,0,0-.359.235.567.567,0,0,0-.147.4.627.627,0,0,0,.213.491,1.778,1.778,0,0,0,.55.315,5.592,5.592,0,0,0,.777.213c.293.059.594.125.9.191s.594.154.887.249a2.679,2.679,0,0,1,.777.4,1.953,1.953,0,0,1,.55.623,1.9,1.9,0,0,1,.213.931,2.026,2.026,0,0,1-.308,1.137,2.437,2.437,0,0,1-.792.755,3.723,3.723,0,0,1-1.085.425,5.446,5.446,0,0,1-1.181.132,5.008,5.008,0,0,1-1.32-.161,3.212,3.212,0,0,1-1.049-.484,2.4,2.4,0,0,1-.7-.814,2.674,2.674,0,0,1-.271-1.159h1.672Zm5.471-5.112h1.254V99.209h1.658v2.259h1.5v1.239h-1.5v4.019a4.1,4.1,0,0,0,.022.455.836.836,0,0,0,.1.323.471.471,0,0,0,.242.2,1.182,1.182,0,0,0,.44.066c.117,0,.235,0,.352-.007a1.941,1.941,0,0,0,.352-.051v1.283c-.183.022-.367.037-.535.059a4.287,4.287,0,0,1-.535.029,3.711,3.711,0,0,1-1.056-.125,1.371,1.371,0,0,1-.623-.367,1.273,1.273,0,0,1-.308-.6,4.518,4.518,0,0,1-.1-.829v-4.437H326v-1.254Zm5.581,0h1.57v1.019h.029a2.048,2.048,0,0,1,.975-.939,3.214,3.214,0,0,1,1.357-.286,3.512,3.512,0,0,1,1.548.315,3.025,3.025,0,0,1,1.1.858,3.754,3.754,0,0,1,.653,1.276,5.35,5.35,0,0,1,.22,1.555,5.4,5.4,0,0,1-.2,1.467,3.924,3.924,0,0,1-.594,1.261,2.916,2.916,0,0,1-1.012.873,3,3,0,0,1-1.445.33,4.051,4.051,0,0,1-.726-.066,3.2,3.2,0,0,1-.7-.213,2.515,2.515,0,0,1-.616-.374,2.322,2.322,0,0,1-.477-.528h-.029v3.755h-1.657Zm5.794,3.77a3.746,3.746,0,0,0-.132-.99,2.669,2.669,0,0,0-.4-.851,2.018,2.018,0,0,0-.653-.594,2.015,2.015,0,0,0-2.479.5,3.222,3.222,0,0,0-.528,1.936,3.716,3.716,0,0,0,.139,1.056,2.358,2.358,0,0,0,.418.836,1.978,1.978,0,0,0,.66.55,2.068,2.068,0,0,0,1.856-.029,2.029,2.029,0,0,0,.645-.6,2.5,2.5,0,0,0,.367-.843A4.716,4.716,0,0,0,337.358,105.237Zm2.926-6.637h1.658v1.569h-1.658Zm0,2.868h1.658v7.525h-1.658Zm3.139-2.868h1.657v10.392h-1.657Zm6.74,10.6a4.1,4.1,0,0,1-1.606-.3,3.366,3.366,0,0,1-1.936-2.076,4.842,4.842,0,0,1-.257-1.6,4.785,4.785,0,0,1,.257-1.584,3.578,3.578,0,0,1,.741-1.254,3.378,3.378,0,0,1,1.2-.821,4.44,4.44,0,0,1,3.212,0,3.366,3.366,0,0,1,1.936,2.076,4.783,4.783,0,0,1,.257,1.584,4.84,4.84,0,0,1-.257,1.6,3.576,3.576,0,0,1-.741,1.254,3.377,3.377,0,0,1-1.2.821A4.1,4.1,0,0,1,350.163,109.2Zm0-1.313a1.922,1.922,0,0,0,.961-.235,2.045,2.045,0,0,0,.667-.609,2.732,2.732,0,0,0,.389-.851,3.792,3.792,0,0,0,0-1.929,2.507,2.507,0,0,0-.389-.851,2.024,2.024,0,0,0-.667-.6,2.084,2.084,0,0,0-1.922,0,2.106,2.106,0,0,0-.667.6,2.658,2.658,0,0,0-.389.851,3.795,3.795,0,0,0,0,1.929,2.576,2.576,0,0,0,.389.851,2.045,2.045,0,0,0,.667.609A1.848,1.848,0,0,0,350.163,107.885Zm4.283-6.417H355.7V99.209h1.658v2.259h1.5v1.239h-1.5v4.019a4.113,4.113,0,0,0,.022.455.837.837,0,0,0,.1.323.47.47,0,0,0,.242.2,1.182,1.182,0,0,0,.44.066c.117,0,.235,0,.352-.007a1.941,1.941,0,0,0,.352-.051v1.283c-.183.022-.367.037-.535.059a4.287,4.287,0,0,1-.535.029,3.711,3.711,0,0,1-1.056-.125,1.371,1.371,0,0,1-.623-.367,1.273,1.273,0,0,1-.308-.6,4.519,4.519,0,0,1-.1-.829v-4.437h-1.254v-1.254Z" transform="translate(-297.6 -98.6)" fill="#191919"/>
          </g>
        </g>
        <g id="Star">
          <path id="Path_1542" data-name="Path 1542" d="M19.9,7.231H12.3L9.952,0,7.6,7.231,0,7.224,6.153,11.7,3.8,18.922l6.153-4.466L16.1,18.922,13.751,11.7,19.9,7.231Z" fill="#00b67a"/>
          <path id="Path_1543" data-name="Path 1543" d="M140.027,161.135,139.5,159.5l-3.8,2.758Z" transform="translate(-125.748 -147.802)" fill="#005128"/>
        </g>
      </g>
      <g id="Trustpilot_ratings_4halfstar-RGB" transform="translate(8519.464 11145.794)">
        <g id="Group_1697" data-name="Group 1697">
          <g id="Group_1696" data-name="Group 1696">
            <rect id="Rectangle-path" width="15.58" height="15.58" fill="#00b67a"/>
            <rect id="Rectangle-path-2" data-name="Rectangle-path" width="15.58" height="15.58" transform="translate(16.879)" fill="#00b67a"/>
            <rect id="Rectangle-path-3" data-name="Rectangle-path" width="15.58" height="15.58" transform="translate(33.757)" fill="#00b67a"/>
            <rect id="Rectangle-path-4" data-name="Rectangle-path" width="15.58" height="15.58" transform="translate(50.636)" fill="#00b67a"/>
            <g id="Half" transform="translate(67.515)">
              <rect id="Rectangle-path-5" data-name="Rectangle-path" width="7.79" height="15.58" transform="translate(7.79)" fill="#dcdce6"/>
              <rect id="Rectangle-path-6" data-name="Rectangle-path" width="7.79" height="15.58" fill="#00b67a"/>
            </g>
            <path id="Shape" d="M19.853,24.071l2.37-.6.99,3.051Zm5.453-3.944H21.135L19.853,16.2l-1.282,3.927H14.4l3.376,2.434-1.282,3.927,3.376-2.434,2.077-1.493,3.36-2.434Z" transform="translate(-12.063 -13.571)" fill="#fff"/>
            <path id="Shape-2" data-name="Shape" d="M123.853,24.071l2.37-.6.99,3.051Zm5.453-3.944h-4.171L123.853,16.2l-1.282,3.927H118.4l3.376,2.434-1.282,3.927,3.376-2.434,2.077-1.493,3.36-2.434Z" transform="translate(-99.184 -13.571)" fill="#fff"/>
            <path id="Shape-3" data-name="Shape" d="M227.853,24.071l2.37-.6.99,3.051Zm5.453-3.944h-4.171L227.853,16.2l-1.282,3.927H222.4l3.376,2.434-1.282,3.927,3.376-2.434,2.077-1.493,3.36-2.434Z" transform="translate(-186.305 -13.571)" fill="#fff"/>
            <path id="Shape-4" data-name="Shape" d="M331.853,24.071l2.37-.6.99,3.051Zm5.453-3.944h-4.171L331.853,16.2l-1.282,3.927H326.4l3.376,2.434-1.282,3.927,3.376-2.434,2.077-1.493,3.359-2.434Z" transform="translate(-273.427 -13.571)" fill="#fff"/>
            <path id="Shape-5" data-name="Shape" d="M435.853,24.071l2.369-.6.99,3.051Zm5.453-3.944h-4.171L435.853,16.2l-1.282,3.927H430.4l3.376,2.434-1.282,3.927,3.376-2.434,2.077-1.493,3.36-2.434Z" transform="translate(-360.548 -13.571)" fill="#fff"/>
          </g>
        </g>
      </g>
    </g>
  </g>
</svg>
