<svg xmlns="http://www.w3.org/2000/svg" width="80" height="80" viewBox="0 0 80 80">
  <g id="Group_2935" data-name="Group 2935" transform="translate(-645 -1410)">
    <circle id="Ellipse_710" data-name="Ellipse 710" cx="40" cy="40" r="40" transform="translate(645 1410)" fill="#c33135"/>
    <path id="Ellipse_713" data-name="Ellipse 713" d="M36,3A33.009,33.009,0,0,0,23.156,66.408,33.009,33.009,0,0,0,48.844,5.592,32.79,32.79,0,0,0,36,3m0-3A36,36,0,1,1,0,36,36,36,0,0,1,36,0Z" transform="translate(649 1414)" fill="#fff"/>
    <path id="Path_6295" data-name="Path 6295" d="M1.464-11.76,4.92-30.72v-2.16H-4.92v2.16l3.456,18.96ZM.024.48A4.549,4.549,0,0,0,4.632-4.128,4.549,4.549,0,0,0,.024-8.736,4.52,4.52,0,0,0-4.584-4.128,4.52,4.52,0,0,0,.024.48Z" transform="translate(685 1466)" fill="#fff"/>
  </g>
</svg>
