<svg xmlns="http://www.w3.org/2000/svg" xmlns:xlink="http://www.w3.org/1999/xlink" width="111.912" height="73.309" viewBox="0 0 111.912 73.309">
  <defs>
    <clipPath id="clip-path">
      <rect id="Rectangle_2763" data-name="Rectangle 2763" width="110.089" height="69.038" fill="rgba(0,0,0,0)"/>
    </clipPath>
  </defs>
  <g id="Group_1495" data-name="Group 1495" transform="translate(-383.088 -642.056)">
    <g id="Group_1494" data-name="Group 1494" transform="translate(384.088 648.653)">
      <path id="Path_1381" data-name="Path 1381" d="M108.89,58.968H1.272A1.117,1.117,0,0,1,.125,57.884V1.209A1.117,1.117,0,0,1,1.272.125H108.89a1.117,1.117,0,0,1,1.147,1.084V57.884a1.117,1.117,0,0,1-1.147,1.084" transform="translate(-0.125 -0.125)" fill="rgba(200,250,216,0.13)" stroke="#00ad74" stroke-width="2"/>
      <path id="Subtraction_3" data-name="Subtraction 3" d="M95.48,2.116H0A3.179,3.179,0,0,1,2.993,0H92.487a3.179,3.179,0,0,1,2.992,2.115Z" transform="translate(7.184 64.597)" fill="#4bb16b"/>
    </g>
    <path id="Path_1516" data-name="Path 1516" d="M.068-3.617,3.785-12.13H5.008L8.725-3.617H7.262l-.971-2.23H2.478l-.959,2.23Zm4.316-6.618L3.017-7.094H5.751ZM11.722-3.5A2.966,2.966,0,0,1,9.93-4.025,1.791,1.791,0,0,1,9.156-5.44h1.367q.144.887,1.235.887a1.343,1.343,0,0,0,.707-.162.522.522,0,0,0,.264-.474.622.622,0,0,0-.2-.492,1.663,1.663,0,0,0-.683-.3l-.983-.264a1.776,1.776,0,0,1-1.535-1.81,1.452,1.452,0,0,1,.611-1.217,2.619,2.619,0,0,1,1.619-.462,2.5,2.5,0,0,1,1.595.492,1.8,1.8,0,0,1,.7,1.307H12.525a.915.915,0,0,0-.983-.743,1.118,1.118,0,0,0-.635.162.513.513,0,0,0-.24.45q0,.516.8.719l1.007.264a1.8,1.8,0,0,1,1.595,1.81,1.512,1.512,0,0,1-.653,1.313A2.876,2.876,0,0,1,11.722-3.5Zm9.184.024a3.179,3.179,0,0,1-2.212-.761A2.54,2.54,0,0,1,17.8-6.063h1.4a1.268,1.268,0,0,0,.57.947,1.959,1.959,0,0,0,1.121.336,1.692,1.692,0,0,0,1.025-.294.925.925,0,0,0,.4-.785q0-.863-1.175-1.247L20.1-7.454a2.514,2.514,0,0,1-2.086-2.458,2.145,2.145,0,0,1,.749-1.727,2.927,2.927,0,0,1,1.96-.635,2.744,2.744,0,0,1,2,.725,2.64,2.64,0,0,1,.827,1.709h-1.4a1.355,1.355,0,0,0-.54-.845,1.566,1.566,0,0,0-.911-.282,1.477,1.477,0,0,0-.911.27.881.881,0,0,0-.372.713,1.009,1.009,0,0,0,.276.737,2.123,2.123,0,0,0,.875.474l1.055.336a2.581,2.581,0,0,1,2.11,2.53,2.211,2.211,0,0,1-.785,1.756A3.019,3.019,0,0,1,20.906-3.474ZM27.788-3.5a2.955,2.955,0,0,1-2.206-.881,3.064,3.064,0,0,1-.863-2.236,3.087,3.087,0,0,1,.851-2.236,2.96,2.96,0,0,1,2.23-.881,2.845,2.845,0,0,1,2.242.965A3.272,3.272,0,0,1,30.8-6.291H26.026a1.6,1.6,0,0,0,.528,1.163,1.811,1.811,0,0,0,1.283.468A1.524,1.524,0,0,0,29.347-5.5h1.379a2.769,2.769,0,0,1-1.055,1.439A3.126,3.126,0,0,1,27.788-3.5Zm-.024-5.132a1.731,1.731,0,0,0-1.109.366,1.682,1.682,0,0,0-.593,1.037h3.321A1.734,1.734,0,0,0,28.8-8.275,1.606,1.606,0,0,0,27.764-8.629ZM34.8-3.5A2.955,2.955,0,0,1,32.6-4.379a3.064,3.064,0,0,1-.863-2.236,3.087,3.087,0,0,1,.851-2.236,2.96,2.96,0,0,1,2.23-.881,2.845,2.845,0,0,1,2.242.965,3.272,3.272,0,0,1,.755,2.476H33.04a1.6,1.6,0,0,0,.528,1.163,1.811,1.811,0,0,0,1.283.468A1.524,1.524,0,0,0,36.361-5.5H37.74a2.769,2.769,0,0,1-1.055,1.439A3.126,3.126,0,0,1,34.8-3.5Zm-.024-5.132a1.731,1.731,0,0,0-1.109.366,1.682,1.682,0,0,0-.593,1.037H36.4a1.734,1.734,0,0,0-.587-1.049A1.606,1.606,0,0,0,34.778-8.629Zm4.388,5.012V-9.612h1.319V-8.8a1.965,1.965,0,0,1,1.822-.935,2.146,2.146,0,0,1,1.667.683A2.6,2.6,0,0,1,44.6-7.226v3.609H43.279V-7.01a1.7,1.7,0,0,0-.336-1.121,1.125,1.125,0,0,0-.911-.4,1.387,1.387,0,0,0-1.115.516,2.2,2.2,0,0,0-.432,1.451v2.949ZM53.123-4.828a2.831,2.831,0,0,0,2.11-.887A2.979,2.979,0,0,0,56.1-7.874a2.979,2.979,0,0,0-.863-2.158,2.831,2.831,0,0,0-2.11-.887A2.845,2.845,0,0,0,51-10.032a2.98,2.98,0,0,0-.863,2.158A2.979,2.979,0,0,0,51-5.716,2.845,2.845,0,0,0,53.123-4.828Zm3.117.072a4.244,4.244,0,0,1-3.117,1.283A4.254,4.254,0,0,1,50.005-4.75a4.238,4.238,0,0,1-1.283-3.123A4.238,4.238,0,0,1,50.005-11a4.254,4.254,0,0,1,3.117-1.277,4.244,4.244,0,0,1,3.117,1.283,4.244,4.244,0,0,1,1.283,3.117A4.244,4.244,0,0,1,56.24-4.756Zm2.626,1.139V-9.612h1.319V-8.8a1.965,1.965,0,0,1,1.822-.935,2.146,2.146,0,0,1,1.667.683A2.6,2.6,0,0,1,64.3-7.226v3.609H62.978V-7.01a1.7,1.7,0,0,0-.336-1.121,1.125,1.125,0,0,0-.911-.4,1.387,1.387,0,0,0-1.115.516,2.2,2.2,0,0,0-.432,1.451v2.949Z" transform="translate(406.581 669.197)" fill="#fff"/>
    <path id="Path_1515" data-name="Path 1515" d="M7.869-10.672V-31.246h-6.8V-36.21h18.92v4.964h-6.87v20.574Zm23.524,0L20.854-36.21H26.5l7.23,17.733L40.853-36.21h5.755L36.033-10.672Z" transform="translate(415.455 709.399)" fill="#fff"/>
  </g>
</svg>
