<svg xmlns="http://www.w3.org/2000/svg" width="84" height="70" viewBox="0 0 84 70">
  <g id="Group_2264" data-name="Group 2264" transform="translate(11148 76)">
    <path id="Path_2108" data-name="Path 2108" d="M0,0H84V70H0Z" transform="translate(-11148 -76)" fill="none"/>
    <path id="blob_3_" data-name="blob (3)" d="M43.608,13.684c7.658,6.483,17.382,12.027,19.4,19.59,2.02,7.517-3.711,17.1-11.369,20.295-7.611,3.242-17.194.141-25.415-1.174S11.1,51.5,6.4,48.308C1.7,45.066-.833,38.16.247,32.288c1.034-5.872,5.59-10.711,10.288-17.194,4.7-6.53,9.537-14.751,14.7-15.08C30.454-.362,36,7.154,43.608,13.684Z" transform="translate(-11071.516 -15.886) rotate(-180)" fill="#fec53d"/>
    <g id="Group_1746" data-name="Group 1746" transform="translate(-11140.484 -58.407)">
      <g id="Group_1745" data-name="Group 1745" transform="translate(0 0)">
        <path id="Union_25" data-name="Union 25" d="M30.109,21.68a.284.284,0,0,0,.284-.284V6.087a.284.284,0,0,0-.284-.284H24.577l.268-3.441L17.79,5.8H1.7a.284.284,0,0,0-.284.284V21.4a.284.284,0,0,0,.284.284H30.109m0,1.419H1.7A1.7,1.7,0,0,1,0,21.4V6.087a1.7,1.7,0,0,1,1.7-1.7h15.76L26.452,0l-.341,4.385h4a1.7,1.7,0,0,1,1.7,1.7V21.4A1.7,1.7,0,0,1,30.109,23.1Z" transform="translate(31.811 23.098) rotate(180)" fill="#3a6469"/>
        <rect id="Rectangle_3247" data-name="Rectangle 3247" width="9.765" height="6.761" rx="1" transform="translate(29.048 9.664) rotate(180)" fill="#d7e1e2"/>
      </g>
      <g id="Group_1751" data-name="Group 1751" transform="translate(0)">
        <path id="Union_25-2" data-name="Union 25" d="M1.591,22.1a1,1,0,0,1-1-1V6.008a1,1,0,0,1,1-1H16.183l9.636-3.594L25.4,5.009h4.415a1,1,0,0,1,1,1V21.1a1,1,0,0,1-1,1Z" transform="translate(31.812 23.099) rotate(180)" fill="#fff"/>
        <path id="Union_25_-_Outline" data-name="Union 25 - Outline" d="M30.109,21.68a.284.284,0,0,0,.284-.284V6.087a.284.284,0,0,0-.284-.284H24.577l.268-3.441L17.79,5.8H1.7a.284.284,0,0,0-.284.284V21.4a.284.284,0,0,0,.284.284H30.109m0,1.419H1.7A1.7,1.7,0,0,1,0,21.4V6.087a1.7,1.7,0,0,1,1.7-1.7h15.76L26.452,0l-.341,4.385h4a1.7,1.7,0,0,1,1.7,1.7V21.4A1.7,1.7,0,0,1,30.109,23.1Z" transform="translate(31.812 23.099) rotate(180)" fill="#17494d"/>
        <rect id="Rectangle_3247-2" data-name="Rectangle 3247" width="9.765" height="6.761" rx="1" transform="translate(29.048 9.664) rotate(180)" fill="#94ccd0"/>
      </g>
    </g>
    <g id="Group_1772" data-name="Group 1772" transform="translate(-11106.403 -51.462)">
      <rect id="Rectangle_3256" data-name="Rectangle 3256" width="13.053" height="9.08" transform="translate(1.42 1.736)" fill="#fff"/>
      <g id="Group_1771" data-name="Group 1771" transform="translate(0 0)">
        <path id="Subtraction_12" data-name="Subtraction 12" d="M25.988,22.1h0L17.405,17.9H3a3,3,0,0,1-3-3V3A3,3,0,0,1,3,0H28.813a3,3,0,0,1,3,3L31.27,14.827c0,1.419-.643,3.076-2.457,3.076H25.664l.325,4.193ZM3.761,2.9a1,1,0,0,0-1,1V8.663a1,1,0,0,0,1,1h7.765a1,1,0,0,0,1-1V3.9a1,1,0,0,0-1-1Z" transform="translate(0.002 0)" fill="#94ccd0"/>
        <path id="Union_23" data-name="Union 23" d="M24.843,20.734l-.268-3.441h5.532a.284.284,0,0,0,.284-.284V1.7a.284.284,0,0,0-.284-.284H1.7a.284.284,0,0,0-.284.284V17.009a.284.284,0,0,0,.284.284H17.787l7.056,3.441M26.45,23.1l-8.991-4.385H1.7a1.7,1.7,0,0,1-1.7-1.7V1.7A1.7,1.7,0,0,1,1.7,0H30.107a1.7,1.7,0,0,1,1.7,1.7V17.009a1.7,1.7,0,0,1-1.7,1.7h-4Z" transform="translate(0.003 0.002)" fill="#17494d"/>
      </g>
    </g>
  </g>
</svg>
