<svg xmlns="http://www.w3.org/2000/svg" xmlns:xlink="http://www.w3.org/1999/xlink" width="84" height="70" viewBox="0 0 84 70">
  <defs>
    <clipPath id="clip-path">
      <rect id="Rectangle_3250" data-name="Rectangle 3250" width="43.108" height="35.864" fill="#17494d"/>
    </clipPath>
  </defs>
  <g id="Group_2265" data-name="Group 2265" transform="translate(11056 76)">
    <rect id="Rectangle_3253" data-name="Rectangle 3253" width="84" height="70" transform="translate(-11056 -76)" fill="none"/>
    <path id="blob_2_" data-name="blob (2)" d="M48.064,5.945c5.887,4.128,10.517,11.235,9.978,17.767-.538,6.569-6.246,12.6-12.1,17.7s-11.881,9.261-18.557,9.907-13.963-2.261-19.06-7.358S.4,31.573.038,23.891C-.321,16.246,1.868,8.242,6.965,4.114,12.026-.014,20.031-.3,27.568.166S42.213,1.817,48.064,5.945Z" transform="translate(-10987.632 -74.79) rotate(77)" fill="#fec53d"/>
    <g id="Group_1769" data-name="Group 1769" transform="translate(-11035.617 -58.912)">
      <path id="Path_2107" data-name="Path 2107" d="M-14098.455,589.4c1.86-.225,5.906-2.277,5.906-2.277v3.509s1.315,1.635,8.613,2.039,10.126-1.414,10.126-1.414l-.558-11.3a11.652,11.652,0,0,0-4.543-4.692c-3.1-1.67-7.767-1.487-7.767-1.487s-8.066-.167-11.778,2.675a10.674,10.674,0,0,0-3.785,7.66S-14100.315,589.623-14098.455,589.4Z" transform="translate(14102.988 -572.898)" fill="#94ccd0"/>
      <g id="Group_1761" data-name="Group 1761" transform="translate(0 0)">
        <path id="Path_2105" data-name="Path 2105" d="M-21734.09-8716.834l.3,13.233s4.43,10.157,21.221,8.982,20.369-9.323,20.369-9.323l-.637-11.948s-6.715,7.517-20.953,7.589S-21734.09-8716.834-21734.09-8716.834Z" transform="translate(21734.818 8729.754)" fill="#94ccd0"/>
        <g id="Group_1756" data-name="Group 1756" transform="translate(0 0)">
          <g id="Group_1756-2" data-name="Group 1756" transform="translate(0 0)" clip-path="url(#clip-path)">
            <path id="Path_2104" data-name="Path 2104" d="M42.548,11.855a.782.782,0,0,0-.875.328c-2.076,3.252-6.2,5.837-11.614,7.287a36.665,36.665,0,0,1-17.228.308,21.044,21.044,0,0,1-6.765-2.713A17.626,17.626,0,0,1,10,15.561v1.595a1.053,1.053,0,0,0,.715,1l.015.005a.624.624,0,0,0,.827-.587V12.542a8.845,8.845,0,0,0,3.917,1.848,16.11,16.11,0,0,0,7.582-.135,9.945,9.945,0,0,0,4.734-2.605v6.427a.7.7,0,0,0,.845.687l.023-.005a.872.872,0,0,0,.692-.85v-10l0-.013a5.1,5.1,0,0,0-.4-1.953c-1.021-2.48-3.942-4.478-7.818-5.353A24.763,24.763,0,0,0,9.5.8C5.725,1.81,2.821,3.661,1.322,6.013A7.924,7.924,0,0,0,0,10.376l0,.035v13.5A8.927,8.927,0,0,0,3.34,30.6a20.433,20.433,0,0,0,9.147,4.35,38.125,38.125,0,0,0,8.337.913,37.566,37.566,0,0,0,9.636-1.236c5.8-1.552,10.248-4.378,12.53-7.961a.777.777,0,0,0,.118-.414V12.6a.779.779,0,0,0-.559-.747M15.335,7.7a.817.817,0,0,0-.965.411,1.989,1.989,0,0,0-.263.918l0,.023v3.262a4.372,4.372,0,0,1-2.385-2.1,2.007,2.007,0,0,1,.213-1.936c1-1.567,4.182-2.364,6.948-1.74a3.367,3.367,0,0,1,2.43,1.54,1.009,1.009,0,0,1-.113.98c-.634.993-2.7,1.319-4.152.99a1.863,1.863,0,0,1-1.357-.817.4.4,0,0,1-.028-.14v-.02a.448.448,0,0,1,.078-.208.779.779,0,0,0-.4-1.158m6.055,5.321a14.632,14.632,0,0,1-5.727-.183l0,0V11.2a4.687,4.687,0,0,0,1.043.366,6.622,6.622,0,0,0,4.686-.634ZM2.633,6.85C3.924,4.829,6.5,3.215,9.9,2.307a23.171,23.171,0,0,1,10.892-.2c3.38.762,5.892,2.417,6.717,4.426a3.553,3.553,0,0,1-.366,3.425,7.42,7.42,0,0,1-4.2,2.706V8.332a.824.824,0,0,0-.023-.178,2.545,2.545,0,0,0-.176-.677,4.726,4.726,0,0,0-3.525-2.465c-3.46-.78-7.241.283-8.605,2.422a3.748,3.748,0,0,0-.6,1.725A.684.684,0,0,0,10,9.32v4.639a18.709,18.709,0,0,0-5.313,2.1C1.442,13.342.667,9.932,2.633,6.85M41.551,26.022c-2.111,3.162-6.181,5.679-11.491,7.1a36.7,36.7,0,0,1-17.228.308C5.948,31.879,1.417,28,1.557,23.77V14.959A10.98,10.98,0,0,0,2.65,16.281v5.04a.8.8,0,0,0,.577.785.781.781,0,0,0,.98-.755V17.665a16,16,0,0,0,1.379.938v8.285a.8.8,0,0,0,.577.785.78.78,0,0,0,.98-.752V19.455a22.349,22.349,0,0,0,2.267.953l0,.033v5.118a.8.8,0,0,0,.577.785.78.78,0,0,0,.98-.752V20.907q.745.214,1.522.391c.273.063.549.118.825.173v7.964a.8.8,0,0,0,.579.787.78.78,0,0,0,.978-.755V21.749q1.14.181,2.292.288V27a.8.8,0,0,0,.579.787.78.78,0,0,0,.978-.755V22.151c.772.043,1.547.063,2.319.058v8.169a.8.8,0,0,0,.579.785.782.782,0,0,0,.98-.755V22.171c.812-.035,1.625-.1,2.43-.188v4.849a.8.8,0,0,0,.579.785.78.78,0,0,0,.978-.755V21.777q1.1-.165,2.181-.4v7.781a.8.8,0,0,0,.579.785.778.778,0,0,0,.978-.752V21.01c.045-.013.093-.023.138-.035.762-.2,1.5-.431,2.209-.677v4.654a.8.8,0,0,0,.579.782.778.778,0,0,0,.978-.752V19.829a.9.9,0,0,0-.01-.115q1.2-.489,2.274-1.061v6.941a.8.8,0,0,0,.579.785.78.78,0,0,0,.98-.752V17.75q.542-.346,1.046-.712V28.8a.8.8,0,0,0,.577.787.782.782,0,0,0,.98-.755V15.767c.316-.291.617-.587.9-.893Z" transform="translate(0 -0.001)" fill="#17494d"/>
          </g>
        </g>
      </g>
    </g>
  </g>
</svg>
