<svg xmlns="http://www.w3.org/2000/svg" width="171.081" height="35.648" viewBox="0 0 171.081 35.648">
  <g id="Group_1050" data-name="Group 1050" transform="translate(-552.509 -1268.721)">
    <g id="Group_967" data-name="Group 967" transform="translate(552.509 1268.721)">
      <path id="Path_836" data-name="Path 836" d="M19.348,4.46q1.929,3.714,1.926,10.508,0,6.112-1.905,9.216a6.229,6.229,0,0,1-5.672,3.1q-3.494,0-5.513-3.7T6.162,13.452Q6.162,7.26,8.149,4A6.359,6.359,0,0,1,13.909.74q3.511,0,5.439,3.72m4.03,19.5a13.454,13.454,0,0,0,4.111-9.922,14.247,14.247,0,0,0-1.483-6.356A13.78,13.78,0,0,0,21.946,2.7a13.355,13.355,0,0,0-3.779-2A12.935,12.935,0,0,0,14,0,14,14,0,0,0,8.938.9a13.251,13.251,0,0,0-4.273,2.67A14.489,14.489,0,0,0,1.233,8.454,14.536,14.536,0,0,0,0,14.307a13.9,13.9,0,0,0,1.043,5.27,13.5,13.5,0,0,0,2.875,4.435,13.676,13.676,0,0,0,4.4,2.952,13.055,13.055,0,0,0,5.126,1.066,13.6,13.6,0,0,0,9.932-4.073" transform="translate(0 0)" fill="#00612b"/>
      <path id="Path_837" data-name="Path 837" d="M19.785,65.558c1.01-.034,1.97-.062,2.874-.078s1.746-.027,2.508-.027q1.2,0,4.3.079c.468.008.825.017,1.072.026v-.449c-.086,0-.217,0-.394-.013-2.1-.086-3.2-.26-3.3-.519a8.822,8.822,0,0,1-.124-1.628q-.043-1.406-.042-4.225V53.438q0-.8.034-2.9c0-.317.006-.553.014-.719L26.8,49.8c.272-.024.475-.035.611-.035a3.361,3.361,0,0,1,2.972,1.485,13.959,13.959,0,0,1,1.566,5.415h.343l-.011-7.325q-1.286.016-2.768.022t-4.342.006q-1.445,0-3.771-.012t-3.21-.016v7.208h.343a14.08,14.08,0,0,1,1.56-5.316,3.25,3.25,0,0,1,2.874-1.444c.173,0,.307,0,.392.007s.171.01.252.018c.007.686.022,1.378.042,2.083s.03,1.079.03,1.126c0,9.628.076-.429-.031,8.473q-.03,2.537-.091,2.913-.106.556-2.354.637c-.591.026-1.059.044-1.409.061Z" transform="translate(-11.47 -31.119)" fill="#593b30"/>
    </g>
    <g id="Group_966" data-name="Group 966" transform="translate(584.854 1273.532)">
      <path id="Path_838" data-name="Path 838" d="M100.031,11.959a6.228,6.228,0,1,1-12.455.146,6.1,6.1,0,0,1,6.41-6.227,5.913,5.913,0,0,1,6.045,6.081m-9.66-.2c0,3.123,1.388,5.771,3.725,5.771,1.735,0,3.141-1.7,3.141-5.058,0-3.634-1.479-5.825-3.579-5.825-1.844,0-3.287,1.954-3.287,5.113" transform="translate(-87.576 -5.184)" fill="#212923"/>
      <path id="Path_839" data-name="Path 839" d="M131.058,24.821a1.629,1.629,0,0,1-1.114-.383,1.707,1.707,0,0,1-.475-.676,6.678,6.678,0,0,1-1.9,1.059,2.382,2.382,0,0,1-2.465-2.337c0-.95.438-1.406,1.388-1.753a14.8,14.8,0,0,0,2.9-1.205v-.548c0-1.15-.438-1.789-1.114-1.789a.733.733,0,0,0-.6.329,3.293,3.293,0,0,0-.53,1.26.709.709,0,0,1-.767.621c-.475,0-1.132-.438-1.132-.913,0-.328.219-.566.639-.876a9,9,0,0,1,3.031-1.3,2.819,2.819,0,0,1,1.79.529,2.694,2.694,0,0,1,.95,2.411v3.013c0,.84.292,1.078.584,1.078a1.814,1.814,0,0,0,.621-.146l.183.584ZM129.4,20.237c-.329.164-.639.365-1,.566a1.286,1.286,0,0,0-.858,1.242c0,1.023.676,1.406,1.1,1.406a1.232,1.232,0,0,0,.767-.292Z" transform="translate(-111.244 -11.764)" fill="#212923"/>
      <path id="Path_840" data-name="Path 840" d="M153.764,16.873c-.53-.676-1.57-2.319-2.374-3.616-.164-.256-.274-.347-.4-.347a.484.484,0,0,0-.128.018v1.936c0,1.187.128,1.242,1.187,1.388v.584h-4.693v-.584c1.1-.146,1.205-.182,1.205-1.388V6.428c0-1.022-.128-1.132-1.1-1.26V4.656a25.2,25.2,0,0,0,3.4-.657v8.382a2.149,2.149,0,0,0,1.041-.694,8.882,8.882,0,0,0,1.059-1.589c.219-.384.146-.621-.548-.731V8.82l3.944-.165V9.2a3.853,3.853,0,0,0-2.283.95,11.076,11.076,0,0,0-1.278,1.5c.475.8,2.082,2.958,2.648,3.67a2.235,2.235,0,0,0,1.534.931v.584Z" transform="translate(-125.276 -3.999)" fill="#212923"/>
      <path id="Path_841" data-name="Path 841" d="M194.468,8.962a3.966,3.966,0,0,0-.8-1.881c-.31-.328-.785-.438-1.844-.438h-.84v8.638c0,1.552.183,1.662,1.79,1.789v.639h-5.953V17.07c1.534-.128,1.717-.237,1.717-1.789V6.643h-.621c-1.5,0-1.826.2-2.1.493a4.583,4.583,0,0,0-.767,1.844h-.657c.073-1.333.182-2.666.219-3.6h.438c.292.42.53.457,1.041.457h7.341a1.206,1.206,0,0,0,1.059-.457h.438c.018.767.11,2.374.2,3.543Z" transform="translate(-148.631 -4.872)" fill="#212923"/>
      <path id="Path_842" data-name="Path 842" d="M215.768,18.2c.657-1.132,1.37-1.918,2.045-1.918a1.15,1.15,0,0,1,1.223,1.132,1.423,1.423,0,0,1-.895,1.351.536.536,0,0,1-.566-.073,1.258,1.258,0,0,0-.84-.383c-.347,0-.712.237-1.023.949v3.4c0,1.132.11,1.206,1.516,1.333v.584h-5v-.584c.986-.11,1.169-.2,1.169-1.333V18.671c0-.931-.146-1-.986-1.205v-.511a20.165,20.165,0,0,0,3.305-.694V18.2Z" transform="translate(-166.187 -11.732)" fill="#212923"/>
      <path id="Path_843" data-name="Path 843" d="M238.971,22.793a4.1,4.1,0,0,1-3.287,2.027,3.674,3.674,0,0,1-3.78-3.908,4.627,4.627,0,0,1,1.351-3.305,4.075,4.075,0,0,1,2.812-1.3,2.989,2.989,0,0,1,2.958,2.94c0,.365-.109.6-.53.657-.329.037-2.557.219-4.346.292.091,1.954,1.169,2.94,2.465,2.94a3.026,3.026,0,0,0,2.027-.785Zm-4.73-3.451,2.173-.055c.274-.018.365-.055.383-.365,0-.931-.4-1.881-1.114-1.881-.694,0-1.333.84-1.443,2.3" transform="translate(-178.598 -11.763)" fill="#212923"/>
      <path id="Path_844" data-name="Path 844" d="M261.172,22.793a4.1,4.1,0,0,1-3.287,2.027,3.674,3.674,0,0,1-3.78-3.908,4.627,4.627,0,0,1,1.351-3.305,4.075,4.075,0,0,1,2.812-1.3,2.989,2.989,0,0,1,2.958,2.94c0,.365-.109.6-.53.657-.329.037-2.557.219-4.346.292.091,1.954,1.169,2.94,2.465,2.94a3.026,3.026,0,0,0,2.027-.785Zm-4.73-3.451,2.173-.055c.274-.018.365-.055.383-.365,0-.931-.4-1.881-1.114-1.881-.694,0-1.333.84-1.443,2.3" transform="translate(-192.599 -11.763)" fill="#212923"/>
      <path id="Path_845" data-name="Path 845" d="M295.819,18.489V17.85c1.369-.146,1.479-.274,1.461-1.954l-.037-7.031h-.091l-4.036,9.5h-.511L288.88,9.048h-.073l-.219,4.766a18.658,18.658,0,0,0,0,2.94c.073.822.438.986,1.644,1.1v.639h-4.383V17.85c1.023-.091,1.37-.42,1.48-1.059a28.648,28.648,0,0,0,.383-3.451l.292-3.6c.146-2.082.018-2.337-1.552-2.483V6.619h3.78l3.525,8,3.579-8h3.67v.639c-1.461.146-1.534.292-1.5,1.808l.164,6.83c.037,1.68.128,1.808,1.552,1.954v.639Z" transform="translate(-212.618 -5.651)" fill="#212923"/>
      <path id="Path_846" data-name="Path 846" d="M337.968,20.42a4.133,4.133,0,0,1-4.236,4.4,4.02,4.02,0,0,1-4.274-4.072,4.309,4.309,0,0,1,4.346-4.438,4.026,4.026,0,0,1,4.164,4.109m-5.9-.329c0,2.246.712,4.018,1.863,4.018.694,0,1.424-.457,1.424-3.141,0-2.538-.639-3.945-1.79-3.945-.767,0-1.5.968-1.5,3.068" transform="translate(-240.121 -11.764)" fill="#212923"/>
      <path id="Path_847" data-name="Path 847" d="M358.06,8.893a2.657,2.657,0,0,1,1.169-.347,3.791,3.791,0,0,1,3.78,3.853,4.617,4.617,0,0,1-4.748,4.657,8.619,8.619,0,0,1-3.214-.657V6.5c0-1.059-.091-1.205-1.114-1.3V4.656A25.921,25.921,0,0,0,357.384,4V9.222Zm-.676,5.971a1.747,1.747,0,0,0,.091.6,1.383,1.383,0,0,0,1.114.858c.986.018,1.881-1.078,1.881-3.36,0-2.319-1.169-3.232-2.338-3.232a2.586,2.586,0,0,0-.749.128Z" transform="translate(-255.557 -3.999)" fill="#212923"/>
      <path id="Path_848" data-name="Path 848" d="M380.979,18.272v-.584c1.06-.128,1.169-.2,1.169-1.5V12.574c0-1.205-.128-1.26-1-1.406v-.53a21.827,21.827,0,0,0,3.324-.657V16.19c0,1.26.092,1.351,1.187,1.5v.584Zm.895-10.719a1.286,1.286,0,0,1,1.3-1.278,1.263,1.263,0,0,1,1.3,1.278,1.29,1.29,0,0,1-1.315,1.278,1.307,1.307,0,0,1-1.278-1.278" transform="translate(-272.613 -5.434)" fill="#212923"/>
      <path id="Path_849" data-name="Path 849" d="M395.121,16.837v-.584c1.077-.164,1.187-.256,1.187-1.425V6.464c0-1.1-.091-1.15-1.1-1.278v-.53A24.484,24.484,0,0,0,398.627,4V14.828c0,1.224.11,1.3,1.224,1.425v.584Z" transform="translate(-281.533 -3.999)" fill="#212923"/>
      <path id="Path_850" data-name="Path 850" d="M409.806,18.272v-.584c1.059-.128,1.169-.2,1.169-1.5V12.574c0-1.205-.128-1.26-1-1.406v-.53a21.847,21.847,0,0,0,3.324-.657V16.19c0,1.26.091,1.351,1.187,1.5v.584ZM410.7,7.552A1.286,1.286,0,0,1,412,6.274a1.263,1.263,0,0,1,1.3,1.278,1.29,1.29,0,0,1-1.315,1.278A1.306,1.306,0,0,1,410.7,7.552" transform="translate(-290.793 -5.434)" fill="#212923"/>
      <path id="Path_851" data-name="Path 851" d="M427.77,20.285a2.687,2.687,0,0,1-.749.2c-1.406,0-2.228-.657-2.228-2.3V13.072h-1.151l-.091-.219.511-.657h.731V10.862l2.063-1.424.256.109V12.2h1.79a.6.6,0,0,1-.11.877h-1.68v4.51c0,1.425.658,1.589,1.041,1.589a2.093,2.093,0,0,0,.913-.219l.182.639Z" transform="translate(-299.463 -7.429)" fill="#212923"/>
      <path id="Path_852" data-name="Path 852" d="M447.926,17.488c-.876.146-1.059.329-1.516,1.315-.457.968-1.059,2.483-2.119,5.022-1.223,2.958-1.589,4.09-1.917,5.113a.618.618,0,0,1-.675.493,1.357,1.357,0,0,1-1.279-1.15c0-.292.128-.475.493-.712a3.422,3.422,0,0,0,1.5-1.3,6.037,6.037,0,0,0,.347-.749,1.274,1.274,0,0,0-.073-.858c-.95-2.648-1.954-5.241-2.3-6.045a1.445,1.445,0,0,0-1.406-1.132V16.9h4.529v.584c-.785.146-.931.256-.73.84l1.37,4.054c.42-1.023,1.041-2.849,1.37-3.89.2-.6.018-.84-.876-1V16.9h3.287Z" transform="translate(-309.191 -12.138)" fill="#212923"/>
    </g>
    <g id="Group_965" data-name="Group 965" transform="translate(584.271 1292.517)">
      <path id="Path_853" data-name="Path 853" d="M93.4,71.337c-.844.1-.978.22-1.456.966-.55.893-.966,1.6-1.553,2.679a1.4,1.4,0,0,0-.2.77v1.664c0,1.028.1,1.113,1.223,1.186v.343H87.953V78.6c1.089-.073,1.2-.147,1.2-1.186V75.79a1.252,1.252,0,0,0-.257-.722c-.428-.759-.868-1.553-1.541-2.691-.489-.832-.624-.966-1.358-1.04V71h2.923v.342c-.869.11-.844.257-.612.661.514.978,1.113,1.981,1.639,2.9.452-.807,1.113-2.006,1.456-2.752.281-.612.245-.71-.71-.807V71h2.7Z" transform="translate(-85.996 -70.236)" fill="#212923"/>
      <path id="Path_854" data-name="Path 854" d="M109.047,80.379a2.721,2.721,0,0,1-2.654,2.911,2.649,2.649,0,0,1-2.679-2.7,2.788,2.788,0,0,1,2.679-2.936,2.653,2.653,0,0,1,2.654,2.728m-4.2-.184c0,1.541.673,2.691,1.676,2.691.758,0,1.382-.563,1.382-2.239,0-1.431-.575-2.593-1.639-2.593-.758,0-1.419.758-1.419,2.14" transform="translate(-97.17 -74.434)" fill="#212923"/>
      <path id="Path_855" data-name="Path 855" d="M125.956,82.954a13.7,13.7,0,0,0-1.8.44l-.073-.073v-.868c-.281.208-.562.428-.9.636a1.747,1.747,0,0,1-.942.306c-.82,0-1.517-.5-1.517-1.822v-2.4c0-.673-.049-.722-.746-.856v-.281a14.527,14.527,0,0,0,1.749-.22c-.037.379-.037.954-.037,1.786v1.639c0,1.089.526,1.382,1.076,1.382a1.9,1.9,0,0,0,1.321-.587v-2.85c0-.7-.074-.746-.954-.868v-.281a13.01,13.01,0,0,0,1.92-.22V81.9c0,.612.1.7.563.721l.342.025Z" transform="translate(-107.425 -74.539)" fill="#212923"/>
      <path id="Path_856" data-name="Path 856" d="M139.529,78.884c.367-.612.893-1.3,1.48-1.3a.631.631,0,0,1,.318,1.211.284.284,0,0,1-.33-.024.658.658,0,0,0-.514-.257c-.318,0-.71.367-.978,1.052v2.239c0,.807.061.881,1,.954v.318h-2.813v-.318c.758-.074.844-.147.844-.954V79.276c0-.807-.061-.856-.759-.954v-.269a6.911,6.911,0,0,0,1.725-.5v1.333Z" transform="translate(-118.6 -74.371)" fill="#212923"/>
      <path id="Path_857" data-name="Path 857" d="M162.16,82.042a2.91,2.91,0,0,1-2.079,1.248,2.445,2.445,0,0,1-2.447-2.556,2.94,2.94,0,0,1,1.223-2.4,3.236,3.236,0,0,1,1.847-.685,1.828,1.828,0,0,1,1.089.318.451.451,0,0,1,.2.379.6.6,0,0,1-.4.526c-.061,0-.122-.037-.233-.135a1.773,1.773,0,0,0-1.223-.5c-.807,0-1.517.673-1.517,1.957a2.008,2.008,0,0,0,1.847,2.263,1.987,1.987,0,0,0,1.492-.673Z" transform="translate(-131.176 -74.434)" fill="#212923"/>
      <path id="Path_858" data-name="Path 858" d="M176.877,80.379a2.721,2.721,0,0,1-2.654,2.911,2.649,2.649,0,0,1-2.679-2.7,2.788,2.788,0,0,1,2.679-2.936,2.653,2.653,0,0,1,2.654,2.728m-4.195-.184c0,1.541.673,2.691,1.676,2.691.758,0,1.382-.563,1.382-2.239,0-1.431-.575-2.593-1.639-2.593-.759,0-1.419.758-1.419,2.14" transform="translate(-139.948 -74.434)" fill="#212923"/>
      <path id="Path_859" data-name="Path 859" d="M194.837,83.08v-.318c.722-.074.856-.122.856-.991V79.728c0-.868-.306-1.419-1.076-1.419a2.252,2.252,0,0,0-1.37.636,2.868,2.868,0,0,1,.037.513v2.385c0,.771.11.844.783.917v.318h-2.618v-.318c.758-.074.868-.134.868-.942v-2.1c0-.9-.318-1.406-1.064-1.406a2.275,2.275,0,0,0-1.333.636V81.82c0,.8.1.868.7.942v.318h-2.581v-.318c.807-.074.917-.147.917-.942V79.288c0-.783-.037-.844-.746-.954v-.281a7.452,7.452,0,0,0,1.7-.5v.991c.257-.171.526-.391.893-.624a1.818,1.818,0,0,1,1-.33,1.46,1.46,0,0,1,1.358,1,11.534,11.534,0,0,1,1.015-.685,1.688,1.688,0,0,1,.917-.318c.954,0,1.553.673,1.553,1.871V81.82c0,.82.1.868.8.942v.318Z" transform="translate(-150.349 -74.371)" fill="#212923"/>
      <path id="Path_860" data-name="Path 860" d="M216,72.3v-.269a3.443,3.443,0,0,1,.134-1,2.953,2.953,0,0,1,.942-1.431,2.492,2.492,0,0,1,1.346-.66,1.322,1.322,0,0,1,.966.416.4.4,0,0,1,.061.428.7.7,0,0,1-.233.294.216.216,0,0,1-.33-.037,1.532,1.532,0,0,0-.991-.452.707.707,0,0,0-.648.367,3.741,3.741,0,0,0-.281,1.859V72.3h1.443a.423.423,0,0,1-.122.477h-1.321V76.3c0,.905.086.942,1.052,1.04v.306h-2.886v-.318c.783-.073.868-.134.868-.942V72.781h-.856l-.049-.122.33-.355Z" transform="translate(-167.414 -68.941)" fill="#212923"/>
      <path id="Path_861" data-name="Path 861" d="M230.494,80.379a2.721,2.721,0,0,1-2.654,2.911,2.649,2.649,0,0,1-2.679-2.7,2.788,2.788,0,0,1,2.679-2.936,2.653,2.653,0,0,1,2.654,2.728M226.3,80.2c0,1.541.673,2.691,1.676,2.691.758,0,1.382-.563,1.382-2.239,0-1.431-.575-2.593-1.639-2.593-.758,0-1.419.758-1.419,2.14" transform="translate(-173.762 -74.434)" fill="#212923"/>
      <path id="Path_862" data-name="Path 862" d="M243.688,78.884c.367-.612.893-1.3,1.48-1.3a.631.631,0,0,1,.318,1.211.284.284,0,0,1-.33-.024.658.658,0,0,0-.514-.257c-.318,0-.709.367-.978,1.052v2.239c0,.807.061.881,1,.954v.318h-2.813v-.318c.758-.074.844-.147.844-.954V79.276c0-.807-.061-.856-.759-.954v-.269a6.912,6.912,0,0,0,1.725-.5v1.333Z" transform="translate(-184.29 -74.371)" fill="#212923"/>
      <path id="Path_863" data-name="Path 863" d="M256.149,80.478a1.24,1.24,0,0,1-.514.159c-.77,0-1.2-.489-1.2-1.455V75.622h-.844l-.049-.122.33-.355h.563v-.893l.795-.807.171.024v1.676h1.382a.348.348,0,0,1-.073.477H255.4v3.143c0,.991.4,1.174.709,1.174a1.748,1.748,0,0,0,.758-.208l.11.318Z" transform="translate(-191.662 -71.782)" fill="#212923"/>
      <path id="Path_864" data-name="Path 864" d="M271.3,79.175v-.318c.77-.073.856-.147.856-.978v-2.52c0-.758-.037-.807-.77-.93v-.294a7.714,7.714,0,0,0,1.737-.477v4.22c0,.832.086.905.868.978v.318Zm.648-7.18a.629.629,0,0,1,.624-.636.612.612,0,0,1,.612.636.627.627,0,0,1-.624.624.641.641,0,0,1-.612-.624" transform="translate(-202.859 -70.466)" fill="#212923"/>
      <path id="Path_865" data-name="Path 865" d="M283.5,79.241c-.232-.722-.66-1.211-1.26-1.211a.8.8,0,0,0-.795.844c0,.55.489.831,1.04,1.064.917.379,1.541.819,1.541,1.663a1.835,1.835,0,0,1-2.018,1.688,2.454,2.454,0,0,1-1.406-.416,5.75,5.75,0,0,1-.2-1.443l.318-.061c.22.807.77,1.517,1.5,1.517a.853.853,0,0,0,.868-.856c0-.538-.355-.832-.966-1.113-.734-.342-1.529-.746-1.529-1.688a1.685,1.685,0,0,1,1.859-1.578,2.847,2.847,0,0,1,1.089.208,9.2,9.2,0,0,1,.269,1.309Z" transform="translate(-208.603 -74.434)" fill="#212923"/>
      <path id="Path_866" data-name="Path 866" d="M305.277,80.379a2.721,2.721,0,0,1-2.654,2.911,2.649,2.649,0,0,1-2.679-2.7,2.788,2.788,0,0,1,2.679-2.936,2.653,2.653,0,0,1,2.654,2.728m-4.2-.184c0,1.541.673,2.691,1.676,2.691.758,0,1.382-.563,1.382-2.239,0-1.431-.575-2.593-1.639-2.593-.759,0-1.419.758-1.419,2.14" transform="translate(-220.925 -74.434)" fill="#212923"/>
      <path id="Path_867" data-name="Path 867" d="M322.187,82.954a13.707,13.707,0,0,0-1.8.44l-.074-.073v-.868c-.281.208-.562.428-.9.636a1.747,1.747,0,0,1-.942.306c-.819,0-1.517-.5-1.517-1.822v-2.4c0-.673-.049-.722-.746-.856v-.281a14.526,14.526,0,0,0,1.749-.22c-.037.379-.037.954-.037,1.786v1.639c0,1.089.526,1.382,1.076,1.382a1.9,1.9,0,0,0,1.321-.587v-2.85c0-.7-.073-.746-.954-.868v-.281a13.007,13.007,0,0,0,1.92-.22V81.9c0,.612.1.7.563.721l.342.025Z" transform="translate(-231.18 -74.539)" fill="#212923"/>
      <path id="Path_868" data-name="Path 868" d="M335.758,78.884c.367-.612.893-1.3,1.48-1.3a.631.631,0,0,1,.318,1.211.284.284,0,0,1-.33-.024.658.658,0,0,0-.514-.257c-.318,0-.71.367-.978,1.052v2.239c0,.807.061.881,1,.954v.318h-2.813v-.318c.758-.074.844-.147.844-.954V79.276c0-.807-.061-.856-.758-.954v-.269a6.912,6.912,0,0,0,1.724-.5v1.333Z" transform="translate(-242.354 -74.371)" fill="#212923"/>
      <path id="Path_869" data-name="Path 869" d="M357.057,79.241c-.232-.722-.66-1.211-1.26-1.211a.8.8,0,0,0-.795.844c0,.55.489.831,1.04,1.064.917.379,1.541.819,1.541,1.663a1.835,1.835,0,0,1-2.018,1.688,2.454,2.454,0,0,1-1.406-.416,5.75,5.75,0,0,1-.2-1.443l.318-.061c.22.807.77,1.517,1.5,1.517a.853.853,0,0,0,.868-.856c0-.538-.355-.832-.966-1.113-.734-.342-1.529-.746-1.529-1.688a1.685,1.685,0,0,1,1.859-1.578,2.847,2.847,0,0,1,1.089.208,9.214,9.214,0,0,1,.269,1.309Z" transform="translate(-254.992 -74.434)" fill="#212923"/>
      <path id="Path_870" data-name="Path 870" d="M367.926,80.478a1.24,1.24,0,0,1-.514.159c-.77,0-1.2-.489-1.2-1.455V75.622h-.844l-.049-.122.33-.355h.563v-.893l.795-.807.171.024v1.676h1.382a.348.348,0,0,1-.073.477H367.18v3.143c0,.991.4,1.174.709,1.174a1.748,1.748,0,0,0,.758-.208l.11.318Z" transform="translate(-262.155 -71.782)" fill="#212923"/>
      <path id="Path_871" data-name="Path 871" d="M377.788,78.884c.367-.612.893-1.3,1.48-1.3a.631.631,0,0,1,.318,1.211.284.284,0,0,1-.33-.024.658.658,0,0,0-.514-.257c-.318,0-.71.367-.978,1.052v2.239c0,.807.061.881,1,.954v.318h-2.813v-.318c.758-.074.844-.147.844-.954V79.276c0-.807-.061-.856-.758-.954v-.269a6.912,6.912,0,0,0,1.724-.5v1.333Z" transform="translate(-268.861 -74.371)" fill="#212923"/>
      <path id="Path_872" data-name="Path 872" d="M392.75,82.1a2.778,2.778,0,0,1-1.994,1.186,2.419,2.419,0,0,1-2.385-2.605,3.149,3.149,0,0,1,.807-2.14,2.483,2.483,0,0,1,1.8-.893,1.894,1.894,0,0,1,1.834,1.859c0,.245-.061.342-.281.392s-1.737.159-3.193.208c.012,1.664.967,2.348,1.823,2.348a2,2,0,0,0,1.394-.612Zm-3.351-2.5c.685,0,1.358-.012,2.067-.037.22,0,.294-.073.294-.245a1.122,1.122,0,0,0-1.076-1.223c-.563,0-1.1.514-1.284,1.5" transform="translate(-276.692 -74.434)" fill="#212923"/>
      <path id="Path_873" data-name="Path 873" d="M405.68,83.08v-.318c.722-.074.807-.171.807-1.015V79.7c0-.844-.294-1.394-1.113-1.394a2.191,2.191,0,0,0-1.333.623v2.875c0,.832.073.881.8.954v.318h-2.654v-.318c.832-.086.893-.147.893-.954V79.276c0-.783-.073-.82-.734-.942v-.281a7.341,7.341,0,0,0,1.7-.5v.979c.245-.184.514-.367.82-.575a1.877,1.877,0,0,1,1.015-.367c.966,0,1.578.673,1.578,1.859v2.361c0,.832.061.881.77.954v.318Z" transform="translate(-285.402 -74.371)" fill="#212923"/>
      <path id="Path_874" data-name="Path 874" d="M425.667,77.883a1.94,1.94,0,0,1-.551.624l-.7-.037a1.647,1.647,0,0,1,.367,1.089,1.986,1.986,0,0,1-2.141,1.957,5.15,5.15,0,0,1-.623-.061.768.768,0,0,0-.367.5c0,.244.22.477.771.477.44,0,.881-.012,1.284-.012.758,0,1.761.245,1.761,1.443,0,1.235-1.431,2.422-3.058,2.422-1.357,0-2.1-.8-2.116-1.492a.952.952,0,0,1,.294-.685,11.758,11.758,0,0,1,1.015-.856,1.628,1.628,0,0,1-.905-.673.918.918,0,0,1-.135-.513,2.632,2.632,0,0,0,1.076-.746,1.764,1.764,0,0,1-1.076-1.639,2.094,2.094,0,0,1,2.189-2.03,2.439,2.439,0,0,1,1.174.305,14.341,14.341,0,0,0,1.664-.171Zm-3.841,5.663a1.321,1.321,0,0,0-.563.954c0,.66.71,1.162,1.615,1.162,1.162,0,1.761-.6,1.761-1.358a.887.887,0,0,0-.563-.869,3.131,3.131,0,0,0-1.174-.159,1.463,1.463,0,0,0-1.076.269m-.208-4.061c0,.954.465,1.639,1.15,1.639.538-.013,1.015-.489,1.015-1.456s-.453-1.651-1.15-1.651c-.538,0-1.015.514-1.015,1.468" transform="translate(-296.826 -74.434)" fill="#212923"/>
      <path id="Path_875" data-name="Path 875" d="M438,80.478a1.24,1.24,0,0,1-.514.159c-.771,0-1.2-.489-1.2-1.455V75.622h-.844L435.4,75.5l.33-.355h.563v-.893l.795-.807.171.024v1.676h1.382a.348.348,0,0,1-.074.477h-1.309v3.143c0,.991.4,1.174.709,1.174a1.748,1.748,0,0,0,.758-.208l.11.318Z" transform="translate(-306.351 -71.782)" fill="#212923"/>
      <path id="Path_876" data-name="Path 876" d="M449.008,77.65v-.318c.709-.073.807-.147.807-.942V74.36c0-1-.379-1.5-1.2-1.5a1.726,1.726,0,0,0-1.272.624V76.39c0,.783.061.868.782.942v.318h-2.592v-.318c.734-.061.844-.134.844-.942V70.555c0-.77-.024-.832-.832-.9v-.281a13.377,13.377,0,0,0,1.8-.428v4.11a2.675,2.675,0,0,1,1.749-.893c.991,0,1.688.624,1.688,2.092v2.14c0,.807.086.88.807.942v.318Z" transform="translate(-312.742 -68.941)" fill="#212923"/>
    </g>
  </g>
</svg>
