<svg xmlns="http://www.w3.org/2000/svg" width="119.194" height="24.836" viewBox="0 0 119.194 24.836">
  <g id="Group_1041" data-name="Group 1041" transform="translate(-552.509 -1268.721)">
    <g id="Group_967" data-name="Group 967" transform="translate(552.509 1268.721)">
      <path id="Path_836" data-name="Path 836" d="M13.48,3.107a16.175,16.175,0,0,1,1.342,7.321,12.462,12.462,0,0,1-1.328,6.421,4.34,4.34,0,0,1-3.951,2.163A4.268,4.268,0,0,1,5.7,16.437,14.817,14.817,0,0,1,4.293,9.373,12.763,12.763,0,0,1,5.678,2.789,4.431,4.431,0,0,1,9.69.516a4.153,4.153,0,0,1,3.79,2.592m2.808,13.583a9.374,9.374,0,0,0,2.865-6.912A9.926,9.926,0,0,0,18.119,5.35,9.6,9.6,0,0,0,15.29,1.879,9.3,9.3,0,0,0,12.657.486,9.012,9.012,0,0,0,9.755,0,9.757,9.757,0,0,0,6.228.629a9.232,9.232,0,0,0-2.977,1.86A10.1,10.1,0,0,0,.859,5.89,10.128,10.128,0,0,0,0,9.968,9.682,9.682,0,0,0,.727,13.64a9.4,9.4,0,0,0,2,3.09A9.528,9.528,0,0,0,5.8,18.786a9.1,9.1,0,0,0,3.572.742,9.475,9.475,0,0,0,6.92-2.838" transform="translate(0 0)" fill="#fff"/>
      <path id="Path_837" data-name="Path 837" d="M19.3,60.641c.7-.024,1.373-.043,2-.055s1.217-.019,1.747-.019q.833,0,2.994.055c.326.005.575.012.747.018v-.313c-.06,0-.151,0-.274-.009-1.463-.06-2.23-.181-2.3-.362a6.147,6.147,0,0,1-.087-1.135q-.03-.98-.029-2.944V52.2q0-.561.024-2.023c0-.221,0-.385.01-.5l.048-.009c.189-.016.331-.024.425-.024a2.342,2.342,0,0,1,2.071,1.035,9.725,9.725,0,0,1,1.091,3.772h.239l-.008-5.1q-.9.011-1.929.015t-3.025,0q-1.007,0-2.627-.008t-2.237-.011v5.022h.239a9.809,9.809,0,0,1,1.087-3.7,2.264,2.264,0,0,1,2-1.006c.121,0,.214,0,.273,0s.119.007.175.012c0,.478.015.96.029,1.452s.021.752.021.784c0,6.708.053-.3-.021,5.9q-.021,1.768-.064,2.03-.074.388-1.64.444c-.412.018-.737.031-.982.042Z" transform="translate(-13.508 -36.646)" fill="#fff"/>
    </g>
    <g id="Group_966" data-name="Group 966" transform="translate(575.044 1272.073)">
      <path id="Path_838" data-name="Path 838" d="M96.253,10.115a4.339,4.339,0,1,1-8.677.1,4.253,4.253,0,0,1,4.466-4.338,4.12,4.12,0,0,1,4.211,4.237m-6.731-.14c0,2.176.967,4.02,2.6,4.02,1.209,0,2.189-1.183,2.189-3.524,0-2.532-1.031-4.059-2.494-4.059-1.285,0-2.29,1.361-2.29,3.562" transform="translate(-87.576 -5.395)" fill="#fff"/>
      <path id="Path_839" data-name="Path 839" d="M129.253,22.24a1.135,1.135,0,0,1-.776-.267,1.189,1.189,0,0,1-.331-.471,4.653,4.653,0,0,1-1.323.738,1.659,1.659,0,0,1-1.718-1.628c0-.662.305-.98.967-1.222a10.312,10.312,0,0,0,2.023-.84v-.382c0-.8-.305-1.247-.776-1.247a.51.51,0,0,0-.42.229,2.3,2.3,0,0,0-.369.878.494.494,0,0,1-.534.433c-.331,0-.789-.305-.789-.636,0-.229.153-.394.445-.611a6.272,6.272,0,0,1,2.112-.9,1.964,1.964,0,0,1,1.247.369,1.877,1.877,0,0,1,.662,1.68v2.1c0,.585.2.751.407.751a1.264,1.264,0,0,0,.433-.1l.127.407Zm-1.158-3.193c-.229.115-.445.254-.7.394a.9.9,0,0,0-.6.865c0,.713.471.98.763.98a.858.858,0,0,0,.534-.2Z" transform="translate(-115.448 -13.143)" fill="#fff"/>
      <path id="Path_840" data-name="Path 840" d="M151.821,12.969c-.369-.471-1.094-1.616-1.654-2.519-.115-.178-.191-.242-.28-.242a.337.337,0,0,0-.089.013v1.349c0,.827.089.865.827.967v.407h-3.27v-.407c.763-.1.84-.127.84-.967V5.691c0-.712-.089-.789-.763-.878V4.457A17.556,17.556,0,0,0,149.8,4v5.84a1.5,1.5,0,0,0,.725-.484,6.188,6.188,0,0,0,.738-1.107c.153-.267.1-.433-.382-.509V7.358l2.748-.115v.382a2.684,2.684,0,0,0-1.59.662,7.717,7.717,0,0,0-.891,1.043c.331.56,1.45,2.061,1.845,2.557a1.558,1.558,0,0,0,1.069.649v.407Z" transform="translate(-131.972 -3.999)" fill="#fff"/>
      <path id="Path_841" data-name="Path 841" d="M191.411,7.877a2.764,2.764,0,0,0-.56-1.311c-.216-.229-.547-.305-1.285-.305h-.585v6.018c0,1.081.127,1.158,1.247,1.247v.445H186.08v-.445c1.069-.089,1.2-.165,1.2-1.247V6.261h-.433c-1.043,0-1.272.14-1.463.344a3.193,3.193,0,0,0-.534,1.285h-.458c.051-.929.127-1.857.153-2.506h.305c.2.293.369.318.725.318h5.115a.84.84,0,0,0,.738-.318h.305c.013.534.076,1.654.14,2.468Z" transform="translate(-159.476 -5.027)" fill="#fff"/>
      <path id="Path_842" data-name="Path 842" d="M214.693,17.61c.458-.789.954-1.336,1.425-1.336a.8.8,0,0,1,.852.789.991.991,0,0,1-.623.941.373.373,0,0,1-.395-.051.876.876,0,0,0-.585-.267c-.242,0-.5.165-.713.661v2.367c0,.789.076.84,1.056.929v.407h-3.486v-.407c.687-.076.814-.14.814-.929V17.94c0-.649-.1-.7-.687-.84v-.356a14.049,14.049,0,0,0,2.3-.484V17.61Z" transform="translate(-180.15 -13.106)" fill="#fff"/>
      <path id="Path_843" data-name="Path 843" d="M236.828,20.827a2.86,2.86,0,0,1-2.29,1.412,2.559,2.559,0,0,1-2.634-2.723,3.223,3.223,0,0,1,.942-2.3,2.839,2.839,0,0,1,1.959-.9,2.082,2.082,0,0,1,2.061,2.049c0,.254-.076.42-.369.458-.229.025-1.781.153-3.028.2.064,1.361.814,2.048,1.718,2.048a2.108,2.108,0,0,0,1.412-.547Zm-3.3-2.4,1.514-.038c.191-.013.255-.038.267-.254,0-.649-.28-1.311-.776-1.311s-.929.585-1.005,1.6" transform="translate(-194.765 -13.142)" fill="#fff"/>
      <path id="Path_844" data-name="Path 844" d="M259.029,20.827a2.86,2.86,0,0,1-2.29,1.412,2.559,2.559,0,0,1-2.634-2.723,3.223,3.223,0,0,1,.942-2.3,2.839,2.839,0,0,1,1.959-.9,2.082,2.082,0,0,1,2.061,2.049c0,.254-.076.42-.369.458-.229.025-1.781.153-3.028.2.064,1.361.814,2.048,1.718,2.048a2.108,2.108,0,0,0,1.412-.547Zm-3.3-2.4,1.514-.038c.191-.013.254-.038.267-.254,0-.649-.28-1.311-.776-1.311s-.929.585-1.005,1.6" transform="translate(-211.253 -13.142)" fill="#fff"/>
      <path id="Path_845" data-name="Path 845" d="M292.795,14.889v-.445c.954-.1,1.031-.191,1.018-1.361l-.026-4.9h-.064L290.912,14.8h-.356l-2.6-6.489h-.051l-.153,3.321a13,13,0,0,0,0,2.049c.051.573.305.687,1.145.763v.445h-3.054v-.445c.713-.064.954-.293,1.031-.738a19.958,19.958,0,0,0,.267-2.4l.2-2.507c.1-1.45.013-1.628-1.082-1.73V6.619H288.9l2.456,5.573,2.494-5.573h2.557v.445c-1.018.1-1.069.2-1.043,1.26l.114,4.758c.026,1.171.089,1.26,1.082,1.361v.445Z" transform="translate(-234.828 -5.945)" fill="#fff"/>
      <path id="Path_846" data-name="Path 846" d="M335.387,19.174a2.88,2.88,0,0,1-2.951,3.066,2.8,2.8,0,0,1-2.977-2.837,3,3,0,0,1,3.028-3.092,2.8,2.8,0,0,1,2.9,2.863m-4.109-.229c0,1.565.5,2.8,1.3,2.8.483,0,.992-.318.992-2.189,0-1.768-.445-2.748-1.247-2.748-.534,0-1.043.674-1.043,2.138" transform="translate(-267.216 -13.143)" fill="#fff"/>
      <path id="Path_847" data-name="Path 847" d="M356.808,7.409a1.851,1.851,0,0,1,.814-.242,2.641,2.641,0,0,1,2.634,2.685,3.217,3.217,0,0,1-3.308,3.244,6,6,0,0,1-2.239-.458v-6.9c0-.738-.064-.84-.776-.9V4.457a18.06,18.06,0,0,0,2.4-.458V7.638Zm-.471,4.16a1.217,1.217,0,0,0,.064.42.963.963,0,0,0,.776.6c.687.013,1.311-.751,1.311-2.341,0-1.616-.814-2.252-1.629-2.252a1.8,1.8,0,0,0-.522.089Z" transform="translate(-285.393 -3.999)" fill="#fff"/>
      <path id="Path_848" data-name="Path 848" d="M380.979,14.633v-.407c.738-.089.814-.14.814-1.043V10.663c0-.84-.089-.878-.7-.98V9.315a15.207,15.207,0,0,0,2.316-.458v4.326c0,.878.064.942.827,1.043v.407Zm.623-7.468a.9.9,0,0,1,.9-.891.88.88,0,0,1,.9.891.9.9,0,0,1-.916.891.91.91,0,0,1-.891-.891" transform="translate(-305.479 -5.688)" fill="#fff"/>
      <path id="Path_849" data-name="Path 849" d="M395.121,12.943v-.407c.751-.115.827-.178.827-.992V5.717c0-.763-.064-.8-.763-.891V4.457A17.058,17.058,0,0,0,397.564,4v7.545c0,.853.076.9.852.992v.407Z" transform="translate(-315.982 -3.999)" fill="#fff"/>
      <path id="Path_850" data-name="Path 850" d="M409.806,14.633v-.407c.738-.089.814-.14.814-1.043V10.663c0-.84-.089-.878-.7-.98V9.315a15.222,15.222,0,0,0,2.316-.458v4.326c0,.878.064.942.827,1.043v.407Zm.623-7.468a.9.9,0,0,1,.9-.891.88.88,0,0,1,.9.891.9.9,0,0,1-.916.891.91.91,0,0,1-.891-.891" transform="translate(-326.888 -5.688)" fill="#fff"/>
      <path id="Path_851" data-name="Path 851" d="M426.491,17a1.872,1.872,0,0,1-.522.14c-.98,0-1.552-.458-1.552-1.6V11.97h-.8l-.064-.153.356-.458h.509V10.43l1.438-.992.178.076v1.845h1.247a.42.42,0,0,1-.076.611h-1.171v3.142c0,.992.458,1.107.725,1.107a1.458,1.458,0,0,0,.636-.153l.127.445Z" transform="translate(-337.097 -8.038)" fill="#fff"/>
      <path id="Path_852" data-name="Path 852" d="M445.212,17.311c-.611.1-.738.229-1.056.916s-.738,1.73-1.476,3.5c-.852,2.061-1.107,2.85-1.336,3.562a.431.431,0,0,1-.471.344.946.946,0,0,1-.891-.8c0-.2.089-.331.344-.5a2.384,2.384,0,0,0,1.043-.9,4.21,4.21,0,0,0,.242-.522.888.888,0,0,0-.051-.6c-.662-1.845-1.361-3.652-1.6-4.211a1.007,1.007,0,0,0-.98-.789V16.9h3.155v.407c-.547.1-.649.178-.509.585l.954,2.824c.293-.713.725-1.985.954-2.71.14-.42.013-.585-.611-.7V16.9h2.29Z" transform="translate(-348.553 -13.583)" fill="#fff"/>
    </g>
    <g id="Group_965" data-name="Group 965" transform="translate(574.638 1285.3)">
      <path id="Path_853" data-name="Path 853" d="M91.151,71.234c-.588.068-.682.153-1.014.673-.383.622-.673,1.117-1.082,1.866a.972.972,0,0,0-.136.537v1.159c0,.716.068.776.852.827v.239H87.359V76.3c.759-.051.835-.1.835-.827V74.336a.872.872,0,0,0-.179-.5c-.3-.529-.6-1.082-1.074-1.875-.341-.579-.435-.673-.946-.724V71h2.037v.239c-.605.077-.588.179-.426.46.358.682.775,1.38,1.142,2.019.315-.563.776-1.4,1.014-1.917.2-.426.17-.494-.494-.563V71h1.883Z" transform="translate(-85.996 -70.466)" fill="#fff"/>
      <path id="Path_854" data-name="Path 854" d="M107.429,79.551a1.9,1.9,0,0,1-1.849,2.028,1.846,1.846,0,0,1-1.866-1.883,1.942,1.942,0,0,1,1.866-2.045,1.848,1.848,0,0,1,1.849,1.9m-2.923-.128c0,1.074.469,1.875,1.167,1.875.528,0,.963-.392.963-1.56,0-1-.4-1.806-1.142-1.806-.528,0-.989.528-.989,1.491" transform="translate(-99.155 -75.41)" fill="#fff"/>
      <path id="Path_855" data-name="Path 855" d="M124.142,81.4a9.55,9.55,0,0,0-1.253.307l-.051-.051v-.6c-.2.145-.392.3-.63.443a1.217,1.217,0,0,1-.656.213c-.571,0-1.057-.349-1.057-1.27v-1.67c0-.469-.034-.5-.52-.6v-.2a10.121,10.121,0,0,0,1.219-.153c-.025.264-.025.665-.025,1.244V80.2c0,.759.366.963.75.963a1.324,1.324,0,0,0,.92-.409V78.771c0-.486-.051-.52-.665-.6v-.2a9.063,9.063,0,0,0,1.338-.153v2.846c0,.426.068.486.392.5l.239.017Z" transform="translate(-111.231 -75.533)" fill="#fff"/>
      <path id="Path_856" data-name="Path 856" d="M138.972,78.48c.256-.426.622-.9,1.031-.9a.44.44,0,0,1,.222.843.2.2,0,0,1-.23-.017.458.458,0,0,0-.358-.179c-.222,0-.494.256-.682.733v1.56c0,.562.043.613.7.665V81.4h-1.96v-.222c.528-.051.588-.1.588-.665V78.753c0-.563-.043-.6-.529-.665V77.9a4.815,4.815,0,0,0,1.2-.349v.929Z" transform="translate(-124.391 -75.336)" fill="#fff"/>
      <path id="Path_857" data-name="Path 857" d="M160.787,80.71a2.028,2.028,0,0,1-1.448.869,1.7,1.7,0,0,1-1.7-1.781,2.048,2.048,0,0,1,.852-1.67,2.255,2.255,0,0,1,1.287-.477,1.274,1.274,0,0,1,.759.222.314.314,0,0,1,.136.264.416.416,0,0,1-.281.366c-.043,0-.085-.025-.162-.094a1.235,1.235,0,0,0-.852-.349c-.562,0-1.057.469-1.057,1.364A1.4,1.4,0,0,0,159.6,81a1.384,1.384,0,0,0,1.04-.469Z" transform="translate(-139.2 -75.41)" fill="#fff"/>
      <path id="Path_858" data-name="Path 858" d="M175.259,79.551a1.9,1.9,0,0,1-1.849,2.028,1.846,1.846,0,0,1-1.866-1.883,1.942,1.942,0,0,1,1.866-2.045,1.848,1.848,0,0,1,1.849,1.9m-2.923-.128c0,1.074.469,1.875,1.167,1.875.528,0,.963-.392.963-1.56,0-1-.4-1.806-1.142-1.806-.529,0-.988.528-.988,1.491" transform="translate(-149.531 -75.41)" fill="#fff"/>
      <path id="Path_859" data-name="Path 859" d="M192.774,81.4v-.222c.5-.051.6-.085.6-.69V79.068c0-.6-.213-.988-.75-.988a1.569,1.569,0,0,0-.954.443,2,2,0,0,1,.025.358v1.662c0,.537.077.588.546.639V81.4h-1.824v-.222c.528-.051.6-.094.6-.656V79.059c0-.63-.222-.98-.741-.98a1.585,1.585,0,0,0-.929.443v2c0,.554.068.6.486.656V81.4h-1.8v-.222c.563-.051.639-.1.639-.656V78.761c0-.545-.025-.588-.52-.665v-.2a5.192,5.192,0,0,0,1.184-.349v.69c.179-.119.366-.273.622-.435a1.267,1.267,0,0,1,.7-.23,1.017,1.017,0,0,1,.946.7,8.036,8.036,0,0,1,.707-.477,1.176,1.176,0,0,1,.639-.222c.665,0,1.082.469,1.082,1.3v1.645c0,.571.068.6.554.656V81.4Z" transform="translate(-161.779 -75.336)" fill="#fff"/>
      <path id="Path_860" data-name="Path 860" d="M215.725,71.284V71.1a2.4,2.4,0,0,1,.094-.7,2.057,2.057,0,0,1,.656-1,1.736,1.736,0,0,1,.937-.46.921.921,0,0,1,.673.29.278.278,0,0,1,.043.3.489.489,0,0,1-.162.2.151.151,0,0,1-.23-.026,1.068,1.068,0,0,0-.69-.315.493.493,0,0,0-.452.256,2.606,2.606,0,0,0-.2,1.3v.341H217.4a.3.3,0,0,1-.085.332h-.92v2.454c0,.631.06.656.733.724v.213H215.12v-.222c.545-.051.6-.094.6-.656V71.617h-.6l-.034-.085.23-.247Z" transform="translate(-181.874 -68.941)" fill="#fff"/>
      <path id="Path_861" data-name="Path 861" d="M228.877,79.551a1.9,1.9,0,0,1-1.849,2.028,1.846,1.846,0,0,1-1.867-1.883,1.942,1.942,0,0,1,1.867-2.045,1.848,1.848,0,0,1,1.849,1.9m-2.923-.128c0,1.074.469,1.875,1.168,1.875.528,0,.963-.392.963-1.56,0-1-.4-1.806-1.142-1.806-.528,0-.988.528-.988,1.491" transform="translate(-189.351 -75.41)" fill="#fff"/>
      <path id="Path_862" data-name="Path 862" d="M243.132,78.48c.256-.426.622-.9,1.031-.9a.44.44,0,0,1,.222.843.2.2,0,0,1-.23-.017.458.458,0,0,0-.358-.179c-.222,0-.494.256-.682.733v1.56c0,.562.043.613.7.665V81.4h-1.96v-.222c.528-.051.588-.1.588-.665V78.753c0-.563-.043-.6-.529-.665V77.9a4.815,4.815,0,0,0,1.2-.349v.929Z" transform="translate(-201.748 -75.336)" fill="#fff"/>
      <path id="Path_863" data-name="Path 863" d="M255.359,78.345a.864.864,0,0,1-.358.111c-.537,0-.835-.341-.835-1.014v-2.48h-.588l-.034-.085.23-.247h.392v-.622l.554-.563.119.017v1.167h.963a.242.242,0,0,1-.051.332h-.912v2.19c0,.69.281.818.494.818a1.218,1.218,0,0,0,.528-.145l.077.222Z" transform="translate(-210.43 -72.286)" fill="#fff"/>
      <path id="Path_864" data-name="Path 864" d="M271.3,76.8v-.222c.537-.051.6-.1.6-.682V74.146c0-.528-.025-.563-.537-.648v-.2a5.375,5.375,0,0,0,1.21-.332V75.9c0,.579.06.631.6.682V76.8Zm.452-5a.438.438,0,0,1,.435-.443.426.426,0,0,1,.426.443.436.436,0,0,1-.435.435.447.447,0,0,1-.426-.435" transform="translate(-223.616 -70.737)" fill="#fff"/>
      <path id="Path_865" data-name="Path 865" d="M282.562,78.759c-.162-.5-.46-.843-.878-.843a.556.556,0,0,0-.554.588c0,.383.341.579.724.741.639.264,1.074.571,1.074,1.159a1.279,1.279,0,0,1-1.406,1.176,1.709,1.709,0,0,1-.98-.29,4.006,4.006,0,0,1-.136-1.006l.222-.043c.153.563.537,1.057,1.048,1.057a.594.594,0,0,0,.605-.6c0-.375-.247-.579-.673-.776-.511-.239-1.065-.52-1.065-1.176a1.174,1.174,0,0,1,1.3-1.1,1.984,1.984,0,0,1,.759.145,6.409,6.409,0,0,1,.187.912Z" transform="translate(-230.38 -75.41)" fill="#fff"/>
      <path id="Path_866" data-name="Path 866" d="M303.659,79.551a1.9,1.9,0,0,1-1.849,2.028,1.846,1.846,0,0,1-1.866-1.883,1.942,1.942,0,0,1,1.866-2.045,1.848,1.848,0,0,1,1.849,1.9m-2.923-.128c0,1.074.469,1.875,1.167,1.875.528,0,.963-.392.963-1.56,0-1-.4-1.806-1.142-1.806-.529,0-.989.528-.989,1.491" transform="translate(-244.89 -75.41)" fill="#fff"/>
      <path id="Path_867" data-name="Path 867" d="M320.373,81.4a9.552,9.552,0,0,0-1.253.307l-.051-.051v-.6c-.2.145-.392.3-.63.443a1.217,1.217,0,0,1-.656.213c-.571,0-1.057-.349-1.057-1.27v-1.67c0-.469-.034-.5-.52-.6v-.2a10.12,10.12,0,0,0,1.219-.153c-.025.264-.025.665-.025,1.244V80.2c0,.759.366.963.75.963a1.324,1.324,0,0,0,.92-.409V78.771c0-.486-.051-.52-.665-.6v-.2a9.061,9.061,0,0,0,1.338-.153v2.846c0,.426.068.486.392.5l.238.017Z" transform="translate(-256.968 -75.533)" fill="#fff"/>
      <path id="Path_868" data-name="Path 868" d="M335.2,78.48c.256-.426.622-.9,1.031-.9a.44.44,0,0,1,.222.843.2.2,0,0,1-.23-.017.458.458,0,0,0-.358-.179c-.222,0-.494.256-.682.733v1.56c0,.562.043.613.7.665V81.4h-1.96v-.222c.528-.051.588-.1.588-.665V78.753c0-.563-.043-.6-.528-.665V77.9a4.815,4.815,0,0,0,1.2-.349v.929Z" transform="translate(-270.126 -75.336)" fill="#fff"/>
      <path id="Path_869" data-name="Path 869" d="M356.119,78.759c-.162-.5-.46-.843-.878-.843a.556.556,0,0,0-.554.588c0,.383.341.579.724.741.639.264,1.074.571,1.074,1.159a1.279,1.279,0,0,1-1.406,1.176,1.709,1.709,0,0,1-.98-.29,4.006,4.006,0,0,1-.136-1.006l.222-.043c.153.563.537,1.057,1.048,1.057a.594.594,0,0,0,.6-.6c0-.375-.247-.579-.673-.776-.511-.239-1.065-.52-1.065-1.176a1.174,1.174,0,0,1,1.3-1.1,1.984,1.984,0,0,1,.759.145,6.418,6.418,0,0,1,.187.912Z" transform="translate(-285.009 -75.41)" fill="#fff"/>
      <path id="Path_870" data-name="Path 870" d="M367.136,78.345a.864.864,0,0,1-.358.111c-.537,0-.835-.341-.835-1.014v-2.48h-.588l-.034-.085.23-.247h.392v-.622l.554-.563.119.017v1.167h.963a.242.242,0,0,1-.051.332h-.912v2.19c0,.69.281.818.494.818a1.218,1.218,0,0,0,.528-.145l.077.222Z" transform="translate(-293.444 -72.286)" fill="#fff"/>
      <path id="Path_871" data-name="Path 871" d="M377.231,78.48c.256-.426.622-.9,1.031-.9a.44.44,0,0,1,.222.843.2.2,0,0,1-.23-.017.458.458,0,0,0-.358-.179c-.221,0-.494.256-.682.733v1.56c0,.562.043.613.7.665V81.4h-1.96v-.222c.528-.051.588-.1.588-.665V78.753c0-.563-.043-.6-.528-.665V77.9a4.815,4.815,0,0,0,1.2-.349v.929Z" transform="translate(-301.34 -75.336)" fill="#fff"/>
      <path id="Path_872" data-name="Path 872" d="M391.422,80.753a1.936,1.936,0,0,1-1.389.827,1.685,1.685,0,0,1-1.662-1.815,2.194,2.194,0,0,1,.563-1.491,1.73,1.73,0,0,1,1.253-.622,1.32,1.32,0,0,1,1.278,1.3c0,.17-.042.239-.2.273s-1.21.111-2.224.145c.008,1.159.673,1.636,1.27,1.636a1.392,1.392,0,0,0,.971-.426Zm-2.335-1.738c.477,0,.946-.008,1.44-.026.154,0,.2-.051.2-.17a.781.781,0,0,0-.75-.852c-.392,0-.767.358-.895,1.048" transform="translate(-310.563 -75.41)" fill="#fff"/>
      <path id="Path_873" data-name="Path 873" d="M404.619,81.4v-.222c.5-.051.562-.119.562-.707V79.051c0-.588-.2-.971-.776-.971a1.526,1.526,0,0,0-.929.434v2c0,.579.051.613.554.665V81.4h-1.849v-.222c.579-.06.622-.1.622-.665V78.753c0-.546-.051-.571-.511-.656v-.2a5.115,5.115,0,0,0,1.185-.349v.682c.171-.128.358-.256.571-.4a1.308,1.308,0,0,1,.707-.256c.673,0,1.1.469,1.1,1.3v1.645c0,.579.042.613.537.665V81.4Z" transform="translate(-320.82 -75.336)" fill="#fff"/>
      <path id="Path_874" data-name="Path 874" d="M424.038,77.813a1.351,1.351,0,0,1-.384.435l-.486-.026a1.148,1.148,0,0,1,.256.759,1.383,1.383,0,0,1-1.491,1.363,3.589,3.589,0,0,1-.434-.042.535.535,0,0,0-.256.349c0,.17.153.332.537.332.307,0,.614-.008.895-.008.528,0,1.227.17,1.227,1.006a2.032,2.032,0,0,1-2.131,1.687c-.946,0-1.465-.554-1.474-1.04a.664.664,0,0,1,.2-.477,8.188,8.188,0,0,1,.707-.6,1.134,1.134,0,0,1-.631-.469.64.64,0,0,1-.094-.358,1.834,1.834,0,0,0,.75-.52,1.229,1.229,0,0,1-.75-1.142,1.459,1.459,0,0,1,1.525-1.415,1.7,1.7,0,0,1,.818.213,9.991,9.991,0,0,0,1.159-.119Zm-2.676,3.946a.92.92,0,0,0-.392.665c0,.46.494.81,1.125.81.809,0,1.227-.418,1.227-.946a.618.618,0,0,0-.392-.605,2.181,2.181,0,0,0-.818-.111,1.019,1.019,0,0,0-.75.188m-.145-2.829c0,.665.324,1.142.8,1.142.375-.009.707-.341.707-1.014s-.315-1.15-.8-1.15c-.375,0-.707.358-.707,1.023" transform="translate(-334.273 -75.41)" fill="#fff"/>
      <path id="Path_875" data-name="Path 875" d="M437.214,78.345a.864.864,0,0,1-.358.111c-.537,0-.835-.341-.835-1.014v-2.48h-.588l-.034-.085.23-.247h.392v-.622l.554-.563.12.017v1.167h.963a.242.242,0,0,1-.051.332h-.912v2.19c0,.69.281.818.494.818a1.218,1.218,0,0,0,.528-.145l.077.222Z" transform="translate(-345.489 -72.286)" fill="#fff"/>
      <path id="Path_876" data-name="Path 876" d="M447.954,75.008v-.222c.494-.051.563-.1.563-.656V72.716c0-.7-.264-1.048-.835-1.048a1.2,1.2,0,0,0-.886.435v2.028c0,.546.042.6.545.656v.222h-1.806v-.222c.511-.043.588-.094.588-.656V70.066c0-.537-.017-.579-.58-.63v-.2a9.317,9.317,0,0,0,1.253-.3V71.8a1.864,1.864,0,0,1,1.219-.622c.69,0,1.176.435,1.176,1.457v1.491c0,.563.06.613.562.656v.222Z" transform="translate(-353.016 -68.941)" fill="#fff"/>
    </g>
  </g>
</svg>
