<svg xmlns="http://www.w3.org/2000/svg" width="91.639" height="34.44" viewBox="0 0 91.639 34.44">
  <g id="Group_1050" data-name="Group 1050" transform="translate(-552.509 -1268.721)">
    <g id="Group_967" data-name="Group 967" transform="translate(552.509 1268.721)">
      <path id="Path_836" data-name="Path 836" d="M19.348,4.46q1.929,3.714,1.926,10.508,0,6.112-1.905,9.216a6.229,6.229,0,0,1-5.672,3.1q-3.494,0-5.513-3.7T6.162,13.452Q6.162,7.26,8.149,4A6.359,6.359,0,0,1,13.909.74q3.511,0,5.439,3.72m4.03,19.5a13.454,13.454,0,0,0,4.111-9.922,14.247,14.247,0,0,0-1.483-6.356A13.78,13.78,0,0,0,21.946,2.7a13.355,13.355,0,0,0-3.779-2A12.935,12.935,0,0,0,14,0,14,14,0,0,0,8.938.9a13.251,13.251,0,0,0-4.273,2.67A14.489,14.489,0,0,0,1.233,8.454,14.536,14.536,0,0,0,0,14.307a13.9,13.9,0,0,0,1.043,5.27,13.5,13.5,0,0,0,2.875,4.435,13.676,13.676,0,0,0,4.4,2.952,13.055,13.055,0,0,0,5.126,1.066,13.6,13.6,0,0,0,9.932-4.073" transform="translate(0 0)" fill="#00612b"/>
      <path id="Path_837" data-name="Path 837" d="M19.785,65.558c1.01-.034,1.97-.062,2.874-.078s1.746-.027,2.508-.027q1.2,0,4.3.079c.468.008.825.017,1.072.026v-.449c-.086,0-.217,0-.394-.013-2.1-.086-3.2-.26-3.3-.519a8.822,8.822,0,0,1-.124-1.628q-.043-1.406-.042-4.225V53.438q0-.8.034-2.9c0-.317.006-.553.014-.719L26.8,49.8c.272-.024.475-.035.611-.035a3.361,3.361,0,0,1,2.972,1.485,13.959,13.959,0,0,1,1.566,5.415h.343l-.011-7.325q-1.286.016-2.768.022t-4.342.006q-1.445,0-3.771-.012t-3.21-.016v7.208h.343a14.08,14.08,0,0,1,1.56-5.316,3.25,3.25,0,0,1,2.874-1.444c.173,0,.307,0,.392.007s.171.01.252.018c.007.686.022,1.378.042,2.083s.03,1.079.03,1.126c0,9.628.076-.429-.031,8.473q-.03,2.537-.091,2.913-.106.556-2.354.637c-.591.026-1.059.044-1.409.061Z" transform="translate(-11.47 -31.119)" fill="#593b30"/>
    </g>
    <g id="Group_966" data-name="Group 966" transform="translate(584.854 1270.625)">
      <path id="Path_838" data-name="Path 838" d="M98.336,11.132a5.381,5.381,0,1,1-10.76.126,5.274,5.274,0,0,1,5.538-5.38,5.109,5.109,0,0,1,5.222,5.254m-8.346-.174c0,2.7,1.2,4.986,3.218,4.986,1.5,0,2.714-1.467,2.714-4.37,0-3.14-1.278-5.033-3.092-5.033-1.594,0-2.84,1.688-2.84,4.418" transform="translate(-87.576 -5.278)" fill="#212923"/>
      <path id="Path_839" data-name="Path 839" d="M130.248,23.663a1.407,1.407,0,0,1-.962-.331,1.475,1.475,0,0,1-.41-.584,5.77,5.77,0,0,1-1.641.915,2.058,2.058,0,0,1-2.13-2.019c0-.821.378-1.215,1.2-1.515a12.788,12.788,0,0,0,2.509-1.041v-.474c0-.994-.379-1.546-.962-1.546a.633.633,0,0,0-.521.284,2.846,2.846,0,0,0-.458,1.089.613.613,0,0,1-.662.536c-.41,0-.978-.379-.978-.789,0-.284.189-.489.552-.757a7.778,7.778,0,0,1,2.619-1.12,2.436,2.436,0,0,1,1.546.457,2.327,2.327,0,0,1,.82,2.083v2.6c0,.726.252.931.5.931a1.567,1.567,0,0,0,.536-.126l.158.5Zm-1.436-3.96c-.284.142-.552.316-.868.489a1.111,1.111,0,0,0-.741,1.073c0,.884.584,1.215.946,1.215a1.064,1.064,0,0,0,.663-.252Z" transform="translate(-113.129 -12.382)" fill="#212923"/>
      <path id="Path_840" data-name="Path 840" d="M152.893,15.122c-.458-.584-1.357-2-2.051-3.124-.142-.221-.236-.3-.347-.3a.418.418,0,0,0-.11.016v1.672c0,1.026.11,1.073,1.026,1.2v.5h-4.055v-.5c.946-.126,1.041-.158,1.041-1.2V6.1c0-.883-.11-.978-.947-1.088V4.567A21.771,21.771,0,0,0,150.384,4v7.242a1.857,1.857,0,0,0,.9-.6,7.673,7.673,0,0,0,.915-1.372c.189-.332.126-.537-.473-.631V8.165l3.408-.142V8.5a3.329,3.329,0,0,0-1.972.82,9.569,9.569,0,0,0-1.1,1.294c.41.694,1.8,2.556,2.288,3.171a1.931,1.931,0,0,0,1.325.8v.5Z" transform="translate(-128.279 -3.999)" fill="#212923"/>
      <path id="Path_841" data-name="Path 841" d="M193.1,8.475A3.427,3.427,0,0,0,192.4,6.85c-.268-.284-.678-.378-1.593-.378h-.726v7.463c0,1.341.158,1.436,1.546,1.546v.552h-5.144v-.552c1.325-.11,1.483-.205,1.483-1.546V6.472h-.537c-1.294,0-1.578.173-1.814.426a3.96,3.96,0,0,0-.663,1.593h-.568c.063-1.152.158-2.3.189-3.108h.379c.252.363.458.394.9.394H192.2a1.042,1.042,0,0,0,.915-.394h.379c.016.663.095,2.051.174,3.061Z" transform="translate(-153.495 -4.941)" fill="#212923"/>
      <path id="Path_842" data-name="Path 842" d="M215.286,17.933c.568-.978,1.183-1.657,1.767-1.657a.994.994,0,0,1,1.057.978,1.229,1.229,0,0,1-.773,1.167.463.463,0,0,1-.489-.063,1.087,1.087,0,0,0-.726-.331c-.3,0-.616.2-.884.82v2.935c0,.978.095,1.042,1.31,1.152v.5h-4.323v-.5c.852-.095,1.01-.174,1.01-1.152v-3.44c0-.8-.126-.868-.852-1.041v-.442a17.422,17.422,0,0,0,2.856-.6v1.672Z" transform="translate(-172.449 -12.348)" fill="#212923"/>
      <path id="Path_843" data-name="Path 843" d="M238.01,21.911a3.546,3.546,0,0,1-2.84,1.751,3.174,3.174,0,0,1-3.266-3.376,4,4,0,0,1,1.168-2.856,3.521,3.521,0,0,1,2.43-1.12,2.582,2.582,0,0,1,2.556,2.54c0,.316-.094.52-.458.568-.284.032-2.209.189-3.755.252.079,1.688,1.01,2.54,2.13,2.54a2.615,2.615,0,0,0,1.751-.678Zm-4.086-2.982,1.878-.047c.236-.016.316-.048.331-.316,0-.8-.347-1.625-.962-1.625-.6,0-1.152.726-1.246,1.988" transform="translate(-185.849 -12.381)" fill="#212923"/>
      <path id="Path_844" data-name="Path 844" d="M260.211,21.911a3.546,3.546,0,0,1-2.84,1.751,3.174,3.174,0,0,1-3.266-3.376,4,4,0,0,1,1.168-2.856,3.521,3.521,0,0,1,2.43-1.12,2.582,2.582,0,0,1,2.556,2.54c0,.316-.094.52-.458.568-.284.032-2.209.189-3.755.252.079,1.688,1.01,2.54,2.13,2.54a2.615,2.615,0,0,0,1.751-.678Zm-4.086-2.982L258,18.882c.236-.016.316-.048.331-.316,0-.8-.347-1.625-.962-1.625-.6,0-1.152.726-1.246,1.988" transform="translate(-200.965 -12.381)" fill="#212923"/>
      <path id="Path_845" data-name="Path 845" d="M294.463,16.875v-.552c1.183-.126,1.278-.236,1.262-1.688l-.032-6.074h-.079l-3.487,8.2h-.442l-3.219-8.046H288.4l-.19,4.118a16.124,16.124,0,0,0,0,2.54c.063.71.379.852,1.42.946v.552h-3.787v-.552c.884-.079,1.184-.363,1.278-.915a24.759,24.759,0,0,0,.331-2.982l.252-3.108c.126-1.8.016-2.019-1.341-2.146V6.619h3.266l3.045,6.911,3.092-6.911h3.171v.552c-1.262.126-1.325.252-1.294,1.562l.142,5.9c.032,1.452.111,1.562,1.341,1.688v.552Z" transform="translate(-285.848 9.905)" fill="#212923"/>
      <path id="Path_846" data-name="Path 846" d="M336.81,19.861a3.571,3.571,0,0,1-3.66,3.8,3.473,3.473,0,0,1-3.692-3.518,3.723,3.723,0,0,1,3.755-3.834,3.478,3.478,0,0,1,3.6,3.55m-5.1-.284c0,1.941.615,3.471,1.609,3.471.6,0,1.23-.395,1.23-2.714,0-2.193-.552-3.408-1.546-3.408-.662,0-1.294.836-1.294,2.651" transform="translate(-315.542 3.306)" fill="#212923"/>
      <path id="Path_847" data-name="Path 847" d="M357.5,8.227a2.3,2.3,0,0,1,1.01-.3,3.275,3.275,0,0,1,3.266,3.329,3.989,3.989,0,0,1-4.1,4.023,7.446,7.446,0,0,1-2.777-.568V6.161c0-.915-.079-1.041-.962-1.12V4.567A22.4,22.4,0,0,0,356.915,4V8.511Zm-.584,5.159a1.509,1.509,0,0,0,.079.521,1.194,1.194,0,0,0,.962.742c.852.016,1.625-.931,1.625-2.9,0-2-1.01-2.793-2.02-2.793a2.234,2.234,0,0,0-.647.11Z" transform="translate(-332.208 11.689)" fill="#212923"/>
      <path id="Path_848" data-name="Path 848" d="M380.979,16.64v-.5c.916-.11,1.01-.174,1.01-1.294V11.717c0-1.041-.11-1.088-.868-1.215v-.458a18.859,18.859,0,0,0,2.872-.568v5.364c0,1.089.079,1.168,1.026,1.294v.5Zm.773-9.261a1.111,1.111,0,0,1,1.12-1.1,1.091,1.091,0,0,1,1.12,1.1,1.115,1.115,0,0,1-1.136,1.1,1.129,1.129,0,0,1-1.1-1.1" transform="translate(-350.623 10.14)" fill="#212923"/>
      <path id="Path_849" data-name="Path 849" d="M395.121,15.091v-.5c.931-.142,1.026-.221,1.026-1.231V6.129c0-.947-.079-.994-.947-1.1V4.567A21.154,21.154,0,0,0,398.15,4v9.356c0,1.057.095,1.12,1.057,1.231v.5Z" transform="translate(-360.253 11.689)" fill="#212923"/>
      <path id="Path_850" data-name="Path 850" d="M409.806,16.64v-.5c.915-.11,1.01-.174,1.01-1.294V11.717c0-1.041-.11-1.088-.868-1.215v-.458a18.875,18.875,0,0,0,2.872-.568v5.364c0,1.089.079,1.168,1.026,1.294v.5Zm.773-9.261a1.111,1.111,0,0,1,1.12-1.1,1.092,1.092,0,0,1,1.12,1.1,1.115,1.115,0,0,1-1.136,1.1,1.129,1.129,0,0,1-1.1-1.1" transform="translate(-370.251 10.14)" fill="#212923"/>
      <path id="Path_851" data-name="Path 851" d="M427.2,18.81a2.321,2.321,0,0,1-.647.174c-1.215,0-1.925-.568-1.925-1.988V12.578h-.994l-.079-.19.442-.568h.631V10.668l1.783-1.23.221.094V11.82h1.546a.521.521,0,0,1-.095.758h-1.452v3.9c0,1.231.568,1.373.9,1.373a1.808,1.808,0,0,0,.789-.19l.158.552Z" transform="translate(-379.611 7.985)" fill="#212923"/>
      <path id="Path_852" data-name="Path 852" d="M446.709,17.409c-.757.126-.915.284-1.31,1.136-.394.836-.915,2.146-1.83,4.339-1.057,2.556-1.372,3.534-1.656,4.418a.534.534,0,0,1-.584.426,1.173,1.173,0,0,1-1.1-.994c0-.252.111-.41.426-.615A2.956,2.956,0,0,0,441.944,25a5.212,5.212,0,0,0,.3-.647,1.1,1.1,0,0,0-.063-.741c-.821-2.288-1.688-4.528-1.988-5.222a1.248,1.248,0,0,0-1.215-.978v-.5h3.913v.5c-.678.126-.8.221-.631.726l1.183,3.5c.363-.884.9-2.461,1.183-3.361.174-.52.016-.726-.757-.868v-.5h2.84Z" transform="translate(-390.114 2.902)" fill="#212923"/>
    </g>
  </g>
</svg>
