<svg xmlns="http://www.w3.org/2000/svg" width="45.431" height="58.065" viewBox="0 0 45.431 58.065">
  <g id="Group_306" data-name="Group 306" transform="translate(-730.001 -1637)">
    <path id="Path_279" data-name="Path 279" d="M24.083,15.642c-6.874,0-9.492-9.623-9.492-21.276,0-9.623,2.226-19.7,8.838-19.7,6.874,0,9.492,9.623,9.492,21.275C32.921,5.561,30.695,15.642,24.083,15.642Zm-.916,3.142c13.551,0,23.3-9.492,23.3-24.549,0-12.176-7.594-22.716-22.127-22.716-13.485,0-23.3,9.492-23.3,24.549C1.04,8.245,8.634,18.784,23.167,18.784Z" transform="translate(728.961 1665.48)" fill="#fff"/>
    <path id="Path_280" data-name="Path 280" d="M1.147-20.358.435-8.445H2.381c3.465-7.451,4.746-9.967,7.926-9.967h1.566V7.976c0,2.468-.807,2.658-3.892,2.99v1.993H25.067V10.966c-3.085-.332-3.892-.522-3.892-2.99V-18.412h1.566c3.18,0,4.461,2.515,7.926,9.967h1.946L31.9-20.358Z" transform="translate(736.758 1682.106)" fill="#4e9195"/>
  </g>
</svg>
