<svg xmlns="http://www.w3.org/2000/svg" width="152.888" height="35.48" viewBox="0 0 152.888 35.48">
  <g id="Group_286" data-name="Group 286" transform="translate(-91.04 -22.52)">
    <path id="Path_265" data-name="Path 265" d="M9.072-.912c-2.52,0-3.48-3.528-3.48-7.8,0-3.528.816-7.224,3.24-7.224,2.52,0,3.48,3.528,3.48,7.8C12.312-4.608,11.5-.912,9.072-.912ZM8.736.24c4.968,0,8.544-3.48,8.544-9,0-4.464-2.784-8.328-8.112-8.328-4.944,0-8.544,3.48-8.544,9C.624-3.624,3.408.24,8.736.24Zm16.1-2.376c-1.2,0-1.656-.912-1.656-2.136a1.913,1.913,0,0,1,1.392-2.136l1.32-.5v4.44A2.024,2.024,0,0,1,24.84-2.136ZM30.264-9c0-3.12-2.016-4.176-5.376-4.176-2.9,0-5.16,1.008-5.16,3.192A1.683,1.683,0,0,0,20.9-8.3l2.664-.36a8.267,8.267,0,0,1-.216-1.68c0-1.128.36-1.9,1.3-1.9S25.9-11.5,25.9-10.392v2.448L22.08-6.6c-1.7.6-3.168,1.464-3.168,3.552A3.1,3.1,0,0,0,22.344.168a4.266,4.266,0,0,0,3.624-1.944A2.686,2.686,0,0,0,28.728.24a4.314,4.314,0,0,0,3.168-1.3L31.728-1.7a2.262,2.262,0,0,1-.816.144c-.576,0-.648-.5-.648-1.08Zm8.544,2.208L43.128,0h4.608V-.648L42.5-8.52l2.76-2.592A3.045,3.045,0,0,1,47.256-12v-.936H41.808V-12c1.128.12,1.464.264,1.464.72,0,.312-.168.6-.792,1.152ZM34.2-1.872c0,.768-.384.864-1.344.936V0h7.128V-.936c-.96-.072-1.344-.168-1.344-.936v-16.92H37.9l-5.016,1.1v.72l1.32.672ZM53.808-16.848l-.36,6.024h.984c1.752-3.768,2.4-5.04,4.008-5.04h.792V-2.52c0,1.248-.408,1.344-1.968,1.512V0H65.9V-1.008c-1.56-.168-1.968-.264-1.968-1.512V-15.864h.792c1.608,0,2.256,1.272,4.008,5.04h.984l-.36-6.024Zm23.16,8.28a6.349,6.349,0,0,1,3.96-.864H81.5v-3.336a1.67,1.67,0,0,0-1.2-.408c-1.512,0-2.352.888-3.336,3.7l.1-3.7h-.816l-5.016,1.392v.672l1.32.816v8.424c0,.768-.384.864-1.344.936V0h7.68V-.936c-1.368-.168-1.92-.264-1.92-1.3Zm12.144-4.608c-3.456,0-6.408,2.736-6.408,7.008C82.7-2.136,85.392.24,88.944.24a5.342,5.342,0,0,0,5.52-4.392l-.456-.288a4.163,4.163,0,0,1-3.576,1.752c-2.184,0-3.768-1.776-3.72-4.632h7.656v-.6C94.368-10.968,92.592-13.176,89.112-13.176Zm-.288,1.008c1.3,0,1.752,1.416,1.752,3.744h-3.84C86.856-10.656,87.5-12.168,88.824-12.168Zm13.752-1.008c-3.456,0-6.408,2.736-6.408,7.008,0,4.032,2.688,6.408,6.24,6.408a5.342,5.342,0,0,0,5.52-4.392l-.456-.288A4.163,4.163,0,0,1,103.9-2.688c-2.184,0-3.768-1.776-3.72-4.632h7.656v-.6C107.832-10.968,106.056-13.176,102.576-13.176Zm-.288,1.008c1.3,0,1.752,1.416,1.752,3.744H100.2C100.32-10.656,100.968-12.168,102.288-12.168Z" transform="translate(136 49)" fill="#17494d"/>
    <path id="Path_266" data-name="Path 266" d="M15.12-1.52c-4.2,0-5.8-5.88-5.8-13,0-5.88,1.36-12.04,5.4-12.04,4.2,0,5.8,5.88,5.8,13C20.52-7.68,19.16-1.52,15.12-1.52ZM14.56.4c8.28,0,14.24-5.8,14.24-15,0-7.44-4.64-13.88-13.52-13.88-8.24,0-14.24,5.8-14.24,15C1.04-6.04,5.68.4,14.56.4Z" transform="translate(90 51)" fill="#17494d"/>
    <path id="Path_267" data-name="Path 267" d="M.87-20.358.435-13.079H1.624c2.117-4.553,2.9-6.09,4.843-6.09h.957V-3.045c0,1.508-.493,1.624-2.378,1.827V0h10.44V-1.218c-1.885-.2-2.378-.319-2.378-1.827V-19.169h.957c1.943,0,2.726,1.537,4.843,6.09H20.1l-.435-7.279Z" transform="translate(95 58)" fill="#4e9195"/>
  </g>
</svg>
