<svg xmlns="http://www.w3.org/2000/svg" width="27.722" height="34.73" viewBox="0 0 27.722 34.73">
  <g id="Group_2737" data-name="Group 2737" transform="translate(12167 6558.198)">
    <path id="Path_6122" data-name="Path 6122" d="M19.511,4.5q1.945,3.745,1.942,10.6,0,6.163-1.922,9.294a6.281,6.281,0,0,1-5.72,3.13q-3.524,0-5.559-3.727T6.214,13.566q0-6.245,2-9.529A6.413,6.413,0,0,1,14.026.746q3.541,0,5.485,3.751m4.064,19.661a13.568,13.568,0,0,0,4.146-10.005,14.367,14.367,0,0,0-1.5-6.41,13.9,13.9,0,0,0-4.1-5.023A13.468,13.468,0,0,0,18.32.7a13.044,13.044,0,0,0-4.2-.7A14.123,14.123,0,0,0,9.014.91,13.363,13.363,0,0,0,4.7,3.6,14.611,14.611,0,0,0,1.243,8.526,14.659,14.659,0,0,0,0,14.428a14.014,14.014,0,0,0,1.052,5.315,13.613,13.613,0,0,0,2.9,4.472A13.791,13.791,0,0,0,8.39,27.192a13.165,13.165,0,0,0,5.17,1.075,13.715,13.715,0,0,0,10.016-4.108" transform="translate(-12167 -6558.198)" fill="#40604a"/>
    <path id="Path_6123" data-name="Path 6123" d="M19.8,65.7c1.018-.035,1.987-.062,2.9-.079s1.761-.028,2.529-.028q1.206,0,4.334.08c.472.008.832.017,1.081.026v-.453c-.087,0-.219,0-.4-.013-2.118-.086-3.228-.262-3.323-.523a8.9,8.9,0,0,1-.126-1.642q-.044-1.418-.042-4.261v-5.33q0-.812.034-2.928c0-.319.006-.558.014-.726l.07-.013c.274-.024.479-.035.616-.035a3.39,3.39,0,0,1,3,1.5,14.076,14.076,0,0,1,1.58,5.46h.346L32.4,49.343q-1.3.016-2.792.022t-4.379.006q-1.457,0-3.8-.012t-3.237-.016v7.269h.346a14.2,14.2,0,0,1,1.573-5.361,3.277,3.277,0,0,1,2.9-1.456c.175,0,.309,0,.4.007s.173.01.254.018c.007.692.022,1.39.042,2.1s.031,1.088.031,1.135c0,9.71.077-.432-.031,8.544q-.03,2.559-.092,2.938-.107.561-2.374.643c-.6.026-1.067.044-1.421.061Z" transform="translate(-12178.413 -6589.163)" fill="#5c2a06"/>
  </g>
</svg>
