<svg xmlns="http://www.w3.org/2000/svg" width="19" height="19" viewBox="0 0 19 19">
  <g id="Group_1086" data-name="Group 1086" transform="translate(-23750 -11158)">
    <path id="Path_939" data-name="Path 939" d="M0,0H19V19H0Z" transform="translate(23750 11158)" fill="#eaf5ef"/>
    <g id="Group_1083" data-name="Group 1083" transform="translate(23751.1 11159.986)">
      <path id="Path_781" data-name="Path 781" d="M14.644,0A6.852,6.852,0,1,0,21.5,6.852,6.852,6.852,0,0,0,14.644,0" transform="translate(-5.85 0)" fill="#add5be"/>
      <g id="Group_492" data-name="Group 492" transform="translate(0 2.868)">
        <path id="Path_782" data-name="Path 782" d="M6.967,30.018a17.614,17.614,0,0,1-1.864-.1A16.225,16.225,0,0,1,2.762,29.5a2.932,2.932,0,0,1-.57.345A1.285,1.285,0,0,1,.737,29.74,1.229,1.229,0,0,1,.5,28.277a3.311,3.311,0,0,1,.35-.663,19.491,19.491,0,0,1-.091-5.257A2.118,2.118,0,0,1,.011,21.2a1.025,1.025,0,0,1,.2-.777,1.238,1.238,0,0,1,1.416-.392,3.083,3.083,0,0,1,.68.267,10.4,10.4,0,0,1,2.489-.26.275.275,0,0,1-.052.548,10.579,10.579,0,0,0-2.434.271.276.276,0,0,1-.2-.036c-.01-.006-1.048-.629-1.463-.071a.467.467,0,0,0-.1.367,1.751,1.751,0,0,0,.655.9.276.276,0,0,1,.108.262,19.1,19.1,0,0,0,.087,5.352.276.276,0,0,1-.053.215c-.007.01-.77,1.04-.26,1.472C1.622,29.77,2.507,29,2.515,29a.275.275,0,0,1,.262-.059,15.111,15.111,0,0,0,2.4.435,15.129,15.129,0,0,0,5.3-.327.275.275,0,1,1,.139.533,14.519,14.519,0,0,1-3.642.441" transform="translate(0.001 -17.86)" fill="#177b43"/>
        <path id="Path_783" data-name="Path 783" d="M47.654,47.893a2.63,2.63,0,0,1-.747-.113.275.275,0,0,1,.172-.523c.01,0,.964.3,1.312-.239.271-.423-.431-1.1-.7-1.307a.274.274,0,0,1-.107-.194l-.074-.807a.275.275,0,0,1,.548-.05l.064.693a3.591,3.591,0,0,1,.513.535c.509.666.4,1.144.218,1.427a1.347,1.347,0,0,1-1.2.579" transform="translate(-35.072 -36.207)" fill="#177b43"/>
        <path id="Path_784" data-name="Path 784" d="M24.862,20.677a.276.276,0,0,1-.265-.35l.4-1.411H23.783a1.157,1.157,0,0,1-1.156-1.156v-5.1a1.158,1.158,0,0,1,1.156-1.156h1.175a.275.275,0,1,1,0,.551H23.783a.607.607,0,0,0-.606.606v5.1a.606.606,0,0,0,.606.606h1.575a.274.274,0,0,1,.22.109.277.277,0,0,1,.046.241l-.309,1.1L27.673,18.4a.273.273,0,0,1,.141-.039h4.721a.606.606,0,0,0,.606-.606v-5.1a.607.607,0,0,0-.606-.606H26.866a.275.275,0,1,1,0-.551h5.668a1.157,1.157,0,0,1,1.156,1.156v5.1a1.157,1.157,0,0,1-1.156,1.156H27.889L25,20.638a.274.274,0,0,1-.141.039" transform="translate(-16.987 -11.506)" fill="#177b43"/>
        <path id="Path_785" data-name="Path 785" d="M26.843,28.322a.282.282,0,0,1-.229-.119c-.087-.123-.056-.261,0-.477.033-.121.083-.284.147-.484.026-.081.053-.162.078-.238l-.363.059a.275.275,0,0,1-.088-.544l.815-.132a.276.276,0,0,1,.3.363c-.112.32-.231.681-.311.943.2-.045.441-.1.669-.156a.275.275,0,1,1,.128.536,8.565,8.565,0,0,1-1.154.25" transform="translate(-19.639 -22.675)" fill="#177b43"/>
        <path id="Path_786" data-name="Path 786" d="M34.009,23.416a.275.275,0,0,1-.272-.32L34.06,21.1H32.974a.275.275,0,0,1,0-.551h1.409a.274.274,0,0,1,.272.319l-.316,1.952,1.025-.122a.275.275,0,0,1,.065.547l-1.387.166Z" transform="translate(-24.548 -18.298)" fill="#177b43"/>
        <path id="Path_787" data-name="Path 787" d="M44.738,20.761a.276.276,0,0,1-.254-.382l1.41-3.34h-1.9a.275.275,0,0,1,0-.551h2.32a.275.275,0,0,1,.254.382l-1.37,3.247,2.386-.463a.275.275,0,0,1,.1.54l-2.893.562Z" transform="translate(-32.817 -15.246)" fill="#177b43"/>
        <path id="Path_788" data-name="Path 788" d="M9.585,33.036a.275.275,0,0,1-.27-.222,12.9,12.9,0,0,1,0-4.259.275.275,0,1,1,.542.1,12.563,12.563,0,0,0,0,4.052.276.276,0,0,1-.216.324Z" transform="translate(-6.856 -24.136)" fill="#177b43"/>
      </g>
    </g>
  </g>
</svg>
