<svg xmlns="http://www.w3.org/2000/svg" width="19" height="19" viewBox="0 0 19 19">
  <g id="Group_1084" data-name="Group 1084" transform="translate(-665.809 -891.586)">
    <path id="Path_938" data-name="Path 938" d="M0,0H19V19H0Z" transform="translate(665.808 891.586)" fill="#eaf5ef"/>
    <g id="Group_491" data-name="Group 491" transform="translate(667.954 893.326)">
      <path id="Path_730" data-name="Path 730" d="M15.483,6.532a6.585,6.585,0,1,0,6.585,6.585,6.585,6.585,0,0,0-6.585-6.585" transform="translate(-7.174 -5.543)" fill="#add5be"/>
      <g id="Group_490" data-name="Group 490" transform="translate(0 0)">
        <path id="Path_731" data-name="Path 731" d="M7.984,46.161a.351.351,0,0,1-.351-.351V44.657a3.1,3.1,0,0,1,.853-2.148l.1-.13A6.042,6.042,0,0,0,9.5,40.994a1.143,1.143,0,0,0-.144-1.315c-.571-.628-1.232-.4-2.174.009A3.169,3.169,0,0,1,6,40.045a3.169,3.169,0,0,1-1.176-.356c-.943-.413-1.6-.637-2.174-.009a1.142,1.142,0,0,0-.143,1.315,6.034,6.034,0,0,0,.907,1.385l.1.13a3.1,3.1,0,0,1,.853,2.148v1.153a.351.351,0,1,1-.7,0V44.657a2.414,2.414,0,0,0-.7-1.712l-.1-.127A6.589,6.589,0,0,1,1.86,41.259a1.825,1.825,0,0,1,.275-2.051A1.785,1.785,0,0,1,3.7,38.6a4.763,4.763,0,0,1,1.409.448,2.846,2.846,0,0,0,.894.3,2.83,2.83,0,0,0,.894-.3A4.769,4.769,0,0,1,8.307,38.6a1.786,1.786,0,0,1,1.567.61,1.825,1.825,0,0,1,.274,2.051,6.575,6.575,0,0,1-1.01,1.559l-.1.127a2.415,2.415,0,0,0-.7,1.712v1.153a.351.351,0,0,1-.351.351" transform="translate(-1.673 -29.951)" fill="#177b43"/>
        <path id="Path_732" data-name="Path 732" d="M8.514,9.961a2.057,2.057,0,0,1-.208-.01A4.791,4.791,0,0,1,6.9,9.5,2.826,2.826,0,0,0,6,9.205a2.837,2.837,0,0,0-.894.3A4.779,4.779,0,0,1,3.7,9.95a1.786,1.786,0,0,1-1.566-.609A1.825,1.825,0,0,1,1.86,7.29,6.583,6.583,0,0,1,2.87,5.73l.1-.127a.351.351,0,1,1,.55.436l-.1.13A6.011,6.011,0,0,0,2.51,7.554a1.142,1.142,0,0,0,.144,1.315c.571.628,1.232.4,2.174-.009A3.173,3.173,0,0,1,6,8.5,3.174,3.174,0,0,1,7.18,8.86c.943.413,1.6.637,2.174.009A1.142,1.142,0,0,0,9.5,7.554,6.025,6.025,0,0,0,8.59,6.169l-.1-.13a3.1,3.1,0,0,1-.853-2.148V2.738a.351.351,0,1,1,.7,0V3.891a2.416,2.416,0,0,0,.7,1.712l.1.127A6.568,6.568,0,0,1,10.147,7.29a1.827,1.827,0,0,1-.274,2.051,1.778,1.778,0,0,1-1.359.62" transform="translate(-1.673 -2.387)" fill="#177b43"/>
      </g>
    </g>
  </g>
</svg>
