<svg xmlns="http://www.w3.org/2000/svg" width="44" height="44" viewBox="0 0 44 44">
  <g id="Group_2126" data-name="Group 2126" transform="translate(-870 -2432)">
    <rect id="Rectangle_3330" data-name="Rectangle 3330" width="44" height="44" transform="translate(870 2432)" fill="none"/>
    <path id="Path_5198" data-name="Path 5198" d="M28.949,6.247,27.762,7.434,26.575,6.247h-.018L25.37,7.434,24.184,6.247h-.018L22.979,7.434,21.792,6.247h-.018L20.587,7.434,19.4,6.247h-.018L18.2,7.434,17.009,6.247h-.018L15.8,7.434,14.617,6.247H14.6L13.412,7.434,12.226,6.247h-.018L11.021,7.434,9.834,6.247H9.816L8.629,7.434,7.442,6.247H7.424L6.248,7.423v.021L7.433,8.629,6.248,9.815v.021l1.186,1.186L6.248,12.206v.021l1.186,1.186L6.248,14.6v.021L7.433,15.8,6.248,16.99v.021L7.433,18.2,6.248,19.381V19.4l1.186,1.185L6.248,21.773v.021l1.186,1.186L6.248,24.165v.021l1.186,1.186L6.248,26.556v.021l1.186,1.185L6.248,28.948v.021l1.183,1.183h0l1.194-1.194,1.193,1.194h0l1.193-1.194,1.193,1.194h0l1.193-1.194,1.193,1.194h0L15.8,28.958,17,30.152h0L18.2,28.958l1.193,1.194h0l1.194-1.194,1.193,1.194h0l1.193-1.194,1.193,1.194h0l1.193-1.194,1.193,1.194h0l1.193-1.194,1.194,1.194h0l1.192-1.192v0l-1.195-1.195,1.195-1.195v0l-1.195-1.195,1.195-1.195v0l-1.195-1.195,1.195-1.195v0l-1.195-1.195,1.195-1.195v0L28.958,18.2,30.153,17v0L28.958,15.8l1.195-1.195v0l-1.195-1.195,1.195-1.195v0l-1.195-1.195,1.195-1.195v0L28.958,8.629l1.195-1.195v0L28.967,6.247Z" transform="translate(873.753 2435.753)" fill="#dbdbdb"/>
  </g>
</svg>
