<svg xmlns="http://www.w3.org/2000/svg" width="44" height="44" viewBox="0 0 44 44">
  <g id="Group_2128" data-name="Group 2128" transform="translate(-811 -2432)">
    <rect id="Rectangle_3328" data-name="Rectangle 3328" width="44" height="44" transform="translate(811 2432)" fill="none"/>
    <rect id="Rectangle_3329" data-name="Rectangle 3329" width="44" height="44" transform="translate(811 2432)" fill="none"/>
    <g id="Group_2123" data-name="Group 2123" transform="translate(-20.64 1769.664)">
      <rect id="Rectangle_3277" data-name="Rectangle 3277" width="6.793" height="6.369" transform="translate(859.241 688.798)" fill="#0ec387"/>
      <path id="Subtraction_19" data-name="Subtraction 19" d="M18.557,18.311H0v-.265a.974.974,0,0,1,1.506-.822,2.7,2.7,0,1,0,0-4.545.971.971,0,0,1-.529.159A.991.991,0,0,1,.3,12.563a.967.967,0,0,1-.3-.7V5.673H6.184a.977.977,0,0,0,.822-1.508A2.673,2.673,0,0,1,6.576,2.7a2.7,2.7,0,0,1,5.4,0,2.673,2.673,0,0,1-.43,1.463.976.976,0,0,0,.822,1.508h6.184v6.185a.975.975,0,0,1-1.508.82,2.7,2.7,0,1,0,0,4.545.975.975,0,0,1,1.508.822v.264Z" transform="translate(847.467 670.938)" fill="#0ec387" stroke="rgba(0,0,0,0)" stroke-miterlimit="10" stroke-width="1"/>
      <path id="Subtraction_17" data-name="Subtraction 17" d="M8.4,12.34H0V0H8.4V2.491a.972.972,0,0,1-1.507.819,2.7,2.7,0,1,0,0,4.548A.975.975,0,0,1,8.4,8.679v3.66Z" transform="translate(859.808 686.769) rotate(90)" fill="#0ec387" stroke="rgba(0,0,0,0)" stroke-miterlimit="10" stroke-width="1"/>
      <path id="Subtraction_18" data-name="Subtraction 18" d="M11.858,18.556H5.675V12.373a.974.974,0,0,0-1.507-.821,2.7,2.7,0,1,1,0-4.546.974.974,0,0,0,1.507-.821V0h6.184a.966.966,0,0,1,.861.51.966.966,0,0,1-.039,1,2.7,2.7,0,0,0,2.272,4.166h.032v7.212h-.032a2.706,2.706,0,0,0-2.7,2.7,2.675,2.675,0,0,0,.431,1.462.975.975,0,0,1-.822,1.507Z" transform="translate(839.245 676.611)" fill="#0ec387" stroke="rgba(0,0,0,0)" stroke-miterlimit="10" stroke-width="1"/>
    </g>
  </g>
</svg>
