<svg xmlns="http://www.w3.org/2000/svg" width="99" height="81" viewBox="0 0 99 81">
  <g id="Group_1118" data-name="Group 1118" transform="translate(-24323 -16045)">
    <rect id="Rectangle_2446" data-name="Rectangle 2446" width="99" height="81" transform="translate(24323 16045)" fill="#fff"/>
    <g id="Group_1114" data-name="Group 1114" transform="translate(24345 16062)">
      <path id="Path_36" data-name="Path 36" d="M875.135,352.345a17.081,17.081,0,0,1-.2,1.808,23.21,23.21,0,0,1-1.551,5.321q-.393.942-.886,1.912c-.294.592-.624,1.2-.981,1.808a43.69,43.69,0,0,1-3.788,5.452q-.726.9-1.537,1.817c-.674.769-1.392,1.551-2.156,2.337-.538.556-1.1,1.112-1.682,1.677a97.029,97.029,0,0,1-9.281,7.825q-.881.665-1.808,1.334-1.736,1.248-3.617,2.523-1.885-1.275-3.617-2.523-.929-.671-1.808-1.334a97.457,97.457,0,0,1-9.091-7.645q-.9-.855-1.713-1.7c-.768-.787-1.492-1.56-2.161-2.328-.538-.6-1.04-1.194-1.519-1.777a43.684,43.684,0,0,1-3.96-5.664c-.362-.61-.687-1.216-.981-1.808-.33-.646-.624-1.284-.886-1.912a23.212,23.212,0,0,1-1.551-5.321,17.114,17.114,0,0,1-.2-1.808,14.909,14.909,0,0,1,1.813-8.291,14.04,14.04,0,0,1,1.315-1.953,14.8,14.8,0,0,1,2.251-2.26,16.217,16.217,0,0,1,2.062-1.424,16.694,16.694,0,0,1,14.62-1.085,14.187,14.187,0,0,1,5.425,4.046,14.036,14.036,0,0,1,3.617-3.124,14.178,14.178,0,0,1,1.808-.922,16.633,16.633,0,0,1,14.028.764,15.984,15.984,0,0,1,2.1,1.315,15.16,15.16,0,0,1,2.369,2.17A14.584,14.584,0,0,1,873,343.5,14.827,14.827,0,0,1,875.135,352.345Z" transform="translate(-819.949 -336.129)" fill="#16357b"/>
      <path id="Path_39" data-name="Path 39" d="M882.217,345.887,870.9,354.729l-2.31,1.808-5.339,4.173-.958.75-.981.764-.827.647-1.148.9-.606.47-1.709,1.338-.208.163-3.563,2.785-1.808,1.415-9.091,7.1q-.895-.854-1.713-1.7c-.768-.787-1.492-1.56-2.161-2.328-.538-.6-1.04-1.193-1.519-1.777l7.251-5.665,2.315-1.808,3.766-2.943,1.153-.9.764-.6,1.044-.814,1.537-1.2.99-.773.945-.741,1.365-1.067,2.4-1.872,1.808-1.415,14.028-10.963a15.993,15.993,0,0,1,2.1,1.315,15.166,15.166,0,0,1,2.369,2.17A14.587,14.587,0,0,1,882.217,345.887Z" transform="translate(-829.17 -338.513)" fill="#fff"/>
      <path id="Path_39_-_Outline" data-name="Path 39 - Outline" d="M875.875,339.887l.115.06a16.255,16.255,0,0,1,2.124,1.332,15.4,15.4,0,0,1,2.4,2.2,14.838,14.838,0,0,1,1.448,1.948l.1.154L870.6,354.534l-2.31,1.808-5.339,4.173-.958.75-.981.764-.827.646-1.148.9-.607.471-1.916,1.5-3.562,2.785-1.808,1.415-9.228,7.209-.126-.12c-.573-.547-1.151-1.119-1.718-1.7-.831-.85-1.54-1.614-2.167-2.335-.464-.515-.934-1.065-1.524-1.782l-.131-.159,13.494-10.543,1.153-.9.764-.6L852.7,358l1.537-1.2.99-.773.944-.741,3.762-2.939,1.808-1.415Zm5.649,5.6a14.449,14.449,0,0,0-1.312-1.742,14.987,14.987,0,0,0-2.338-2.141,15.859,15.859,0,0,0-1.956-1.238l-13.925,10.882-1.808,1.415-3.761,2.939-.944.741-.99.773-1.537,1.2-1.044.814-.764.6-1.153.9-6.081,4.752-7.089,5.537c.526.637.956,1.139,1.382,1.61l0,0c.623.716,1.327,1.474,2.153,2.32.523.536,1.055,1.063,1.583,1.57l8.954-6.995,1.808-1.415,3.77-2.948,1.709-1.338.606-.471,1.148-.9.827-.647.981-.764.958-.75,5.339-4.173,2.31-1.808Z" transform="translate(-828.744 -338.159)" fill="rgba(0,0,0,0)"/>
      <path id="Path_37" data-name="Path 37" d="M869.965,371.42q-.726.9-1.537,1.817c-.674.769-1.392,1.551-2.156,2.337-.538.556-1.1,1.112-1.682,1.677l-9.281-6.994-1.808-1.365-3.671-2.762-.212-.163-1.768-1.329-.633-.479-.949-.714-1.035-.778-.773-.583-1.153-.868-5.692-4.29-2.4-1.808-11-8.291a14.056,14.056,0,0,1,1.315-1.953,14.792,14.792,0,0,1,2.251-2.26,16.238,16.238,0,0,1,2.062-1.424l14.62,11.017,1.808,1.361,2.057,1.551,1.415,1.067.985.741.945.71,1.831,1.379.787.592,1.022.773.958.719,4.06,3.061,2.4,1.808Z" transform="translate(-822.184 -338.902)" fill="#fff"/>
      <path id="Path_37_-_Outline" data-name="Path 37 - Outline" d="M864.219,377.159l-9.419-7.1-1.808-1.365-3.671-2.762-.214-.164-1.766-1.328-.634-.48-1.984-1.491-.773-.583-1.153-.868-8.092-6.1-11.143-8.4.085-.153a14.282,14.282,0,0,1,1.334-1.981,15.027,15.027,0,0,1,2.282-2.291,16.427,16.427,0,0,1,2.087-1.442l.115-.067.107.08,14.62,11.017L846,353.049l3.472,2.618,1.93,1.451,2.618,1.971,1.022.773.958.718,4.06,3.061,9.8,7.385-.13.162c-.5.62-1.018,1.234-1.543,1.825-.7.8-1.427,1.586-2.162,2.344-.5.513-1.048,1.063-1.686,1.681Zm-40.134-30.744,13.263,9.993,7.618,5.741,1.984,1.492.633.48,1.767,1.329.214.164,3.669,2.761,1.809,1.365,9.143,6.89c.583-.567,1.092-1.076,1.554-1.553.731-.753,1.455-1.537,2.15-2.33.476-.536.947-1.09,1.4-1.649l-9.472-7.135-4.06-3.061-.958-.718-1.022-.774-2.617-1.971-1.93-1.451-3.472-2.618-1.808-1.361-14.513-10.936a16.063,16.063,0,0,0-1.921,1.339,14.632,14.632,0,0,0-2.221,2.23A13.982,13.982,0,0,0,824.085,346.415Z" transform="translate(-821.796 -338.544)" fill="rgba(0,0,0,0)"/>
      <path id="Path_40" data-name="Path 40" d="M879.85,338.79v44.973q-.881.665-1.808,1.334-1.736,1.248-3.617,2.523-1.885-1.275-3.617-2.523-.929-.671-1.808-1.334V338.79a14.191,14.191,0,0,1,1.808.922,14.036,14.036,0,0,1,3.617,3.124,14.191,14.191,0,0,1,5.425-4.046Z" transform="translate(-846.725 -337.587)" fill="#fff"/>
      <path id="Path_40_-_Outline" data-name="Path 40 - Outline" d="M868.5,338.035l.28.118a14.445,14.445,0,0,1,1.834.935,14.221,14.221,0,0,1,3.512,2.983,14.224,14.224,0,0,1,3.513-2.983,14.416,14.416,0,0,1,1.833-.935l.28-.118v45.377l-.08.06c-.579.436-1.171.873-1.812,1.336-1.2.866-2.423,1.715-3.622,2.526l-.113.076-.113-.076c-1.2-.811-2.418-1.661-3.621-2.526-.643-.465-1.236-.9-1.812-1.336l-.08-.06Zm10.85,45.176V338.646a13.983,13.983,0,0,0-1.5.787,13.838,13.838,0,0,0-3.565,3.08l-.155.188-.155-.188a13.841,13.841,0,0,0-3.565-3.079,14,14,0,0,0-1.5-.787v44.565c.549.413,1.115.83,1.725,1.271,1.162.835,2.338,1.657,3.5,2.443,1.159-.786,2.336-1.607,3.5-2.443C878.233,384.042,878.8,383.626,879.35,383.211Z" transform="translate(-846.427 -337.136)" fill="rgba(0,0,0,0)"/>
      <path id="Path_41" data-name="Path 41" d="M870.022,374.964c-.674.769-1.392,1.551-2.156,2.337L856.9,369.041l-1.79-1.347-.018-.014-1.754-1.325-.624-.47-1.356-1.022-2.617-1.971-.882-.665-1.044-.787-.764-.574-2.939-2.215-2.4-1.808L827.12,346.6a14.788,14.788,0,0,1,2.251-2.26l16.6,12.5.081.063,1.808,1.361.511.384,1.026.773,1.926,1.451,2.617,1.971,1.153.868.827.624.981.741,1.067.8,2.4,1.808Z" transform="translate(-823.778 -340.628)" fill="#c8102e"/>
      <path id="Path_42" data-name="Path 42" d="M882.63,345.56l-13.775,10.764-2.315,1.808-2.4,1.881-1.022.8-.786.615-1.153.9-2.582,2.016-1.306,1.022-.61.479-1.582,1.234-.118.095-1.691,1.32-10.8,8.449c-.769-.787-1.492-1.56-2.161-2.328l9.516-7.441,2.315-1.808,1.135-.886.773-.606,1.035-.809.882-.692,2.581-2.016,1.939-1.514.909-.71.922-.723,1.392-1.085.416-.326,16.125-12.608A15.171,15.171,0,0,1,882.63,345.56Z" transform="translate(-831.011 -340.107)" fill="#c8102e"/>
      <path id="Path_38" data-name="Path 38" d="M875.135,352.345a17.081,17.081,0,0,1-.2,1.808,23.21,23.21,0,0,1-1.551,5.321q-.393.942-.886,1.912c-.294.592-.624,1.2-.981,1.808a43.69,43.69,0,0,1-3.788,5.452q-.726.9-1.537,1.817c-.674.769-1.392,1.551-2.156,2.337-.538.556-1.1,1.112-1.682,1.677a97.029,97.029,0,0,1-9.281,7.825q-.881.665-1.808,1.334-1.736,1.248-3.617,2.523-1.885-1.275-3.617-2.523-.929-.671-1.808-1.334a97.457,97.457,0,0,1-9.091-7.645q-.9-.855-1.713-1.7c-.768-.787-1.492-1.56-2.161-2.328-.538-.6-1.04-1.194-1.519-1.777a43.684,43.684,0,0,1-3.96-5.664c-.362-.61-.687-1.216-.981-1.808-.33-.646-.624-1.284-.886-1.912a23.212,23.212,0,0,1-1.551-5.321,17.114,17.114,0,0,1-.2-1.808,14.909,14.909,0,0,1,1.813-8.291,14.04,14.04,0,0,1,1.315-1.953,14.8,14.8,0,0,1,2.251-2.26,16.217,16.217,0,0,1,2.062-1.424,16.694,16.694,0,0,1,14.62-1.085,14.187,14.187,0,0,1,5.425,4.046,14.036,14.036,0,0,1,3.617-3.124,14.178,14.178,0,0,1,1.808-.922,16.633,16.633,0,0,1,14.028.764,15.984,15.984,0,0,1,2.1,1.315,15.16,15.16,0,0,1,2.369,2.17A14.584,14.584,0,0,1,873,343.5,14.827,14.827,0,0,1,875.135,352.345Z" transform="translate(-819.949 -336.129)" fill="none"/>
      <path id="Path_43" data-name="Path 43" d="M875.172,372a17.082,17.082,0,0,1-.2,1.808,23.208,23.208,0,0,1-1.551,5.321q-.393.943-.886,1.912c-.294.592-.624,1.2-.981,1.808h-47.74c-.362-.61-.687-1.216-.981-1.808q-.5-.97-.886-1.912a23.222,23.222,0,0,1-1.551-5.321,17.146,17.146,0,0,1-.2-1.808Z" transform="translate(-819.986 -355.783)" fill="#fff"/>
      <path id="Path_43_-_Outline" data-name="Path 43 - Outline" d="M819.672,371.5h55.4l-.011.212a17.31,17.31,0,0,1-.2,1.83,23.523,23.523,0,0,1-1.563,5.367c-.269.645-.569,1.293-.892,1.925-.288.58-.62,1.192-.987,1.82l-.058.1H823.387l-.058-.1c-.344-.581-.676-1.193-.988-1.821s-.622-1.279-.892-1.925a23.525,23.525,0,0,1-1.564-5.367,17.393,17.393,0,0,1-.2-1.829Zm54.971.4H820.1c.035.5.1,1.034.184,1.575a23.121,23.121,0,0,0,1.538,5.275c.266.637.562,1.276.88,1.9v0c.289.583.6,1.154.916,1.7h47.509c.34-.585.648-1.155.916-1.7v0c.318-.623.614-1.262.88-1.9a23.117,23.117,0,0,0,1.537-5.275C874.547,372.937,874.609,372.408,874.643,371.9Z" transform="translate(-819.671 -355.485)" fill="rgba(0,0,0,0)"/>
      <path id="Path_44" data-name="Path 44" d="M875.215,376a23.217,23.217,0,0,1-1.551,5.321c-.262.628-.556,1.266-.886,1.912h-49.7q-.5-.97-.886-1.912A23.224,23.224,0,0,1,820.64,376Z" transform="translate(-820.227 -357.975)" fill="#c8102e"/>
      <path id="Path_45" data-name="Path 45" d="M880.233,340.83v45.384q-1.736,1.248-3.617,2.523-1.885-1.275-3.617-2.523V340.83a14.037,14.037,0,0,1,3.617,3.124A14.032,14.032,0,0,1,880.233,340.83Z" transform="translate(-848.917 -338.705)" fill="#c8102e"/>
    </g>
  </g>
</svg>
