<svg xmlns="http://www.w3.org/2000/svg" width="19" height="19" viewBox="0 0 19 19">
  <g id="Group_1085" data-name="Group 1085" transform="translate(-23698 -11158)">
    <path id="Path_940" data-name="Path 940" d="M0,0H19V19H0Z" transform="translate(23698 11158)" fill="#eaf5ef"/>
    <g id="Group_1082" data-name="Group 1082" transform="translate(23699.709 11161.429)">
      <path id="Path_36" data-name="Path 36" d="M835.6,340.69a4.778,4.778,0,0,1-.056.509,6.526,6.526,0,0,1-.436,1.5q-.111.265-.249.538c-.083.167-.175.337-.276.509a12.284,12.284,0,0,1-1.066,1.533q-.2.254-.432.511c-.19.216-.392.436-.607.657-.151.156-.309.313-.473.472a27.3,27.3,0,0,1-2.611,2.2q-.248.187-.509.375c-.326.234-.664.47-1.017.71q-.53-.359-1.017-.71-.261-.189-.509-.375a27.4,27.4,0,0,1-2.557-2.15q-.252-.24-.482-.477c-.216-.221-.42-.439-.608-.655-.151-.168-.292-.336-.427-.5a12.274,12.274,0,0,1-1.114-1.593c-.1-.172-.193-.342-.276-.509-.093-.182-.175-.361-.249-.538a6.525,6.525,0,0,1-.436-1.5,4.827,4.827,0,0,1-.056-.509,4.194,4.194,0,0,1,.51-2.332,3.945,3.945,0,0,1,.37-.549,4.154,4.154,0,0,1,.633-.636,4.553,4.553,0,0,1,.58-.4,4.7,4.7,0,0,1,4.112-.305,1.309,1.309,0,0,0,2.543.259,3.992,3.992,0,0,1,.509-.259,4.678,4.678,0,0,1,3.946.215,4.508,4.508,0,0,1,.59.37,4.267,4.267,0,0,1,.666.61,4.1,4.1,0,0,1,.4.54A4.169,4.169,0,0,1,835.6,340.69Z" transform="translate(-820.081 -336.129)" fill="#177b43"/>
      <path id="Path_39" data-name="Path 39" d="M849.69,342l-3.183,2.487-.65.509-1.5,1.174-.27.211-.276.215-.233.182-.323.253-.17.132-.481.376-.059.046-1,.783-.509.4-2.557,2q-.252-.24-.482-.477c-.216-.221-.42-.439-.608-.655-.151-.168-.293-.336-.427-.5L839,347.54l.651-.509,1.059-.828.324-.254.215-.168.294-.229.432-.338.278-.217.266-.209.384-.3.674-.526.509-.4,3.946-3.084a4.5,4.5,0,0,1,.59.37,4.268,4.268,0,0,1,.666.61A4.106,4.106,0,0,1,849.69,342Z" transform="translate(-834.769 -339.927)" fill="#fff"/>
      <path id="Path_39_-_Outline" data-name="Path 39 - Outline" d="M847.394,339.887l.032.017a4.581,4.581,0,0,1,.6.375,4.331,4.331,0,0,1,.675.619,4.167,4.167,0,0,1,.407.548l.027.043-3.223,2.519-.65.509-1.5,1.174-.27.211-.276.215-.233.182-.323.253-.171.132-.539.422-1,.783-.509.4-2.6,2.028-.035-.034c-.161-.154-.324-.315-.483-.478-.234-.239-.433-.454-.61-.657-.131-.145-.263-.3-.429-.5l-.037-.045,3.8-2.965.324-.254.215-.168.294-.229.432-.338.279-.217.266-.208,1.058-.827.509-.4Zm1.589,1.575a4.067,4.067,0,0,0-.369-.49,4.216,4.216,0,0,0-.657-.6,4.45,4.45,0,0,0-.55-.348l-3.917,3.061-.509.4-1.058.827-.266.208-.279.217-.432.338-.294.229-.215.168-.324.254-1.71,1.337-1.994,1.558c.148.179.269.32.389.453h0c.175.2.373.415.606.652.147.151.3.3.445.442l2.519-1.967.508-.4,1.061-.829.481-.376.17-.132.323-.253.233-.182.276-.215.269-.211,1.5-1.174.65-.509Z" transform="translate(-834.138 -339.401)" fill="rgba(0,0,0,0)"/>
      <path id="Path_37" data-name="Path 37" d="M837.08,349.693q-.2.254-.432.511c-.189.216-.392.436-.607.657-.151.156-.309.313-.473.472l-2.611-1.967-.509-.384-1.032-.777-.06-.046-.5-.374-.178-.135-.267-.2-.291-.219-.217-.164-.324-.244-1.6-1.207-.675-.509-3.095-2.332a3.954,3.954,0,0,1,.37-.549,4.16,4.16,0,0,1,.633-.636,4.573,4.573,0,0,1,.58-.4l4.112,3.1.509.383.579.436.4.3.277.209.266.2.515.388.221.167.287.217.27.2,1.142.861.675.509Z" transform="translate(-823.641 -340.546)" fill="#fff"/>
      <path id="Path_37_-_Outline" data-name="Path 37 - Outline" d="M835,350.876l-2.649-2-.509-.384-1.032-.777-.06-.046-.5-.374-.178-.135-.558-.42-.217-.164-.324-.244-2.276-1.715-3.134-2.362.024-.043a4.016,4.016,0,0,1,.375-.557,4.222,4.222,0,0,1,.642-.644,4.615,4.615,0,0,1,.587-.405l.032-.019.03.023,4.112,3.1.509.383.977.736.543.408.736.554.288.217.269.2,1.142.861,2.758,2.077-.037.046c-.14.174-.286.347-.434.513-.2.224-.4.446-.608.659-.14.144-.295.3-.474.473Zm-11.289-8.647,3.731,2.811,2.143,1.615.558.42.178.135.5.374.06.046,1.032.777.509.384,2.572,1.938c.164-.159.307-.3.437-.437.206-.212.409-.432.6-.655.134-.151.266-.306.394-.464l-2.664-2.007-1.142-.861-.269-.2-.288-.218-.736-.554-.543-.408-.977-.736-.509-.383-4.082-3.076a4.514,4.514,0,0,0-.54.377,4.116,4.116,0,0,0-.625.627A3.939,3.939,0,0,0,823.709,342.229Z" transform="translate(-823.065 -340.015)" fill="rgba(0,0,0,0)"/>
      <path id="Path_40" data-name="Path 40" d="M872.052,338.79v12.65q-.248.187-.509.375-.488.351-1.017.71-.53-.359-1.017-.71-.261-.189-.509-.375V338.79a3.992,3.992,0,0,1,.509.259,1.028,1.028,0,0,0,2.035,0A3.985,3.985,0,0,1,872.052,338.79Z" transform="translate(-862.735 -338.452)" fill="#fff"/>
      <path id="Path_40_-_Outline" data-name="Path 40 - Outline" d="M868.5,338.035l.079.033a4.076,4.076,0,0,1,.516.263,1,1,0,0,0,1.976,0,4.066,4.066,0,0,1,.516-.263l.079-.033V350.8l-.023.017c-.163.123-.329.246-.51.376-.339.243-.681.483-1.019.711l-.032.021-.032-.021c-.337-.228-.68-.467-1.018-.71-.181-.131-.348-.254-.51-.376l-.023-.017Zm3.052,12.707V338.207a3.937,3.937,0,0,0-1.425,1.088l-.044.053-.044-.053a3.9,3.9,0,0,0-1-.866,3.949,3.949,0,0,0-.423-.222v12.535c.154.116.314.233.485.358.327.235.658.466.984.687.326-.221.657-.452.984-.687C871.238,350.976,871.4,350.859,871.552,350.742Z" transform="translate(-862.292 -337.782)" fill="rgba(0,0,0,0)"/>
      <path id="Path_41" data-name="Path 41" d="M839.187,352.954c-.189.216-.392.436-.607.657l-3.083-2.323-.5-.379-.005,0-.493-.373-.175-.132-.381-.287-.736-.554-.248-.187-.294-.221-.215-.161-.827-.623-.675-.509-3.824-2.881a4.16,4.16,0,0,1,.633-.636l4.669,3.517.023.018.508.383.144.108.289.217.542.408.736.554.324.244.233.176.276.208.3.226.675.509Z" transform="translate(-826.18 -343.296)" fill="#32aa66"/>
      <path id="Path_42" data-name="Path 42" d="M852.221,344l-3.875,3.028-.651.509-.676.529-.287.225-.221.173-.324.253-.726.567-.367.287-.172.135-.445.347-.033.027-.476.371-3.039,2.377c-.216-.221-.42-.439-.608-.655L843,350.08l.651-.509.319-.249.217-.17.291-.228.248-.195.726-.567.546-.426.256-.2.259-.2.392-.305.117-.092,4.536-3.546A4.269,4.269,0,0,1,852.221,344Z" transform="translate(-837.702 -342.467)" fill="#32aa66"/>
      <path id="Path_38" data-name="Path 38" d="M835.6,340.69a4.778,4.778,0,0,1-.056.509,6.526,6.526,0,0,1-.436,1.5q-.111.265-.249.538c-.083.167-.175.337-.276.509a12.284,12.284,0,0,1-1.066,1.533q-.2.254-.432.511c-.19.216-.392.436-.607.657-.151.156-.309.313-.473.472a27.3,27.3,0,0,1-2.611,2.2q-.248.187-.509.375c-.326.234-.664.47-1.017.71q-.53-.359-1.017-.71-.261-.189-.509-.375a27.4,27.4,0,0,1-2.557-2.15q-.252-.24-.482-.477c-.216-.221-.42-.439-.608-.655-.151-.168-.292-.336-.427-.5a12.274,12.274,0,0,1-1.114-1.593c-.1-.172-.193-.342-.276-.509-.093-.182-.175-.361-.249-.538a6.525,6.525,0,0,1-.436-1.5,4.827,4.827,0,0,1-.056-.509,4.194,4.194,0,0,1,.51-2.332,3.945,3.945,0,0,1,.37-.549,4.154,4.154,0,0,1,.633-.636,4.553,4.553,0,0,1,.58-.4,4.7,4.7,0,0,1,4.112-.305,1.309,1.309,0,0,0,2.543.259,3.992,3.992,0,0,1,.509-.259,4.678,4.678,0,0,1,3.946.215,4.508,4.508,0,0,1,.59.37,4.267,4.267,0,0,1,.666.61,4.1,4.1,0,0,1,.4.54A4.169,4.169,0,0,1,835.6,340.69Z" transform="translate(-820.081 -336.129)" fill="none"/>
      <path id="Path_43" data-name="Path 43" d="M835.662,372a4.8,4.8,0,0,1-.056.509,6.523,6.523,0,0,1-.436,1.5q-.111.265-.249.538c-.083.167-.176.337-.276.509H821.217c-.1-.172-.193-.342-.276-.509-.093-.182-.176-.361-.249-.538a6.536,6.536,0,0,1-.436-1.5A4.826,4.826,0,0,1,820.2,372Z" transform="translate(-820.14 -367.439)" fill="#fff"/>
      <path id="Path_43_-_Outline" data-name="Path 43 - Outline" d="M819.672,371.5h15.582l0,.06a4.915,4.915,0,0,1-.057.515,6.615,6.615,0,0,1-.44,1.509c-.076.181-.16.364-.251.541s-.174.335-.278.512l-.016.028H820.717l-.016-.028c-.1-.163-.19-.336-.278-.512s-.175-.36-.251-.542a6.614,6.614,0,0,1-.44-1.509,4.92,4.92,0,0,1-.057-.515Zm15.462.113H819.792c.01.142.027.291.052.443a6.492,6.492,0,0,0,.433,1.484c.075.179.158.359.247.534h0c.082.164.168.324.258.477h13.363c.1-.165.182-.325.258-.477h0c.09-.175.173-.355.247-.534a6.5,6.5,0,0,0,.432-1.484C835.107,371.9,835.125,371.755,835.134,371.613Z" transform="translate(-819.672 -366.995)" fill="rgba(0,0,0,0)"/>
      <path id="Path_44" data-name="Path 44" d="M835.99,376a6.529,6.529,0,0,1-.436,1.5c-.074.177-.156.356-.249.538h-13.98c-.093-.182-.175-.361-.249-.538a6.532,6.532,0,0,1-.436-1.5Z" transform="translate(-820.524 -370.93)" fill="#32aa66"/>
      <path id="Path_45" data-name="Path 45" d="M875.034,340.83V353.6q-.488.351-1.017.71c-.354-.239-.692-.476-1.017-.71V340.83a1.028,1.028,0,0,0,2.035,0Z" transform="translate(-866.226 -340.232)" fill="#32aa66"/>
    </g>
  </g>
</svg>
