<svg xmlns="http://www.w3.org/2000/svg" width="47.637" height="47.637" viewBox="0 0 47.637 47.637">
  <path id="Path_5218" data-name="Path 5218" d="M50.537,6.247,48.221,8.562,45.906,6.247h-.035L43.555,8.562,41.24,6.247H41.2L38.889,8.562,36.574,6.247h-.035L34.223,8.562,31.908,6.247h-.035L29.557,8.562,27.242,6.247h-.035L24.891,8.562,22.576,6.247h-.035L20.226,8.562,17.91,6.247h-.035L15.56,8.562,13.244,6.247h-.035L10.894,8.562,8.578,6.247H8.543l-2.3,2.3v.04L8.561,10.9,6.248,13.208v.04l2.313,2.313L6.248,17.874v.04l2.313,2.313L6.248,22.54v.04l2.313,2.313L6.248,27.206v.04l2.313,2.313L6.248,31.872v.04l2.313,2.313L6.248,36.538v.04l2.313,2.313L6.248,41.2v.04l2.313,2.313L6.248,45.87v.04l2.313,2.313L6.248,50.536v.04l2.308,2.308h.009l2.329-2.329,2.328,2.329h.009l2.328-2.329,2.328,2.329H17.9l2.328-2.329,2.328,2.329h.009l2.328-2.329,2.328,2.329h.009l2.329-2.329,2.328,2.329h.009l2.329-2.329,2.328,2.329h.009l2.328-2.329,2.328,2.329h.009l2.328-2.329,2.328,2.329h.009l2.328-2.329,2.329,2.329h.009l2.326-2.326v0l-2.331-2.331,2.331-2.331v0l-2.331-2.331,2.331-2.331v0l-2.331-2.331,2.331-2.331v0l-2.331-2.331,2.331-2.331v0l-2.331-2.331,2.331-2.331v0l-2.331-2.331,2.331-2.331v0l-2.331-2.331L52.885,17.9v0l-2.331-2.331,2.331-2.331v0L50.554,10.9l2.331-2.331v0L50.572,6.247Z" transform="translate(-5.748 -5.747)" fill="none" stroke="#fff" stroke-width="1"/>
</svg>
