<svg xmlns="http://www.w3.org/2000/svg" width="70" height="65" viewBox="0 0 70 65">
  <g id="Group_2716" data-name="Group 2716" transform="translate(9525 9278)">
    <rect id="Rectangle_3794" data-name="Rectangle 3794" width="70" height="65" transform="translate(-9525 -9278)" fill="none"/>
    <g id="Group_2705" data-name="Group 2705" transform="translate(-9516.061 -9273.938)">
      <path id="Path_5882" data-name="Path 5882" d="M4128.543-11962.331l.016,38.237a4.31,4.31,0,0,0,1.3,2.273,5.354,5.354,0,0,0,2.693.8l38.569-.044.058-54.014-13.341.006-.094-1.386-8.731.186-.471.9-13.511.246v12.8Z" transform="translate(-4128.005 11977.251)" fill="#94ccd0"/>
      <path id="Path_5883" data-name="Path 5883" d="M4181.423-11964.251l-.092,35.055,2.7,5.39,2.522-5.39v-35.055s-1.476-2.011-2.806-2.011S4181.423-11964.251,4181.423-11964.251Z" transform="translate(-4134.976 11975.906)" fill="#94ccd0"/>
      <rect id="Rectangle_3743" data-name="Rectangle 3743" width="4.561" height="3.649" transform="translate(11.507 8.097)" fill="#fff"/>
      <rect id="Rectangle_3744" data-name="Rectangle 3744" width="4.561" height="3.649" transform="translate(11.507 15.396)" fill="#fff"/>
      <rect id="Rectangle_3745" data-name="Rectangle 3745" width="4.561" height="3.649" transform="translate(11.507 22.694)" fill="#fff"/>
      <rect id="Rectangle_3747" data-name="Rectangle 3747" width="4.561" height="4.561" transform="translate(11.507 37.29)" fill="#fff"/>
      <rect id="Rectangle_3748" data-name="Rectangle 3748" width="4.561" height="4.561" transform="translate(11.507 44.588)" fill="#fff"/>
      <rect id="Rectangle_3746" data-name="Rectangle 3746" width="4.561" height="4.561" transform="translate(11.507 29.992)" fill="#fff"/>
      <path id="Path_5886" data-name="Path 5886" d="M4260.2-11921.166l2.472,5.306,2.943-5.306v-5.064H4260.2Z" transform="translate(-4213.845 11967.868)" fill="#fff"/>
      <rect id="Rectangle_3749" data-name="Rectangle 3749" width="9.123" height="3.649" transform="translate(20.63 0.799)" fill="#fff"/>
      <path id="Path_5887" data-name="Path 5887" d="M4260.573-11956.118c.344-.082,5.037-.117,5.037-.117l-.279-3.753-1.631-1.429h-1.333l-1.632,1.031Z" transform="translate(-4213.877 11970.957)" fill="#fff"/>
      <g id="Group_2654" data-name="Group 2654" transform="translate(0 0)">
        <path id="Path_5829" data-name="Path 5829" d="M158.775,4.359H146.16V3.321a.626.626,0,0,0-.626-.626H136.1a.629.629,0,0,0-.445.185.636.636,0,0,0-.181.441V4.359H122.856a.626.626,0,0,0-.626.626V16.369h-5.99a.626.626,0,0,0-.626.626V55.638a3.925,3.925,0,0,0,.518,1.946.637.637,0,0,0,.856.231.621.621,0,0,0,.292-.38.614.614,0,0,0-.061-.473,2.663,2.663,0,0,1-.353-1.325V17.621h5.363V55.638l-.035.428a2.71,2.71,0,0,1-.855,1.559l-.09.079c-.051.042-.1.082-.161.122l-.06.041a2.673,2.673,0,0,1-1.48.451,3.006,3.006,0,0,1-.309-.017.6.6,0,0,0-.17.006.6.6,0,0,0-.163-.066.625.625,0,1,0-.293,1.216.616.616,0,0,0,.217.011.625.625,0,0,0,.34.1H147.3a.626.626,0,1,0,0-1.251h-24.88a3.9,3.9,0,0,0,.99-1.94c.014-.074.026-.149.04-.25.009-.071.015-.142.023-.246.006-.081.009-.162.009-.244l0-50.028h11.991V6.647a.63.63,0,0,0,.182.442h0v0a.593.593,0,0,0,.092.061.62.62,0,0,0,.112.074.585.585,0,0,0,.09.018.611.611,0,0,0,.148.029h9.438a.626.626,0,0,0,.626-.626V5.61h11.989v7.1a.626.626,0,0,0,1.251,0V4.984a.626.626,0,0,0-.626-.626M144.909,6.021h-8.185V3.946h8.186Z" transform="translate(-115.615 -2.695)" fill="#17494d"/>
        <path id="Path_5830" data-name="Path 5830" d="M158.775,4.359H146.16V3.321a.626.626,0,0,0-.626-.626H136.1a.629.629,0,0,0-.445.185.636.636,0,0,0-.181.441V4.359H122.856a.626.626,0,0,0-.626.626V16.369h-5.99a.626.626,0,0,0-.626.626V55.638a3.925,3.925,0,0,0,.518,1.946.637.637,0,0,0,.856.231.621.621,0,0,0,.292-.38.614.614,0,0,0-.061-.473,2.663,2.663,0,0,1-.353-1.325V17.621h5.363V55.638l-.035.428a2.71,2.71,0,0,1-.855,1.559l-.09.079c-.051.042-.1.082-.161.122l-.06.041a2.673,2.673,0,0,1-1.48.451,3.006,3.006,0,0,1-.309-.017.6.6,0,0,0-.17.006.6.6,0,0,0-.163-.066.625.625,0,1,0-.293,1.216.616.616,0,0,0,.217.011.625.625,0,0,0,.34.1H147.3a.626.626,0,1,0,0-1.251h-24.88a3.9,3.9,0,0,0,.99-1.94c.014-.074.026-.149.04-.25.009-.071.015-.142.023-.246.006-.081.009-.162.009-.244l0-50.028h11.991V6.647a.63.63,0,0,0,.182.442h0v0a.593.593,0,0,0,.092.061.62.62,0,0,0,.112.074.585.585,0,0,0,.09.018.611.611,0,0,0,.148.029h9.438a.626.626,0,0,0,.626-.626V5.61h11.989v7.1a.626.626,0,0,0,1.251,0V4.984a.626.626,0,0,0-.626-.626ZM144.909,6.021h-8.185V3.946h8.186Z" transform="translate(-115.615 -2.695)" fill="#17494d"/>
        <path id="Path_5831" data-name="Path 5831" d="M161.112,16.684a.626.626,0,1,0-.626-.626.626.626,0,0,0,.626.626" transform="translate(-117.952 -3.358)" fill="#17494d"/>
        <ellipse id="Ellipse_678" data-name="Ellipse 678" cx="0.626" cy="0.626" rx="0.626" ry="0.626" transform="translate(42.534 12.074)" fill="#17494d"/>
        <path id="Path_5832" data-name="Path 5832" d="M160.776,18.264a.626.626,0,0,0-.626.626V59.13h-5.48a.626.626,0,1,0,0,1.251h6.106a.626.626,0,0,0,.626-.627V18.89a.626.626,0,0,0-.626-.626" transform="translate(-117.616 -3.506)" fill="#17494d"/>
        <path id="Path_5833" data-name="Path 5833" d="M160.776,18.264a.626.626,0,0,0-.626.626V59.13h-5.48a.626.626,0,1,0,0,1.251h6.106a.626.626,0,0,0,.626-.627V18.89A.626.626,0,0,0,160.776,18.264Z" transform="translate(-117.616 -3.506)" fill="#17494d"/>
        <path id="Path_5834" data-name="Path 5834" d="M151.839,61.375a.626.626,0,1,0,.626.626.626.626,0,0,0-.626-.626" transform="translate(-117.469 -5.751)" fill="#17494d"/>
        <ellipse id="Ellipse_679" data-name="Ellipse 679" cx="0.626" cy="0.626" rx="0.626" ry="0.626" transform="translate(33.744 55.624)" fill="#17494d"/>
        <path id="Path_5835" data-name="Path 5835" d="M132.761,10.727a.626.626,0,0,0-.626-.627H127.86a.626.626,0,0,0-.626.627V15a.623.623,0,0,0,.626.626h4.276a.623.623,0,0,0,.626-.626Zm-1.251,3.649h-3.025V11.35h3.025Z" transform="translate(-116.22 -3.081)" fill="#17494d"/>
        <path id="Path_5836" data-name="Path 5836" d="M132.761,10.727a.626.626,0,0,0-.626-.627H127.86a.626.626,0,0,0-.626.627V15a.623.623,0,0,0,.626.626h4.276a.623.623,0,0,0,.626-.626Zm-1.251,3.649h-3.025V11.35h3.025Z" transform="translate(-116.22 -3.081)" fill="#17494d"/>
        <path id="Path_5837" data-name="Path 5837" d="M136.236,15.861H150.95a.509.509,0,0,0,.386-.184.667.667,0,0,0,.158-.442.589.589,0,0,0-.544-.626H136.236a.632.632,0,0,0,0,1.251" transform="translate(-116.66 -3.316)" fill="#17494d"/>
        <path id="Path_5838" data-name="Path 5838" d="M136.236,15.861H150.95a.509.509,0,0,0,.386-.184.667.667,0,0,0,.158-.442.589.589,0,0,0-.544-.626H136.236a.632.632,0,0,0,0,1.251Z" transform="translate(-116.66 -3.316)" fill="#17494d"/>
        <path id="Path_5839" data-name="Path 5839" d="M132.761,18.6a.626.626,0,0,0-.626-.626H127.86a.626.626,0,0,0-.626.626v4.276a.625.625,0,0,0,.626.626h4.276a.626.626,0,0,0,.626-.626Zm-1.251,3.65h-3.025V19.224h3.025Z" transform="translate(-116.22 -3.491)" fill="#17494d"/>
        <path id="Path_5840" data-name="Path 5840" d="M132.761,18.6a.626.626,0,0,0-.626-.626H127.86a.626.626,0,0,0-.626.626v4.276a.625.625,0,0,0,.626.626h4.276a.626.626,0,0,0,.626-.626Zm-1.251,3.65h-3.025V19.224h3.025Z" transform="translate(-116.22 -3.491)" fill="#17494d"/>
        <path id="Path_5841" data-name="Path 5841" d="M136.236,23.735H150.95a.506.506,0,0,0,.385-.184.663.663,0,0,0,.159-.442.589.589,0,0,0-.544-.626H136.236a.632.632,0,0,0,0,1.251" transform="translate(-116.66 -3.726)" fill="#17494d"/>
        <path id="Path_5842" data-name="Path 5842" d="M136.236,23.735H150.95a.506.506,0,0,0,.385-.184.663.663,0,0,0,.159-.442.589.589,0,0,0-.544-.626H136.236a.632.632,0,0,0,0,1.251Z" transform="translate(-116.66 -3.726)" fill="#17494d"/>
        <path id="Path_5843" data-name="Path 5843" d="M132.761,26.472a.626.626,0,0,0-.626-.626H127.86a.625.625,0,0,0-.626.626v4.276a.624.624,0,0,0,.184.443.633.633,0,0,0,.442.183h4.276a.628.628,0,0,0,.626-.626Zm-1.251,3.649h-3.025V27.1h3.025Z" transform="translate(-116.22 -3.901)" fill="#17494d"/>
        <path id="Path_5844" data-name="Path 5844" d="M132.761,26.472a.626.626,0,0,0-.626-.626H127.86a.625.625,0,0,0-.626.626v4.276a.624.624,0,0,0,.184.443.633.633,0,0,0,.442.183h4.276a.628.628,0,0,0,.626-.626Zm-1.251,3.649h-3.025V27.1h3.025Z" transform="translate(-116.22 -3.901)" fill="#17494d"/>
        <path id="Path_5845" data-name="Path 5845" d="M136.236,31.608H150.95a.509.509,0,0,0,.386-.184.667.667,0,0,0,.158-.442.59.59,0,0,0-.544-.627H136.236a.632.632,0,0,0,0,1.252" transform="translate(-116.66 -4.136)" fill="#17494d"/>
        <path id="Path_5846" data-name="Path 5846" d="M136.236,31.608H150.95a.509.509,0,0,0,.386-.184.667.667,0,0,0,.158-.442.59.59,0,0,0-.544-.627H136.236a.632.632,0,0,0,0,1.252Z" transform="translate(-116.66 -4.136)" fill="#17494d"/>
        <path id="Path_5847" data-name="Path 5847" d="M132.761,34.347a.625.625,0,0,0-.626-.626H127.86a.625.625,0,0,0-.626.626v4.276a.626.626,0,0,0,.626.626h4.276a.626.626,0,0,0,.626-.626ZM131.51,38h-3.025V34.972h3.025Z" transform="translate(-116.22 -4.311)" fill="#17494d"/>
        <path id="Path_5848" data-name="Path 5848" d="M132.761,34.347a.625.625,0,0,0-.626-.626H127.86a.625.625,0,0,0-.626.626v4.276a.626.626,0,0,0,.626.626h4.276a.626.626,0,0,0,.626-.626ZM131.51,38h-3.025V34.972h3.025Z" transform="translate(-116.22 -4.311)" fill="#17494d"/>
        <path id="Path_5849" data-name="Path 5849" d="M136.236,39.483H150.95a.506.506,0,0,0,.385-.184.667.667,0,0,0,.159-.442.589.589,0,0,0-.544-.626H136.236a.632.632,0,0,0,0,1.251" transform="translate(-116.66 -4.546)" fill="#17494d"/>
        <path id="Path_5850" data-name="Path 5850" d="M136.236,39.483H150.95a.506.506,0,0,0,.385-.184.667.667,0,0,0,.159-.442.589.589,0,0,0-.544-.626H136.236a.632.632,0,0,0,0,1.251Z" transform="translate(-116.66 -4.546)" fill="#17494d"/>
        <path id="Path_5851" data-name="Path 5851" d="M132.761,42.219a.626.626,0,0,0-.184-.443.633.633,0,0,0-.442-.183H127.86a.625.625,0,0,0-.626.626v4.276a.625.625,0,0,0,.183.442.634.634,0,0,0,.443.184h4.276a.621.621,0,0,0,.441-.182.614.614,0,0,0,.185-.444Zm-1.251,3.65h-3.025V42.844h3.025Z" transform="translate(-116.22 -4.721)" fill="#17494d"/>
        <path id="Path_5852" data-name="Path 5852" d="M132.761,42.219a.626.626,0,0,0-.184-.443.633.633,0,0,0-.442-.183H127.86a.625.625,0,0,0-.626.626v4.276a.625.625,0,0,0,.183.442.634.634,0,0,0,.443.184h4.276a.621.621,0,0,0,.441-.182.614.614,0,0,0,.185-.444Zm-1.251,3.65h-3.025V42.844h3.025Z" transform="translate(-116.22 -4.721)" fill="#17494d"/>
        <path id="Path_5853" data-name="Path 5853" d="M136.236,47.355H150.95a.509.509,0,0,0,.386-.184.667.667,0,0,0,.158-.442.589.589,0,0,0-.544-.626H136.236a.632.632,0,0,0,0,1.251" transform="translate(-116.66 -4.956)" fill="#17494d"/>
        <path id="Path_5854" data-name="Path 5854" d="M136.236,47.355H150.95a.509.509,0,0,0,.386-.184.667.667,0,0,0,.158-.442.589.589,0,0,0-.544-.626H136.236a.632.632,0,0,0,0,1.251Z" transform="translate(-116.66 -4.956)" fill="#17494d"/>
        <path id="Path_5855" data-name="Path 5855" d="M127.86,49.467a.623.623,0,0,0-.626.626v4.276a.626.626,0,0,0,.626.626h4.276a.63.63,0,0,0,.443-.184.621.621,0,0,0,.183-.442V50.093a.626.626,0,0,0-.626-.626Zm3.65,4.276h-3.025V50.718h3.025Z" transform="translate(-116.22 -5.131)" fill="#17494d"/>
        <path id="Path_5856" data-name="Path 5856" d="M127.86,49.467a.623.623,0,0,0-.626.626v4.276a.626.626,0,0,0,.626.626h4.276a.63.63,0,0,0,.443-.184.621.621,0,0,0,.183-.442V50.093a.626.626,0,0,0-.626-.626Zm3.65,4.276h-3.025V50.718h3.025Z" transform="translate(-116.22 -5.131)" fill="#17494d"/>
        <path id="Path_5857" data-name="Path 5857" d="M136.236,55.228H150.95a.506.506,0,0,0,.385-.184.665.665,0,0,0,.159-.442.589.589,0,0,0-.544-.626H136.236a.632.632,0,0,0,0,1.251" transform="translate(-116.66 -5.366)" fill="#17494d"/>
        <path id="Path_5858" data-name="Path 5858" d="M136.236,55.228H150.95a.506.506,0,0,0,.385-.184.665.665,0,0,0,.159-.442.589.589,0,0,0-.544-.626H136.236a.632.632,0,0,0,0,1.251Z" transform="translate(-116.66 -5.366)" fill="#17494d"/>
        <path id="Path_5859" data-name="Path 5859" d="M164.547,36.777a.626.626,0,1,0-.626-.626.626.626,0,0,0,.626.626" transform="translate(-118.131 -4.405)" fill="#17494d"/>
        <ellipse id="Ellipse_680" data-name="Ellipse 680" cx="0.626" cy="0.626" rx="0.626" ry="0.626" transform="translate(45.79 31.122)" fill="#17494d"/>
        <path id="Path_5860" data-name="Path 5860" d="M167.164,12.063a3.25,3.25,0,0,0-3.243,3.242v2.751h0V32.245a.626.626,0,1,0,1.251,0V20.872h1.365V37.9a.626.626,0,0,0,1.251,0V20.872h1.365V44.7a.618.618,0,0,0-.591-.455h-3.39V37.613a.626.626,0,1,0-1.251,0V49.983a.612.612,0,0,0,.059.265l2.617,5.579a.629.629,0,0,0,.567.36.621.621,0,0,0,.566-.36l2.619-5.584a.664.664,0,0,0,.056-.261V18.057h0V15.3a3.248,3.248,0,0,0-3.241-3.242m.008,7.558-.009,0-.01,0h-1.98v-.938h3.98v.938Zm1.982-2.191h-3.98V15.306a1.99,1.99,0,1,1,3.98,0Zm0,27.609v4.805l-1.992,4.244-1.99-4.244V45.5h3.39a.619.619,0,0,0,.591-.456" transform="translate(-118.131 -3.183)" fill="#17494d"/>
        <path id="Path_5861" data-name="Path 5861" d="M167.164,12.063a3.25,3.25,0,0,0-3.243,3.242v2.751h0V32.245a.626.626,0,1,0,1.251,0V20.872h1.365V37.9a.626.626,0,0,0,1.251,0V20.872h1.365V44.7a.618.618,0,0,0-.591-.455h-3.39V37.613a.626.626,0,1,0-1.251,0V49.983a.612.612,0,0,0,.059.265l2.617,5.579a.629.629,0,0,0,.567.36.621.621,0,0,0,.566-.36l2.619-5.584a.664.664,0,0,0,.056-.261V18.057h0V15.3A3.248,3.248,0,0,0,167.164,12.063Zm.008,7.558-.009,0-.01,0h-1.98v-.938h3.98v.938Zm1.982-2.191h-3.98V15.306a1.99,1.99,0,1,1,3.98,0Zm0,27.609v4.805l-1.992,4.244-1.99-4.244V45.5h3.39A.619.619,0,0,0,169.154,45.039Z" transform="translate(-118.131 -3.183)" fill="#17494d"/>
      </g>
    </g>
  </g>
</svg>
