<svg xmlns="http://www.w3.org/2000/svg" width="70" height="65" viewBox="0 0 70 65">
  <g id="Group_2715" data-name="Group 2715" transform="translate(9525 9411)">
    <rect id="Rectangle_3793" data-name="Rectangle 3793" width="70" height="65" transform="translate(-9525 -9411)" fill="none"/>
    <g id="Group_2704" data-name="Group 2704" transform="translate(-9525 -9399.095)">
      <path id="Path_5881" data-name="Path 5881" d="M3869.872-11943.8l6.076,3.55,2.554-1.787,4.252,2.315,3.126,5.258v2.828l2.855,1.794,1.711,3.431,2.98.546,2.631,2.867,2.83-.228,1.187,2.227,4.882-2.49,5.46,2.49,3.479-3.116,2.385.411,2.183-2.707,4.256-2.039.65-2.871s2.506.129,2.642-1.555-2.1-5.176-2.1-5.176l1.436-2.2,3.353-2.177,1.723,2.177,6.415-3.55v-1.084l-11.046-18.308-6.408,3.743.655,2.343-2.338,1.471H3913.9l-6.759-2.871-3.567-.942-5.715,1.337-7.408,1.006-4.041.575,1.464-2.674-6.454-3.653Z" transform="translate(-3869.088 11963.917)" fill="#94ccd0"/>
      <path id="Path_5888" data-name="Path 5888" d="M3978.93-11949.436l3.647,1.6,5.578-2.509,3.71-2.513,14.169,6.712,7.04,6.581,2.7-3.256,2.247-1.312-8.833-14.546-3.474,1.36-6.077-1.762-5.661-1.829-5.29.552-6.112,4.235Z" transform="translate(-3958.315 11965.486)" fill="#fff"/>
      <path id="Path_5889" data-name="Path 5889" d="M3973.782-11931.521c.1.089,1.16,2.3,1.16,2.3s2.246.611,2.454.575.684,2.117.684,2.117l1.626,1.49s2.869-.5,3.053,0a6.6,6.6,0,0,1,0,1.939l1.239,1h2.592l1.088.473.794,1.413,1.446.237,1.4-.53,2.869-3.2s1.359-2.132,1.407-2.252-.915-2.508-.915-2.508l-2.8-.185-2.1-2.588h-2.5l-1.9-3.006-3.06-.342-.646-2.5-1.724-.659-2.042.659Z" transform="translate(-3957.795 11963.145)" fill="#fff"/>
      <g id="Group_2655" data-name="Group 2655" transform="translate(0 0)">
        <path id="Path_5813" data-name="Path 5813" d="M54.2,40.051a4.089,4.089,0,0,1-2.023-.557L42.462,34a.9.9,0,1,1,.882-1.558l9.712,5.5a2.233,2.233,0,0,0,2.593-3.6l-9.567-8.6a4.068,4.068,0,0,0-.989-.657L33.663,19.7a.359.359,0,0,0-.36.033c-.4.284-.8.563-1.191.832-.767.529-1.491,1.028-2.195,1.586l-.058.046a10.212,10.212,0,0,1-4.308,2.378,6.97,6.97,0,0,1-3.509-.3,3.12,3.12,0,0,1-2.364-2.262,3.62,3.62,0,0,1,.874-2.614l.029-.043c.441-.647.858-1.353,1.261-2.035a15.551,15.551,0,0,1,3.913-4.937,13.422,13.422,0,0,1,3.93-1.835A18.553,18.553,0,0,1,34.5,9.575a13.854,13.854,0,0,1,5.842,1.4c.362.146.735.3,1.1.438l1.977.755,1.979.756.03.012a3.49,3.49,0,0,0,2.3.353l-.035.017.035-.017h0L49.16,12.6a.9.9,0,0,1,.775,1.614l-1.494.717a4.82,4.82,0,0,1-3.7-.34l-1.964-.75L40.8,13.083c-.384-.147-.766-.3-1.135-.45a12.309,12.309,0,0,0-5.1-1.269,16.9,16.9,0,0,0-4.338.894,11.837,11.837,0,0,0-3.416,1.573,14.013,14.013,0,0,0-3.432,4.4c-.418.707-.849,1.438-1.322,2.132l-.029.043c-.3.447-.65.955-.59,1.3.043.247.37.6,1.16.866a5.284,5.284,0,0,0,2.612.239A8.74,8.74,0,0,0,28.746,20.8l.058-.046c.75-.6,1.534-1.135,2.291-1.658.384-.265.781-.539,1.166-.814a2.153,2.153,0,0,1,2.162-.2l11.433,5.374a5.858,5.858,0,0,1,1.424.946L56.846,33a3.928,3.928,0,0,1,1.359,2.715,4.181,4.181,0,0,1-3.025,4.2A3.772,3.772,0,0,1,54.2,40.051Z" transform="translate(0.211 -6.045)" fill="#0b4a4c"/>
        <path id="Path_5814" data-name="Path 5814" d="M50.591,44.027a3.77,3.77,0,0,1-1.644-.379l-10.6-5.113a.9.9,0,1,1,.778-1.613l10.6,5.114a2,2,0,0,0,2.593-2.807.9.9,0,1,1,1.548-.9,3.793,3.793,0,0,1-3.276,5.7Z" transform="translate(0.407 -5.75)" fill="#0b4a4c"/>
        <path id="Path_5815" data-name="Path 5815" d="M46.028,47.079a3.768,3.768,0,0,1-1.639-.375l-7.424-3.58a.9.9,0,1,1,.778-1.613l7.423,3.58a2,2,0,0,0,2.8-2.318.9.9,0,0,1,1.728-.467,3.788,3.788,0,0,1-3.664,4.773Z" transform="translate(0.392 -5.701)" fill="#0b4a4c"/>
        <path id="Path_5816" data-name="Path 5816" d="M18.967,41.187a3.784,3.784,0,0,1-2.888-6.228l2.683-3.174a3.785,3.785,0,0,1,5.781,4.887l-2.685,3.175A3.779,3.779,0,0,1,18.967,41.187Zm2.687-8.954a1.991,1.991,0,0,0-1.524.707l-2.684,3.175a1.994,1.994,0,0,0,3.045,2.575l2.685-3.175a1.995,1.995,0,0,0-1.521-3.282Z" transform="translate(0.162 -5.818)" fill="#0b4a4c"/>
        <path id="Path_5817" data-name="Path 5817" d="M22.8,44.939a3.786,3.786,0,0,1-3.688-2.966,3.812,3.812,0,0,1,.237-2.36.9.9,0,1,1,1.635.729,2.005,2.005,0,0,0,.536,2.335,1.994,1.994,0,0,0,2.809-.236l3.186-3.768a1.995,1.995,0,0,0-2.618-2.955.9.9,0,0,1-.984-1.5,3.813,3.813,0,0,1,2.281-.616,3.785,3.785,0,0,1,2.689,6.223L25.693,43.6a3.759,3.759,0,0,1-2.574,1.328Q22.957,44.939,22.8,44.939Z" transform="translate(0.204 -5.785)" fill="#0b4a4c"/>
        <path id="Path_5818" data-name="Path 5818" d="M33.389,41.024A.9.9,0,0,1,32.5,40.2a1.995,1.995,0,0,0-3.253-1.375.9.9,0,1,1-1.138-1.382,3.785,3.785,0,0,1,6.175,2.608.9.9,0,0,1-.817.967Q33.426,41.024,33.389,41.024Z" transform="translate(0.298 -5.752)" fill="#0b4a4c"/>
        <path id="Path_5819" data-name="Path 5819" d="M27.363,47.861a3.754,3.754,0,0,1-2.438-.9,3.792,3.792,0,0,1-1.2-3.917.9.9,0,0,1,1.724.485,1.995,1.995,0,0,0,3.443,1.83.9.9,0,0,1,1.368,1.156,3.758,3.758,0,0,1-2.574,1.328Q27.524,47.861,27.363,47.861Z" transform="translate(0.253 -5.689)" fill="#0b4a4c"/>
        <path id="Path_5820" data-name="Path 5820" d="M29.52,46.87a.9.9,0,0,1-.683-1.473l3.187-3.768a1.981,1.981,0,0,0,.465-1.454.9.9,0,0,1,1.784-.149,3.759,3.759,0,0,1-.882,2.759L30.2,46.553A.893.893,0,0,1,29.52,46.87Z" transform="translate(0.308 -5.726)" fill="#0b4a4c"/>
        <path id="Path_5821" data-name="Path 5821" d="M31.709,49.914A3.4,3.4,0,0,1,29.5,49.1a3.446,3.446,0,0,1-1.208-2.839.9.9,0,1,1,1.787.114,1.64,1.64,0,0,0,2.888,1.164L36.216,43.7a1.64,1.64,0,0,0-2.265-2.349.9.9,0,0,1-1.108-1.406,3.43,3.43,0,0,1,4.74,4.911L34.335,48.7A3.407,3.407,0,0,1,32,49.9Q31.855,49.914,31.709,49.914Z" transform="translate(0.304 -5.724)" fill="#0b4a4c"/>
        <path id="Path_5822" data-name="Path 5822" d="M16.241,35.462a.894.894,0,0,1-.747-.4L12.949,31.23a2.5,2.5,0,0,0-.765-.742L9.331,28.719a.9.9,0,1,1,.943-1.522l2.856,1.77a4.28,4.28,0,0,1,1.311,1.272l2.545,3.832a.9.9,0,0,1-.745,1.391Z" transform="translate(0.095 -5.855)" fill="#0b4a4c"/>
        <path id="Path_5823" data-name="Path 5823" d="M20.684,13.95H18.032a.9.9,0,1,1,0-1.79h2.651a.836.836,0,0,0,.359-.08,18.539,18.539,0,0,1,8.4-1.371.9.9,0,0,1-.148,1.784h0a16.99,16.99,0,0,0-7.475,1.2A2.638,2.638,0,0,1,20.684,13.95Z" transform="translate(0.184 -6.032)" fill="#0b4a4c"/>
        <path id="Line_17" data-name="Line 17" d="M-.106,2.019a.891.891,0,0,1-.467-.132A.9.9,0,0,1-.868.655L-.115-.573a.9.9,0,0,1,1.231-.3.9.9,0,0,1,.3,1.231L.658,1.591A.9.9,0,0,1-.106,2.019Z" transform="translate(13.033 14.027)" fill="#0b4a4c"/>
        <path id="Path_5824" data-name="Path 5824" d="M6.45,30.839a2.893,2.893,0,0,1-1.517-.431L1.389,28.234a2.917,2.917,0,0,1-.958-4L10.6,7.657a2.915,2.915,0,0,1,4-.958l3.544,2.174a2.915,2.915,0,0,1,.958,4L15.78,18.3a.9.9,0,0,1-1.526-.936l3.326-5.42a1.122,1.122,0,0,0-.368-1.542L13.668,8.226a1.122,1.122,0,0,0-1.542.368L1.957,25.167a1.123,1.123,0,0,0,.369,1.542l3.543,2.174a1.121,1.121,0,0,0,1.541-.369L10.363,23.7a.9.9,0,1,1,1.526.936L8.936,29.45a2.892,2.892,0,0,1-1.8,1.309A2.933,2.933,0,0,1,6.45,30.839Z" transform="translate(-0.002 -6.079)" fill="#0b4a4c"/>
        <path id="Path_5825" data-name="Path 5825" d="M40.642,49.27A3.774,3.774,0,0,1,39,48.892l-4.008-1.933a.9.9,0,0,1,.778-1.613l4.008,1.933a2,2,0,0,0,2.861-1.951.9.9,0,1,1,1.785-.139,3.8,3.8,0,0,1-3.781,4.081Z" transform="translate(0.371 -5.669)" fill="#0b4a4c"/>
        <path id="Path_5826" data-name="Path 5826" d="M61.645,30.733a2.913,2.913,0,0,1-2.505-1.42l-9.955-16.7A2.914,2.914,0,0,1,50.193,8.62l3.572-2.129A2.914,2.914,0,0,1,57.757,7.5l1.787,3a.9.9,0,1,1-1.538.917l-1.787-3a1.122,1.122,0,0,0-1.536-.389L51.11,10.158a1.122,1.122,0,0,0-.388,1.536l9.955,16.7a1.122,1.122,0,0,0,1.536.389l3.571-2.129a1.12,1.12,0,0,0,.389-1.536l-6.062-10.17a.9.9,0,1,1,1.538-.917L67.712,24.2a2.911,2.911,0,0,1-1.01,3.991l-3.571,2.129A2.893,2.893,0,0,1,61.645,30.733Z" transform="translate(0.525 -6.082)" fill="#0b4a4c"/>
        <path id="Path_5827" data-name="Path 5827" d="M54.423,33.066a.9.9,0,0,1-.861-1.142,7.488,7.488,0,0,1,3.2-4.35,6.785,6.785,0,0,1,2.276-.941l.3,1.764h0a5.247,5.247,0,0,0-1.692.731,5.625,5.625,0,0,0-2.372,3.289A.9.9,0,0,1,54.423,33.066Z" transform="translate(0.576 -5.862)" fill="#0b4a4c"/>
      </g>
    </g>
  </g>
</svg>
