<svg xmlns="http://www.w3.org/2000/svg" width="70" height="65" viewBox="0 0 70 65">
  <g id="Group_2717" data-name="Group 2717" transform="translate(9525 9145)">
    <rect id="Rectangle_3797" data-name="Rectangle 3797" width="70" height="65" transform="translate(-9525 -9145)" fill="none"/>
    <g id="Group_2706" data-name="Group 2706" transform="translate(-9510.707 -9140.814)">
      <path id="Path_5884" data-name="Path 5884" d="M4403.752-11908.478v-19.694l-1.318-1.512v-4.831l-4.932-3.27,2.671-5.3-2.671-5.344,4.932-3.476.57-5.562h5.847l3.015-4.751,4.814,2.289,5.956-2.289,3.258,4.751,5.536.522.475,5.544,4.622,2.972-2.1,4.891,2.1,5.75-4.622,3.27-.373,4.987-.65.918-.092,20.08-13.51-7.147Z" transform="translate(-4396.565 11963.809)" fill="#94ccd0"/>
      <ellipse id="Ellipse_681" data-name="Ellipse 681" cx="12.487" cy="12.487" rx="12.487" ry="12.487" transform="translate(8.297 8.208)" fill="#fff"/>
      <g id="Group_2653" data-name="Group 2653" transform="translate(0 -0.001)">
        <path id="Path_5863" data-name="Path 5863" d="M218.566,0a2.176,2.176,0,0,1,.987.238l3.882,1.989a.26.26,0,0,0,.235,0l3.883-1.99a2.166,2.166,0,0,1,2.808.753l2.368,3.662a.255.255,0,0,0,.2.118l4.358.219a2.157,2.157,0,0,1,2.054,2.056l.218,4.354a.262.262,0,0,0,.119.206l3.662,2.367a2.16,2.16,0,0,1,.753,2.807l-1.989,3.882a.264.264,0,0,0,0,.239l1.988,3.879a2.159,2.159,0,0,1-.753,2.808l-3.663,2.367a.262.262,0,0,0-.118.206l-.218,4.354a2.159,2.159,0,0,1-2.054,2.055l-4.356.219a.255.255,0,0,0-.205.118l-2.369,3.664a2.167,2.167,0,0,1-2.807.751l-3.881-1.988a.259.259,0,0,0-.236,0l-3.882,1.988a2.167,2.167,0,0,1-2.808-.752l-2.367-3.663a.258.258,0,0,0-.2-.118l-4.357-.219a2.161,2.161,0,0,1-2.055-2.055l-.219-4.355a.26.26,0,0,0-.119-.206l-3.662-2.367a2.16,2.16,0,0,1-.753-2.808L205,20.9a.255.255,0,0,0,0-.235l-1.989-3.884a2.161,2.161,0,0,1,.753-2.807l3.662-2.367a.259.259,0,0,0,.118-.2l.219-4.357a2.159,2.159,0,0,1,2.056-2.055l4.355-.219a.258.258,0,0,0,.2-.118L216.745.991A2.157,2.157,0,0,1,218.566,0Zm4.987,4.163a2.174,2.174,0,0,1-.989-.239l-3.88-1.988a.259.259,0,0,0-.336.09l-2.368,3.664a2.168,2.168,0,0,1-1.711.988l-4.355.219a.259.259,0,0,0-.247.247l-.219,4.355a2.17,2.17,0,0,1-.987,1.711L204.8,15.576a.26.26,0,0,0-.091.337l1.988,3.881a2.163,2.163,0,0,1,0,1.978l-1.987,3.879a.259.259,0,0,0,.091.337l3.662,2.367a2.171,2.171,0,0,1,.988,1.712l.219,4.354a.259.259,0,0,0,.247.247l4.356.219a2.168,2.168,0,0,1,1.71.988l2.367,3.663a.26.26,0,0,0,.337.089l3.881-1.988a2.164,2.164,0,0,1,1.977,0l3.879,1.987a.26.26,0,0,0,.337-.089l2.369-3.663a2.168,2.168,0,0,1,1.712-.988l4.355-.219a.258.258,0,0,0,.245-.245l.218-4.356a2.175,2.175,0,0,1,.987-1.711l3.664-2.368a.259.259,0,0,0,.091-.336L240.41,21.77a2.178,2.178,0,0,1,0-1.976l1.989-3.882a.259.259,0,0,0-.09-.336l-3.663-2.368a2.175,2.175,0,0,1-.988-1.71l-.218-4.356a.26.26,0,0,0-.244-.246l-4.357-.219a2.168,2.168,0,0,1-1.711-.988l-2.368-3.662a.259.259,0,0,0-.337-.09L224.54,3.924A2.167,2.167,0,0,1,223.553,4.163Z" transform="translate(-202.769 0)" fill="#0b4a4c"/>
        <path id="Path_5864" data-name="Path 5864" d="M210.828,58.625a1.445,1.445,0,0,1-1.446-1.446V43.755a.953.953,0,1,1,1.907,0v12.63l11.644-6.659a1.878,1.878,0,0,1,1.856,0l11.644,6.66V43.755a.953.953,0,0,1,1.907,0V57.179a1.446,1.446,0,0,1-2.166,1.255l-12.313-7.042-12.314,7.043A1.443,1.443,0,0,1,210.828,58.625Z" transform="translate(-203.077 -1.994)" fill="#0b4a4c"/>
        <path id="Path_5865" data-name="Path 5865" d="M223.936,8.233a12.932,12.932,0,1,1-9.144,3.788A12.848,12.848,0,0,1,223.936,8.233Zm0,23.957a11.025,11.025,0,1,0-7.8-3.229A10.953,10.953,0,0,0,223.936,32.19Z" transform="translate(-203.153 -0.383)" fill="#0b4a4c"/>
        <path id="Path_5866" data-name="Path 5866" d="M222.241,26.046a1.57,1.57,0,0,1-1.116-.461l-2.958-2.971a.953.953,0,1,1,1.351-1.345l2.726,2.738L229,17.381a.953.953,0,1,1,1.335,1.362L223.345,25.6A1.577,1.577,0,0,1,222.241,26.046Z" transform="translate(-203.473 -0.797)" fill="#0b4a4c"/>
      </g>
    </g>
  </g>
</svg>
