<svg xmlns="http://www.w3.org/2000/svg" width="70" height="65" viewBox="0 0 70 65">
  <g id="Group_2714" data-name="Group 2714" transform="translate(9525 9544)">
    <rect id="Rectangle_3795" data-name="Rectangle 3795" width="70" height="65" transform="translate(-9525 -9544)" fill="none"/>
    <g id="Group_2642" data-name="Group 2642" transform="translate(-9520 -9539.276)">
      <g id="Group_1737" data-name="Group 1737">
        <path id="Path_36" data-name="Path 36" d="M880.911,354.048a19.07,19.07,0,0,1-.22,2,25.635,25.635,0,0,1-1.714,5.879c-.29.694-.614,1.4-.979,2.113-.325.654-.689,1.324-1.084,2a48.209,48.209,0,0,1-4.186,6.025q-.8,1-1.7,2.008c-.745.849-1.539,1.714-2.383,2.582-.594.615-1.214,1.229-1.858,1.853a107.246,107.246,0,0,1-10.256,8.647q-.974.734-2,1.474-1.918,1.378-4,2.787-2.083-1.408-4-2.787-1.027-.742-2-1.474a107.748,107.748,0,0,1-10.046-8.447q-.989-.944-1.894-1.873c-.849-.869-1.648-1.724-2.388-2.573-.594-.66-1.149-1.319-1.678-1.963a48.263,48.263,0,0,1-4.376-6.259c-.4-.674-.76-1.344-1.084-2-.365-.714-.689-1.419-.979-2.113a25.641,25.641,0,0,1-1.714-5.879,19.022,19.022,0,0,1-.22-2,16.483,16.483,0,0,1,2-9.162,15.492,15.492,0,0,1,1.454-2.158,16.382,16.382,0,0,1,2.488-2.5,17.906,17.906,0,0,1,2.278-1.574,18.446,18.446,0,0,1,16.155-1.2,15.674,15.674,0,0,1,5.994,4.471,15.516,15.516,0,0,1,4-3.452,15.747,15.747,0,0,1,2-1.019,18.379,18.379,0,0,1,15.5.844,17.745,17.745,0,0,1,2.318,1.454,16.788,16.788,0,0,1,2.617,2.4,16.1,16.1,0,0,1,1.578,2.123A16.384,16.384,0,0,1,880.911,354.048Z" transform="translate(-819.931 -336.129)" fill="#012169"/>
        <path id="Path_39" data-name="Path 39" d="M886.969,346.455l-12.5,9.771-2.553,2-5.9,4.611-1.059.829-1.084.845-.914.714-1.269.994-.67.52-1.888,1.479-.229.18-3.937,3.077-2,1.564-10.046,7.847q-.988-.944-1.893-1.873c-.848-.869-1.648-1.724-2.386-2.573-.595-.66-1.15-1.319-1.68-1.963l8.013-6.259,2.558-2,4.161-3.252,1.274-1,.844-.659,1.154-.9,1.7-1.329,1.094-.854,1.044-.819,1.509-1.179,2.648-2.068,2-1.563,15.5-12.114a17.677,17.677,0,0,1,2.318,1.454,16.771,16.771,0,0,1,2.618,2.4A16.128,16.128,0,0,1,886.969,346.455Z" transform="translate(-828.353 -338.306)" fill="#fff"/>
        <path id="Path_39_-_Outline" data-name="Path 39 - Outline" d="M880.036,339.887l.127.067a18.029,18.029,0,0,1,2.347,1.472,17.015,17.015,0,0,1,2.652,2.43,16.4,16.4,0,0,1,1.6,2.152l.105.17-12.661,9.894-2.552,2-5.9,4.611-1.059.829-1.084.845-.914.714-1.269.994-.67.52-2.117,1.658-3.936,3.077-2,1.564-10.2,7.966-.139-.133c-.633-.6-1.272-1.236-1.9-1.879-.918-.939-1.7-1.784-2.4-2.58-.513-.569-1.032-1.177-1.683-1.97l-.145-.176,14.91-11.65,1.274-1,.844-.66,1.155-.9,1.7-1.329,1.094-.854,1.044-.819,4.157-3.247,2-1.564Zm6.243,6.187a16.011,16.011,0,0,0-1.45-1.925,16.571,16.571,0,0,0-2.583-2.366,17.524,17.524,0,0,0-2.162-1.368L864.7,352.44l-2,1.564-4.156,3.247-1.044.819-1.095.855-1.7,1.329-1.155.9-.844.659-1.274,1-6.719,5.251-7.833,6.119c.581.7,1.057,1.258,1.527,1.779l0,0c.688.791,1.466,1.629,2.38,2.563.577.592,1.165,1.175,1.749,1.735l9.894-7.729,2-1.563,4.166-3.257,1.889-1.479.67-.52,1.268-.993.915-.715,1.085-.844,1.058-.829,5.9-4.611,2.553-2Z" transform="translate(-827.958 -337.977)" fill="rgba(0,0,0,0)"/>
        <path id="Path_37" data-name="Path 37" d="M874.768,374.594q-.8,1-1.7,2.008c-.744.849-1.538,1.713-2.383,2.582-.594.614-1.214,1.229-1.858,1.853l-10.256-7.728-2-1.509-4.056-3.052-.234-.18-1.953-1.469-.7-.53-1.049-.789-1.144-.859-.854-.644-1.273-.959-6.29-4.741-2.653-2-12.159-9.162a15.515,15.515,0,0,1,1.453-2.158,16.356,16.356,0,0,1,2.488-2.5,17.908,17.908,0,0,1,2.278-1.574l16.155,12.174,2,1.5,2.273,1.714,1.564,1.179,1.089.819,1.044.784,2.023,1.523.869.654,1.129.854,1.06.794,4.486,3.382,2.652,2Z" transform="translate(-821.972 -338.662)" fill="#fff"/>
        <path id="Path_37_-_Outline" data-name="Path 37 - Outline" d="M868.487,381l-10.408-7.843-2-1.509-4.056-3.052-.236-.181-1.952-1.467-.7-.53-2.192-1.648-.855-.645-1.274-.959-8.942-6.739-12.314-9.278.094-.169a15.821,15.821,0,0,1,1.475-2.189,16.546,16.546,0,0,1,2.522-2.532,18.122,18.122,0,0,1,2.306-1.593l.128-.074.118.089,16.155,12.174,2,1.5,3.836,2.893,2.133,1.6,2.893,2.178,1.13.855,1.058.793,4.486,3.382,10.833,8.161-.144.179c-.551.685-1.125,1.363-1.706,2.016-.772.881-1.576,1.753-2.389,2.59-.549.567-1.158,1.175-1.863,1.858Zm-44.348-33.972L838.8,358.069l8.418,6.344,2.192,1.648.7.53,1.953,1.468.236.181,4.055,3.051,2,1.509,10.1,7.613c.644-.626,1.207-1.189,1.717-1.716.808-.832,1.607-1.7,2.375-2.575.527-.592,1.047-1.2,1.548-1.822l-10.466-7.885-4.486-3.382-1.058-.794-1.13-.855-2.892-2.178-2.133-1.6-3.836-2.892-2-1.5-16.036-12.084a17.708,17.708,0,0,0-2.123,1.479,16.155,16.155,0,0,0-2.454,2.464A15.361,15.361,0,0,0,824.139,347.026Z" transform="translate(-821.612 -338.329)" fill="rgba(0,0,0,0)"/>
        <path id="Path_40" data-name="Path 40" d="M880.989,338.79v49.695c-.649.49-1.314.979-2,1.474q-1.918,1.379-4,2.788-2.083-1.409-4-2.788c-.685-.495-1.349-.984-2-1.474V338.79a15.68,15.68,0,0,1,2,1.019,15.5,15.5,0,0,1,4,3.452,15.692,15.692,0,0,1,5.994-4.471Z" transform="translate(-844.388 -337.461)" fill="#fff"/>
        <path id="Path_40_-_Outline" data-name="Path 40 - Outline" d="M868.5,338.035l.31.131a16.007,16.007,0,0,1,2.026,1.034,15.721,15.721,0,0,1,3.881,3.3,15.707,15.707,0,0,1,3.882-3.3,15.947,15.947,0,0,1,2.025-1.033l.31-.131v50.141l-.089.067c-.639.482-1.295.965-2,1.477-1.331.956-2.677,1.9-4,2.792l-.124.084-.124-.084c-1.326-.9-2.673-1.836-4-2.792-.71-.513-1.365-1-2-1.477l-.089-.067Zm11.99,49.919V338.711a15.448,15.448,0,0,0-5.6,4.272l-.171.208-.172-.208a15.308,15.308,0,0,0-3.939-3.4,15.544,15.544,0,0,0-1.661-.87v49.244c.606.457,1.231.917,1.905,1.4,1.284.923,2.584,1.831,3.867,2.7,1.281-.868,2.581-1.776,3.866-2.7C879.255,388.873,879.88,388.413,880.489,387.954Z" transform="translate(-844.11 -337.042)" fill="rgba(0,0,0,0)"/>
        <path id="Path_41" data-name="Path 41" d="M874.526,378.179c-.744.849-1.538,1.713-2.382,2.583l-12.114-9.127-1.979-1.489-.02-.015-1.938-1.464-.69-.519-1.5-1.129-2.893-2.178-.974-.734-1.154-.869-.844-.635-3.247-2.448-2.653-2-15.021-11.32a16.359,16.359,0,0,1,2.488-2.5l18.343,13.818.09.07,2,1.5.565.424,1.134.854,2.128,1.6,2.893,2.178,1.274.959.914.689,1.084.819,1.179.889,2.653,2Z" transform="translate(-823.428 -340.238)" fill="#c8102e"/>
        <path id="Path_42" data-name="Path 42" d="M887.072,345.788l-15.221,11.894-2.557,2-2.658,2.078-1.128.884-.87.679-1.274.994-2.852,2.228-1.444,1.129-.674.529-1.749,1.364-.13.105-1.868,1.459-11.939,9.336c-.849-.869-1.648-1.723-2.388-2.573l10.515-8.222,2.557-2,1.254-.979.854-.67,1.144-.894.975-.764,2.852-2.228,2.143-1.673,1-.784,1.019-.8,1.539-1.2.459-.36,17.819-13.932A16.755,16.755,0,0,1,887.072,345.788Z" transform="translate(-830.034 -339.763)" fill="#c8102e"/>
        <path id="Path_38" data-name="Path 38" d="M880.911,354.048a19.07,19.07,0,0,1-.22,2,25.635,25.635,0,0,1-1.714,5.879c-.29.694-.614,1.4-.979,2.113-.325.654-.689,1.324-1.084,2a48.209,48.209,0,0,1-4.186,6.025q-.8,1-1.7,2.008c-.745.849-1.539,1.714-2.383,2.582-.594.615-1.214,1.229-1.858,1.853a107.246,107.246,0,0,1-10.256,8.647q-.974.734-2,1.474-1.918,1.378-4,2.787-2.083-1.408-4-2.787-1.027-.742-2-1.474a107.748,107.748,0,0,1-10.046-8.447q-.989-.944-1.894-1.873c-.849-.869-1.648-1.724-2.388-2.573-.594-.66-1.149-1.319-1.678-1.963a48.263,48.263,0,0,1-4.376-6.259c-.4-.674-.76-1.344-1.084-2-.365-.714-.689-1.419-.979-2.113a25.641,25.641,0,0,1-1.714-5.879,19.022,19.022,0,0,1-.22-2,16.483,16.483,0,0,1,2-9.162,15.492,15.492,0,0,1,1.454-2.158,16.382,16.382,0,0,1,2.488-2.5,17.906,17.906,0,0,1,2.278-1.574,18.446,18.446,0,0,1,16.155-1.2,15.674,15.674,0,0,1,5.994,4.471,15.516,15.516,0,0,1,4-3.452,15.747,15.747,0,0,1,2-1.019,18.379,18.379,0,0,1,15.5.844,17.745,17.745,0,0,1,2.318,1.454,16.788,16.788,0,0,1,2.617,2.4,16.1,16.1,0,0,1,1.578,2.123A16.384,16.384,0,0,1,880.911,354.048Z" transform="translate(-819.931 -336.129)" fill="none"/>
        <path id="Path_43" data-name="Path 43" d="M880.944,372a18.758,18.758,0,0,1-.219,2,25.647,25.647,0,0,1-1.714,5.88q-.434,1.041-.978,2.113c-.324.655-.689,1.324-1.084,2H824.2c-.4-.674-.759-1.344-1.083-2-.365-.714-.69-1.419-.979-2.113a25.664,25.664,0,0,1-1.714-5.88,18.789,18.789,0,0,1-.219-2Z" transform="translate(-819.965 -354.081)" fill="#fff"/>
        <path id="Path_43_-_Outline" data-name="Path 43 - Outline" d="M819.672,371.5h61.214l-.012.234a19.521,19.521,0,0,1-.222,2.022,26.044,26.044,0,0,1-1.728,5.93c-.3.713-.629,1.429-.985,2.127-.318.641-.685,1.317-1.091,2.01l-.065.11H823.776l-.064-.109c-.38-.641-.748-1.318-1.092-2.012s-.688-1.413-.985-2.127a25.965,25.965,0,0,1-1.728-5.931,19.262,19.262,0,0,1-.222-2.021Zm60.743.445H820.143c.038.558.106,1.142.2,1.74a25.518,25.518,0,0,0,1.7,5.829c.294.7.621,1.41.972,2.1v0c.32.645.66,1.275,1.012,1.875h52.5c.375-.647.715-1.277,1.012-1.875l0,0c.351-.689.679-1.395.972-2.1a25.552,25.552,0,0,0,1.7-5.829C880.309,373.087,880.377,372.5,880.415,371.945Z" transform="translate(-819.672 -353.803)" fill="rgba(0,0,0,0)"/>
        <path id="Path_44" data-name="Path 44" d="M880.945,376a25.661,25.661,0,0,1-1.714,5.88q-.434,1.042-.979,2.113h-54.92q-.547-1.071-.979-2.113A25.659,25.659,0,0,1,820.64,376Z" transform="translate(-820.185 -356.083)" fill="#c8102e"/>
        <path id="Path_45" data-name="Path 45" d="M880.992,340.83v50.149q-1.918,1.379-4,2.788-2.084-1.409-4-2.788V340.83a15.5,15.5,0,0,1,4,3.452A15.512,15.512,0,0,1,880.992,340.83Z" transform="translate(-846.389 -338.482)" fill="#c8102e"/>
      </g>
    </g>
  </g>
</svg>
