<svg xmlns="http://www.w3.org/2000/svg" width="70" height="65" viewBox="0 0 70 65">
  <g id="Group_2718" data-name="Group 2718" transform="translate(9525 9012)">
    <rect id="Rectangle_3796" data-name="Rectangle 3796" width="70" height="65" transform="translate(-9525 -9012)" fill="none"/>
    <g id="Group_2707" data-name="Group 2707" transform="translate(-9520.325 -9008.678)">
      <path id="Path_5885" data-name="Path 5885" d="M4666.916-11914h58.976l-3.026-7.375-7.934-2.3-5.88-1.608-2.879-3.694-.975-1.933,3.854-2.268,1.8-1.45,2.2-2.4,1.52-3.366.559-2.667,3.122-.932.742-1.61v-3.429l-2.4-1.574h-1.666v-4.731l-1.186-4.815-2.1-4.428-3.9-2.585-4.29-2.354-4.535-.958h-6.155l-3.415,1.81-5.051,3.095-4.031,5.42-1.5,6.3v3.243l-2.994,1.04-1.173,2.411,1.173,3.162,2.994.854h4.3l1.228,4.164,1.472,2.9,2.365,2.315-.377,2.046-.684,2.878-2.423,2.586-5.388,2.572-5.62,1-3.522,1.851Z" transform="translate(-4666.033 11971.71)" fill="#94ccd0"/>
      <path id="Path_5890" data-name="Path 5890" d="M4766.256-11935.692l-1.237,4.166-1.578,1.71,1.578,1.813,4.561,2.42,4.117,1.371h2.924l4.909-1.371,3.268-2.9,1.631-1.044-3.061-4.928h-5.3l-.869,2.564h-4.618l-1.477-1.824-.531-1.522-4.314-1.748Z" transform="translate(-4744.33 11975.159)" fill="#fff"/>
      <path id="Path_5891" data-name="Path 5891" d="M4771.293-11932.065l-4.036-2.282-4.038-4.288-1.651-5.021-.241-5.059.767-7.866.443-1.219,4.875.99,4.978-.2,5.361-1.9,2.692-2.421,1.128.432,1.34,1.989,2.169,1.745,3.307,1.361,1.327,1.37v3.444l-.428,5.814-1.421,4.029-1.486,2.763a7.448,7.448,0,0,1-2.515,5.3c-2.514,2.066-3.817,1.01-3.817,1.01l-2.3.583v-1.187l-1.517-1.678h-3.13Z" transform="translate(-4744.548 11972.652)" fill="#fff"/>
      <g id="Group_2656" data-name="Group 2656" transform="translate(0 0)">
        <path id="Path_5868" data-name="Path 5868" d="M331.881,39.728a1.035,1.035,0,0,1-.429-.093,14.593,14.593,0,0,1-2.982-1.8,1.039,1.039,0,1,1,1.283-1.635,12.519,12.519,0,0,0,2.557,1.542,1.039,1.039,0,0,1-.43,1.986Z" transform="translate(-306.74 1.057)" fill="#17494d"/>
        <path id="Path_5869" data-name="Path 5869" d="M327.052,36.593a1.037,1.037,0,0,1-.826-.408,17.278,17.278,0,0,1-3.024-6.739,28.221,28.221,0,0,1-.628-6.823,35.963,35.963,0,0,1,.931-7.475,1.039,1.039,0,0,1,2.013.518h0a34.563,34.563,0,0,0-.867,7.047,26.08,26.08,0,0,0,.583,6.3,15.21,15.21,0,0,0,2.642,5.911,1.039,1.039,0,0,1-.825,1.67Z" transform="translate(-306.956 0.212)" fill="#17494d"/>
        <path id="Path_5870" data-name="Path 5870" d="M337.755,43.371h-1.816a3.433,3.433,0,1,1,0-6.867h1.816a3.433,3.433,0,1,1,0,6.867Zm-1.816-4.788a1.355,1.355,0,1,0,0,2.71h1.816a1.355,1.355,0,1,0,0-2.71Z" transform="translate(-306.567 1.078)" fill="#17494d"/>
        <path id="Path_5871" data-name="Path 5871" d="M341.415,41.3q-.785,0-1.6-.068a1.039,1.039,0,1,1,.172-2.071,12.682,12.682,0,0,0,9.654-2.838,15.273,15.273,0,0,0,4.076-5.823,1.039,1.039,0,1,1,1.925.783,17.357,17.357,0,0,1-4.651,6.62A14.3,14.3,0,0,1,341.415,41.3Z" transform="translate(-306.318 0.818)" fill="#17494d"/>
        <path id="Path_5872" data-name="Path 5872" d="M331.975,17a27.269,27.269,0,0,1-8.7-1.588,1.039,1.039,0,0,1,.668-1.968,23.66,23.66,0,0,0,9.4,1.424,13.287,13.287,0,0,0,5.868-1.814,10.9,10.9,0,0,0,4.055-4.2,1.039,1.039,0,1,1,1.893.859,12.745,12.745,0,0,1-4.757,5.044,15.276,15.276,0,0,1-6.8,2.17Q332.806,17,331.975,17Z" transform="translate(-306.956 -0.028)" fill="#17494d"/>
        <path id="Path_5873" data-name="Path 5873" d="M347.971,35.239l-.929-1.859-.025.013a5.607,5.607,0,0,0,1.855-2.645c1.517-3.566,1.583-8.644,1.371-12.277a.759.759,0,0,0-.6-.68,10.575,10.575,0,0,1-3.716-1.694,15.45,15.45,0,0,1-4.3-4.821,1.039,1.039,0,1,1,1.786-1.063c1.036,1.742,3.284,4.778,6.693,5.55a2.846,2.846,0,0,1,2.22,2.586c.339,5.818-.227,10.377-1.682,13.549A6.766,6.766,0,0,1,347.971,35.239Z" transform="translate(-306.216 0.029)" fill="#17494d"/>
        <path id="Path_5874" data-name="Path 5874" d="M319.818,27.069a1.039,1.039,0,0,1-1.038-1.013,51.322,51.322,0,0,1,.438-10.047,18.152,18.152,0,0,1,4.41-9.334A19.553,19.553,0,0,1,338.546.361a24.237,24.237,0,0,1,8.719,2.024,16.38,16.38,0,0,1,6.96,5.768c3.236,4.812,3.1,10.567,2.973,15.645a1.039,1.039,0,1,1-2.078-.05c.121-5,.247-10.172-2.62-14.434a14.334,14.334,0,0,0-6.1-5.037,22.177,22.177,0,0,0-7.974-1.841,16.148,16.148,0,0,0-7.22,1.384,17.621,17.621,0,0,0-6.045,4.251,15.924,15.924,0,0,0-3.9,8.3A48.044,48.044,0,0,0,320.857,26a1.039,1.039,0,0,1-1.013,1.065Z" transform="translate(-307.106 -0.338)" fill="#17494d"/>
        <path id="Path_5875" data-name="Path 5875" d="M354.736,26.435A1.039,1.039,0,0,1,353.7,25.4c0-.189,0-.378,0-.568a1.039,1.039,0,0,1,2.078.008c0,.189,0,.374,0,.56A1.039,1.039,0,0,1,354.736,26.435Z" transform="translate(-305.737 0.58)" fill="#17494d"/>
        <path id="Path_5876" data-name="Path 5876" d="M319.922,28.98h-1.287a3.916,3.916,0,0,1-3.911-3.911V23.713a3.916,3.916,0,0,1,3.911-3.911h1.287a1.039,1.039,0,1,1,0,2.078h-1.287a1.835,1.835,0,0,0-1.833,1.833v1.355a1.835,1.835,0,0,0,1.833,1.833h1.287a1.039,1.039,0,1,1,0,2.078Z" transform="translate(-307.263 0.424)" fill="#17494d"/>
        <path id="Path_5877" data-name="Path 5877" d="M356.123,28.98h-1.288a1.039,1.039,0,0,1,0-2.078h1.288a1.835,1.835,0,0,0,1.833-1.833V23.713a1.835,1.835,0,0,0-1.833-1.833h-1.288a1.039,1.039,0,0,1,0-2.078h1.288a3.916,3.916,0,0,1,3.911,3.911v1.355A3.916,3.916,0,0,1,356.123,28.98Z" transform="translate(-305.733 0.424)" fill="#17494d"/>
        <path id="Path_5878" data-name="Path 5878" d="M308.584,57.235a1.04,1.04,0,0,1-1.026-1.211,14.653,14.653,0,0,1,1.67-4.451,9.541,9.541,0,0,1,7.563-5.074,25.942,25.942,0,0,0,6.016-1.632c3.678-1.549,5.5-3.637,5.414-6.208a1.039,1.039,0,0,1,2.077-.069c.116,3.48-2.209,6.319-6.724,8.209a27.613,27.613,0,0,1-6.545,1.765l-.035,0a7.449,7.449,0,0,0-5.966,4.046,12.587,12.587,0,0,0-1.419,3.753A1.039,1.039,0,0,1,308.584,57.235Z" transform="translate(-307.544 1.12)" fill="#17494d"/>
        <path id="Path_5879" data-name="Path 5879" d="M365.843,56.73a1.039,1.039,0,0,1-1.029-.9,8.887,8.887,0,0,0-4.211-6.82,9.4,9.4,0,0,0-3.436-1.247c-9.561-.729-12.106-6.051-12.21-6.277l1.889-.866,0-.008a7.267,7.267,0,0,0,2.089,2.289,16.2,16.2,0,0,0,8.408,2.791l.021,0a11.278,11.278,0,0,1,4.315,1.536,10.952,10.952,0,0,1,5.2,8.324,1.039,1.039,0,0,1-.892,1.168A1.05,1.05,0,0,1,365.843,56.73Z" transform="translate(-306.079 1.239)" fill="#17494d"/>
        <path id="Path_5880" data-name="Path 5880" d="M338.1,50.517a15.852,15.852,0,0,1-4.657-.73,21.56,21.56,0,0,1-7.213-3.929,1.039,1.039,0,0,1,1.372-1.561h0a19.776,19.776,0,0,0,6.514,3.523c4.9,1.491,9.254.325,12.932-3.466a1.039,1.039,0,1,1,1.492,1.447A14.2,14.2,0,0,1,338.1,50.517Z" transform="translate(-306.826 1.373)" fill="#17494d"/>
      </g>
    </g>
  </g>
</svg>
