<svg xmlns="http://www.w3.org/2000/svg" width="62" height="54" viewBox="0 0 62 54">
  <g id="Group_2729" data-name="Group 2729" transform="translate(-27 -2202)">
    <rect id="Rectangle_3350" data-name="Rectangle 3350" width="62" height="54" transform="translate(27 2202)" fill="none"/>
    <path id="Path_6117" data-name="Path 6117" d="M11.009-37.1V-78.355H.248L7.422-88.04H20.838V-37.1Zm25.468.574a6.927,6.927,0,0,1-5.094-2.081A6.927,6.927,0,0,1,29.3-43.7,6.927,6.927,0,0,1,31.384-48.8a6.927,6.927,0,0,1,5.094-2.081,6.9,6.9,0,0,1,5.058,2.116A6.9,6.9,0,0,1,43.652-43.7a6.9,6.9,0,0,1-2.116,5.058A6.9,6.9,0,0,1,36.478-36.529Z" transform="translate(26.752 2291.04)" fill="#fde7a4"/>
  </g>
</svg>
