<svg xmlns="http://www.w3.org/2000/svg" width="62" height="54" viewBox="0 0 62 54">
  <g id="Group_2728" data-name="Group 2728" transform="translate(-27 -2312)">
    <rect id="Rectangle_3351" data-name="Rectangle 3351" width="62" height="54" transform="translate(27 2312)" fill="none"/>
    <path id="Path_6119" data-name="Path 6119" d="M39.236-48.108v9.526H5.084V-41.9a18.164,18.164,0,0,1,.423-3.951A20.266,20.266,0,0,1,6.531-49.2a13.313,13.313,0,0,1,1.8-3q1.2-1.552,2.046-2.54a20.921,20.921,0,0,1,2.576-2.4q1.729-1.411,2.646-2.082t2.893-2.046q1.976-1.376,2.752-1.94,7.9-5.5,7.9-10.3a6.446,6.446,0,0,0-1.764-4.657A6.436,6.436,0,0,0,22.513-80a7.693,7.693,0,0,0-5.469,2.011,6.4,6.4,0,0,0-2.082,5.045H5.225A15.582,15.582,0,0,1,10.2-84.906a17.686,17.686,0,0,1,12.525-4.622,16.737,16.737,0,0,1,11.4,4.093q4.692,4.093,4.692,11.361a17.347,17.347,0,0,1-2.576,9.843,32.526,32.526,0,0,1-8.009,7.8q-.494.353-2.54,1.729t-3.1,2.152a22.949,22.949,0,0,0-2.364,2.046,6.909,6.909,0,0,0-1.729,2.4Zm13.2,10.09a6.813,6.813,0,0,1-5.01-2.046,6.813,6.813,0,0,1-2.046-5.01,6.813,6.813,0,0,1,2.046-5.01,6.813,6.813,0,0,1,5.01-2.046,6.789,6.789,0,0,1,4.975,2.082,6.789,6.789,0,0,1,2.082,4.975A6.789,6.789,0,0,1,57.406-40.1,6.789,6.789,0,0,1,52.431-38.018Z" transform="translate(21.916 2402.528)" fill="#fde7a4"/>
  </g>
</svg>
