<svg xmlns="http://www.w3.org/2000/svg" width="62" height="54" viewBox="0 0 62 54">
  <g id="Group_2727" data-name="Group 2727" transform="translate(-27 -2422)">
    <rect id="Rectangle_3352" data-name="Rectangle 3352" width="62" height="54" transform="translate(27 2422)" fill="none"/>
    <path id="Path_6120" data-name="Path 6120" d="M22.892-38.018A19.349,19.349,0,0,1,10-42.55q-5.376-4.533-5.657-12.4H13.9a7.662,7.662,0,0,0,2.776,5.516A9.67,9.67,0,0,0,22.892-47.5a8.361,8.361,0,0,0,5.446-1.687,5.773,5.773,0,0,0,2.143-4.568A5.964,5.964,0,0,0,28.3-58.678a9.258,9.258,0,0,0-5.973-1.757H18.114v-7.871h3.795a7.712,7.712,0,0,0,5.271-1.616,5.734,5.734,0,0,0,1.9-4.357,5.042,5.042,0,0,0-1.792-4.146,6.874,6.874,0,0,0-4.673-1.616,7.967,7.967,0,0,0-5.552,1.968,6.3,6.3,0,0,0-2.108,5.06h-9.7A15.116,15.116,0,0,1,10.454-85a17.924,17.924,0,0,1,12.157-4.533q7.449,0,11.806,4.181a13.707,13.707,0,0,1,4.357,10.3,12.513,12.513,0,0,1-1.616,6.289A13.353,13.353,0,0,1,33.222-64.3a12.038,12.038,0,0,1,4.989,4.357,12.248,12.248,0,0,1,1.968,6.957A13.673,13.673,0,0,1,35.4-42.2Q30.622-38.018,22.892-38.018Zm30.077-.211a6.786,6.786,0,0,1-4.989-2.038,6.786,6.786,0,0,1-2.038-4.989,6.786,6.786,0,0,1,2.038-4.989,6.786,6.786,0,0,1,4.989-2.038,6.761,6.761,0,0,1,4.954,2.073A6.761,6.761,0,0,1,60-45.256,6.761,6.761,0,0,1,57.924-40.3,6.761,6.761,0,0,1,52.969-38.228Z" transform="translate(22.66 2512.528)" fill="#fde7a4"/>
  </g>
</svg>
