<svg xmlns="http://www.w3.org/2000/svg" width="62" height="54" viewBox="0 0 62 54">
  <g id="Group_2726" data-name="Group 2726" transform="translate(-27 -2502)">
    <rect id="Rectangle_3353" data-name="Rectangle 3353" width="62" height="54" transform="translate(27 2502)" fill="none"/>
    <path id="Path_6122" data-name="Path 6122" d="M26.712,0V-11.664H1.3v-7.992l26.5-31.464h8.784v30.384h6.7v9.072h-6.7V0ZM13.392-20.736h13.32V-36.5ZM55.872.576A6.952,6.952,0,0,1,50.76-1.512a6.952,6.952,0,0,1-2.088-5.112,6.952,6.952,0,0,1,2.088-5.112,6.952,6.952,0,0,1,5.112-2.088A6.927,6.927,0,0,1,60.948-11.7a6.927,6.927,0,0,1,2.124,5.076,6.927,6.927,0,0,1-2.124,5.076A6.927,6.927,0,0,1,55.872.576Z" transform="translate(25.704 2554.272)" fill="#fde7a4"/>
  </g>
</svg>
