<svg xmlns="http://www.w3.org/2000/svg" width="62" height="54" viewBox="0 0 62 54">
  <g id="Group_2725" data-name="Group 2725" transform="translate(-27 -2582)">
    <rect id="Rectangle_3354" data-name="Rectangle 3354" width="62" height="54" transform="translate(27 2582)" fill="none"/>
    <path id="Path_6123" data-name="Path 6123" d="M20.448.792A19.039,19.039,0,0,1,7.884-3.672a14.822,14.822,0,0,1-5.652-11.16H12.456A7.456,7.456,0,0,0,15.3-10.584a8.311,8.311,0,0,0,5.148,1.656A7.648,7.648,0,0,0,26.316-11.2a7.95,7.95,0,0,0,2.124-5.652,7.772,7.772,0,0,0-2.2-5.688,7.584,7.584,0,0,0-5.652-2.232,8.659,8.659,0,0,0-5.04,1.44A7.718,7.718,0,0,0,12.6-19.44L3.888-22.1,9.648-51.12H34.56v9.576H17.28l-1.944,9.576A13.022,13.022,0,0,1,22.392-33.7a14.712,14.712,0,0,1,11.556,4.9Q38.3-23.9,38.3-16.056q0,7.632-4.932,12.24T20.448.792ZM51.192.576A6.952,6.952,0,0,1,46.08-1.512a6.952,6.952,0,0,1-2.088-5.112,6.952,6.952,0,0,1,2.088-5.112,6.952,6.952,0,0,1,5.112-2.088A6.927,6.927,0,0,1,56.268-11.7a6.927,6.927,0,0,1,2.124,5.076,6.927,6.927,0,0,1-2.124,5.076A6.927,6.927,0,0,1,51.192.576Z" transform="translate(24.768 2634.164)" fill="#fde7a4"/>
  </g>
</svg>
