<svg xmlns="http://www.w3.org/2000/svg" width="134" height="134" viewBox="0 0 134 134">
  <g id="Group_2132" data-name="Group 2132" transform="translate(12099 -15345)">
    <rect id="Rectangle_3332" data-name="Rectangle 3332" width="134" height="134" transform="translate(-12099 15345)" fill="none"/>
    <g id="Group_2128" data-name="Group 2128" transform="translate(-12578.749 13712.209)">
      <path id="blob_10_" data-name="blob (10)" d="M18.711-30.981c5.783,11.02,4.22,25.322-2.345,36.967C9.724,17.631-1.921,26.54-13.019,26.228S-34.746,16.38-45.141,2.547C-55.613-11.287-65.93-29.5-60.693-40.125c5.314-10.629,26.26-13.833,43.3-11.567C-.358-49.5,12.928-41.923,18.711-30.981Z" transform="translate(527.422 1709.855) rotate(112)" fill="#e5fcff"/>
      <path id="Path_5203" data-name="Path 5203" d="M11.04.48C18.576.48,23.9-3.5,23.9-9.216c0-3.6-2.5-6.432-6.72-8.016,3.792-1.632,5.808-4.224,5.808-7.488,0-5.136-4.224-8.64-10.512-8.64A15.007,15.007,0,0,0,1.3-27.648L2.88-25.536c2.784-2.016,5.04-2.928,7.152-2.928A4.045,4.045,0,0,1,14.4-24.24c0,3.5-2.64,5.472-7.92,5.952l.384,2.736c5.376,0,8.4,2.064,8.4,6.048,0,3.456-2.4,5.664-6.24,5.664a18.039,18.039,0,0,1-6.96-1.536L.576-3.12A16,16,0,0,0,11.04.48Z" transform="translate(534 1719)" fill="#17494d"/>
    </g>
  </g>
</svg>
