<svg xmlns="http://www.w3.org/2000/svg" width="134" height="134" viewBox="0 0 134 134">
  <g id="Group_2134" data-name="Group 2134" transform="translate(11752 -15345)">
    <rect id="Rectangle_3331" data-name="Rectangle 3331" width="134" height="134" transform="translate(-11752 15345)" fill="none"/>
    <g id="Group_2127" data-name="Group 2127" transform="translate(-12629.727 13919.004)">
      <path id="blob_9_" data-name="blob (9)" d="M28.452-47.07c7.916,13.444,4.914,33.439-4.5,47.907C14.53,15.372-1.3,24.381-13.722,22.4-26.211,20.422-35.287,7.524-43-5.988-50.643-19.5-56.99-33.627-52.418-45.023c4.5-11.465,19.927-20.268,36.988-21.224C1.7-67.27,20.468-60.446,28.452-47.07Z" transform="translate(924.016 1501.841) rotate(85.008)" fill="#fff3ce"/>
      <path id="Path_5202" data-name="Path 5202" d="M11.04.48c7.536,0,12.86-3.98,12.86-9.7,0-3.6-2.5-6.432-6.72-8.016,3.792-1.632,5.808-4.224,5.808-7.488,0-5.136-4.224-8.64-10.512-8.64A15.007,15.007,0,0,0,1.3-27.648l1.58,2.112c2.784-2.016,5.04-2.928,7.152-2.928a4.045,4.045,0,0,1,3.139,1.124,4.045,4.045,0,0,1,1.229,3.1c0,3.5-2.64,5.472-7.92,5.952l.384,2.736c5.376,0,8.4,2.064,8.4,6.048,0,3.456-2.4,5.664-6.24,5.664a18.039,18.039,0,0,1-6.96-1.536L.576-3.12A16,16,0,0,0,11.04.48Z" transform="translate(934 1508)" fill="#17494d"/>
    </g>
  </g>
</svg>
