<svg xmlns="http://www.w3.org/2000/svg" width="134" height="134" viewBox="0 0 134 134">
  <g id="Group_2130" data-name="Group 2130" transform="translate(12456 -15345)">
    <rect id="Rectangle_3334" data-name="Rectangle 3334" width="134" height="134" transform="translate(-12456 15345)" fill="none"/>
    <g id="Group_2125" data-name="Group 2125" transform="translate(-12807.627 13922.233)">
      <path id="blob_7_" data-name="blob (7)" d="M39.638-27.162C45.712-10.093,35.409,13.9,17.494,26.813-.42,39.654-25.947,41.422-38.557,30.888c-12.61-10.457-12.3-33.139-5.536-51.13C-37.4-38.157-24.332-51.3-6.571-52.842,11.113-54.3,33.564-44.231,39.638-27.162Z" transform="translate(419.988 1498.384) rotate(19)" fill="#e5fcff"/>
      <path id="Path_5200" data-name="Path 5200" d="M26.784,0V-1.728l-1.536-.816C23.28-3.648,22.7-4.32,22.7-5.76V-7.44h4.224v-3.84H22.7v-21.6H15.072L.192-9.552.672-7.44h14.4v1.68c0,1.44-.528,2.16-2.5,3.216l-1.536.816V0ZM15.072-26.832V-11.28h-9.6ZM44.5.48c8.256,0,13.776-6.624,13.776-16.944,0-10.272-5.52-16.9-13.776-16.9-8.3,0-13.776,6.624-13.776,16.9C30.72-6.144,36.192.48,44.5.48Zm0-3.5c-3.312,0-5.184-4.944-5.184-13.44S41.184-29.856,44.5-29.856s5.184,4.9,5.184,13.392S47.808-3.024,44.5-3.024Z" transform="translate(389 1508)" fill="#17494d"/>
    </g>
  </g>
</svg>
