<svg xmlns="http://www.w3.org/2000/svg" width="134" height="134" viewBox="0 0 134 134">
  <g id="Group_2131" data-name="Group 2131" transform="translate(12288 -15345)">
    <rect id="Rectangle_3333" data-name="Rectangle 3333" width="134" height="134" transform="translate(-12288 15345)" fill="none"/>
    <g id="Group_2126" data-name="Group 2126" transform="translate(-12912.71 13922.233)">
      <path id="blob_8_" data-name="blob (8)" d="M24.6-19.38c5.488,19.219,3.54,38.527-8.594,48.446s-34.453,10.54-51.015-.62C-51.66,17.287-62.465-5.564-56.8-25.137c5.76-19.573,27.9-35.781,45.527-34.276C6.263-57.907,19.194-38.688,24.6-19.38Z" transform="translate(710.645 1492.487) rotate(-23.003)" fill="#fff3ce"/>
      <path id="Path_5201" data-name="Path 5201" d="M10.752.48c7.392,0,12.672-4.368,12.672-10.848,0-6-4.56-10.128-10.848-10.128A14.564,14.564,0,0,0,6.72-19.1l.528-7.488H20.976l.912-8.592H20.112l-1.1,1.3a3.457,3.457,0,0,1-2.88,1.008h-12L2.976-15.744,3.84-14.5a14.771,14.771,0,0,1,4.66-.764c3.984,0,6.288,1.92,6.288,5.616a5.782,5.782,0,0,1-1.705,4.329A5.782,5.782,0,0,1,8.74-3.648,13.26,13.26,0,0,1,2.208-5.184L.72-3.024A15.534,15.534,0,0,0,10.752.48Z" transform="translate(679 1508)" fill="#17494d"/>
    </g>
  </g>
</svg>
