<svg xmlns="http://www.w3.org/2000/svg" width="134" height="134" viewBox="0 0 134 134">
  <g id="Group_2133" data-name="Group 2133" transform="translate(11924 -15345)">
    <rect id="Rectangle_3330" data-name="Rectangle 3330" width="134" height="134" transform="translate(-11924 15345)" fill="none"/>
    <g id="Group_2129" data-name="Group 2129" transform="translate(-12695.659 13711.489)">
      <path id="blob_11_" data-name="blob (11)" d="M26.214-27.534C30.985-9.8,24.545,8.642,8.723,21.92-7.02,35.277-32.223,43.307-44.07,34.323-56,25.418-54.644-.5-46.932-22.286c7.792-21.7,21.944-39.2,37.05-39.515S21.364-45.264,26.214-27.534Z" transform="translate(839.012 1717.985) rotate(45)" fill="#fff3ce"/>
      <path id="Path_5204" data-name="Path 5204" d="M15.36.48c7.44,0,13.2-4.944,13.2-12.288,0-5.712-4.512-9.552-10.32-9.552a9.2,9.2,0,0,0-7.632,4.7c0-8.4,6.912-13.968,12.96-13.968a12.7,12.7,0,0,1,1.3.1l-.384-2.688a20.332,20.332,0,0,0-2.448-.144c-11.472,0-20.016,8.016-20.016,19.1C2.016-5.52,7.632.48,15.36.48Zm.672-3.5C12.912-3.02,10.8-7.052,10.8-13a5.221,5.221,0,0,1,4.56-3.36c2.784,0,4.752,2.5,4.752,6.288,0,4.176-1.584,7.052-4.08,7.052Z" transform="translate(821 1719)" fill="#17494d"/>
    </g>
  </g>
</svg>
