<svg xmlns="http://www.w3.org/2000/svg" width="73.19" height="59.98" viewBox="0 0 73.19 59.98">
  <g id="Group_2824" data-name="Group 2824" transform="translate(3766 151)">
    <path id="Path_6231" data-name="Path 6231" d="M35.08,16.1a1.275,1.275,0,0,0-.01.19V53.26a26.825,26.825,0,0,0-2.42-2.7c-3.47-3.37-9.62-7.5-19.5-8.41V2.74a38.408,38.408,0,0,1,8.12,2c6.56,2.41,11.2,6.23,13.81,11.36" transform="translate(-3766 -151)" fill="#09595e"/>
    <path id="Path_6232" data-name="Path 6232" d="M60.04,2.74V42.15c-9.88.91-16.03,5.04-19.5,8.41a28.1,28.1,0,0,0-2.42,2.7V16.29h.01a1.368,1.368,0,0,0-.02-.19c2.61-5.13,7.25-8.95,13.81-11.36a38.559,38.559,0,0,1,8.12-2" transform="translate(-3766 -151)" fill="#09595e"/>
    <path id="Path_6234" data-name="Path 6234" d="M33.74,55.6c-1.79-.4-5.57-1.27-9.48-2.08a96.284,96.284,0,0,0-10.54-1.78c-1.94-.13-3.88-.19-5.83-.21-1.69-.01-3.38.03-5.07.1V10.01h7.5l.22,34.7,3.91.85A39.11,39.11,0,0,1,30.2,52.85l.86.67Z" transform="translate(-3766 -151)" fill="#09595e"/>
    <path id="Path_6235" data-name="Path 6235" d="M70.37,10.01V51.63a101.636,101.636,0,0,0-10.9.11,96.285,96.285,0,0,0-10.54,1.78c-3.91.81-7.69,1.68-9.48,2.08l2.69-2.08.86-.67a39.11,39.11,0,0,1,15.75-7.29l3.9-.85.22-34.7Z" transform="translate(-3766 -151)" fill="#09595e"/>
    <rect id="Rectangle_3846" data-name="Rectangle 3846" width="73.19" height="59.98" transform="translate(-3766 -151)" fill="none"/>
  </g>
</svg>
