<svg xmlns="http://www.w3.org/2000/svg" width="40" height="40" viewBox="0 0 40 40">
  <g id="Group_2529" data-name="Group 2529" transform="translate(-10983 -1346)">
    <rect id="Rectangle_3677" data-name="Rectangle 3677" width="40" height="40" transform="translate(10983 1346)" fill="none"/>
    <g id="Group_2528" data-name="Group 2528" transform="translate(-1114.887 -623.975)">
      <path id="Subtraction_38" data-name="Subtraction 38" d="M16.341,34.861H1.09A1.09,1.09,0,0,1,0,33.772V1.089A1.09,1.09,0,0,1,1.09,0H16.341a1.091,1.091,0,0,1,1.09,1.089V33.772A1.091,1.091,0,0,1,16.341,34.861Zm-12.4-8.015a.817.817,0,1,0,0,1.634h9.773a.817.817,0,0,0,0-1.634Zm0-3.268a.817.817,0,0,0,0,1.634h6.987a.817.817,0,0,0,0-1.634Zm0-3.268a.817.817,0,1,0,0,1.633h9.773a.817.817,0,0,0,0-1.633ZM4.477,3.726A2.181,2.181,0,0,0,2.3,5.9v6.536A2.15,2.15,0,0,0,4.477,14.62h8.716a2.168,2.168,0,0,0,2.179-2.179V5.9a2.181,2.181,0,0,0-2.179-2.179ZM12.1,12.441H5.567a1.078,1.078,0,0,1-1.09-1.089V6.994a1.08,1.08,0,0,1,.7-1.013A.938.938,0,0,1,5.567,5.9H12.1a.921.921,0,0,1,.381.076,1.072,1.072,0,0,1,.708,1.013v4.358A1.09,1.09,0,0,1,12.1,12.441Z" transform="translate(12109.057 1972.545)" fill="#fff"/>
      <path id="Path_5740" data-name="Path 5740" d="M18.045,6.481a.918.918,0,0,0-.381-.076H11.127a.934.934,0,0,0-.392.076,1.077,1.077,0,0,0-.7,1.013v4.358a1.079,1.079,0,0,0,1.089,1.089h6.536a1.086,1.086,0,0,0,1.089-1.089V7.494A1.076,1.076,0,0,0,18.045,6.481Zm0,0a.918.918,0,0,0-.381-.076H11.127a.934.934,0,0,0-.392.076,1.077,1.077,0,0,0-.7,1.013v4.358a1.079,1.079,0,0,0,1.089,1.089h6.536a1.086,1.086,0,0,0,1.089-1.089V7.494A1.076,1.076,0,0,0,18.045,6.481Zm0,0a.918.918,0,0,0-.381-.076H11.127a.934.934,0,0,0-.392.076,1.077,1.077,0,0,0-.7,1.013v4.358a1.079,1.079,0,0,0,1.089,1.089h6.536a1.086,1.086,0,0,0,1.089-1.089V7.494A1.076,1.076,0,0,0,18.045,6.481Zm0,0a.918.918,0,0,0-.381-.076H11.127a.934.934,0,0,0-.392.076,1.077,1.077,0,0,0-.7,1.013v4.358a1.079,1.079,0,0,0,1.089,1.089h6.536a1.086,1.086,0,0,0,1.089-1.089V7.494A1.076,1.076,0,0,0,18.045,6.481Zm0,0a.918.918,0,0,0-.381-.076H11.127a.934.934,0,0,0-.392.076,1.077,1.077,0,0,0-.7,1.013v4.358a1.079,1.079,0,0,0,1.089,1.089h6.536a1.086,1.086,0,0,0,1.089-1.089V7.494A1.076,1.076,0,0,0,18.045,6.481Zm0,0a.918.918,0,0,0-.381-.076H11.127a.934.934,0,0,0-.392.076,1.077,1.077,0,0,0-.7,1.013v4.358a1.079,1.079,0,0,0,1.089,1.089h6.536a1.086,1.086,0,0,0,1.089-1.089V7.494A1.076,1.076,0,0,0,18.045,6.481Zm0,0a.918.918,0,0,0-.381-.076H11.127a.934.934,0,0,0-.392.076,1.077,1.077,0,0,0-.7,1.013v4.358a1.079,1.079,0,0,0,1.089,1.089h6.536a1.086,1.086,0,0,0,1.089-1.089V7.494A1.076,1.076,0,0,0,18.045,6.481Zm0,0a.918.918,0,0,0-.381-.076H11.127a.934.934,0,0,0-.392.076,1.077,1.077,0,0,0-.7,1.013v4.358a1.079,1.079,0,0,0,1.089,1.089h6.536a1.086,1.086,0,0,0,1.089-1.089V7.494A1.076,1.076,0,0,0,18.045,6.481Zm0,0a.918.918,0,0,0-.381-.076H11.127a.934.934,0,0,0-.392.076,1.077,1.077,0,0,0-.7,1.013v4.358a1.079,1.079,0,0,0,1.089,1.089h6.536a1.086,1.086,0,0,0,1.089-1.089V7.494A1.076,1.076,0,0,0,18.045,6.481Zm0,0a.918.918,0,0,0-.381-.076H11.127a.934.934,0,0,0-.392.076,1.077,1.077,0,0,0-.7,1.013v4.358a1.079,1.079,0,0,0,1.089,1.089h6.536a1.086,1.086,0,0,0,1.089-1.089V7.494A1.076,1.076,0,0,0,18.045,6.481Zm0,0a.918.918,0,0,0-.381-.076H11.127a.934.934,0,0,0-.392.076,1.077,1.077,0,0,0-.7,1.013v4.358a1.079,1.079,0,0,0,1.089,1.089h6.536a1.086,1.086,0,0,0,1.089-1.089V7.494A1.076,1.076,0,0,0,18.045,6.481Zm0,0a.918.918,0,0,0-.381-.076H11.127a.934.934,0,0,0-.392.076,1.077,1.077,0,0,0-.7,1.013v4.358a1.079,1.079,0,0,0,1.089,1.089h6.536a1.086,1.086,0,0,0,1.089-1.089V7.494A1.076,1.076,0,0,0,18.045,6.481ZM21.9.5H6.649A1.093,1.093,0,0,0,5.56,1.589V34.271a1.093,1.093,0,0,0,1.089,1.089H21.9a1.086,1.086,0,0,0,1.089-1.089V1.589A1.086,1.086,0,0,0,21.9.5ZM18.753,15.12H10.037a2.151,2.151,0,0,1-2.179-2.179V6.4a2.178,2.178,0,0,1,2.179-2.179h8.715A2.185,2.185,0,0,1,20.931,6.4v6.536a2.173,2.173,0,0,1-.719,1.623A2.149,2.149,0,0,1,18.753,15.12Zm-.708-8.639a.918.918,0,0,0-.381-.076H11.127a.934.934,0,0,0-.392.076,1.077,1.077,0,0,0-.7,1.013v4.358a1.079,1.079,0,0,0,1.089,1.089h6.536a1.086,1.086,0,0,0,1.089-1.089V7.494A1.076,1.076,0,0,0,18.045,6.481Zm0,0a.918.918,0,0,0-.381-.076H11.127a.934.934,0,0,0-.392.076,1.077,1.077,0,0,0-.7,1.013v4.358a1.079,1.079,0,0,0,1.089,1.089h6.536a1.086,1.086,0,0,0,1.089-1.089V7.494A1.076,1.076,0,0,0,18.045,6.481Zm0,0a.918.918,0,0,0-.381-.076H11.127a.934.934,0,0,0-.392.076,1.077,1.077,0,0,0-.7,1.013v4.358a1.079,1.079,0,0,0,1.089,1.089h6.536a1.086,1.086,0,0,0,1.089-1.089V7.494A1.076,1.076,0,0,0,18.045,6.481Zm0,0a.918.918,0,0,0-.381-.076H11.127a.934.934,0,0,0-.392.076,1.077,1.077,0,0,0-.7,1.013v4.358a1.079,1.079,0,0,0,1.089,1.089h6.536a1.086,1.086,0,0,0,1.089-1.089V7.494A1.076,1.076,0,0,0,18.045,6.481Zm0,0a.918.918,0,0,0-.381-.076H11.127a.934.934,0,0,0-.392.076,1.077,1.077,0,0,0-.7,1.013v4.358a1.079,1.079,0,0,0,1.089,1.089h6.536a1.086,1.086,0,0,0,1.089-1.089V7.494A1.076,1.076,0,0,0,18.045,6.481Zm0,0a.918.918,0,0,0-.381-.076H11.127a.934.934,0,0,0-.392.076,1.077,1.077,0,0,0-.7,1.013v4.358a1.079,1.079,0,0,0,1.089,1.089h6.536a1.086,1.086,0,0,0,1.089-1.089V7.494A1.076,1.076,0,0,0,18.045,6.481Zm0,0a.918.918,0,0,0-.381-.076H11.127a.934.934,0,0,0-.392.076,1.077,1.077,0,0,0-.7,1.013v4.358a1.079,1.079,0,0,0,1.089,1.089h6.536a1.086,1.086,0,0,0,1.089-1.089V7.494A1.076,1.076,0,0,0,18.045,6.481Zm0,0a.918.918,0,0,0-.381-.076H11.127a.934.934,0,0,0-.392.076,1.077,1.077,0,0,0-.7,1.013v4.358a1.079,1.079,0,0,0,1.089,1.089h6.536a1.086,1.086,0,0,0,1.089-1.089V7.494A1.076,1.076,0,0,0,18.045,6.481Zm0,0a.918.918,0,0,0-.381-.076H11.127a.934.934,0,0,0-.392.076,1.077,1.077,0,0,0-.7,1.013v4.358a1.079,1.079,0,0,0,1.089,1.089h6.536a1.086,1.086,0,0,0,1.089-1.089V7.494A1.076,1.076,0,0,0,18.045,6.481Zm0,0a.918.918,0,0,0-.381-.076H11.127a.934.934,0,0,0-.392.076,1.077,1.077,0,0,0-.7,1.013v4.358a1.079,1.079,0,0,0,1.089,1.089h6.536a1.086,1.086,0,0,0,1.089-1.089V7.494A1.076,1.076,0,0,0,18.045,6.481Zm0,0a.918.918,0,0,0-.381-.076H11.127a.934.934,0,0,0-.392.076,1.077,1.077,0,0,0-.7,1.013v4.358a1.079,1.079,0,0,0,1.089,1.089h6.536a1.086,1.086,0,0,0,1.089-1.089V7.494A1.076,1.076,0,0,0,18.045,6.481Z" transform="translate(12103.497 1972.045)" fill="none"/>
      <path id="Path_5741" data-name="Path 5741" d="M27.046,6.7,23.56,19.709V3.51l1.95.523A2.18,2.18,0,0,1,27.046,6.7" transform="translate(12105.106 1972.314)" fill="#fff"/>
      <path id="Path_5742" data-name="Path 5742" d="M27.046,6.7,23.56,19.709V3.51l1.95.523A2.18,2.18,0,0,1,27.046,6.7Z" transform="translate(12105.106 1972.314)" fill="none"/>
      <path id="Path_5743" data-name="Path 5743" d="M3.834,3.57V18.854L.576,6.7A2.18,2.18,0,0,1,2.112,4.028Z" transform="translate(12103.045 1972.319)" fill="#fff"/>
      <path id="Path_5744" data-name="Path 5744" d="M3.834,3.57V18.854L.576,6.7A2.18,2.18,0,0,1,2.112,4.028Z" transform="translate(12103.045 1972.319)" fill="none"/>
      <rect id="Rectangle_3675" data-name="Rectangle 3675" width="29.773" height="35.95" transform="translate(12103 1972)" fill="none"/>
    </g>
  </g>
</svg>
