<svg xmlns="http://www.w3.org/2000/svg" width="70" height="70" viewBox="0 0 70 70">
  <g id="Group_377" data-name="Group 377" transform="translate(6875 -7795)">
    <g id="Rectangle_747" data-name="Rectangle 747" transform="translate(-6875 7795)" fill="none" stroke="#f8f8f8" stroke-width="1">
      <rect width="70" height="70" stroke="none"/>
      <rect x="0.5" y="0.5" width="69" height="69" fill="none"/>
    </g>
    <g id="Group_372" data-name="Group 372" transform="translate(-6871 7802)">
      <path id="Path_36" data-name="Path 36" d="M882.738,354.587a19.441,19.441,0,0,1-.226,2.058,26.433,26.433,0,0,1-1.765,6.056q-.448,1.073-1.009,2.177c-.335.674-.71,1.364-1.117,2.058a49.723,49.723,0,0,1-4.312,6.206q-.826,1.027-1.749,2.069c-.767.875-1.585,1.765-2.455,2.66-.612.633-1.25,1.266-1.914,1.909a110.429,110.429,0,0,1-10.564,8.907q-1,.756-2.058,1.518-1.976,1.42-4.117,2.871-2.146-1.451-4.117-2.871-1.057-.764-2.058-1.518a110.949,110.949,0,0,1-10.348-8.7q-1.019-.973-1.95-1.93c-.875-.9-1.7-1.775-2.46-2.65-.612-.679-1.183-1.358-1.729-2.022a49.719,49.719,0,0,1-4.508-6.447c-.412-.695-.782-1.384-1.117-2.058q-.564-1.1-1.009-2.177a26.431,26.431,0,0,1-1.765-6.056,19.521,19.521,0,0,1-.226-2.058,16.97,16.97,0,0,1,2.063-9.437,16,16,0,0,1,1.5-2.223,16.828,16.828,0,0,1,2.563-2.573,18.462,18.462,0,0,1,2.346-1.621,19,19,0,0,1,16.641-1.235,16.135,16.135,0,0,1,2.058,1.05,15.974,15.974,0,0,1,4.117,3.556,16.15,16.15,0,0,1,6.175-4.605,18.932,18.932,0,0,1,15.967.87,18.2,18.2,0,0,1,2.388,1.5,17.263,17.263,0,0,1,2.7,2.47,16.61,16.61,0,0,1,1.626,2.187A16.875,16.875,0,0,1,882.738,354.587Z" transform="translate(-820.132 -336.129)" fill="#8ec4c7"/>
      <path id="Path_39" data-name="Path 39" d="M888.473,346.634,875.593,356.7l-2.629,2.058-6.077,4.749-1.091.854-1.116.87-.942.736-1.307,1.024-.689.535-1.945,1.523-.237.185L855.5,372.4l-2.058,1.611L843.1,382.1q-1.019-.972-1.95-1.93c-.875-.9-1.7-1.775-2.46-2.65-.612-.679-1.184-1.358-1.729-2.022l8.254-6.447,2.635-2.058,4.286-3.35,1.312-1.029.87-.679,1.189-.926,1.75-1.369,1.127-.88,1.075-.844,1.554-1.214,2.727-2.13,2.058-1.611,15.967-12.478a18.2,18.2,0,0,1,2.387,1.5,17.264,17.264,0,0,1,2.7,2.47A16.612,16.612,0,0,1,888.473,346.634Z" transform="translate(-828.301 -338.241)" fill="#fff" stroke="rgba(0,0,0,0)" stroke-miterlimit="10" stroke-width="1"/>
      <path id="Path_37" data-name="Path 37" d="M876.289,375.6q-.826,1.026-1.749,2.069c-.767.875-1.585,1.765-2.455,2.66-.612.633-1.25,1.266-1.914,1.909l-10.564-7.96-2.058-1.554-4.178-3.144-.242-.185-2.012-1.513-.721-.545-1.081-.813-1.178-.885-.88-.664-1.312-.988-6.478-4.883-2.732-2.058-12.524-9.437a15.984,15.984,0,0,1,1.5-2.223,16.833,16.833,0,0,1,2.562-2.573,18.479,18.479,0,0,1,2.347-1.621l16.641,12.54,2.058,1.549,2.341,1.765,1.611,1.214,1.122.844,1.076.808,2.084,1.569.9.674,1.163.88,1.091.818,4.621,3.484,2.732,2.058Z" transform="translate(-822.112 -338.586)" fill="#fff" stroke="rgba(0,0,0,0)" stroke-miterlimit="10" stroke-width="1"/>
      <path id="Path_40" data-name="Path 40" d="M881.349,338.79v51.189q-1,.757-2.058,1.518-1.976,1.42-4.117,2.871-2.146-1.451-4.116-2.871Q870,390.732,869,389.979V338.79a16.168,16.168,0,0,1,2.058,1.05,15.976,15.976,0,0,1,4.116,3.556,15.976,15.976,0,0,1,4.117-3.556A16.143,16.143,0,0,1,881.349,338.79Z" transform="translate(-843.854 -337.421)" fill="#fff" stroke="rgba(0,0,0,0)" stroke-miterlimit="10" stroke-width="1"/>
      <path id="Path_41" data-name="Path 41" d="M875.952,379.2c-.767.875-1.585,1.765-2.454,2.66l-12.478-9.4-2.038-1.533-.021-.015-2-1.508-.71-.535-1.544-1.163-2.979-2.243-1-.756-1.189-.9-.87-.654-3.345-2.521-2.732-2.058-15.473-11.66a16.82,16.82,0,0,1,2.563-2.573l18.895,14.233.093.072,2.058,1.549.581.437,1.168.88,2.192,1.652,2.979,2.243,1.312.988.942.71,1.117.844,1.214.916,2.732,2.058Z" transform="translate(-823.524 -340.115)" fill="#8ec4c7"/>
      <path id="Path_42" data-name="Path 42" d="M888.478,345.86,872.8,358.112l-2.635,2.058-2.737,2.141-1.163.911-.9.7-1.312,1.024-2.938,2.295-1.487,1.163-.695.545-1.8,1.4-.134.108-1.924,1.5-12.3,9.617c-.875-.9-1.7-1.775-2.459-2.65l10.832-8.47,2.635-2.058,1.291-1.009.88-.689,1.178-.921,1-.787,2.938-2.295,2.208-1.724,1.034-.808,1.05-.823,1.585-1.235.473-.37,18.354-14.351A17.269,17.269,0,0,1,888.478,345.86Z" transform="translate(-829.932 -339.654)" fill="#8ec4c7"/>
      <path id="Path_38" data-name="Path 38" d="M882.738,354.587a19.441,19.441,0,0,1-.226,2.058,26.433,26.433,0,0,1-1.765,6.056q-.448,1.073-1.009,2.177c-.335.674-.71,1.364-1.117,2.058a49.723,49.723,0,0,1-4.312,6.206q-.826,1.027-1.749,2.069c-.767.875-1.585,1.765-2.455,2.66-.612.633-1.25,1.266-1.914,1.909a110.429,110.429,0,0,1-10.564,8.907q-1,.756-2.058,1.518-1.976,1.42-4.117,2.871-2.146-1.451-4.117-2.871-1.057-.764-2.058-1.518a110.949,110.949,0,0,1-10.348-8.7q-1.019-.973-1.95-1.93c-.875-.9-1.7-1.775-2.46-2.65-.612-.679-1.183-1.358-1.729-2.022a49.719,49.719,0,0,1-4.508-6.447c-.412-.695-.782-1.384-1.117-2.058q-.564-1.1-1.009-2.177a26.431,26.431,0,0,1-1.765-6.056,19.521,19.521,0,0,1-.226-2.058,16.97,16.97,0,0,1,2.063-9.437,16,16,0,0,1,1.5-2.223,16.828,16.828,0,0,1,2.563-2.573,18.462,18.462,0,0,1,2.346-1.621,19,19,0,0,1,16.641-1.235,16.135,16.135,0,0,1,2.058,1.05,15.974,15.974,0,0,1,4.117,3.556,16.15,16.15,0,0,1,6.175-4.605,18.932,18.932,0,0,1,15.967.87,18.2,18.2,0,0,1,2.388,1.5,17.263,17.263,0,0,1,2.7,2.47,16.61,16.61,0,0,1,1.626,2.187A16.875,16.875,0,0,1,882.738,354.587Z" transform="translate(-820.132 -336.129)" fill="none"/>
      <path id="Path_43" data-name="Path 43" d="M882.771,372a19.475,19.475,0,0,1-.226,2.058,26.421,26.421,0,0,1-1.765,6.056q-.448,1.073-1.009,2.177c-.334.674-.71,1.364-1.117,2.058H824.316c-.411-.695-.782-1.384-1.116-2.058q-.564-1.1-1.009-2.177a26.433,26.433,0,0,1-1.765-6.056A19.507,19.507,0,0,1,820.2,372Z" transform="translate(-820.165 -353.542)" fill="#fff" stroke="rgba(0,0,0,0)" stroke-miterlimit="10" stroke-width="1"/>
      <path id="Path_44" data-name="Path 44" d="M882.758,376a26.433,26.433,0,0,1-1.765,6.056q-.448,1.073-1.009,2.177H823.413q-.564-1.1-1.009-2.177A26.431,26.431,0,0,1,820.64,376Z" transform="translate(-820.378 -355.484)" fill="#8ec4c7"/>
      <path id="Path_45" data-name="Path 45" d="M881.233,340.83v51.657q-1.976,1.42-4.116,2.871-2.146-1.451-4.117-2.871V340.83a15.976,15.976,0,0,1,4.117,3.556A15.973,15.973,0,0,1,881.233,340.83Z" transform="translate(-845.796 -338.411)" fill="#8ec4c7"/>
    </g>
  </g>
</svg>
