<svg xmlns="http://www.w3.org/2000/svg" width="38" height="30" viewBox="0 0 38 30">
  <g id="Group_750" data-name="Group 750" transform="translate(-800 -36)">
    <path id="Path_732" data-name="Path 732" d="M1,0H37a1,1,0,0,1,1,1V5a1,1,0,0,1-1,1H1A1,1,0,0,1,0,5V1A1,1,0,0,1,1,0Z" transform="translate(800 36)" fill="#004d49"/>
    <path id="Path_731" data-name="Path 731" d="M1,0H37a1,1,0,0,1,1,1V5a1,1,0,0,1-1,1H1A1,1,0,0,1,0,5V1A1,1,0,0,1,1,0Z" transform="translate(800 48)" fill="#004d49"/>
    <path id="Path_733" data-name="Path 733" d="M1,0H37a1,1,0,0,1,1,1V5a1,1,0,0,1-1,1H1A1,1,0,0,1,0,5V1A1,1,0,0,1,1,0Z" transform="translate(800 60)" fill="#004d49"/>
  </g>
</svg>
