<svg xmlns="http://www.w3.org/2000/svg" width="99" height="81" viewBox="0 0 99 81">
  <g id="Group_1115" data-name="Group 1115" transform="translate(-24323 -16370)">
    <rect id="Rectangle_2445" data-name="Rectangle 2445" width="99" height="81" transform="translate(24323 16370)" fill="#fff"/>
    <g id="Group_1113" data-name="Group 1113" transform="translate(14726.063 12882.859)">
      <path id="Path_907" data-name="Path 907" d="M9701.574,3696.257H9670.8v-1.232h30.777Z" transform="translate(-62.354 -168.859)" fill="#005d47"/>
      <path id="Path_901" data-name="Path 901" d="M9685.816,3696.257H9670.8v-1.232h15.02Z" transform="translate(-46.598 -151.36)" fill="#005d47"/>
      <path id="Path_912" data-name="Path 912" d="M9676.592,3696.257H9670.8v-1.232h5.795Z" transform="translate(-55.436 -151.36)" fill="#005d47"/>
      <path id="Path_903" data-name="Path 903" d="M9684.154,3696.257H9670.8v-1.232h13.357Z" transform="translate(-54.636 -176.746)" fill="#005d47"/>
      <path id="Path_906" data-name="Path 906" d="M9679.055,3696.257H9670.8v-1.232h8.258Z" transform="translate(-65.819 -176.746)" fill="#005d47"/>
      <path id="Path_904" data-name="Path 904" d="M9684.571,3696.257H9670.8v-1.232h13.774Z" transform="translate(-43.471 -183.893)" fill="#005d47"/>
      <path id="Path_905" data-name="Path 905" d="M9678.145,3696.257H9670.8v-1.232h7.348Z" transform="translate(-55.436 -183.893)" fill="#005d47"/>
      <path id="Path_896" data-name="Path 896" d="M.014-.006,23.237,11.966,23.141,36,.3,24.089Z" transform="translate(9629.13 3517.043)" fill="#117b62"/>
      <path id="Path_897" data-name="Path 897" d="M1.915,12.4,24.635.448l.011,23.969L1.854,36.338Z" transform="translate(9650.412 3516.703)" fill="#005d47"/>
      <path id="Path_898" data-name="Path 898" d="M8.334,7.189,33.1,0,25.067,24.383,0,31.811Z" transform="matrix(0.719, 0.695, -0.695, 0.719, 9651.237, 3494.158)" fill="#2a937a"/>
      <path id="Path_899" data-name="Path 899" d="M-.091-11.016,6.483-14.5l-.03,9.689L-.037-1.655Z" transform="translate(9660.967 3535.627)" fill="rgba(247,247,255,0.79)"/>
      <path id="Path_900" data-name="Path 900" d="M-.483-10.818,6.19-14.262,29.572-2.467,23,1.02Z" transform="translate(9637.88 3523.597)" fill="#f7f7ff"/>
      <path id="Path_910" data-name="Path 910" d="M0,0,8.3,4.247" transform="matrix(1, -0.017, 0.017, 1, 9639.959, 3541.889)" fill="#f7f7ff"/>
      <path id="Path_910_-_Outline" data-name="Path 910 - Outline" d="M8.3,5.344,0,1.1.561,0l8.3,4.247Z" transform="matrix(1, -0.017, 0.017, 1, 9639.669, 3541.345)" fill="#f7f7ff"/>
      <path id="Path_911" data-name="Path 911" d="M0,0,4.026,2.06" transform="matrix(1, -0.017, 0.017, 1, 9644.331, 3539.248)" fill="#f7f7ff"/>
      <path id="Path_911_-_Outline" data-name="Path 911 - Outline" d="M4.025,3.157,0,1.1.561,0,4.587,2.06Z" transform="matrix(1, -0.017, 0.017, 1, 9644.042, 3538.704)" fill="#f7f7ff"/>
    </g>
  </g>
</svg>
