<svg xmlns="http://www.w3.org/2000/svg" width="70" height="70" viewBox="0 0 70 70">
  <g id="Group_378" data-name="Group 378" transform="translate(6790 -7795)">
    <g id="Rectangle_748" data-name="Rectangle 748" transform="translate(-6790 7795)" fill="none" stroke="#f8f8f8" stroke-width="1">
      <rect width="70" height="70" stroke="none"/>
      <rect x="0.5" y="0.5" width="69" height="69" fill="none"/>
    </g>
    <g id="Group_374" data-name="Group 374" transform="translate(-7852.733 7698.313)">
      <circle id="Ellipse_36" data-name="Ellipse 36" cx="5.426" cy="5.426" r="5.426" transform="translate(1072.766 105.631)" fill="#8ec4c7"/>
      <path id="Path_192" data-name="Path 192" d="M1087.921,132.3l16.239-3.667a3.082,3.082,0,1,0-1.488-5.98l-4.786,1.3a3.075,3.075,0,0,1-3.32-1.209,21.142,21.142,0,0,0-3.43-3.868,8.71,8.71,0,0,0-4.812-2.357,6.523,6.523,0,0,0-3.941.948,5.225,5.225,0,0,0-1.711,1.661,5.455,5.455,0,0,0-.691,3.447c.362,3.384,2.791,6.416,5.012,8.827A3.063,3.063,0,0,0,1087.921,132.3Z" transform="translate(0.107 0.079)" fill="#8ec4c7"/>
      <path id="Path_193" data-name="Path 193" d="M1110.379,131.564l-25.487,5.1L1068.4,112.97a1.674,1.674,0,0,0-2.9,1.657l19.411,38.918a2.726,2.726,0,0,0,2.458,1.548h16.113a2.548,2.548,0,0,0,2.37-1.615l7.309-18.591A2.469,2.469,0,0,0,1110.379,131.564Z" transform="translate(0 0.048)" fill="#17494d"/>
      <path id="Path_194" data-name="Path 194" d="M0,2.655,4.937,0,11.96,10.263a3.115,3.115,0,0,1-.864,4.365h0a3.114,3.114,0,0,1-4.252-.809Z" transform="translate(1111.75 136.745) rotate(-41)" fill="#8ec4c7"/>
    </g>
  </g>
</svg>
