<svg xmlns="http://www.w3.org/2000/svg" width="70" height="70" viewBox="0 0 70 70">
  <g id="Group_379" data-name="Group 379" transform="translate(6875 -7874)">
    <g id="Rectangle_749" data-name="Rectangle 749" transform="translate(-6875 7874)" fill="none" stroke="#f8f8f8" stroke-width="1">
      <rect width="70" height="70" stroke="none"/>
      <rect x="0.5" y="0.5" width="69" height="69" fill="none"/>
    </g>
    <path id="Path_401" data-name="Path 401" d="M978.4,126.522a1.05,1.05,0,0,0-1.019.481.983.983,0,0,0-.139.153,16.4,16.4,0,0,1-2.59,2.677c-5.774,4.942-13.223,6.941-18.987,7.728l-.387.053c-.457.059-.906.112-1.339.157-11.066,1.142-19.3-1.082-24.784-4.447a19.753,19.753,0,0,1,5.061-1.877v.84a2.3,2.3,0,0,0,1.645,2.2,45.271,45.271,0,0,0,22.71.795,2.862,2.862,0,0,0,2.259-2.783l0-12.627h-.076a5.884,5.884,0,0,0-.656-2.064c-2.75-5.119-12.63-7.092-16.984-7.246-5.954-.208-14.021,1.168-18.814,5.668a11.718,11.718,0,0,0-3.845,8.85v9.749c0,.7-.013,1.4-.026,2.09-.08,4.326-.162,8.8,2.99,12.709,6.091,7.559,17.709,8.712,22.422,8.856q1.1.034,2.166.034c22.727,0,30.788-11.3,31.13-11.8l.177-.258V127.6A1.072,1.072,0,0,0,978.4,126.522Zm-28.561,1.361a19.787,19.787,0,0,1-8.095-.33V125.2a7.46,7.46,0,0,0,2.248.727,11.211,11.211,0,0,0,3.078.017,7.88,7.88,0,0,0,2.768-.791Zm-.113-5.436c-.289.784-1.268,1.28-2.907,1.473a9.164,9.164,0,0,1-2.492,0,4.97,4.97,0,0,1-2.115-.82,1.267,1.267,0,0,1-.481-.534.742.742,0,0,1,.109-.227,1.049,1.049,0,0,0-.284-1.411,1.061,1.061,0,0,0-1.481.316,2.4,2.4,0,0,0-.424,1.481v4.169a6.949,6.949,0,0,1-2.019-1.215,3.569,3.569,0,0,1-1.3-2.92c.179-1.56,1.8-2.727,3.264-3.3a11.129,11.129,0,0,1,7.354-.228,5,5,0,0,1,2.271,1.309A1.994,1.994,0,0,1,949.721,122.447Zm-26.9,5a1.677,1.677,0,0,1-.274-.935v-1.434a9.776,9.776,0,0,1,3.206-7.384c4.326-4.062,12.013-5.288,17.286-5.1,4.229.149,13.032,2.109,15.206,6.154.8,1.49.585,3.131-.66,5.017a9.933,9.933,0,0,1-5.656,3.653v-5.13a.982.982,0,0,0-.041-.266,4.207,4.207,0,0,0-1.09-2.82,7,7,0,0,0-3.2-1.908,13.308,13.308,0,0,0-8.791.272c-2.616,1.026-4.322,2.881-4.562,4.962a4.474,4.474,0,0,0-.026.579h-.009v6.289a23.031,23.031,0,0,0-6.975,2.624A18.946,18.946,0,0,1,922.819,127.446Zm3.057,12.618a1.033,1.033,0,0,1-1.046,1h-.02a1.033,1.033,0,0,1-1.026-1.039l.159-8.018A21.885,21.885,0,0,0,926,133.741Zm4.038,7.437a1.046,1.046,0,0,1-2.092,0V134.99c.674.414,1.377.789,2.092,1.146Zm5.256-1.781a1.046,1.046,0,0,1-2.092,0V137.5c.687.253,1.385.483,2.092.7Zm5.371,5.193a1.046,1.046,0,0,1-2.092,0v-11.88q1.041.22,2.092.389Zm5.294-3.265a1.046,1.046,0,0,1-2.092,0v-7.813q1.048.1,2.092.153Zm5.334,4.525a1.047,1.047,0,0,1-2.093,0V140.064q1.059-.007,2.093-.054Zm5.485-4.747a1.047,1.047,0,0,1-2.093,0v-7.675c.673-.075,1.369-.162,2.093-.27Zm5.143,3.116a1.046,1.046,0,0,1-2.092,0V138.925c.687-.146,1.385-.307,2.092-.491Zm5.37-5.637a1.046,1.046,0,0,1-2.092,0v-7.458c.7-.239,1.395-.506,2.092-.79Zm5.256.863a1.046,1.046,0,0,1-2.092,0V135.189q1.06-.556,2.092-1.2Z" transform="translate(-7789.537 7773.474)" fill="#8ec4c7"/>
  </g>
</svg>
