<svg xmlns="http://www.w3.org/2000/svg" width="16.113" height="15.264" viewBox="0 0 16.113 15.264">
  <path id="Path_403" data-name="Path 403" d="M8.525-40.693a3.786,3.786,0,0,0-2.842,2.93,8.01,8.01,0,0,0-.41,2.49,1.8,1.8,0,0,0,.015.249q.015.1.044.454H8.525v6.387H2.285v-5.889a11.106,11.106,0,0,1,1.729-6.68,6.415,6.415,0,0,1,4.512-2.7Zm9.873,0a3.285,3.285,0,0,0-2.446,1.816,7.43,7.43,0,0,0-.835,3.574q0,.176.015.352a2,2,0,0,0,.073.381H18.4v6.387h-6.27v-5.889A12.994,12.994,0,0,1,13.594-40.3a5.914,5.914,0,0,1,4.8-3.149Z" transform="translate(18.398 -28.184) rotate(180)" fill="#8ec4c7"/>
</svg>
