<svg xmlns="http://www.w3.org/2000/svg" width="68" height="68" viewBox="0 0 68 68">
  <g id="Group_2041" data-name="Group 2041" transform="translate(0.108 0.433)">
    <rect id="Rectangle_2502" data-name="Rectangle 2502" width="68" height="68" transform="translate(-0.108 -0.433)" fill="#fff"/>
    <g id="Group_1200" data-name="Group 1200" transform="translate(7.973 9.173)">
      <path id="Path_1022" data-name="Path 1022" d="M246.543,8.513a22.008,22.008,0,1,0,22.009,22.008A22.008,22.008,0,0,0,246.543,8.513" transform="translate(-224.533 -8.513)" fill="#f2ffff"/>
      <g id="Group_1192" data-name="Group 1192" transform="translate(5.676 7.78)">
        <path id="Path_1023" data-name="Path 1023" d="M259.329,67.221h-.015a.829.829,0,0,1-.639-.317l-8.3-10.6a.83.83,0,1,1,1.307-1.023l7.672,9.792,7.96-9.421a.831.831,0,1,1,1.269,1.072l-8.619,10.2a.828.828,0,0,1-.634.3" transform="translate(-235.41 -25.708)" fill="#17494d"/>
        <path id="Path_1024" data-name="Path 1024" d="M237.526,33.217a.83.83,0,0,1-.758-.491,12.294,12.294,0,0,1-.9-4.989c.092-2.559,1.16-6.072,5.727-8.275a10.662,10.662,0,0,1,11.516,1.111,16.939,16.939,0,0,1,4.188,4.512.83.83,0,1,1-1.43.845,15.506,15.506,0,0,0-3.779-4.047,8.973,8.973,0,0,0-9.772-.925c-3.07,1.479-4.681,3.781-4.792,6.84a10.658,10.658,0,0,0,.761,4.25.832.832,0,0,1-.758,1.17" transform="translate(-232.504 -18.271)" fill="#17494d"/>
        <path id="Path_1025" data-name="Path 1025" d="M280.693,33.217a.832.832,0,0,1-.758-1.169,10.75,10.75,0,0,0,.758-4.306c-.127-3.031-1.737-5.313-4.789-6.785a8.976,8.976,0,0,0-9.811.954,15.432,15.432,0,0,0-3.742,4.018.83.83,0,1,1-1.428-.845,16.939,16.939,0,0,1,4.188-4.512,10.661,10.661,0,0,1,11.515-1.111c4.568,2.2,5.636,5.716,5.728,8.275a12.292,12.292,0,0,1-.9,4.989.832.832,0,0,1-.758.491" transform="translate(-237.561 -18.271)" fill="#17494d"/>
        <path id="Path_1026" data-name="Path 1026" d="M232.482,49.7a.831.831,0,0,1-.614-1.389l3.232-3.558a.832.832,0,0,1,1.2-.029l2.905,2.9,7.765-9.861a.83.83,0,0,1,.652-.317h.006a.835.835,0,0,1,.654.326l7.41,9.686,7.614-11.075a.831.831,0,0,1,1.387.028l6.914,11,5.144-6.746a.83.83,0,1,1,1.321,1.006l-5.871,7.7a.831.831,0,0,1-1.363-.061l-6.879-10.949-7.548,10.978a.83.83,0,0,1-1.344.033l-7.454-9.745-7.679,9.755a.832.832,0,0,1-1.239.073l-2.952-2.945L233.1,49.43a.829.829,0,0,1-.616.273" transform="translate(-231.652 -21.869)" fill="#17494d"/>
      </g>
    </g>
  </g>
</svg>
