<svg xmlns="http://www.w3.org/2000/svg" width="136" height="114.904" viewBox="0 0 136 114.904">
  <g id="Group_1777" data-name="Group 1777" transform="translate(-178 -3631.096)">
    <rect id="Rectangle_3255" data-name="Rectangle 3255" width="136" height="114" transform="translate(178 3632)" fill="#fff"/>
    <path id="blob_1_" data-name="blob (1)" d="M25.837-37.867C35.3-26.194,36.638-5.128,27.85,11.04S.143,38.412-15.287,36.4c-15.363-2.013-27.3-17.309-34.55-32.538C-57.083-11.435-59.7-26.73-53.8-36.324c5.971-9.661,20.529-13.686,36.563-14.558S16.378-49.473,25.837-37.867Z" transform="translate(268.784 3689.469) rotate(-16)" fill="#fde7a4"/>
    <g id="Group_1607" data-name="Group 1607" transform="translate(-3 921.382)">
      <g id="Rectangle_2943" data-name="Rectangle 2943" transform="translate(217 2741)" fill="#d7e1e2" stroke="#3a6469" stroke-width="2">
        <path d="M1,0H32a0,0,0,0,1,0,0V54a0,0,0,0,1,0,0H1a1,1,0,0,1-1-1V1A1,1,0,0,1,1,0Z" stroke="none"/>
        <rect x="1" y="1" width="30" height="52" fill="none"/>
      </g>
      <g id="Rectangle_2944" data-name="Rectangle 2944" transform="translate(249 2741)" fill="#d7e1e2" stroke="#3a6469" stroke-width="2">
        <path d="M0,0H31a1,1,0,0,1,1,1V53a1,1,0,0,1-1,1H0a0,0,0,0,1,0,0V0A0,0,0,0,1,0,0Z" stroke="none"/>
        <rect x="1" y="1" width="30" height="52" fill="none"/>
      </g>
      <path id="Path_2099" data-name="Path 2099" d="M.913,0H21c.5,0,.913.851.913,1.9V41.8c0,1.049-.409,1.9-.913,1.9H.913c-.5,0-.913-.851-.913-1.9V1.9C0,.851.409,0,.913,0Z" transform="translate(222.041 2745.845)" fill="#fff"/>
      <rect id="Rectangle_2946" data-name="Rectangle 2946" width="24" height="6" rx="1" transform="translate(252 2745.845)" fill="#fff"/>
      <rect id="Rectangle_2947" data-name="Rectangle 2947" width="13" height="13" rx="1" transform="translate(263 2754.845)" fill="#fff"/>
      <rect id="Rectangle_2949" data-name="Rectangle 2949" width="13" height="16" rx="1" transform="translate(263 2770.845)" fill="#fff"/>
      <rect id="Rectangle_2948" data-name="Rectangle 2948" width="10" height="32" rx="1" transform="translate(250 2754.845)" fill="#fff"/>
      <g id="Path_1450" data-name="Path 1450" transform="translate(246.917 2741)" fill="#fff">
        <path d="M 8.083491325378418 57.23870468139648 C 7.578590393066406 56.97386932373047 6.467519283294678 56.34606552124023 5.466171264648438 55.78026580810547 C 2.960649251937866 54.36454772949219 1.693646550178528 53.66537475585938 0.986258327960968 53.32068252563477 L 1.173070073127747 0.5731989741325378 C 3.74692177772522 -0.9178330302238464 7.154479503631592 -2.856244802474976 8.083491325378418 -3.309923887252808 L 8.083491325378418 57.23870468139648 Z" stroke="none"/>
        <path d="M 7.083491325378418 -1.640636444091797 C 5.816371917724609 -0.9394340515136719 3.979112148284912 0.1062202453613281 2.171036243438721 1.151012420654297 L 1.988439083099365 52.7085075378418 C 2.7950439453125 53.13211822509766 4.016077995300293 53.81231307983398 5.957951545715332 54.9095458984375 C 6.320091247558594 55.11416625976562 6.711198806762695 55.33515930175781 7.083491325378418 55.54441833496094 L 7.083491325378418 -1.640636444091797 M 8.203780174255371 -4.381729125976562 C 8.738227844238281 -4.381729125976562 9.083491325378418 -3.820426940917969 9.083491325378418 -3.340824127197266 L 9.083491325378418 57.28417587280273 C 9.083491325378418 57.83646774291992 8.657812118530273 58.56738662719727 7.948331356048584 58.28417587280273 C 7.238851547241211 58.0009765625 0.4965915679931641 54.015625 -0.01610851287841797 53.98827743530273 L 0.1751117706298828 -0.003902435302734375 C 0.1751117706298828 -0.003902435302734375 7.27100133895874 -4.127933502197266 7.948331356048584 -4.340824127197266 C 8.03746223449707 -4.368839263916016 8.122793197631836 -4.381729125976562 8.203780174255371 -4.381729125976562 Z" stroke="none" fill="#3a6469"/>
      </g>
    </g>
  </g>
</svg>
