<svg xmlns="http://www.w3.org/2000/svg" width="130" height="81" viewBox="0 0 130 81">
  <g id="Group_1715" data-name="Group 1715" transform="translate(-13891 -16470)">
    <rect id="Rectangle_3171" data-name="Rectangle 3171" width="130" height="81" transform="translate(13891 16470)" fill="none"/>
    <g id="Group_1711" data-name="Group 1711" transform="translate(13707 13742.517)">
      <path id="Rectangle_2943" data-name="Rectangle 2943" d="M1,0H32a0,0,0,0,1,0,0V54a0,0,0,0,1,0,0H1a1,1,0,0,1-1-1V1A1,1,0,0,1,1,0Z" transform="translate(217 2741)" fill="#f5f5f5"/>
      <path id="Rectangle_2944" data-name="Rectangle 2944" d="M0,0H31a1,1,0,0,1,1,1V53a1,1,0,0,1-1,1H0a0,0,0,0,1,0,0V0A0,0,0,0,1,0,0Z" transform="translate(249 2741)" fill="#f5f5f5"/>
      <rect id="Rectangle_2945" data-name="Rectangle 2945" width="24" height="23" rx="1" transform="translate(221 2746)" fill="#5c946e"/>
      <rect id="Rectangle_2946" data-name="Rectangle 2946" width="24" height="6" rx="1" transform="translate(253 2759)" fill="#5c946e"/>
      <rect id="Rectangle_2947" data-name="Rectangle 2947" width="13" height="13" rx="1" transform="translate(264 2768)" fill="#a3d9b4"/>
      <rect id="Rectangle_2949" data-name="Rectangle 2949" width="13" height="6" rx="1" transform="translate(264 2784)" fill="#a3d9b4"/>
      <rect id="Rectangle_2948" data-name="Rectangle 2948" width="10" height="22" rx="1" transform="translate(251 2768)" fill="#a3d9b4"/>
      <path id="Path_1442" data-name="Path 1442" d="M-8095.337-13057.357H-8076" transform="translate(8321 15830)" fill="none" stroke="#bfbfbf" stroke-linecap="round" stroke-width="1.5"/>
      <path id="Path_1447" data-name="Path 1447" d="M-8095.337-13057.357H-8076" transform="translate(8351.337 15804)" fill="none" stroke="#bfbfbf" stroke-linecap="round" stroke-width="1.5"/>
      <path id="Path_1448" data-name="Path 1448" d="M-8095.337-13057.357H-8076" transform="translate(8351.337 15808)" fill="none" stroke="#bfbfbf" stroke-linecap="round" stroke-width="1.5"/>
      <path id="Path_1449" data-name="Path 1449" d="M-8095.337-13057.357h10.327" transform="translate(8351.337 15812)" fill="none" stroke="#bfbfbf" stroke-linecap="round" stroke-width="1.5"/>
      <path id="Path_1443" data-name="Path 1443" d="M-8095.336-13057.357h24" transform="translate(8316.337 15833.643)" fill="none" stroke="#bfbfbf" stroke-linecap="round" stroke-width="1.5"/>
      <path id="Path_1444" data-name="Path 1444" d="M-8095.336-13057.357h24" transform="translate(8316.337 15837.285)" fill="none" stroke="#bfbfbf" stroke-linecap="round" stroke-width="1.5"/>
      <path id="Path_1445" data-name="Path 1445" d="M-8095.336-13057.357h24" transform="translate(8316.337 15840.928)" fill="none" stroke="#bfbfbf" stroke-linecap="round" stroke-width="1.5"/>
      <path id="Path_1446" data-name="Path 1446" d="M-8095.337-13057.357h15.136" transform="translate(8316.337 15844.57)" fill="none" stroke="#bfbfbf" stroke-linecap="round" stroke-width="1.5"/>
      <path id="Path_1450" data-name="Path 1450" d="M7-4.341c.6-.213,1,.448,1,1V57.284c0,.552-.375,1.283-1,1s-6.564-4.269-7.016-4.3L.152,0S6.4-4.128,7-4.341Z" transform="translate(248 2741)" fill="#d8d8d8"/>
    </g>
  </g>
</svg>
