<svg xmlns="http://www.w3.org/2000/svg" width="136" height="114.904" viewBox="0 0 136 114.904">
  <g id="Group_2204" data-name="Group 2204" transform="translate(-178 -3631.096)">
    <rect id="Rectangle_3255" data-name="Rectangle 3255" width="136" height="114" transform="translate(178 3632)" fill="#fff"/>
    <path id="blob_1_" data-name="blob (1)" d="M25.837-37.867C35.3-26.194,36.638-5.128,27.85,11.04S.143,38.412-15.287,36.4c-15.363-2.013-27.3-17.309-34.55-32.538C-57.083-11.435-59.7-26.73-53.8-36.324c5.971-9.661,20.529-13.686,36.563-14.558S16.378-49.473,25.837-37.867Z" transform="translate(268.784 3689.469) rotate(-16)" fill="#fde7a4"/>
    <g id="Group_1607" data-name="Group 1607" transform="translate(-3 921.382)">
      <g id="Path_5453" data-name="Path 5453" transform="translate(217 2741)" fill="#fff">
        <path d="M 30.75 52.75 L 1.25 52.75 L 1.25 1.25 L 30.75 1.25 L 30.75 52.75 Z" stroke="none"/>
        <path d="M 2.5 2.5 L 2.5 51.5 L 29.5 51.5 L 29.5 2.5 L 2.5 2.5 M 1 0 L 32 0 L 32 54 L 1 54 C 0.4477195739746094 54 0 53.55228042602539 0 53 L 0 1 C 0 0.4477081298828125 0.4477195739746094 0 1 0 Z" stroke="none" fill="#17494d"/>
      </g>
      <g id="Path_5452" data-name="Path 5452" transform="translate(249 2741)" fill="#94ccd0">
        <path d="M 30.75 52.75 L 1.25 52.75 L 1.25 1.25 L 30.75 1.25 L 30.75 52.75 Z" stroke="none"/>
        <path d="M 2.5 2.5 L 2.5 51.5 L 29.5 51.5 L 29.5 2.5 L 2.5 2.5 M 0 0 L 31 0 C 31.55228042602539 0 32 0.4477081298828125 32 1 L 32 53 C 32 53.55228042602539 31.55228042602539 54 31 54 L 0 54 L 0 0 Z" stroke="none" fill="#17494d"/>
      </g>
      <path id="Path_2099" data-name="Path 2099" d="M.913,0H21c.5,0,.913.851.913,1.9V41.8c0,1.049-.409,1.9-.913,1.9H.913c-.5,0-.913-.851-.913-1.9V1.9C0,.851.409,0,.913,0Z" transform="translate(222.041 2745.845)" fill="#94ccd0"/>
      <rect id="Rectangle_2946" data-name="Rectangle 2946" width="24" height="6" rx="1" transform="translate(252 2745.845)" fill="#fff"/>
      <rect id="Rectangle_2947" data-name="Rectangle 2947" width="13" height="13" rx="1" transform="translate(263 2754.845)" fill="#fff"/>
      <rect id="Rectangle_2949" data-name="Rectangle 2949" width="13" height="16" rx="1" transform="translate(263 2770.845)" fill="#fff"/>
      <rect id="Rectangle_2948" data-name="Rectangle 2948" width="10" height="32" rx="1" transform="translate(250 2754.845)" fill="#fff"/>
      <g id="Path_1450" data-name="Path 1450" transform="translate(246.917 2741)" fill="#fff">
        <path d="M 7.833491325378418 56.820068359375 C 7.249197483062744 56.50060272216797 6.356255531311035 55.99605560302734 5.589151382446289 55.56261444091797 C 3.236233234405518 54.23312377929688 1.971759438514709 53.5343132019043 1.236814498901367 53.16454315185547 L 1.422562003135681 0.7175317406654358 C 3.991042613983154 -0.7697907686233521 6.677011966705322 -2.292175531387329 7.833491325378418 -2.900932788848877 L 7.833491325378418 56.820068359375 Z" stroke="none"/>
        <path d="M 6.583491325378418 -0.7898979187011719 C 5.462974548339844 -0.1619682312011719 4.064612865447998 0.6355056762695312 2.670019149780273 1.440250396728516 L 2.489509105682373 52.40776443481445 C 3.311577320098877 52.84633636474609 4.478392601013184 53.49924087524414 6.20396900177002 54.47425842285156 C 6.327651023864746 54.54414367675781 6.454871654510498 54.61602783203125 6.583491325378418 54.68865966796875 L 6.583491325378418 -0.7898979187011719 M 8.20378303527832 -4.381721496582031 C 8.738226890563965 -4.381721496582031 9.083491325378418 -3.820430755615234 9.083491325378418 -3.3408203125 L 9.083491325378418 57.2841796875 C 9.083491325378418 57.83645629882812 8.65781307220459 58.5673828125 7.948335647583008 58.2841796875 C 7.238858222961426 58.00098037719727 0.4965915679931641 54.015625 -0.01610851287841797 53.98828125 L 0.1751136779785156 -0.003910064697265625 C 0.1751136779785156 -0.003910064697265625 7.271002769470215 -4.1279296875 7.948335647583008 -4.3408203125 C 8.037466049194336 -4.36883544921875 8.122797966003418 -4.381721496582031 8.20378303527832 -4.381721496582031 Z" stroke="none" fill="#17494d"/>
      </g>
    </g>
  </g>
</svg>
