<svg xmlns="http://www.w3.org/2000/svg" width="148.016" height="138.94" viewBox="0 0 148.016 138.94">
  <g id="Group_1776" data-name="Group 1776" transform="translate(-466 -3626.142)">
    <rect id="Rectangle_3252" data-name="Rectangle 3252" width="136" height="114" transform="translate(466 3632)" fill="#fff"/>
    <rect id="Rectangle_3248" data-name="Rectangle 3248" width="28.722" height="17.473" rx="1" transform="translate(572.376 3724.292) rotate(180)" fill="#fff"/>
    <path id="blob_3_" data-name="blob (3)" d="M23.816-42.416C37.309-30.992,54.445-21.224,58-7.9c3.56,13.245-6.54,30.132-20.033,35.761-13.41,5.712-30.3.248-44.784-2.07s-26.655-1.573-34.933-7.2C-50.024,12.882-54.495.713-52.591-9.635c1.821-10.348,9.851-18.874,18.129-30.3,8.278-11.506,16.8-25.993,25.91-26.573C.637-67.167,10.405-53.922,23.816-42.416Z" transform="matrix(-0.875, 0.485, -0.485, -0.875, 535.385, 3678.425)" fill="#fde7a4"/>
    <g id="Group_1773" data-name="Group 1773" transform="translate(0.557 4.97)">
      <g id="Group_1746" data-name="Group 1746" transform="translate(-267.139 3049.382)">
        <g id="Group_1745" data-name="Group 1745" transform="translate(-164.912 64.763)">
          <g id="Union_25" data-name="Union 25" transform="translate(963.549 584.588) rotate(180)" fill="none">
            <path d="M3,40.7a3,3,0,0,1-3-3V10.726a3,3,0,0,1,3-3H30.77L46.611,0l-.6,7.727h7.045a3,3,0,0,1,3,3V37.7a3,3,0,0,1-3,3Z" stroke="none"/>
            <path d="M 53.05500030517578 38.70159912109375 C 53.60624313354492 38.70159912109375 54.05470275878906 38.25273132324219 54.05470275878906 37.70100021362305 L 54.05470275878906 10.72619915008545 C 54.05470275878906 10.17495918273926 53.60624313354492 9.726499557495117 53.05500030517578 9.726499557495117 L 43.84815216064453 9.726499557495117 L 44.34585571289062 3.330006122589111 L 31.23129081726074 9.726499557495117 L 2.999701261520386 9.726499557495117 C 2.448461294174194 9.726499557495117 2.000001430511475 10.17495918273926 2.000001430511475 10.72619915008545 L 2.000001430511475 37.70100021362305 C 2.000001430511475 38.25273132324219 2.448461294174194 38.70159912109375 2.999701261520386 38.70159912109375 L 53.05500030517578 38.70159912109375 M 53.05500030517578 40.70159912109375 L 2.999701261520386 40.70159912109375 C 1.343701362609863 40.70159912109375 1.379394575451443e-06 39.3578987121582 1.379394575451443e-06 37.70100021362305 L 1.379394575451443e-06 10.72619915008545 C 1.379394575451443e-06 9.069299697875977 1.343701362609863 7.726499557495117 2.999701261520386 7.726499557495117 L 30.76955223083496 7.726499557495117 L 46.61100006103516 -4.39453117451194e-07 L 46.00981140136719 7.726499557495117 L 53.05500030517578 7.726499557495117 C 54.7119026184082 7.726499557495117 56.05470275878906 9.069299697875977 56.05470275878906 10.72619915008545 L 56.05470275878906 37.70100021362305 C 56.05470275878906 39.3578987121582 54.7119026184082 40.70159912109375 53.05500030517578 40.70159912109375 Z" stroke="none" fill="#3a6469"/>
          </g>
          <rect id="Rectangle_3247" data-name="Rectangle 3247" width="17.207" height="11.913" rx="1" transform="translate(958.68 560.915) rotate(180)" fill="#d7e1e2"/>
        </g>
        <g id="Group_1751" data-name="Group 1751" transform="translate(-164.912 64.763)">
          <g id="Union_25-2" data-name="Union 25" transform="translate(963.549 584.588) rotate(180)" fill="#fff">
            <path d="M 53.05500030517578 39.70159912109375 L 2.999701261520386 39.70159912109375 C 1.897061347961426 39.70159912109375 1.000001430511475 38.80413055419922 1.000001430511475 37.70100021362305 L 1.000001430511475 10.72619915008545 C 1.000001430511475 9.623559951782227 1.897061347961426 8.726499557495117 2.999701261520386 8.726499557495117 L 30.76955223083496 8.726499557495117 L 31.00042152404785 8.726499557495117 L 31.20793151855469 8.625289916992188 L 45.47842407226562 1.665007710456848 L 45.01282119750977 7.648929595947266 L 44.92898178100586 8.726499557495117 L 46.00981140136719 8.726499557495117 L 53.05500030517578 8.726499557495117 C 54.15764236450195 8.726499557495117 55.05470275878906 9.623559951782227 55.05470275878906 10.72619915008545 L 55.05470275878906 37.70100021362305 C 55.05470275878906 38.80413055419922 54.15764236450195 39.70159912109375 53.05500030517578 39.70159912109375 Z" stroke="none"/>
            <path d="M 53.05500030517578 38.70159912109375 C 53.60624313354492 38.70159912109375 54.05470275878906 38.25273132324219 54.05470275878906 37.70100021362305 L 54.05470275878906 10.72619915008545 C 54.05470275878906 10.17495918273926 53.60624313354492 9.726499557495117 53.05500030517578 9.726499557495117 L 43.84815216064453 9.726499557495117 L 44.34585571289062 3.330006122589111 L 31.23129081726074 9.726499557495117 L 2.999701261520386 9.726499557495117 C 2.448461294174194 9.726499557495117 2.000001430511475 10.17495918273926 2.000001430511475 10.72619915008545 L 2.000001430511475 37.70100021362305 C 2.000001430511475 38.25273132324219 2.448461294174194 38.70159912109375 2.999701261520386 38.70159912109375 L 53.05500030517578 38.70159912109375 M 53.05500030517578 40.70159912109375 L 2.999701261520386 40.70159912109375 C 1.343701362609863 40.70159912109375 1.379394575451443e-06 39.3578987121582 1.379394575451443e-06 37.70100021362305 L 1.379394575451443e-06 10.72619915008545 C 1.379394575451443e-06 9.069299697875977 1.343701362609863 7.726499557495117 2.999701261520386 7.726499557495117 L 30.76955223083496 7.726499557495117 L 46.61100006103516 -4.39453117451194e-07 L 46.00981140136719 7.726499557495117 L 53.05500030517578 7.726499557495117 C 54.7119026184082 7.726499557495117 56.05470275878906 9.069299697875977 56.05470275878906 10.72619915008545 L 56.05470275878906 37.70100021362305 C 56.05470275878906 39.3578987121582 54.7119026184082 40.70159912109375 53.05500030517578 40.70159912109375 Z" stroke="none" fill="#3a6469"/>
          </g>
          <rect id="Rectangle_3247-2" data-name="Rectangle 3247" width="17.207" height="11.913" rx="1" transform="translate(958.68 560.915) rotate(180)" fill="#d7e1e2"/>
        </g>
      </g>
      <g id="Group_1772" data-name="Group 1772" transform="translate(0 -19.673)">
        <rect id="Rectangle_3256" data-name="Rectangle 3256" width="23" height="16" transform="translate(538 3693)" fill="#fff"/>
        <g id="Group_1771" data-name="Group 1771" transform="translate(-267.139 3060.054)">
          <path id="Subtraction_12" data-name="Subtraction 12" d="M46.606,40.7h0l-15.84-7.726H2.994a3,3,0,0,1-3-3V3a3,3,0,0,1,3-3H53.05a3,3,0,0,1,3,3V29.972a3,3,0,0,1-3,3H46.005l.6,7.725ZM5.86,5.112a1,1,0,0,0-1,1v9.913a1,1,0,0,0,1,1H21.067a1,1,0,0,0,1-1V6.112a1,1,0,0,0-1-1Z" transform="translate(802.645 629.89)" fill="#d7e1e2"/>
          <g id="Union_23" data-name="Union 23" transform="translate(802.639 629.889)" fill="none">
            <path d="M30.767,32.972H3a3,3,0,0,1-3-3V3A3,3,0,0,1,3,0H53.053a3,3,0,0,1,3,3V29.973a3,3,0,0,1-3,3H46.008l.6,7.727Z" stroke="none"/>
            <path d="M 44.34405899047852 37.36896896362305 L 43.84635162353516 30.9724006652832 L 53.05319976806641 30.9724006652832 C 53.60493087768555 30.9724006652832 54.05380249023438 30.52394104003906 54.05380249023438 29.97270011901855 L 54.05380249023438 2.998800754547119 C 54.05380249023438 2.447070837020874 53.60493087768555 1.99820077419281 53.05319976806641 1.99820077419281 L 2.997000932693481 1.99820077419281 C 2.445760726928711 1.99820077419281 1.997300863265991 2.447070837020874 1.997300863265991 2.998800754547119 L 1.997300863265991 29.97270011901855 C 1.997300863265991 30.52394104003906 2.445760726928711 30.9724006652832 2.997000932693481 30.9724006652832 L 31.22868156433105 30.9724006652832 L 44.34405899047852 37.36896896362305 M 46.60919952392578 40.69890213012695 L 30.76696014404297 32.9724006652832 L 2.997000932693481 32.9724006652832 C 1.34100079536438 32.9724006652832 -0.002699157688766718 31.62960052490234 -0.002699157688766718 29.97270011901855 L -0.002699157688766718 2.998800754547119 C -0.002699157688766718 1.341900825500488 1.34100079536438 -0.001799203455448151 2.997000932693481 -0.001799203455448151 L 53.05319976806641 -0.001799203455448151 C 54.71010208129883 -0.001799203455448151 56.05380249023438 1.341900825500488 56.05380249023438 2.998800754547119 L 56.05380249023438 29.97270011901855 C 56.05380249023438 31.62960052490234 54.71010208129883 32.9724006652832 53.05319976806641 32.9724006652832 L 46.00801086425781 32.9724006652832 L 46.60919952392578 40.69890213012695 Z" stroke="none" fill="#3a6469"/>
          </g>
        </g>
      </g>
    </g>
  </g>
</svg>
