<svg xmlns="http://www.w3.org/2000/svg" width="136" height="114" viewBox="0 0 136 114">
  <g id="Group_2722" data-name="Group 2722" transform="translate(-464 -3217)">
    <path id="Path_2108" data-name="Path 2108" d="M0,0H136V114H0Z" transform="translate(464 3217)" fill="#fff"/>
    <g id="Group_2720" data-name="Group 2720" transform="translate(4.916 4.528)">
      <path id="Path_6115" data-name="Path 6115" d="M65.1-16.74V0H5.084V-5.828a31.919,31.919,0,0,1,.744-6.944,35.614,35.614,0,0,1,1.8-5.89,23.4,23.4,0,0,1,3.162-5.27q2.108-2.728,3.6-4.464a36.765,36.765,0,0,1,4.526-4.216q3.038-2.48,4.65-3.658t5.084-3.6q3.472-2.418,4.836-3.41,13.888-9.672,13.888-18.1a11.328,11.328,0,0,0-3.1-8.184q-3.1-3.224-8.556-3.224a13.519,13.519,0,0,0-9.61,3.534,11.241,11.241,0,0,0-3.658,8.866H5.332q0-12.9,8.742-21.018t22.01-8.122A29.412,29.412,0,0,1,56.11-82.336q8.246,7.192,8.246,19.964,0,10.54-4.526,17.3t-14.074,13.7q-.868.62-4.464,3.038t-5.456,3.782a40.328,40.328,0,0,0-4.154,3.6,12.141,12.141,0,0,0-3.038,4.216ZM88.288.992a11.973,11.973,0,0,1-8.8-3.6,11.973,11.973,0,0,1-3.6-8.8,11.973,11.973,0,0,1,3.6-8.8,11.973,11.973,0,0,1,8.8-3.6A11.93,11.93,0,0,1,97.03-20.15a11.93,11.93,0,0,1,3.658,8.742A11.93,11.93,0,0,1,97.03-2.666,11.93,11.93,0,0,1,88.288.992Z" transform="translate(457 3313)" fill="#fde7a4"/>
      <g id="Group_1773" data-name="Group 1773" transform="translate(0.557 -410.313)">
        <g id="Group_1746" data-name="Group 1746" transform="translate(-267.139 3049.382)">
          <g id="Group_1745" data-name="Group 1745" transform="translate(-164.912 64.763)">
            <g id="Union_25" data-name="Union 25" transform="translate(963.549 584.588) rotate(180)" fill="none">
              <path d="M3,40.7a3,3,0,0,1-3-3V10.726a3,3,0,0,1,3-3H30.77L46.611,0l-.6,7.727h7.045a3,3,0,0,1,3,3V37.7a3,3,0,0,1-3,3Z" stroke="none"/>
              <path d="M 53.05500030517578 38.20159912109375 C 53.33053970336914 38.20159912109375 53.55470275878906 37.97702789306641 53.55470275878906 37.70100021362305 L 53.55470275878906 10.72619915008545 C 53.55470275878906 10.45065975189209 53.33053970336914 10.22649955749512 53.05500030517578 10.22649955749512 L 43.30773162841797 10.22649955749512 L 43.77956008911133 4.16251802444458 L 31.34673118591309 10.22649955749512 L 2.999701261520386 10.22649955749512 C 2.724161386489868 10.22649955749512 2.500001430511475 10.45065975189209 2.500001430511475 10.72619915008545 L 2.500001430511475 37.70100021362305 C 2.500001430511475 37.97702789306641 2.724161386489868 38.20159912109375 2.999701261520386 38.20159912109375 L 53.05500030517578 38.20159912109375 M 53.05500030517578 40.70159912109375 L 2.999701261520386 40.70159912109375 C 1.343701362609863 40.70159912109375 1.379394575451443e-06 39.3578987121582 1.379394575451443e-06 37.70100021362305 L 1.379394575451443e-06 10.72619915008545 C 1.379394575451443e-06 9.069299697875977 1.343701362609863 7.726499557495117 2.999701261520386 7.726499557495117 L 30.76955223083496 7.726499557495117 L 46.61100006103516 -4.39453117451194e-07 L 46.00981140136719 7.726499557495117 L 53.05500030517578 7.726499557495117 C 54.7119026184082 7.726499557495117 56.05470275878906 9.069299697875977 56.05470275878906 10.72619915008545 L 56.05470275878906 37.70100021362305 C 56.05470275878906 39.3578987121582 54.7119026184082 40.70159912109375 53.05500030517578 40.70159912109375 Z" stroke="none" fill="#3a6469"/>
            </g>
            <rect id="Rectangle_3247" data-name="Rectangle 3247" width="17.207" height="11.913" rx="1" transform="translate(958.68 560.915) rotate(180)" fill="#d7e1e2"/>
          </g>
          <g id="Group_1751" data-name="Group 1751" transform="translate(-164.912 64.763)">
            <g id="Union_25-2" data-name="Union 25" transform="translate(963.549 584.588) rotate(180)" fill="#fff">
              <path d="M 53.05500030517578 39.45159912109375 L 2.999701261520386 39.45159912109375 C 2.034911394119263 39.45159912109375 1.250001430511475 38.66627883911133 1.250001430511475 37.70100021362305 L 1.250001430511475 10.72619915008545 C 1.250001430511475 9.761409759521484 2.034911394119263 8.976499557495117 2.999701261520386 8.976499557495117 L 30.76955223083496 8.976499557495117 L 31.05814170837402 8.976499557495117 L 31.3175220489502 8.849989891052246 L 45.19528579711914 2.08125638961792 L 44.76358032226562 7.629529476165771 L 44.65877151489258 8.976499557495117 L 46.00981140136719 8.976499557495117 L 53.05500030517578 8.976499557495117 C 54.01979064941406 8.976499557495117 54.80470275878906 9.761409759521484 54.80470275878906 10.72619915008545 L 54.80470275878906 37.70100021362305 C 54.80470275878906 38.66627883911133 54.01979064941406 39.45159912109375 53.05500030517578 39.45159912109375 Z" stroke="none"/>
              <path d="M 53.05500030517578 38.20159912109375 C 53.33053970336914 38.20159912109375 53.55470275878906 37.97702789306641 53.55470275878906 37.70100021362305 L 53.55470275878906 10.72619915008545 C 53.55470275878906 10.45065975189209 53.33053970336914 10.22649955749512 53.05500030517578 10.22649955749512 L 43.30773162841797 10.22649955749512 L 43.77956008911133 4.16251802444458 L 31.34673118591309 10.22649955749512 L 2.999701261520386 10.22649955749512 C 2.724161386489868 10.22649955749512 2.500001430511475 10.45065975189209 2.500001430511475 10.72619915008545 L 2.500001430511475 37.70100021362305 C 2.500001430511475 37.97702789306641 2.724161386489868 38.20159912109375 2.999701261520386 38.20159912109375 L 53.05500030517578 38.20159912109375 M 53.05500030517578 40.70159912109375 L 2.999701261520386 40.70159912109375 C 1.343701362609863 40.70159912109375 1.379394575451443e-06 39.3578987121582 1.379394575451443e-06 37.70100021362305 L 1.379394575451443e-06 10.72619915008545 C 1.379394575451443e-06 9.069299697875977 1.343701362609863 7.726499557495117 2.999701261520386 7.726499557495117 L 30.76955223083496 7.726499557495117 L 46.61100006103516 -4.39453117451194e-07 L 46.00981140136719 7.726499557495117 L 53.05500030517578 7.726499557495117 C 54.7119026184082 7.726499557495117 56.05470275878906 9.069299697875977 56.05470275878906 10.72619915008545 L 56.05470275878906 37.70100021362305 C 56.05470275878906 39.3578987121582 54.7119026184082 40.70159912109375 53.05500030517578 40.70159912109375 Z" stroke="none" fill="#17494d"/>
            </g>
            <rect id="Rectangle_3247-2" data-name="Rectangle 3247" width="17.207" height="11.913" rx="1" transform="translate(958.68 560.915) rotate(180)" fill="#94ccd0"/>
          </g>
        </g>
        <g id="Group_1772" data-name="Group 1772" transform="translate(0 -19.673)">
          <rect id="Rectangle_3256" data-name="Rectangle 3256" width="23" height="16" transform="translate(538 3693)" fill="#fff"/>
          <g id="Group_1771" data-name="Group 1771" transform="translate(-267.139 3060.054)">
            <path id="Subtraction_12" data-name="Subtraction 12" d="M46.606,40.7h0l-15.84-7.726H2.994a3,3,0,0,1-3-3V3a3,3,0,0,1,3-3H53.05a3,3,0,0,1,3,3V29.972a3,3,0,0,1-3,3H46.005l.6,7.725ZM5.86,5.112a1,1,0,0,0-1,1v9.913a1,1,0,0,0,1,1H21.067a1,1,0,0,0,1-1V6.112a1,1,0,0,0-1-1Z" transform="translate(802.645 629.89)" fill="#94ccd0"/>
            <g id="Union_23" data-name="Union 23" transform="translate(802.639 629.889)" fill="none">
              <path d="M30.767,32.972H3a3,3,0,0,1-3-3V3A3,3,0,0,1,3,0H53.053a3,3,0,0,1,3,3V29.973a3,3,0,0,1-3,3H46.008l.6,7.727Z" stroke="none"/>
              <path d="M 43.77776718139648 36.53647994995117 L 43.30593109130859 30.4724006652832 L 53.05319976806641 30.4724006652832 C 53.32923126220703 30.4724006652832 53.55380249023438 30.24824142456055 53.55380249023438 29.97270011901855 L 53.55380249023438 2.998800754547119 C 53.55380249023438 2.722770690917969 53.32923126220703 2.4982008934021 53.05319976806641 2.4982008934021 L 2.997000932693481 2.4982008934021 C 2.721460819244385 2.4982008934021 2.497300863265991 2.722770690917969 2.497300863265991 2.998800754547119 L 2.497300863265991 29.97270011901855 C 2.497300863265991 30.24824142456055 2.721460819244385 30.4724006652832 2.997000932693481 30.4724006652832 L 31.3441104888916 30.4724006652832 L 43.77776718139648 36.53647994995117 M 46.60919952392578 40.69890213012695 L 30.76696014404297 32.9724006652832 L 2.997000932693481 32.9724006652832 C 1.34100079536438 32.9724006652832 -0.002699157688766718 31.62960052490234 -0.002699157688766718 29.97270011901855 L -0.002699157688766718 2.998800754547119 C -0.002699157688766718 1.341900825500488 1.34100079536438 -0.001799203455448151 2.997000932693481 -0.001799203455448151 L 53.05319976806641 -0.001799203455448151 C 54.71010208129883 -0.001799203455448151 56.05380249023438 1.341900825500488 56.05380249023438 2.998800754547119 L 56.05380249023438 29.97270011901855 C 56.05380249023438 31.62960052490234 54.71010208129883 32.9724006652832 53.05319976806641 32.9724006652832 L 46.00801086425781 32.9724006652832 L 46.60919952392578 40.69890213012695 Z" stroke="none" fill="#17494d"/>
            </g>
          </g>
        </g>
      </g>
    </g>
  </g>
</svg>
