<svg xmlns="http://www.w3.org/2000/svg" width="130" height="81" viewBox="0 0 130 81">
  <g id="Group_1717" data-name="Group 1717" transform="translate(-13891 -16587)">
    <rect id="Rectangle_3169" data-name="Rectangle 3169" width="130" height="81" transform="translate(13891 16587)" fill="none"/>
    <g id="Group_1712" data-name="Group 1712" transform="translate(13758.498 11068.725)">
      <g id="Group_1605" data-name="Group 1605" transform="translate(139.91 5532.121)">
        <path id="Union_14" data-name="Union 14" d="M9,49.646a9,9,0,0,1-9-9V17.776a9,9,0,0,1,9-9H23.784L32.477.806s.855-.768.948-.806,0,1.058,0,1.058l-.8,7.717H56.021a9,9,0,0,1,9,9v22.87a9,9,0,0,1-9,9Z" transform="translate(65.02 49.646) rotate(180)" fill="#4e7fea"/>
        <path id="Union_13" data-name="Union 13" d="M32.592,0C32.5.047,31.6.827,31.6.827L22.572,8.893l-12.349.142A10.217,10.217,0,0,0,0,19.248V35.093A10.223,10.223,0,0,0,10.223,45.314H51.091A10.215,10.215,0,0,0,61.307,35.093V19.248A10.209,10.209,0,0,0,51.091,9.035L31.765,8.94l.827-7.848S32.69,0,32.6,0C32.6,0,32.594,0,32.592,0Z" transform="translate(66.024 45.315) rotate(180)" fill="#becdef"/>
      </g>
      <g id="Group_1606" data-name="Group 1606" transform="translate(190.068 5540.48)">
        <path id="Union_18" data-name="Union 18" d="M33.427,49.646c-.093-.041-.948-.809-.948-.809L23.786,40.87H10a10,10,0,0,1-10-10V10A10,10,0,0,1,10,0H55.022a10,10,0,0,1,10,10V30.87a10,10,0,0,1-10,10H32.629l.8,7.715a4.446,4.446,0,0,1,0,1.062Z" transform="translate(0.002 -0.002)" fill="#fec51d"/>
        <path id="Union_19" data-name="Union 19" d="M32.592,45.311c-.094-.043-.99-.822-.99-.822L22.57,36.422l-12.348-.141A10.216,10.216,0,0,1,0,26.066V10.221A10.223,10.223,0,0,1,10.223,0H51.09A10.216,10.216,0,0,1,61.307,10.221V26.066A10.21,10.21,0,0,1,51.09,36.281l-19.326.094.828,7.848s.1,1.092,0,1.092C32.594,45.314,32.592,45.314,32.592,45.311Z" transform="translate(0 -0.002)" fill="#fde7a4"/>
      </g>
    </g>
  </g>
</svg>
