<svg xmlns="http://www.w3.org/2000/svg" width="148.016" height="138.94" viewBox="0 0 148.016 138.94">
  <g id="Group_1776" data-name="Group 1776" transform="translate(-466 -3626.142)">
    <path id="Path_2108" data-name="Path 2108" d="M0,0H136V114H0Z" transform="translate(466 3632)" fill="#fff"/>
    <rect id="Rectangle_3248" data-name="Rectangle 3248" width="28.722" height="17.473" rx="1" transform="translate(572.376 3724.292) rotate(180)" fill="#fff"/>
    <path id="blob_3_" data-name="blob (3)" d="M23.816-42.416C37.309-30.992,54.445-21.224,58-7.9c3.56,13.245-6.54,30.132-20.033,35.761-13.41,5.712-30.3.248-44.784-2.07s-26.655-1.573-34.933-7.2C-50.024,12.882-54.495.713-52.591-9.635c1.821-10.348,9.851-18.874,18.129-30.3,8.278-11.506,16.8-25.993,25.91-26.573C.637-67.167,10.405-53.922,23.816-42.416Z" transform="matrix(-0.875, 0.485, -0.485, -0.875, 535.385, 3678.425)" fill="#fde7a4"/>
    <g id="Group_1773" data-name="Group 1773" transform="translate(0.557 4.97)">
      <g id="Group_1746" data-name="Group 1746" transform="translate(-267.139 3049.382)">
        <g id="Group_1745" data-name="Group 1745" transform="translate(-164.912 64.763)">
          <g id="Union_25" data-name="Union 25" transform="translate(963.549 584.588) rotate(180)" fill="none">
            <path d="M3,40.7a3,3,0,0,1-3-3V10.726a3,3,0,0,1,3-3H30.77L46.611,0l-.6,7.727h7.045a3,3,0,0,1,3,3V37.7a3,3,0,0,1-3,3Z" stroke="none"/>
            <path d="M 53.05500030517578 38.20159912109375 C 53.33053970336914 38.20159912109375 53.55470275878906 37.97702789306641 53.55470275878906 37.70100021362305 L 53.55470275878906 10.72619915008545 C 53.55470275878906 10.45065975189209 53.33053970336914 10.22649955749512 53.05500030517578 10.22649955749512 L 43.30773162841797 10.22649955749512 L 43.77956008911133 4.16251802444458 L 31.34673118591309 10.22649955749512 L 2.999701261520386 10.22649955749512 C 2.724161386489868 10.22649955749512 2.500001430511475 10.45065975189209 2.500001430511475 10.72619915008545 L 2.500001430511475 37.70100021362305 C 2.500001430511475 37.97702789306641 2.724161386489868 38.20159912109375 2.999701261520386 38.20159912109375 L 53.05500030517578 38.20159912109375 M 53.05500030517578 40.70159912109375 L 2.999701261520386 40.70159912109375 C 1.343701362609863 40.70159912109375 1.379394575451443e-06 39.3578987121582 1.379394575451443e-06 37.70100021362305 L 1.379394575451443e-06 10.72619915008545 C 1.379394575451443e-06 9.069299697875977 1.343701362609863 7.726499557495117 2.999701261520386 7.726499557495117 L 30.76955223083496 7.726499557495117 L 46.61100006103516 -4.39453117451194e-07 L 46.00981140136719 7.726499557495117 L 53.05500030517578 7.726499557495117 C 54.7119026184082 7.726499557495117 56.05470275878906 9.069299697875977 56.05470275878906 10.72619915008545 L 56.05470275878906 37.70100021362305 C 56.05470275878906 39.3578987121582 54.7119026184082 40.70159912109375 53.05500030517578 40.70159912109375 Z" stroke="none" fill="#3a6469"/>
          </g>
          <rect id="Rectangle_3247" data-name="Rectangle 3247" width="17.207" height="11.913" rx="1" transform="translate(958.68 560.915) rotate(180)" fill="#d7e1e2"/>
        </g>
        <g id="Group_1751" data-name="Group 1751" transform="translate(-164.912 64.763)">
          <g id="Union_25-2" data-name="Union 25" transform="translate(963.549 584.588) rotate(180)" fill="#fff">
            <path d="M 53.05500030517578 39.45159912109375 L 2.999701261520386 39.45159912109375 C 2.034911394119263 39.45159912109375 1.250001430511475 38.66627883911133 1.250001430511475 37.70100021362305 L 1.250001430511475 10.72619915008545 C 1.250001430511475 9.761409759521484 2.034911394119263 8.976499557495117 2.999701261520386 8.976499557495117 L 30.76955223083496 8.976499557495117 L 31.05814170837402 8.976499557495117 L 31.3175220489502 8.849989891052246 L 45.19528579711914 2.08125638961792 L 44.76358032226562 7.629529476165771 L 44.65877151489258 8.976499557495117 L 46.00981140136719 8.976499557495117 L 53.05500030517578 8.976499557495117 C 54.01979064941406 8.976499557495117 54.80470275878906 9.761409759521484 54.80470275878906 10.72619915008545 L 54.80470275878906 37.70100021362305 C 54.80470275878906 38.66627883911133 54.01979064941406 39.45159912109375 53.05500030517578 39.45159912109375 Z" stroke="none"/>
            <path d="M 53.05500030517578 38.20159912109375 C 53.33053970336914 38.20159912109375 53.55470275878906 37.97702789306641 53.55470275878906 37.70100021362305 L 53.55470275878906 10.72619915008545 C 53.55470275878906 10.45065975189209 53.33053970336914 10.22649955749512 53.05500030517578 10.22649955749512 L 43.30773162841797 10.22649955749512 L 43.77956008911133 4.16251802444458 L 31.34673118591309 10.22649955749512 L 2.999701261520386 10.22649955749512 C 2.724161386489868 10.22649955749512 2.500001430511475 10.45065975189209 2.500001430511475 10.72619915008545 L 2.500001430511475 37.70100021362305 C 2.500001430511475 37.97702789306641 2.724161386489868 38.20159912109375 2.999701261520386 38.20159912109375 L 53.05500030517578 38.20159912109375 M 53.05500030517578 40.70159912109375 L 2.999701261520386 40.70159912109375 C 1.343701362609863 40.70159912109375 1.379394575451443e-06 39.3578987121582 1.379394575451443e-06 37.70100021362305 L 1.379394575451443e-06 10.72619915008545 C 1.379394575451443e-06 9.069299697875977 1.343701362609863 7.726499557495117 2.999701261520386 7.726499557495117 L 30.76955223083496 7.726499557495117 L 46.61100006103516 -4.39453117451194e-07 L 46.00981140136719 7.726499557495117 L 53.05500030517578 7.726499557495117 C 54.7119026184082 7.726499557495117 56.05470275878906 9.069299697875977 56.05470275878906 10.72619915008545 L 56.05470275878906 37.70100021362305 C 56.05470275878906 39.3578987121582 54.7119026184082 40.70159912109375 53.05500030517578 40.70159912109375 Z" stroke="none" fill="#3a6469"/>
          </g>
          <rect id="Rectangle_3247-2" data-name="Rectangle 3247" width="17.207" height="11.913" rx="1" transform="translate(958.68 560.915) rotate(180)" fill="#d7e1e2"/>
        </g>
      </g>
      <g id="Group_1772" data-name="Group 1772" transform="translate(0 -19.673)">
        <rect id="Rectangle_3256" data-name="Rectangle 3256" width="23" height="16" transform="translate(538 3693)" fill="#fff"/>
        <g id="Group_1771" data-name="Group 1771" transform="translate(-267.139 3060.054)">
          <path id="Subtraction_12" data-name="Subtraction 12" d="M46.606,40.7h0l-15.84-7.726H2.994a3,3,0,0,1-3-3V3a3,3,0,0,1,3-3H53.05a3,3,0,0,1,3,3V29.972a3,3,0,0,1-3,3H46.005l.6,7.725ZM5.86,5.112a1,1,0,0,0-1,1v9.913a1,1,0,0,0,1,1H21.067a1,1,0,0,0,1-1V6.112a1,1,0,0,0-1-1Z" transform="translate(802.645 629.89)" fill="#d7e1e2"/>
          <g id="Union_23" data-name="Union 23" transform="translate(802.639 629.889)" fill="none">
            <path d="M30.767,32.972H3a3,3,0,0,1-3-3V3A3,3,0,0,1,3,0H53.053a3,3,0,0,1,3,3V29.973a3,3,0,0,1-3,3H46.008l.6,7.727Z" stroke="none"/>
            <path d="M 43.77776718139648 36.53647994995117 L 43.30593109130859 30.4724006652832 L 53.05319976806641 30.4724006652832 C 53.32923126220703 30.4724006652832 53.55380249023438 30.24824142456055 53.55380249023438 29.97270011901855 L 53.55380249023438 2.998800754547119 C 53.55380249023438 2.722770690917969 53.32923126220703 2.4982008934021 53.05319976806641 2.4982008934021 L 2.997000932693481 2.4982008934021 C 2.721460819244385 2.4982008934021 2.497300863265991 2.722770690917969 2.497300863265991 2.998800754547119 L 2.497300863265991 29.97270011901855 C 2.497300863265991 30.24824142456055 2.721460819244385 30.4724006652832 2.997000932693481 30.4724006652832 L 31.3441104888916 30.4724006652832 L 43.77776718139648 36.53647994995117 M 46.60919952392578 40.69890213012695 L 30.76696014404297 32.9724006652832 L 2.997000932693481 32.9724006652832 C 1.34100079536438 32.9724006652832 -0.002699157688766718 31.62960052490234 -0.002699157688766718 29.97270011901855 L -0.002699157688766718 2.998800754547119 C -0.002699157688766718 1.341900825500488 1.34100079536438 -0.001799203455448151 2.997000932693481 -0.001799203455448151 L 53.05319976806641 -0.001799203455448151 C 54.71010208129883 -0.001799203455448151 56.05380249023438 1.341900825500488 56.05380249023438 2.998800754547119 L 56.05380249023438 29.97270011901855 C 56.05380249023438 31.62960052490234 54.71010208129883 32.9724006652832 53.05319976806641 32.9724006652832 L 46.00801086425781 32.9724006652832 L 46.60919952392578 40.69890213012695 Z" stroke="none" fill="#3a6469"/>
          </g>
        </g>
      </g>
    </g>
  </g>
</svg>
