<svg xmlns="http://www.w3.org/2000/svg" xmlns:xlink="http://www.w3.org/1999/xlink" width="136" height="114" viewBox="0 0 136 114">
  <defs>
    <clipPath id="clip-path">
      <rect id="Rectangle_3250" data-name="Rectangle 3250" width="69.793" height="58.065" fill="#17494d"/>
    </clipPath>
  </defs>
  <g id="Group_2724" data-name="Group 2724" transform="translate(-763 -3208)">
    <rect id="Rectangle_3253" data-name="Rectangle 3253" width="136" height="114" transform="translate(763 3208)" fill="#fff"/>
    <g id="Group_2723" data-name="Group 2723" transform="translate(9.66 -3.472)">
      <path id="Path_6116" data-name="Path 6116" d="M37.076,1.364a34.142,34.142,0,0,1-22.754-8q-9.486-8-9.982-21.886H21.2a13.519,13.519,0,0,0,4.9,9.734,17.062,17.062,0,0,0,10.974,3.41,14.753,14.753,0,0,0,9.61-2.976,10.186,10.186,0,0,0,3.782-8.06,10.524,10.524,0,0,0-3.844-8.68q-3.844-3.1-10.54-3.1h-7.44V-52.08h6.7q6.076,0,9.3-2.852a10.117,10.117,0,0,0,3.348-7.688,8.9,8.9,0,0,0-3.162-7.316,12.13,12.13,0,0,0-8.246-2.852,14.058,14.058,0,0,0-9.8,3.472,11.119,11.119,0,0,0-3.72,8.928H5.952q0-13.144,9.176-21.142a31.628,31.628,0,0,1,21.452-8q13.144,0,20.832,7.378A24.187,24.187,0,0,1,65.1-63.984a22.08,22.08,0,0,1-2.852,11.1A23.561,23.561,0,0,1,55.3-45.012a21.241,21.241,0,0,1,8.8,7.688A21.611,21.611,0,0,1,67.58-25.048,24.127,24.127,0,0,1,59.148-6.014Q50.716,1.364,37.076,1.364ZM90.148.992a11.973,11.973,0,0,1-8.8-3.6,11.973,11.973,0,0,1-3.6-8.8,11.973,11.973,0,0,1,3.6-8.8,11.973,11.973,0,0,1,8.8-3.6A11.93,11.93,0,0,1,98.89-20.15a11.93,11.93,0,0,1,3.658,8.742A11.93,11.93,0,0,1,98.89-2.666,11.93,11.93,0,0,1,90.148.992Z" transform="translate(763 3313)" fill="#fde7a4"/>
      <g id="Group_1769" data-name="Group 1769" transform="translate(-4.768 -416.779)">
        <path id="Path_2107" data-name="Path 2107" d="M-14096.111,599.07c3.012-.364,9.563-3.686,9.563-3.686v5.681s2.13,2.646,13.945,3.3,16.394-2.289,16.394-2.289l-.9-18.288a18.864,18.864,0,0,0-7.355-7.6c-5.016-2.7-12.574-2.408-12.574-2.408s-13.06-.27-19.069,4.331-6.129,12.4-6.129,12.4S-14099.123,599.434-14096.111,599.07Z" transform="translate(14914.219 3089.142)" fill="#fff"/>
        <g id="Group_1761" data-name="Group 1761" transform="translate(-161.232 3021.483)">
          <path id="Path_2105" data-name="Path 2105" d="M-21734.09-8716.834l.484,21.426s7.172,16.445,34.359,14.543,32.98-15.1,32.98-15.1l-1.035-19.344s-10.871,12.17-33.922,12.287S-21734.09-8716.834-21734.09-8716.834Z" transform="translate(22707.27 9377.767)" fill="#94ccd0"/>
          <g id="Group_1756" data-name="Group 1756" transform="translate(972 640.014)">
            <g id="Group_1756-2" data-name="Group 1756" transform="translate(0 0)" clip-path="url(#clip-path)">
              <path id="Path_2104" data-name="Path 2104" d="M68.888,19.194a1.266,1.266,0,0,0-1.417.532c-3.361,5.265-10.039,9.451-18.8,11.8a59.363,59.363,0,0,1-27.894.5A34.071,34.071,0,0,1,9.82,27.63,28.537,28.537,0,0,1,16.2,25.194v2.582A1.7,1.7,0,0,0,17.355,29.4l.024.008a1.011,1.011,0,0,0,1.34-.95V20.306A14.32,14.32,0,0,0,25.06,23.3a26.082,26.082,0,0,0,12.276-.219A16.1,16.1,0,0,0,45,18.861v10.4a1.138,1.138,0,0,0,1.368,1.112l.037-.008a1.411,1.411,0,0,0,1.12-1.376V12.808l0-.02a8.26,8.26,0,0,0-.641-3.162C45.229,5.61,40.5,2.375,34.223.958A40.092,40.092,0,0,0,15.382,1.3C9.268,2.931,4.567,5.927,2.14,9.735A12.829,12.829,0,0,0,0,16.8l0,.057V38.713c-.028,3.893,1.835,7.628,5.407,10.831,3.617,3.24,8.736,5.671,14.81,7.043a61.726,61.726,0,0,0,13.5,1.478,60.821,60.821,0,0,0,15.6-2C58.7,53.551,65.908,48.975,69.6,43.174a1.258,1.258,0,0,0,.191-.67V20.4a1.262,1.262,0,0,0-.905-1.21M24.829,12.463a1.324,1.324,0,0,0-1.563.666,3.22,3.22,0,0,0-.426,1.486l0,.037v5.282a7.079,7.079,0,0,1-3.861-3.406,3.25,3.25,0,0,1,.345-3.134c1.62-2.537,6.771-3.828,11.249-2.817,1.977.447,3.483,1.4,3.934,2.493a1.633,1.633,0,0,1-.183,1.587c-1.027,1.608-4.364,2.135-6.723,1.6a3.017,3.017,0,0,1-2.2-1.323.647.647,0,0,1-.045-.227v-.032a.725.725,0,0,1,.126-.337,1.262,1.262,0,0,0-.654-1.876m9.8,8.615a23.69,23.69,0,0,1-9.272-.3l0,0V18.126a7.589,7.589,0,0,0,1.689.593,10.721,10.721,0,0,0,7.587-1.027ZM4.263,11.091C6.354,7.819,10.531,5.2,16.036,3.735a37.515,37.515,0,0,1,17.635-.317c5.472,1.234,9.54,3.913,10.876,7.165a5.753,5.753,0,0,1-.593,5.545c-1.2,1.876-3.662,3.459-6.8,4.38V13.49a1.334,1.334,0,0,0-.037-.288,4.12,4.12,0,0,0-.284-1.1c-.779-1.9-2.862-3.349-5.708-3.991-5.6-1.263-11.724.459-13.933,3.922a6.069,6.069,0,0,0-.966,2.793,1.108,1.108,0,0,0-.028.26V22.6A30.291,30.291,0,0,0,7.6,26C2.335,21.6,1.08,16.08,4.263,11.091m63.009,31.04c-3.418,5.119-10.007,9.2-18.605,11.5a59.416,59.416,0,0,1-27.894.5C9.63,51.614,2.294,45.326,2.521,38.485V24.22a17.778,17.778,0,0,0,1.77,2.139v8.16a1.294,1.294,0,0,0,.934,1.271,1.264,1.264,0,0,0,1.587-1.222V28.6a25.9,25.9,0,0,0,2.233,1.518V43.531A1.291,1.291,0,0,0,9.979,44.8a1.263,1.263,0,0,0,1.587-1.218V31.5a36.185,36.185,0,0,0,3.67,1.543l0,.053V41.38a1.287,1.287,0,0,0,.934,1.271,1.263,1.263,0,0,0,1.587-1.218V33.849q1.206.347,2.464.633c.442.1.889.191,1.336.28V47.656a1.294,1.294,0,0,0,.938,1.275,1.263,1.263,0,0,0,1.583-1.222v-12.5q1.845.292,3.71.467v8.03a1.294,1.294,0,0,0,.938,1.275,1.263,1.263,0,0,0,1.583-1.222v-7.9c1.25.069,2.5.1,3.755.093V49.182A1.3,1.3,0,0,0,35,50.453a1.266,1.266,0,0,0,1.587-1.222V35.9c1.315-.057,2.631-.158,3.934-.3v7.851a1.293,1.293,0,0,0,.938,1.271,1.262,1.262,0,0,0,1.583-1.222V35.258q1.784-.268,3.532-.645v12.6a1.291,1.291,0,0,0,.938,1.271,1.26,1.26,0,0,0,1.583-1.218V34.016c.073-.02.15-.037.223-.057,1.234-.329,2.424-.7,3.577-1.1V40.4a1.289,1.289,0,0,0,.938,1.267,1.26,1.26,0,0,0,1.583-1.218V32.1a1.449,1.449,0,0,0-.016-.187q1.936-.792,3.682-1.717V41.437a1.291,1.291,0,0,0,.938,1.271,1.263,1.263,0,0,0,1.587-1.218V28.738q.877-.56,1.693-1.153V46.633a1.3,1.3,0,0,0,.934,1.275,1.266,1.266,0,0,0,1.587-1.222V25.527c.512-.471,1-.95,1.453-1.445Z" transform="translate(0 -0.002)" fill="#17494d"/>
            </g>
          </g>
        </g>
      </g>
    </g>
  </g>
</svg>
