<svg xmlns="http://www.w3.org/2000/svg" width="130" height="81" viewBox="0 0 130 81">
  <g id="Group_1716" data-name="Group 1716" transform="translate(-14041 -16470)">
    <rect id="Rectangle_3172" data-name="Rectangle 3172" width="130" height="81" transform="translate(14041 16470)" fill="none"/>
    <g id="Group_1713" data-name="Group 1713" transform="translate(13270.846 12891.285)">
      <g id="Group_1556" data-name="Group 1556" transform="translate(801.921 3591.552)">
        <path id="Path_1411" data-name="Path 1411" d="M-8022.445-13073.069v7.118l6.415,4.822,8.641-3.335,26.229-2.684,3.3-6.426v-5.3s-6.658-10.479-25.453-7.762S-8022.445-13073.069-8022.445-13073.069Z" transform="translate(8022.445 13087.088)" fill="#fff3ce"/>
        <path id="Path_1413" data-name="Path 1413" d="M-8021.433-13064.383s7.379,10.3,27.855,12.072,32.672-7.891,32.672-7.891v20.238s-26.3,15.514-45.817,5.32-14.71-10.584-14.71-10.584Z" transform="translate(8022.408 13085.375)" fill="#fff3ce" stroke="#707070" stroke-width="1"/>
      </g>
      <path id="Path_1414" data-name="Path 1414" d="M988.665,129.864a1.225,1.225,0,0,0-1.2.582,1.175,1.175,0,0,0-.164.185,19.6,19.6,0,0,1-3.049,3.236c-6.8,5.976-15.564,8.392-22.35,9.344l-.456.064c-.538.071-1.067.136-1.576.19-13.025,1.381-22.722-1.308-29.173-5.376a22.871,22.871,0,0,1,5.957-2.27v1.015a2.777,2.777,0,0,0,1.937,2.656,51.937,51.937,0,0,0,26.732.961,3.44,3.44,0,0,0,2.659-3.365l0-15.267h-.09a7.251,7.251,0,0,0-.772-2.5c-3.238-6.189-14.867-8.575-19.991-8.761-7.008-.251-16.5,1.412-22.145,6.853a14.349,14.349,0,0,0-4.526,10.7V139.9c0,.845-.015,1.688-.031,2.527-.094,5.23-.191,10.637,3.52,15.366,7.17,9.139,20.845,10.533,26.392,10.707q1.3.041,2.549.041c26.752,0,36.24-13.663,36.643-14.262l.209-.312V131.164A1.286,1.286,0,0,0,988.665,129.864Zm-33.619,1.645a22.691,22.691,0,0,1-9.528-.4v-2.848a8.618,8.618,0,0,0,2.646.879,12.851,12.851,0,0,0,3.623.02,9.091,9.091,0,0,0,3.259-.956Zm-.133-6.573c-.34.948-1.492,1.547-3.422,1.781a10.5,10.5,0,0,1-2.933-.006,5.761,5.761,0,0,1-2.489-.991,1.518,1.518,0,0,1-.567-.646.9.9,0,0,1,.129-.275,1.29,1.29,0,0,0-.334-1.705,1.229,1.229,0,0,0-1.743.382,2.957,2.957,0,0,0-.5,1.79v5.041a8.144,8.144,0,0,1-2.377-1.469,4.369,4.369,0,0,1-1.532-3.53c.211-1.886,2.123-3.3,3.842-3.989a12.774,12.774,0,0,1,8.656-.276,5.858,5.858,0,0,1,2.673,1.583A2.457,2.457,0,0,1,954.913,124.936Zm-31.667,6.044a2.069,2.069,0,0,1-.322-1.131v-1.734a11.971,11.971,0,0,1,3.773-8.928c5.092-4.911,14.141-6.393,20.347-6.165,4.978.181,15.34,2.549,17.9,7.44.942,1.8.688,3.785-.777,6.065-1.582,2.462-4.381,3.747-6.658,4.417v-6.2a1.218,1.218,0,0,0-.048-.322,5.165,5.165,0,0,0-1.283-3.41,8.2,8.2,0,0,0-3.762-2.307,15.275,15.275,0,0,0-10.347.329c-3.079,1.24-5.087,3.483-5.37,6a5.563,5.563,0,0,0-.031.7h-.01v7.6c-3.13.421-6.9,2.43-8.21,3.173A22.649,22.649,0,0,1,923.246,130.98Zm3.6,15.256a1.232,1.232,0,0,1-1.231,1.207h-.024a1.233,1.233,0,0,1-1.207-1.256l.188-9.695a25.94,25.94,0,0,0,2.422,2.1Zm4.753,8.991a1.231,1.231,0,1,1-2.462,0V140.1c.793.5,1.62.954,2.462,1.386Zm6.187-2.153a1.231,1.231,0,1,1-2.462,0v-9.937c.808.306,1.63.584,2.462.842Zm6.321,6.279a1.231,1.231,0,0,1-2.462,0V144.99q1.225.266,2.462.47Zm6.232-3.948a1.231,1.231,0,0,1-2.462,0v-9.447q1.234.119,2.462.185Zm6.279,5.471a1.232,1.232,0,0,1-2.463,0v-14.64q1.246-.009,2.463-.065Zm6.456-5.74a1.232,1.232,0,0,1-2.463,0v-9.279c.792-.091,1.611-.2,2.463-.327Zm6.053,3.767a1.231,1.231,0,1,1-2.462,0V144.859c.808-.177,1.63-.372,2.462-.594Zm6.322-6.815a1.231,1.231,0,1,1-2.462,0v-9.017c.82-.289,1.642-.611,2.462-.955Zm6.187,1.043a1.231,1.231,0,1,1-2.462,0V140.342q1.248-.673,2.462-1.453Z" transform="translate(-119.918 3479.672)" fill="#fec51d"/>
    </g>
  </g>
</svg>
