<svg xmlns="http://www.w3.org/2000/svg" width="130" height="81" viewBox="0 0 130 81">
  <g id="Group_1719" data-name="Group 1719" transform="translate(-13891 -16712)">
    <g id="Group_1718" data-name="Group 1718">
      <rect id="Rectangle_3170" data-name="Rectangle 3170" width="130" height="81" transform="translate(13891 16712)" fill="none"/>
      <g id="Group_1714" data-name="Group 1714" transform="translate(13897.09 11913.521)">
        <path id="Path_1544" data-name="Path 1544" d="M24.706,4822.223l34.412-17.766,34.032,17.969-.977,25.3L28.976,4849Z" fill="#36ce9c" stroke="#36ce9c" stroke-width="1"/>
        <path id="Path_896" data-name="Path 896" d="M.014-.006l35.18,18.135-.145,36.4L.454,36.494Z" transform="translate(24.123 4821.943)" fill="#00ad74"/>
        <path id="Path_897" data-name="Path 897" d="M1.946,18.552,36.363.448l.016,36.309L1.854,54.817Z" transform="translate(57.31 4821.663)" fill="#248666"/>
        <path id="Path_899" data-name="Path 899" d="M-.091-9.22,9.868-14.5,9.822.173-.01,4.96Z" transform="translate(72.298 4842.626)" fill="rgba(247,247,255,0.79)"/>
        <path id="Path_900" data-name="Path 900" d="M-.483-9.045,9.626-14.262,45.047,3.6,35.092,8.887Z" transform="translate(37.122 4824.533)" fill="#f7f7ff"/>
        <path id="Path_910" data-name="Path 910" d="M0,0,12.57,6.433" transform="matrix(1, -0.017, 0.017, 1, 40.52, 4859.581)" fill="#f7f7ff"/>
        <path id="Path_910_-_Outline" data-name="Path 910 - Outline" d="M12.57,8.095,0,1.662.85,0,13.42,6.433Z" transform="matrix(1, -0.017, 0.017, 1, 40.081, 4858.761)" fill="#f7f7ff"/>
        <path id="Path_911" data-name="Path 911" d="M0,0,6.1,3.121" transform="matrix(1, -0.017, 0.017, 1, 47.143, 4855.584)" fill="#f7f7ff"/>
        <path id="Path_911_-_Outline" data-name="Path 911 - Outline" d="M6.1,4.783,0,1.662.85,0l6.1,3.121Z" transform="matrix(1, -0.017, 0.017, 1, 46.706, 4854.759)" fill="#f7f7ff"/>
      </g>
    </g>
  </g>
</svg>
