<svg xmlns="http://www.w3.org/2000/svg" width="136" height="114" viewBox="0 0 136 114">
  <g id="Group_2726" data-name="Group 2726" transform="translate(-1061 -3205)">
    <rect id="Rectangle_3254" data-name="Rectangle 3254" width="136" height="114" transform="translate(1061 3205)" fill="#fff"/>
    <g id="Group_2725" data-name="Group 2725" transform="translate(14.768 -7.96)">
      <path id="Path_6117" data-name="Path 6117" d="M46,0V-20.088H2.232V-33.852L47.864-88.04H62.992v52.328H74.524v15.624H62.992V0ZM23.064-35.712H46V-62.868ZM96.224.992a11.973,11.973,0,0,1-8.8-3.6,11.973,11.973,0,0,1-3.6-8.8,11.973,11.973,0,0,1,3.6-8.8,11.973,11.973,0,0,1,8.8-3.6,11.93,11.93,0,0,1,8.742,3.658,11.93,11.93,0,0,1,3.658,8.742,11.93,11.93,0,0,1-3.658,8.742A11.93,11.93,0,0,1,96.224.992Z" transform="translate(1055 3313)" fill="#fde7a4"/>
      <g id="Group_1770" data-name="Group 1770" transform="translate(2.977 -427.631)">
        <path id="Path_2100" data-name="Path 2100" d="M-13804.618,582.869l-7.535,13.289,22.685,7.9,8.728-12.136,8.554,12.941,23.34-7.911-7.614-14.082,12.137-5.168-23.3-8.1-13.115,4.771-13.395-4.771-21.985,8.1Z" transform="translate(14910 3102.142)" fill="#fff"/>
        <g id="Group_1760" data-name="Group 1760" transform="translate(0 -96.858)">
          <path id="Path_2106" data-name="Path 2106" d="M-13778.272,608.71l.991,15.981,18.3-6.289-.936-13.917Z" transform="translate(14910 3199)" fill="#fff"/>
          <g id="Group_1759" data-name="Group 1759">
            <g id="Group_1748" data-name="Group 1748" transform="translate(521.22 3293.87)">
              <path id="Path_1994" data-name="Path 1994" d="M75.143,52.4,61.084,57.534,50.99,44.21,44.011,55.746l-.923,1.831-15.718-4.6.562,21.212,22.885,7.066,25.177-7.21ZM70.515,68.81,56.643,73.482V65.638l13.872-4.672Z" transform="translate(556.612 452.152)" fill="#94ccd0"/>
              <g id="Group_1697" data-name="Group 1697" transform="translate(569.805 473.337)">
                <path id="Path_1995" data-name="Path 1995" d="M45.658,61.754a1.076,1.076,0,0,1-.425,0l-23.887-8.33a1.289,1.289,0,0,1-.793-1.658,1.09,1.09,0,0,1,.1-.227l8.5-14.252A1.318,1.318,0,0,1,30.7,36.72l23.887,8.26a1.318,1.318,0,0,1,.737,1.686.865.865,0,0,1-.1.2l-8.5,14.252A1.289,1.289,0,0,1,45.658,61.754ZM23.7,51.482l21.379,7.4,7.084-11.971-21.336-7.4Z" transform="translate(-15.819 -23.456)" fill="#17494d"/>
                <path id="Path_1996" data-name="Path 1996" d="M53.1,61.758a1.318,1.318,0,0,1-1.119-.638l-8.5-14.252a1.289,1.289,0,0,1,.453-1.785l.241-.113,23.887-8.26a1.318,1.318,0,0,1,1.544.567l8.5,14.252a1.3,1.3,0,0,1-.468,1.785l-.227.1L53.52,61.687A1.417,1.417,0,0,1,53.1,61.758ZM46.55,46.911l7.084,11.971,21.407-7.4L67.957,39.515Z" transform="translate(-6.312 -23.46)" fill="#17494d"/>
                <path id="Path_1997" data-name="Path 1997" d="M44.613,83.71a1.3,1.3,0,0,1-1.3-1.3V43.743a1.3,1.3,0,0,1,2.607,0V82.406a1.3,1.3,0,0,1-1.3,1.3Z" transform="translate(-6.302 -21.044)" fill="#17494d"/>
                <path id="Path_1998" data-name="Path 1998" d="M51.654,81.072a1.077,1.077,0,0,1-.425,0l-23.9-8.217a1.318,1.318,0,0,1-.878-1.233V50.073a1.3,1.3,0,0,1,2.607,0V70.63l22.668,7.764,22.5-7.764V50.073a1.3,1.3,0,0,1,2.607,0V71.551a1.318,1.318,0,0,1-.878,1.233L52.079,81A1.417,1.417,0,0,1,51.654,81.072Z" transform="translate(-13.329 -18.406)" fill="#17494d"/>
                <path id="Path_1999" data-name="Path 1999" d="M68.488,43.119a1.417,1.417,0,0,1-.425,0l-23.887-8.33a1.3,1.3,0,0,1-.751-1.686,1.275,1.275,0,0,1,.751-.751l13.133-4.93a1.332,1.332,0,0,1,.878,0l23.887,8.26a1.3,1.3,0,0,1,.751,1.686,1.275,1.275,0,0,1-.751.751l-13.133,4.93A1.219,1.219,0,0,1,68.488,43.119ZM48.427,33.514,68.46,40.442l9.322-3.5L57.749,30.015Z" transform="translate(-6.29 -27.333)" fill="#17494d"/>
                <path id="Path_2000" data-name="Path 2000" d="M31.613,43.124a1.233,1.233,0,0,1-.453-.085l-13.133-4.93a1.3,1.3,0,0,1-.751-1.686,1.275,1.275,0,0,1,.751-.751l23.887-8.26a1.332,1.332,0,0,1,.878,0l13.133,4.93a1.3,1.3,0,0,1,.779,1.672,1.289,1.289,0,0,1-.779.779l-23.887,8.26A1.417,1.417,0,0,1,31.613,43.124Zm-9.294-6.177,9.308,3.5,20.047-6.928-9.251-3.5Z" transform="translate(-17.189 -27.337)" fill="#17494d"/>
                <path id="Path_2001" data-name="Path 2001" d="M44.613,83.71a1.3,1.3,0,0,1-1.3-1.3V43.743a1.3,1.3,0,0,1,2.607,0V82.406a1.3,1.3,0,0,1-1.3,1.3Z" transform="translate(-6.302 -21.044)" fill="#17494d"/>
                <path id="Path_2002" data-name="Path 2002" d="M51.654,81.072a1.077,1.077,0,0,1-.425,0l-23.9-8.217a1.318,1.318,0,0,1-.878-1.233V50.073a1.3,1.3,0,0,1,2.607,0V70.63l22.668,7.764,22.5-7.764V50.073a1.3,1.3,0,0,1,2.607,0V71.551a1.318,1.318,0,0,1-.878,1.233L52.079,81A1.417,1.417,0,0,1,51.654,81.072Z" transform="translate(-13.329 -18.406)" fill="#17494d"/>
              </g>
            </g>
          </g>
        </g>
      </g>
    </g>
  </g>
</svg>
