<svg xmlns="http://www.w3.org/2000/svg" width="216.2" height="85.702" viewBox="0 0 216.2 85.702">
  <g id="Group_2398" data-name="Group 2398" transform="translate(-546.8 -5375.448)">
    <path id="Path_5578" data-name="Path 5578" d="M-6.324,0V-3.348L-12-5.58c-4.092-1.674-5.487-3.069-5.487-6.6V-62.775l-2.883-1.86-22.971,9.393v3.162l5.208,1.023c3.813.744,5.859,2.883,5.859,6.231v32.643c0,3.627-1.116,4.836-5.394,6.6l-5.673,2.232V0ZM17.3.93c14.6,0,24.924-7.719,24.924-18.786,0-6.975-4.836-12.462-13.02-15.531,7.347-3.162,11.253-8.184,11.253-14.508,0-9.951-8.184-16.74-20.367-16.74-7.812,0-15.81,4.092-21.669,11.067l3.069,4.092c5.394-3.906,9.765-5.673,13.857-5.673,5.115,0,8.463,3.255,8.463,8.184,0,6.789-5.115,10.6-15.345,11.532l.744,5.3c10.416,0,16.275,4,16.275,11.718,0,6.7-4.65,10.974-12.09,10.974A34.951,34.951,0,0,1-.093-10.416L-2.976-6.045A31,31,0,0,0,17.3.93Z" transform="translate(592 5457)" fill="#17494d"/>
    <path id="Path_5577" data-name="Path 5577" d="M-17.84-3.1a3.4,3.4,0,0,0,2.512,1.056,3.358,3.358,0,0,0,2.5-1.064A3.555,3.555,0,0,0-11.792-5.68a3.555,3.555,0,0,0-1.032-2.568,3.358,3.358,0,0,0-2.5-1.064,3.358,3.358,0,0,0-2.5,1.064A3.555,3.555,0,0,0-18.864-5.68,3.6,3.6,0,0,0-17.84-3.1Zm6.656,1.584A5.644,5.644,0,0,1-15.328.192a5.658,5.658,0,0,1-4.152-1.72A5.658,5.658,0,0,1-21.2-5.68a5.658,5.658,0,0,1,1.72-4.152,5.658,5.658,0,0,1,4.152-1.72,5.658,5.658,0,0,1,4.152,1.72A5.658,5.658,0,0,1-9.456-5.68,5.671,5.671,0,0,1-11.184-1.52ZM-4.592,0-9.28-11.36h2.512l3.216,7.888L-.384-11.36h2.56L-2.528,0ZM3.472,0V-11.36h7.072v2.208H5.792v2.336H9.584v2.208H5.792v2.4h4.752V0ZM12.56,0V-11.36h4.352a3.424,3.424,0,0,1,2.52.96A3.242,3.242,0,0,1,20.4-8a2.906,2.906,0,0,1-2.336,2.96L22.144,0h-2.8l-3.9-4.784h-.56V0Zm2.32-6.768h1.76A1.606,1.606,0,0,0,17.7-7.1,1.115,1.115,0,0,0,18.1-8a1.115,1.115,0,0,0-.392-.9,1.606,1.606,0,0,0-1.064-.328H14.88Z" transform="translate(568 5387)" fill="#17494d"/>
    <path id="Path_5580" data-name="Path 5580" d="M-59.5,0V-10.65h6.4v1.68h-4.65v2.73H-54v1.68h-3.75v2.88h4.65V0ZM-48.69.15a3.711,3.711,0,0,1-2.243-.66A2.24,2.24,0,0,1-51.9-2.28h1.71q.18,1.11,1.545,1.11a1.681,1.681,0,0,0,.885-.2.653.653,0,0,0,.33-.592.778.778,0,0,0-.255-.615,2.081,2.081,0,0,0-.855-.375l-1.23-.33A2.223,2.223,0,0,1-51.69-5.55a1.817,1.817,0,0,1,.765-1.523A3.277,3.277,0,0,1-48.9-7.65a3.125,3.125,0,0,1,1.995.615,2.245,2.245,0,0,1,.87,1.635h-1.65a1.145,1.145,0,0,0-1.23-.93,1.4,1.4,0,0,0-.8.2.642.642,0,0,0-.3.562q0,.645,1.005.9l1.26.33A2.248,2.248,0,0,1-45.75-2.07a1.891,1.891,0,0,1-.817,1.642A3.6,3.6,0,0,1-48.69.15Zm7.71-.075a2.673,2.673,0,0,1-1.853-.637,2.357,2.357,0,0,1-.713-1.852V-6.03H-45.1V-7.5h1.56V-9.585h1.65V-7.5h2.145v1.47h-2.145v3.345a1.335,1.335,0,0,0,.3.983,1.337,1.337,0,0,0,.96.293,2.236,2.236,0,0,0,.885-.15V-.09A4.209,4.209,0,0,1-40.98.075Zm5.76.075A3.348,3.348,0,0,1-37.792-.99a3.944,3.944,0,0,1-1.042-2.76,3.944,3.944,0,0,1,1.042-2.76A3.348,3.348,0,0,1-35.22-7.65a3,3,0,0,1,1.41.337,2.769,2.769,0,0,1,.99.818V-7.5h1.65V0h-1.65V-1a2.769,2.769,0,0,1-.99.817A3,3,0,0,1-35.22.15Zm-1.305-2.19a2.077,2.077,0,0,0,1.6.69,2.077,2.077,0,0,0,1.6-.69,2.441,2.441,0,0,0,.63-1.71,2.441,2.441,0,0,0-.63-1.71,2.077,2.077,0,0,0-1.6-.69,2.077,2.077,0,0,0-1.6.69,2.441,2.441,0,0,0-.63,1.71A2.441,2.441,0,0,0-36.525-2.04ZM-24.87.15a3.04,3.04,0,0,1-1.417-.337,2.755,2.755,0,0,1-1-.817V0h-1.65V-11.25h1.65v4.755a2.755,2.755,0,0,1,1-.818A3.04,3.04,0,0,1-24.87-7.65,3.348,3.348,0,0,1-22.3-6.51a3.944,3.944,0,0,1,1.043,2.76A3.944,3.944,0,0,1-22.3-.99,3.348,3.348,0,0,1-24.87.15Zm-.3-1.5a2.077,2.077,0,0,0,1.6-.69,2.441,2.441,0,0,0,.63-1.71,2.441,2.441,0,0,0-.63-1.71,2.077,2.077,0,0,0-1.6-.69,2.094,2.094,0,0,0-1.62.69,2.441,2.441,0,0,0-.63,1.71,2.441,2.441,0,0,0,.63,1.71A2.094,2.094,0,0,0-25.17-1.35Zm5.6,1.35V-11.25h1.65V0Zm4.695-9.135a1.079,1.079,0,0,1-.78-.323,1.059,1.059,0,0,1-.33-.788,1.042,1.042,0,0,1,.33-.772,1.079,1.079,0,0,1,.78-.323,1.047,1.047,0,0,1,.78.323,1.067,1.067,0,0,1,.315.772,1.084,1.084,0,0,1-.315.788A1.047,1.047,0,0,1-14.88-9.135ZM-15.7,0V-7.5h1.65V0Zm6.51.15a3.711,3.711,0,0,1-2.243-.66A2.24,2.24,0,0,1-12.4-2.28h1.71q.18,1.11,1.545,1.11a1.681,1.681,0,0,0,.885-.2.653.653,0,0,0,.33-.592A.778.778,0,0,0-8.19-2.58a2.081,2.081,0,0,0-.855-.375l-1.23-.33a2.223,2.223,0,0,1-1.92-2.265,1.817,1.817,0,0,1,.765-1.523A3.277,3.277,0,0,1-9.4-7.65a3.125,3.125,0,0,1,1.995.615A2.245,2.245,0,0,1-6.54-5.4H-8.19a1.145,1.145,0,0,0-1.23-.93,1.4,1.4,0,0,0-.8.2.642.642,0,0,0-.3.562q0,.645,1,.9l1.26.33a2.248,2.248,0,0,1,2,2.265A1.891,1.891,0,0,1-7.072-.428,3.6,3.6,0,0,1-9.195.15ZM-2.94,0H-4.59V-11.25h1.65v4.77A2.459,2.459,0,0,1-.66-7.65,2.685,2.685,0,0,1,1.425-6.8a3.252,3.252,0,0,1,.78,2.28V0H.555V-4.245a2.125,2.125,0,0,0-.42-1.4A1.408,1.408,0,0,0-1-6.15,1.735,1.735,0,0,0-2.4-5.505,2.749,2.749,0,0,0-2.94-3.69ZM7.635.15a3.7,3.7,0,0,1-2.76-1.1,3.833,3.833,0,0,1-1.08-2.8,3.862,3.862,0,0,1,1.065-2.8,3.7,3.7,0,0,1,2.79-1.1,3.559,3.559,0,0,1,2.805,1.207,4.093,4.093,0,0,1,.945,3.1H5.43A2,2,0,0,0,6.09-1.89,2.266,2.266,0,0,0,7.695-1.3a1.906,1.906,0,0,0,1.89-1.05H11.31a3.464,3.464,0,0,1-1.32,1.8A3.911,3.911,0,0,1,7.635.15ZM7.6-6.27a2.166,2.166,0,0,0-1.388.457,2.1,2.1,0,0,0-.742,1.3H9.63a2.17,2.17,0,0,0-.735-1.312A2.009,2.009,0,0,0,7.6-6.27ZM16.17.15A3.348,3.348,0,0,1,13.6-.99a3.944,3.944,0,0,1-1.043-2.76A3.944,3.944,0,0,1,13.6-6.51,3.348,3.348,0,0,1,16.17-7.65a3,3,0,0,1,1.41.337,2.769,2.769,0,0,1,.99.818V-11.25h1.65V0H18.57V-1a2.769,2.769,0,0,1-.99.817A3,3,0,0,1,16.17.15ZM14.865-2.04a2.077,2.077,0,0,0,1.605.69,2.077,2.077,0,0,0,1.6-.69,2.441,2.441,0,0,0,.63-1.71,2.441,2.441,0,0,0-.63-1.71,2.077,2.077,0,0,0-1.6-.69,2.077,2.077,0,0,0-1.605.69,2.441,2.441,0,0,0-.63,1.71A2.441,2.441,0,0,0,14.865-2.04Zm17.745.42V0H25.56V-.6a3.416,3.416,0,0,1,.172-1.088A4.956,4.956,0,0,1,26.1-2.55a3.518,3.518,0,0,1,.645-.773q.45-.428.69-.615t.847-.623l.773-.555A7.284,7.284,0,0,0,30.42-6.33a1.954,1.954,0,0,0,.42-1.26,1.577,1.577,0,0,0-.45-1.178,1.7,1.7,0,0,0-1.245-.443,1.96,1.96,0,0,0-1.365.488,1.743,1.743,0,0,0-.555,1.327H25.56A3.235,3.235,0,0,1,26.588-9.87a3.622,3.622,0,0,1,2.573-.96,3.492,3.492,0,0,1,2.385.84,2.963,2.963,0,0,1,.96,2.355,3.545,3.545,0,0,1-.548,2.017A7.172,7.172,0,0,1,30.15-3.9q-.195.15-.72.51t-.772.555a3.8,3.8,0,0,0-.533.533,1.946,1.946,0,0,0-.39.683Zm8.205.63A3.653,3.653,0,0,1,38.04.15,3.641,3.641,0,0,1,35.265-1a4.127,4.127,0,0,1-1.08-2.948v-2.79a4.127,4.127,0,0,1,1.08-2.947A3.641,3.641,0,0,1,38.04-10.83a3.665,3.665,0,0,1,2.783,1.148A4.111,4.111,0,0,1,41.91-6.735v2.79A4.121,4.121,0,0,1,40.815-.99ZM38.04-1.47a2.087,2.087,0,0,0,1.612-.66,2.578,2.578,0,0,0,.608-1.815v-2.79a2.578,2.578,0,0,0-.608-1.815,2.087,2.087,0,0,0-1.612-.66,2.069,2.069,0,0,0-1.6.66,2.578,2.578,0,0,0-.607,1.815v2.79a2.578,2.578,0,0,0,.607,1.815A2.069,2.069,0,0,0,38.04-1.47Zm12.165.48A3.653,3.653,0,0,1,47.43.15,3.641,3.641,0,0,1,44.655-1a4.127,4.127,0,0,1-1.08-2.948v-2.79a4.127,4.127,0,0,1,1.08-2.947A3.641,3.641,0,0,1,47.43-10.83a3.665,3.665,0,0,1,2.783,1.148A4.111,4.111,0,0,1,51.3-6.735v2.79A4.121,4.121,0,0,1,50.205-.99ZM47.43-1.47a2.087,2.087,0,0,0,1.612-.66,2.578,2.578,0,0,0,.608-1.815v-2.79a2.578,2.578,0,0,0-.608-1.815,2.087,2.087,0,0,0-1.612-.66,2.069,2.069,0,0,0-1.6.66,2.578,2.578,0,0,0-.607,1.815v2.79a2.578,2.578,0,0,0,.607,1.815A2.069,2.069,0,0,0,47.43-1.47ZM56.46.15A3.726,3.726,0,0,1,53.835-.8,3.148,3.148,0,0,1,52.8-3.225,2.827,2.827,0,0,1,54.315-5.91a2.524,2.524,0,0,1-.99-2.115,2.6,2.6,0,0,1,.877-2.01,3.233,3.233,0,0,1,2.257-.795,3.273,3.273,0,0,1,2.272.788,2.589,2.589,0,0,1,.878,2.017,2.524,2.524,0,0,1-.99,2.115,2.827,2.827,0,0,1,1.515,2.685A3.153,3.153,0,0,1,59.107-.8,3.758,3.758,0,0,1,56.46.15Zm0-1.545a1.966,1.966,0,0,0,1.455-.54,1.8,1.8,0,0,0,.54-1.32,1.789,1.789,0,0,0-.54-1.328,1.962,1.962,0,0,0-1.44-.532,1.982,1.982,0,0,0-1.455.532,1.789,1.789,0,0,0-.54,1.328,1.783,1.783,0,0,0,.548,1.32A1.952,1.952,0,0,0,56.46-1.395Zm0-5.115a1.542,1.542,0,0,0,1.118-.412,1.335,1.335,0,0,0,.428-1,1.333,1.333,0,0,0-.42-1.012,1.569,1.569,0,0,0-1.125-.4,1.538,1.538,0,0,0-1.1.4A1.328,1.328,0,0,0,54.93-7.92a1.324,1.324,0,0,0,.435,1A1.528,1.528,0,0,0,56.46-6.51Z" transform="translate(702 5461)" fill="#17494d"/>
    <path id="Path_5579" data-name="Path 5579" d="M10.32,0V-.72l-.64-.34C8.86-1.5,8.64-1.8,8.64-2.4V-5.46l3.32-6.06c.36-.64.56-.94.88-1.08l.86-.38v-.72H8.86v.72l.74.28c.54.2.72.38.72.68a2.253,2.253,0,0,1-.32.92L7.94-7.16l-2.4-4.2a1.876,1.876,0,0,1-.3-.72c0-.24.2-.4.62-.6l.64-.3v-.72H.04v.72l.64.34c.38.2.5.42,1.06,1.4L5.26-5.1v2.7c0,.6-.24.9-1.06,1.34l-.64.34V0ZM25.94,0l.48-3.88H25.7L24.96-2.8c-.86,1.22-1.2,1.44-2.32,1.44H20.68c-.98,0-1.24-.26-1.24-1.2v-3.7h2.22c.68,0,1.02.2,1.36,1.08l.32.82h.72V-9.12h-.72L23-8.46a1.238,1.238,0,0,1-1.34.84H19.44v-4.72h3.14c.92,0,1.34.3,2.1,1.34l.64.88h.74l-.2-3.58H14.58v.72l.64.34a1.237,1.237,0,0,1,.84,1.34v8.9c0,.66-.12.94-.84,1.34l-.64.34V0Zm6.12,0V-.72L31.34-1c-.52-.2-.8-.38-.8-.7a2.777,2.777,0,0,1,.22-.88l.48-1.2h4.9l.52,1.32a2.077,2.077,0,0,1,.2.72c0,.3-.2.48-.66.72l-.64.3V0h6.5V-.72l-.64-.34c-.5-.28-.66-.38-1.06-1.4L35.78-13.9l-2.32.52L29.18-2.62c-.36.92-.68,1.32-1.1,1.52l-.84.38V0Zm1.58-10.1L35.6-5.16H31.76ZM49.5,0V-.72l-.64-.34C48.04-1.5,47.8-1.8,47.8-2.4V-5.7h.96a2.876,2.876,0,0,1,.8,1.04L52.16,0h4.48V-.72L56-1a1.912,1.912,0,0,1-.98-.8l-1.7-3.1a2.843,2.843,0,0,0-1.36-1.28c1.98-.66,3.1-2,3.1-3.7,0-2.4-2-3.82-5.38-3.82H42.94v.72l.64.34a1.243,1.243,0,0,1,.84,1.34v8.9a1.256,1.256,0,0,1-.84,1.34l-.64.34V0ZM47.8-12.34h1.18a2.506,2.506,0,0,1,2.5,2.46,2.643,2.643,0,0,1-2.46,2.82H47.8ZM62.76.2C65.8.2,67.88-1.52,67.88-4c0-1.82-1.02-2.94-3.92-4.42-2.5-1.26-3.24-1.84-3.24-2.66,0-.76.76-1.36,1.78-1.36,1.18,0,2.2.68,3.2,2.1l.6.88h.74l-.24-3.56a10.25,10.25,0,0,0-4.14-.88c-2.78,0-4.72,1.62-4.72,3.98,0,1.74,1.02,2.94,3.34,4,2.82,1.3,3.64,1.96,3.64,2.96a1.913,1.913,0,0,1-2.12,1.7c-1.42,0-2.62-.86-3.5-2.56l-.64-1.22h-.74v4A9.32,9.32,0,0,0,62.76.2ZM80.92,0V-.72l-.64-.34c-.72-.4-.86-.68-.86-1.34v-8.9a1.254,1.254,0,0,1,.86-1.34l.64-.34v-.72H74.56v.72l.64.34a1.237,1.237,0,0,1,.84,1.34v8.9c0,.66-.12.94-.84,1.34l-.64.34V0ZM95.64-.34V-11.28a1.236,1.236,0,0,1,.82-1.34l.66-.36v-.72H92.2v.72l.76.34c.86.38,1.08.68,1.08,1.36V-5.2l-6.96-8.5H82.64v.72l.58.32a1.308,1.308,0,0,1,.86,1.36v8.9a1.223,1.223,0,0,1-.82,1.34L82.6-.7V0h4.92V-.7l-.76-.34c-.86-.38-1.08-.68-1.08-1.36v-7.64L94.22.3ZM7.1,23c3.82,0,6.06-1.38,6.06-3.72,0-1.68-1.38-2.9-3.62-3.32a3.37,3.37,0,0,0,2.94-3.1c0-2.18-1.8-3.56-4.64-3.56h-7v.72l.64.34a1.237,1.237,0,0,1,.84,1.34v8.9c0,.66-.12.94-.84,1.34l-.64.34V23ZM5.7,10.66h.84a2.168,2.168,0,0,1,2.34,2.28,2.231,2.231,0,0,1-2.24,2.44H5.7Zm0,6.08H6.82c1.76,0,2.74.9,2.74,2.48,0,1.5-1.04,2.42-2.74,2.42H5.7ZM21.64,23.2a4.9,4.9,0,0,0,4.44-2.04c.62-.96.94-2.58.94-5.28V11.72a1.251,1.251,0,0,1,.84-1.34l.64-.36V9.3H23.94v.72l.64.36c.68.38.86.64.86,1.34v4.66c0,3.76-.9,5.18-3.18,5.18-2.24,0-3.14-1.42-3.14-4.92V11.72c0-.7.18-.96.86-1.34l.64-.36V9.3H14.26v.72l.64.36c.68.38.86.64.86,1.34v4.16c0,3.1.2,4.44.8,5.34C17.48,22.58,19.08,23.2,21.64,23.2Zm13.62,0c3.04,0,5.12-1.72,5.12-4.2,0-1.82-1.02-2.94-3.92-4.42-2.5-1.26-3.24-1.84-3.24-2.66,0-.76.76-1.36,1.78-1.36,1.18,0,2.2.68,3.2,2.1l.6.88h.74L39.3,9.98a10.25,10.25,0,0,0-4.14-.88c-2.78,0-4.72,1.62-4.72,3.98,0,1.74,1.02,2.94,3.34,4,2.82,1.3,3.64,1.96,3.64,2.96a1.913,1.913,0,0,1-2.12,1.7c-1.42,0-2.62-.86-3.5-2.56l-.64-1.22h-.74v4A9.32,9.32,0,0,0,35.26,23.2ZM48.62,23v-.72l-.64-.34c-.72-.4-.86-.68-.86-1.34V11.7a1.254,1.254,0,0,1,.86-1.34l.64-.34V9.3H42.26v.72l.64.34a1.237,1.237,0,0,1,.84,1.34v8.9c0,.66-.12.94-.84,1.34l-.64.34V23Zm14.72-.34V11.72a1.236,1.236,0,0,1,.82-1.34l.66-.36V9.3H59.9v.72l.76.34c.86.38,1.08.68,1.08,1.36V17.8L54.78,9.3H50.34v.72l.58.32a1.308,1.308,0,0,1,.86,1.36v8.9a1.223,1.223,0,0,1-.82,1.34l-.66.36V23h4.92v-.7l-.76-.34c-.86-.38-1.08-.68-1.08-1.36V12.96L61.92,23.3ZM77.66,23l.48-3.88h-.72l-.74,1.08c-.86,1.22-1.2,1.44-2.32,1.44H72.4c-.98,0-1.24-.26-1.24-1.2v-3.7h2.22c.68,0,1.02.2,1.36,1.08l.32.82h.72V13.88h-.72l-.34.66a1.238,1.238,0,0,1-1.34.84H71.16V10.66H74.3c.92,0,1.34.3,2.1,1.34l.64.88h.74l-.2-3.58H66.3v.72l.64.34a1.237,1.237,0,0,1,.84,1.34v8.9c0,.66-.12.94-.84,1.34l-.64.34V23Zm7.38.2c3.04,0,5.12-1.72,5.12-4.2,0-1.82-1.02-2.94-3.92-4.42C83.74,13.32,83,12.74,83,11.92c0-.76.76-1.36,1.78-1.36,1.18,0,2.2.68,3.2,2.1l.6.88h.74l-.24-3.56a10.25,10.25,0,0,0-4.14-.88c-2.78,0-4.72,1.62-4.72,3.98,0,1.74,1.02,2.94,3.34,4,2.82,1.3,3.64,1.96,3.64,2.96a1.913,1.913,0,0,1-2.12,1.7c-1.42,0-2.62-.86-3.5-2.56l-.64-1.22H80.2v4A9.32,9.32,0,0,0,85.04,23.2Zm12.28,0c3.04,0,5.12-1.72,5.12-4.2,0-1.82-1.02-2.94-3.92-4.42-2.5-1.26-3.24-1.84-3.24-2.66,0-.76.76-1.36,1.78-1.36,1.18,0,2.2.68,3.2,2.1l.6.88h.74l-.24-3.56a10.25,10.25,0,0,0-4.14-.88c-2.78,0-4.72,1.62-4.72,3.98,0,1.74,1.02,2.94,3.34,4,2.82,1.3,3.64,1.96,3.64,2.96a1.913,1.913,0,0,1-2.12,1.7c-1.42,0-2.62-.86-3.5-2.56l-.64-1.22h-.74v4A9.32,9.32,0,0,0,97.32,23.2Z" transform="translate(641 5407)" fill="#17494d"/>
    <path id="Path_5571" data-name="Path 5571" d="M-12137.218-2363h164.866" transform="translate(12732.909 7745)" fill="none" stroke="#17494d" stroke-width="2"/>
    <path id="Path_5572" data-name="Path 5572" d="M-12137.218-2363h121.559" transform="translate(12778.659 7805)" fill="none" stroke="#17494d" stroke-width="2"/>
  </g>
</svg>
