<svg xmlns="http://www.w3.org/2000/svg" width="22.644" height="17.544" viewBox="0 0 22.644 17.544">
  <path id="Path_2167" data-name="Path 2167" d="M12.036-28.458l-5.712,9.18H2.193L5.967-27.03A4.781,4.781,0,0,1,3.8-28.841a4.98,4.98,0,0,1-.892-2.881,4.925,4.925,0,0,1,1.479-3.621,4.925,4.925,0,0,1,3.621-1.479,4.925,4.925,0,0,1,3.621,1.479,4.925,4.925,0,0,1,1.479,3.621A5.912,5.912,0,0,1,12.036-28.458Zm11.73,0-5.712,9.18H13.923L17.7-27.03a4.781,4.781,0,0,1-2.167-1.811,4.98,4.98,0,0,1-.893-2.881,4.925,4.925,0,0,1,1.479-3.621,4.925,4.925,0,0,1,3.621-1.479,4.925,4.925,0,0,1,3.621,1.479,4.925,4.925,0,0,1,1.479,3.621A5.912,5.912,0,0,1,23.766-28.458Z" transform="translate(-2.193 36.822)" fill="#d7e1e2"/>
</svg>
