<svg xmlns="http://www.w3.org/2000/svg" width="38.897" height="29.488" viewBox="0 0 38.897 29.488">
  <path id="Path_2196" data-name="Path 2196" d="M3.1-45.3c9.991-5.723,15.52-12.9,15.52-20.467,0-4.656-2.91-9.021-6.014-9.021-1.261,0-3.1.97-9.894,5.432v2.619c3.007,1.358,4.947,3.783,4.947,6.5,0,4.074-1.843,7.663-6.887,12.222Zm-21.049,0C-7.857-51.022-2.328-58.2-2.328-65.766c0-4.656-2.91-9.021-6.014-9.021-1.358,0-3.2.97-9.991,5.432v2.619c3.007,1.358,4.947,3.783,4.947,6.5,0,4.074-1.843,7.663-6.887,12.222Z" transform="translate(20.273 74.787)" fill="#fec51d"/>
</svg>
