<svg xmlns="http://www.w3.org/2000/svg" width="41.704" height="31.616" viewBox="0 0 41.704 31.616">
  <path id="Path_5206" data-name="Path 5206" d="M8.944-48.88c1.456,0,3.432-1.04,10.608-5.824v-2.808c-3.224-1.352-5.3-4.056-5.3-6.968,0-4.264,1.976-8.112,7.488-13.1L19.24-80.5C8.424-74.36,2.5-66.664,2.5-58.448,2.5-53.456,5.616-48.88,8.944-48.88Zm-22.568,0c1.456,0,3.432-1.04,10.712-5.824v-2.808c-3.224-1.352-5.3-4.056-5.3-6.968,0-4.264,1.976-8.112,7.488-13.1l-2.6-2.912c-10.712,6.136-16.64,13.832-16.64,22.048C-19.968-53.456-16.848-48.88-13.624-48.88Z" transform="translate(19.968 80.496)" fill="#17494d"/>
</svg>
