<svg xmlns="http://www.w3.org/2000/svg" width="35.471" height="26.544" viewBox="0 0 35.471 26.544">
  <path id="Path_6195" data-name="Path 6195" d="M23.779-34.523C33.18-39.816,38-45.9,38-52.772c0-4.187-2.686-8.3-5.53-8.3-1.185,0-3.081,1.027-9.48,5.293v2.37c2.686,1.185,4.345,3.4,4.345,5.767,0,3.713-1.58,6.557-5.767,10.507Zm-19.039,0c9.4-5.293,14.3-11.376,14.3-18.249,0-4.187-2.686-8.3-5.53-8.3-1.264,0-3.16,1.027-9.559,5.293v2.37c2.686,1.185,4.424,3.4,4.424,5.767,0,3.713-1.659,6.557-5.846,10.507Z" transform="translate(-2.528 61.067)" fill="#188087"/>
</svg>
