<svg xmlns="http://www.w3.org/2000/svg" width="41.704" height="31.616" viewBox="0 0 41.704 31.616">
  <path id="Path_5207" data-name="Path 5207" d="M3.328-48.568C14.04-54.7,19.968-62.4,19.968-70.512c0-4.992-3.12-9.672-6.448-9.672-1.352,0-3.328,1.04-10.608,5.824v2.808c3.224,1.456,5.3,4.056,5.3,6.968,0,4.368-1.976,8.216-7.384,13.1Zm-22.568,0C-8.424-54.7-2.5-62.4-2.5-70.512c0-4.992-3.12-9.672-6.448-9.672-1.456,0-3.432,1.04-10.712,5.824v2.808c3.224,1.456,5.3,4.056,5.3,6.968,0,4.368-1.976,8.216-7.384,13.1Z" transform="translate(21.736 80.184)" fill="#17494d"/>
</svg>
