<svg xmlns="http://www.w3.org/2000/svg" width="22.542" height="17.544" viewBox="0 0 22.542 17.544">
  <path id="Path_2166" data-name="Path 2166" d="M2.5-27.03l5.814-9.18h4.029L8.67-28.458a4.781,4.781,0,0,1,2.168,1.811,4.98,4.98,0,0,1,.892,2.882,4.925,4.925,0,0,1-1.479,3.621A4.925,4.925,0,0,1,6.63-18.666a4.925,4.925,0,0,1-3.621-1.479A4.925,4.925,0,0,1,1.53-23.766,6.166,6.166,0,0,1,2.5-27.03Zm11.73,0,5.814-9.18h4.029L20.4-28.458a4.781,4.781,0,0,1,2.167,1.811,4.98,4.98,0,0,1,.893,2.882,4.925,4.925,0,0,1-1.479,3.621,4.925,4.925,0,0,1-3.621,1.479,4.925,4.925,0,0,1-3.621-1.479,4.925,4.925,0,0,1-1.479-3.621A6.166,6.166,0,0,1,14.229-27.03Z" transform="translate(-1.53 36.21)" fill="#d7e1e2"/>
</svg>
