<svg xmlns="http://www.w3.org/2000/svg" width="38.897" height="29.488" viewBox="0 0 38.897 29.488">
  <path id="Path_2195" data-name="Path 2195" d="M8.342-45.59c1.358,0,3.2-.97,9.894-5.432v-2.619c-3.007-1.261-4.947-3.783-4.947-6.5,0-3.977,1.843-7.566,6.984-12.222l-2.328-2.716C7.857-69.355,2.328-62.177,2.328-54.514,2.328-49.858,5.238-45.59,8.342-45.59Zm-21.049,0c1.358,0,3.2-.97,9.991-5.432v-2.619c-3.007-1.261-4.947-3.783-4.947-6.5,0-3.977,1.843-7.566,6.984-12.222L-3.1-75.078c-9.991,5.723-15.52,12.9-15.52,20.564C-18.624-49.858-15.714-45.59-12.707-45.59Z" transform="translate(18.624 75.078)" fill="#fec51d"/>
</svg>
