<svg xmlns="http://www.w3.org/2000/svg" width="35.471" height="26.544" viewBox="0 0 35.471 26.544">
  <path id="Path_6194" data-name="Path 6194" d="M27.966-34.839c1.264,0,3.16-1.027,9.48-5.293V-42.5C34.76-43.687,33.1-45.9,33.1-48.269c0-3.634,1.58-6.478,5.846-10.507l-2.212-2.607c-9.48,5.293-14.3,11.376-14.3,18.249C22.436-38.868,25.122-34.839,27.966-34.839Zm-19.039,0c1.264,0,3.16-1.027,9.559-5.293V-42.5c-2.686-1.185-4.424-3.4-4.424-5.767,0-3.634,1.659-6.478,5.846-10.507L17.7-61.383C8.3-56.09,3.476-50.007,3.476-43.134,3.476-38.868,6.162-34.839,8.927-34.839Z" transform="translate(-3.476 61.383)" fill="#188087"/>
</svg>
