<svg xmlns="http://www.w3.org/2000/svg" width="420.302" height="618.121" viewBox="0 0 420.302 618.121">
  <g id="Group_1663" data-name="Group 1663" transform="translate(-10032.116 -12417.112)">
    <path id="Path_1542" data-name="Path 1542" d="M405.979,612.526c-7.257-12.825-14.895-25.828-22.988-39.669-13.11-22.412-25.951-42.966-38.166-61.091-11.612-17.23-23.035-32.821-33.95-46.339a394.07,394.07,0,0,0-30.28-33.686A238.414,238.414,0,0,0,253.439,408.6a159.012,159.012,0,0,0-24.591-14.724,134.806,134.806,0,0,0-22.626-8.442c-14.6-4.012-28.471-5.251-41.889-6.448-8.227-.734-16.734-1.493-25.2-2.887a134.972,134.972,0,0,1-26.021-6.814A128.668,128.668,0,0,1,85.37,354.617a171.529,171.529,0,0,1-14.8-11.48c-5.136-4.436-10.378-9.443-15.581-14.88-20.576-21.5-39.3-41.659-55.663-59.906v-4.439c16.338,18.222,37.277,40.79,57.831,62.271,5.137,5.369,10.31,10.309,15.374,14.684A168.5,168.5,0,0,0,87.07,352.145a125.713,125.713,0,0,0,27.1,14.332,132.014,132.014,0,0,0,25.449,6.66c8.358,1.376,16.809,2.13,24.982,2.859,27.343,2.44,55.617,4.963,90.593,30.169a241.409,241.409,0,0,1,27.5,23.433,397.07,397.07,0,0,1,30.514,33.944c10.969,13.585,22.443,29.246,34.1,46.547,12.251,18.177,25.126,38.785,38.268,61.253,8.1,13.854,15.709,26.311,22.973,39.148Z" transform="translate(10032.811 12416.91)" fill="#3a6469"/>
    <path id="Path_1543" data-name="Path 1543" d="M343.4,618.323c-9.736-20.226-20.388-40.306-31.6-61.047-23.367-43.218-43.049-64.754-60.173-65.84a22.694,22.694,0,0,0-11.389,2.314,41.207,41.207,0,0,0-10.524,7.525c-6.849,6.471-13.288,15.445-19.515,24.124-5.772,8.045-11.74,16.364-18,22.606a46.521,46.521,0,0,1-9.9,7.779,25.1,25.1,0,0,1-11.07,3.384,23.067,23.067,0,0,1-6.835-.7,30.046,30.046,0,0,1-7.17-2.916,47.076,47.076,0,0,1-7.527-5.314,79.466,79.466,0,0,1-7.965-7.928,102.029,102.029,0,0,0-12-11.671,67.664,67.664,0,0,0-11.456-7.613,51.162,51.162,0,0,0-10.938-4.2A47.2,47.2,0,0,0,96.855,517.4a61.636,61.636,0,0,0-19.875,3.132,182.4,182.4,0,0,0-18.57,7.3c-10.588,4.621-20.589,8.987-29.958,8.462a24.332,24.332,0,0,1-13.816-5.177c-4.53-3.464-8.581-8.629-12.384-15.788l-.024-.045-.021-.047c-1.371-3.069-2.9-3.7-2.9-3.7v-4.405s2.067,1.681,2.945,2.526a14.254,14.254,0,0,1,2.675,4.311,59.565,59.565,0,0,0,5.69,8.89,33.477,33.477,0,0,0,5.842,5.878A21.424,21.424,0,0,0,28.62,533.3a37.115,37.115,0,0,0,13.523-2.187c4.8-1.55,9.789-3.726,15.067-6.029a184.675,184.675,0,0,1,18.877-7.417A64.559,64.559,0,0,1,96.924,514.4a50.208,50.208,0,0,1,11.152,1.517,54.165,54.165,0,0,1,11.581,4.446,70.661,70.661,0,0,1,11.968,7.949,105.024,105.024,0,0,1,12.354,12.015c5.083,5.764,10.028,10.005,14.7,12.6a27.051,27.051,0,0,0,6.45,2.63,20.079,20.079,0,0,0,5.946.615,21.834,21.834,0,0,0,9.749-3,43.6,43.6,0,0,0,9.252-7.29c6.084-6.068,11.979-14.285,17.68-22.231,6.309-8.794,12.833-17.888,19.892-24.556a44.123,44.123,0,0,1,11.3-8.056,27.951,27.951,0,0,1,6.223-2.121,24.8,24.8,0,0,1,6.641-.476,31.029,31.029,0,0,1,13.215,4.21,65.7,65.7,0,0,1,14.569,11.765A158.5,158.5,0,0,1,295.93,525.01a356.9,356.9,0,0,1,18.5,30.84c11.236,20.782,21.877,42.206,31.634,62.474Z" transform="translate(10032.811 12416.91)" fill="#3a6469"/>
    <path id="Path_1544" data-name="Path 1544" d="M419.486,466.261c-11.172-14.987-29.741-40.883-54.761-79.139-15.675-23.967-31.454-49.13-42.209-67.312a54.387,54.387,0,0,0-7.118-9.593,42.558,42.558,0,0,0-8.059-6.715,45.772,45.772,0,0,0-18.77-6.592c-13.754-1.9-29.552.631-46.277,3.315-16.544,2.655-33.652,5.4-50.867,4.309a94,94,0,0,1-25.769-5.078,83.423,83.423,0,0,1-12.618-5.688,87.815,87.815,0,0,1-12.287-8.282,117.908,117.908,0,0,1-15.133-14.6,156.078,156.078,0,0,1-12.429-16.414c-7.568-11.382-14.045-23.755-20.309-35.72-4.827-9.22-9.819-18.754-15.256-27.726a165.134,165.134,0,0,0-18.386-25.27,109.109,109.109,0,0,0-24.731-20.613,111.257,111.257,0,0,0-15.781-7.894A142.136,142.136,0,0,0-.683,130.735v-3.127a155.506,155.506,0,0,1,20.538,6.866,114.272,114.272,0,0,1,16.208,8.108,112.065,112.065,0,0,1,25.4,21.17,168.074,168.074,0,0,1,18.724,25.725c5.486,9.052,10.5,18.628,15.348,27.889,6.228,11.9,12.669,24.2,20.15,35.45a153.12,153.12,0,0,0,12.191,16.1,114.941,114.941,0,0,0,14.751,14.229,84.806,84.806,0,0,0,11.865,8,80.416,80.416,0,0,0,12.163,5.483,91.051,91.051,0,0,0,24.958,4.912c16.881,1.07,33.82-1.648,50.2-4.277,16.953-2.72,32.966-5.29,47.164-3.325a48.7,48.7,0,0,1,19.973,7.035,45.557,45.557,0,0,1,8.629,7.187,57.384,57.384,0,0,1,7.516,10.122c10.734,18.145,26.486,43.266,42.138,67.2,13.787,21.081,32.056,49.439,52.251,76.531Z" transform="translate(10032.811 12416.91)" fill="#3e6f74"/>
    <path id="Path_1545" data-name="Path 1545" d="M419.607,193.6c-1.752-2.693-3.747-5.59-5.578-8.423a34.515,34.515,0,0,0-5.938-7.058,26.681,26.681,0,0,0-6.7-4.392,32.47,32.47,0,0,0-15.628-2.507,80.52,80.52,0,0,0-18.136,3.582c-6.369,1.9-13.1,4.4-19.618,6.81-21.98,8.139-44.709,16.554-62.892,6.9a37.159,37.159,0,0,1-8.316-6.079,49.124,49.124,0,0,1-7.37-9.188,76.56,76.56,0,0,1-6.3-12.656,127.551,127.551,0,0,1-5.151-16.525,220.406,220.406,0,0,0-8.627-28.262,83.35,83.35,0,0,0-8.576-16.809,42.414,42.414,0,0,0-8.42-9.2,66.807,66.807,0,0,0-8.448-5.55,59.579,59.579,0,0,1-9.959-6.812,45.736,45.736,0,0,1-9.74-12.618c-3.36-6.149-6.349-13.93-9.138-23.788A369.07,369.07,0,0,1,186.465.2h3.021a356.46,356.46,0,0,0,8.467,40.007c2.728,9.639,5.634,17.216,8.884,23.166,5.954,10.9,12.087,14.483,18.58,18.278,5.806,3.393,11.81,6.9,17.825,15.637a86.261,86.261,0,0,1,8.9,17.412,223.318,223.318,0,0,1,8.75,28.649,124.558,124.558,0,0,0,5.027,16.134,73.57,73.57,0,0,0,6.052,12.158,46.132,46.132,0,0,0,6.914,8.628,33.221,33.221,0,0,0,21.061,9.4,56.485,56.485,0,0,0,14.88-.929c10.369-1.882,21.439-5.981,32.145-9.945,6.558-2.428,13.338-4.939,19.8-6.871a83.409,83.409,0,0,1,18.823-3.7A35.378,35.378,0,0,1,402.633,171a29.676,29.676,0,0,1,7.455,4.883,37.5,37.5,0,0,1,6.461,7.669,29.832,29.832,0,0,1,3.059,5.516Z" transform="translate(10032.811 12416.91)" fill="#3a6469"/>
    <path id="Path_1546" data-name="Path 1546" d="M346.724,86.986q-.735,0-1.452-.042a41.04,41.04,0,0,1-14.19-3.822,60.683,60.683,0,0,1-13.8-8.734,49.325,49.325,0,0,1-10.572-12.108,27.327,27.327,0,0,1-4.263-14.109,41.446,41.446,0,0,0-2.581-15.76,26.807,26.807,0,0,0-7.413-10.365,47.79,47.79,0,0,0-11.984-7.326c-4.539-2.062-9.744-3.954-16.163-6.161A13.887,13.887,0,0,1,256.133.231h2.75c1.227,3.049,3.337,4.438,6.4,5.491,6.5,2.235,11.782,4.155,16.428,6.266a50.649,50.649,0,0,1,12.719,7.8,29.74,29.74,0,0,1,8.22,11.5,44.347,44.347,0,0,1,2.8,16.891,24.391,24.391,0,0,0,3.838,12.559,46.306,46.306,0,0,0,9.928,11.351c8.137,6.846,18.189,11.389,26.232,11.857,3.882.226,8.431-.621,13.907-2.59,4.986-1.793,10.271-4.335,15.383-6.793,8.358-4.02,17-8.176,24.991-9.426,9.3-1.455,14.207,1.024,19.79,6.42v3.681A19.089,19.089,0,0,0,410.58,68.7a21.7,21.7,0,0,0-10.388-.595c-7.553,1.182-15.993,5.24-24.155,9.166a171.123,171.123,0,0,1-15.668,6.912,52.428,52.428,0,0,1-7.658,2.18A31.027,31.027,0,0,1,346.724,86.986Z" transform="translate(10032.811 12416.91)" fill="#3a6469"/>
  </g>
</svg>
