<svg xmlns="http://www.w3.org/2000/svg" width="1411.013" height="179.938" viewBox="0 0 1411.013 179.938">
  <g id="Group_1794" data-name="Group 1794" transform="translate(-4377.97 -19017.701)">
    <path id="Path_1536" data-name="Path 1536" d="M73.666,310.236C89.3,310.172,198.978,322.516,197.4,380.2" transform="translate(4304.31 18817.396)" fill="#17494d" stroke="#3a6469" stroke-miterlimit="10" stroke-width="3"/>
    <path id="Path_1981" data-name="Path 1981" d="M58.231,380.078c.009-8.4,11.684-57.8,68.635-58.91s70.842,47.158,70.664,58.953" transform="translate(5419.263 18817.396)" fill="#17494d" stroke="#3a6469" stroke-miterlimit="10" stroke-width="3"/>
    <path id="Path_1538" data-name="Path 1538" d="M88.771,201.316c.022,11.877-3.339,37.848,52.919,83,64.376,51.671,146.54-25.411,182.117,34.73,19.13,32.339,22.713,50.08,22.8,61.033" transform="translate(4304.31 18817.396)" fill="#17494d" stroke="#3e6f74" stroke-miterlimit="10" stroke-width="3"/>
    <path id="Path_1539" data-name="Path 1539" d="M157.206,13.818c-.238,41.381,77.462,28.517,102.225,129.888,19.377,85.964,117.3-17.214,152.879,37.845,1.84,2.847,4.281,8.221,4.28,11.143" transform="translate(4455.406 19004.869)" fill="#17494d" stroke="#3a6469" stroke-miterlimit="10" stroke-width="3"/>
    <path id="Path_1978" data-name="Path 1978" d="M116.521,4.963c.238,41.381,69.577,27.492,85.594,77.32s47.365,31.814,53.891,54.006-15.314,44.508-15.313,47.43" transform="translate(5198.406 19013.781)" fill="#17494d" stroke="#3a6469" stroke-miterlimit="10" stroke-width="3"/>
    <path id="Path_2165" data-name="Path 2165" d="M116.521,4.963c.238,41.381-13.564,46.74-6.086,70.381s61.49,12.624,94.919,20.117c35.087,7.865,47.291,29.4,50.652,40.828,6.526,22.192-15.314,44.508-15.313,47.43" transform="translate(5098.406 19013.781)" fill="#17494d" stroke="#3a6469" stroke-miterlimit="10" stroke-width="3"/>
    <path id="Path_2164" data-name="Path 2164" d="M51.67,5.156c.238,41.366,113.163,13.288,129.173,63.1s68.552,45.8,75.075,67.988-15.308,44.492-15.307,47.413" transform="translate(5419.129 19013.844)" fill="#17494d" stroke="#3a6469" stroke-miterlimit="10" stroke-width="3"/>
    <path id="Path_1976" data-name="Path 1976" d="M196.459,41.283c.018,57.338,44.727,5.828,72.948,118.685C300.3,283.5,388.642,137.146,447.035,205.234c3.175,3.4,8.562,11.589,8.561,14.893" transform="translate(4849.404 18977.402)" fill="#17494d" stroke="#3a6469" stroke-miterlimit="10" stroke-width="3"/>
    <path id="Path_1540" data-name="Path 1540" d="M270.232,9.174c.072,18.877,69,30.365,68.836,77.916-.114,32.836,51.913,51.488,81.8,53.281,41.627,2.5,134.777,9.643,135.341,47.574" transform="translate(4442.896 19009.527)" fill="#17494d" stroke="#3a6469" stroke-miterlimit="10" stroke-width="3"/>
    <path id="Path_2162" data-name="Path 2162" d="M270.232,9.174c.072,18.877,99.625-9.168,99.46,38.383C369.578,80.393,350.418,129,380.3,130.791c41.627,2.5,175.339,19.223,175.9,57.154" transform="translate(4555.916 19009.527)" fill="#17494d" stroke="#3a6469" stroke-miterlimit="10" stroke-width="3"/>
    <path id="Path_1982" data-name="Path 1982" d="M59.411,402.817c2.552-9.649,40.8-74.552,65.224-56.463s33.509-12,57.868-8.446,15.387,38.787,14.9,64.909" transform="translate(4643.362 19421.529) rotate(180)" fill="#17494d" stroke="#3a6469" stroke-miterlimit="10" stroke-width="3"/>
    <path id="Path_1983" data-name="Path 1983" d="M60.748,356.993c3.54-9.183,39.461-28.728,63.887-10.64s33.509-12,57.868-8.446,1.255,59.442,16.723,65.348" transform="translate(5432.472 19349.211) rotate(-111)" fill="#17494d" stroke="#3a6469" stroke-miterlimit="10" stroke-width="3"/>
  </g>
</svg>
