<svg xmlns="http://www.w3.org/2000/svg" width="30" height="30" viewBox="0 0 30 30">
  <g id="Group_2362" data-name="Group 2362" transform="translate(-6226 4756)">
    <rect id="Rectangle_3503" data-name="Rectangle 3503" width="30" height="30" transform="translate(6226 -4756)" fill="none"/>
    <g id="Group_2361" data-name="Group 2361" transform="translate(6003 -7620.829)">
      <circle id="Ellipse_592" data-name="Ellipse 592" cx="8" cy="8" r="8" transform="translate(228 2873.329)" fill="#fff3ce"/>
      <path id="Path_5296" data-name="Path 5296" d="M8.787,18.2a8.839,8.839,0,0,1-2-.23A8.77,8.77,0,0,1,4.13,1.985a8.8,8.8,0,0,1,7.856-.717.75.75,0,0,1-.55,1.4,7.3,7.3,0,0,0-6.512.595A7.27,7.27,0,1,0,15.131,5.9a.75.75,0,1,1,1.312-.728A8.775,8.775,0,0,1,8.787,18.2Z" transform="translate(230.25 2870.697)" fill="#e0ad16"/>
      <path id="Path_5297" data-name="Path 5297" d="M8.185,11.835a.75.75,0,0,1-.476-.17l-2.071-1.7A.75.75,0,1,1,6.59,8.805l1.471,1.207L15.483.295a.75.75,0,1,1,1.192.911L8.781,11.54a.75.75,0,0,1-.6.295Z" transform="translate(230.25 2870.697)" fill="#e0ad16"/>
    </g>
  </g>
</svg>
