<svg xmlns="http://www.w3.org/2000/svg" width="80" height="80" viewBox="0 0 80 80">
  <g id="Group_1820" data-name="Group 1820" transform="translate(-1032 -2149)">
    <rect id="Rectangle_3285" data-name="Rectangle 3285" width="80" height="80" transform="translate(1032 2149)" fill="none"/>
    <g id="Group_1778" data-name="Group 1778" transform="translate(680.306 2127.691)">
      <rect id="Rectangle_3261" data-name="Rectangle 3261" width="52.986" height="37.632" rx="2.996" transform="translate(363.014 31.399)" fill="#fff" stroke="#ff0037" stroke-miterlimit="10" stroke-width="2"/>
      <path id="Path_2150" data-name="Path 2150" d="M3.4,0A3.4,3.4,0,1,1,0,3.4,3.4,3.4,0,0,1,3.4,0Z" transform="translate(372.319 36.222)" fill="#ffd9e1" stroke="#ff0037" stroke-width="2"/>
      <path id="Path_2148" data-name="Path 2148" d="M3.4,0A3.4,3.4,0,1,1,0,3.4,3.4,3.4,0,0,1,3.4,0Z" transform="translate(381.808 45.709)" fill="#ffd9e1" stroke="#ff0037" stroke-width="2"/>
      <path id="Path_2149" data-name="Path 2149" d="M3.4,0A3.4,3.4,0,1,1,0,3.4,3.4,3.4,0,0,1,3.4,0Z" transform="translate(391.224 36.294)" fill="#ffd9e1" stroke="#ff0037" stroke-width="2"/>
      <line id="Line_40" data-name="Line 40" y1="5.546" x2="5.546" transform="translate(367.692 41.933)" fill="none" stroke="#ff0037" stroke-miterlimit="10" stroke-width="2"/>
      <line id="Line_41" data-name="Line 41" x2="4.681" y2="4.681" transform="translate(378.218 41.933)" fill="none" stroke="#ff0037" stroke-miterlimit="10" stroke-width="2"/>
      <line id="Line_42" data-name="Line 42" y1="4.61" x2="4.61" transform="translate(387.516 42.003)" fill="none" stroke="#ff0037" stroke-miterlimit="10" stroke-width="2"/>
      <line id="Line_43" data-name="Line 43" y2="8.167" transform="translate(380.063 69.031)" fill="none" stroke="#ff0037" stroke-miterlimit="10" stroke-width="2"/>
      <line id="Line_44" data-name="Line 44" x2="16.068" transform="translate(376.343 77.199)" fill="none" stroke="#ff0037" stroke-miterlimit="10" stroke-width="2"/>
      <path id="Path_2144" data-name="Path 2144" d="M53.584,34.4A18.573,18.573,0,1,1,35.011,15.825,18.573,18.573,0,0,1,53.584,34.4" transform="translate(366.422 34.634)" fill="#fff"/>
      <path id="Path_2145" data-name="Path 2145" d="M47.928,33.37A13.946,13.946,0,1,1,33.983,19.425,13.945,13.945,0,0,1,47.928,33.37Z" transform="translate(367.449 35.662)" fill="#ffd9e1" stroke="#ff0037" stroke-miterlimit="10" stroke-width="2"/>
      <path id="Path_2146" data-name="Path 2146" d="M30.885,23.906a8.182,8.182,0,0,1,8.183,8.183" transform="translate(370.549 36.942)" fill="none" stroke="#ff0037" stroke-miterlimit="10" stroke-width="2"/>
      <path id="Path_2147" data-name="Path 2147" d="M.559,0H4.618a.559.559,0,0,1,.559.559V11.244a.559.559,0,0,1-.559.559H.559A.559.559,0,0,1,0,11.245V.559A.559.559,0,0,1,.559,0Z" transform="matrix(0.788, -0.616, 0.616, 0.788, 412.029, 84.501)" fill="#ffd9e1" stroke="#ff0037" stroke-width="2"/>
      <line id="Line_45" data-name="Line 45" x2="4.192" y2="4.192" transform="translate(410.684 78.578) rotate(7)" fill="none" stroke="#ff0037" stroke-miterlimit="10" stroke-width="2"/>
    </g>
  </g>
</svg>
