<svg xmlns="http://www.w3.org/2000/svg" width="80" height="80" viewBox="0 0 80 80">
  <g id="Group_1818" data-name="Group 1818" transform="translate(-239 -2149)">
    <rect id="Rectangle_3283" data-name="Rectangle 3283" width="80" height="80" transform="translate(239 2149)" fill="none"/>
    <g id="Group_1817" data-name="Group 1817" transform="translate(-2 -0.092)">
      <path id="Path_2108" data-name="Path 2108" d="M10.48,15.73a4.653,4.653,0,0,1-.41.26c-.01.01-.01.01-.02,0l.01-.01C10.2,15.89,10.34,15.81,10.48,15.73Z" transform="translate(250 2157.092)" fill="none" stroke="#ff0037" stroke-miterlimit="10" stroke-width="2"/>
      <path id="Path_2109" data-name="Path 2109" d="M10.07,15.99c-.01.01-.01.01-.02,0a4.653,4.653,0,0,1-.41-.26c.14.08.28.16.42.25Z" transform="translate(250 2157.092)" fill="none" stroke="#ff0037" stroke-miterlimit="10" stroke-width="2"/>
      <path id="Path_2110" data-name="Path 2110" d="M10.48,15.73a4.653,4.653,0,0,1-.41.26c-.01.01-.01.01-.02,0a4.653,4.653,0,0,1-.41-.26c.14.08.28.16.42.25C10.2,15.89,10.34,15.81,10.48,15.73Z" transform="translate(250 2157.092)" fill="none" stroke="#ff0037" stroke-miterlimit="10" stroke-width="2"/>
      <path id="Path_2111" data-name="Path 2111" d="M19.12,0a18.523,18.523,0,0,1-8.58,15.7.086.086,0,0,1-.06.03c-.14.08-.28.16-.42.25-.14-.09-.28-.17-.42-.25a.086.086,0,0,1-.06-.03A18.523,18.523,0,0,1,1,0" transform="translate(250 2157.092)" fill="none" stroke="#ff0037" stroke-miterlimit="10" stroke-width="1.5"/>
      <path id="Path_2112" data-name="Path 2112" d="M1,64.12a18.484,18.484,0,0,1,9.06-15.99,18.484,18.484,0,0,1,9.06,15.99" transform="translate(250 2157.092)" fill="none" stroke="#ff0037" stroke-miterlimit="10" stroke-width="1.5"/>
      <path id="Path_2113" data-name="Path 2113" d="M15.964,42.39a18.155,18.155,0,0,1-5.9,5.57,18.155,18.155,0,0,1-5.9-5.57Z" transform="translate(250 2157.092)" fill="none" stroke="#ff0037" stroke-miterlimit="10" stroke-width="1.5"/>
      <path id="Path_2114" data-name="Path 2114" d="M19.124,31.8v.17a18.581,18.581,0,0,1-.3,3.36,17.921,17.921,0,0,1-1.01,3.53,17.96,17.96,0,0,1-1.85,3.53H4.164A18.8,18.8,0,0,1,1.3,35.33,18.581,18.581,0,0,1,1,31.97V31.8a19.467,19.467,0,0,1,.36-3.53,18.456,18.456,0,0,1,8.22-12l.06-.03c.14-.08.27-.16.41-.25.01.01.01.01.02,0,.14.09.27.17.41.25l.06.03a18.307,18.307,0,0,1,4.99,4.66,18.267,18.267,0,0,1,2.14,3.81,18.3,18.3,0,0,1,1.09,3.53A19.467,19.467,0,0,1,19.124,31.8Z" transform="translate(250 2157.092)" fill="none" stroke="#ff0037" stroke-miterlimit="10" stroke-width="1.5"/>
      <path id="Path_2115" data-name="Path 2115" d="M10.48,15.73a4.653,4.653,0,0,1-.41.26c-.01.01-.01.01-.02,0a4.653,4.653,0,0,1-.41-.26c.14.08.28.16.42.25C10.2,15.89,10.34,15.81,10.48,15.73Z" transform="translate(250 2157.092)" fill="none" stroke="#ff0037" stroke-miterlimit="10" stroke-width="2"/>
      <line id="Line_23" data-name="Line 23" x2="15.718" transform="translate(252.105 2195.949)" fill="none" stroke="#ff0037" stroke-miterlimit="10" stroke-width="1.5"/>
      <line id="Line_24" data-name="Line 24" x2="10.995" transform="translate(254.563 2210.209)" fill="none" stroke="#ff0037" stroke-miterlimit="10" stroke-width="1.5"/>
      <line id="Line_25" data-name="Line 25" x1="11.41" transform="translate(257.414 2192.422)" fill="none" stroke="#ff0037" stroke-miterlimit="10" stroke-width="1.5"/>
      <line id="Line_26" data-name="Line 26" x1="4.71" transform="translate(251.004 2192.422)" fill="none" stroke="#ff0037" stroke-miterlimit="10" stroke-width="1.5"/>
      <line id="Line_27" data-name="Line 27" x2="18.12" transform="translate(251.004 2188.891)" fill="none" stroke="#ff0037" stroke-miterlimit="10" stroke-width="1.5"/>
      <line id="Line_28" data-name="Line 28" x2="17.4" transform="translate(251.363 2185.363)" fill="none" stroke="#ff0037" stroke-miterlimit="10" stroke-width="1.5"/>
      <line id="Line_29" data-name="Line 29" x1="3.6" transform="translate(264.225 2181.832)" fill="none" stroke="#ff0037" stroke-miterlimit="10" stroke-width="1.5"/>
      <line id="Line_30" data-name="Line 30" x1="9.3" transform="translate(252.453 2181.832)" fill="none" stroke="#ff0037" stroke-miterlimit="10" stroke-width="1.5"/>
      <line id="Line_31" data-name="Line 31" x2="10.94" transform="translate(254.594 2178.021)" fill="none" stroke="#ff0037" stroke-miterlimit="10" stroke-width="1.5"/>
      <line id="Line_32" data-name="Line 32" y1="0.067" x2="15.216" transform="translate(252.438 2213.918)" fill="none" stroke="#ff0037" stroke-miterlimit="10" stroke-width="1.5"/>
      <line id="Line_33" data-name="Line 33" x2="10.94" transform="translate(254.594 2168.539)" fill="none" stroke="#ff0037" stroke-miterlimit="10" stroke-width="1.5"/>
      <line id="Line_34" data-name="Line 34" x2="10.94" transform="translate(254.594 2164.398)" fill="none" stroke="#ff0037" stroke-miterlimit="10" stroke-width="1.5"/>
      <line id="Line_35" data-name="Line 35" x2="15.19" transform="translate(252.453 2164.398)" fill="none" stroke="#ff0037" stroke-miterlimit="10" stroke-width="1.5"/>
      <line id="Line_36" data-name="Line 36" x2="15.19" transform="translate(252.453 2160.82)" fill="none" stroke="#ff0037" stroke-miterlimit="10" stroke-width="1.5"/>
      <line id="Line_37" data-name="Line 37" x2="17.386" transform="translate(251.363 2160.82)" fill="none" stroke="#ff0037" stroke-miterlimit="10" stroke-width="1.5"/>
      <line id="Line_38" data-name="Line 38" x2="17.488" transform="translate(251.316 2217.762)" fill="none" stroke="#ff0037" stroke-miterlimit="10" stroke-width="1.5"/>
      <g id="Group_1769" data-name="Group 1769" transform="translate(103.813 2086.092)">
        <path id="Path_2123" data-name="Path 2123" d="M23.24,41.744a5.014,5.014,0,0,0-4.99,4.67H6.67a.446.446,0,0,1-.44-.45v-1.05a3.171,3.171,0,0,1,3.17-3.17Z" transform="translate(174 74)" fill="none" stroke="#ff0037" stroke-miterlimit="10" stroke-width="1.5"/>
        <path id="Path_2124" data-name="Path 2124" d="M26.43,42.894a4.983,4.983,0,0,0-3.19-1.15h.75A3.847,3.847,0,0,1,26.43,42.894Z" transform="translate(174 74)" fill="none" stroke="#ff0037" stroke-miterlimit="10" stroke-width="1.5"/>
        <path id="Path_2125" data-name="Path 2125" d="M35.31,54.164v2.93a.448.448,0,0,1-.45.45H1.45a.448.448,0,0,1-.45-.45v-2.92A3.171,3.171,0,0,1,4.17,51l14.06-.07v-4.18a1.884,1.884,0,0,1,.02-.34,5,5,0,0,1,8.18-3.52l.65.66a4.952,4.952,0,0,1,1.17,3.2v4.29l3.9-.04A3.167,3.167,0,0,1,35.31,54.164Z" transform="translate(174 74)" fill="#ffd9e1" stroke="#ff0037" stroke-miterlimit="10" stroke-width="1.5"/>
        <path id="Path_2126" data-name="Path 2126" d="M28.654,49.21l-.4-2.456a4.952,4.952,0,0,0-1.17-3.2,17.592,17.592,0,0,0,1.16-6.34,16.99,16.99,0,0,0-4.16-11.3,14.8,14.8,0,0,0-2-1.88,5.126,5.126,0,0,0,3.32-3.1,19.523,19.523,0,0,1,1.64,1.64,22.028,22.028,0,0,1,5.39,14.64C32.43,42.314,31.374,45.6,28.654,49.21Z" transform="translate(174 74)" fill="none" stroke="#ff0037" stroke-miterlimit="10" stroke-width="1.5"/>
        <rect id="Rectangle_3259" data-name="Rectangle 3259" width="3.309" height="5.94" transform="translate(177.762 101.204) rotate(-45)" fill="none" stroke="#ff0037" stroke-miterlimit="10" stroke-width="1.5"/>
        <path id="Path_2127" data-name="Path 2127" d="M29.15,13.674l-3.69,3.69a5.17,5.17,0,0,0-9.44-.74,5.064,5.064,0,0,0-.62,2.45,4.942,4.942,0,0,0,.55,2.3,5.123,5.123,0,0,0,2.92,2.58l-6.84,6.84-1.73-1.73-4.2-4.2-1.73-1.73L21.49,6.014l1.87,1.87Z" transform="translate(174 74)" fill="#ffd9e1" stroke="#ff0037" stroke-miterlimit="10" stroke-width="1.5"/>
        <rect id="Rectangle_3260" data-name="Rectangle 3260" width="6.24" height="5.54" transform="translate(197.361 81.881) rotate(-45)" fill="none" stroke="#ff0037" stroke-miterlimit="10" stroke-width="1.5"/>
        <path id="Path_2128" data-name="Path 2128" d="M33.854,8.517a.725.725,0,0,1-1.025.007L26.543,2.238a.725.725,0,1,1,1.025-1.025L33.854,7.5A.723.723,0,0,1,33.854,8.517Z" transform="translate(174 74)" fill="none" stroke="#ff0037" stroke-miterlimit="10" stroke-width="1.5"/>
        <path id="Path_2129" data-name="Path 2129" d="M25.46,17.364a5.17,5.17,0,0,0-9.44-.74,5.064,5.064,0,0,0-.62,2.45,4.942,4.942,0,0,0,.55,2.3,5.123,5.123,0,0,0,2.92,2.58,4.843,4.843,0,0,0,1.71.3,5.282,5.282,0,0,0,1.5-.22,5.126,5.126,0,0,0,3.32-3.1,4.964,4.964,0,0,0,.35-1.86A5.074,5.074,0,0,0,25.46,17.364Zm-4.88,3.57a1.86,1.86,0,1,1,1.86-1.86A1.865,1.865,0,0,1,20.58,20.934Z" transform="translate(174 74)" fill="none" stroke="#ff0037" stroke-miterlimit="10" stroke-width="1.5"/>
        <path id="Path_2130" data-name="Path 2130" d="M22.44,19.074a1.865,1.865,0,1,1-1.86-1.86A1.863,1.863,0,0,1,22.44,19.074Z" transform="translate(174 74)" fill="none" stroke="#ff0037" stroke-miterlimit="10" stroke-width="1.5"/>
        <path id="Path_2131" data-name="Path 2131" d="M22.44,19.074a1.865,1.865,0,1,1-1.86-1.86A1.863,1.863,0,0,1,22.44,19.074Z" transform="translate(174 74)" fill="none" stroke="#ff0037" stroke-miterlimit="10" stroke-width="1.5"/>
      </g>
    </g>
  </g>
</svg>
