<svg xmlns="http://www.w3.org/2000/svg" width="72" height="72" viewBox="0 0 72 72">
  <g id="Group_1887" data-name="Group 1887" transform="translate(23837 9567)">
    <rect id="Rectangle_3289" data-name="Rectangle 3289" width="72" height="72" transform="translate(-23837 -9567)" fill="none"/>
    <g id="Group_1886" data-name="Group 1886" transform="translate(-24035.176 -11201.701)">
      <path id="Path_2192" data-name="Path 2192" d="M-24406,16699.717l8.1-13.523s1.885-3.539,4.928-2.182,1.637,4.459,1.637,4.459l-3.885,6.457-4.162,6.92Z" transform="translate(24648 -15040)" fill="#d7e1e2" stroke="#3a6469" stroke-width="2"/>
      <path id="Path_2193" data-name="Path 2193" d="M-24417.008,16696.92l-1.273,11.611,27.154,9.156,6.73-11.3Z" transform="translate(24645 -15041)" fill="#d7e1e2"/>
      <g id="Path_1154" data-name="Path 1154" transform="translate(206.961 1660.793)" fill="#fff">
        <path d="M 5.176357269287109 8.238284111022949 C 4.930809497833252 7.55894947052002 4.5590500831604 6.830758571624756 4.000369071960449 6.272101879119873 C 3.471190690994263 5.742946147918701 2.790023803710938 5.381527900695801 2.142230987548828 5.136171817779541 C 2.790023803710938 4.890815734863281 3.471190690994263 4.529397487640381 4.000369071960449 4.000241756439209 C 4.52955150604248 3.471082210540771 4.891003131866455 2.789892911911011 5.136369228363037 2.142120838165283 C 5.381735324859619 2.789892911911011 5.743186950683594 3.471082210540771 6.272369384765625 4.000241756439209 C 6.8131422996521 4.54099178314209 7.512859344482422 4.906656265258789 8.173256874084473 5.152214527130127 C 7.558424472808838 5.397199153900146 6.91097354888916 5.754369735717773 6.393218994140625 6.272101879119873 C 5.834950923919678 6.830350399017334 5.44452953338623 7.559518814086914 5.176357269287109 8.238284111022949 Z" stroke="none"/>
        <path d="M 5.136369228363037 3.319645881652832 C 4.923172950744629 3.688060283660889 4.665411472320557 4.042314052581787 4.353909015655518 4.353801727294922 C 4.042504787445068 4.665195941925049 3.688117504119873 4.923023223876953 3.31981086730957 5.136171817779541 C 3.688117504119873 5.349320411682129 4.042504787445068 5.607147693634033 4.353909015655518 5.91854190826416 C 4.692025184631348 6.25664234161377 4.96682596206665 6.645124435424805 5.19003438949585 7.047398567199707 C 5.421859741210938 6.645034790039062 5.702079296112061 6.256127834320068 6.039679050445557 5.91854190826416 C 6.334680557250977 5.623551845550537 6.666965484619141 5.376439094543457 7.011666297912598 5.169721603393555 C 6.62229061126709 4.950207710266113 6.246787071228027 4.681748867034912 5.918829441070557 4.353801727294922 C 5.607326984405518 4.042314052581787 5.349565505981445 3.688060283660889 5.136369228363037 3.319645881652832 M 5.136369228363037 1.9073486328125e-06 C 5.136369228363037 1.9073486328125e-06 5.341819286346436 2.36264181137085 6.625919342041016 3.646681785583496 C 7.910009384155273 4.930721759796143 10.27273941040039 5.136171817779541 10.27273941040039 5.136171817779541 C 10.27273941040039 5.136171817779541 8.030858993530273 5.341621875762939 6.746768951416016 6.625661849975586 C 5.462679386138916 7.909701824188232 5.136369228363037 10.27234172821045 5.136369228363037 10.27234172821045 C 5.136369228363037 10.27234172821045 4.930919170379639 7.909701824188232 3.646819114685059 6.625661849975586 C 2.362729072570801 5.341621875762939 -9.5367431640625e-07 5.136171817779541 -9.5367431640625e-07 5.136171817779541 C -9.5367431640625e-07 5.136171817779541 2.362729072570801 4.930721759796143 3.646819114685059 3.646681785583496 C 4.930919170379639 2.36264181137085 5.136369228363037 1.9073486328125e-06 5.136369228363037 1.9073486328125e-06 Z" stroke="none" fill="#3a6469"/>
      </g>
      <g id="Path_1162" data-name="Path 1162" transform="translate(213.275 1651.693)" fill="#fff">
        <path d="M 3.799910306930542 5.691279888153076 C 3.618747234344482 5.27076244354248 3.369331836700439 4.846267223358154 3.027373790740967 4.504319190979004 C 2.706269502639771 4.183229923248291 2.312540531158447 3.943805694580078 1.917515397071838 3.765799045562744 C 2.312540531158447 3.58779239654541 2.706269502639771 3.348368167877197 3.027373790740967 3.027279138565063 C 3.348471879959106 2.706189870834351 3.587931156158447 2.312414884567261 3.765943765640259 1.91740345954895 C 3.94395637512207 2.312414884567261 4.183415412902832 2.706189870834351 4.504513740539551 3.027279138565063 C 4.835305213928223 3.358055114746094 5.243205070495605 3.602180957794189 5.650155067443848 3.781756401062012 C 5.277423858642578 3.95804238319397 4.904721736907959 4.192736148834229 4.593123912811279 4.504319190979004 C 4.251550197601318 4.845882892608643 3.993246555328369 5.270913124084473 3.799910306930542 5.691279888153076 Z" stroke="none"/>
        <path d="M 3.765940427780151 2.924919605255127 C 3.651095867156982 3.085044860839844 3.523177146911621 3.238580703735352 3.380913734436035 3.380838871002197 C 3.238650798797607 3.523096084594727 3.085182666778564 3.650957584381104 2.925052642822266 3.765796661376953 C 3.085183620452881 3.880635738372803 3.238659381866455 4.008502006530762 3.380923748016357 4.150758743286133 C 3.540968418121338 4.310799598693848 3.6828293800354 4.485076904296875 3.808399677276611 4.667026042938232 C 3.936548709869385 4.484860420227051 4.079694747924805 4.310642242431641 4.239583969116211 4.150758743286133 C 4.369268417358398 4.021080017089844 4.507262229919434 3.903387069702148 4.650381088256836 3.796596765518188 C 4.47447395324707 3.673915863037109 4.306102752685547 3.535970449447632 4.15096378326416 3.380838871002197 C 4.008701801300049 3.238580703735352 3.880783796310425 3.085044860839844 3.765940427780151 2.924919605255127 M 3.765943765640259 -9.5367431640625e-07 C 3.765943765640259 -9.5367431640625e-07 3.916583776473999 1.732268810272217 4.858063697814941 2.673718929290771 C 5.799553871154785 3.615169048309326 7.531883716583252 3.765799045562744 7.531883716583252 3.765799045562744 C 7.531883716583252 3.765799045562744 5.888163566589355 3.916429042816162 4.94667387008667 4.857879161834717 C 4.005193710327148 5.799328804016113 3.765943765640259 7.531599044799805 3.765943765640259 7.531599044799805 C 3.765943765640259 7.531599044799805 3.615303754806519 5.799328804016113 2.673823833465576 4.857879161834717 C 1.732333660125732 3.916429042816162 3.814697265625e-06 3.765799045562744 3.814697265625e-06 3.765799045562744 C 3.814697265625e-06 3.765799045562744 1.732333660125732 3.615169048309326 2.673823833465576 2.673718929290771 C 3.615303754806519 1.732268810272217 3.765943765640259 -9.5367431640625e-07 3.765943765640259 -9.5367431640625e-07 Z" stroke="none" fill="#3a6469"/>
      </g>
      <g id="Path_1165" data-name="Path 1165" transform="translate(204.176 1647.654)" fill="#fff">
        <path d="M 4.216328144073486 6.455261707305908 C 4.014347076416016 5.956856250762939 3.727399587631226 5.44466495513916 3.321593046188354 5.038872241973877 C 2.939377546310425 4.656673431396484 2.46257495880127 4.379830837249756 1.991984248161316 4.180182456970215 C 2.46257495880127 3.980533838272095 2.939377546310425 3.703691482543945 3.321593046188354 3.321492433547974 C 3.703812122344971 2.939286708831787 3.980685710906982 2.462455987930298 4.180343151092529 1.991880178451538 C 4.380000591278076 2.462455987930298 4.656874179840088 2.939286708831787 5.039093017578125 3.321492433547974 C 5.43165397644043 3.714032649993896 5.923890113830566 3.995397090911865 6.406797409057617 4.19618034362793 C 5.961654663085938 4.394546508789062 5.509598731994629 4.666743278503418 5.137453079223633 5.038872241973877 C 4.732091903686523 5.444219589233398 4.433526039123535 5.957165241241455 4.216328144073486 6.455261707305908 Z" stroke="none"/>
        <path d="M 4.180343151092529 3.053576469421387 C 4.034016132354736 3.273327827453613 3.866551876068115 3.483641147613525 3.675133228302002 3.675052642822266 C 3.483718872070312 3.866458892822266 3.273475170135498 4.03386402130127 3.053719043731689 4.180182456970215 C 3.273475170135498 4.32650089263916 3.483718872070312 4.493906021118164 3.675133228302002 4.685312271118164 C 3.887030601501465 4.897201538085938 4.069435119628906 5.132041931152344 4.22646427154541 5.377447128295898 C 4.387587070465088 5.131868362426758 4.572308540344238 4.896906852722168 4.783913135528564 4.685312271118164 C 4.96185827255249 4.507372856140137 5.154405117034912 4.350142955780029 5.354413032531738 4.211349964141846 C 5.11744499206543 4.057745456695557 4.890724182128906 3.880213737487793 4.685553073883057 3.675052642822266 C 4.494134426116943 3.483641147613525 4.326670169830322 3.273327827453613 4.180343151092529 3.053576469421387 M 4.180343151092529 2.86102294921875e-06 C 4.180343151092529 2.86102294921875e-06 4.347553253173828 1.922882556915283 5.392642974853516 2.967932224273682 C 6.437733173370361 4.012972354888916 8.360683441162109 4.180182456970215 8.360683441162109 4.180182456970215 C 8.360683441162109 4.180182456970215 6.536083221435547 4.347392559051514 5.491003036499023 5.39243221282959 C 4.445913314819336 6.437482357025146 4.180343151092529 8.36036205291748 4.180343151092529 8.36036205291748 C 4.180343151092529 8.36036205291748 4.01313304901123 6.437482357025146 2.968043327331543 5.39243221282959 C 1.92296314239502 4.347392559051514 2.86102294921875e-06 4.180182456970215 2.86102294921875e-06 4.180182456970215 C 2.86102294921875e-06 4.180182456970215 1.92296314239502 4.012972354888916 2.968043327331543 2.967932224273682 C 4.01313304901123 1.922882556915283 4.180343151092529 2.86102294921875e-06 4.180343151092529 2.86102294921875e-06 Z" stroke="none" fill="#3a6469"/>
      </g>
      <path id="Path_2185" data-name="Path 2185" d="M-.045-10.484.15.5l26.9,8.41L12.266,30.453-16.33,18.17Z" transform="translate(227 1667)" fill="#d7e1e2"/>
      <path id="Path_2186" data-name="Path 2186" d="M-24434.547,16726.4l29.033,12.154,22.445-13.557-.34-18.539-34.15-10.381Z" transform="translate(24645 -15041)" fill="#d7e1e2" stroke="#3a6469" stroke-linecap="round" stroke-linejoin="round" stroke-width="2"/>
      <path id="Path_2187" data-name="Path 2187" d="M-24418.219,16708.475l26.949,8.977" transform="translate(24645 -15041)" fill="none" stroke="#3a6469" stroke-linecap="round" stroke-width="2"/>
      <path id="Path_2188" data-name="Path 2188" d="M-24405.744,16738.568c.242-.277,22.127-31.937,22.127-31.937" transform="translate(24645 -15041)" fill="none" stroke="#3a6469" stroke-linecap="round" stroke-width="2"/>
      <path id="Path_2189" data-name="Path 2189" d="M-24417.391,16696.391l-.9,11.979-16.01,18.137" transform="translate(24645 -15041)" fill="none" stroke="#3a6469" stroke-linecap="round" stroke-linejoin="round" stroke-width="2"/>
      <path id="Path_2190" data-name="Path 2190" d="M-24424.193,16723.092l3.68,1.635" transform="translate(24645 -15041)" fill="none" stroke="#fff" stroke-linecap="round" stroke-width="2"/>
      <path id="Path_2191" data-name="Path 2191" d="M-24424.193,16723.092l5.191,2.283" transform="translate(24648 -15044)" fill="none" stroke="#fff" stroke-linecap="round" stroke-width="2"/>
    </g>
  </g>
</svg>
