<svg xmlns="http://www.w3.org/2000/svg" width="84" height="84" viewBox="0 0 84 84">
  <g id="Group_1884" data-name="Group 1884" transform="translate(-1167 -1801.408)">
    <circle id="Ellipse_585" data-name="Ellipse 585" cx="42" cy="42" r="42" transform="translate(1167 1801.408)" fill="#fff"/>
    <g id="Group_1861" data-name="Group 1861" transform="translate(974.342 174.371)">
      <path id="Path_2192" data-name="Path 2192" d="M-24406,16698.172l7.32-12.219s1.7-3.2,4.451-1.973,1.479,4.031,1.479,4.031l-3.51,5.832-3.76,6.254Z" transform="translate(24644.352 -15040)" fill="#d7e1e2" stroke="#3a6469" stroke-width="2"/>
      <path id="Path_2193" data-name="Path 2193" d="M-24417.131,16696.92l-1.15,10.492,24.535,8.273,6.082-10.215Z" transform="translate(24642.826 -15042.179)" fill="#d7e1e2"/>
      <g id="Path_1154" data-name="Path 1154" transform="translate(206.692 1659.145)" fill="#fff">
        <path d="M 4.678998947143555 7.31120777130127 C 4.455333232879639 6.725760936737061 4.12716817855835 6.111575126647949 3.648653507232666 5.63307523727417 C 3.196581125259399 5.181024074554443 2.623368740081787 4.863142967224121 2.067739248275757 4.640805244445801 C 2.623368740081787 4.41846752166748 3.196581125259399 4.100586414337158 3.648653507232666 3.648535251617432 C 4.100722312927246 3.196476936340332 4.418637752532959 2.623227834701538 4.640985012054443 2.067615985870361 C 4.863333225250244 2.623227834701538 5.181251049041748 3.196476936340332 5.633323669433594 3.648535251617432 C 6.096359729766846 4.111553192138672 6.686517238616943 4.433823585510254 7.254671573638916 4.656832218170166 C 6.728111267089844 4.87833833694458 6.183844089508057 5.191765308380127 5.742513656616211 5.63307523727417 C 5.264401435852051 6.111172199249268 4.92140007019043 6.72615385055542 4.678998947143555 7.31120777130127 Z" stroke="none"/>
        <path d="M 4.640985012054443 3.186654567718506 C 4.461519718170166 3.476374626159668 4.250400543212891 3.753897190093994 4.002193450927734 4.002095222473145 C 3.753988265991211 4.250289916992188 3.476537704467773 4.461348533630371 3.186810493469238 4.640805244445801 C 3.476537704467773 4.82026195526123 3.753988265991211 5.031320571899414 4.002193450927734 5.279515266418457 C 4.273783206939697 5.551095008850098 4.500990390777588 5.857823371887207 4.690890312194824 6.177185535430908 C 4.886929988861084 5.857617378234863 5.117742538452148 5.550736427307129 5.388973236083984 5.279515266418457 C 5.622825145721436 5.045673847198486 5.879778861999512 4.844846248626709 6.14666748046875 4.672300815582275 C 5.838397026062012 4.486195087432861 5.542621612548828 4.264924049377441 5.279783725738525 4.002095222473145 C 5.031574726104736 3.753899097442627 4.820451736450195 3.476373672485352 4.640985012054443 3.186654567718506 M 4.640983581542969 -4.76837158203125e-06 C 4.640983581542969 -4.76837158203125e-06 4.826623439788818 2.134775161743164 5.986873626708984 3.294975280761719 C 7.147113800048828 4.455175399780273 9.281963348388672 4.640805244445801 9.281963348388672 4.640805244445801 C 9.281963348388672 4.640805244445801 7.256313323974609 4.826435089111328 6.096063613891602 5.986635208129883 C 4.935823440551758 7.146835327148438 4.640983581542969 9.281615257263184 4.640983581542969 9.281615257263184 C 4.640983581542969 9.281615257263184 4.455343723297119 7.146835327148438 3.295103549957275 5.986635208129883 C 2.134853363037109 4.826435089111328 3.814697265625e-06 4.640805244445801 3.814697265625e-06 4.640805244445801 C 3.814697265625e-06 4.640805244445801 2.134853363037109 4.455175399780273 3.295103549957275 3.294975280761719 C 4.455343723297119 2.134775161743164 4.640983581542969 -4.76837158203125e-06 4.640983581542969 -4.76837158203125e-06 Z" stroke="none" fill="#3a6469"/>
      </g>
      <g id="Path_1162" data-name="Path 1162" transform="translate(212.398 1650.922)" fill="#fff">
        <path d="M 3.434751749038696 5.027263164520264 C 3.273018598556519 4.674185276031494 3.057025909423828 4.32331657409668 2.769490957260132 4.03579044342041 C 2.500514268875122 3.766824722290039 2.176197528839111 3.560506105422974 1.846404671669006 3.402600288391113 C 2.176197528839111 3.244694471359253 2.500514268875122 3.038375854492188 2.769490957260132 2.769410371780396 C 3.038467645645142 2.500441789627075 3.244818210601807 2.176087379455566 3.402730941772461 1.84630560874939 C 3.560643672943115 2.176087379455566 3.76699423789978 2.500441789627075 4.035971164703369 2.769410371780396 C 4.31404972076416 3.04747748374939 4.651364803314209 3.258628368377686 4.992636203765869 3.418504476547241 C 4.682336330413818 3.574292898178101 4.37607479095459 3.775759696960449 4.116031169891357 4.03579044342041 C 3.828864574432373 4.32294750213623 3.606108427047729 4.674260139465332 3.434751749038696 5.027263164520264 Z" stroke="none"/>
        <path d="M 3.402730941772461 2.804141044616699 C 3.316932439804077 2.915226936340332 3.223949909210205 3.022055149078369 3.1230309009552 3.122970342636108 C 3.02217960357666 3.223818778991699 2.915279150009155 3.316852569580078 2.804268836975098 3.402600288391113 C 2.915279150009155 3.488348007202148 3.02217960357666 3.581381797790527 3.1230309009552 3.682230234146118 C 3.239399909973145 3.798594951629639 3.345347166061401 3.922992706298828 3.441734075546265 4.052504539489746 C 3.539597749710083 3.922836303710938 3.646224975585938 3.798491716384888 3.76249098777771 3.682230234146118 C 3.85155725479126 3.593168020248413 3.944839477539062 3.510215044021606 4.041104793548584 3.432984352111816 C 3.915770530700684 3.338933944702148 3.795313358306885 3.235849618911743 3.682430982589722 3.122970342636108 C 3.581511974334717 3.022055149078369 3.488529443740845 2.915226936340332 3.402730941772461 2.804141044616699 M 3.402730941772461 4.76837158203125e-07 C 3.402730941772461 4.76837158203125e-07 3.538841009140015 1.565200328826904 4.389520645141602 2.415850162506104 C 5.240200996398926 3.266500234603882 6.805460929870605 3.402600288391113 6.805460929870605 3.402600288391113 C 6.805460929870605 3.402600288391113 5.320271015167236 3.538700342178345 4.46958065032959 4.389349937438965 C 3.618901014328003 5.240000247955322 3.402730941772461 6.805200099945068 3.402730941772461 6.805200099945068 C 3.402730941772461 6.805200099945068 3.266620874404907 5.240000247955322 2.415940761566162 4.389349937438965 C 1.565260887145996 3.538700342178345 9.5367431640625e-07 3.402600288391113 9.5367431640625e-07 3.402600288391113 C 9.5367431640625e-07 3.402600288391113 1.565260887145996 3.266500234603882 2.415940761566162 2.415850162506104 C 3.266620874404907 1.565200328826904 3.402730941772461 4.76837158203125e-07 3.402730941772461 4.76837158203125e-07 Z" stroke="none" fill="#3a6469"/>
      </g>
      <g id="Path_1165" data-name="Path 1165" transform="translate(204.176 1647.273)" fill="#fff">
        <path d="M 3.811187028884888 5.711884021759033 C 3.629436492919922 5.289229869842529 3.37903094291687 4.862483024597168 3.035332679748535 4.518797397613525 C 2.712613821029663 4.196087837219238 2.316659212112427 3.95562744140625 1.919621109962463 3.777019262313843 C 2.316659212112427 3.59841251373291 2.712613821029663 3.357954263687134 3.035332679748535 3.035247564315796 C 3.358051538467407 2.71253776550293 3.598547697067261 2.316533327102661 3.777162790298462 1.919506430625916 C 3.955777883529663 2.316533327102661 4.196273803710938 2.71253776550293 4.518992900848389 3.035247564315796 C 4.851424217224121 3.367666482925415 5.261568069458008 3.612812995910645 5.670552253723145 3.792977809906006 C 5.295902729034424 3.969875574111938 4.921050548553467 4.205618858337402 4.607862949371338 4.518797397613525 C 4.264552593231201 4.862094402313232 4.005192279815674 5.289383411407471 3.811187028884888 5.711884021759033 Z" stroke="none"/>
        <path d="M 3.777166128158569 2.92851734161377 C 3.66143012046814 3.090241432189941 3.532477378845215 3.245209217071533 3.388882637023926 3.388797760009766 C 3.245288372039795 3.53238582611084 3.090384483337402 3.661283016204834 2.92865514755249 3.777014255523682 C 3.090384483337402 3.892744541168213 3.245288372039795 4.021640300750732 3.388882637023926 4.165227890014648 C 3.550373077392578 4.326712608337402 3.693234205245972 4.502431869506836 3.819721460342407 4.686134815216064 C 3.948777675628662 4.502312660217285 4.093071460723877 4.326473236083984 4.25432300567627 4.165227890014648 C 4.385307312011719 4.034248828887939 4.524692058563232 3.915512084960938 4.669328689575195 3.807819604873657 C 4.491864204406738 3.684301376342773 4.321879386901855 3.545219421386719 4.16545295715332 3.388797760009766 C 4.021857261657715 3.245209217071533 3.892903327941895 3.090241432189941 3.777166128158569 2.92851734161377 M 3.777162790298462 -2.384185791015625e-06 C 3.777162790298462 -2.384185791015625e-06 3.928252696990967 1.737427711486816 4.872542858123779 2.68167781829834 C 5.816832542419434 3.625937700271606 7.554322719573975 3.777017593383789 7.554322719573975 3.777017593383789 C 7.554322719573975 3.777017593383789 5.905702590942383 3.928097486495972 4.961412906646729 4.872347831726074 C 4.017122745513916 5.816607475280762 3.777162790298462 7.554037570953369 3.777162790298462 7.554037570953369 C 3.777162790298462 7.554037570953369 3.626072883605957 5.816607475280762 2.681782722473145 4.872347831726074 C 1.737492561340332 3.928097486495972 2.86102294921875e-06 3.777017593383789 2.86102294921875e-06 3.777017593383789 C 2.86102294921875e-06 3.777017593383789 1.737492561340332 3.625937700271606 2.681782722473145 2.68167781829834 C 3.626072883605957 1.737427711486816 3.777162790298462 -2.384185791015625e-06 3.777162790298462 -2.384185791015625e-06 Z" stroke="none" fill="#3a6469"/>
      </g>
      <path id="Path_2185" data-name="Path 2185" d="M-1.616-10.484l.176,9.928,24.308,7.6L9.508,26.5l-25.838-11.1Z" transform="translate(226.374 1665.764)" fill="#d7e1e2"/>
      <path id="Path_2186" data-name="Path 2186" d="M-24434.547,16723.475l26.234,10.982,20.279-12.25-.307-16.75-30.857-9.381Z" transform="translate(24644.395 -15042.097)" fill="#d7e1e2" stroke="#3a6469" stroke-linecap="round" stroke-linejoin="round" stroke-width="2"/>
      <path id="Path_2187" data-name="Path 2187" d="M-24418.219,16708.475l24.35,8.111" transform="translate(24642.82 -15043.293)" fill="none" stroke="#3a6469" stroke-linecap="round" stroke-width="2"/>
      <path id="Path_2188" data-name="Path 2188" d="M-24405.744,16735.488c.219-.25,19.992-28.857,19.992-28.857" transform="translate(24641.617 -15043.115)" fill="none" stroke="#3a6469" stroke-linecap="round" stroke-width="2"/>
      <path id="Path_2189" data-name="Path 2189" d="M-24419.021,16696.391l-.811,10.824-14.465,16.387" transform="translate(24644.371 -15042.127)" fill="none" stroke="#3a6469" stroke-linecap="round" stroke-linejoin="round" stroke-width="2"/>
      <path id="Path_2190" data-name="Path 2190" d="M-24424.193,16723.092l3.324,1.477" transform="translate(24643.396 -15044.703)" fill="none" stroke="#fff" stroke-linecap="round" stroke-width="2"/>
      <path id="Path_2191" data-name="Path 2191" d="M-24424.193,16723.092l4.691,2.063" transform="translate(24646.107 -15047.413)" fill="none" stroke="#fff" stroke-linecap="round" stroke-width="2"/>
    </g>
    <g id="Group_1862" data-name="Group 1862" transform="translate(250 -271.592)">
      <g id="Group_1181" data-name="Group 1181">
        <g id="Ellipse_70" data-name="Ellipse 70" transform="translate(926 2082)" fill="none" stroke="#9d2a32" stroke-width="4">
          <circle cx="33" cy="33" r="33" stroke="none"/>
          <circle cx="33" cy="33" r="31" fill="none"/>
        </g>
        <path id="Path_1021" data-name="Path 1021" d="M20779.484,12199l43.164-43.164" transform="translate(-19843 -10063)" fill="none" stroke="#9d2a32" stroke-width="5"/>
      </g>
    </g>
  </g>
</svg>
