<svg xmlns="http://www.w3.org/2000/svg" width="84" height="84" viewBox="0 0 84 84">
  <g id="Group_1874" data-name="Group 1874" transform="translate(-1167 -871.408)">
    <g id="Group_1873" data-name="Group 1873">
      <circle id="Ellipse_75" data-name="Ellipse 75" cx="42" cy="42" r="42" transform="translate(1167 871.408)" fill="#fff"/>
      <g id="Group_1851" data-name="Group 1851" transform="translate(709.236 406.34)">
        <path id="Path_2013_-_Outline" data-name="Path 2013 - Outline" d="M2.535,1.69a.846.846,0,0,0-.845.845V38.016a.846.846,0,0,0,.845.845H37.173a.846.846,0,0,0,.845-.845V2.534a.846.846,0,0,0-.845-.845H2.535m0-1.69H37.173a2.535,2.535,0,0,1,2.535,2.534V38.016a2.535,2.535,0,0,1-2.535,2.534H2.535A2.534,2.534,0,0,1,0,38.016V2.534A2.534,2.534,0,0,1,2.535,0Z" transform="translate(481.064 486.794)" fill="#17494d"/>
        <path id="Path_2013_-_Outline-2" data-name="Path 2013 - Outline" d="M2.535,1.69a.846.846,0,0,0-.845.845V38.016a.846.846,0,0,0,.845.845H37.173a.846.846,0,0,0,.845-.845V2.534a.846.846,0,0,0-.845-.845H2.535m0-1.69H37.173a2.535,2.535,0,0,1,2.535,2.534V38.016a2.535,2.535,0,0,1-2.535,2.534H2.535A2.534,2.534,0,0,1,0,38.016V2.534A2.534,2.534,0,0,1,2.535,0Z" transform="translate(481.064 486.794)" fill="#3a6469"/>
        <path id="Path_2009" data-name="Path 2009" d="M.033,0H35.047a1.679,1.679,0,0,1,1.667,1.69s1.132,10.826-.894,18.386A30.878,30.878,0,0,1,30.025,32a3.516,3.516,0,0,1-2.631,1.658L-8.07,33.618c-.921,0-2.12-.764-1.643-1.951S-4.377,25.584-2.6,17.8A57.852,57.852,0,0,0-1.634,1.69,1.679,1.679,0,0,1,.033,0Z" transform="translate(483.165 486.794)" fill="#d7e1e2"/>
        <path id="Path_2009_-_Outline" data-name="Path 2009 - Outline" d="M.276,1.69H.265A57.6,57.6,0,0,1-.778,18.183a30.133,30.133,0,0,1-3.2,8.027A44.984,44.984,0,0,1-7.336,31.2c-.187.248-.387.513-.546.731l36.194.037a2.079,2.079,0,0,0,1.315-.942c.108-.153.24-.322.407-.536a28.758,28.758,0,0,0,5.283-10.859c1.965-7.155.876-17.654.865-17.759l-.01-.09V1.695a.029.029,0,0,0-.019-.005H.276M.276,0H36.153a1.7,1.7,0,0,1,1.708,1.69s1.16,10.826-.916,18.386A30.626,30.626,0,0,1,31.008,32a3.616,3.616,0,0,1-2.7,1.658l-36.338-.037c-.944,0-2.172-.764-1.683-1.951S-4.243,25.584-2.423,17.8A56.482,56.482,0,0,0-1.432,1.69,1.7,1.7,0,0,1,.276,0Z" transform="translate(482.586 486.794)" fill="#3a6469"/>
        <path id="Path_2014" data-name="Path 2014" d="M.845,0H35.484a.845.845,0,0,1,.845.845V7.6H0V.845A.845.845,0,0,1,.845,0Z" transform="translate(482.753 486.794)" fill="#fff"/>
        <path id="Union_7" data-name="Union 7" d="M0,13.3V4.844A2.539,2.539,0,0,1,2.537,2.312H8.449V1.268a1.268,1.268,0,1,1,2.536,0V2.312h7.6V1.268a1.266,1.266,0,1,1,2.533,0V2.312h7.6V1.268a1.268,1.268,0,1,1,2.536,0V2.312h5.912A2.538,2.538,0,0,1,39.71,4.844V13.3ZM1.693,4.844V11.6H38.022V4.844A.847.847,0,0,0,37.174,4H31.262v.8a1.268,1.268,0,1,1-2.536,0V4h-7.6v.8a1.266,1.266,0,1,1-2.533,0V4h-7.6v.8a1.268,1.268,0,1,1-2.536,0V4H2.537A.843.843,0,0,0,1.693,4.844Z" transform="translate(481.061 482.793)" fill="#3a6469"/>
        <path id="Path_2015" data-name="Path 2015" d="M.008,0H31.323a10.671,10.671,0,0,1-.242,2.876c-.344,1.381-.725,2.579-.725,2.579L-.594,5.5s.265-1.455.458-2.827A17.023,17.023,0,0,0,.008,0Z" transform="translate(485.66 498.12)" fill="#fff"/>
      </g>
      <g id="Ellipse_586" data-name="Ellipse 586" transform="translate(1176 880.408)" fill="none" stroke="#9d2a32" stroke-width="4">
        <circle cx="33" cy="33" r="33" stroke="none"/>
        <circle cx="33" cy="33" r="31" fill="none"/>
      </g>
    </g>
    <path id="Path_2180" data-name="Path 2180" d="M20779.484,12199l43.164-43.164" transform="translate(-19593 -11264.592)" fill="none" stroke="#9d2a32" stroke-width="5"/>
  </g>
</svg>
