<svg xmlns="http://www.w3.org/2000/svg" width="84" height="84" viewBox="0 0 84 84">
  <g id="Group_1879" data-name="Group 1879" transform="translate(-1167 -1335.408)">
    <circle id="Ellipse_584" data-name="Ellipse 584" cx="42" cy="42" r="42" transform="translate(1167 1335.408)" fill="#fff"/>
    <g id="Group_1877" data-name="Group 1877" transform="translate(432.148 -341.592)">
      <g id="Group_1124" data-name="Group 1124" transform="translate(569.852 -419)">
        <path id="Path_1024" data-name="Path 1024" d="M2.357,0,4.715,3.143H0Z" transform="translate(197.522 2147)" fill="#feb6b8"/>
        <path id="Path_1023" data-name="Path 1023" d="M0,0H1.916V5.762H0Z" transform="translate(198.923 2149.619)" fill="#feb6b8"/>
      </g>
      <g id="Group_1126" data-name="Group 1126" transform="translate(586.09 -419)">
        <path id="Path_1024-2" data-name="Path 1024" d="M2.357,0,4.715,3.143H0Z" transform="translate(197.522 2147)" fill="#feb6b8"/>
        <path id="Path_1023-2" data-name="Path 1023" d="M0,0H1.916V5.762H0Z" transform="translate(198.923 2149.619)" fill="#feb6b8"/>
      </g>
      <g id="Group_1125" data-name="Group 1125" transform="translate(576.08 -416.155)">
        <path id="Path_1024-3" data-name="Path 1024" d="M4.25,0,8.5,5.665H0Z" transform="translate(197.522 2147)" fill="#feb6b8"/>
        <path id="Path_1023-3" data-name="Path 1023" d="M0,0H3.454V10.387H0Z" transform="translate(200.047 2151.721)" fill="#feb6b8"/>
      </g>
      <g id="Group_1852" data-name="Group 1852" transform="translate(186.363 1220.819)">
        <path id="Path_1994" data-name="Path 1994" d="M53.162,48.632,45.572,51.4l-5.45-7.193-3.768,6.228-.5.989L27.37,48.943l.3,11.452L40.029,64.21l13.593-3.892Zm-2.5,8.859-7.489,2.522V55.778l7.489-2.522Z" transform="translate(550.089 441.558)" fill="#d7e1e2"/>
        <g id="Group_1697" data-name="Group 1697" transform="translate(569.805 473.337)">
          <path id="Path_1995" data-name="Path 1995" d="M34.071,50.2a.581.581,0,0,1-.229,0l-12.9-4.5a.7.7,0,0,1-.428-.895.589.589,0,0,1,.054-.122l4.589-7.695a.711.711,0,0,1,.834-.306l12.9,4.459a.711.711,0,0,1,.4.91.467.467,0,0,1-.054.107L34.645,49.86A.7.7,0,0,1,34.071,50.2ZM22.215,44.659l11.542,3.993,3.824-6.463L26.063,38.2Z" transform="translate(-17.961 -29.527)" fill="#3a6469"/>
          <path id="Path_1996" data-name="Path 1996" d="M48.582,50.2a.711.711,0,0,1-.6-.344l-4.589-7.695a.7.7,0,0,1,.245-.964l.13-.061,12.9-4.459a.711.711,0,0,1,.834.306l4.589,7.695a.7.7,0,0,1-.252.964l-.122.054-12.9,4.467A.765.765,0,0,1,48.582,50.2Zm-3.534-8.016,3.824,6.463L60.43,44.656l-3.824-6.463Z" transform="translate(-23.325 -29.525)" fill="#3a6469"/>
          <path id="Path_1997" data-name="Path 1997" d="M44.014,64.721a.7.7,0,0,1-.7-.7V43.144a.7.7,0,1,1,1.407,0V64.017a.7.7,0,0,1-.7.7Z" transform="translate(-23.33 -30.888)" fill="#3a6469"/>
          <path id="Path_1998" data-name="Path 1998" d="M40.057,66.209a.581.581,0,0,1-.229,0l-12.9-4.436a.711.711,0,0,1-.474-.665V49.474a.7.7,0,0,1,1.407,0v11.1L40.1,64.763l12.146-4.192v-11.1a.7.7,0,0,1,1.407,0v11.6a.711.711,0,0,1-.474.665L40.287,66.171A.765.765,0,0,1,40.057,66.209Z" transform="translate(-19.366 -32.377)" fill="#3a6469"/>
          <path id="Path_1999" data-name="Path 1999" d="M56.916,35.862a.765.765,0,0,1-.229,0l-12.9-4.5a.7.7,0,0,1-.405-.91.688.688,0,0,1,.405-.405l7.09-2.662a.719.719,0,0,1,.474,0l12.9,4.459a.7.7,0,0,1,.405.91.688.688,0,0,1-.405.405l-7.09,2.662A.658.658,0,0,1,56.916,35.862ZM46.086,30.677,56.9,34.417l5.033-1.889-10.815-3.74Z" transform="translate(-23.337 -27.34)" fill="#3a6469"/>
          <path id="Path_2000" data-name="Path 2000" d="M24.976,35.86a.665.665,0,0,1-.245-.046l-7.09-2.662a.7.7,0,0,1-.405-.91.688.688,0,0,1,.405-.405l12.9-4.459a.719.719,0,0,1,.474,0l7.09,2.662a.7.7,0,0,1,.421.9.7.7,0,0,1-.421.421l-12.9,4.459A.765.765,0,0,1,24.976,35.86Zm-5.018-3.335,5.025,1.889,10.823-3.74-4.995-1.889Z" transform="translate(-17.189 -27.337)" fill="#3a6469"/>
          <path id="Path_2001" data-name="Path 2001" d="M44.014,64.721a.7.7,0,0,1-.7-.7V43.144a.7.7,0,1,1,1.407,0V64.017a.7.7,0,0,1-.7.7Z" transform="translate(-23.33 -30.888)" fill="#3a6469"/>
          <path id="Path_2002" data-name="Path 2002" d="M40.057,66.209a.581.581,0,0,1-.229,0l-12.9-4.436a.711.711,0,0,1-.474-.665V49.474a.7.7,0,0,1,1.407,0v11.1L40.1,64.763l12.146-4.192v-11.1a.7.7,0,0,1,1.407,0v11.6a.711.711,0,0,1-.474.665L40.287,66.171A.765.765,0,0,1,40.057,66.209Z" transform="translate(-19.366 -32.377)" fill="#3a6469"/>
        </g>
      </g>
    </g>
    <g id="Group_1878" data-name="Group 1878" transform="translate(250 -737.592)">
      <g id="Ellipse_70" data-name="Ellipse 70" transform="translate(926 2082)" fill="none" stroke="#9d2a32" stroke-width="4">
        <circle cx="33" cy="33" r="33" stroke="none"/>
        <circle cx="33" cy="33" r="31" fill="none"/>
      </g>
      <path id="Path_1021" data-name="Path 1021" d="M20779.484,12199l43.164-43.164" transform="translate(-19843 -10063)" fill="none" stroke="#9d2a32" stroke-width="5"/>
    </g>
  </g>
</svg>
