<svg xmlns="http://www.w3.org/2000/svg" width="136" height="23" viewBox="0 0 136 23">
  <g id="Group_2467" data-name="Group 2467" transform="translate(-808 -7)">
    <rect id="Rectangle_3548" data-name="Rectangle 3548" width="136" height="23" rx="11.5" transform="translate(808 7)" fill="#fff"/>
    <path id="bhf_copy" data-name="bhf copy" d="M133.285,163.664v1.968a2.528,2.528,0,0,1,1.587-.434h.862v1h-1.058c-.947,0-1.36.418-1.36,1.106v1.72h-1.222v-6.349h3.994v1l-2.8-.021Zm2.928,3.217V166.8a2.338,2.338,0,1,1,2.361,2.338c-.052,0-.1.005-.154.005a2.217,2.217,0,0,1-2.207-2.206Zm3.481,0c0-.8-.423-1.28-1.143-1.28H138.5a1.127,1.127,0,0,0-1.122,1.122,1.1,1.1,0,0,0,.016.191c0,.036-.005.077-.005.11a1.156,1.156,0,0,0,2.307,0,.732.732,0,0,0-.005-.11v-.032Zm1.762.609c0-.36.09-.831.09-1.4a5.23,5.23,0,0,0-.18-1.4h1.18a5.021,5.021,0,0,1,.179,1.36c0,.529-.085.925-.085,1.233,0,.529.249.841.783.841l.094,0a.941.941,0,0,0,.936-.936l0-.089V164.69h1.18v4.338h-1.095v-.476a1.912,1.912,0,0,1-1.444.571h-.082a1.558,1.558,0,0,1-1.55-1.55v-.087Zm9.246-1.248c0,.36-.09.825-.09,1.412a5.287,5.287,0,0,0,.18,1.391h-1.18a5.086,5.086,0,0,1-.18-1.355c0-.529.077-.936.077-1.244a.714.714,0,0,0,.008-.112.739.739,0,0,0-.735-.735.789.789,0,0,0-.1.007H148.6a.941.941,0,0,0-.936.936l.005.1v2.389h-1.156v-4.34h1.058v.476a1.985,1.985,0,0,1,1.4-.561c.05,0,.1-.007.149-.007a1.6,1.6,0,0,1,1.587,1.587v.055Zm4.275,2.788a2.981,2.981,0,0,1-.116-.582,1.747,1.747,0,0,1-1.471.693h-.005a2.127,2.127,0,0,1-2.117-2.117,1.347,1.347,0,0,1,.005-.148v-.059a2.222,2.222,0,0,1,2.207-2.211,1.585,1.585,0,0,1,1.106.4v-2.486h1.2v3.656a11.917,11.917,0,0,0,.317,2.868Zm-.338-2.18c0-.81-.434-1.259-1.106-1.259s-1.095.45-1.095,1.259.423,1.259,1.095,1.259a1.088,1.088,0,0,0,1.122-1.244Zm5.2,2.18a6.113,6.113,0,0,1-.159-.592,1.763,1.763,0,0,1-1.492.683,1.359,1.359,0,0,1-1.541-1.354c0-.8.529-1.275,1.942-1.31.418,0,.841-.026.841-.371s-.243-.492-.771-.492a1.122,1.122,0,0,0-.984.455l-.9-.561a2.117,2.117,0,0,1,1.878-.9,1.722,1.722,0,0,1,1.968,1.825,8.167,8.167,0,0,0,.308,2.613Zm-.3-1.381a5.476,5.476,0,0,0-.048-.561,1.917,1.917,0,0,1-.788.1c-.344,0-.889.059-.889.582h0a.531.531,0,0,0,.529.529h.053a1.488,1.488,0,0,0,1.143-.629Zm5.131.651a1.4,1.4,0,0,1-1.323.836h-.09a1.217,1.217,0,0,1-1.211-1.211.787.787,0,0,1,.006-.119v-2.114h-.725v-1h.725v-1.455h1.18v1.455h.979v.978h-.979v2.148c0,.231.1.334.254.334s.254-.09.385-.344l.122-.217.8.455Zm.492-4.788a.713.713,0,0,1,.709-.709h.062a.709.709,0,0,1,0,1.418h-.062a.713.713,0,0,1-.709-.7Zm1.281,1.18v4.338h-1.181v-4.34Zm.8,2.19v-.077a2.333,2.333,0,1,1,2.34,2.333l-.132,0a2.217,2.217,0,0,1-2.206-2.206v-.052Zm3.481,0c0-.8-.428-1.281-1.143-1.281h-.048a1.127,1.127,0,0,0-1.122,1.122,1.1,1.1,0,0,0,.016.191c0,.036-.005.077-.005.11a1.156,1.156,0,1,0,2.307,0,.737.737,0,0,0-.005-.11v-.032Zm6.185-.64c0,.36-.09.825-.09,1.412a5.287,5.287,0,0,0,.18,1.391h-1.18a5.271,5.271,0,0,1-.18-1.355c0-.529.085-.936.085-1.244a.714.714,0,0,0,.008-.112.739.739,0,0,0-.735-.735.792.792,0,0,0-.1.007h-.085a.941.941,0,0,0-.936.936l.005.1v2.388H172.7V164.69h1.095v.476a1.985,1.985,0,0,1,1.4-.561c.042,0,.085-.005.128-.005a1.6,1.6,0,0,1,1.587,1.587v.053Z" transform="translate(757.883 -147.523)" fill="#ff0030" fill-rule="evenodd"/>
    <path id="bhf_copy-2" data-name="bhf copy" d="M113.787,160.482c-.339-.024-.248-.816-.964-.729-.508.06-.562.665-.6,1.137-.051.526-.112.973-.264.907s-.1-.3-.154-1.037c-.063-.841-.269-1.3-.771-1.385-.6-.1-.85.829-.955,1.189s-.3.52-.408.52-.272-.048-.321-.472a2.6,2.6,0,0,1,.782-1.662c1.453-1.53,3.537-2.609,3.537-4.975a3.183,3.183,0,0,0-3.087-3.419,2.679,2.679,0,0,0-1.977.881c-.352.348-.505.738-.641.738s-.284-.39-.635-.738a2.686,2.686,0,0,0-1.977-.881,3.181,3.181,0,0,0-3.082,3.413c0,2.364,2.083,3.444,3.537,4.975a2.638,2.638,0,0,1,.783,1.663c-.039.426-.22.44-.3.435s-.275-.081-.414-.6-.284-.907-.813-.943c-.59-.036-.744.774-.8,1.418-.044.553-.057,1.593-.264,1.512a10.878,10.878,0,0,1-.281-2.157c-.076-.708-.169-2.219-.58-2.488-.5-.326-.937.039-1.073.62-.1.432-.118.793-.248,1.372-.1.432-.206.7-.626.7H100v.635h.275c1.53.063,1.959-.094,2.143-.783a15.038,15.038,0,0,0,.264-1.512c.055-.3.239-.45.321.384.039.414.079.943.142,1.478.188,1.578.236,2.67.925,2.721.765.067.771-1.339.822-1.9.03-.352.076-1.365.254-1.255.248.148.154,1.418,1.33,1.469.674.033.922-.478.969-1.046a3.12,3.12,0,0,0-1.164-2.01c-1.673-1.648-2.839-2.5-2.839-4.311a2.569,2.569,0,0,1,2.419-2.774c.248,0,1.01-.044,1.929,1.445a.2.2,0,0,0,.352,0c.907-1.487,1.678-1.445,1.929-1.445a2.535,2.535,0,0,1,2.419,2.774c0,1.867-1.176,2.627-2.839,4.275a3.429,3.429,0,0,0-1.155,2.056c.012.544.3,1.079.969,1.046,1.137-.052,1.073-.983,1.306-1.487.127-.269.3-.269.33.136s.044.547.088.98c.055.556.254,1.182.756,1.134.432-.044.68-.3.762-1.11.021-.233.039-.339.07-.677.018-.193.076-.339.16-.3s.163.227.22.36a.693.693,0,0,0,.686.381h1.772v-.635c-.692,0-1.608,0-1.814-.021" transform="translate(717.122 -138.556)" fill="#ff0030" fill-rule="evenodd"/>
    <path id="bhf_copy-3" data-name="bhf copy" d="M134.8,153.415c1.286,0,2.021.735,2.021,1.587a1.206,1.206,0,0,1-1.015,1.3c-.207.059-.231.291,0,.328a1.43,1.43,0,0,1,1.254,1.534,1.824,1.824,0,0,1-2.016,1.661H132.1v-6.407h2.7ZM133.29,158.8h1.587c.6,0,.942-.264.942-.77,0-.624-.587-.725-1.026-.931a.616.616,0,0,1,0-1.156c.365-.154.8-.254.81-.814,0-.439-.317-.72-.873-.72h-1.445V158.8Zm5.534-3.354v.487a1.557,1.557,0,0,1,1.344-.571v1.089c-.831,0-1.244.381-1.244,1.058v2.311h-1.2v-4.375Zm3.148,0V159.8h-1.2v-4.354Zm4.016,3.608a1.4,1.4,0,0,1-1.323.836c-.039,0-.077.006-.117.006a1.217,1.217,0,0,1-1.211-1.211.754.754,0,0,1,.006-.117v-2.143h-.72v-.979h.72v-1.455h1.174v1.455h.995v.979h-.984v2.148c0,.231.1.338.254.338s.254-.1.391-.344l.116-.222.81.455-.111.254Zm.476-4.788a.707.707,0,1,1,.7.709.707.707,0,0,1-.7-.709Zm1.275,1.18V159.8h-1.18v-4.354Zm1.979,3.11c0,.231.264.344.661.344s.616-.127.616-.365c0-.8-2.259-.27-2.259-1.831,0-.788.672-1.323,1.794-1.323a2.116,2.116,0,0,1,1.587.616l-.587.72a1.408,1.408,0,0,0-.979-.4c-.445,0-.616.154-.616.349,0,.677,2.27.3,2.27,1.82,0,.852-.709,1.387-1.841,1.387-1.058,0-1.8-.45-1.8-1.2a1.233,1.233,0,0,1,.2-.651l1.026.344a.448.448,0,0,0-.079.191ZM157,157c0,.36-.09.825-.09,1.412a5.289,5.289,0,0,0,.18,1.392h-1.18a5.083,5.083,0,0,1-.18-1.354c0-.529.077-.932.077-1.244a.726.726,0,0,0,.009-.113.739.739,0,0,0-.735-.735.749.749,0,0,0-.1.008l-.088,0a.937.937,0,0,0-.925,1.062v2.407h-1.19v-6.549h1.164v2.645a1.679,1.679,0,0,1,1.333-.566c.045,0,.089-.006.133-.006A1.6,1.6,0,0,1,157,156.937Zm8.433-3.581V159.8h-1.207v-2.839h-.783c-1.4,0-2.084.683-2.084,1.825V159.8H160.15v-6.386h1.211v3.317a3.147,3.147,0,0,1,2.264-.788h.6v-2.529h1.211Zm4.772,5.814a2.478,2.478,0,0,1-1.883.661c-.058,0-.116.008-.174.008a2.127,2.127,0,0,1-2.117-2.117q0-.07,0-.139v-.062a2.234,2.234,0,0,1,2.222-2.222h.128c1.174,0,1.714.693,1.714,1.407,0,1.19-1.464,1.587-2.815,1.587.154.354.471.529,1.058.529a2,2,0,0,0,1.285-.439l.577.783Zm-3.058-1.7c1.095,0,1.794-.175,1.794-.709,0-.28-.19-.487-.635-.487h-.017a1.148,1.148,0,0,0-1.143,1.143Zm6.687,2.27c-.063-.2-.116-.391-.164-.593a1.752,1.752,0,0,1-1.487.683,1.361,1.361,0,0,1-1.545-1.354c0-.8.529-1.275,1.942-1.31.418,0,.848-.026.848-.371s-.249-.487-.77-.487a1.107,1.107,0,0,0-.979.45l-.91-.561a2.117,2.117,0,0,1,1.878-.9,1.72,1.72,0,0,1,1.968,1.825,8.156,8.156,0,0,0,.312,2.613Zm-.3-1.354a2.628,2.628,0,0,0-.042-.561,2.021,2.021,0,0,1-.788.1c-.349,0-.889.053-.889.577h0a.531.531,0,0,0,.529.529h.048A1.488,1.488,0,0,0,173.534,158.45Zm3.095-3v.487a1.556,1.556,0,0,1,1.323-.571v1.089c-.831,0-1.238.381-1.238,1.058v2.311h-1.18V155.45Zm5.09,3.608a1.4,1.4,0,0,1-1.323.836h-.089a1.223,1.223,0,0,1-1.217-1.217l0-.109v-2.143h-.725v-.979h.725v-1.455h1.18v1.455h.979v.979h-.979v2.148c0,.231.1.338.254.338s.254-.1.391-.344l.116-.222.81.455Z" transform="translate(704.883 -138.277)" fill="#ff0030" fill-rule="evenodd"/>
    <path id="bhf_copy-4" data-name="bhf copy" d="M140.7,154.267a.572.572,0,1,1-.005,0Z" transform="translate(704.883 -138.277)" fill="#ff0030" fill-rule="evenodd"/>
  </g>
</svg>
