<?xml version="1.0" encoding="UTF-8"?><svg id="a" xmlns="http://www.w3.org/2000/svg" viewBox="0 0 360 98.88"><defs><style>.b{fill:#ef0c2d;fill-rule:evenodd;}</style></defs><path class="b" d="M106.12,76.4c-2.61-.19-1.91-6.28-7.42-5.61-3.91,.46-4.33,5.12-4.65,8.75-.4,4.05-.86,7.49-2.05,6.98s-.74-2.33-1.19-7.98c-.49-6.47-2.07-10.03-5.93-10.66-4.65-.74-6.54,6.38-7.35,9.15-.82,2.77-2.33,4-3.14,4s-2.1-.37-2.47-3.63,2.33-8.87,6.03-12.8c11.17-11.78,27.23-20.08,27.23-38.28-.02-17.22-12.29-26.32-23.76-26.32-5.8,.02-11.33,2.48-15.22,6.77-2.72,2.68-3.89,5.68-4.93,5.68s-2.19-3-4.89-5.68C52.47,2.48,46.94,.02,41.14,0c-11.38,0-23.74,9.08-23.74,26.27,0,18.2,16.03,26.51,27.23,38.28,3.7,3.93,6.33,9.52,6.03,12.8-.3,3.28-1.7,3.37-2.33,3.35s-2.12-.63-3.19-4.65c-1.07-4.03-2.19-6.98-6.26-7.26-4.54-.28-5.73,5.96-6.12,10.91-.33,4.26-.44,12.26-2.05,11.64-.93-.4-1.4-9.57-2.16-16.59-.58-5.45-1.3-17.08-4.47-19.15-3.84-2.51-7.21,.3-8.26,4.77-.79,3.33-.91,6.1-1.91,10.57-.75,3.33-1.58,5.42-4.82,5.42H0v4.89H2.12c11.78,.49,15.08-.72,16.5-6.03,.87-3.84,1.55-7.73,2.03-11.64,.42-2.33,1.84-3.47,2.47,2.96,.3,3.19,.61,7.26,1.09,11.38,1.44,12.15,1.82,20.55,7.12,20.95,5.89,.51,5.93-10.31,6.33-14.59,.23-2.72,.58-10.5,1.96-9.66,1.91,1.14,1.19,10.91,10.24,11.31,5.19,.26,7.1-3.68,7.45-8.05s-3.61-10.22-8.96-15.48c-12.89-12.68-21.85-19.22-21.85-33.19S36.42,7.84,45.1,7.84c1.91,0,7.77-.33,14.85,11.12,.28,.48,.79,.78,1.35,.78s1.07-.3,1.35-.78c6.98-11.45,12.92-11.12,14.85-11.12,8.68,0,18.62,6.98,18.62,21.36s-9.05,20.22-21.85,32.91c-5.33,5.26-8.98,11.64-8.89,15.82s2.33,8.31,7.45,8.05c8.75-.4,8.26-7.56,10.05-11.45,.98-2.07,2.33-2.07,2.54,1.05,.21,3.12,.33,4.21,.68,7.54,.42,4.28,1.96,9.1,5.82,8.73,3.33-.33,5.24-2.33,5.87-8.54,.16-1.79,.3-2.61,.54-5.21,.14-1.49,.58-2.61,1.23-2.33,.65,.28,1.26,1.74,1.7,2.77,.98,1.97,3.09,3.14,5.28,2.93h13.64v-4.89c-5.33,0-12.38,0-13.96-.16M153.04,12.57c5.65,0,8.89,3.24,8.89,6.98,.25,2.77-1.72,5.29-4.47,5.7-.91,.26-1,1.28,0,1.44,3.34,.39,5.8,3.4,5.52,6.75,0,4.38-4.05,7.31-8.87,7.31h-12.94V12.57h11.87Zm-6.63,23.69h6.98c2.63,0,4.14-1.16,4.14-3.4,0-2.75-2.58-3.19-4.51-4.1-1.06-.39-1.78-1.41-1.78-2.54s.71-2.15,1.78-2.54c1.61-.68,3.51-1.12,3.56-3.58,0-1.93-1.4-3.16-3.84-3.16h-6.33v19.32h0Zm24.34-14.75v2.14c1.43-1.77,3.65-2.71,5.91-2.51v4.79c-3.65,0-5.47,1.68-5.47,4.65v10.17h-5.28V21.5h4.84Zm8.24-5.19c0-1.7,1.39-3.11,3.1-3.12,1.71,0,3.12,1.41,3.12,3.12s-1.41,3.12-3.12,3.12c-1.7-.01-3.1-1.42-3.1-3.12Zm5.61,5.19v19.15h-5.28V21.5h5.28Zm17.66,15.87c-1.01,2.29-3.31,3.75-5.82,3.68-.17,.02-.34,.03-.51,.03-2.92,0-5.33-2.41-5.33-5.33,0-.17,0-.34,.03-.51v-9.43h-3.17v-4.3h3.17v-6.4h5.17v6.4h4.38v4.3h-4.33v9.45c0,1,.44,1.49,1.12,1.49s1.12-.42,1.72-1.51l.51-.98,3.56,2-.49,1.12h0Zm2.1-21.06c0-1.7,1.39-3.11,3.1-3.12,1.71,0,3.12,1.41,3.12,3.12s-1.41,3.12-3.12,3.12c-1.7-.01-3.1-1.42-3.1-3.12Zm5.61,5.19v19.15h-5.19V21.5h5.19Zm8.7,13.68c0,1,1.16,1.51,2.91,1.51s2.72-.56,2.72-1.61c0-3.54-9.94-1.19-9.94-8.05,0-3.47,2.96-5.82,7.89-5.82,2.6-.12,5.14,.86,6.98,2.7l-2.58,3.16c-1.15-1.13-2.7-1.76-4.3-1.77-1.95,0-2.72,.68-2.72,1.54,0,2.98,9.98,1.3,9.98,8.01,0,3.75-3.12,6.1-8.1,6.1-4.65,0-7.91-1.98-7.91-5.26,.02-1.02,.33-2.01,.88-2.86l4.52,1.51c-.17,.25-.28,.54-.33,.84h0Zm32.05-6.86c0,1.58-.4,3.63-.4,6.21,0,2.07,.26,4.12,.79,6.12h-5.19c-.53-1.94-.8-3.95-.79-5.96,0-2.33,.35-4.1,.35-5.47,.03-.16,.04-.33,.04-.5,0-1.78-1.46-3.24-3.23-3.24-.15,0-.31,.01-.46,.03l-.39-.02c-2.26,0-4.12,1.86-4.12,4.12,0,.19,.01,.37,.04,.55v10.59h-5.19V11.96h5.12v11.64c1.48-1.67,3.64-2.59,5.86-2.49,.2-.02,.39-.03,.59-.03,3.83,0,6.98,3.15,6.98,6.98v.26Zm37.09-15.76v28.09h-5.31v-12.5h-3.44c-6.14,0-9.17,3-9.17,8.03v4.47h-5.33V12.57h5.33v14.59c2.73-2.43,6.31-3.67,9.96-3.47h2.63V12.57h5.33Zm20.99,25.58c-2.23,2.09-5.24,3.14-8.29,2.91-.25,.02-.51,.03-.77,.03-5.11,0-9.31-4.2-9.31-9.31,0-.21,0-.41,.02-.61v-.27c0-5.36,4.41-9.77,9.77-9.77l.56,.02c5.17,0,7.54,3.05,7.54,6.19,0,5.24-6.42,6.98-12.38,6.98,.67,1.56,2.07,2.33,4.65,2.33,2.05,.04,4.05-.65,5.65-1.93l2.54,3.44h0Zm-13.45-7.47c4.82,0,7.89-.77,7.89-3.12,0-1.23-.84-2.14-2.79-2.14h-.07c-2.76,0-5.03,2.27-5.03,5.03v.23Zm29.42,9.98c-.28-.88-.51-1.72-.72-2.61-1.55,2.02-4,3.14-6.54,3-4.28,0-6.8-2.44-6.8-5.96s2.33-5.61,8.54-5.75c1.84,0,3.72-.12,3.72-1.63s-1.09-2.14-3.4-2.14c-1.68-.13-3.31,.62-4.3,1.98l-4-2.47c1.87-2.67,5.01-4.18,8.26-3.96,5.19,0,8.63,2.51,8.66,8.03-.17,3.88,.3,7.76,1.37,11.5h-4.79Zm-1.33-5.96c0-.74,0-1.61-.19-2.47-1.11,.38-2.3,.53-3.47,.44-1.54,0-3.91,.23-3.91,2.54h0c0,1.29,1.05,2.34,2.33,2.34h.21c2.02-.12,3.88-1.18,5.03-2.85h0Zm13.61-13.2v2.14c1.41-1.74,3.59-2.68,5.82-2.51v4.79c-3.65,0-5.45,1.68-5.45,4.65v10.17h-5.19V21.5h4.82Zm22.39,15.87c-1.01,2.29-3.31,3.75-5.82,3.68h-.39c-2.94,.01-5.35-2.4-5.35-5.34l.02-.48v-9.43h-3.19v-4.3h3.19v-6.4h5.19v6.4h4.3v4.3h-4.3v9.45c0,1,.44,1.49,1.12,1.49s1.12-.42,1.72-1.51l.51-.98,3.56,2-.56,1.12Zm-213.04,20.27v8.66c2.05-1.4,4.51-2.07,6.98-1.91h3.79v4.42h-4.65c-4.17,0-5.98,1.84-5.98,4.86v7.56h-5.38v-27.93h17.57v4.42l-12.33-.09h0Zm12.89,14.15v-.37c0-5.64,4.64-10.29,10.28-10.29s10.29,4.64,10.29,10.29-4.58,10.23-10.19,10.29c-.23,.02-.45,.02-.68,.02-5.33,0-9.7-4.38-9.7-9.71v-.23h0Zm15.31,0c0-3.51-1.86-5.63-5.03-5.63h-.21c-2.71,0-4.93,2.22-4.93,4.93,0,.28,.02,.56,.07,.84-.02,.16-.02,.32-.02,.49,0,2.78,2.29,5.07,5.07,5.07s5.07-2.29,5.07-5.07c0-.16,0-.33-.02-.49v-.14h0Zm7.75,2.68c0-1.58,.4-3.65,.4-6.17,.01-2.07-.25-4.14-.79-6.14h5.19c.54,1.95,.8,3.96,.79,5.98,0,2.33-.37,4.07-.37,5.42,0,2.33,1.09,3.7,3.44,3.7l.41,.02c2.26,0,4.12-1.86,4.12-4.12l-.02-.39v-10.61h5.19v19.08h-4.84v-2.1c-1.67,1.7-3.98,2.61-6.35,2.51h-.36c-3.74,0-6.82-3.07-6.82-6.81v-.38h.01Zm40.66-5.49c0,1.58-.4,3.63-.4,6.21,0,2.07,.26,4.12,.79,6.12h-5.19c-.53-1.94-.8-3.95-.79-5.96,0-2.33,.35-4.12,.35-5.47,.03-.16,.04-.33,.04-.5,0-1.77-1.46-3.24-3.23-3.24-.14,0-.29,.01-.43,.03l-.37-.02c-2.26,0-4.12,1.86-4.12,4.12l.02,.43v10.52h-5.1v-19.08h4.65v2.1c1.64-1.6,3.85-2.48,6.14-2.47,.22-.02,.44-.03,.66-.03,3.83,0,6.98,3.15,6.98,6.98v.24h0Zm18.8,12.26c-.26-.83-.43-1.69-.51-2.56-1.52,2.02-3.95,3.16-6.47,3.05h-.02c-5.11,0-9.31-4.2-9.31-9.31,0-.22,0-.43,.02-.65v-.26c0-5.33,4.38-9.72,9.7-9.73,1.79-.06,3.53,.58,4.86,1.77v-10.94h5.26v16.08c-.05,4.24,.42,8.48,1.4,12.61l-4.93-.07Zm-1.49-9.59c0-3.56-1.91-5.54-4.86-5.54s-4.82,1.98-4.82,5.54,1.86,5.54,4.82,5.54,4.93-1.88,4.93-5.47l-.07-.07Zm22.85,9.59c-.28-.88-.51-1.72-.7-2.61-1.56,2.02-4.02,3.14-6.56,3-4.26,0-6.77-2.44-6.77-5.96s2.33-5.61,8.54-5.75c1.84,0,3.7-.12,3.7-1.63s-1.07-2.16-3.37-2.16c-1.69-.12-3.33,.63-4.33,2l-3.98-2.47c1.87-2.67,5.01-4.18,8.26-3.96,5.19,0,8.61,2.51,8.66,8.03-.17,3.88,.28,7.76,1.35,11.5h-4.79Zm-1.3-6.07c0-.77-.12-1.61-.21-2.47-1.11,.38-2.3,.52-3.47,.42-1.51,0-3.91,.26-3.91,2.56h0c0,1.29,1.05,2.34,2.33,2.34h.23c2.01-.11,3.87-1.13,5.03-2.78v-.07Zm22.57,2.86c-1.01,2.29-3.31,3.75-5.82,3.68h-.4c-2.92,.01-5.33-2.39-5.33-5.31,0-.18,0-.35,.03-.53v-9.31h-3.19v-4.4h3.19v-6.4h5.19v6.4h4.3v4.3h-4.3v9.45c0,1,.44,1.47,1.12,1.47s1.12-.4,1.7-1.51l.54-.95,3.54,2-.56,1.12Zm2.16-21.06c0-1.71,1.41-3.12,3.12-3.12h.27c1.71-.01,3.12,1.4,3.12,3.11s-1.41,3.12-3.12,3.12h-.27c-1.7-.01-3.11-1.41-3.12-3.11h0Zm5.63,5.19v19.08h-5.19v-19.08h5.19Zm3.51,9.63v-.35c0-5.63,4.63-10.26,10.26-10.26s10.26,4.63,10.26,10.26-4.61,10.25-10.23,10.26l-.58,.02c-5.33,0-9.7-4.38-9.7-9.71v-.23h0Zm15.31,0c0-3.51-1.89-5.63-5.03-5.63h-.21c-2.71,0-4.93,2.22-4.93,4.93,0,.28,.02,.56,.07,.84-.02,.16-.02,.32-.02,.49,0,2.78,2.29,5.07,5.07,5.07s5.07-2.29,5.07-5.07c0-.16,0-.33-.02-.49v-.14h0Zm27.2-2.81c0,1.58-.4,3.63-.4,6.21,0,2.07,.26,4.12,.79,6.12h-5.19c-.52-1.94-.79-3.95-.79-5.96,0-2.33,.37-4.12,.37-5.47,.03-.16,.04-.33,.04-.5,0-1.77-1.46-3.24-3.23-3.24-.14,0-.29,.01-.43,.03l-.37-.02c-2.26,0-4.12,1.86-4.12,4.12l.02,.43v10.52h-5.19v-19.08h4.82v2.1c1.64-1.6,3.85-2.48,6.14-2.47,.19-.01,.38-.02,.56-.02,3.83,0,6.98,3.15,6.98,6.98v.23h0Z"/></svg>