<svg xmlns="http://www.w3.org/2000/svg" width="108.131" height="29.7" viewBox="0 0 108.131 29.7">
  <path id="bhf" d="M131.877,173.509c-.783-.056-.573-1.887-2.23-1.685-1.174.14-1.3,1.538-1.4,2.628-.119,1.216-.259,2.251-.615,2.1s-.224-.7-.357-2.4c-.147-1.943-.622-3.013-1.782-3.2-1.4-.224-1.964,1.915-2.209,2.747s-.7,1.2-.944,1.2-.629-.112-.741-1.09a6.005,6.005,0,0,1,1.811-3.845c3.355-3.537,8.179-6.032,8.179-11.5-.007-5.173-3.691-7.906-7.137-7.906a6.2,6.2,0,0,0-4.571,2.034c-.818.8-1.167,1.705-1.482,1.705s-.657-.9-1.468-1.705a6.208,6.208,0,0,0-4.571-2.034c-3.418,0-7.13,2.726-7.13,7.892,0,5.466,4.816,7.962,8.179,11.5a6.1,6.1,0,0,1,1.811,3.845c-.091.985-.51,1.013-.7,1.007s-.636-.189-.958-1.4-.657-2.1-1.88-2.181c-1.363-.084-1.72,1.79-1.839,3.278-.1,1.279-.133,3.684-.615,3.5-.28-.119-.419-2.873-.65-4.984-.175-1.636-.391-5.131-1.342-5.753-1.153-.755-2.167.091-2.482,1.433-.238,1-.273,1.831-.573,3.174-.224,1-.475,1.629-1.447,1.629H100v1.468h.636c3.537.147,4.53-.217,4.956-1.811a34.781,34.781,0,0,0,.608-3.5c.126-.7.552-1.042.741.888.091.958.182,2.181.329,3.418.433,3.649.545,6.172,2.139,6.291,1.769.154,1.782-3.1,1.9-4.383.07-.818.175-3.153.587-2.9.573.342.357,3.278,3.076,3.4,1.559.077,2.132-1.1,2.237-2.419s-1.083-3.069-2.691-4.648c-3.873-3.809-6.564-5.774-6.564-9.968s2.985-6.417,5.592-6.417c.573,0,2.335-.1,4.46,3.341a.468.468,0,0,0,.811,0c2.1-3.439,3.879-3.341,4.46-3.341,2.607,0,5.592,2.1,5.592,6.417s-2.719,6.074-6.564,9.884c-1.6,1.58-2.7,3.495-2.67,4.753s.7,2.5,2.237,2.418c2.628-.119,2.482-2.272,3.02-3.439.293-.622.7-.622.762.314s.1,1.265.2,2.265c.126,1.286.587,2.733,1.747,2.621,1-.1,1.573-.7,1.762-2.565.049-.538.091-.783.161-1.566.042-.447.175-.783.37-.7s.378.524.51.832a1.6,1.6,0,0,0,1.587.881h4.1v-1.468c-1.6,0-3.719,0-4.194-.049m14.071-19.181c1.7,0,2.67.972,2.67,2.1a1.594,1.594,0,0,1-1.342,1.713c-.273.077-.3.384,0,.433a1.889,1.889,0,0,1,1.657,2.027,2.41,2.41,0,0,1-2.663,2.2h-3.886v-8.465h3.565Zm-1.992,7.116h2.1c.79,0,1.244-.35,1.244-1.021,0-.825-.776-.958-1.356-1.23a.811.811,0,0,1,0-1.524c.482-.2,1.055-.335,1.07-1.076,0-.58-.419-.951-1.153-.951h-1.9v5.8Zm7.312-4.432v.643a2.057,2.057,0,0,1,1.775-.755v1.44c-1.1,0-1.643.5-1.643,1.4V162.8h-1.587V157.02Zm2.474-1.559a.933.933,0,1,1,.93.937A.941.941,0,0,1,153.764,155.461Zm1.685,1.559v5.753h-1.587V157.02Zm5.306,4.767a1.848,1.848,0,0,1-1.747,1.1c-.051,0-.1.008-.154.008a1.608,1.608,0,0,1-1.6-1.6c0-.052,0-.1.008-.154v-2.831h-.951V157.02h.951V155.1h1.552v1.922h1.314v1.293h-1.3v2.838c0,.3.133.447.336.447s.336-.126.517-.454l.154-.293,1.07.6-.147.336Zm.629-6.326a.933.933,0,1,1,.93.937A.941.941,0,0,1,161.384,155.461Zm1.685,1.559v5.753H161.51V157.02Zm2.614,4.11c0,.3.35.454.874.454s.818-.168.818-.482c0-1.062-2.985-.357-2.985-2.418,0-1.042.888-1.748,2.37-1.748a2.8,2.8,0,0,1,2.1.811l-.776.951a1.861,1.861,0,0,0-1.293-.531c-.587,0-.818.2-.818.461,0,.895,3,.391,3,2.4,0,1.125-.937,1.831-2.433,1.831-1.4,0-2.377-.594-2.377-1.58a1.624,1.624,0,0,1,.266-.86l1.356.454a.591.591,0,0,0-.1.252Zm9.625-2.062c0,.475-.119,1.09-.119,1.866a6.986,6.986,0,0,0,.238,1.839h-1.559a6.719,6.719,0,0,1-.238-1.79c0-.7.1-1.23.1-1.643a.956.956,0,0,0,.012-.15.976.976,0,0,0-.972-.972,1,1,0,0,0-.138.01l-.116-.006a1.238,1.238,0,0,0-1.226,1.4v3.181h-1.559v-8.654h1.538v3.495a2.218,2.218,0,0,1,1.762-.748c.059,0,.117-.008.176-.008a2.107,2.107,0,0,1,2.1,2.1Zm11.142-4.732v8.437h-1.594v-3.754h-1.034c-1.845,0-2.754.9-2.754,2.412v1.342h-1.6v-8.437h1.6v4.383a4.157,4.157,0,0,1,2.992-1.042h.79v-3.341h1.6Zm6.305,7.682a3.273,3.273,0,0,1-2.488.874c-.076.006-.153.01-.23.01a2.81,2.81,0,0,1-2.8-2.8c0-.062,0-.123.006-.184v-.082a2.95,2.95,0,0,1,2.936-2.936l.169,0c1.552,0,2.265.916,2.265,1.859,0,1.573-1.929,2.1-3.719,2.1.2.468.622.7,1.4.7a2.638,2.638,0,0,0,1.7-.58l.762,1.034Zm-4.04-2.244c1.447,0,2.37-.231,2.37-.937,0-.37-.252-.643-.839-.643h-.022a1.517,1.517,0,0,0-1.51,1.51Zm8.835,3c-.084-.266-.154-.517-.217-.783a2.315,2.315,0,0,1-1.964.9,1.8,1.8,0,0,1-2.041-1.79c0-1.055.7-1.685,2.565-1.726.552,0,1.119-.035,1.119-.489s-.329-.643-1.021-.643a1.463,1.463,0,0,0-1.293.594l-1.2-.741a2.8,2.8,0,0,1,2.482-1.188c1.559,0,2.593.755,2.6,2.412a10.776,10.776,0,0,0,.412,3.453Zm-.4-1.79a3.472,3.472,0,0,0-.056-.741,2.672,2.672,0,0,1-1.042.133c-.461,0-1.174.07-1.174.762v0a.7.7,0,0,0,.7.7l.063,0a1.966,1.966,0,0,0,1.51-.853Zm4.089-3.963v.643a2.056,2.056,0,0,1,1.747-.755v1.44c-1.1,0-1.636.5-1.636,1.4V162.8h-1.559V157.02h1.447Zm6.724,4.767a1.848,1.848,0,0,1-1.747,1.1l-.118,0a1.615,1.615,0,0,1-1.608-1.608l.006-.144v-2.831h-.958V157.02h.958V155.1h1.559v1.922h1.293v1.293h-1.293v2.838c0,.3.133.447.336.447s.336-.126.517-.454l.154-.293,1.07.6Zm-63.988,6.088v2.6a3.34,3.34,0,0,1,2.1-.573h1.139v1.328h-1.4c-1.251,0-1.8.552-1.8,1.461v2.272h-1.615v-8.388h5.278V167.9l-3.7-.028Zm3.873,4.25,0-.112a3.09,3.09,0,1,1,3.12,3.089c-.068,0-.135.007-.2.007a2.929,2.929,0,0,1-2.915-2.915v-.07Zm4.6,0c0-1.055-.559-1.692-1.51-1.692l-.064,0a1.489,1.489,0,0,0-1.482,1.482,1.459,1.459,0,0,0,.022.253c0,.048-.007.1-.007.146a1.524,1.524,0,1,0,3.047,0c0-.049,0-.1-.007-.146v-.042Zm2.328.8c0-.475.119-1.1.119-1.852a6.914,6.914,0,0,0-.238-1.845h1.559a6.637,6.637,0,0,1,.238,1.8c0,.7-.112,1.223-.112,1.629,0,.7.329,1.111,1.034,1.111l.124.006a1.243,1.243,0,0,0,1.237-1.237l-.006-.118v-3.187h1.559v5.732h-1.454v-.629a2.525,2.525,0,0,1-1.908.755l-.108,0a2.058,2.058,0,0,1-2.048-2.048l0-.115Zm12.212-1.65c0,.475-.119,1.09-.119,1.866a6.986,6.986,0,0,0,.238,1.838H165.55a6.718,6.718,0,0,1-.238-1.79c0-.7.1-1.237.1-1.643a.941.941,0,0,0,.011-.149.976.976,0,0,0-.972-.972,1.052,1.052,0,0,0-.13.009l-.112,0a1.243,1.243,0,0,0-1.237,1.237l.007.131v3.16h-1.531v-5.732h1.4v.629a2.623,2.623,0,0,1,1.845-.741c.066-.006.132-.009.2-.009a2.107,2.107,0,0,1,2.1,2.1v.072Zm5.648,3.684a3.939,3.939,0,0,1-.154-.769,2.309,2.309,0,0,1-1.943.916h-.007a2.81,2.81,0,0,1-2.8-2.8c0-.065,0-.131.007-.2v-.077a2.936,2.936,0,0,1,2.916-2.922,2.1,2.1,0,0,1,1.461.531v-3.285h1.58v4.83a15.744,15.744,0,0,0,.419,3.789Zm-.447-2.88c0-1.07-.573-1.664-1.461-1.664s-1.447.594-1.447,1.664.559,1.664,1.447,1.664a1.437,1.437,0,0,0,1.482-1.643Zm6.864,2.88c-.084-.266-.154-.517-.21-.783a2.33,2.33,0,0,1-1.971.9,1.8,1.8,0,0,1-2.034-1.79c0-1.055.7-1.685,2.565-1.726.552,0,1.111-.035,1.111-.489s-.322-.65-1.013-.65a1.482,1.482,0,0,0-1.3.6l-1.2-.741a2.8,2.8,0,0,1,2.482-1.188c1.559,0,2.586.755,2.6,2.412a10.789,10.789,0,0,0,.405,3.453Zm-.391-1.824a7.232,7.232,0,0,0-.063-.741,2.534,2.534,0,0,1-1.042.126c-.454,0-1.174.077-1.174.769v0a.7.7,0,0,0,.7.7l.07,0a1.967,1.967,0,0,0,1.51-.832Zm6.78.86a1.848,1.848,0,0,1-1.747,1.1l-.12,0a1.608,1.608,0,0,1-1.6-1.6c0-.053,0-.105.008-.158v-2.8h-.958v-1.321h.958V167.31h1.559v1.922h1.293v1.293h-1.293v2.838c0,.3.133.44.335.44s.336-.119.51-.454l.161-.287,1.062.6Zm.65-6.326a.941.941,0,0,1,.937-.937l.081,0a.937.937,0,1,1,0,1.874l-.081,0A.941.941,0,0,1,186.094,167.673Zm1.692,1.559v5.732h-1.559v-5.732Zm1.055,2.894,0-.1a3.083,3.083,0,1,1,3.092,3.083l-.175.006a2.929,2.929,0,0,1-2.915-2.915v-.068Zm4.6,0c0-1.055-.566-1.692-1.51-1.692l-.064,0a1.489,1.489,0,0,0-1.482,1.482,1.46,1.46,0,0,0,.022.253c0,.048-.007.1-.007.146a1.524,1.524,0,0,0,3.047,0c0-.049,0-.1-.007-.146v-.042Zm8.171-.846c0,.475-.119,1.09-.119,1.866a6.985,6.985,0,0,0,.238,1.839h-1.559a6.967,6.967,0,0,1-.238-1.79c0-.7.112-1.237.112-1.643a.945.945,0,0,0,.011-.149.976.976,0,0,0-.972-.972,1.052,1.052,0,0,0-.13.009l-.112,0a1.243,1.243,0,0,0-1.237,1.237l.007.131v3.16h-1.559v-5.732H197.5v.629a2.623,2.623,0,0,1,1.845-.741c.056,0,.113-.007.169-.007a2.107,2.107,0,0,1,2.1,2.1l0,.07Z" transform="translate(-100.003 -150.561)" fill="#fff" fill-rule="evenodd"/>
</svg>
