<svg xmlns="http://www.w3.org/2000/svg" width="152.707" height="28" viewBox="0 0 152.707 28">
  <g id="Group_2498" data-name="Group 2498" transform="translate(-1187.293 -5)">
    <g id="Group_2493" data-name="Group 2493" transform="translate(8.807)">
      <path id="bhf_copy" data-name="bhf copy" d="M133.513,163.883v2.346a3.014,3.014,0,0,1,1.892-.517h1.028v1.194h-1.261c-1.129,0-1.621.5-1.621,1.318v2.05h-1.457v-7.569h4.762V163.9l-3.343-.025Zm3.49,3.835v-.1a2.788,2.788,0,1,1,2.814,2.788c-.062,0-.122.006-.184.006a2.643,2.643,0,0,1-2.631-2.63Zm4.15,0c0-.952-.5-1.527-1.362-1.527h-.058a1.344,1.344,0,0,0-1.337,1.337,1.314,1.314,0,0,0,.019.228c0,.043-.006.092-.006.131a1.378,1.378,0,0,0,2.75,0,.872.872,0,0,0-.006-.131v-.038Zm2.1.726c0-.429.107-.99.107-1.672a6.236,6.236,0,0,0-.214-1.665h1.406a5.985,5.985,0,0,1,.214,1.621c0,.631-.1,1.1-.1,1.47,0,.631.3,1,.933,1l.112.006a1.122,1.122,0,0,0,1.116-1.116l-.006-.107v-2.878h1.406v5.171h-1.305v-.568a2.279,2.279,0,0,1-1.721.681h-.1a1.857,1.857,0,0,1-1.848-1.848v-.1Zm11.023-1.488c0,.429-.107.984-.107,1.684a6.3,6.3,0,0,0,.214,1.659h-1.406a6.063,6.063,0,0,1-.214-1.615c0-.631.092-1.116.092-1.482a.852.852,0,0,0,.01-.134.881.881,0,0,0-.876-.876.943.943,0,0,0-.118.008h-.1a1.122,1.122,0,0,0-1.116,1.116l.006.118v2.847h-1.378v-5.174h1.261v.568a2.367,2.367,0,0,1,1.665-.669c.06-.006.118-.008.178-.008a1.9,1.9,0,0,1,1.892,1.892v.065Zm5.1,3.324a3.556,3.556,0,0,1-.139-.694,2.083,2.083,0,0,1-1.753.827h-.006a2.535,2.535,0,0,1-2.523-2.523,1.6,1.6,0,0,1,.007-.176v-.07a2.649,2.649,0,0,1,2.631-2.636,1.89,1.89,0,0,1,1.318.479v-2.964h1.428v4.358a14.207,14.207,0,0,0,.378,3.419Zm-.4-2.6c0-.965-.517-1.5-1.318-1.5s-1.305.536-1.305,1.5.5,1.5,1.305,1.5a1.3,1.3,0,0,0,1.337-1.482Zm6.194,2.6a7.282,7.282,0,0,1-.189-.706,2.1,2.1,0,0,1-1.778.814,1.62,1.62,0,0,1-1.837-1.615c0-.952.631-1.52,2.315-1.561.5,0,1-.031,1-.442s-.29-.586-.919-.586a1.337,1.337,0,0,0-1.173.542l-1.078-.669a2.524,2.524,0,0,1,2.239-1.072,2.053,2.053,0,0,1,2.346,2.176,9.737,9.737,0,0,0,.367,3.116Zm-.353-1.646a6.529,6.529,0,0,0-.057-.669,2.285,2.285,0,0,1-.94.114c-.41,0-1.06.07-1.06.694h0a.633.633,0,0,0,.631.631h.063a1.774,1.774,0,0,0,1.362-.75Zm6.118.776a1.668,1.668,0,0,1-1.577,1h-.107a1.451,1.451,0,0,1-1.444-1.444.938.938,0,0,1,.007-.142V166.3h-.864v-1.194h.864v-1.734h1.406v1.734h1.167v1.166h-1.167v2.561c0,.276.119.4.3.4s.3-.107.459-.41l.145-.258.959.542Zm.586-5.708a.85.85,0,0,1,.845-.845h.074a.845.845,0,0,1,0,1.69h-.074a.85.85,0,0,1-.845-.839Zm1.527,1.406v5.171h-1.408v-5.174Zm.953,2.611v-.092a2.781,2.781,0,1,1,2.79,2.781l-.158.006a2.643,2.643,0,0,1-2.63-2.63v-.062Zm4.15,0c0-.953-.511-1.527-1.362-1.527h-.058a1.344,1.344,0,0,0-1.337,1.337,1.315,1.315,0,0,0,.019.228c0,.043-.006.092-.006.131a1.378,1.378,0,1,0,2.75,0,.876.876,0,0,0-.006-.131v-.038Zm7.373-.763c0,.429-.107.984-.107,1.684a6.3,6.3,0,0,0,.214,1.659h-1.406a6.284,6.284,0,0,1-.214-1.615c0-.631.1-1.116.1-1.482a.851.851,0,0,0,.01-.134.881.881,0,0,0-.876-.876.943.943,0,0,0-.118.008h-.1a1.121,1.121,0,0,0-1.116,1.116l.006.118v2.847H180.5v-5.175h1.305v.568a2.366,2.366,0,0,1,1.665-.669c.051,0,.1-.006.152-.006a1.9,1.9,0,0,1,1.892,1.892v.063Z" transform="translate(1145.57 -148.18)" fill="#fff" fill-rule="evenodd"/>
      <path id="bhf_copy-2" data-name="bhf copy" d="M135.316,153.441c1.533,0,2.409.876,2.409,1.892a1.438,1.438,0,0,1-1.211,1.545c-.246.07-.276.347,0,.391a1.7,1.7,0,0,1,1.494,1.829,2.174,2.174,0,0,1-2.4,1.98H132.1v-7.638h3.215Zm-1.8,6.421h1.892c.713,0,1.122-.315,1.122-.918,0-.744-.7-.864-1.223-1.11a.735.735,0,0,1,0-1.378c.435-.184.953-.3.965-.971,0-.524-.378-.858-1.041-.858h-1.722v5.236Zm6.6-4v.581a1.856,1.856,0,0,1,1.6-.681v1.3c-.99,0-1.483.455-1.483,1.261v2.756H138.8v-5.215Zm3.753,0v5.191h-1.432v-5.191Zm4.787,4.3a1.668,1.668,0,0,1-1.577,1c-.046,0-.092.007-.14.007a1.451,1.451,0,0,1-1.444-1.444.9.9,0,0,1,.007-.14V157.03h-.858v-1.167h.858V154.13h1.4v1.734h1.186v1.167h-1.173v2.561c0,.276.119.4.3.4s.3-.114.467-.41l.139-.265.965.542-.132.3Zm.568-5.708a.842.842,0,1,1,.839.845.842.842,0,0,1-.839-.845Zm1.52,1.406v5.191h-1.406v-5.191Zm2.359,3.708c0,.276.315.41.788.41s.735-.152.735-.435c0-.959-2.693-.321-2.693-2.182,0-.94.8-1.577,2.138-1.577a2.523,2.523,0,0,1,1.892.735l-.7.858a1.679,1.679,0,0,0-1.167-.48c-.53,0-.735.184-.735.416,0,.807,2.706.353,2.706,2.17,0,1.016-.845,1.653-2.2,1.653-1.261,0-2.145-.536-2.145-1.426a1.47,1.47,0,0,1,.24-.776l1.223.41a.534.534,0,0,0-.095.228Zm8.685-1.86c0,.429-.107.984-.107,1.684a6.3,6.3,0,0,0,.214,1.659h-1.406a6.061,6.061,0,0,1-.214-1.615c0-.631.092-1.111.092-1.483a.867.867,0,0,0,.011-.135.881.881,0,0,0-.876-.876.894.894,0,0,0-.124.009l-.1-.006a1.117,1.117,0,0,0-1.1,1.267v2.869h-1.418v-7.807h1.388v3.153a2,2,0,0,1,1.589-.675c.053,0,.106-.007.159-.007a1.9,1.9,0,0,1,1.892,1.892Zm10.053-4.269v7.613H170.4V157.67h-.933c-1.665,0-2.485.814-2.485,2.176v1.211h-1.444v-7.613h1.444V157.4a3.752,3.752,0,0,1,2.7-.94h.713v-3.015h1.444Zm5.689,6.931a2.954,2.954,0,0,1-2.245.788c-.069.005-.138.009-.208.009a2.535,2.535,0,0,1-2.523-2.523q0-.084.006-.166v-.073a2.664,2.664,0,0,1,2.649-2.649h.153c1.4,0,2.044.827,2.044,1.677,0,1.419-1.745,1.892-3.355,1.892.184.423.561.631,1.261.631a2.38,2.38,0,0,0,1.532-.524l.688.933Zm-3.646-2.021c1.305,0,2.138-.208,2.138-.845,0-.334-.227-.581-.757-.581h-.02a1.369,1.369,0,0,0-1.362,1.362Zm7.972,2.706c-.075-.24-.139-.467-.2-.706a2.089,2.089,0,0,1-1.773.814,1.623,1.623,0,0,1-1.842-1.615c0-.953.631-1.52,2.315-1.562.5,0,1.01-.031,1.01-.442s-.3-.581-.919-.581a1.32,1.32,0,0,0-1.167.536l-1.085-.669a2.524,2.524,0,0,1,2.239-1.072,2.05,2.05,0,0,1,2.346,2.176,9.722,9.722,0,0,0,.372,3.116Zm-.36-1.615a3.131,3.131,0,0,0-.051-.669,2.41,2.41,0,0,1-.94.119c-.416,0-1.06.063-1.06.688h0a.633.633,0,0,0,.631.631h.057A1.774,1.774,0,0,0,181.5,159.443Zm3.69-3.576v.58a1.855,1.855,0,0,1,1.577-.681v1.3c-.99,0-1.476.455-1.476,1.261v2.756h-1.406v-5.215Zm6.068,4.3a1.668,1.668,0,0,1-1.577,1h-.107a1.458,1.458,0,0,1-1.45-1.45l.005-.129v-2.554h-.864v-1.167h.864v-1.734h1.406v1.734H190.7v1.167h-1.167v2.561c0,.276.119.4.3.4s.3-.114.467-.41l.139-.265.965.542Z" transform="translate(1082.387 -138.936)" fill="#fff" fill-rule="evenodd"/>
      <path id="bhf_copy-3" data-name="bhf copy" d="M149.224,154.457a.842.842,0,1,1,.839.845.842.842,0,0,1-.839-.845Z" transform="translate(1075.387 -138.936)" fill="#fff" fill-rule="evenodd"/>
    </g>
    <g id="Group_2497" data-name="Group 2497">
      <circle id="Ellipse_656" data-name="Ellipse 656" cx="14" cy="14" r="14" transform="translate(1187.293 5)" fill="#fff"/>
      <path id="bhf_copy-4" data-name="bhf copy" d="M116.436,162.389c-.4-.029-.3-.973-1.15-.869-.606.072-.67.793-.721,1.355-.061.627-.133,1.161-.315,1.081s-.115-.361-.184-1.236c-.076-1-.321-1.553-.919-1.651-.721-.115-1.013.988-1.139,1.417s-.361.62-.487.62-.324-.058-.382-.562a3.1,3.1,0,0,1,.932-1.981c1.732-1.824,4.217-3.111,4.217-5.931a3.8,3.8,0,0,0-3.68-4.076,3.194,3.194,0,0,0-2.357,1.05c-.42.415-.6.879-.764.879s-.339-.465-.757-.879a3.2,3.2,0,0,0-2.357-1.05,3.793,3.793,0,0,0-3.674,4.069c0,2.819,2.483,4.105,4.217,5.931a3.145,3.145,0,0,1,.934,1.983c-.047.508-.262.525-.361.519s-.328-.1-.494-.721-.339-1.081-.97-1.124c-.7-.043-.887.923-.948,1.69-.052.66-.068,1.9-.315,1.8a12.969,12.969,0,0,1-.335-2.572c-.09-.843-.2-2.645-.692-2.966-.595-.389-1.117.047-1.28.739-.122.515-.141.945-.3,1.636-.115.515-.245.84-.746.84H100v.757h.328c1.824.076,2.336-.112,2.555-.934a17.922,17.922,0,0,0,.315-1.8c.065-.361.285-.537.382.458.047.494.094,1.124.17,1.763.224,1.881.281,3.182,1.1,3.244.912.079.919-1.6.981-2.26.036-.42.09-1.627.3-1.5.3.176.184,1.69,1.586,1.752.8.04,1.1-.57,1.155-1.247a3.719,3.719,0,0,0-1.388-2.4c-1.995-1.964-3.385-2.977-3.385-5.139a3.062,3.062,0,0,1,2.883-3.307c.3,0,1.2-.053,2.3,1.723a.241.241,0,0,0,.42,0c1.081-1.773,2-1.723,2.3-1.723a3.023,3.023,0,0,1,2.883,3.307c0,2.226-1.4,3.132-3.385,5.1a4.087,4.087,0,0,0-1.377,2.451c.014.649.361,1.287,1.155,1.247,1.355-.061,1.28-1.172,1.557-1.773.151-.321.361-.321.393.162s.052.652.1,1.168c.065.663.3,1.409.9,1.352.515-.052.811-.361.908-1.323.025-.278.047-.4.083-.807.022-.23.09-.4.191-.361s.195.27.262.429a.827.827,0,0,0,.818.454h2.112v-.757c-.825,0-1.917,0-2.163-.025" transform="translate(1091.793 -139.557)" fill="#ff0030" fill-rule="evenodd"/>
    </g>
  </g>
</svg>
