<svg xmlns="http://www.w3.org/2000/svg" width="106.228" height="29.175" viewBox="0 0 106.228 29.175">
  <g id="Group_86" data-name="Group 86" transform="translate(-210.34 -24.568)">
    <path id="bhf_copy" data-name="bhf copy" d="M131.313,173.1c-.769-.055-.563-1.854-2.19-1.655-1.154.137-1.277,1.511-1.373,2.582-.117,1.2-.254,2.211-.6,2.06s-.22-.687-.35-2.355c-.144-1.909-.611-2.959-1.751-3.145-1.373-.22-1.93,1.882-2.17,2.7s-.687,1.181-.927,1.181-.618-.11-.728-1.071A5.9,5.9,0,0,1,123,169.622c3.3-3.474,8.034-5.926,8.034-11.3-.007-5.081-3.626-7.766-7.011-7.766a6.085,6.085,0,0,0-4.491,2c-.8.79-1.147,1.675-1.456,1.675s-.646-.886-1.442-1.675a6.1,6.1,0,0,0-4.491-2c-3.358,0-7,2.678-7,7.752,0,5.37,4.731,7.821,8.034,11.3a5.992,5.992,0,0,1,1.779,3.777c-.089.968-.5,1-.687.989s-.625-.185-.941-1.373-.646-2.06-1.847-2.142c-1.339-.082-1.689,1.758-1.806,3.22-.1,1.257-.13,3.619-.6,3.433-.275-.117-.412-2.822-.638-4.9-.172-1.607-.384-5.04-1.318-5.651-1.133-.741-2.128.089-2.438,1.408-.233.982-.268,1.8-.563,3.117-.22.982-.467,1.6-1.421,1.6H100v1.442h.625c3.474.144,4.45-.213,4.868-1.779a34.167,34.167,0,0,0,.6-3.433c.124-.687.543-1.023.728.872.089.941.179,2.142.323,3.358.426,3.584.536,6.063,2.1,6.18,1.737.151,1.751-3.042,1.868-4.3.069-.8.172-3.1.577-2.85.563.336.35,3.22,3.021,3.337,1.531.076,2.094-1.085,2.2-2.376s-1.064-3.014-2.644-4.566c-3.8-3.742-6.448-5.672-6.448-9.791s2.932-6.3,5.493-6.3c.563,0,2.293-.1,4.381,3.282a.46.46,0,0,0,.8,0c2.06-3.378,3.811-3.282,4.381-3.282,2.561,0,5.493,2.06,5.493,6.3s-2.671,5.967-6.448,9.709c-1.572,1.552-2.65,3.433-2.623,4.669s.687,2.451,2.2,2.376c2.582-.117,2.438-2.232,2.966-3.378.288-.611.687-.611.749.309s.1,1.243.2,2.225c.124,1.263.577,2.685,1.717,2.575.982-.1,1.545-.687,1.73-2.52.048-.529.089-.769.158-1.538.041-.439.172-.769.364-.687s.371.515.5.817a1.575,1.575,0,0,0,1.559.865h4.024v-1.442c-1.572,0-3.653,0-4.12-.048m13.822-18.841c1.669,0,2.623.954,2.623,2.06a1.565,1.565,0,0,1-1.318,1.682c-.268.076-.3.378,0,.426a1.856,1.856,0,0,1,1.627,1.991,2.367,2.367,0,0,1-2.616,2.156h-3.818v-8.315h3.5Zm-1.957,6.99h2.06c.776,0,1.222-.343,1.222-1,0-.81-.762-.941-1.332-1.208a.8.8,0,0,1,0-1.5c.474-.2,1.037-.33,1.051-1.057,0-.57-.412-.934-1.133-.934H143.2v5.7Zm7.182-4.353v.632a2.021,2.021,0,0,1,1.744-.741v1.414c-1.078,0-1.614.495-1.614,1.373v3H148.96V156.9Zm2.431-1.531a.743.743,0,1,1-.007,0Zm1.655,1.531v5.651h-1.559V156.9Zm5.212,4.683a1.816,1.816,0,0,1-1.717,1.085c-.05,0-.1.008-.152.008a1.58,1.58,0,0,1-1.572-1.572.975.975,0,0,1,.008-.152v-2.781h-.934V156.9h.934v-1.888h1.524V156.9h1.291v1.27h-1.277v2.788c0,.3.13.439.33.439s.33-.124.508-.446l.151-.288,1.051.59-.144.33Zm.618-6.214a.706.706,0,1,1-.005,0Zm1.655,1.531v5.651h-1.531V156.9Zm2.568,4.037c0,.3.343.446.858.446s.8-.165.8-.474c0-1.044-2.932-.35-2.932-2.376,0-1.023.872-1.717,2.328-1.717a2.747,2.747,0,0,1,2.06.8l-.762.934a1.828,1.828,0,0,0-1.27-.522c-.577,0-.8.2-.8.453,0,.879,2.946.384,2.946,2.362,0,1.106-.92,1.8-2.39,1.8-1.373,0-2.335-.584-2.335-1.552a1.6,1.6,0,0,1,.261-.845l1.332.446a.58.58,0,0,0-.1.248Zm9.455-2.025c0,.467-.117,1.071-.117,1.833a6.86,6.86,0,0,0,.233,1.806h-1.531a6.6,6.6,0,0,1-.233-1.758c0-.687.1-1.209.1-1.614a.94.94,0,0,0,.012-.147.959.959,0,0,0-.954-.954.975.975,0,0,0-.135.01l-.114-.006a1.216,1.216,0,0,0-1.2,1.379v3.124H168.5v-8.5h1.511v3.433a2.179,2.179,0,0,1,1.73-.735c.058,0,.115-.008.173-.008a2.07,2.07,0,0,1,2.06,2.06Zm10.945-4.648v8.288h-1.566V158.87h-1.016c-1.813,0-2.705.886-2.705,2.369v1.318h-1.572v-8.288h1.572v4.3a4.084,4.084,0,0,1,2.939-1.023h.776v-3.282h1.572Zm6.194,7.546a3.216,3.216,0,0,1-2.444.858c-.075.006-.15.01-.226.01a2.76,2.76,0,0,1-2.747-2.747q0-.091.006-.181v-.08a2.9,2.9,0,0,1,2.884-2.884h.166c1.524,0,2.225.9,2.225,1.826,0,1.545-1.9,2.06-3.653,2.06.2.46.611.687,1.373.687a2.591,2.591,0,0,0,1.668-.57l.749,1.016Zm-3.969-2.2c1.421,0,2.328-.227,2.328-.92,0-.364-.247-.632-.824-.632h-.022a1.49,1.49,0,0,0-1.483,1.483Zm8.679,2.946c-.082-.261-.151-.508-.213-.769a2.274,2.274,0,0,1-1.93.886,1.767,1.767,0,0,1-2.005-1.758c0-1.037.687-1.655,2.52-1.7.543,0,1.1-.034,1.1-.481s-.323-.632-1-.632a1.437,1.437,0,0,0-1.27.584l-1.181-.728a2.748,2.748,0,0,1,2.438-1.167c1.531,0,2.547.741,2.554,2.369a10.585,10.585,0,0,0,.4,3.392Zm-.392-1.758a3.412,3.412,0,0,0-.055-.728,2.625,2.625,0,0,1-1.023.13c-.453,0-1.154.069-1.154.749h0a.689.689,0,0,0,.687.687h.062A1.931,1.931,0,0,0,195.44,160.8Zm4.017-3.893v.632a2.019,2.019,0,0,1,1.717-.741v1.414c-1.078,0-1.607.495-1.607,1.373v3h-1.531v-5.678h1.421Zm6.606,4.683a1.816,1.816,0,0,1-1.717,1.085h-.116a1.587,1.587,0,0,1-1.579-1.579l.006-.141v-2.781h-.941v-1.27h.941v-1.888h1.531v1.888h1.27v1.27h-1.27v2.788c0,.3.13.439.33.439s.33-.124.508-.446l.151-.288,1.051.59ZM143.2,167.569v2.554a3.281,3.281,0,0,1,2.06-.563h1.119v1.3h-1.373c-1.229,0-1.765.543-1.765,1.435v2.232h-1.586v-8.24h5.184v1.3l-3.639-.027Zm3.8,4.175v-.11a3.035,3.035,0,1,1,3.064,3.035c-.067,0-.133.007-.2.007A2.877,2.877,0,0,1,147,171.813Zm4.518,0c0-1.037-.549-1.662-1.483-1.662h-.063a1.463,1.463,0,0,0-1.456,1.456,1.437,1.437,0,0,0,.021.248c0,.047-.007.1-.007.143a1.5,1.5,0,0,0,2.994,0,.947.947,0,0,0-.007-.143v-.041Zm2.287.79c0-.467.117-1.078.117-1.82a6.789,6.789,0,0,0-.233-1.813h1.531a6.518,6.518,0,0,1,.233,1.765c0,.687-.11,1.2-.11,1.6,0,.687.323,1.092,1.016,1.092l.122.006a1.221,1.221,0,0,0,1.215-1.215l-.006-.116V168.9h1.531v5.63H157.8v-.618a2.481,2.481,0,0,1-1.874.741h-.107a2.022,2.022,0,0,1-2.012-2.012v-.113Zm12-1.62c0,.467-.117,1.071-.117,1.833a6.861,6.861,0,0,0,.233,1.806H164.39a6.6,6.6,0,0,1-.233-1.758c0-.687.1-1.215.1-1.614a.924.924,0,0,0,.011-.146.959.959,0,0,0-.954-.954,1.035,1.035,0,0,0-.128.009h-.11a1.221,1.221,0,0,0-1.215,1.215l.007.128v3.1h-1.5V168.9h1.373v.618a2.577,2.577,0,0,1,1.813-.728c.065-.006.129-.009.194-.009a2.07,2.07,0,0,1,2.06,2.06v.071Zm5.548,3.619a3.873,3.873,0,0,1-.151-.755,2.268,2.268,0,0,1-1.909.9h-.007a2.76,2.76,0,0,1-2.747-2.747,1.756,1.756,0,0,1,.007-.192v-.076a2.884,2.884,0,0,1,2.864-2.87,2.058,2.058,0,0,1,1.435.522v-3.227H172.4v4.745a15.465,15.465,0,0,0,.412,3.722Zm-.439-2.829c0-1.051-.563-1.634-1.435-1.634s-1.421.584-1.421,1.634.549,1.634,1.421,1.634a1.412,1.412,0,0,0,1.456-1.614Zm6.743,2.829a7.96,7.96,0,0,1-.206-.769,2.288,2.288,0,0,1-1.936.886,1.764,1.764,0,0,1-2-1.758c0-1.037.687-1.655,2.52-1.7.543,0,1.092-.034,1.092-.481s-.316-.638-1-.638a1.456,1.456,0,0,0-1.277.59l-1.174-.728a2.748,2.748,0,0,1,2.438-1.167,2.235,2.235,0,0,1,2.554,2.369,10.6,10.6,0,0,0,.4,3.392Zm-.384-1.792a7.1,7.1,0,0,0-.062-.728,2.489,2.489,0,0,1-1.023.124c-.446,0-1.154.076-1.154.755h0a.689.689,0,0,0,.687.687h.069a1.932,1.932,0,0,0,1.483-.817Zm6.66.845a1.816,1.816,0,0,1-1.717,1.085H182.1a1.58,1.58,0,0,1-1.572-1.572,1.027,1.027,0,0,1,.008-.155V170.2h-.941v-1.3h.941v-1.888h1.531V168.9h1.27v1.27h-1.27v2.788c0,.3.13.433.33.433s.33-.117.5-.446l.158-.281,1.044.59Zm.638-6.214a.925.925,0,0,1,.92-.92h.08a.92.92,0,0,1,0,1.84h-.08a.925.925,0,0,1-.92-.913Zm1.662,1.531v5.63H184.7V168.9Zm1.037,2.843v-.1a3.028,3.028,0,1,1,3.037,3.028l-.172.006a2.877,2.877,0,0,1-2.863-2.863v-.067Zm4.518,0c0-1.037-.556-1.662-1.483-1.662h-.063a1.463,1.463,0,0,0-1.456,1.456,1.435,1.435,0,0,0,.021.248c0,.047-.007.1-.007.143a1.5,1.5,0,1,0,2.994,0,.947.947,0,0,0-.007-.143v-.041Zm8.027-.831c0,.467-.117,1.071-.117,1.833a6.862,6.862,0,0,0,.233,1.806H198.4a6.842,6.842,0,0,1-.233-1.758c0-.687.11-1.215.11-1.614a.928.928,0,0,0,.011-.146.959.959,0,0,0-.954-.954,1.035,1.035,0,0,0-.128.009h-.11a1.221,1.221,0,0,0-1.215,1.215l.007.128v3.1h-1.531V168.9h1.421v.618a2.577,2.577,0,0,1,1.813-.728c.055,0,.111-.007.166-.007a2.07,2.07,0,0,1,2.06,2.06v.069Z" transform="translate(110.34 -125.988)" fill="#ef0c2d" fill-rule="evenodd"/>
  </g>
</svg>
