<svg xmlns="http://www.w3.org/2000/svg" width="203.112" height="86.192" viewBox="0 0 203.112 86.192">
  <g id="Group_1823" data-name="Group 1823" transform="translate(-581 -1916)">
    <text id="Proudly_Supporting" data-name="Proudly Supporting" transform="translate(683 1932)" fill="#ff0037" font-size="16" font-family="EuclidCircularA-SemiBold, Euclid Circular A" font-weight="600"><tspan x="-72.872" y="0">Proudly Supporting</tspan></text>
    <g id="Group_1822" data-name="Group 1822" transform="translate(-0.37)">
      <path id="bhf_copy" data-name="bhf copy" d="M215.306,159.764a1.35,1.35,0,1,1-.01,0Z" transform="translate(481.37 1795.982)" fill="#ff0037" fill-rule="evenodd"/>
      <path id="bhf_copy-2" data-name="bhf copy" d="M215.306,159.764a1.35,1.35,0,1,1-.01,0Z" transform="translate(466.954 1795.982)" fill="#ff0037" fill-rule="evenodd"/>
      <path id="bhf_copy-3" data-name="bhf copy" d="M159.872,193.661c-1.47-.105-1.076-3.545-4.187-3.164-2.207.262-2.442,2.889-2.625,4.937-.224,2.285-.486,4.228-1.147,3.939s-.421-1.314-.669-4.5c-.275-3.65-1.168-5.658-3.348-6.013-2.625-.421-3.69,3.6-4.149,5.163s-1.314,2.258-1.772,2.258-1.182-.21-1.392-2.048a11.281,11.281,0,0,1,3.4-7.218c6.31-6.642,15.361-11.331,15.361-21.606-.013-9.715-6.933-14.849-13.405-14.849a11.634,11.634,0,0,0-8.587,3.824c-1.53,1.51-2.193,3.2-2.784,3.2s-1.235-1.694-2.757-3.2a11.663,11.663,0,0,0-8.587-3.824c-6.421,0-13.384,5.12-13.384,14.822,0,10.268,9.046,14.954,15.361,21.606a11.457,11.457,0,0,1,3.4,7.222c-.17,1.851-.956,1.912-1.314,1.891s-1.2-.354-1.8-2.625-1.235-3.939-3.532-4.1c-2.56-.157-3.229,3.361-3.453,6.157-.191,2.4-.249,6.92-1.147,6.564-.526-.224-.788-5.4-1.22-9.369-.329-3.073-.734-9.637-2.52-10.8-2.166-1.417-4.069.17-4.662,2.692-.446,1.878-.512,3.442-1.076,5.96-.421,1.878-.893,3.059-2.717,3.059H100v2.757h1.2c6.642.275,8.509-.407,9.308-3.4a65.33,65.33,0,0,0,1.147-6.564c.237-1.314,1.038-1.956,1.392,1.667.17,1.8.342,4.1.618,6.421.815,6.853,1.025,11.593,4.015,11.816,3.321.289,3.348-5.816,3.572-8.231.132-1.53.329-5.927,1.1-5.449,1.076.642.669,6.157,5.776,6.38,2.927.145,4-2.075,4.206-4.543s-2.034-5.763-5.055-8.73c-7.266-7.155-12.329-10.845-12.329-18.721s5.606-12.046,10.5-12.046c1.076,0,4.384-.191,8.377,6.275a.88.88,0,0,0,1.53,0c3.939-6.459,7.287-6.275,8.377-6.275,4.9,0,10.5,3.939,10.5,12.046s-5.107,11.409-12.329,18.564c-3.006,2.968-5.067,6.564-5.015,8.927s1.314,4.686,4.206,4.543c4.937-.224,4.662-4.268,5.671-6.459.551-1.168,1.314-1.168,1.432.591s.191,2.377.382,4.254c.237,2.415,1.1,5.134,3.283,4.923,1.878-.191,2.954-1.314,3.308-4.818.092-1.011.17-1.47.3-2.941.078-.839.329-1.47.7-1.314s.709.985.956,1.562a3.011,3.011,0,0,0,2.981,1.654H167.8v-2.757c-3.006,0-6.985,0-7.878-.092m26.428-36.025c3.191,0,5.015,1.824,5.015,3.939a2.992,2.992,0,0,1-2.52,3.216c-.512.145-.574.723,0,.815a3.549,3.549,0,0,1,3.111,3.807,4.526,4.526,0,0,1-5,4.122h-7.3v-15.9h6.692Zm-3.742,13.365h3.939c1.484,0,2.337-.656,2.337-1.912,0-1.549-1.457-1.8-2.547-2.31a1.53,1.53,0,0,1,0-2.868c.906-.382,1.983-.631,2.01-2.021,0-1.09-.788-1.786-2.166-1.786H182.6v10.9Zm13.732-8.323V163.9a3.864,3.864,0,0,1,3.335-1.417v2.7c-2.061,0-3.086.946-3.086,2.625v5.736h-2.981V162.692Zm7.813,0v10.8h-2.981v-10.8Zm9.966,8.954a3.472,3.472,0,0,1-3.283,2.075c-.1,0-.191.015-.291.015a3.021,3.021,0,0,1-3.006-3.006,1.868,1.868,0,0,1,.015-.291v-5.317h-1.786v-2.428h1.786v-3.61h2.914v3.61h2.468v2.428H210.5v5.331c0,.574.249.839.631.839s.631-.237.971-.853l.289-.551,2.01,1.128-.275.631Zm4.346-8.954v10.8h-2.927v-10.8Zm4.91,7.719c0,.574.656.853,1.64.853s1.53-.316,1.53-.906c0-2-5.606-.669-5.606-4.543,0-1.956,1.667-3.283,4.451-3.283a5.252,5.252,0,0,1,3.939,1.53l-1.457,1.786a3.5,3.5,0,0,0-2.428-1c-1.1,0-1.53.382-1.53.866,0,1.681,5.633.734,5.633,4.516,0,2.115-1.759,3.442-4.57,3.442-2.625,0-4.465-1.117-4.465-2.968a3.06,3.06,0,0,1,.5-1.616l2.547.853a1.11,1.11,0,0,0-.2.474Zm18.078-3.872c0,.893-.224,2.048-.224,3.5a13.115,13.115,0,0,0,.445,3.453h-2.927a12.616,12.616,0,0,1-.446-3.361c0-1.314.191-2.312.191-3.086a1.788,1.788,0,0,0,.023-.281,1.834,1.834,0,0,0-1.824-1.824,1.863,1.863,0,0,0-.258.019l-.218-.011a2.325,2.325,0,0,0-2.294,2.637v5.973h-2.952V157.309h2.889v6.564a4.166,4.166,0,0,1,3.308-1.405c.111,0,.22-.015.331-.015a3.958,3.958,0,0,1,3.939,3.939Zm20.927-8.887V173.5h-2.994v-7.046h-1.943c-3.467,0-5.172,1.694-5.172,4.53v2.52h-3.006V157.655h3.006v8.231a7.809,7.809,0,0,1,5.619-1.956h1.484v-6.275h3.006Zm11.843,14.428a6.149,6.149,0,0,1-4.673,1.641c-.143.011-.287.019-.432.019a5.277,5.277,0,0,1-5.252-5.252q0-.174.012-.346v-.153a5.545,5.545,0,0,1,5.514-5.514h.317c2.914,0,4.254,1.721,4.254,3.491,0,2.954-3.633,3.939-6.985,3.939.382.88,1.168,1.314,2.625,1.314a4.954,4.954,0,0,0,3.189-1.09l1.432,1.943Zm-7.589-4.207c2.717,0,4.451-.434,4.451-1.759,0-.7-.472-1.208-1.576-1.208h-.042a2.849,2.849,0,0,0-2.836,2.836Zm16.595,5.633c-.157-.5-.289-.971-.407-1.47a4.348,4.348,0,0,1-3.69,1.694,3.379,3.379,0,0,1-3.834-3.361c0-1.983,1.314-3.164,4.818-3.25,1.038,0,2.1-.065,2.1-.92s-.618-1.208-1.912-1.208a2.747,2.747,0,0,0-2.428,1.117l-2.258-1.392a5.254,5.254,0,0,1,4.662-2.231c2.927,0,4.87,1.417,4.883,4.53a20.239,20.239,0,0,0,.774,6.486Zm-.75-3.361a6.517,6.517,0,0,0-.105-1.392,5.018,5.018,0,0,1-1.956.249c-.866,0-2.207.132-2.207,1.432h0a1.317,1.317,0,0,0,1.314,1.314h.119A3.692,3.692,0,0,0,282.485,170.145Zm7.681-7.444v1.208a3.86,3.86,0,0,1,3.283-1.417v2.7c-2.061,0-3.073.946-3.073,2.625v5.736h-2.927V162.7h2.717Zm12.631,8.954a3.473,3.473,0,0,1-3.283,2.075h-.222a3.034,3.034,0,0,1-3.019-3.019l.011-.27v-5.317h-1.8V162.7h1.8v-3.61h2.927v3.61h2.428v2.428h-2.428v5.331c0,.574.249.839.631.839s.631-.237.971-.853l.289-.551,2.01,1.128Zm-120.2,11.43v4.883a6.273,6.273,0,0,1,3.939-1.077h2.14v2.486h-2.625c-2.35,0-3.375,1.038-3.375,2.744v4.268h-3.033V180.634h9.912v2.486l-6.958-.052Zm7.266,7.983v-.21a5.8,5.8,0,1,1,5.858,5.8c-.128,0-.254.013-.382.013a5.5,5.5,0,0,1-5.476-5.474Zm8.639,0c0-1.983-1.05-3.178-2.836-3.178h-.121a2.8,2.8,0,0,0-2.784,2.784,2.752,2.752,0,0,0,.04.474c0,.09-.013.191-.013.273a2.868,2.868,0,0,0,5.725,0,1.8,1.8,0,0,0-.013-.273v-.078Zm4.373,1.511c0-.893.224-2.061.224-3.48a12.98,12.98,0,0,0-.446-3.466h2.927a12.458,12.458,0,0,1,.445,3.375c0,1.314-.21,2.294-.21,3.059,0,1.314.618,2.088,1.943,2.088l.233.012a2.335,2.335,0,0,0,2.323-2.323l-.011-.222v-5.99h2.927V196.4h-2.717v-1.182a4.744,4.744,0,0,1-3.583,1.417h-.2a3.866,3.866,0,0,1-3.847-3.847v-.216Zm22.945-3.1c0,.893-.224,2.048-.224,3.5a13.124,13.124,0,0,0,.446,3.453h-2.927a12.618,12.618,0,0,1-.446-3.361c0-1.314.191-2.323.191-3.086a1.77,1.77,0,0,0,.021-.279,1.834,1.834,0,0,0-1.824-1.824,1.98,1.98,0,0,0-.245.017h-.21a2.335,2.335,0,0,0-2.323,2.323l.013.245V196.4h-2.868V185.63h2.625v1.182a4.928,4.928,0,0,1,3.467-1.392c.124-.011.247-.017.371-.017a3.958,3.958,0,0,1,3.939,3.939v.136Zm10.608,6.92a7.4,7.4,0,0,1-.289-1.444,4.336,4.336,0,0,1-3.65,1.721h-.013a5.277,5.277,0,0,1-5.252-5.252,3.364,3.364,0,0,1,.013-.367v-.145a5.514,5.514,0,0,1,5.476-5.488,3.935,3.935,0,0,1,2.744,1v-6.17h2.973v9.073a29.566,29.566,0,0,0,.788,7.117Zm-.839-5.409c0-2.01-1.076-3.124-2.744-3.124s-2.717,1.117-2.717,3.124,1.05,3.124,2.717,3.124a2.7,2.7,0,0,0,2.784-3.086Zm12.893,5.409a15.2,15.2,0,0,1-.394-1.47,4.375,4.375,0,0,1-3.7,1.694,3.373,3.373,0,0,1-3.824-3.361c0-1.983,1.314-3.164,4.818-3.25,1.038,0,2.088-.065,2.088-.92s-.6-1.22-1.912-1.22A2.784,2.784,0,0,0,243.116,189l-2.245-1.392a5.254,5.254,0,0,1,4.662-2.231,4.273,4.273,0,0,1,4.883,4.53,20.265,20.265,0,0,0,.765,6.486Zm-.734-3.426a13.59,13.59,0,0,0-.119-1.392,4.758,4.758,0,0,1-1.956.237c-.853,0-2.206.145-2.206,1.444h0a1.317,1.317,0,0,0,1.314,1.314h.132a3.694,3.694,0,0,0,2.836-1.562Zm12.734,1.616a3.472,3.472,0,0,1-3.283,2.075h-.224a3.021,3.021,0,0,1-3.006-3.006,1.963,1.963,0,0,1,.015-.3v-5.247h-1.8V185.63h1.8v-3.61h2.927v3.61h2.428v2.428h-2.428v5.331c0,.574.249.828.631.828s.631-.224.956-.853l.3-.537,2,1.128Zm1.22-11.881a1.769,1.769,0,0,1,1.759-1.759h.153a1.759,1.759,0,1,1,0,3.518h-.153a1.769,1.769,0,0,1-1.759-1.746Zm3.178,2.927V196.4H261.95V185.63Zm1.983,5.436v-.191a5.79,5.79,0,1,1,5.807,5.79l-.329.011a5.5,5.5,0,0,1-5.474-5.474v-.128Zm8.639,0c0-1.983-1.063-3.178-2.836-3.178h-.12a2.8,2.8,0,0,0-2.784,2.784,2.753,2.753,0,0,0,.04.474c0,.09-.013.191-.013.273a2.868,2.868,0,1,0,5.725,0,1.809,1.809,0,0,0-.013-.273v-.078Zm15.348-1.589c0,.893-.224,2.048-.224,3.5a13.125,13.125,0,0,0,.445,3.453h-2.927a13.086,13.086,0,0,1-.445-3.361c0-1.314.21-2.323.21-3.086a1.777,1.777,0,0,0,.021-.279,1.834,1.834,0,0,0-1.824-1.824,1.982,1.982,0,0,0-.245.017h-.21a2.335,2.335,0,0,0-2.323,2.323l.013.245V196.4h-2.927V185.63h2.717v1.182a4.928,4.928,0,0,1,3.467-1.392c.105,0,.212-.013.317-.013a3.958,3.958,0,0,1,3.939,3.939v.132Z" transform="translate(481.37 1795.852)" fill="#ff0037" fill-rule="evenodd"/>
    </g>
  </g>
</svg>
