<svg xmlns="http://www.w3.org/2000/svg" width="88.529" height="37.688" viewBox="0 0 88.529 37.688">
  <g id="Group_86" data-name="Group 86" transform="translate(-210.34 -9.177)">
    <path id="bhf_copy" data-name="bhf copy" d="M126.1,169.344c-.641-.046-.469-1.545-1.825-1.379-.962.114-1.064,1.259-1.144,2.152-.1,1-.212,1.843-.5,1.717s-.183-.573-.292-1.963c-.12-1.591-.509-2.466-1.459-2.621-1.144-.183-1.608,1.568-1.808,2.25s-.573.984-.773.984-.515-.092-.607-.893a4.917,4.917,0,0,1,1.48-3.146c2.75-2.9,6.7-4.939,6.7-9.417-.006-4.234-3.022-6.472-5.843-6.472a5.071,5.071,0,0,0-3.743,1.667c-.667.658-.956,1.4-1.213,1.4s-.538-.738-1.2-1.4a5.084,5.084,0,0,0-3.743-1.667c-2.8,0-5.834,2.232-5.834,6.46,0,4.475,3.943,6.518,6.7,9.417a4.994,4.994,0,0,1,1.483,3.148c-.074.807-.417.833-.573.824s-.521-.154-.784-1.144-.538-1.717-1.539-1.785c-1.116-.068-1.408,1.465-1.505,2.684-.083,1.048-.108,3.016-.5,2.861-.229-.1-.343-2.352-.532-4.084-.143-1.339-.32-4.2-1.1-4.709-.944-.618-1.773.074-2.032,1.173-.194.818-.223,1.5-.469,2.6-.183.818-.389,1.333-1.184,1.333H100v1.2h.521c2.9.12,3.709-.178,4.057-1.483a28.473,28.473,0,0,0,.5-2.861c.1-.573.453-.853.607.727.074.784.149,1.785.269,2.8.355,2.987.447,5.053,1.75,5.15,1.448.126,1.459-2.535,1.557-3.588.058-.667.143-2.584.481-2.375.469.28.292,2.684,2.518,2.781,1.276.063,1.745-.9,1.833-1.98s-.887-2.512-2.2-3.805c-3.167-3.119-5.374-4.727-5.374-8.16s2.443-5.25,4.578-5.25c.469,0,1.911-.083,3.651,2.735a.383.383,0,0,0,.667,0c1.717-2.815,3.176-2.735,3.651-2.735,2.134,0,4.578,1.717,4.578,5.25s-2.226,4.973-5.374,8.091c-1.31,1.293-2.208,2.861-2.186,3.891s.573,2.043,1.833,1.98c2.152-.1,2.032-1.86,2.472-2.815.24-.509.573-.509.624.258s.083,1.036.167,1.854c.1,1.053.481,2.238,1.431,2.146.818-.083,1.288-.573,1.442-2.1.04-.441.074-.641.132-1.282.034-.366.143-.641.3-.573s.309.429.417.681a1.313,1.313,0,0,0,1.3.721h3.354v-1.2c-1.31,0-3.044,0-3.434-.04m11.519-15.7c1.391,0,2.186.8,2.186,1.717a1.3,1.3,0,0,1-1.1,1.4c-.223.063-.25.315,0,.355a1.547,1.547,0,0,1,1.356,1.659,1.973,1.973,0,0,1-2.18,1.8h-3.182v-6.93h2.917Zm-1.631,5.825h1.717c.647,0,1.018-.286,1.018-.833,0-.675-.635-.784-1.11-1.007a.667.667,0,0,1,0-1.25c.4-.167.864-.275.876-.881,0-.475-.343-.778-.944-.778H136v4.75Zm5.985-3.628v.527a1.684,1.684,0,0,1,1.453-.618v1.178c-.9,0-1.345.413-1.345,1.144v2.5h-1.3v-4.732Zm2.026-1.276a.619.619,0,1,1-.006,0Zm1.379,1.276v4.709h-1.3v-4.709Zm4.344,3.9a1.513,1.513,0,0,1-1.431.9c-.042,0-.083.007-.127.007a1.317,1.317,0,0,1-1.31-1.31.814.814,0,0,1,.007-.127V156.9H146.1v-1.058h.778v-1.573h1.27v1.573h1.076V156.9h-1.064v2.323c0,.25.108.366.275.366s.275-.1.423-.372l.126-.24.876.492-.12.275Zm.515-5.179a.764.764,0,1,1,.761.767.764.764,0,0,1-.761-.767Zm1.379,1.276v4.709h-1.276v-4.709Zm2.14,3.364c0,.25.286.372.715.372s.667-.138.667-.4c0-.87-2.443-.292-2.443-1.98,0-.853.727-1.431,1.94-1.431a2.289,2.289,0,0,1,1.717.667l-.635.778a1.523,1.523,0,0,0-1.058-.435c-.481,0-.667.167-.667.378,0,.733,2.455.32,2.455,1.968,0,.922-.767,1.5-1.992,1.5-1.144,0-1.946-.487-1.946-1.293a1.333,1.333,0,0,1,.218-.7l1.11.372a.483.483,0,0,0-.086.207Zm7.88-1.688c0,.389-.1.893-.1,1.528a5.716,5.716,0,0,0,.194,1.505h-1.276a5.5,5.5,0,0,1-.194-1.465c0-.573.083-1.008.083-1.345a.781.781,0,0,0,.01-.123.8.8,0,0,0-.8-.8.81.81,0,0,0-.113.008l-.095,0a1.013,1.013,0,0,0-1,1.149v2.6h-1.287V153.5h1.259v2.861a1.816,1.816,0,0,1,1.442-.613c.048,0,.1-.007.144-.007a1.725,1.725,0,0,1,1.717,1.717Zm9.121-3.874v6.907h-1.305v-3.071h-.847c-1.511,0-2.254.738-2.254,1.974v1.1h-1.31V153.65h1.31v3.588a3.4,3.4,0,0,1,2.449-.853h.647V153.65h1.31Zm5.162,6.289a2.68,2.68,0,0,1-2.037.715c-.062,0-.125.008-.188.008a2.3,2.3,0,0,1-2.289-2.289q0-.076.005-.151v-.067a2.417,2.417,0,0,1,2.4-2.4h.138c1.27,0,1.854.75,1.854,1.522,0,1.288-1.583,1.717-3.044,1.717.167.383.509.573,1.144.573a2.159,2.159,0,0,0,1.39-.475l.624.847Zm-3.308-1.833c1.184,0,1.94-.189,1.94-.767,0-.3-.206-.527-.687-.527h-.018a1.242,1.242,0,0,0-1.236,1.236Zm7.233,2.455c-.068-.218-.126-.423-.177-.641a1.9,1.9,0,0,1-1.608.738,1.473,1.473,0,0,1-1.671-1.465c0-.864.573-1.379,2.1-1.417.453,0,.917-.028.917-.4s-.269-.527-.833-.527a1.2,1.2,0,0,0-1.058.487l-.984-.607a2.29,2.29,0,0,1,2.032-.973,1.86,1.86,0,0,1,2.128,1.974,8.821,8.821,0,0,0,.338,2.827Zm-.327-1.465a2.842,2.842,0,0,0-.046-.607,2.187,2.187,0,0,1-.853.108c-.378,0-.962.057-.962.624h0a.574.574,0,0,0,.573.573h.052A1.609,1.609,0,0,0,179.539,159.094Zm3.348-3.244v.527a1.683,1.683,0,0,1,1.431-.618v1.178c-.9,0-1.339.413-1.339,1.144v2.5H181.7V155.85h1.184Zm5.505,3.9a1.514,1.514,0,0,1-1.431.9h-.1a1.323,1.323,0,0,1-1.316-1.316l.005-.118v-2.318h-.784v-1.058h.784v-1.573h1.276v1.573h1.058v1.058h-1.058v2.323c0,.25.108.366.275.366s.275-.1.423-.372l.126-.24.876.492ZM136,164.734v2.128a2.734,2.734,0,0,1,1.717-.469h.933v1.083h-1.144c-1.024,0-1.471.453-1.471,1.2v1.86h-1.322v-6.867h4.32v1.083L136,164.727Zm3.167,3.479v-.092a2.529,2.529,0,1,1,2.553,2.529c-.056,0-.111.006-.167.006a2.4,2.4,0,0,1-2.387-2.386Zm3.765,0c0-.864-.458-1.385-1.236-1.385h-.053a1.219,1.219,0,0,0-1.213,1.213,1.2,1.2,0,0,0,.017.207c0,.039-.006.083-.006.119a1.25,1.25,0,0,0,2.5,0,.784.784,0,0,0-.006-.119v-.034Zm1.906.658c0-.389.1-.9.1-1.517a5.658,5.658,0,0,0-.194-1.511h1.276a5.431,5.431,0,0,1,.194,1.471c0,.573-.092,1-.092,1.333,0,.573.269.91.847.91l.1.005a1.018,1.018,0,0,0,1.013-1.013l-.005-.1v-2.611h1.276v4.692H148.17v-.515a2.068,2.068,0,0,1-1.562.618h-.089a1.685,1.685,0,0,1-1.677-1.677v-.094Zm10-1.35c0,.389-.1.893-.1,1.528a5.72,5.72,0,0,0,.194,1.505h-1.276a5.5,5.5,0,0,1-.194-1.465c0-.573.083-1.013.083-1.345a.774.774,0,0,0,.009-.122.8.8,0,0,0-.8-.8.863.863,0,0,0-.107.008h-.092a1.018,1.018,0,0,0-1.013,1.013l.006.107v2.584h-1.25v-4.695h1.144v.515a2.148,2.148,0,0,1,1.511-.607c.054,0,.107-.007.162-.007a1.725,1.725,0,0,1,1.717,1.717v.059Zm4.624,3.016a3.225,3.225,0,0,1-.126-.629,1.89,1.89,0,0,1-1.591.75h-.006a2.3,2.3,0,0,1-2.289-2.289,1.468,1.468,0,0,1,.006-.16v-.063a2.4,2.4,0,0,1,2.387-2.392,1.715,1.715,0,0,1,1.2.435V163.5h1.3v3.954a12.887,12.887,0,0,0,.343,3.1Zm-.366-2.358c0-.876-.469-1.362-1.2-1.362s-1.184.487-1.184,1.362.458,1.362,1.184,1.362a1.177,1.177,0,0,0,1.213-1.345Zm5.62,2.358a6.629,6.629,0,0,1-.172-.641,1.907,1.907,0,0,1-1.613.738,1.47,1.47,0,0,1-1.667-1.465c0-.864.573-1.379,2.1-1.417.453,0,.91-.028.91-.4s-.263-.532-.833-.532a1.213,1.213,0,0,0-1.064.492l-.978-.607a2.29,2.29,0,0,1,2.032-.973,1.863,1.863,0,0,1,2.128,1.974,8.833,8.833,0,0,0,.333,2.827Zm-.32-1.493a5.92,5.92,0,0,0-.052-.607,2.074,2.074,0,0,1-.853.1c-.372,0-.962.063-.962.629h0a.574.574,0,0,0,.573.573h.057a1.61,1.61,0,0,0,1.236-.681Zm5.55.7a1.513,1.513,0,0,1-1.431.9h-.1a1.317,1.317,0,0,1-1.31-1.31.857.857,0,0,1,.007-.129v-2.287h-.784v-1.083h.784V164.27h1.276v1.573h1.058V166.9h-1.058v2.323c0,.25.108.361.275.361s.275-.1.417-.372l.132-.234.87.492Zm.532-5.179a.771.771,0,0,1,.767-.767h.067a.767.767,0,0,1,0,1.533h-.067a.771.771,0,0,1-.767-.761Zm1.385,1.276v4.692h-1.278v-4.694Zm.864,2.369v-.083a2.524,2.524,0,1,1,2.531,2.523l-.143.005a2.4,2.4,0,0,1-2.386-2.386v-.056Zm3.765,0c0-.864-.463-1.385-1.236-1.385h-.053a1.219,1.219,0,0,0-1.213,1.213,1.2,1.2,0,0,0,.018.207c0,.039-.006.083-.006.119a1.25,1.25,0,1,0,2.5,0,.792.792,0,0,0-.006-.119v-.034Zm6.69-.693c0,.389-.1.893-.1,1.528a5.72,5.72,0,0,0,.194,1.505h-1.276a5.7,5.7,0,0,1-.194-1.465c0-.573.092-1.013.092-1.345a.773.773,0,0,0,.009-.122.8.8,0,0,0-.8-.8.863.863,0,0,0-.107.008h-.092a1.018,1.018,0,0,0-1.013,1.013l.006.107v2.584h-1.276v-4.7h1.184v.515a2.148,2.148,0,0,1,1.511-.607c.046,0,.093-.006.138-.006a1.725,1.725,0,0,1,1.717,1.717v.058Z" transform="translate(110.34 -128.005)" fill="#ef0c2d" fill-rule="evenodd"/>
    <path id="Path_1370" data-name="Path 1370" d="M4.085-4.311a1.925,1.925,0,0,1,.606,1.45,1.939,1.939,0,0,1-.606,1.455,2.1,2.1,0,0,1-1.519.584H1.79V1.157H.553V-4.9H2.566A2.091,2.091,0,0,1,4.085-4.311ZM3.232-2.229a.84.84,0,0,0,.256-.631.84.84,0,0,0-.256-.631.94.94,0,0,0-.682-.247H1.79v1.757h.759A.94.94,0,0,0,3.232-2.229ZM5.4,1.157V-3.108H6.567v.682a1.071,1.071,0,0,1,.405-.525,1.1,1.1,0,0,1,.653-.209,1.368,1.368,0,0,1,.392.051v1.186a1.676,1.676,0,0,0-.529-.094.827.827,0,0,0-.67.3,1.263,1.263,0,0,0-.252.832V1.157ZM12.164.611a2.191,2.191,0,0,1-1.587.64A2.184,2.184,0,0,1,8.99.607,2.13,2.13,0,0,1,8.333-.975,2.134,2.134,0,0,1,8.99-2.554,2.176,2.176,0,0,1,10.577-3.2a2.176,2.176,0,0,1,1.587.648,2.134,2.134,0,0,1,.657,1.578A2.144,2.144,0,0,1,12.164.611ZM10.577.159a1,1,0,0,0,.755-.32,1.137,1.137,0,0,0,.3-.815,1.137,1.137,0,0,0-.3-.815,1,1,0,0,0-.755-.32,1.007,1.007,0,0,0-.764.32,1.137,1.137,0,0,0-.3.815,1.137,1.137,0,0,0,.3.815A1.007,1.007,0,0,0,10.577.159Zm4.641,1.092A1.447,1.447,0,0,1,14.036.739a2.092,2.092,0,0,1-.422-1.373V-3.108h1.169V-.83q0,1.015.725,1.015a.766.766,0,0,0,.644-.307,1.473,1.473,0,0,0,.235-.9V-3.108h1.169V1.157H16.387V.671A1.318,1.318,0,0,1,15.218,1.251Zm5.2,0A1.828,1.828,0,0,1,18.989.594a2.291,2.291,0,0,1-.58-1.57,2.291,2.291,0,0,1,.58-1.57A1.828,1.828,0,0,1,20.413-3.2a1.551,1.551,0,0,1,.734.171,1.43,1.43,0,0,1,.495.4V-5.241h1.169v6.4H21.642V.68a1.43,1.43,0,0,1-.495.4A1.551,1.551,0,0,1,20.413,1.251ZM19.876-.139a1.017,1.017,0,0,0,.785.324,1,1,0,0,0,.781-.324,1.2,1.2,0,0,0,.294-.836,1.2,1.2,0,0,0-.294-.836,1,1,0,0,0-.781-.324,1,1,0,0,0-.781.324,1.2,1.2,0,0,0-.294.836A1.206,1.206,0,0,0,19.876-.139Zm4.069,1.3v-6.4h1.169v6.4ZM27.861,2.94H26.59l.9-2.022L25.694-3.108h1.28L28.117-.344l1.135-2.764H30.54ZM34.916,1.26A2.331,2.331,0,0,1,33.253.667a1.968,1.968,0,0,1-.665-1.386h1.237a.922.922,0,0,0,.367.619,1.2,1.2,0,0,0,.725.218,1.068,1.068,0,0,0,.623-.166A.519.519,0,0,0,35.778-.5q0-.5-.81-.734l-.64-.188a2.465,2.465,0,0,1-1.16-.665,1.628,1.628,0,0,1-.427-1.126A1.646,1.646,0,0,1,33.3-4.52,2.17,2.17,0,0,1,34.771-5a2.086,2.086,0,0,1,1.51.559A1.864,1.864,0,0,1,36.9-3.159H35.667a.884.884,0,0,0-.341-.529.954.954,0,0,0-.555-.171.967.967,0,0,0-.559.149.5.5,0,0,0-.226.414.547.547,0,0,0,.179.444,1.449,1.449,0,0,0,.58.282l.708.2A1.825,1.825,0,0,1,37.023-.54,1.636,1.636,0,0,1,36.439.752,2.239,2.239,0,0,1,34.916,1.26Zm4.5-.009A1.447,1.447,0,0,1,38.239.739a2.092,2.092,0,0,1-.422-1.373V-3.108h1.169V-.83q0,1.015.725,1.015a.766.766,0,0,0,.644-.307,1.473,1.473,0,0,0,.235-.9V-3.108h1.169V1.157H40.589V.671A1.318,1.318,0,0,1,39.42,1.251ZM44.053,2.94H42.884V-3.108h1.169v.478a1.331,1.331,0,0,1,.495-.4A1.6,1.6,0,0,1,45.29-3.2a1.828,1.828,0,0,1,1.425.657,2.291,2.291,0,0,1,.58,1.57,2.291,2.291,0,0,1-.58,1.57,1.828,1.828,0,0,1-1.425.657,1.6,1.6,0,0,1-.742-.171,1.331,1.331,0,0,1-.495-.4Zm.2-3.08a1.017,1.017,0,0,0,.785.324,1,1,0,0,0,.781-.324,1.2,1.2,0,0,0,.294-.836,1.2,1.2,0,0,0-.294-.836,1,1,0,0,0-.781-.324,1,1,0,0,0-.781.324,1.2,1.2,0,0,0-.294.836A1.207,1.207,0,0,0,44.249-.139Zm5.067,3.08H48.148V-3.108h1.169v.478a1.331,1.331,0,0,1,.495-.4,1.6,1.6,0,0,1,.742-.171,1.828,1.828,0,0,1,1.425.657,2.291,2.291,0,0,1,.58,1.57,2.291,2.291,0,0,1-.58,1.57,1.828,1.828,0,0,1-1.425.657,1.6,1.6,0,0,1-.742-.171,1.331,1.331,0,0,1-.495-.4Zm.2-3.08A1.017,1.017,0,0,0,50.3.185a1,1,0,0,0,.781-.324,1.2,1.2,0,0,0,.294-.836,1.2,1.2,0,0,0-.294-.836,1,1,0,0,0-.781-.324,1,1,0,0,0-.781.324,1.2,1.2,0,0,0-.294.836A1.207,1.207,0,0,0,49.513-.139ZM56.96.611a2.191,2.191,0,0,1-1.587.64A2.184,2.184,0,0,1,53.787.607,2.13,2.13,0,0,1,53.13-.975a2.134,2.134,0,0,1,.657-1.578A2.176,2.176,0,0,1,55.374-3.2a2.176,2.176,0,0,1,1.587.648,2.134,2.134,0,0,1,.657,1.578A2.144,2.144,0,0,1,56.96.611ZM55.374.159a1,1,0,0,0,.755-.32,1.137,1.137,0,0,0,.3-.815,1.137,1.137,0,0,0-.3-.815,1,1,0,0,0-.755-.32,1.007,1.007,0,0,0-.764.32,1.137,1.137,0,0,0-.3.815,1.137,1.137,0,0,0,.3.815A1.007,1.007,0,0,0,55.374.159Zm3.088,1V-3.108h1.169v.682a1.07,1.07,0,0,1,.405-.525,1.1,1.1,0,0,1,.653-.209,1.368,1.368,0,0,1,.392.051v1.186a1.676,1.676,0,0,0-.529-.094.827.827,0,0,0-.67.3,1.263,1.263,0,0,0-.252.832V1.157Zm5.434.051a1.724,1.724,0,0,1-1.173-.4,1.438,1.438,0,0,1-.456-1.147V-2.084h-.862V-3.108h.862V-4.294h1.169v1.186h1.2v1.024h-1.2V-.566a.759.759,0,0,0,.171.559.774.774,0,0,0,.555.166,1.358,1.358,0,0,0,.478-.077V1.115A2.562,2.562,0,0,1,63.9,1.209Zm2.158-5.016a.719.719,0,0,1-.52-.218.708.708,0,0,1-.222-.525.708.708,0,0,1,.222-.525.719.719,0,0,1,.52-.218.725.725,0,0,1,.533.218.715.715,0,0,1,.218.525.715.715,0,0,1-.218.525A.725.725,0,0,1,66.054-3.808Zm-.58,4.965V-3.108h1.169V1.157Zm2.295,0V-3.108h1.169v.486a1.369,1.369,0,0,1,1.22-.58,1.513,1.513,0,0,1,1.207.508A1.994,1.994,0,0,1,71.8-1.342v2.5H70.636v-2.3a1.19,1.19,0,0,0-.2-.729.654.654,0,0,0-.555-.26.856.856,0,0,0-.687.307,1.367,1.367,0,0,0-.26.9V1.157Zm7.1,1.868a2.244,2.244,0,0,1-1.45-.452,1.629,1.629,0,0,1-.631-1.152h1.143a.917.917,0,0,0,.964.631.957.957,0,0,0,.687-.264.977.977,0,0,0,.277-.742v-.5a1.3,1.3,0,0,1-.512.405,1.67,1.67,0,0,1-.725.158A1.883,1.883,0,0,1,73.195.479a2.144,2.144,0,0,1-.589-1.523,2.154,2.154,0,0,1,.589-1.531A1.883,1.883,0,0,1,74.62-3.2a1.662,1.662,0,0,1,.729.158,1.278,1.278,0,0,1,.508.414v-.478h1.169v4A1.992,1.992,0,0,1,76.407,2.5,2.3,2.3,0,0,1,74.867,3.026ZM74.1-.259a1.06,1.06,0,0,0,.768.307,1.06,1.06,0,0,0,.768-.307,1.048,1.048,0,0,0,.316-.785,1.048,1.048,0,0,0-.316-.785,1.06,1.06,0,0,0-.768-.307,1.06,1.06,0,0,0-.768.307,1.048,1.048,0,0,0-.316.785A1.048,1.048,0,0,0,74.1-.259Z" transform="translate(213.42 14.469)" fill="#212923"/>
  </g>
</svg>
