<svg xmlns="http://www.w3.org/2000/svg" width="159" height="73" viewBox="0 0 159 73">
  <g id="Group_1690" data-name="Group 1690" transform="translate(-562 -5610)">
    <rect id="Rectangle_3160" data-name="Rectangle 3160" width="159" height="73" transform="translate(562 5610)" fill="#fff"/>
    <path id="bhf" d="M136.87,177.1c-.906-.065-.663-2.183-2.579-1.949-1.358.162-1.5,1.779-1.617,3.04-.138,1.407-.3,2.6-.712,2.426s-.259-.808-.412-2.773c-.17-2.248-.719-3.485-2.062-3.7-1.617-.259-2.272,2.215-2.555,3.177s-.808,1.391-1.092,1.391-.728-.129-.857-1.261.808-3.08,2.094-4.447c3.881-4.091,9.46-6.977,9.46-13.3-.008-5.983-4.269-9.144-8.255-9.144A7.166,7.166,0,0,0,123,152.914c-.946.93-1.35,1.973-1.714,1.973s-.76-1.043-1.7-1.973a7.18,7.18,0,0,0-5.288-2.353c-3.954,0-8.247,3.153-8.247,9.128,0,6.323,5.571,9.209,9.46,13.3,1.285,1.366,2.2,3.307,2.094,4.447s-.59,1.172-.808,1.164-.736-.218-1.108-1.617-.76-2.426-2.175-2.523c-1.577-.1-1.989,2.07-2.126,3.792-.113,1.48-.154,4.261-.712,4.042-.323-.138-.485-3.323-.752-5.765-.2-1.892-.453-5.934-1.552-6.654-1.334-.873-2.506.105-2.87,1.658-.275,1.156-.315,2.118-.663,3.671-.259,1.156-.55,1.884-1.673,1.884H100v1.7h.736c4.091.17,5.239-.25,5.732-2.094a40.231,40.231,0,0,0,.7-4.042c.146-.808.639-1.2.857,1.027.105,1.108.21,2.523.38,3.954.5,4.22.631,7.139,2.474,7.277,2.046.178,2.062-3.582,2.2-5.069.081-.946.2-3.646.679-3.355.663.4.412,3.792,3.557,3.929,1.8.089,2.466-1.277,2.587-2.8s-1.253-3.549-3.113-5.377c-4.479-4.406-7.592-6.678-7.592-11.529s3.452-7.422,6.468-7.422c.663,0,2.7-.113,5.158,3.865a.541.541,0,0,0,.938,0c2.426-3.978,4.487-3.865,5.158-3.865,3.016,0,6.468,2.426,6.468,7.422s-3.145,7.026-7.592,11.432c-1.851,1.827-3.121,4.042-3.088,5.5s.808,2.886,2.587,2.8c3.04-.138,2.87-2.628,3.493-3.978.339-.719.808-.719.881.364s.113,1.463.235,2.619c.146,1.488.679,3.161,2.021,3.032,1.156-.113,1.819-.808,2.038-2.967.057-.623.105-.906.186-1.811.049-.517.2-.906.428-.808s.437.606.59.962a1.854,1.854,0,0,0,1.835,1.019h4.738v-1.7c-1.851,0-4.3,0-4.851-.057m16.275-22.185c1.965,0,3.088,1.124,3.088,2.426a1.843,1.843,0,0,1-1.552,1.981c-.315.089-.348.445,0,.5a2.185,2.185,0,0,1,1.916,2.345c0,1.52-1.407,2.539-3.081,2.539h-4.5v-9.791h4.123Zm-2.3,8.23h2.426c.914,0,1.439-.4,1.439-1.181,0-.954-.9-1.108-1.569-1.423a.938.938,0,0,1,0-1.763c.558-.235,1.221-.388,1.237-1.245,0-.671-.485-1.1-1.334-1.1h-2.2v6.711Zm8.457-5.126v.744a2.379,2.379,0,0,1,2.054-.873v1.665c-1.269,0-1.9.582-1.9,1.617v3.533h-1.835v-6.686Zm2.862-1.8a1.079,1.079,0,1,1,1.075,1.084A1.089,1.089,0,0,1,162.186,156.228Zm1.949,1.8v6.654H162.3v-6.654Zm6.137,5.514a2.138,2.138,0,0,1-2.021,1.277c-.059.006-.119.009-.179.009a1.86,1.86,0,0,1-1.851-1.851c0-.06,0-.119.009-.179v-3.274h-1.1v-1.5h1.1v-2.223h1.795v2.223h1.52v1.5h-1.5v3.283c0,.348.154.517.388.517s.388-.146.6-.526l.178-.339,1.237.7-.17.388Zm.728-7.317a1.079,1.079,0,1,1,1.075,1.084A1.089,1.089,0,0,1,171,156.228Zm1.949,1.8v6.654h-1.8v-6.654Zm3.024,4.754c0,.348.4.526,1.011.526s.946-.194.946-.558c0-1.229-3.452-.412-3.452-2.8,0-1.2,1.027-2.021,2.741-2.021a3.235,3.235,0,0,1,2.426.938l-.9,1.1a2.152,2.152,0,0,0-1.5-.615c-.679,0-.946.235-.946.534,0,1.035,3.469.453,3.469,2.781,0,1.3-1.084,2.118-2.814,2.118-1.617,0-2.749-.687-2.749-1.827a1.879,1.879,0,0,1,.307-.995l1.569.526a.683.683,0,0,0-.113.291ZM187.1,160.4c0,.55-.138,1.261-.138,2.159a8.079,8.079,0,0,0,.275,2.126h-1.8a7.769,7.769,0,0,1-.275-2.07c0-.808.121-1.423.121-1.9a1.107,1.107,0,0,0,.014-.173,1.129,1.129,0,0,0-1.124-1.124,1.156,1.156,0,0,0-.159.011l-.134-.007a1.432,1.432,0,0,0-1.418,1.623v3.679h-1.8V154.717h1.779v4.042a2.565,2.565,0,0,1,2.038-.865c.068-.006.136-.009.2-.009a2.437,2.437,0,0,1,2.426,2.426Zm12.888-5.473v9.759h-1.843v-4.342h-1.2c-2.135,0-3.185,1.043-3.185,2.789v1.552h-1.851v-9.759h1.851V160a4.808,4.808,0,0,1,3.461-1.2h.914v-3.865h1.851Zm7.293,8.885a3.786,3.786,0,0,1-2.878,1.011c-.088.007-.177.011-.266.011a3.25,3.25,0,0,1-3.234-3.234q0-.107.007-.213l0-.094a3.412,3.412,0,0,1,3.4-3.4l.2.006c1.795,0,2.62,1.059,2.62,2.15,0,1.819-2.231,2.426-4.3,2.426.234.542.719.808,1.617.808a3.051,3.051,0,0,0,1.965-.671l.881,1.2Zm-4.673-2.6c1.673,0,2.741-.267,2.741-1.084,0-.428-.291-.744-.97-.744h-.026a1.755,1.755,0,0,0-1.746,1.746Zm10.219,3.469c-.1-.307-.178-.6-.25-.906a2.678,2.678,0,0,1-2.272,1.043,2.08,2.08,0,0,1-2.361-2.07c0-1.221.808-1.949,2.967-2,.639,0,1.294-.04,1.294-.566s-.38-.744-1.181-.744a1.692,1.692,0,0,0-1.5.687l-1.391-.857a3.236,3.236,0,0,1,2.87-1.374c1.8,0,3,.873,3.008,2.789a12.464,12.464,0,0,0,.477,3.994Zm-.461-2.07a4.014,4.014,0,0,0-.065-.857,3.09,3.09,0,0,1-1.2.154c-.534,0-1.358.081-1.358.881v0a.812.812,0,0,0,.808.808l.073,0a2.274,2.274,0,0,0,1.746-.986Zm4.73-4.584v.744a2.378,2.378,0,0,1,2.021-.873v1.665c-1.269,0-1.892.582-1.892,1.617v3.533h-1.8v-6.686H217.1Zm7.778,5.514a2.138,2.138,0,0,1-2.021,1.277l-.137,0a1.868,1.868,0,0,1-1.86-1.86l.007-.166v-3.274H219.76v-1.5h1.108v-2.223h1.8v2.223h1.5v1.5h-1.5v3.283c0,.348.154.517.388.517s.388-.146.6-.526l.178-.339,1.237.7Zm-74.011,7.042V173.6a3.863,3.863,0,0,1,2.426-.663h1.318v1.536h-1.617c-1.447,0-2.078.639-2.078,1.69v2.628h-1.868v-9.7h6.1v1.536l-4.285-.032Zm4.479,4.916,0-.129a3.573,3.573,0,1,1,3.608,3.573c-.078.006-.157.008-.235.008a3.387,3.387,0,0,1-3.372-3.372V175.5Zm5.32,0c0-1.221-.647-1.957-1.746-1.957l-.074,0a1.722,1.722,0,0,0-1.714,1.714,1.688,1.688,0,0,0,.025.293c-.006.056-.008.112-.008.169a1.762,1.762,0,1,0,3.525,0c0-.057,0-.113-.008-.169V175.5Zm2.692.93c0-.55.138-1.269.138-2.142a7.994,7.994,0,0,0-.275-2.134h1.8a7.675,7.675,0,0,1,.275,2.078c0,.808-.129,1.415-.129,1.884,0,.808.38,1.285,1.2,1.285l.144.007a1.438,1.438,0,0,0,1.431-1.431l-.007-.137v-3.687h1.8v6.63h-1.682v-.728a2.921,2.921,0,0,1-2.207.873l-.125,0a2.381,2.381,0,0,1-2.369-2.369l0-.133Zm14.125-1.908c0,.55-.138,1.261-.138,2.159a8.078,8.078,0,0,0,.275,2.126h-1.8a7.769,7.769,0,0,1-.275-2.07c0-.808.121-1.431.121-1.9a1.091,1.091,0,0,0,.013-.172,1.129,1.129,0,0,0-1.124-1.124,1.215,1.215,0,0,0-.15.01l-.129-.006a1.438,1.438,0,0,0-1.431,1.431l.008.151v3.654h-1.771v-6.63H172.7v.728a3.034,3.034,0,0,1,2.134-.857c.076-.007.152-.01.228-.01a2.437,2.437,0,0,1,2.426,2.426l0,.083Zm6.533,4.261a4.557,4.557,0,0,1-.178-.889,2.671,2.671,0,0,1-2.248,1.059h-.008a3.25,3.25,0,0,1-3.234-3.234c0-.075,0-.151.008-.227v-.089a3.4,3.4,0,0,1,3.372-3.38,2.423,2.423,0,0,1,1.69.615v-3.8h1.827v5.587a18.212,18.212,0,0,0,.485,4.382Zm-.517-3.331c0-1.237-.663-1.924-1.69-1.924s-1.673.687-1.673,1.924.647,1.924,1.673,1.924a1.662,1.662,0,0,0,1.714-1.9Zm7.939,3.331a9.368,9.368,0,0,1-.242-.906,2.7,2.7,0,0,1-2.28,1.043,2.077,2.077,0,0,1-2.353-2.07c0-1.221.808-1.949,2.967-2,.639,0,1.285-.04,1.285-.566s-.372-.752-1.172-.752a1.715,1.715,0,0,0-1.5.7l-1.383-.857a3.236,3.236,0,0,1,2.87-1.374c1.8,0,2.992.873,3.008,2.789a12.48,12.48,0,0,0,.469,3.994Zm-.453-2.11a8.364,8.364,0,0,0-.073-.857,2.931,2.931,0,0,1-1.2.146c-.526,0-1.358.089-1.358.889v0a.812.812,0,0,0,.808.808l.081,0a2.275,2.275,0,0,0,1.746-.962Zm7.842.995a2.138,2.138,0,0,1-2.021,1.277l-.138,0a1.86,1.86,0,0,1-1.851-1.851c0-.061,0-.122.009-.183v-3.234h-1.108v-1.528h1.108v-2.223h1.8v2.223h1.5v1.5h-1.5v3.283c0,.348.154.509.388.509s.388-.138.59-.526l.186-.331,1.229.7Zm.752-7.317a1.089,1.089,0,0,1,1.084-1.084l.094,0a1.084,1.084,0,0,1,0,2.167l-.094,0A1.089,1.089,0,0,1,199.579,170.354Zm1.957,1.8v6.63h-1.8v-6.63Zm1.221,3.347,0-.121a3.565,3.565,0,1,1,3.576,3.565l-.2.007a3.388,3.388,0,0,1-3.372-3.372V175.5Zm5.32,0c0-1.221-.655-1.957-1.746-1.957l-.074,0a1.722,1.722,0,0,0-1.714,1.714,1.688,1.688,0,0,0,.025.293c-.006.056-.008.112-.008.169a1.762,1.762,0,0,0,3.525,0c0-.057,0-.113-.008-.169V175.5Zm9.451-.978c0,.55-.138,1.261-.138,2.159a8.078,8.078,0,0,0,.275,2.126h-1.8a8.057,8.057,0,0,1-.275-2.07c0-.808.129-1.431.129-1.9a1.091,1.091,0,0,0,.013-.172,1.129,1.129,0,0,0-1.124-1.124,1.222,1.222,0,0,0-.15.01l-.129-.006a1.438,1.438,0,0,0-1.431,1.431l.008.151v3.654h-1.8v-6.63h1.673v.728a3.034,3.034,0,0,1,2.134-.857c.065,0,.13-.008.2-.008a2.438,2.438,0,0,1,2.426,2.426l0,.081Z" transform="translate(476.963 5487.541)" fill="#ef0c2d" fill-rule="evenodd"/>
    <path id="Path_1539" data-name="Path 1539" d="M5.916-7.692a2.708,2.708,0,0,1,.852,2.04,2.727,2.727,0,0,1-.852,2.046,2.954,2.954,0,0,1-2.136.822H2.688V0H.948V-8.52H3.78A2.942,2.942,0,0,1,5.916-7.692Zm-1.2,2.928a1.182,1.182,0,0,0,.36-.888,1.182,1.182,0,0,0-.36-.888,1.323,1.323,0,0,0-.96-.348H2.688v2.472H3.756A1.323,1.323,0,0,0,4.716-4.764ZM7.764,0V-6H9.408v.96a1.506,1.506,0,0,1,.57-.738,1.55,1.55,0,0,1,.918-.294A1.924,1.924,0,0,1,11.448-6v1.668a2.358,2.358,0,0,0-.744-.132,1.163,1.163,0,0,0-.942.426,1.777,1.777,0,0,0-.354,1.17V0ZM17.28-.768a3.082,3.082,0,0,1-2.232.9,3.072,3.072,0,0,1-2.232-.906A3,3,0,0,1,11.892-3a3,3,0,0,1,.924-2.22,3.061,3.061,0,0,1,2.232-.912,3.061,3.061,0,0,1,2.232.912A3,3,0,0,1,18.2-3,3.016,3.016,0,0,1,17.28-.768ZM15.048-1.4a1.4,1.4,0,0,0,1.062-.45A1.6,1.6,0,0,0,16.536-3a1.6,1.6,0,0,0-.426-1.146,1.4,1.4,0,0,0-1.062-.45,1.416,1.416,0,0,0-1.074.45A1.6,1.6,0,0,0,13.548-3a1.6,1.6,0,0,0,.426,1.146A1.416,1.416,0,0,0,15.048-1.4ZM21.576.132a2.035,2.035,0,0,1-1.662-.72A2.942,2.942,0,0,1,19.32-2.52V-6h1.644v3.2q0,1.428,1.02,1.428A1.078,1.078,0,0,0,22.89-1.8a2.072,2.072,0,0,0,.33-1.272V-6h1.644V0H23.22V-.684A1.854,1.854,0,0,1,21.576.132Zm7.308,0a2.572,2.572,0,0,1-2-.924A3.223,3.223,0,0,1,26.064-3a3.223,3.223,0,0,1,.816-2.208,2.572,2.572,0,0,1,2-.924,2.182,2.182,0,0,1,1.032.24,2.011,2.011,0,0,1,.7.564V-9h1.644V0H30.612V-.672a2.011,2.011,0,0,1-.7.564A2.182,2.182,0,0,1,28.884.132Zm-.756-1.956a1.43,1.43,0,0,0,1.1.456,1.411,1.411,0,0,0,1.1-.456A1.682,1.682,0,0,0,30.744-3a1.682,1.682,0,0,0-.414-1.176,1.411,1.411,0,0,0-1.1-.456,1.411,1.411,0,0,0-1.1.456A1.682,1.682,0,0,0,27.72-3,1.7,1.7,0,0,0,28.128-1.824Zm11.16,1.9a2.424,2.424,0,0,1-1.65-.558A2.023,2.023,0,0,1,37-2.1V-4.56H35.784V-6H37V-7.668H38.64V-6h1.692v1.44H38.64v2.136a1.068,1.068,0,0,0,.24.786,1.089,1.089,0,0,0,.78.234,1.91,1.91,0,0,0,.672-.108V-.06A3.6,3.6,0,0,1,39.288.072Zm7.128-.84a3.082,3.082,0,0,1-2.232.9,3.072,3.072,0,0,1-2.232-.906A3,3,0,0,1,41.028-3a3,3,0,0,1,.924-2.22,3.061,3.061,0,0,1,2.232-.912,3.061,3.061,0,0,1,2.232.912A3,3,0,0,1,47.34-3,3.016,3.016,0,0,1,46.416-.768ZM44.184-1.4a1.4,1.4,0,0,0,1.062-.45A1.6,1.6,0,0,0,45.672-3a1.6,1.6,0,0,0-.426-1.146,1.4,1.4,0,0,0-1.062-.45,1.416,1.416,0,0,0-1.074.45A1.6,1.6,0,0,0,42.684-3a1.6,1.6,0,0,0,.426,1.146A1.416,1.416,0,0,0,44.184-1.4ZM54.156.144a3.279,3.279,0,0,1-2.34-.834,2.769,2.769,0,0,1-.936-1.95h1.74a1.3,1.3,0,0,0,.516.87,1.685,1.685,0,0,0,1.02.306,1.5,1.5,0,0,0,.876-.234.73.73,0,0,0,.336-.63q0-.708-1.14-1.032l-.9-.264A3.467,3.467,0,0,1,51.7-4.56a2.29,2.29,0,0,1-.6-1.584,2.315,2.315,0,0,1,.78-1.842,3.053,3.053,0,0,1,2.076-.678,2.934,2.934,0,0,1,2.124.786,2.622,2.622,0,0,1,.864,1.806H55.212a1.244,1.244,0,0,0-.48-.744,1.342,1.342,0,0,0-.78-.24,1.36,1.36,0,0,0-.786.21.7.7,0,0,0-.318.582.769.769,0,0,0,.252.624,2.038,2.038,0,0,0,.816.4l1,.276a2.567,2.567,0,0,1,2.208,2.58A2.3,2.3,0,0,1,56.3-.57,3.149,3.149,0,0,1,54.156.144ZM60.492.132a2.035,2.035,0,0,1-1.662-.72,2.942,2.942,0,0,1-.594-1.932V-6H59.88v3.2q0,1.428,1.02,1.428a1.078,1.078,0,0,0,.906-.432,2.072,2.072,0,0,0,.33-1.272V-6H63.78V0H62.136V-.684A1.854,1.854,0,0,1,60.492.132Zm6.516,2.376H65.364V-6h1.644v.672a1.872,1.872,0,0,1,.7-.564,2.254,2.254,0,0,1,1.044-.24,2.572,2.572,0,0,1,2,.924A3.223,3.223,0,0,1,71.568-3a3.223,3.223,0,0,1-.816,2.208,2.572,2.572,0,0,1-2,.924A2.254,2.254,0,0,1,67.7-.108a1.872,1.872,0,0,1-.7-.564Zm.276-4.332a1.43,1.43,0,0,0,1.1.456,1.411,1.411,0,0,0,1.1-.456A1.682,1.682,0,0,0,69.9-3a1.682,1.682,0,0,0-.414-1.176,1.411,1.411,0,0,0-1.1-.456,1.411,1.411,0,0,0-1.1.456A1.682,1.682,0,0,0,66.876-3,1.7,1.7,0,0,0,67.284-1.824Zm7.128,4.332H72.768V-6h1.644v.672a1.872,1.872,0,0,1,.7-.564,2.254,2.254,0,0,1,1.044-.24,2.572,2.572,0,0,1,2,.924A3.223,3.223,0,0,1,78.972-3a3.223,3.223,0,0,1-.816,2.208,2.572,2.572,0,0,1-2,.924,2.254,2.254,0,0,1-1.044-.24,1.872,1.872,0,0,1-.7-.564Zm.276-4.332a1.43,1.43,0,0,0,1.1.456,1.411,1.411,0,0,0,1.1-.456A1.682,1.682,0,0,0,77.3-3a1.682,1.682,0,0,0-.414-1.176,1.411,1.411,0,0,0-1.1-.456,1.411,1.411,0,0,0-1.1.456A1.682,1.682,0,0,0,74.28-3,1.7,1.7,0,0,0,74.688-1.824ZM85.164-.768a3.082,3.082,0,0,1-2.232.9A3.072,3.072,0,0,1,80.7-.774,3,3,0,0,1,79.776-3,3,3,0,0,1,80.7-5.22a3.061,3.061,0,0,1,2.232-.912,3.061,3.061,0,0,1,2.232.912A3,3,0,0,1,86.088-3,3.016,3.016,0,0,1,85.164-.768ZM82.932-1.4a1.4,1.4,0,0,0,1.062-.45A1.6,1.6,0,0,0,84.42-3a1.6,1.6,0,0,0-.426-1.146,1.4,1.4,0,0,0-1.062-.45,1.416,1.416,0,0,0-1.074.45A1.6,1.6,0,0,0,81.432-3a1.6,1.6,0,0,0,.426,1.146A1.416,1.416,0,0,0,82.932-1.4ZM87.276,0V-6H88.92v.96a1.506,1.506,0,0,1,.57-.738,1.55,1.55,0,0,1,.918-.294A1.924,1.924,0,0,1,90.96-6v1.668a2.358,2.358,0,0,0-.744-.132,1.163,1.163,0,0,0-.942.426,1.777,1.777,0,0,0-.354,1.17V0ZM94.92.072a2.424,2.424,0,0,1-1.65-.558A2.023,2.023,0,0,1,92.628-2.1V-4.56H91.416V-6h1.212V-7.668h1.644V-6h1.692v1.44H94.272v2.136a1.068,1.068,0,0,0,.24.786,1.089,1.089,0,0,0,.78.234,1.91,1.91,0,0,0,.672-.108V-.06A3.6,3.6,0,0,1,94.92.072Z" transform="translate(577 5628.547)" fill="#212923"/>
  </g>
</svg>
