<svg xmlns="http://www.w3.org/2000/svg" width="78" height="68" viewBox="0 0 78 68">
  <g id="Group_1741" data-name="Group 1741" transform="translate(-1094 -271)">
    <rect id="Rectangle_3253" data-name="Rectangle 3253" width="78" height="68" transform="translate(1094 271)" fill="none"/>
    <g id="Group_1740" data-name="Group 1740" transform="translate(1104 280)">
      <path id="Path_36" data-name="Path 36" d="M877.407,353.015a17.822,17.822,0,0,1-.207,1.883,24.18,24.18,0,0,1-1.615,5.541c-.273.654-.579,1.318-.923,1.991-.306.617-.65,1.247-1.022,1.883a45.511,45.511,0,0,1-3.945,5.677q-.756.939-1.6,1.892c-.7.8-1.45,1.615-2.246,2.434-.56.579-1.144,1.158-1.751,1.747a101.051,101.051,0,0,1-9.664,8.149q-.918.692-1.883,1.389-1.808,1.3-3.766,2.627-1.963-1.327-3.766-2.627-.967-.7-1.883-1.389a101.483,101.483,0,0,1-9.467-7.96q-.932-.89-1.784-1.765c-.8-.819-1.553-1.624-2.25-2.424-.56-.621-1.083-1.243-1.582-1.85a45.452,45.452,0,0,1-4.124-5.9c-.377-.636-.716-1.266-1.022-1.883-.344-.673-.649-1.337-.923-1.991a24.179,24.179,0,0,1-1.615-5.541,17.838,17.838,0,0,1-.207-1.883,15.526,15.526,0,0,1,1.888-8.634,14.636,14.636,0,0,1,1.37-2.034,15.413,15.413,0,0,1,2.344-2.354,16.9,16.9,0,0,1,2.147-1.483,17.383,17.383,0,0,1,15.224-1.13,14.767,14.767,0,0,1,1.883.96,14.613,14.613,0,0,1,3.766,3.253,14.615,14.615,0,0,1,3.766-3.253,14.777,14.777,0,0,1,1.883-.96,17.32,17.32,0,0,1,14.607.8,16.66,16.66,0,0,1,2.184,1.37,15.8,15.8,0,0,1,2.467,2.26,15.185,15.185,0,0,1,1.488,2A15.44,15.44,0,0,1,877.407,353.015Z" transform="translate(-819.943 -336.129)" fill="#012169"/>
      <path id="Path_39" data-name="Path 39" d="M884.086,346.11,872.3,355.318,869.9,357.2l-5.559,4.345-1,.781-1.022.8-.861.673-1.2.937-.631.49-1.779,1.393-.217.169-3.71,2.9-1.883,1.473-9.467,7.4q-.932-.89-1.784-1.765c-.8-.819-1.553-1.624-2.25-2.424-.56-.621-1.083-1.243-1.582-1.85l7.551-5.9,2.41-1.883,3.921-3.064,1.2-.941.8-.621,1.087-.847,1.6-1.252,1.031-.805.984-.772,1.422-1.111,2.495-1.949,1.883-1.473,14.607-11.416a16.666,16.666,0,0,1,2.184,1.37,15.8,15.8,0,0,1,2.467,2.26A15.18,15.18,0,0,1,884.086,346.11Z" transform="translate(-828.849 -338.432)" fill="#fff"/>
      <path id="Path_39_-_Outline" data-name="Path 39 - Outline" d="M877.512,339.887l.12.063a16.929,16.929,0,0,1,2.212,1.387,16.025,16.025,0,0,1,2.5,2.29,15.451,15.451,0,0,1,1.508,2.028l.1.16-11.931,9.324-2.405,1.883-5.56,4.345-1,.781-1.022.8-.861.673-1.2.937-.632.49-2,1.562-3.71,2.9-1.883,1.473-9.61,7.507-.131-.125c-.6-.569-1.2-1.165-1.789-1.771-.865-.885-1.6-1.681-2.257-2.432-.483-.536-.973-1.109-1.587-1.856l-.136-.166L850.3,361.159l1.2-.941.8-.622,1.088-.848,1.6-1.252,1.031-.805.983-.772,3.917-3.06,1.883-1.473Zm5.883,5.83a15.039,15.039,0,0,0-1.367-1.814,15.6,15.6,0,0,0-2.434-2.23,16.506,16.506,0,0,0-2.037-1.289l-14.5,11.332-1.883,1.473-3.917,3.06-.983.772-1.031.805-1.6,1.252-1.088.848-.8.621-1.2.941-6.332,4.948-7.381,5.766c.547.663,1,1.186,1.439,1.677l0,0c.649.745,1.382,1.535,2.242,2.415.544.558,1.1,1.107,1.648,1.635l9.324-7.284,1.883-1.473,3.926-3.069,1.779-1.393.632-.49,1.2-.936.862-.673,1.022-.8,1-.781,5.559-4.345,2.406-1.883Z" transform="translate(-828.436 -338.087)" fill="rgba(0,0,0,0)"/>
      <path id="Path_37" data-name="Path 37" d="M871.854,372.669q-.755.939-1.6,1.892c-.7.8-1.45,1.615-2.246,2.434-.56.579-1.144,1.158-1.751,1.746l-9.664-7.282-1.883-1.422-3.823-2.876-.221-.169-1.841-1.384-.659-.5-.989-.744-1.078-.81-.805-.607-1.2-.9-5.927-4.467-2.5-1.883L824.21,347.06a14.64,14.64,0,0,1,1.37-2.034,15.406,15.406,0,0,1,2.344-2.354,16.892,16.892,0,0,1,2.147-1.483l15.224,11.472,1.883,1.417,2.142,1.615,1.474,1.111,1.026.772.984.739,1.906,1.436.819.617,1.064.805,1,.748,4.227,3.187,2.5,1.883Z" transform="translate(-822.101 -338.808)" fill="#fff"/>
      <path id="Path_37_-_Outline" data-name="Path 37 - Outline" d="M865.9,378.669l-9.808-7.39-1.883-1.422-3.822-2.876-.223-.171-1.839-1.383-.66-.5-2.066-1.553-.805-.608-1.2-.9-8.426-6.35-11.6-8.743.089-.159a14.879,14.879,0,0,1,1.389-2.063,15.648,15.648,0,0,1,2.376-2.386,17.119,17.119,0,0,1,2.173-1.5l.12-.07.111.084,15.224,11.472,1.883,1.417,3.616,2.726,2.01,1.511,2.726,2.052,1.064.805,1,.748,4.228,3.187,10.209,7.69-.136.169c-.519.645-1.06,1.284-1.607,1.9-.728.83-1.486,1.652-2.252,2.441-.517.534-1.091,1.107-1.756,1.751Zm-41.791-32.013,13.811,10.406,7.932,5.979,2.066,1.553.66.5,1.84,1.384.223.171,3.821,2.875,1.883,1.422,9.521,7.174c.607-.59,1.137-1.12,1.618-1.617.761-.784,1.515-1.6,2.238-2.426.5-.558.986-1.135,1.459-1.717l-9.863-7.43-4.228-3.187-1-.748-1.065-.806-2.725-2.052-2.01-1.511-3.616-2.726-1.883-1.417L829.68,341.093a16.73,16.73,0,0,0-2,1.394,15.236,15.236,0,0,0-2.313,2.322A14.556,14.556,0,0,0,824.106,346.655Z" transform="translate(-821.724 -338.46)" fill="rgba(0,0,0,0)"/>
      <path id="Path_40" data-name="Path 40" d="M880.3,338.79v46.83q-.918.692-1.883,1.389-1.808,1.3-3.766,2.627-1.963-1.327-3.766-2.627-.967-.7-1.883-1.389V338.79a14.785,14.785,0,0,1,1.883.96A14.614,14.614,0,0,1,874.649,343a14.775,14.775,0,0,1,5.649-4.213Z" transform="translate(-845.806 -337.537)" fill="#fff"/>
      <path id="Path_40_-_Outline" data-name="Path 40 - Outline" d="M868.5,338.035l.291.123a15.038,15.038,0,0,1,1.91.974,14.811,14.811,0,0,1,3.658,3.106,14.809,14.809,0,0,1,3.658-3.106,15,15,0,0,1,1.909-.974l.291-.123v47.25l-.083.063c-.6.454-1.22.909-1.886,1.391-1.254.9-2.523,1.786-3.771,2.63l-.117.079-.117-.079c-1.249-.845-2.518-1.73-3.771-2.63-.669-.484-1.286-.939-1.887-1.392l-.083-.063Zm11.3,47.042V338.672a14.571,14.571,0,0,0-1.565.82,14.411,14.411,0,0,0-3.713,3.207l-.162.2-.162-.2a14.416,14.416,0,0,0-3.712-3.207,14.591,14.591,0,0,0-1.566-.82v46.405c.572.43,1.161.864,1.8,1.323,1.21.87,2.435,1.725,3.643,2.544,1.207-.818,2.433-1.674,3.644-2.544C878.635,385.942,879.224,385.509,879.8,385.077Z" transform="translate(-845.516 -337.099)" fill="rgba(0,0,0,0)"/>
      <path id="Path_41" data-name="Path 41" d="M871.794,376.228c-.7.8-1.45,1.615-2.245,2.434l-11.416-8.6-1.864-1.4-.019-.014-1.827-1.379-.65-.49-1.412-1.064-2.726-2.052-.918-.692-1.087-.819-.8-.6-3.06-2.307-2.5-1.883L827.12,346.694a15.39,15.39,0,0,1,2.344-2.354l17.286,13.021.085.066,1.883,1.417.532.4,1.069.8,2.005,1.511,2.726,2.052,1.2.9.861.65,1.022.772,1.111.838,2.5,1.883Z" transform="translate(-823.641 -340.475)" fill="#c8102e"/>
      <path id="Path_42" data-name="Path 42" d="M884.377,345.65l-14.344,11.208-2.41,1.883-2.5,1.958-1.064.833-.819.64-1.2.937-2.688,2.1-1.36,1.064-.636.5-1.648,1.285-.122.1-1.76,1.375-11.251,8.8c-.8-.819-1.554-1.624-2.25-2.424l9.909-7.749,2.41-1.883,1.182-.923.805-.631,1.078-.843.918-.72,2.688-2.1,2.02-1.577.946-.739.96-.753,1.45-1.13.433-.339L881.91,343.39A15.789,15.789,0,0,1,884.377,345.65Z" transform="translate(-830.627 -339.972)" fill="#c8102e"/>
      <path id="Path_38" data-name="Path 38" d="M877.407,353.015a17.822,17.822,0,0,1-.207,1.883,24.18,24.18,0,0,1-1.615,5.541c-.273.654-.579,1.318-.923,1.991-.306.617-.65,1.247-1.022,1.883a45.511,45.511,0,0,1-3.945,5.677q-.756.939-1.6,1.892c-.7.8-1.45,1.615-2.246,2.434-.56.579-1.144,1.158-1.751,1.747a101.051,101.051,0,0,1-9.664,8.149q-.918.692-1.883,1.389-1.808,1.3-3.766,2.627-1.963-1.327-3.766-2.627-.967-.7-1.883-1.389a101.483,101.483,0,0,1-9.467-7.96q-.932-.89-1.784-1.765c-.8-.819-1.553-1.624-2.25-2.424-.56-.621-1.083-1.243-1.582-1.85a45.452,45.452,0,0,1-4.124-5.9c-.377-.636-.716-1.266-1.022-1.883-.344-.673-.649-1.337-.923-1.991a24.179,24.179,0,0,1-1.615-5.541,17.838,17.838,0,0,1-.207-1.883,15.526,15.526,0,0,1,1.888-8.634,14.636,14.636,0,0,1,1.37-2.034,15.413,15.413,0,0,1,2.344-2.354,16.9,16.9,0,0,1,2.147-1.483,17.383,17.383,0,0,1,15.224-1.13,14.767,14.767,0,0,1,1.883.96,14.613,14.613,0,0,1,3.766,3.253,14.615,14.615,0,0,1,3.766-3.253,14.777,14.777,0,0,1,1.883-.96,17.32,17.32,0,0,1,14.607.8,16.66,16.66,0,0,1,2.184,1.37,15.8,15.8,0,0,1,2.467,2.26,15.185,15.185,0,0,1,1.488,2A15.44,15.44,0,0,1,877.407,353.015Z" transform="translate(-819.943 -336.129)" fill="none"/>
      <path id="Path_43" data-name="Path 43" d="M877.443,372a17.8,17.8,0,0,1-.207,1.883,24.166,24.166,0,0,1-1.615,5.541q-.409.981-.923,1.991c-.306.617-.65,1.247-1.021,1.883H823.966c-.377-.636-.715-1.266-1.021-1.883-.344-.673-.65-1.337-.923-1.991a24.179,24.179,0,0,1-1.615-5.541A17.8,17.8,0,0,1,820.2,372Z" transform="translate(-819.979 -355.114)" fill="#fff"/>
      <path id="Path_43_-_Outline" data-name="Path 43 - Outline" d="M819.672,371.5h57.685l-.012.221a18.075,18.075,0,0,1-.21,1.905,24.5,24.5,0,0,1-1.628,5.588c-.28.672-.593,1.346-.929,2-.3.6-.646,1.241-1.028,1.895l-.061.1H823.54l-.061-.1c-.358-.6-.7-1.242-1.028-1.9s-.648-1.332-.929-2a24.492,24.492,0,0,1-1.628-5.588,18.1,18.1,0,0,1-.209-1.9Zm57.241.419h-56.8c.036.526.1,1.076.191,1.64a24.078,24.078,0,0,0,1.6,5.493c.277.664.585,1.329.916,1.977v0c.3.607.622,1.2.953,1.767H873.25c.354-.609.675-1.2.954-1.767v0c.332-.649.64-1.314.916-1.977a24.068,24.068,0,0,0,1.6-5.493C876.813,373,876.877,372.445,876.913,371.919Z" transform="translate(-819.672 -354.823)" fill="rgba(0,0,0,0)"/>
      <path id="Path_44" data-name="Path 44" d="M877.468,376a24.171,24.171,0,0,1-1.615,5.541q-.41.981-.923,1.991H823.177q-.516-1.01-.923-1.991A24.184,24.184,0,0,1,820.64,376Z" transform="translate(-820.211 -357.231)" fill="#c8102e"/>
      <path id="Path_45" data-name="Path 45" d="M880.532,340.83v47.258q-1.808,1.3-3.766,2.627-1.963-1.328-3.766-2.627V340.83a14.61,14.61,0,0,1,3.766,3.253A14.617,14.617,0,0,1,880.532,340.83Z" transform="translate(-847.923 -338.617)" fill="#c8102e"/>
    </g>
  </g>
</svg>
