<svg xmlns="http://www.w3.org/2000/svg" width="198.742" height="155.241" viewBox="0 0 198.742 155.241">
  <g id="Group_1427" data-name="Group 1427" transform="translate(0 -0.001)">
    <g id="Group_1430" data-name="Group 1430" transform="translate(0 0.001)">
      <path id="Path_1261" data-name="Path 1261" d="M110.825,820.534a49.881,49.881,0,1,1-49.881,49.881,49.881,49.881,0,0,1,49.881-49.881" transform="translate(-57.227 -770.494)" fill="#cdfadc" fill-rule="evenodd"/>
      <path id="Path_1262" data-name="Path 1262" d="M905.741,175.811a68.562,68.562,0,1,1-68.562,68.562,68.562,68.562,0,0,1,68.562-68.562" transform="translate(-786.124 -165.089)" fill="#31b55a" fill-rule="evenodd"/>
      <path id="Path_1263" data-name="Path 1263" d="M1022.451,1224.665l-43.3,24.3v49.857h86.608v-49.857Z" transform="translate(-919.434 -1149.98)" fill="#dba811"/>
      <path id="Path_1264" data-name="Path 1264" d="M1103.712,1379.448h-68.18a6.15,6.15,0,0,1-6.15-6.15v-45.94a6.15,6.15,0,0,1,6.15-6.15h68.18a6.15,6.15,0,0,1,6.151,6.15v45.94a6.15,6.15,0,0,1-6.151,6.15" transform="translate(-966.606 -1240.634)" fill="#fff"/>
      <path id="Path_1265" data-name="Path 1265" d="M1367.547,1389h2.036v4.966h3.177v1.622h-5.213Z" transform="translate(-1284.148 -1304.296)" fill="#17494d"/>
      <path id="Path_1266" data-name="Path 1266" d="M1468.142,1389h5.456v1.407h-3.416v1.047h3.169v1.344h-3.169v1.3h3.515v1.492h-5.555Z" transform="translate(-1378.609 -1304.296)" fill="#17494d"/>
      <path id="Path_1267" data-name="Path 1267" d="M1569.621,1389h6.189v1.627h-2.076v4.962H1571.7v-4.962h-2.076Z" transform="translate(-1473.899 -1304.296)" fill="#17494d"/>
      <path id="Path_1268" data-name="Path 1268" d="M1678.617,1389h6.189v1.627h-2.076v4.962h-2.036v-4.962h-2.076Z" transform="translate(-1576.248 -1304.296)" fill="#17494d"/>
      <path id="Path_1269" data-name="Path 1269" d="M1795.131,1389h5.456v1.407h-3.416v1.047h3.169v1.344h-3.169v1.3h3.515v1.492h-5.555Z" transform="translate(-1685.656 -1304.296)" fill="#17494d"/>
      <path id="Path_1270" data-name="Path 1270" d="M1904.642,1395.593V1389h3.393a4.927,4.927,0,0,1,1.443.162,1.536,1.536,0,0,1,.8.6,1.86,1.86,0,0,1-.571,2.658,2.462,2.462,0,0,1-.715.261,1.372,1.372,0,0,1,.855.589,2.607,2.607,0,0,1,.286.409l.986,1.909h-2.3l-1.088-2.014a1.537,1.537,0,0,0-.369-.508.854.854,0,0,0-.5-.153h-.18v2.674Zm2.045-3.919h.859a3.061,3.061,0,0,0,.539-.09.538.538,0,0,0,.33-.207.667.667,0,0,0-.074-.872,1.223,1.223,0,0,0-.76-.171h-.894Z" transform="translate(-1788.488 -1304.297)" fill="#17494d"/>
      <path id="Path_1271" data-name="Path 1271" d="M1205.821,1576.234h-65.029a.992.992,0,0,1-.992-.992v-.45a.992.992,0,0,1,.992-.992h65.029a.992.992,0,0,1,.992.992v.45a.992.992,0,0,1-.992.992" transform="translate(-1070.29 -1477.823)" fill="#c5c5c6"/>
      <path id="Path_1272" data-name="Path 1272" d="M1205.821,1689.978h-65.029a.992.992,0,0,1-.992-.992v-.45a.992.992,0,0,1,.992-.992h65.029a.992.992,0,0,1,.992.992v.45a.992.992,0,0,1-.992.992" transform="translate(-1070.29 -1584.63)" fill="#c5c5c6"/>
      <path id="Path_1273" data-name="Path 1273" d="M1205.821,1803.721h-65.029a.992.992,0,0,1-.992-.992v-.45a.992.992,0,0,1,.992-.992h65.029a.992.992,0,0,1,.992.992v.45a.992.992,0,0,1-.992.992" transform="translate(-1070.29 -1691.437)" fill="#c5c5c6"/>
      <path id="Path_1274" data-name="Path 1274" d="M1205.821,1917.465h-65.029a.992.992,0,0,1-.992-.992v-.45a.992.992,0,0,1,.992-.992h65.029a.992.992,0,0,1,.992.992v.45a.992.992,0,0,1-.992.992" transform="translate(-1070.29 -1798.244)" fill="#c5c5c6"/>
      <path id="Path_1275" data-name="Path 1275" d="M955.347,1648.038,916.9,1623.059a4.046,4.046,0,0,0-4.046,4.046v47.246l42.269-26.183c.074-.046.151-.086.226-.129" transform="translate(-857.182 -1524.078)" fill="#fec51d"/>
      <path id="Path_1276" data-name="Path 1276" d="M1811.284,1674.35V1627.1a4.046,4.046,0,0,0-4.046-4.046l-38.449,24.979c.075.044.152.083.226.129Z" transform="translate(-1660.92 -1524.078)" fill="#fec51d"/>
      <path id="Path_1277" data-name="Path 1277" d="M965.277,2012.6c-.074-.046-.151-.085-.226-.129l-.069.045.069-.045a9.634,9.634,0,0,0-9.7,0l.069.045-.069-.045c-.075.044-.152.083-.226.129l-42.269,26.183v.923a4.046,4.046,0,0,0,4.046,4.046h86.6a4.046,4.046,0,0,0,4.046-4.046v-.923Z" transform="translate(-857.182 -1888.51)" fill="#dba811"/>
      <path id="Path_1278" data-name="Path 1278" d="M772.428,18.043l-.892,23.187L816.862,0Z" transform="translate(-724.484 -0.001)" fill="#dba811"/>
      <path id="Path_1279" data-name="Path 1279" d="M543.985,7.073l14.769,10.969L603.188,0Z" transform="translate(-510.81 -0.001)" fill="#fec51d"/>
      <path id="Path_1280" data-name="Path 1280" d="M771.537,169.7l5.3-19.328,31.049-13.558Z" transform="translate(-724.485 -128.471)" fill="#b58a0a"/>
      <path id="Path_1281" data-name="Path 1281" d="M858.524,21.9,873.4,32.636,898.546,0Z" transform="translate(-806.168 -0.001)" fill="#fec51d"/>
      <path id="Path_1282" data-name="Path 1282" d="M860.113,1638.1q1.238.595,2.528,1.073l-.181.49q-1.311-.484-2.573-1.092Z" transform="translate(-807.447 -1538.199)" fill="#fff"/>
      <path id="Path_1283" data-name="Path 1283" d="M800.447,1604.722c.759.514,1.554.971,2.354,1.415l-.247.46c-.815-.452-1.623-.917-2.4-1.44Z" transform="translate(-751.362 -1506.859)" fill="#fff"/>
      <path id="Path_1284" data-name="Path 1284" d="M745.956,1563.664c.685.608,1.4,1.18,2.141,1.72l-.308.422c-.753-.549-1.481-1.132-2.179-1.75Z" transform="translate(-700.14 -1468.305)" fill="#fff"/>
      <path id="Path_1285" data-name="Path 1285" d="M697.7,1515.642c.6.688,1.222,1.365,1.886,2l-.363.375c-.676-.642-1.305-1.331-1.92-2.032Z" transform="translate(-654.778 -1423.211)" fill="#fff"/>
      <path id="Path_1286" data-name="Path 1286" d="M657,1461.308a26.261,26.261,0,0,0,1.57,2.249l-.412.32a26.747,26.747,0,0,1-1.6-2.294Z" transform="translate(-616.513 -1372.191)" fill="#fff"/>
      <path id="Path_1287" data-name="Path 1287" d="M626.1,1401.206a21.158,21.158,0,0,0,1.153,2.481l-.459.25a21.684,21.684,0,0,1-1.182-2.543Z" transform="translate(-587.459 -1315.754)" fill="#fff"/>
      <path id="Path_1288" data-name="Path 1288" d="M608.638,1336.362a16.9,16.9,0,0,0,.59,2.663l-.5.152a17.449,17.449,0,0,1-.607-2.744Z" transform="translate(-571.035 -1254.865)" fill="#fff"/>
      <path id="Path_1289" data-name="Path 1289" d="M606.439,1268.464a14.838,14.838,0,0,0-.126,2.717l-.521.024a15.373,15.373,0,0,1,.13-2.813Z" transform="translate(-568.833 -1191.04)" fill="#fff"/>
      <path id="Path_1290" data-name="Path 1290" d="M613.854,1202.241a13.065,13.065,0,0,0-.9,2.56l-.508-.121a13.589,13.589,0,0,1,.932-2.662Z" transform="translate(-575.1 -1128.713)" fill="#fff"/>
      <path id="Path_1291" data-name="Path 1291" d="M640.974,1145.92a10.793,10.793,0,0,0-1.694,2.1l-.443-.276a11.318,11.318,0,0,1,1.776-2.2Z" transform="translate(-599.878 -1075.683)" fill="#fff"/>
      <path id="Path_1292" data-name="Path 1292" d="M688.446,1108.578a10.633,10.633,0,0,0-2.359,1.308l-.309-.421a11.157,11.157,0,0,1,2.475-1.372Z" transform="translate(-643.956 -1040.517)" fill="#fff"/>
      <path id="Path_1293" data-name="Path 1293" d="M751.31,1096.422a9.333,9.333,0,0,0-2.673.283l-.127-.506a9.852,9.852,0,0,1,2.822-.3Z" transform="translate(-702.863 -1029.06)" fill="#fff"/>
      <path id="Path_1294" data-name="Path 1294" d="M818.787,1100.339a8.714,8.714,0,0,0-2.508-.947l.1-.511a9.236,9.236,0,0,1,2.658,1Z" transform="translate(-766.499 -1031.865)" fill="#fff"/>
      <path id="Path_1295" data-name="Path 1295" d="M877.945,1130.273a12.324,12.324,0,0,0-1.972-1.856l.312-.418a12.831,12.831,0,0,1,2.057,1.935Z" transform="translate(-822.552 -1059.208)" fill="#fff"/>
      <path id="Path_1296" data-name="Path 1296" d="M923.282,1180.693a13.383,13.383,0,0,0-1.322-2.37l.428-.3a13.913,13.913,0,0,1,1.373,2.463Z" transform="translate(-865.735 -1106.183)" fill="#fff"/>
      <path id="Path_1297" data-name="Path 1297" d="M951.833,1242.957a10.887,10.887,0,0,0-.482-2.658l.5-.153a11.414,11.414,0,0,1,.5,2.783Z" transform="translate(-893.333 -1164.516)" fill="#fff"/>
      <path id="Path_1298" data-name="Path 1298" d="M948.974,1310.977a9.37,9.37,0,0,0,.61-2.615l.52.043a9.9,9.9,0,0,1-.644,2.763Z" transform="translate(-891.101 -1228.572)" fill="#fff"/>
      <path id="Path_1299" data-name="Path 1299" d="M913.155,1373.4a11.314,11.314,0,0,0,1.607-2.169l.455.255a11.843,11.843,0,0,1-1.684,2.273Z" transform="translate(-857.467 -1287.604)" fill="#fff"/>
      <path id="Path_1300" data-name="Path 1300" d="M859.926,1423.428a11.828,11.828,0,0,0,2.254-1.5l.335.4a12.334,12.334,0,0,1-2.347,1.566Z" transform="translate(-807.484 -1335.21)" fill="#fff"/>
      <path id="Path_1301" data-name="Path 1301" d="M796.857,1456.638a13.563,13.563,0,0,0,2.615-.708l.191.486a14.068,14.068,0,0,1-2.726.738Z" transform="translate(-748.261 -1367.141)" fill="#fff"/>
      <path id="Path_1302" data-name="Path 1302" d="M729.081,1468.044a14.273,14.273,0,0,0,2.718.1l.028.521a14.778,14.778,0,0,1-2.813-.108Z" transform="translate(-684.555 -1378.516)" fill="#fff"/>
      <path id="Path_1303" data-name="Path 1303" d="M662.32,1451.505a17.736,17.736,0,0,0,2.616.779l-.11.51a18.29,18.29,0,0,1-2.692-.8Z" transform="translate(-621.754 -1362.986)" fill="#fff"/>
      <path id="Path_1304" data-name="Path 1304" d="M600.821,1421.357a21.468,21.468,0,0,0,2.4,1.309l-.219.474a22.047,22.047,0,0,1-2.462-1.341Z" transform="translate(-563.918 -1334.676)" fill="#fff"/>
      <path id="Path_1305" data-name="Path 1305" d="M546.313,1380.322a23.765,23.765,0,0,0,2.12,1.734l-.306.423a24.283,24.283,0,0,1-2.169-1.773Z" transform="translate(-512.664 -1296.144)" fill="#fff"/>
      <path id="Path_1306" data-name="Path 1306" d="M500.177,1330.4a23.432,23.432,0,0,0,1.779,2.082l-.376.362a23.932,23.932,0,0,1-1.82-2.13Z" transform="translate(-469.282 -1249.269)" fill="#fff"/>
      <path id="Path_1307" data-name="Path 1307" d="M464.176,1273.083a21.838,21.838,0,0,0,1.362,2.374l-.436.287a22.361,22.361,0,0,1-1.395-2.432Z" transform="translate(-435.428 -1195.445)" fill="#fff"/>
      <path id="Path_1308" data-name="Path 1308" d="M440.388,1210.055a19.917,19.917,0,0,0,.858,2.595l-.483.2a20.423,20.423,0,0,1-.88-2.664Z" transform="translate(-413.056 -1136.261)" fill="#fff"/>
      <path id="Path_1309" data-name="Path 1309" d="M431.033,1143.592l.024.683.063.68c.031.455.114.9.182,1.354l-.514.091c-.07-.463-.154-.925-.187-1.392l-.064-.7-.025-.7Z" transform="translate(-404.257 -1073.851)" fill="#fff"/>
      <path id="Path_1310" data-name="Path 1310" d="M431.443,1075.207a21.3,21.3,0,0,0-.3,2.72l-.522-.022a21.817,21.817,0,0,1,.3-2.787Z" transform="translate(-404.363 -1009.553)" fill="#fff"/>
      <path id="Path_1311" data-name="Path 1311" d="M441.492,1008.727a26.021,26.021,0,0,0-.768,2.632l-.508-.119a26.545,26.545,0,0,1,.784-2.687Z" transform="translate(-413.37 -947.047)" fill="#fff"/>
      <path id="Path_1312" data-name="Path 1312" d="M462.94,945.861c-.434.808-.808,1.645-1.162,2.489l-.483-.2c.36-.859.742-1.711,1.183-2.532Z" transform="translate(-433.163 -887.951)" fill="#fff"/>
      <path id="Path_1313" data-name="Path 1313" d="M493.644,887.207q-.786,1.13-1.476,2.32l-.452-.262q.7-1.209,1.5-2.356Z" transform="translate(-461.73 -832.821)" fill="#fff"/>
      <path id="Path_1314" data-name="Path 1314" d="M531.8,832.927c-.589.705-1.172,1.416-1.715,2.156l-.418-.312c.551-.749,1.14-1.469,1.735-2.181Z" transform="translate(-497.367 -781.815)" fill="#fff"/>
      <path id="Path_1315" data-name="Path 1315" d="M575.384,782.408c-.646.656-1.27,1.332-1.887,2.015l-.389-.348c.622-.689,1.252-1.371,1.9-2.031Z" transform="translate(-538.157 -734.351)" fill="#fff"/>
      <path id="Path_1316" data-name="Path 1316" d="M622.731,734.679q-1.009.946-1.994,1.915l-.367-.371q.988-.979,2-1.925Z" transform="translate(-582.537 -689.517)" fill="#fff"/>
      <path id="Path_1317" data-name="Path 1317" d="M672.345,688.668l-2.052,1.859-.353-.385L672,688.28Z" transform="translate(-629.084 -646.305)" fill="#fff"/>
      <path id="Path_1318" data-name="Path 1318" d="M2598.452,2109.981a3.521,3.521,0,1,1-3.521,3.521,3.521,3.521,0,0,1,3.521-3.521" transform="translate(-2436.681 -1981.305)" fill="#fff" fill-rule="evenodd"/>
      <path id="Path_1319" data-name="Path 1319" d="M90.126,2167.717a3.521,3.521,0,1,1-3.521,3.521,3.521,3.521,0,0,1,3.521-3.521" transform="translate(-81.323 -2035.52)" fill="#fff" fill-rule="evenodd"/>
      <path id="Path_1320" data-name="Path 1320" d="M2727.129,1375.446a16.725,16.725,0,1,1-16.725,16.725,16.725,16.725,0,0,1,16.725-16.725" transform="translate(-2545.112 -1291.565)" fill="#fff" fill-rule="evenodd"/>
      <path id="Path_1321" data-name="Path 1321" d="M2482.979,60.338a3.521,3.521,0,1,1-3.521,3.521,3.521,3.521,0,0,1,3.521-3.521" transform="translate(-2328.25 -56.658)" fill="#fff" fill-rule="evenodd"/>
      <path id="Path_1322" data-name="Path 1322" d="M2051.13,939.215a4.695,4.695,0,1,1-4.695,4.695,4.695,4.695,0,0,1,4.695-4.695" transform="translate(-1921.634 -881.938)" fill="#fff" fill-rule="evenodd"/>
      <path id="Path_1323" data-name="Path 1323" d="M1612.443,429.057a3.235,3.235,0,1,1-3.235,3.235,3.235,3.235,0,0,1,3.235-3.235" transform="translate(-1511.071 -402.891)" fill="#fff" fill-rule="evenodd"/>
      <path id="Path_1324" data-name="Path 1324" d="M10.465,672.985A10.465,10.465,0,1,1,0,683.45a10.465,10.465,0,0,1,10.465-10.465" transform="translate(0 -631.943)" fill="#fff" fill-rule="evenodd"/>
      <path id="Path_1325" data-name="Path 1325" d="M2397.37,517.883a21.593,21.593,0,0,0-28.583.214,22.005,22.005,0,0,0-5.258,25.508,6.676,6.676,0,0,1,.239,5.087l-3.124,8.5,8.418-3.152a6.267,6.267,0,0,1,4.888.168,21.529,21.529,0,0,0,24.572-4.313,22,22,0,0,0-1.153-32.009" transform="translate(-2216.681 -481.324)" fill="#ba4a4d"/>
      <path id="Path_1326" data-name="Path 1326" d="M2539.568,946.6a3.862,3.862,0,0,0,0,5.426,3.778,3.778,0,0,0,5.377,0l.259-.261-5.377-5.426Z" transform="translate(-2383.648 -888.623)" fill="#fff" fill-rule="evenodd"/>
      <path id="Path_1327" data-name="Path 1327" d="M2514.628,684.72l-5.773,5.825a4.773,4.773,0,0,1-3.032,1.4.785.785,0,0,0-.491,1.336l6.712,6.773,6.712,6.773a.776.776,0,0,0,1.324-.5,4.853,4.853,0,0,1,1.391-3.06l5.773-5.825a9.059,9.059,0,0,0,0-12.729,8.864,8.864,0,0,0-12.615,0" transform="translate(-2352.33 -640.487)" fill="#fff" fill-rule="evenodd"/>
      <path id="Path_1328" data-name="Path 1328" d="M2860.115,679.2a1.857,1.857,0,0,0,0-2.609,1.817,1.817,0,0,0-2.585,0l-.538.543,2.585,2.608Z" transform="translate(-2682.76 -634.824)" fill="#fff" fill-rule="evenodd"/>
      <path id="Path_1329" data-name="Path 1329" d="M397.138,1697.591a11.8,11.8,0,0,0,.117,15.624,12.028,12.028,0,0,0,13.943,2.874,3.648,3.648,0,0,1,2.78-.131l4.644,1.708-1.723-4.6a3.425,3.425,0,0,1,.092-2.672,11.768,11.768,0,0,0-2.357-13.431,12.027,12.027,0,0,0-17.5.63" transform="translate(-370.199 -1590.214)" fill="#ba4a4d"/>
      <path id="Path_1330" data-name="Path 1330" d="M478.241,1772.054l-1.084,6.854a2.073,2.073,0,0,0-.035.3.328.328,0,0,0,.087.243.351.351,0,0,0,.259.087,1.615,1.615,0,0,0,.9-.355,3.83,3.83,0,0,0,1.224-1.5,5.383,5.383,0,0,0,.48-2.379,4.911,4.911,0,0,0-1.313-3.614,4.736,4.736,0,0,0-3.524-1.326,5.791,5.791,0,0,0-2.969.78,5.168,5.168,0,0,0-2.063,2.263,7.37,7.37,0,0,0-.723,3.277,6.11,6.11,0,0,0,1.575,4.426,5.394,5.394,0,0,0,4.064,1.634,6.8,6.8,0,0,0,2.338-.408,7.848,7.848,0,0,0,2.156-1.214h1.778a7.517,7.517,0,0,1-3.548,2.463,8,8,0,0,1-2.689.443,7.034,7.034,0,0,1-3.6-.928,6.427,6.427,0,0,1-2.494-2.644,8.033,8.033,0,0,1-.9-3.78,8.333,8.333,0,0,1,.933-3.94,6.53,6.53,0,0,1,6.138-3.663,5.977,5.977,0,0,1,4.446,1.734,6.1,6.1,0,0,1,1.713,4.482,6.639,6.639,0,0,1-.668,2.982,5.117,5.117,0,0,1-1.961,2.141,3.639,3.639,0,0,1-1.874.607,1.4,1.4,0,0,1-.85-.243,1.418,1.418,0,0,1-.486-.772,4.252,4.252,0,0,1-1.058.794,2.35,2.35,0,0,1-1.032.23,2.545,2.545,0,0,1-1.986-.962,4.088,4.088,0,0,1-.833-2.756,7.122,7.122,0,0,1,1.067-3.839,3.093,3.093,0,0,1,2.646-1.716,2.06,2.06,0,0,1,1.089.286,3.27,3.27,0,0,1,.95,1l.156-.98Zm-5.778,5.676a2.564,2.564,0,0,0,.443,1.6,1.02,1.02,0,0,0,.841.424,1.366,1.366,0,0,0,1.006-.472,4.348,4.348,0,0,0,.79-1.884,11.013,11.013,0,0,0,.338-2.539,1.95,1.95,0,0,0-.364-1.282,1.1,1.1,0,0,0-.868-.433,1.382,1.382,0,0,0-1.006.433,3.816,3.816,0,0,0-.88,1.841,10.067,10.067,0,0,0-.3,2.309" transform="translate(-439.61 -1661.184)" fill="#fff"/>
    </g>
  </g>
</svg>
