<svg xmlns="http://www.w3.org/2000/svg" xmlns:xlink="http://www.w3.org/1999/xlink" width="750" height="301" viewBox="0 0 750 301">
  <defs>
    <linearGradient id="linear-gradient" x1="0.662" y1="-0.123" x2="0.414" y2="1.158" gradientUnits="objectBoundingBox">
      <stop offset="0" stop-color="#ef0c2d"/>
      <stop offset="1" stop-color="#88071a"/>
    </linearGradient>
    <linearGradient id="linear-gradient-2" x1="0.602" y1="0.189" x2="0.23" y2="0.734" gradientUnits="objectBoundingBox">
      <stop offset="0" stop-opacity="0.373"/>
      <stop offset="1" stop-color="#545454" stop-opacity="0"/>
    </linearGradient>
    <linearGradient id="linear-gradient-3" x1="0.602" y1="0.189" x2="0.154" y2="0.851" gradientUnits="objectBoundingBox">
      <stop offset="0" stop-opacity="0.373"/>
      <stop offset="1" stop-color="#545454" stop-opacity="0.02"/>
    </linearGradient>
    <linearGradient id="linear-gradient-4" x1="0.602" y1="0.189" x2="0.085" y2="0.972" xlink:href="#linear-gradient-2"/>
    <linearGradient id="linear-gradient-5" x1="0.602" y1="0.189" x2="0.066" y2="0.952" xlink:href="#linear-gradient-2"/>
  </defs>
  <g id="Group_2153" data-name="Group 2153" transform="translate(-20121 20200)">
    <rect id="Rectangle_3339" data-name="Rectangle 3339" width="750" height="301" transform="translate(20121 -20200)" fill="url(#linear-gradient)"/>
    <path id="Path_5279" data-name="Path 5279" d="M19642.4-18522.3c-2.279,2.188-64.744,83.262-64.744,83.262l43.18,32.572s29.148-25.875,52.1-46.209,8.672-21.021,8.672-21.021l-33.57-25.693Z" transform="translate(553.459 -1551.664)" fill="url(#linear-gradient-2)"/>
    <path id="Path_5277" data-name="Path 5277" d="M19641.48-18521.85c-1.279,1.229-22.555,27.314-41.1,50.123-7.053,8.676.078,6.188-6.258,14.236s-19.082,17.961-19.082,17.961l13.963,58.486,96.484-68.521-15.393-23.143-18.74-41.744Z" transform="translate(642.176 -1557.045)" fill="url(#linear-gradient-3)"/>
    <path id="Path_5275" data-name="Path 5275" d="M19646.551-18521.85c-2.279,2.186-25.887,56.088-25.887,56.088l6.3,16.188-31.422,51.988,95.578-52.783-34.7-7.068v-57.014Z" transform="translate(700.338 -1557.045)" fill="url(#linear-gradient-4)"/>
    <path id="Path_5273" data-name="Path 5273" d="M19646.551-18521.85c-2.279,2.186-27.031,58.559-27.031,58.559l5.867,13.553-29.848,52.152,95.58-52.139-34.7-7.713v-57.014Z" transform="translate(766.095 -1557.045)" fill="url(#linear-gradient-5)"/>
    <path id="Path_5280" data-name="Path 5280" d="M19705.213-18506.8l-21.381,22.8-26.2-19.012,17.855-19.352Z" transform="translate(533.683 -1551.649)" fill="#7a091a"/>
    <path id="Path_5276" data-name="Path 5276" d="M215.325-23.7V-95.85H230.06v58.125h30.892V-23.7Z" transform="translate(20130.818 -19983.045)" fill="#fff"/>
    <path id="Path_5281" data-name="Path 5281" d="M32.332-22.883q-12.3,0-19.815-7.062T4.59-46.458H19.325a10.985,10.985,0,0,0,4.37,7.367A14.269,14.269,0,0,0,32.332-36.5a12.716,12.716,0,0,0,7.418-1.982,6.185,6.185,0,0,0,2.845-5.335q0-6-9.654-8.739L25.32-54.791q-8.841-2.54-13.82-7.926A19.388,19.388,0,0,1,6.419-76.13q0-9.857,6.605-15.6T30.6-97.47q11.076,0,17.986,6.656t7.316,15.293H41.274a10.535,10.535,0,0,0-4.065-6.3A11.366,11.366,0,0,0,30.6-83.853a11.519,11.519,0,0,0-6.656,1.778,5.9,5.9,0,0,0-2.693,4.928,6.514,6.514,0,0,0,2.134,5.284,17.262,17.262,0,0,0,6.91,3.353l8.434,2.337q18.7,5.182,18.7,21.848a19.491,19.491,0,0,1-6.961,15.4Q43.509-22.883,32.332-22.883Z" transform="translate(20182.93 -19982.645)" fill="#fff"/>
    <path id="Path_5274" data-name="Path 5274" d="M303.21-23.7V-95.85h44.915v14.023h-30.18v14.836h24.083v14.023H317.945v15.243h30.18V-23.7Z" transform="translate(20109.086 -19983.045)" fill="#fff"/>
    <path id="Path_5278" data-name="Path 5278" d="M90.99-23.7,122.085-95.85h13.109L166.39-23.7H150.944l-7.012-16.462h-30.79L106.233-23.7Zm37.6-52.739L118.63-53.069h19.815Z" transform="translate(20161.564 -19983.045)" fill="#fff"/>
    <path id="Path_5283" data-name="Path 5283" d="M5.293-12.525V-48.332h7.313V-34.06H28.139V-48.332h7.313v35.807H28.139V-27.1H12.606v14.575Zm47.1.555a10.807,10.807,0,0,1-8.422-3.883,13.546,13.546,0,0,1-3.429-9.28,13.546,13.546,0,0,1,3.429-9.28A10.807,10.807,0,0,1,52.4-38.3a9.17,9.17,0,0,1,4.337,1.009,8.451,8.451,0,0,1,2.925,2.37v-2.824h6.909v25.216H59.659v-2.824a8.451,8.451,0,0,1-2.925,2.37A9.17,9.17,0,0,1,52.4-11.97Zm-3.177-8.22a6.011,6.011,0,0,0,4.64,1.916,5.932,5.932,0,0,0,4.615-1.916,7.069,7.069,0,0,0,1.74-4.942,7.069,7.069,0,0,0-1.74-4.942,5.932,5.932,0,0,0-4.615-1.916,5.932,5.932,0,0,0-4.615,1.916,7.069,7.069,0,0,0-1.74,4.942A7.132,7.132,0,0,0,49.22-20.191Zm24.056,7.666V-50.349h6.909v37.824Zm16.239,0V-31.689H84.421v-6.052h5.094v-3.278a9.244,9.244,0,0,1,2.723-7.061,9.661,9.661,0,0,1,6.909-2.572,15.147,15.147,0,0,1,4.388.555v6.1a8.026,8.026,0,0,0-2.824-.454,4.577,4.577,0,0,0-3.278.983,4.489,4.489,0,0,0-1.009,3.3v2.421h7.111v6.052H96.424v19.164Zm49.928-32.327a11.381,11.381,0,0,1,3.581,8.574,11.462,11.462,0,0,1-3.581,8.6,12.413,12.413,0,0,1-8.977,3.455h-4.589v11.7h-7.313V-48.332h11.9A12.364,12.364,0,0,1,139.443-44.852ZM134.4-32.547a4.966,4.966,0,0,0,1.513-3.732,4.966,4.966,0,0,0-1.513-3.732,5.559,5.559,0,0,0-4.035-1.463h-4.488v10.389h4.488A5.559,5.559,0,0,0,134.4-32.547Zm12.81,20.022V-37.741h6.909v4.035a6.328,6.328,0,0,1,2.4-3.1,6.512,6.512,0,0,1,3.858-1.236,8.086,8.086,0,0,1,2.32.3v7.01a9.911,9.911,0,0,0-3.127-.555,4.888,4.888,0,0,0-3.959,1.79,7.466,7.466,0,0,0-1.488,4.917v12.053Zm23.35-29.352a4.252,4.252,0,0,1-3.076-1.286,4.186,4.186,0,0,1-1.311-3.1,4.186,4.186,0,0,1,1.311-3.1,4.252,4.252,0,0,1,3.076-1.286,4.286,4.286,0,0,1,3.152,1.286,4.227,4.227,0,0,1,1.286,3.1,4.227,4.227,0,0,1-1.286,3.1A4.286,4.286,0,0,1,170.56-41.877ZM167.13-12.525V-37.741h6.909v25.216Zm25.216.555a12.816,12.816,0,0,1-9.481-3.808,12.761,12.761,0,0,1-3.782-9.355,12.761,12.761,0,0,1,3.782-9.355,12.816,12.816,0,0,1,9.481-3.808,12.787,12.787,0,0,1,8.447,2.824,13.166,13.166,0,0,1,4.463,7.363H198.1a5.835,5.835,0,0,0-5.749-3.934,5.93,5.93,0,0,0-4.539,1.891,7.059,7.059,0,0,0-1.765,5.018,7.059,7.059,0,0,0,1.765,5.018,5.93,5.93,0,0,0,4.539,1.891,5.835,5.835,0,0,0,5.749-3.934h7.161a13.166,13.166,0,0,1-4.463,7.363A12.787,12.787,0,0,1,192.346-11.97Zm29.2,0A12.824,12.824,0,0,1,212.04-15.7a12.892,12.892,0,0,1-3.707-9.481,12.676,12.676,0,0,1,3.757-9.38A12.93,12.93,0,0,1,221.6-38.3a12.847,12.847,0,0,1,9.633,3.959q3.833,3.959,3.53,10.818H215.091a5.808,5.808,0,0,0,1.967,3.959,6.973,6.973,0,0,0,4.842,1.589,7.186,7.186,0,0,0,3.3-.731,4.3,4.3,0,0,0,2.043-2.043h7.212a11.336,11.336,0,0,1-4.64,6.329A14.16,14.16,0,0,1,221.547-11.97ZM221.4-32.7a6.254,6.254,0,0,0-3.959,1.236,5.826,5.826,0,0,0-2.093,3.4H227.2A5.61,5.61,0,0,0,225-31.563,6.2,6.2,0,0,0,221.4-32.7Z" transform="translate(20182.412 -20089.064)" fill="#fff"/>
    <path id="Path_5282" data-name="Path 5282" d="M1.836,8.329l-.691-.5L2.13,6.461.518,5.924.761,5.1,2.4,5.642V4h.857V5.642l1.625-.525.269.806-1.625.537L4.536,7.83l-.691.5L2.834,6.96Zm5.015,4.76V4h1.19V7.881h4.977V4h1.19v9.084h-1.19V8.994H8.042v4.094Zm12.117.128a2.923,2.923,0,0,1-2.233-.972,3.337,3.337,0,0,1-.9-2.354,3.337,3.337,0,0,1,.9-2.354,2.923,2.923,0,0,1,2.233-.972,2.819,2.819,0,0,1,1.311.313,2.494,2.494,0,0,1,.94.8V6.691h1.1v6.4h-1.1V12.1a2.494,2.494,0,0,1-.94.8A2.819,2.819,0,0,1,18.968,13.217Zm.166-1.011a2.031,2.031,0,0,0,1.561-.665A2.341,2.341,0,0,0,21.31,9.89,2.341,2.341,0,0,0,20.7,8.24a2.179,2.179,0,0,0-3.135,0,2.341,2.341,0,0,0-.614,1.651,2.341,2.341,0,0,0,.614,1.651A2.046,2.046,0,0,0,19.134,12.206Zm5.259.883v-9.6h1.1v9.6Zm3.723,0V7.7H26.76V6.691h1.356V5.4a1.936,1.936,0,0,1,.537-1.471,1.974,1.974,0,0,1,1.42-.512,2.989,2.989,0,0,1,1,.166v.972a2.026,2.026,0,0,0-.793-.128,1.139,1.139,0,0,0-.806.243,1.136,1.136,0,0,0-.256.844V6.691h1.855V7.7H29.217v5.387Zm8.009,2.674h-1.1V6.691h1.1v.985a2.494,2.494,0,0,1,.94-.8,2.819,2.819,0,0,1,1.311-.313,2.923,2.923,0,0,1,2.233.972,3.337,3.337,0,0,1,.9,2.354,3.337,3.337,0,0,1-.9,2.354,2.923,2.923,0,0,1-2.233.972,2.819,2.819,0,0,1-1.311-.313,2.494,2.494,0,0,1-.94-.8Zm.525-4.222a2.164,2.164,0,0,0,3.122,0,2.341,2.341,0,0,0,.614-1.651,2.341,2.341,0,0,0-.614-1.651,2.164,2.164,0,0,0-3.122,0,2.341,2.341,0,0,0-.614,1.651A2.341,2.341,0,0,0,36.65,11.541ZM43.1,13.089v-6.4h1.1V7.933a1.739,1.739,0,0,1,.7-.947,1.892,1.892,0,0,1,1.094-.358,2.19,2.19,0,0,1,.5.051V7.817a1.5,1.5,0,0,0-.6-.1,1.539,1.539,0,0,0-1.177.576A2.364,2.364,0,0,0,44.2,9.916v3.173Zm5.8-8.329a.746.746,0,0,1-.55.218.777.777,0,0,1-.563-.224.78.78,0,0,1,0-1.107.766.766,0,0,1,.563-.23.724.724,0,0,1,.55.23.773.773,0,0,1,.218.55A.789.789,0,0,1,48.895,4.759Zm-1.113,8.329v-6.4h1.1v6.4Zm6.026.128a3.209,3.209,0,0,1-2.393-.966,3.245,3.245,0,0,1-.947-2.361,3.245,3.245,0,0,1,.947-2.361,3.209,3.209,0,0,1,2.393-.966,3.315,3.315,0,0,1,2.06.659,3.16,3.16,0,0,1,1.164,1.721H55.855a2.034,2.034,0,0,0-.768-1,2.2,2.2,0,0,0-1.279-.371A2.1,2.1,0,0,0,52.2,8.24a2.328,2.328,0,0,0-.621,1.651,2.328,2.328,0,0,0,.621,1.651,2.1,2.1,0,0,0,1.606.665,2.2,2.2,0,0,0,1.279-.371,2.034,2.034,0,0,0,.768-1h1.177a3.1,3.1,0,0,1-1.152,1.721A3.334,3.334,0,0,1,53.808,13.217Zm7.408,0a3.076,3.076,0,0,1-2.309-.947,3.287,3.287,0,0,1-.915-2.38A3.334,3.334,0,0,1,58.881,7.5a3.1,3.1,0,0,1,2.361-.94A2.825,2.825,0,0,1,63.57,7.613a3.567,3.567,0,0,1,.742,2.572H59.1a2,2,0,0,0,.64,1.452,2.079,2.079,0,0,0,1.484.582,1.919,1.919,0,0,0,1.855-1.075H64.21a2.691,2.691,0,0,1-1.036,1.484A3.194,3.194,0,0,1,61.216,13.217ZM62.47,8A1.854,1.854,0,0,0,61.2,7.536a2.114,2.114,0,0,0-1.324.448,1.994,1.994,0,0,0-.723,1.331h3.992A2.155,2.155,0,0,0,62.47,8Zm8.572,5.22a2.98,2.98,0,0,1-1.8-.525,1.907,1.907,0,0,1-.8-1.459h1.126a1.129,1.129,0,0,0,.518.793,1.806,1.806,0,0,0,.966.256,1.625,1.625,0,0,0,.889-.218.7.7,0,0,0,.339-.627.837.837,0,0,0-.249-.627,1.869,1.869,0,0,0-.812-.4l-.921-.243A1.875,1.875,0,0,1,68.65,8.291a1.5,1.5,0,0,1,.621-1.254,2.553,2.553,0,0,1,1.593-.473,2.473,2.473,0,0,1,1.619.518,1.87,1.87,0,0,1,.71,1.311h-1.1a1.234,1.234,0,0,0-1.228-.908,1.348,1.348,0,0,0-.787.218.67.67,0,0,0-.313.576.739.739,0,0,0,.23.563,1.766,1.766,0,0,0,.742.358l1.024.269A1.854,1.854,0,0,1,73.4,11.361a1.6,1.6,0,0,1-.653,1.388A2.859,2.859,0,0,1,71.042,13.217Zm6.551,0a2.923,2.923,0,0,1-2.233-.972,3.337,3.337,0,0,1-.9-2.354,3.337,3.337,0,0,1,.9-2.354,2.923,2.923,0,0,1,2.233-.972,2.819,2.819,0,0,1,1.311.313,2.494,2.494,0,0,1,.94.8V6.691h1.1v6.4h-1.1V12.1a2.494,2.494,0,0,1-.94.8A2.819,2.819,0,0,1,77.593,13.217Zm.166-1.011a2.031,2.031,0,0,0,1.561-.665,2.341,2.341,0,0,0,.614-1.651A2.341,2.341,0,0,0,79.32,8.24a2.179,2.179,0,0,0-3.135,0,2.341,2.341,0,0,0-.614,1.651,2.341,2.341,0,0,0,.614,1.651A2.046,2.046,0,0,0,77.759,12.206Zm5.259.883v-9.6h1.1v9.6Zm5.911.128a3.076,3.076,0,0,1-2.309-.947A3.287,3.287,0,0,1,85.7,9.89,3.334,3.334,0,0,1,86.594,7.5a3.1,3.1,0,0,1,2.361-.94,2.825,2.825,0,0,1,2.329,1.049,3.567,3.567,0,0,1,.742,2.572H86.818a2,2,0,0,0,.64,1.452,2.079,2.079,0,0,0,1.484.582A1.919,1.919,0,0,0,90.8,11.144h1.126a2.691,2.691,0,0,1-1.036,1.484A3.194,3.194,0,0,1,88.929,13.217ZM90.183,8a1.854,1.854,0,0,0-1.267-.461,2.115,2.115,0,0,0-1.324.448,1.994,1.994,0,0,0-.723,1.331h3.992A2.155,2.155,0,0,0,90.183,8Zm9.353,5.22A3.278,3.278,0,0,1,96.184,9.89a3.346,3.346,0,1,1,6.692,0,3.278,3.278,0,0,1-3.339,3.327Zm-1.612-1.689a2.116,2.116,0,0,0,1.612.665,2.076,2.076,0,0,0,1.6-.665,2.324,2.324,0,0,0,.614-1.638,2.324,2.324,0,0,0-.614-1.638,2.263,2.263,0,0,0-3.205,0A2.311,2.311,0,0,0,97.31,9.89,2.325,2.325,0,0,0,97.924,11.528Zm6.96,1.561V7.7h-1.356V6.691h1.356V5.374a1.893,1.893,0,0,1,.537-1.459,2,2,0,0,1,1.42-.5,2.989,2.989,0,0,1,1,.166v.972a1.914,1.914,0,0,0-.793-.128,1.139,1.139,0,0,0-.806.243,1.136,1.136,0,0,0-.256.844V6.691h1.574V7.7h-1.574v5.387Zm4.478,0V7.7h-1.1V6.691h1.1V5.374a1.893,1.893,0,0,1,.537-1.459,2,2,0,0,1,1.42-.5,2.989,2.989,0,0,1,1,.166v.972a2.067,2.067,0,0,0-.806-.128,1.114,1.114,0,0,0-.8.243,1.155,1.155,0,0,0-.249.844V6.691h1.855V7.7h-1.855v5.387Zm6.717.128a3.076,3.076,0,0,1-2.309-.947,3.287,3.287,0,0,1-.915-2.38,3.334,3.334,0,0,1,.889-2.386,3.1,3.1,0,0,1,2.361-.94,2.825,2.825,0,0,1,2.329,1.049,3.567,3.567,0,0,1,.742,2.572h-5.207a2,2,0,0,0,.64,1.452,2.079,2.079,0,0,0,1.484.582,1.919,1.919,0,0,0,1.855-1.075h1.126a2.691,2.691,0,0,1-1.036,1.484A3.194,3.194,0,0,1,116.079,13.217ZM117.333,8a1.854,1.854,0,0,0-1.267-.461,2.114,2.114,0,0,0-1.324.448,1.994,1.994,0,0,0-.723,1.331h3.992A2.155,2.155,0,0,0,117.333,8Zm3.429,5.092v-6.4h1.1V7.933a1.739,1.739,0,0,1,.7-.947,1.892,1.892,0,0,1,1.094-.358,2.19,2.19,0,0,1,.5.051V7.817a1.5,1.5,0,0,0-.6-.1,1.539,1.539,0,0,0-1.177.576,2.364,2.364,0,0,0-.512,1.625v3.173Zm9.161,0-2.956-6.4H128.2l2.188,4.849,2.188-4.849H133.8l-2.956,6.4Zm7.5.128a2.923,2.923,0,0,1-2.233-.972,3.337,3.337,0,0,1-.9-2.354,3.337,3.337,0,0,1,.9-2.354,2.923,2.923,0,0,1,2.233-.972,2.819,2.819,0,0,1,1.311.313,2.494,2.494,0,0,1,.94.8V6.691h1.1v6.4h-1.1V12.1a2.494,2.494,0,0,1-.94.8A2.819,2.819,0,0,1,137.421,13.217Zm.166-1.011a2.031,2.031,0,0,0,1.561-.665,2.341,2.341,0,0,0,.614-1.651,2.341,2.341,0,0,0-.614-1.651,2.179,2.179,0,0,0-3.135,0A2.341,2.341,0,0,0,135.4,9.89a2.341,2.341,0,0,0,.614,1.651A2.046,2.046,0,0,0,137.587,12.206Zm5.259.883v-9.6h1.1v9.6Zm4.3-8.329a.746.746,0,0,1-.55.218.777.777,0,0,1-.563-.224.78.78,0,0,1,0-1.107.766.766,0,0,1,.563-.23.724.724,0,0,1,.55.23.773.773,0,0,1,.217.55A.789.789,0,0,1,147.145,4.759Zm-1.113,8.329v-6.4h1.1v6.4Zm5.822.128a2.923,2.923,0,0,1-2.233-.972,3.337,3.337,0,0,1-.9-2.354,3.337,3.337,0,0,1,.9-2.354,2.923,2.923,0,0,1,2.233-.972,2.819,2.819,0,0,1,1.311.313,2.494,2.494,0,0,1,.94.8V3.493h1.1v9.6h-1.1V12.1a2.494,2.494,0,0,1-.94.8A2.819,2.819,0,0,1,151.853,13.217Zm.166-1.011a2.031,2.031,0,0,0,1.561-.665,2.341,2.341,0,0,0,.614-1.651,2.341,2.341,0,0,0-.614-1.651,2.179,2.179,0,0,0-3.135,0,2.341,2.341,0,0,0-.614,1.651,2.341,2.341,0,0,0,.614,1.651A2.046,2.046,0,0,0,152.02,12.206ZM163.2,13.217A3.278,3.278,0,0,1,159.85,9.89a3.346,3.346,0,1,1,6.692,0,3.278,3.278,0,0,1-3.339,3.327Zm-1.612-1.689a2.116,2.116,0,0,0,1.612.665,2.076,2.076,0,0,0,1.6-.665,2.325,2.325,0,0,0,.614-1.638,2.325,2.325,0,0,0-.614-1.638,2.263,2.263,0,0,0-3.205,0,2.311,2.311,0,0,0-.621,1.638A2.325,2.325,0,0,0,161.59,11.528Zm6.525,1.561v-6.4h1.1v.985a2.192,2.192,0,0,1,2.034-1.113,2.3,2.3,0,0,1,1.753.7,2.625,2.625,0,0,1,.665,1.881v3.941h-1.088V9.314a1.864,1.864,0,0,0-.409-1.273,1.39,1.39,0,0,0-1.1-.467,1.666,1.666,0,0,0-1.324.627,2.569,2.569,0,0,0-.531,1.714v3.173Zm13.255.128a2.923,2.923,0,0,1-2.233-.972,3.337,3.337,0,0,1-.9-2.354,3.337,3.337,0,0,1,.9-2.354,2.923,2.923,0,0,1,2.233-.972,2.819,2.819,0,0,1,1.311.313,2.494,2.494,0,0,1,.94.8V6.691h1.1v6.4h-1.1V12.1a2.494,2.494,0,0,1-.94.8A2.819,2.819,0,0,1,181.37,13.217Zm.166-1.011a2.031,2.031,0,0,0,1.561-.665,2.341,2.341,0,0,0,.614-1.651A2.341,2.341,0,0,0,183.1,8.24a2.179,2.179,0,0,0-3.135,0,2.341,2.341,0,0,0-.614,1.651,2.341,2.341,0,0,0,.614,1.651A2.046,2.046,0,0,0,181.537,12.206Zm5.259.883v-9.6h1.1v9.6Zm3.186,0v-9.6h1.1v9.6Zm8.329.128a2.98,2.98,0,0,1-1.8-.525,1.907,1.907,0,0,1-.8-1.459h1.126a1.129,1.129,0,0,0,.518.793,1.806,1.806,0,0,0,.966.256,1.625,1.625,0,0,0,.889-.218.7.7,0,0,0,.339-.627.837.837,0,0,0-.249-.627,1.869,1.869,0,0,0-.812-.4l-.921-.243a1.875,1.875,0,0,1-1.65-1.881,1.5,1.5,0,0,1,.621-1.254,2.553,2.553,0,0,1,1.593-.473,2.473,2.473,0,0,1,1.619.518,1.87,1.87,0,0,1,.71,1.311h-1.1a1.234,1.234,0,0,0-1.228-.908,1.348,1.348,0,0,0-.787.218.67.67,0,0,0-.313.576.739.739,0,0,0,.23.563A1.766,1.766,0,0,0,198,9.2l1.024.269a1.854,1.854,0,0,1,1.638,1.894,1.6,1.6,0,0,1-.653,1.388A2.859,2.859,0,0,1,198.311,13.217Zm6.64,0a3.076,3.076,0,0,1-2.309-.947,3.287,3.287,0,0,1-.915-2.38,3.334,3.334,0,0,1,.889-2.386,3.1,3.1,0,0,1,2.361-.94,2.825,2.825,0,0,1,2.329,1.049,3.567,3.567,0,0,1,.742,2.572H202.84a2,2,0,0,0,.64,1.452,2.079,2.079,0,0,0,1.484.582,1.919,1.919,0,0,0,1.855-1.075h1.126a2.691,2.691,0,0,1-1.036,1.484A3.194,3.194,0,0,1,204.951,13.217ZM206.2,8a1.854,1.854,0,0,0-1.267-.461,2.115,2.115,0,0,0-1.324.448,1.994,1.994,0,0,0-.723,1.331h3.992A2.155,2.155,0,0,0,206.2,8Zm6.269,5.22a3.209,3.209,0,0,1-2.393-.966,3.245,3.245,0,0,1-.947-2.361,3.245,3.245,0,0,1,.947-2.361,3.209,3.209,0,0,1,2.393-.966,3.314,3.314,0,0,1,2.06.659A3.16,3.16,0,0,1,215.7,8.943h-1.177a2.034,2.034,0,0,0-.768-1,2.2,2.2,0,0,0-1.279-.371,2.1,2.1,0,0,0-1.606.665,2.328,2.328,0,0,0-.621,1.651,2.328,2.328,0,0,0,.621,1.651,2.1,2.1,0,0,0,1.606.665,2.2,2.2,0,0,0,1.279-.371,2.034,2.034,0,0,0,.768-1H215.7a3.1,3.1,0,0,1-1.152,1.721A3.334,3.334,0,0,1,212.474,13.217Zm7.523,0a3.278,3.278,0,0,1-3.352-3.327,3.346,3.346,0,1,1,6.692,0A3.278,3.278,0,0,1,220,13.217Zm-1.612-1.689a2.116,2.116,0,0,0,1.612.665,2.076,2.076,0,0,0,1.6-.665,2.325,2.325,0,0,0,.614-1.638,2.325,2.325,0,0,0-.614-1.638,2.263,2.263,0,0,0-3.205,0,2.311,2.311,0,0,0-.621,1.638A2.325,2.325,0,0,0,218.385,11.528Zm6.525,1.561v-6.4h1.1v.985a2.192,2.192,0,0,1,2.034-1.113,2.3,2.3,0,0,1,1.753.7,2.625,2.625,0,0,1,.665,1.881v3.941h-1.088V9.314a1.864,1.864,0,0,0-.409-1.273,1.39,1.39,0,0,0-1.1-.467,1.666,1.666,0,0,0-1.324.627,2.569,2.569,0,0,0-.531,1.714v3.173Zm10.172.128a2.923,2.923,0,0,1-2.233-.972,3.337,3.337,0,0,1-.9-2.354,3.337,3.337,0,0,1,.9-2.354,2.923,2.923,0,0,1,2.233-.972,2.819,2.819,0,0,1,1.311.313,2.494,2.494,0,0,1,.94.8V3.493h1.1v9.6h-1.1V12.1a2.494,2.494,0,0,1-.94.8A2.819,2.819,0,0,1,235.082,13.217Zm.166-1.011a2.031,2.031,0,0,0,1.561-.665,2.341,2.341,0,0,0,.614-1.651,2.341,2.341,0,0,0-.614-1.651,2.179,2.179,0,0,0-3.135,0,2.341,2.341,0,0,0-.614,1.651,2.341,2.341,0,0,0,.614,1.651A2.046,2.046,0,0,0,235.249,12.206ZM244.7,4.759a.746.746,0,0,1-.55.218.777.777,0,0,1-.563-.224.78.78,0,0,1,0-1.107.766.766,0,0,1,.563-.23.724.724,0,0,1,.55.23.773.773,0,0,1,.218.55A.789.789,0,0,1,244.7,4.759Zm-1.113,8.329v-6.4h1.1v6.4Zm5.668.064a2,2,0,0,1-1.42-.5A1.893,1.893,0,0,1,247.3,11.2V7.7h-1.356V6.691H247.3V4.913h1.1V6.691h1.842V7.7H248.4v3.352a1.136,1.136,0,0,0,.256.844,1.139,1.139,0,0,0,.806.243,1.986,1.986,0,0,0,.78-.128V13A3.1,3.1,0,0,1,249.259,13.153Zm5.028.064a3.076,3.076,0,0,1-2.309-.947,3.287,3.287,0,0,1-.915-2.38,3.334,3.334,0,0,1,.889-2.386,3.1,3.1,0,0,1,2.361-.94,2.825,2.825,0,0,1,2.329,1.049,3.567,3.567,0,0,1,.742,2.572h-5.207a2.005,2.005,0,0,0,.64,1.452,2.079,2.079,0,0,0,1.484.582,1.919,1.919,0,0,0,1.855-1.075h1.126a2.691,2.691,0,0,1-1.036,1.484A3.194,3.194,0,0,1,254.287,13.217ZM255.541,8a1.854,1.854,0,0,0-1.267-.461,2.114,2.114,0,0,0-1.324.448,1.994,1.994,0,0,0-.723,1.331h3.992A2.155,2.155,0,0,0,255.541,8Zm11.669,5.092V9.327a2.227,2.227,0,0,0-.326-1.273,1.068,1.068,0,0,0-.94-.48,1.522,1.522,0,0,0-1.247.6,2.666,2.666,0,0,0-.505,1.638v3.275h-1.1V9.327a2.221,2.221,0,0,0-.326-1.279,1.06,1.06,0,0,0-.928-.473,1.536,1.536,0,0,0-1.279.633,2.736,2.736,0,0,0-.486,1.708v3.173h-1.1v-6.4h1.1v.985A2.053,2.053,0,0,1,262,6.563a1.937,1.937,0,0,1,1.97,1.369,2.135,2.135,0,0,1,.819-1,2.273,2.273,0,0,1,1.279-.371,2.042,2.042,0,0,1,1.638.7,2.817,2.817,0,0,1,.6,1.894v3.928Zm5.143.128a2.98,2.98,0,0,1-1.8-.525,1.907,1.907,0,0,1-.8-1.459h1.126a1.129,1.129,0,0,0,.518.793,1.806,1.806,0,0,0,.966.256,1.625,1.625,0,0,0,.889-.218.7.7,0,0,0,.339-.627.837.837,0,0,0-.25-.627,1.869,1.869,0,0,0-.812-.4l-.921-.243a1.875,1.875,0,0,1-1.651-1.881,1.5,1.5,0,0,1,.621-1.254,2.553,2.553,0,0,1,1.593-.473,2.473,2.473,0,0,1,1.619.518,1.87,1.87,0,0,1,.71,1.311h-1.1a1.234,1.234,0,0,0-1.228-.908,1.348,1.348,0,0,0-.787.218.67.67,0,0,0-.313.576.739.739,0,0,0,.23.563,1.766,1.766,0,0,0,.742.358l1.024.269a1.854,1.854,0,0,1,1.638,1.894,1.6,1.6,0,0,1-.653,1.388A2.859,2.859,0,0,1,272.353,13.217Zm5.156-.307a.883.883,0,0,1-.665.281.9.9,0,0,1-.672-.281.958.958,0,0,1,.006-1.35.913.913,0,0,1,1.331,0,.95.95,0,0,1,0,1.35Zm5.233.179V4h1.19V7.881h4.977V4h1.19v9.084h-1.19V8.994h-4.977v4.094Zm12.117.128a2.923,2.923,0,0,1-2.233-.972,3.337,3.337,0,0,1-.9-2.354,3.337,3.337,0,0,1,.9-2.354,2.923,2.923,0,0,1,2.233-.972,2.819,2.819,0,0,1,1.311.313,2.5,2.5,0,0,1,.94.8V6.691h1.1v6.4h-1.1V12.1a2.5,2.5,0,0,1-.94.8A2.819,2.819,0,0,1,294.859,13.217Zm.166-1.011a2.031,2.031,0,0,0,1.561-.665A2.341,2.341,0,0,0,297.2,9.89a2.341,2.341,0,0,0-.614-1.651,2.179,2.179,0,0,0-3.135,0,2.341,2.341,0,0,0-.614,1.651,2.341,2.341,0,0,0,.614,1.651A2.046,2.046,0,0,0,295.025,12.206Zm5.259.883v-9.6h1.1v9.6Zm3.723,0V7.7h-1.356V6.691h1.356V5.4a1.936,1.936,0,0,1,.537-1.471,1.974,1.974,0,0,1,1.42-.512,2.989,2.989,0,0,1,1,.166v.972a2.026,2.026,0,0,0-.793-.128,1.139,1.139,0,0,0-.806.243,1.136,1.136,0,0,0-.256.844V6.691h1.855V7.7h-1.855v5.387Zm8.009,2.674h-1.1V6.691h1.1v.985a2.5,2.5,0,0,1,.94-.8,2.819,2.819,0,0,1,1.311-.313,2.923,2.923,0,0,1,2.233.972,3.337,3.337,0,0,1,.9,2.354,3.337,3.337,0,0,1-.9,2.354,2.923,2.923,0,0,1-2.233.972,2.819,2.819,0,0,1-1.311-.313,2.5,2.5,0,0,1-.94-.8Zm.525-4.222a2.164,2.164,0,0,0,3.122,0,2.341,2.341,0,0,0,.614-1.651,2.341,2.341,0,0,0-.614-1.651,2.164,2.164,0,0,0-3.122,0,2.341,2.341,0,0,0-.614,1.651A2.341,2.341,0,0,0,312.541,11.541Zm6.448,1.548v-6.4h1.1V7.933a1.739,1.739,0,0,1,.7-.947,1.892,1.892,0,0,1,1.094-.358,2.19,2.19,0,0,1,.5.051V7.817a1.5,1.5,0,0,0-.6-.1,1.539,1.539,0,0,0-1.177.576,2.364,2.364,0,0,0-.512,1.625v3.173Zm5.8-8.329a.746.746,0,0,1-.55.218.777.777,0,0,1-.563-.224.78.78,0,0,1,0-1.107.766.766,0,0,1,.563-.23.724.724,0,0,1,.55.23A.773.773,0,0,1,325,4.2.789.789,0,0,1,324.786,4.759Zm-1.113,8.329v-6.4h1.1v6.4Zm6.026.128a3.209,3.209,0,0,1-2.393-.966,3.245,3.245,0,0,1-.947-2.361,3.245,3.245,0,0,1,.947-2.361,3.209,3.209,0,0,1,2.393-.966,3.314,3.314,0,0,1,2.06.659,3.16,3.16,0,0,1,1.164,1.721h-1.177a2.034,2.034,0,0,0-.768-1,2.2,2.2,0,0,0-1.279-.371,2.1,2.1,0,0,0-1.606.665,2.328,2.328,0,0,0-.621,1.651,2.328,2.328,0,0,0,.621,1.651,2.1,2.1,0,0,0,1.606.665,2.2,2.2,0,0,0,1.279-.371,2.034,2.034,0,0,0,.768-1h1.177a3.1,3.1,0,0,1-1.151,1.721A3.335,3.335,0,0,1,329.7,13.217Zm7.408,0a3.076,3.076,0,0,1-2.309-.947,3.287,3.287,0,0,1-.915-2.38,3.334,3.334,0,0,1,.889-2.386,3.1,3.1,0,0,1,2.361-.94,2.825,2.825,0,0,1,2.329,1.049,3.567,3.567,0,0,1,.742,2.572H335a2.005,2.005,0,0,0,.64,1.452,2.079,2.079,0,0,0,1.484.582,1.919,1.919,0,0,0,1.855-1.075H340.1a2.691,2.691,0,0,1-1.036,1.484A3.194,3.194,0,0,1,337.107,13.217ZM338.361,8a1.854,1.854,0,0,0-1.267-.461,2.114,2.114,0,0,0-1.324.448,1.994,1.994,0,0,0-.723,1.331h3.992A2.155,2.155,0,0,0,338.361,8Zm7.626-3.237a.746.746,0,0,1-.55.218.777.777,0,0,1-.563-.224.78.78,0,0,1,0-1.107.766.766,0,0,1,.563-.23.724.724,0,0,1,.55.23.774.774,0,0,1,.218.55A.789.789,0,0,1,345.986,4.759Zm-1.113,8.329v-6.4h1.1v6.4Zm5.668.064a2,2,0,0,1-1.42-.5,1.893,1.893,0,0,1-.537-1.459V7.7h-1.356V6.691h1.356V4.913h1.1V6.691h1.842V7.7h-1.842v3.352a1.136,1.136,0,0,0,.256.844,1.139,1.139,0,0,0,.806.243,1.986,1.986,0,0,0,.78-.128V13A3.1,3.1,0,0,1,350.541,13.153Zm5.028.064a3.076,3.076,0,0,1-2.309-.947,3.287,3.287,0,0,1-.915-2.38,3.334,3.334,0,0,1,.889-2.386,3.1,3.1,0,0,1,2.361-.94,2.825,2.825,0,0,1,2.329,1.049,3.567,3.567,0,0,1,.742,2.572h-5.207a2,2,0,0,0,.64,1.452,2.079,2.079,0,0,0,1.484.582,1.919,1.919,0,0,0,1.855-1.075h1.126a2.691,2.691,0,0,1-1.036,1.484A3.194,3.194,0,0,1,355.569,13.217ZM356.823,8a1.854,1.854,0,0,0-1.267-.461,2.114,2.114,0,0,0-1.324.448,1.994,1.994,0,0,0-.723,1.331H357.5A2.155,2.155,0,0,0,356.823,8Zm11.669,5.092V9.327a2.227,2.227,0,0,0-.326-1.273,1.068,1.068,0,0,0-.94-.48,1.522,1.522,0,0,0-1.247.6,2.666,2.666,0,0,0-.505,1.638v3.275h-1.1V9.327a2.221,2.221,0,0,0-.326-1.279,1.06,1.06,0,0,0-.928-.473,1.536,1.536,0,0,0-1.279.633,2.736,2.736,0,0,0-.486,1.708v3.173h-1.1v-6.4h1.1v.985a2.053,2.053,0,0,1,1.932-1.113,1.937,1.937,0,0,1,1.97,1.369,2.135,2.135,0,0,1,.819-1,2.273,2.273,0,0,1,1.279-.371,2.042,2.042,0,0,1,1.638.7,2.817,2.817,0,0,1,.6,1.894v3.928Zm14.407,0V9.327a2.227,2.227,0,0,0-.326-1.273,1.068,1.068,0,0,0-.94-.48,1.522,1.522,0,0,0-1.247.6,2.665,2.665,0,0,0-.505,1.638v3.275h-1.1V9.327a2.221,2.221,0,0,0-.326-1.279,1.06,1.06,0,0,0-.928-.473,1.536,1.536,0,0,0-1.279.633,2.736,2.736,0,0,0-.486,1.708v3.173h-1.1v-6.4h1.1v.985a2.053,2.053,0,0,1,1.932-1.113,1.937,1.937,0,0,1,1.97,1.369,2.135,2.135,0,0,1,.819-1,2.273,2.273,0,0,1,1.279-.371,2.042,2.042,0,0,1,1.638.7,2.817,2.817,0,0,1,.6,1.894v3.928Zm5.348.128a2.2,2.2,0,0,1-1.7-.71,2.68,2.68,0,0,1-.652-1.887V6.691h1.1v3.762a1.951,1.951,0,0,0,.39,1.279,1.3,1.3,0,0,0,1.056.473,1.563,1.563,0,0,0,1.273-.633,2.662,2.662,0,0,0,.505-1.708V6.691h1.1v6.4h-1.1V12.1A2.1,2.1,0,0,1,388.247,13.217Zm7.2,0a2.98,2.98,0,0,1-1.8-.525,1.907,1.907,0,0,1-.8-1.459h1.126a1.129,1.129,0,0,0,.518.793,1.806,1.806,0,0,0,.966.256,1.625,1.625,0,0,0,.889-.218.7.7,0,0,0,.339-.627.837.837,0,0,0-.25-.627,1.869,1.869,0,0,0-.812-.4l-.921-.243a1.875,1.875,0,0,1-1.651-1.881,1.5,1.5,0,0,1,.621-1.254,2.553,2.553,0,0,1,1.593-.473,2.473,2.473,0,0,1,1.619.518,1.87,1.87,0,0,1,.71,1.311h-1.1a1.234,1.234,0,0,0-1.228-.908,1.348,1.348,0,0,0-.787.218.67.67,0,0,0-.313.576.739.739,0,0,0,.23.563,1.766,1.766,0,0,0,.742.358l1.024.269a1.854,1.854,0,0,1,1.638,1.894,1.6,1.6,0,0,1-.653,1.388A2.859,2.859,0,0,1,395.45,13.217Zm6.295-.064a2,2,0,0,1-1.42-.5,1.893,1.893,0,0,1-.537-1.459V7.7h-1.356V6.691h1.356V4.913h1.1V6.691h1.842V7.7h-1.842v3.352a1.136,1.136,0,0,0,.256.844,1.139,1.139,0,0,0,.806.243,1.986,1.986,0,0,0,.78-.128V13A3.1,3.1,0,0,1,401.745,13.153Zm8.828.064a2.819,2.819,0,0,1-1.311-.313,2.494,2.494,0,0,1-.94-.8v.985h-1.1v-9.6h1.1V7.677a2.494,2.494,0,0,1,.94-.8,2.819,2.819,0,0,1,1.311-.313,2.923,2.923,0,0,1,2.233.972,3.337,3.337,0,0,1,.9,2.354,3.337,3.337,0,0,1-.9,2.354A2.923,2.923,0,0,1,410.574,13.217Zm-1.727-1.676a2.164,2.164,0,0,0,3.122,0,2.341,2.341,0,0,0,.614-1.651,2.341,2.341,0,0,0-.614-1.651,2.164,2.164,0,0,0-3.122,0,2.341,2.341,0,0,0-.614,1.651A2.341,2.341,0,0,0,408.846,11.541Zm9.161,1.676a3.076,3.076,0,0,1-2.309-.947,3.287,3.287,0,0,1-.915-2.38,3.334,3.334,0,0,1,.889-2.386,3.1,3.1,0,0,1,2.361-.94,2.825,2.825,0,0,1,2.329,1.049,3.567,3.567,0,0,1,.742,2.572H415.9a2,2,0,0,0,.64,1.452,2.079,2.079,0,0,0,1.484.582,1.919,1.919,0,0,0,1.855-1.075H421a2.691,2.691,0,0,1-1.036,1.484A3.194,3.194,0,0,1,418.007,13.217ZM419.261,8a1.854,1.854,0,0,0-1.267-.461,2.114,2.114,0,0,0-1.324.448,1.994,1.994,0,0,0-.723,1.331h3.992A2.155,2.155,0,0,0,419.261,8Zm9.353,5.22a3.278,3.278,0,0,1-3.352-3.327,3.346,3.346,0,1,1,6.692,0,3.278,3.278,0,0,1-3.339,3.327ZM427,11.528a2.116,2.116,0,0,0,1.612.665,2.076,2.076,0,0,0,1.6-.665,2.325,2.325,0,0,0,.614-1.638,2.325,2.325,0,0,0-.614-1.638,2.263,2.263,0,0,0-3.205,0,2.311,2.311,0,0,0-.621,1.638A2.325,2.325,0,0,0,427,11.528Zm6.96,1.561V7.7h-1.356V6.691h1.356V5.4a1.936,1.936,0,0,1,.537-1.471,1.974,1.974,0,0,1,1.42-.512,2.989,2.989,0,0,1,1,.166v.972a2.026,2.026,0,0,0-.793-.128,1.139,1.139,0,0,0-.806.243,1.136,1.136,0,0,0-.256.844V6.691h1.855V7.7h-1.855v5.387Zm9.174.064a2,2,0,0,1-1.42-.5,1.893,1.893,0,0,1-.537-1.459V7.7h-1.356V6.691h1.356V4.913h1.1V6.691h1.842V7.7h-1.842v3.352a1.136,1.136,0,0,0,.256.844,1.139,1.139,0,0,0,.806.243,1.986,1.986,0,0,0,.78-.128V13A3.1,3.1,0,0,1,443.136,13.153Zm3.493-.064h-1.1v-9.6h1.1V7.677a2.192,2.192,0,0,1,2.034-1.113,2.3,2.3,0,0,1,1.753.7,2.625,2.625,0,0,1,.665,1.881v3.941h-1.088V9.314a1.864,1.864,0,0,0-.409-1.273,1.39,1.39,0,0,0-1.1-.467,1.666,1.666,0,0,0-1.324.627,2.569,2.569,0,0,0-.531,1.714Zm9.161.128a3.076,3.076,0,0,1-2.309-.947,3.287,3.287,0,0,1-.915-2.38,3.334,3.334,0,0,1,.889-2.386,3.1,3.1,0,0,1,2.361-.94,2.825,2.825,0,0,1,2.329,1.049,3.567,3.567,0,0,1,.742,2.572h-5.207a2,2,0,0,0,.64,1.452,2.079,2.079,0,0,0,1.484.582,1.919,1.919,0,0,0,1.855-1.075h1.126a2.691,2.691,0,0,1-1.036,1.484A3.194,3.194,0,0,1,455.79,13.217ZM457.044,8a1.854,1.854,0,0,0-1.267-.461,2.114,2.114,0,0,0-1.324.448,1.994,1.994,0,0,0-.723,1.331h3.992A2.155,2.155,0,0,0,457.044,8ZM3.116,29.667a2.98,2.98,0,0,1-1.8-.525,1.907,1.907,0,0,1-.8-1.459H1.644a1.129,1.129,0,0,0,.518.793,1.806,1.806,0,0,0,.966.256,1.625,1.625,0,0,0,.889-.218.7.7,0,0,0,.339-.627.837.837,0,0,0-.249-.627,1.869,1.869,0,0,0-.812-.4l-.921-.243A1.875,1.875,0,0,1,.723,24.741a1.5,1.5,0,0,1,.621-1.254,2.553,2.553,0,0,1,1.593-.473,2.473,2.473,0,0,1,1.619.518,1.87,1.87,0,0,1,.71,1.311h-1.1a1.234,1.234,0,0,0-1.228-.908,1.348,1.348,0,0,0-.787.218.67.67,0,0,0-.313.576.739.739,0,0,0,.23.563,1.766,1.766,0,0,0,.742.358l1.024.269A1.854,1.854,0,0,1,5.47,27.812,1.6,1.6,0,0,1,4.817,29.2,2.859,2.859,0,0,1,3.116,29.667Zm6.551,0a2.923,2.923,0,0,1-2.233-.972,3.523,3.523,0,0,1,0-4.708,2.923,2.923,0,0,1,2.233-.972,2.819,2.819,0,0,1,1.311.313,2.494,2.494,0,0,1,.94.8v-.985h1.1v6.4h-1.1v-.985a2.494,2.494,0,0,1-.94.8A2.819,2.819,0,0,1,9.666,29.667Zm.166-1.011a2.031,2.031,0,0,0,1.561-.665,2.525,2.525,0,0,0,0-3.3,2.031,2.031,0,0,0-1.561-.665,2.046,2.046,0,0,0-1.574.665,2.525,2.525,0,0,0,0,3.3A2.046,2.046,0,0,0,9.833,28.656Zm13.5.883V25.777A2.227,2.227,0,0,0,23,24.5a1.068,1.068,0,0,0-.94-.48,1.522,1.522,0,0,0-1.247.6,2.666,2.666,0,0,0-.505,1.638v3.275h-1.1V25.777a2.221,2.221,0,0,0-.326-1.279,1.06,1.06,0,0,0-.928-.473,1.536,1.536,0,0,0-1.279.633,2.736,2.736,0,0,0-.486,1.708v3.173h-1.1v-6.4h1.1v.985a2.053,2.053,0,0,1,1.932-1.113,1.937,1.937,0,0,1,1.97,1.369,2.135,2.135,0,0,1,.819-1,2.273,2.273,0,0,1,1.279-.371,2.042,2.042,0,0,1,1.638.7,2.817,2.817,0,0,1,.6,1.894v3.928Zm5.809.128a3.076,3.076,0,0,1-2.309-.947,3.287,3.287,0,0,1-.915-2.38,3.334,3.334,0,0,1,.889-2.386,3.1,3.1,0,0,1,2.361-.94,2.825,2.825,0,0,1,2.329,1.049,3.567,3.567,0,0,1,.742,2.572H27.029a2,2,0,0,0,.64,1.452,2.079,2.079,0,0,0,1.484.582,1.919,1.919,0,0,0,1.855-1.075h1.126A2.691,2.691,0,0,1,31.1,29.078,3.194,3.194,0,0,1,29.14,29.667Zm1.254-5.22a1.854,1.854,0,0,0-1.267-.461,2.114,2.114,0,0,0-1.324.448,1.994,1.994,0,0,0-.723,1.331h3.992A2.155,2.155,0,0,0,30.394,24.447Zm8.227,5.092-2.956-6.4h1.228l2.188,4.849,2.188-4.849H42.5l-2.956,6.4Zm7.5.128a2.923,2.923,0,0,1-2.233-.972,3.523,3.523,0,0,1,0-4.708,2.923,2.923,0,0,1,2.233-.972,2.819,2.819,0,0,1,1.311.313,2.5,2.5,0,0,1,.94.8v-.985h1.1v6.4h-1.1v-.985a2.5,2.5,0,0,1-.94.8A2.819,2.819,0,0,1,46.118,29.667Zm.166-1.011a2.031,2.031,0,0,0,1.561-.665,2.525,2.525,0,0,0,0-3.3,2.179,2.179,0,0,0-3.135,0,2.525,2.525,0,0,0,0,3.3A2.046,2.046,0,0,0,46.285,28.656Zm5.259.883v-9.6h1.1v9.6Zm5.451.128a2.2,2.2,0,0,1-1.7-.71,2.68,2.68,0,0,1-.653-1.887V23.142h1.1V26.9a1.951,1.951,0,0,0,.39,1.279,1.3,1.3,0,0,0,1.056.473,1.563,1.563,0,0,0,1.273-.633,2.662,2.662,0,0,0,.505-1.708V23.142h1.1v6.4h-1.1v-.985A2.1,2.1,0,0,1,56.994,29.667Zm7.869,0a3.076,3.076,0,0,1-2.309-.947,3.287,3.287,0,0,1-.915-2.38,3.334,3.334,0,0,1,.889-2.386,3.1,3.1,0,0,1,2.361-.94,2.825,2.825,0,0,1,2.329,1.049,3.567,3.567,0,0,1,.742,2.572H62.751a2,2,0,0,0,.64,1.452,2.079,2.079,0,0,0,1.484.582,1.919,1.919,0,0,0,1.855-1.075h1.126a2.691,2.691,0,0,1-1.036,1.484A3.194,3.194,0,0,1,64.863,29.667Zm1.254-5.22a1.854,1.854,0,0,0-1.267-.461,2.115,2.115,0,0,0-1.324.448,1.994,1.994,0,0,0-.723,1.331h3.992A2.155,2.155,0,0,0,66.116,24.447Zm9.353,5.22a3.278,3.278,0,1,1,2.386-.966A3.23,3.23,0,0,1,75.469,29.667Zm-1.612-1.689a2.116,2.116,0,0,0,1.612.665,2.076,2.076,0,0,0,1.6-.665,2.491,2.491,0,0,0,0-3.275,2.263,2.263,0,0,0-3.205,0,2.481,2.481,0,0,0-.006,3.275Zm6.525,1.561v-6.4h1.1v1.241a1.739,1.739,0,0,1,.7-.947,1.892,1.892,0,0,1,1.094-.358,2.19,2.19,0,0,1,.5.051v1.139a1.5,1.5,0,0,0-.6-.1,1.539,1.539,0,0,0-1.177.576,2.364,2.364,0,0,0-.512,1.625v3.173Zm7.446,0v-9.6h1.1v9.6Zm5.911.128a3.076,3.076,0,0,1-2.309-.947,3.287,3.287,0,0,1-.915-2.38,3.334,3.334,0,0,1,.889-2.386,3.1,3.1,0,0,1,2.361-.94,2.825,2.825,0,0,1,2.329,1.049,3.567,3.567,0,0,1,.742,2.572H91.629a2,2,0,0,0,.64,1.452,2.079,2.079,0,0,0,1.484.582,1.919,1.919,0,0,0,1.855-1.075h1.126A2.691,2.691,0,0,1,95.7,29.078,3.194,3.194,0,0,1,93.74,29.667Zm1.254-5.22a1.854,1.854,0,0,0-1.267-.461,2.115,2.115,0,0,0-1.324.448,1.994,1.994,0,0,0-.723,1.331h3.992A2.155,2.155,0,0,0,94.994,24.447Zm5.489,5.22a2.98,2.98,0,0,1-1.8-.525,1.907,1.907,0,0,1-.8-1.459h1.126a1.129,1.129,0,0,0,.518.793,1.806,1.806,0,0,0,.966.256,1.625,1.625,0,0,0,.889-.218.7.7,0,0,0,.339-.627.837.837,0,0,0-.25-.627,1.869,1.869,0,0,0-.812-.4l-.921-.243a1.875,1.875,0,0,1-1.651-1.881,1.5,1.5,0,0,1,.621-1.254,2.553,2.553,0,0,1,1.593-.473,2.473,2.473,0,0,1,1.619.518,1.87,1.87,0,0,1,.71,1.311h-1.1a1.234,1.234,0,0,0-1.228-.908,1.348,1.348,0,0,0-.787.218.67.67,0,0,0-.313.576.739.739,0,0,0,.23.563,1.766,1.766,0,0,0,.742.358l1.024.269a1.854,1.854,0,0,1,1.638,1.894,1.6,1.6,0,0,1-.653,1.388A2.859,2.859,0,0,1,100.483,29.667Zm5.975,0a2.98,2.98,0,0,1-1.8-.525,1.907,1.907,0,0,1-.8-1.459h1.126a1.129,1.129,0,0,0,.518.793,1.806,1.806,0,0,0,.966.256,1.625,1.625,0,0,0,.889-.218.7.7,0,0,0,.339-.627.837.837,0,0,0-.25-.627,1.869,1.869,0,0,0-.812-.4l-.921-.243a1.875,1.875,0,0,1-1.651-1.881,1.5,1.5,0,0,1,.621-1.254,2.553,2.553,0,0,1,1.593-.473,2.473,2.473,0,0,1,1.619.518,1.87,1.87,0,0,1,.71,1.311h-1.1a1.234,1.234,0,0,0-1.228-.908,1.348,1.348,0,0,0-.787.218.67.67,0,0,0-.313.576.739.739,0,0,0,.23.563,1.766,1.766,0,0,0,.742.358l1.024.269a1.854,1.854,0,0,1,1.638,1.894,1.6,1.6,0,0,1-.653,1.388A2.859,2.859,0,0,1,106.458,29.667Zm9.263-.064a2,2,0,0,1-1.42-.5,1.893,1.893,0,0,1-.537-1.459V24.152h-1.356V23.142h1.356V21.363h1.1v1.778h1.842v1.011h-1.842V27.5a.913.913,0,0,0,1.062,1.088,1.986,1.986,0,0,0,.78-.128v.985A3.1,3.1,0,0,1,115.721,29.6Zm3.493-.064h-1.1v-9.6h1.1v4.184a2.192,2.192,0,0,1,2.034-1.113,2.3,2.3,0,0,1,1.753.7,2.625,2.625,0,0,1,.665,1.881v3.941h-1.088V25.765a1.864,1.864,0,0,0-.409-1.273,1.39,1.39,0,0,0-1.1-.467,1.666,1.666,0,0,0-1.324.627,2.569,2.569,0,0,0-.531,1.714Zm9.071.128a2.923,2.923,0,0,1-2.233-.972,3.523,3.523,0,0,1,0-4.708,2.923,2.923,0,0,1,2.233-.972,2.819,2.819,0,0,1,1.311.313,2.494,2.494,0,0,1,.94.8v-.985h1.1v6.4h-1.1v-.985a2.494,2.494,0,0,1-.94.8A2.819,2.819,0,0,1,128.286,29.667Zm.166-1.011a2.031,2.031,0,0,0,1.561-.665,2.525,2.525,0,0,0,0-3.3,2.179,2.179,0,0,0-3.135,0,2.525,2.525,0,0,0,0,3.3A2.046,2.046,0,0,0,128.452,28.656Zm5.259.883v-6.4h1.1v.985a2.192,2.192,0,0,1,2.034-1.113,2.3,2.3,0,0,1,1.753.7,2.625,2.625,0,0,1,.665,1.881v3.941h-1.088V25.765a1.864,1.864,0,0,0-.409-1.273,1.39,1.39,0,0,0-1.1-.467,1.666,1.666,0,0,0-1.324.627,2.569,2.569,0,0,0-.531,1.714v3.173Zm12.027,2.674h-1.228l1.395-3.007-2.8-6.065h1.215l2.2,4.862,2.188-4.862h1.228Zm8-2.546a3.278,3.278,0,1,1,2.386-.966A3.23,3.23,0,0,1,153.734,29.667Zm-1.612-1.689a2.116,2.116,0,0,0,1.612.665,2.076,2.076,0,0,0,1.6-.665,2.491,2.491,0,0,0,0-3.275,2.263,2.263,0,0,0-3.205,0,2.481,2.481,0,0,0-.006,3.275Zm8.79,1.689a2.2,2.2,0,0,1-1.7-.71,2.68,2.68,0,0,1-.653-1.887V23.142h1.1V26.9a1.951,1.951,0,0,0,.39,1.279,1.3,1.3,0,0,0,1.056.473,1.563,1.563,0,0,0,1.273-.633,2.662,2.662,0,0,0,.505-1.708V23.142h1.1v6.4h-1.1v-.985A2.1,2.1,0,0,1,160.912,29.667Zm5.143-.128v-6.4h1.1v1.241a1.739,1.739,0,0,1,.7-.947,1.892,1.892,0,0,1,1.094-.358,2.19,2.19,0,0,1,.5.051v1.139a1.5,1.5,0,0,0-.6-.1,1.539,1.539,0,0,0-1.177.576,2.364,2.364,0,0,0-.512,1.625v3.173Zm10.287.128a3.209,3.209,0,0,1-2.393-.966,3.416,3.416,0,0,1,0-4.721,3.209,3.209,0,0,1,2.393-.966,3.315,3.315,0,0,1,2.06.659,3.16,3.16,0,0,1,1.164,1.721h-1.177a2.034,2.034,0,0,0-.768-1,2.2,2.2,0,0,0-1.279-.371,2.1,2.1,0,0,0-1.606.665,2.505,2.505,0,0,0,0,3.3,2.1,2.1,0,0,0,1.606.665,2.2,2.2,0,0,0,1.279-.371,2.034,2.034,0,0,0,.768-1h1.177a3.1,3.1,0,0,1-1.152,1.721A3.334,3.334,0,0,1,176.342,29.667Zm5.783-.128h-1.1v-9.6h1.1v4.184a2.192,2.192,0,0,1,2.034-1.113,2.3,2.3,0,0,1,1.753.7,2.625,2.625,0,0,1,.665,1.881v3.941H185.49V25.765a1.864,1.864,0,0,0-.409-1.273,1.39,1.39,0,0,0-1.1-.467,1.666,1.666,0,0,0-1.324.627,2.569,2.569,0,0,0-.531,1.714Zm9.276.128a3.278,3.278,0,1,1,2.386-.966A3.23,3.23,0,0,1,191.4,29.667Zm-1.612-1.689a2.116,2.116,0,0,0,1.612.665,2.076,2.076,0,0,0,1.6-.665,2.491,2.491,0,0,0,0-3.275,2.263,2.263,0,0,0-3.205,0,2.481,2.481,0,0,0-.006,3.275Zm8.585,1.689a2.98,2.98,0,0,1-1.8-.525,1.907,1.907,0,0,1-.8-1.459H196.9a1.129,1.129,0,0,0,.518.793,1.806,1.806,0,0,0,.966.256,1.625,1.625,0,0,0,.889-.218.7.7,0,0,0,.339-.627.837.837,0,0,0-.249-.627,1.869,1.869,0,0,0-.812-.4l-.921-.243a1.875,1.875,0,0,1-1.65-1.881,1.5,1.5,0,0,1,.621-1.254,2.553,2.553,0,0,1,1.593-.473,2.473,2.473,0,0,1,1.619.518,1.87,1.87,0,0,1,.71,1.311h-1.1a1.234,1.234,0,0,0-1.228-.908,1.348,1.348,0,0,0-.787.218.67.67,0,0,0-.313.576.739.739,0,0,0,.23.563,1.766,1.766,0,0,0,.742.358l1.024.269a1.854,1.854,0,0,1,1.638,1.894,1.6,1.6,0,0,1-.653,1.388A2.859,2.859,0,0,1,198.375,29.667Zm6.64,0a3.076,3.076,0,0,1-2.309-.947,3.287,3.287,0,0,1-.915-2.38,3.334,3.334,0,0,1,.889-2.386,3.1,3.1,0,0,1,2.361-.94,2.825,2.825,0,0,1,2.329,1.049,3.567,3.567,0,0,1,.742,2.572H202.9a2,2,0,0,0,.64,1.452,2.079,2.079,0,0,0,1.484.582,1.919,1.919,0,0,0,1.855-1.075h1.126a2.691,2.691,0,0,1-1.036,1.484A3.194,3.194,0,0,1,205.015,29.667Zm1.254-5.22A1.854,1.854,0,0,0,205,23.986a2.115,2.115,0,0,0-1.324.448,1.994,1.994,0,0,0-.723,1.331h3.992A2.155,2.155,0,0,0,206.269,24.447Zm3.429,5.092v-6.4h1.1v.985a2.192,2.192,0,0,1,2.034-1.113,2.3,2.3,0,0,1,1.753.7,2.625,2.625,0,0,1,.665,1.881v3.941h-1.088V25.765a1.864,1.864,0,0,0-.409-1.273,1.39,1.39,0,0,0-1.1-.467,1.666,1.666,0,0,0-1.324.627,2.569,2.569,0,0,0-.531,1.714v3.173ZM221.43,21.21a.746.746,0,0,1-.55.218.777.777,0,0,1-.563-.224.78.78,0,0,1,0-1.107.766.766,0,0,1,.563-.23.724.724,0,0,1,.55.23.773.773,0,0,1,.217.55A.789.789,0,0,1,221.43,21.21Zm-1.113,8.329v-6.4h1.1v6.4Zm5.668.064a2,2,0,0,1-1.42-.5,1.893,1.893,0,0,1-.537-1.459V24.152h-1.356V23.142h1.356V21.363h1.1v1.778h1.842v1.011h-1.842V27.5a.913.913,0,0,0,1.062,1.088,1.986,1.986,0,0,0,.78-.128v.985A3.1,3.1,0,0,1,225.985,29.6Zm5.028.064a3.075,3.075,0,0,1-2.309-.947,3.287,3.287,0,0,1-.915-2.38,3.334,3.334,0,0,1,.889-2.386,3.1,3.1,0,0,1,2.361-.94,2.825,2.825,0,0,1,2.329,1.049,3.567,3.567,0,0,1,.742,2.572H228.9a2,2,0,0,0,.64,1.452,2.079,2.079,0,0,0,1.484.582,1.919,1.919,0,0,0,1.855-1.075h1.126a2.691,2.691,0,0,1-1.036,1.484A3.194,3.194,0,0,1,231.014,29.667Zm1.254-5.22A1.854,1.854,0,0,0,231,23.986a2.115,2.115,0,0,0-1.324.448,1.994,1.994,0,0,0-.723,1.331h3.992A2.155,2.155,0,0,0,232.268,24.447Zm11.669,5.092V25.777a2.227,2.227,0,0,0-.326-1.273,1.068,1.068,0,0,0-.94-.48,1.522,1.522,0,0,0-1.247.6,2.666,2.666,0,0,0-.505,1.638v3.275h-1.1V25.777a2.221,2.221,0,0,0-.326-1.279,1.06,1.06,0,0,0-.928-.473,1.536,1.536,0,0,0-1.279.633,2.736,2.736,0,0,0-.486,1.708v3.173h-1.1v-6.4h1.1v.985a2.053,2.053,0,0,1,1.932-1.113,1.937,1.937,0,0,1,1.97,1.369,2.135,2.135,0,0,1,.819-1,2.272,2.272,0,0,1,1.279-.371,2.042,2.042,0,0,1,1.638.7,2.817,2.817,0,0,1,.6,1.894v3.928Zm8.8.128a2.923,2.923,0,0,1-2.233-.972,3.523,3.523,0,0,1,0-4.708,2.923,2.923,0,0,1,2.233-.972,2.819,2.819,0,0,1,1.311.313,2.494,2.494,0,0,1,.94.8v-.985h1.1v6.4h-1.1v-.985a2.494,2.494,0,0,1-.94.8A2.819,2.819,0,0,1,252.739,29.667Zm.166-1.011a2.031,2.031,0,0,0,1.561-.665,2.525,2.525,0,0,0,0-3.3,2.179,2.179,0,0,0-3.135,0,2.525,2.525,0,0,0,0,3.3A2.046,2.046,0,0,0,252.905,28.656Zm5.259.883v-6.4h1.1v.985a2.192,2.192,0,0,1,2.034-1.113,2.3,2.3,0,0,1,1.753.7,2.625,2.625,0,0,1,.665,1.881v3.941h-1.088V25.765a1.864,1.864,0,0,0-.409-1.273,1.39,1.39,0,0,0-1.1-.467,1.666,1.666,0,0,0-1.324.627,2.569,2.569,0,0,0-.531,1.714v3.173Zm10.172.128a2.923,2.923,0,0,1-2.233-.972,3.523,3.523,0,0,1,0-4.708,2.923,2.923,0,0,1,2.233-.972,2.819,2.819,0,0,1,1.311.313,2.5,2.5,0,0,1,.94.8V19.943h1.1v9.6h-1.1v-.985a2.5,2.5,0,0,1-.94.8A2.819,2.819,0,0,1,268.336,29.667Zm.166-1.011a2.031,2.031,0,0,0,1.561-.665,2.525,2.525,0,0,0,0-3.3,2.179,2.179,0,0,0-3.135,0,2.525,2.525,0,0,0,0,3.3A2.046,2.046,0,0,0,268.5,28.656Zm16.582.883V25.777a2.227,2.227,0,0,0-.326-1.273,1.068,1.068,0,0,0-.94-.48,1.522,1.522,0,0,0-1.247.6,2.665,2.665,0,0,0-.505,1.638v3.275h-1.1V25.777a2.221,2.221,0,0,0-.326-1.279,1.06,1.06,0,0,0-.928-.473,1.536,1.536,0,0,0-1.279.633,2.736,2.736,0,0,0-.486,1.708v3.173h-1.1v-6.4h1.1v.985a2.053,2.053,0,0,1,1.932-1.113,1.937,1.937,0,0,1,1.97,1.369,2.135,2.135,0,0,1,.819-1,2.273,2.273,0,0,1,1.279-.371,2.042,2.042,0,0,1,1.638.7,2.817,2.817,0,0,1,.6,1.894v3.928Zm5.348.128a2.2,2.2,0,0,1-1.7-.71,2.68,2.68,0,0,1-.653-1.887V23.142h1.1V26.9a1.951,1.951,0,0,0,.39,1.279,1.3,1.3,0,0,0,1.056.473,1.563,1.563,0,0,0,1.273-.633,2.662,2.662,0,0,0,.505-1.708V23.142h1.1v6.4h-1.1v-.985A2.1,2.1,0,0,1,290.432,29.667Zm7.2,0a2.98,2.98,0,0,1-1.8-.525,1.907,1.907,0,0,1-.8-1.459h1.126a1.129,1.129,0,0,0,.518.793,1.806,1.806,0,0,0,.966.256,1.625,1.625,0,0,0,.889-.218.7.7,0,0,0,.339-.627.837.837,0,0,0-.25-.627,1.869,1.869,0,0,0-.812-.4l-.921-.243a1.875,1.875,0,0,1-1.65-1.881,1.5,1.5,0,0,1,.621-1.254,2.553,2.553,0,0,1,1.593-.473,2.473,2.473,0,0,1,1.619.518,1.87,1.87,0,0,1,.71,1.311h-1.1a1.234,1.234,0,0,0-1.228-.908,1.348,1.348,0,0,0-.787.218.67.67,0,0,0-.313.576.739.739,0,0,0,.23.563,1.766,1.766,0,0,0,.742.358l1.024.269a1.854,1.854,0,0,1,1.638,1.894,1.6,1.6,0,0,1-.653,1.388A2.859,2.859,0,0,1,297.635,29.667Zm6.295-.064a2,2,0,0,1-1.42-.5,1.893,1.893,0,0,1-.537-1.459V24.152h-1.356V23.142h1.356V21.363h1.1v1.778h1.842v1.011h-1.842V27.5a.913.913,0,0,0,1.062,1.088,1.986,1.986,0,0,0,.78-.128v.985A3.1,3.1,0,0,1,303.93,29.6Zm8.828.064a2.819,2.819,0,0,1-1.311-.313,2.5,2.5,0,0,1-.94-.8v.985h-1.1v-9.6h1.1v4.184a2.5,2.5,0,0,1,.94-.8,2.819,2.819,0,0,1,1.311-.313,2.923,2.923,0,0,1,2.233.972,3.523,3.523,0,0,1,0,4.708A2.923,2.923,0,0,1,312.759,29.667Zm-1.727-1.676a2.164,2.164,0,0,0,3.122,0,2.525,2.525,0,0,0,0-3.3,2.164,2.164,0,0,0-3.122,0,2.525,2.525,0,0,0,0,3.3Zm9.161,1.676a3.076,3.076,0,0,1-2.309-.947,3.287,3.287,0,0,1-.915-2.38,3.334,3.334,0,0,1,.889-2.386,3.1,3.1,0,0,1,2.361-.94,2.825,2.825,0,0,1,2.329,1.049,3.567,3.567,0,0,1,.742,2.572h-5.207a2,2,0,0,0,.64,1.452,2.079,2.079,0,0,0,1.484.582,1.919,1.919,0,0,0,1.855-1.075h1.126a2.691,2.691,0,0,1-1.036,1.484A3.194,3.194,0,0,1,320.192,29.667Zm1.254-5.22a1.854,1.854,0,0,0-1.267-.461,2.114,2.114,0,0,0-1.324.448,1.994,1.994,0,0,0-.723,1.331h3.992A2.156,2.156,0,0,0,321.446,24.447Zm9.353,5.22a3.278,3.278,0,1,1,2.386-.966A3.23,3.23,0,0,1,330.8,29.667Zm-1.612-1.689a2.116,2.116,0,0,0,1.612.665,2.076,2.076,0,0,0,1.6-.665,2.491,2.491,0,0,0,0-3.275,2.263,2.263,0,0,0-3.205,0,2.481,2.481,0,0,0-.006,3.275Zm6.525,1.561v-6.4h1.1v1.241a1.739,1.739,0,0,1,.7-.947,1.892,1.892,0,0,1,1.094-.358,2.19,2.19,0,0,1,.5.051v1.139a1.5,1.5,0,0,0-.6-.1,1.539,1.539,0,0,0-1.177.576,2.364,2.364,0,0,0-.512,1.625v3.173Zm7.1.128a2.923,2.923,0,0,1-2.233-.972,3.523,3.523,0,0,1,0-4.708,2.923,2.923,0,0,1,2.233-.972,2.819,2.819,0,0,1,1.311.313,2.5,2.5,0,0,1,.94.8V19.943h1.1v9.6h-1.1v-.985a2.5,2.5,0,0,1-.94.8A2.819,2.819,0,0,1,342.813,29.667Zm.166-1.011a2.031,2.031,0,0,0,1.561-.665,2.525,2.525,0,0,0,0-3.3,2.179,2.179,0,0,0-3.135,0,2.525,2.525,0,0,0,0,3.3A2.046,2.046,0,0,0,342.98,28.656Zm7.984,1.011a3.076,3.076,0,0,1-2.309-.947,3.287,3.287,0,0,1-.915-2.38,3.334,3.334,0,0,1,.889-2.386,3.1,3.1,0,0,1,2.361-.94,2.825,2.825,0,0,1,2.329,1.049,3.567,3.567,0,0,1,.742,2.572h-5.207a2,2,0,0,0,.64,1.452,2.079,2.079,0,0,0,1.484.582,1.919,1.919,0,0,0,1.855-1.075h1.126a2.691,2.691,0,0,1-1.036,1.484A3.194,3.194,0,0,1,350.963,29.667Zm1.254-5.22a1.854,1.854,0,0,0-1.267-.461,2.114,2.114,0,0,0-1.324.448,1.994,1.994,0,0,0-.723,1.331H352.9A2.155,2.155,0,0,0,352.217,24.447Zm3.429,5.092v-6.4h1.1v1.241a1.739,1.739,0,0,1,.7-.947,1.892,1.892,0,0,1,1.094-.358,2.19,2.19,0,0,1,.5.051v1.139a1.5,1.5,0,0,0-.6-.1,1.539,1.539,0,0,0-1.177.576,2.364,2.364,0,0,0-.512,1.625v3.173Zm7.178.128a3.076,3.076,0,0,1-2.309-.947,3.287,3.287,0,0,1-.915-2.38,3.334,3.334,0,0,1,.889-2.386,3.1,3.1,0,0,1,2.361-.94,2.825,2.825,0,0,1,2.329,1.049,3.567,3.567,0,0,1,.742,2.572h-5.207a2,2,0,0,0,.64,1.452,2.079,2.079,0,0,0,1.484.582,1.919,1.919,0,0,0,1.855-1.075h1.126a2.691,2.691,0,0,1-1.036,1.484A3.194,3.194,0,0,1,362.824,29.667Zm1.254-5.22a1.854,1.854,0,0,0-1.267-.461,2.114,2.114,0,0,0-1.324.448,1.994,1.994,0,0,0-.723,1.331h3.992A2.155,2.155,0,0,0,364.078,24.447Zm6.065,5.22a2.923,2.923,0,0,1-2.233-.972,3.523,3.523,0,0,1,0-4.708,2.923,2.923,0,0,1,2.233-.972,2.819,2.819,0,0,1,1.311.313,2.5,2.5,0,0,1,.94.8V19.943h1.1v9.6h-1.1v-.985a2.5,2.5,0,0,1-.94.8A2.819,2.819,0,0,1,370.143,29.667Zm.166-1.011a2.031,2.031,0,0,0,1.561-.665,2.525,2.525,0,0,0,0-3.3,2.179,2.179,0,0,0-3.135,0,2.525,2.525,0,0,0,0,3.3A2.046,2.046,0,0,0,370.309,28.656Zm10.978,1.011a2.923,2.923,0,0,1-2.233-.972,3.523,3.523,0,0,1,0-4.708,2.923,2.923,0,0,1,2.233-.972,2.819,2.819,0,0,1,1.311.313,2.494,2.494,0,0,1,.94.8v-.985h1.1v6.4h-1.1v-.985a2.494,2.494,0,0,1-.94.8A2.819,2.819,0,0,1,381.287,29.667Zm.166-1.011a2.031,2.031,0,0,0,1.561-.665,2.525,2.525,0,0,0,0-3.3,2.179,2.179,0,0,0-3.135,0,2.525,2.525,0,0,0,0,3.3A2.046,2.046,0,0,0,381.453,28.656Zm7.741.947a2,2,0,0,1-1.42-.5,1.893,1.893,0,0,1-.537-1.459V24.152H385.88V23.142h1.356V21.363h1.1v1.778h1.842v1.011h-1.842V27.5a.913.913,0,0,0,1.062,1.088,1.986,1.986,0,0,0,.78-.128v.985A3.1,3.1,0,0,1,389.194,29.6Zm7.741,0a2,2,0,0,1-1.42-.5,1.893,1.893,0,0,1-.537-1.459V24.152h-1.356V23.142h1.356V21.363h1.1v1.778h1.842v1.011h-1.842V27.5a.913.913,0,0,0,1.062,1.088,1.986,1.986,0,0,0,.78-.128v.985A3.1,3.1,0,0,1,396.935,29.6Zm3.493-.064h-1.1v-9.6h1.1v4.184a2.192,2.192,0,0,1,2.034-1.113,2.3,2.3,0,0,1,1.753.7,2.626,2.626,0,0,1,.665,1.881v3.941h-1.088V25.765a1.864,1.864,0,0,0-.409-1.273,1.39,1.39,0,0,0-1.1-.467,1.666,1.666,0,0,0-1.324.627,2.569,2.569,0,0,0-.531,1.714Zm9.161.128a3.076,3.076,0,0,1-2.309-.947,3.287,3.287,0,0,1-.915-2.38,3.334,3.334,0,0,1,.889-2.386,3.1,3.1,0,0,1,2.361-.94,2.825,2.825,0,0,1,2.329,1.049,3.567,3.567,0,0,1,.742,2.572h-5.207a2,2,0,0,0,.64,1.452,2.079,2.079,0,0,0,1.484.582,1.919,1.919,0,0,0,1.855-1.075h1.126a2.691,2.691,0,0,1-1.036,1.484A3.194,3.194,0,0,1,409.588,29.667Zm1.254-5.22a1.854,1.854,0,0,0-1.267-.461,2.114,2.114,0,0,0-1.324.448,1.994,1.994,0,0,0-.723,1.331h3.992A2.156,2.156,0,0,0,410.842,24.447Zm8.572,5.22a2.98,2.98,0,0,1-1.8-.525,1.907,1.907,0,0,1-.8-1.459h1.126a1.129,1.129,0,0,0,.518.793,1.806,1.806,0,0,0,.966.256,1.625,1.625,0,0,0,.889-.218.7.7,0,0,0,.339-.627.837.837,0,0,0-.25-.627,1.869,1.869,0,0,0-.812-.4l-.921-.243a1.875,1.875,0,0,1-1.651-1.881,1.5,1.5,0,0,1,.621-1.254,2.553,2.553,0,0,1,1.593-.473,2.473,2.473,0,0,1,1.619.518,1.87,1.87,0,0,1,.71,1.311h-1.1a1.234,1.234,0,0,0-1.228-.908,1.348,1.348,0,0,0-.787.218.67.67,0,0,0-.313.576.739.739,0,0,0,.23.563,1.766,1.766,0,0,0,.742.358l1.024.269a1.853,1.853,0,0,1,1.638,1.894,1.6,1.6,0,0,1-.652,1.388A2.859,2.859,0,0,1,419.415,29.667Zm6.551,0a2.923,2.923,0,0,1-2.233-.972,3.523,3.523,0,0,1,0-4.708,2.923,2.923,0,0,1,2.233-.972,2.819,2.819,0,0,1,1.311.313,2.5,2.5,0,0,1,.94.8v-.985h1.1v6.4h-1.1v-.985a2.5,2.5,0,0,1-.94.8A2.819,2.819,0,0,1,425.966,29.667Zm.166-1.011a2.031,2.031,0,0,0,1.561-.665,2.525,2.525,0,0,0,0-3.3,2.179,2.179,0,0,0-3.135,0,2.525,2.525,0,0,0,0,3.3A2.046,2.046,0,0,0,426.132,28.656Zm13.5.883V25.777A2.227,2.227,0,0,0,439.3,24.5a1.068,1.068,0,0,0-.94-.48,1.522,1.522,0,0,0-1.247.6,2.666,2.666,0,0,0-.505,1.638v3.275h-1.1V25.777a2.221,2.221,0,0,0-.326-1.279,1.06,1.06,0,0,0-.928-.473,1.536,1.536,0,0,0-1.279.633,2.736,2.736,0,0,0-.486,1.708v3.173h-1.1v-6.4h1.1v.985a2.053,2.053,0,0,1,1.932-1.113,1.937,1.937,0,0,1,1.97,1.369,2.135,2.135,0,0,1,.819-1,2.272,2.272,0,0,1,1.279-.371,2.042,2.042,0,0,1,1.638.7,2.817,2.817,0,0,1,.6,1.894v3.928Zm5.809.128a3.075,3.075,0,0,1-2.309-.947,3.287,3.287,0,0,1-.915-2.38,3.334,3.334,0,0,1,.889-2.386,3.1,3.1,0,0,1,2.361-.94,2.825,2.825,0,0,1,2.329,1.049,3.567,3.567,0,0,1,.742,2.572h-5.207a2.005,2.005,0,0,0,.64,1.452,2.079,2.079,0,0,0,1.484.582,1.919,1.919,0,0,0,1.855-1.075h1.126a2.691,2.691,0,0,1-1.036,1.484A3.194,3.194,0,0,1,445.439,29.667Zm1.254-5.22a1.854,1.854,0,0,0-1.267-.461,2.114,2.114,0,0,0-1.324.448,1.994,1.994,0,0,0-.723,1.331h3.992A2.155,2.155,0,0,0,446.693,24.447ZM3.538,46.053a2,2,0,0,1-1.42-.5A1.893,1.893,0,0,1,1.58,44.1V40.6H.224V39.592H1.58V37.813h1.1v1.778H4.523V40.6H2.681v3.352a1.136,1.136,0,0,0,.256.844,1.139,1.139,0,0,0,.806.243,1.986,1.986,0,0,0,.78-.128V45.9A3.1,3.1,0,0,1,3.538,46.053ZM7.044,37.66a.746.746,0,0,1-.55.218.777.777,0,0,1-.563-.224.78.78,0,0,1,0-1.107.766.766,0,0,1,.563-.23.724.724,0,0,1,.55.23.773.773,0,0,1,.218.55A.789.789,0,0,1,7.044,37.66ZM5.93,45.989v-6.4h1.1v6.4Zm11.426,0V42.228a2.227,2.227,0,0,0-.326-1.273,1.068,1.068,0,0,0-.94-.48,1.522,1.522,0,0,0-1.247.6,2.666,2.666,0,0,0-.505,1.638v3.275h-1.1V42.228a2.221,2.221,0,0,0-.326-1.279,1.06,1.06,0,0,0-.928-.473,1.536,1.536,0,0,0-1.279.633,2.736,2.736,0,0,0-.486,1.708v3.173h-1.1v-6.4h1.1v.985a2.053,2.053,0,0,1,1.932-1.113,1.937,1.937,0,0,1,1.97,1.369,2.135,2.135,0,0,1,.819-1,2.273,2.273,0,0,1,1.279-.371,2.042,2.042,0,0,1,1.638.7,2.817,2.817,0,0,1,.6,1.894v3.928Zm5.809.128a3.076,3.076,0,0,1-2.309-.947,3.287,3.287,0,0,1-.915-2.38A3.334,3.334,0,0,1,20.83,40.4a3.1,3.1,0,0,1,2.361-.94,2.825,2.825,0,0,1,2.329,1.049,3.567,3.567,0,0,1,.742,2.572H21.054a2,2,0,0,0,.64,1.452,2.079,2.079,0,0,0,1.484.582,1.919,1.919,0,0,0,1.855-1.075h1.126a2.691,2.691,0,0,1-1.036,1.484A3.194,3.194,0,0,1,23.165,46.117Zm1.254-5.22a1.854,1.854,0,0,0-1.267-.461,2.114,2.114,0,0,0-1.324.448,1.994,1.994,0,0,0-.723,1.331H25.1A2.155,2.155,0,0,0,24.419,40.9Zm4.67,4.913a.883.883,0,0,1-.665.281.9.9,0,0,1-.672-.281.958.958,0,0,1,.006-1.35.913.913,0,0,1,1.331,0,.95.95,0,0,1,0,1.35Z" transform="translate(20188.934 -19971.549)" fill="#fff"/>
    <path id="Path_5284" data-name="Path 5284" d="M2.175-4.674V-18.034h2.2V-6.781h6.116v2.108Zm11.084-11.46a1.353,1.353,0,0,1-.979-.4,1.329,1.329,0,0,1-.414-.988,1.307,1.307,0,0,1,.414-.969,1.353,1.353,0,0,1,.979-.4,1.313,1.313,0,0,1,.979.4,1.338,1.338,0,0,1,.4.969,1.361,1.361,0,0,1-.4.988A1.313,1.313,0,0,1,13.259-16.134ZM12.224-4.674v-9.409h2.07v9.409Zm16.842,0V-9.961a3.22,3.22,0,0,0-.423-1.788,1.4,1.4,0,0,0-1.251-.64,1.928,1.928,0,0,0-1.6.772,3.607,3.607,0,0,0-.64,2.164v4.78h-2.07V-9.961a3.22,3.22,0,0,0-.423-1.788,1.4,1.4,0,0,0-1.251-.64,1.957,1.957,0,0,0-1.647.809A3.71,3.71,0,0,0,19.149-9.3v4.629h-2.07v-9.409h2.07v1.28a2.888,2.888,0,0,1,2.672-1.468,2.9,2.9,0,0,1,2.917,1.863,2.974,2.974,0,0,1,1.214-1.374,3.438,3.438,0,0,1,1.8-.489A3.074,3.074,0,0,1,30.233-13.2a4.355,4.355,0,0,1,.9,2.9v5.627Zm5.758-11.46a1.353,1.353,0,0,1-.979-.4,1.329,1.329,0,0,1-.414-.988,1.307,1.307,0,0,1,.414-.969,1.353,1.353,0,0,1,.979-.4,1.313,1.313,0,0,1,.979.4,1.338,1.338,0,0,1,.4.969,1.361,1.361,0,0,1-.4.988A1.313,1.313,0,0,1,34.824-16.134ZM33.789-4.674v-9.409h2.07v9.409Zm8.939.094a3.354,3.354,0,0,1-2.324-.8A2.956,2.956,0,0,1,39.51-7.7v-4.535H37.553v-1.844H39.51V-16.7h2.07v2.616h2.691v1.844H41.58v4.2a1.675,1.675,0,0,0,.376,1.233,1.677,1.677,0,0,0,1.2.367,2.8,2.8,0,0,0,1.11-.188v1.844A5.281,5.281,0,0,1,42.728-4.579Zm7.527.094a4.638,4.638,0,0,1-3.463-1.383,4.808,4.808,0,0,1-1.355-3.51,4.845,4.845,0,0,1,1.336-3.51,4.646,4.646,0,0,1,3.5-1.383,4.465,4.465,0,0,1,3.519,1.515A5.135,5.135,0,0,1,54.978-8.87h-7.49a2.515,2.515,0,0,0,.828,1.825,2.843,2.843,0,0,0,2.014.734A2.392,2.392,0,0,0,52.7-7.628h2.164A4.346,4.346,0,0,1,53.209-5.37,4.907,4.907,0,0,1,50.255-4.485Zm-.038-8.054a2.717,2.717,0,0,0-1.741.574,2.64,2.64,0,0,0-.931,1.628h5.213a2.722,2.722,0,0,0-.922-1.647A2.521,2.521,0,0,0,50.217-12.54ZM60.962-4.485a4.2,4.2,0,0,1-3.227-1.43,4.948,4.948,0,0,1-1.308-3.463,4.948,4.948,0,0,1,1.308-3.463,4.2,4.2,0,0,1,3.227-1.43,3.757,3.757,0,0,1,1.769.423,3.473,3.473,0,0,1,1.242,1.026v-5.965h2.07V-4.674h-2.07V-5.934a3.473,3.473,0,0,1-1.242,1.026A3.757,3.757,0,0,1,60.962-4.485ZM59.325-7.233a2.606,2.606,0,0,0,2.014.866,2.606,2.606,0,0,0,2.014-.866,3.063,3.063,0,0,0,.79-2.145,3.063,3.063,0,0,0-.79-2.145,2.606,2.606,0,0,0-2.014-.866,2.606,2.606,0,0,0-2.014.866,3.063,3.063,0,0,0-.79,2.145A3.063,3.063,0,0,0,59.325-7.233ZM75.509-4.674V-15.927H71.632v-2.108h9.974v2.108h-3.9V-4.674Zm8.75-11.46a1.353,1.353,0,0,1-.979-.4,1.329,1.329,0,0,1-.414-.988,1.307,1.307,0,0,1,.414-.969,1.353,1.353,0,0,1,.979-.4,1.313,1.313,0,0,1,.979.4,1.338,1.338,0,0,1,.4.969,1.361,1.361,0,0,1-.4.988A1.313,1.313,0,0,1,84.259-16.134ZM83.224-4.674v-9.409h2.07v9.409Zm16.842,0V-9.961a3.22,3.22,0,0,0-.423-1.788,1.4,1.4,0,0,0-1.251-.64,1.928,1.928,0,0,0-1.6.772,3.607,3.607,0,0,0-.64,2.164v4.78h-2.07V-9.961a3.22,3.22,0,0,0-.423-1.788,1.4,1.4,0,0,0-1.251-.64,1.957,1.957,0,0,0-1.647.809A3.71,3.71,0,0,0,90.149-9.3v4.629h-2.07v-9.409h2.07v1.28a2.888,2.888,0,0,1,2.672-1.468,2.9,2.9,0,0,1,2.917,1.863,2.974,2.974,0,0,1,1.214-1.374,3.438,3.438,0,0,1,1.8-.489,3.074,3.074,0,0,1,2.484,1.073,4.355,4.355,0,0,1,.9,2.9v5.627Zm8.882.188a4.638,4.638,0,0,1-3.463-1.383,4.808,4.808,0,0,1-1.355-3.51,4.845,4.845,0,0,1,1.336-3.51,4.646,4.646,0,0,1,3.5-1.383,4.465,4.465,0,0,1,3.519,1.515,5.135,5.135,0,0,1,1.186,3.886h-7.49a2.515,2.515,0,0,0,.828,1.825,2.843,2.843,0,0,0,2.014.734,2.392,2.392,0,0,0,2.371-1.317h2.164A4.346,4.346,0,0,1,111.9-5.37,4.907,4.907,0,0,1,108.948-4.485Zm-.038-8.054a2.717,2.717,0,0,0-1.741.574,2.64,2.64,0,0,0-.931,1.628h5.213a2.722,2.722,0,0,0-.922-1.647A2.521,2.521,0,0,0,108.911-12.54Zm17.614,5.965a4.444,4.444,0,0,0,3.312-1.393,4.676,4.676,0,0,0,1.355-3.387,4.676,4.676,0,0,0-1.355-3.387,4.444,4.444,0,0,0-3.312-1.393,4.466,4.466,0,0,0-3.331,1.393,4.676,4.676,0,0,0-1.355,3.387,4.676,4.676,0,0,0,1.355,3.387A4.466,4.466,0,0,0,126.524-6.574Zm4.893.113a6.661,6.661,0,0,1-4.893,2.014,6.677,6.677,0,0,1-4.893-2,6.652,6.652,0,0,1-2.014-4.9,6.652,6.652,0,0,1,2.014-4.9,6.677,6.677,0,0,1,4.893-2,6.661,6.661,0,0,1,4.893,2.014,6.661,6.661,0,0,1,2.014,4.893A6.661,6.661,0,0,1,131.417-6.461Zm4.121,1.788v-9.409h2.07v1.28a3.085,3.085,0,0,1,2.86-1.468,3.368,3.368,0,0,1,2.616,1.073,4.08,4.08,0,0,1,.979,2.86v5.664h-2.07V-10a2.665,2.665,0,0,0-.527-1.759,1.766,1.766,0,0,0-1.43-.63,2.177,2.177,0,0,0-1.75.809,3.449,3.449,0,0,0-.677,2.277v4.629Zm11.178,0V-18.787h2.07V-4.674Zm7.866,3.933h-2.277l2.014-4.441-4.046-8.9h2.277l2.879,6.662,2.9-6.662h2.3Z" transform="translate(20185.344 -20147.617)" fill="#fff"/>
    <g id="Group_2151" data-name="Group 2151" transform="translate(20795.258 -20186.09)">
      <path id="Path_836" data-name="Path 836" d="M32.194,7.422Q35.4,13.6,35.4,24.907q0,10.17-3.171,15.335a10.364,10.364,0,0,1-9.437,5.165q-5.814,0-9.173-6.15T10.254,22.385q0-10.3,3.307-15.724a10.582,10.582,0,0,1,9.583-5.429q5.843,0,9.051,6.19M38.9,39.862a22.388,22.388,0,0,0,6.841-16.509,23.706,23.706,0,0,0-2.467-10.577,22.93,22.93,0,0,0-6.757-8.289,22.222,22.222,0,0,0-6.289-3.327A21.524,21.524,0,0,0,23.3,0a23.3,23.3,0,0,0-8.424,1.5,22.05,22.05,0,0,0-7.11,4.443,24.109,24.109,0,0,0-5.712,8.123A24.188,24.188,0,0,0,0,23.807a23.123,23.123,0,0,0,1.736,8.769,22.461,22.461,0,0,0,4.784,7.379,22.756,22.756,0,0,0,7.324,4.912,21.723,21.723,0,0,0,8.53,1.773A22.63,22.63,0,0,0,38.9,39.862" transform="translate(0 0)" fill="#fff"/>
      <path id="Path_837" data-name="Path 837" d="M20.845,76.325c1.68-.057,3.278-.1,4.783-.13s2.906-.045,4.174-.045q1.99,0,7.151.132c.779.013,1.374.029,1.784.044v-.747c-.143,0-.361-.006-.655-.022-3.494-.143-5.326-.432-5.483-.863a14.68,14.68,0,0,1-.207-2.71q-.072-2.34-.069-7.03v-8.8q0-1.339.057-4.831c0-.527.01-.921.023-1.2l.115-.021c.452-.039.79-.058,1.016-.058a5.593,5.593,0,0,1,4.946,2.472q1.671,2.472,2.606,9.01h.571l-.018-12.189q-2.14.027-4.606.036t-7.225.01q-2.4,0-6.275-.02t-5.342-.026V61.338h.572q.973-6.439,2.6-8.846a5.408,5.408,0,0,1,4.783-2.4c.288,0,.51,0,.652.011s.285.016.419.03c.012,1.141.036,2.294.07,3.467s.05,1.8.05,1.873c0,16.021.127-.713-.051,14.1q-.05,4.222-.152,4.848-.176.926-3.917,1.061c-.983.044-1.761.073-2.345.1Z" transform="translate(-7.01 -19.018)" fill="#fff"/>
    </g>
  </g>
</svg>
