<svg xmlns="http://www.w3.org/2000/svg" xmlns:xlink="http://www.w3.org/1999/xlink" width="568" height="577" viewBox="0 0 568 577">
  <defs>
    <linearGradient id="linear-gradient" x1="0.622" x2="0" y2="1.092" gradientUnits="objectBoundingBox">
      <stop offset="0" stop-color="#ef0c2d"/>
      <stop offset="0.975" stop-color="#780617"/>
      <stop offset="1"/>
    </linearGradient>
    <linearGradient id="linear-gradient-2" x1="0.602" y1="0.189" x2="0.23" y2="0.734" gradientUnits="objectBoundingBox">
      <stop offset="0" stop-opacity="0.373"/>
      <stop offset="1" stop-color="#545454" stop-opacity="0"/>
    </linearGradient>
    <linearGradient id="linear-gradient-3" x1="0.602" y1="0.189" x2="0.154" y2="0.851" gradientUnits="objectBoundingBox">
      <stop offset="0" stop-opacity="0.373"/>
      <stop offset="1" stop-color="#545454" stop-opacity="0.02"/>
    </linearGradient>
    <linearGradient id="linear-gradient-4" x1="0.602" y1="0.189" x2="0.085" y2="0.972" xlink:href="#linear-gradient-2"/>
    <linearGradient id="linear-gradient-5" x1="0.602" y1="0.189" x2="0.066" y2="0.952" xlink:href="#linear-gradient-2"/>
    <filter id="Rectangle_3292" x="163.5" y="397.361" width="242" height="91" filterUnits="userSpaceOnUse">
      <feOffset dy="3" input="SourceAlpha"/>
      <feGaussianBlur stdDeviation="7.5" result="blur"/>
      <feFlood flood-opacity="0.161"/>
      <feComposite operator="in" in2="blur"/>
      <feComposite in="SourceGraphic"/>
    </filter>
  </defs>
  <g id="Group_2257" data-name="Group 2257" transform="translate(-90 -1211.584)">
    <rect id="Rectangle_3291" data-name="Rectangle 3291" width="568" height="577" transform="translate(90 1211.584)" fill="url(#linear-gradient)"/>
    <path id="Path_2042" data-name="Path 2042" d="M19663.674-18522.3c-3.027,2.9-86.014,110.613-86.014,110.613l57.365,43.273s38.723-34.377,69.213-61.389,11.521-27.928,11.521-27.928l-44.6-34.135Z" transform="translate(-19458 19981.445)" fill="url(#linear-gradient-2)"/>
    <path id="Path_2039" data-name="Path 2039" d="M19663.309-18521.85c-1.7,1.631-29.965,36.289-54.605,66.588-9.371,11.525.1,8.221-8.314,18.914s-25.352,23.861-25.352,23.861l18.551,77.7,128.182-91.033-20.449-30.746-24.9-55.457Z" transform="translate(-19341 19974.445)" fill="url(#linear-gradient-3)"/>
    <path id="Path_2043" data-name="Path 2043" d="M19663.309-18521.85c-3.027,2.9-34.391,74.512-34.391,74.512l8.367,21.508-41.746,69.064,126.977-70.121-46.092-9.391v-75.744Z" transform="translate(-19256.996 19974.445)" fill="url(#linear-gradient-4)"/>
    <path id="Path_2044" data-name="Path 2044" d="M19663.309-18521.85c-3.027,2.9-35.912,77.795-35.912,77.795l7.8,18-39.654,69.285,126.98-69.266-46.1-10.246v-75.744Z" transform="translate(-19169.635 19974.445)" fill="url(#linear-gradient-5)"/>
    <path id="Path_2045" data-name="Path 2045" d="M19720.844-18501.689l-28.406,30.295-34.8-25.258,23.723-25.709Z" transform="translate(-19458 19981.445)" fill="#7a091a"/>
    <path id="Path_2046" data-name="Path 2046" d="M215.325,0V-95.85H234.9v77.22h41.04V0Z" transform="translate(190 1548.445)" fill="#fff"/>
    <path id="Path_2040" data-name="Path 2040" d="M41.445,1.62Q25.11,1.62,15.12-7.763T4.59-29.7H24.165a14.594,14.594,0,0,0,5.805,9.788A18.957,18.957,0,0,0,41.445-16.47,16.894,16.894,0,0,0,51.3-19.1a8.217,8.217,0,0,0,3.78-7.088q0-7.965-12.825-11.61L32.13-40.77Q20.385-44.145,13.77-51.3T7.02-69.12q0-13.1,8.775-20.722T39.15-97.47q14.715,0,23.9,8.843t9.72,20.317H53.325a14,14,0,0,0-5.4-8.37,15.1,15.1,0,0,0-8.775-2.7,15.3,15.3,0,0,0-8.842,2.362A7.843,7.843,0,0,0,26.73-70.47a8.654,8.654,0,0,0,2.835,7.02q2.97,2.7,9.18,4.455L49.95-55.89Q74.79-49,74.79-26.865A25.894,25.894,0,0,1,65.543-6.412Q56.295,1.62,41.445,1.62Z" transform="translate(190 1548.445)" fill="#fff"/>
    <path id="Path_2047" data-name="Path 2047" d="M303.21,0V-95.85h59.67v18.63h-40.1v19.71h32v18.63h-32v20.25h40.1V0Z" transform="translate(190 1548.445)" fill="#fff"/>
    <path id="Path_2041" data-name="Path 2041" d="M90.99,0,132.3-95.85h17.415L191.16,0H170.64l-9.315-21.87H120.42L111.24,0Zm49.95-70.065-13.23,31.05h26.325Z" transform="translate(190 1548.445)" fill="#fff"/>
    <path id="Path_5199" data-name="Path 5199" d="M5.293,0V-47.57h9.715v18.961H35.644V-47.57h9.715V0H35.644V-19.363H15.008V0ZM67.871.737A14.358,14.358,0,0,1,56.682-4.422,18,18,0,0,1,52.126-16.75a18,18,0,0,1,4.556-12.328,14.358,14.358,0,0,1,11.189-5.159,12.182,12.182,0,0,1,5.762,1.34,11.228,11.228,0,0,1,3.886,3.149V-33.5H86.7V0H77.519V-3.752A11.228,11.228,0,0,1,73.633-.6,12.182,12.182,0,0,1,67.871.737ZM63.65-10.184a7.985,7.985,0,0,0,6.164,2.546,7.881,7.881,0,0,0,6.131-2.546,9.392,9.392,0,0,0,2.311-6.566,9.392,9.392,0,0,0-2.311-6.566,7.881,7.881,0,0,0-6.131-2.546,7.88,7.88,0,0,0-6.13,2.546,9.392,9.392,0,0,0-2.311,6.566A9.475,9.475,0,0,0,63.65-10.184ZM95.609,0V-50.25h9.179V0Zm21.574,0V-25.46h-6.767V-33.5h6.767v-4.355q0-5.963,3.618-9.38a12.835,12.835,0,0,1,9.179-3.417,20.124,20.124,0,0,1,5.829.737v8.107a10.663,10.663,0,0,0-3.752-.6A6.081,6.081,0,0,0,127.7-41.1q-1.34,1.306-1.34,4.389V-33.5h9.447v8.04h-9.447V0Zm66.33-42.947a15.119,15.119,0,0,1,4.757,11.39,15.227,15.227,0,0,1-4.757,11.423,16.491,16.491,0,0,1-11.926,4.59h-6.1V0h-9.715V-47.57h15.812A16.425,16.425,0,0,1,183.513-42.947Zm-6.7,16.348a6.6,6.6,0,0,0,2.01-4.958,6.6,6.6,0,0,0-2.01-4.958,7.385,7.385,0,0,0-5.36-1.943H165.49v13.8h5.963A7.385,7.385,0,0,0,176.813-26.6ZM193.831,0V-33.5h9.179v5.36a8.407,8.407,0,0,1,3.182-4.121,8.652,8.652,0,0,1,5.126-1.641,10.742,10.742,0,0,1,3.082.4v9.313a13.166,13.166,0,0,0-4.154-.737,6.494,6.494,0,0,0-5.26,2.378,9.919,9.919,0,0,0-1.977,6.533V0Zm31.021-38.994a5.649,5.649,0,0,1-4.087-1.708,5.562,5.562,0,0,1-1.742-4.121,5.562,5.562,0,0,1,1.742-4.12,5.649,5.649,0,0,1,4.087-1.708,5.694,5.694,0,0,1,4.188,1.708,5.615,5.615,0,0,1,1.708,4.12,5.615,5.615,0,0,1-1.708,4.121A5.694,5.694,0,0,1,224.852-38.994ZM220.3,0V-33.5h9.179V0Zm33.5.737a17.026,17.026,0,0,1-12.6-5.058,16.953,16.953,0,0,1-5.025-12.429A16.953,16.953,0,0,1,241.2-29.178a17.026,17.026,0,0,1,12.6-5.059,16.988,16.988,0,0,1,11.222,3.752,17.492,17.492,0,0,1,5.93,9.782h-9.514q-2.211-5.226-7.638-5.226a7.879,7.879,0,0,0-6.03,2.512,9.377,9.377,0,0,0-2.345,6.667,9.377,9.377,0,0,0,2.345,6.667,7.879,7.879,0,0,0,6.03,2.512q5.427,0,7.638-5.226h9.514a17.492,17.492,0,0,1-5.93,9.782A16.988,16.988,0,0,1,253.8.737Zm38.793,0A17.037,17.037,0,0,1,279.96-4.221a17.127,17.127,0,0,1-4.924-12.6,16.84,16.84,0,0,1,4.991-12.462,17.178,17.178,0,0,1,12.629-4.958,17.068,17.068,0,0,1,12.8,5.259q5.092,5.26,4.69,14.372h-26.13a7.717,7.717,0,0,0,2.613,5.259,9.264,9.264,0,0,0,6.432,2.111,9.546,9.546,0,0,0,4.388-.972,5.711,5.711,0,0,0,2.714-2.714h9.581a15.061,15.061,0,0,1-6.164,8.409A18.812,18.812,0,0,1,292.589.737Zm-.2-27.537a8.308,8.308,0,0,0-5.26,1.642,7.739,7.739,0,0,0-2.78,4.522h15.745a7.452,7.452,0,0,0-2.914-4.656A8.235,8.235,0,0,0,292.388-26.8Z" transform="translate(218 1415.445)" fill="#fff"/>
    <path id="Path_5198" data-name="Path 5198" d="M2.175,0V-17.75H5.1V-2.8h8.125V0ZM16.9-15.225a1.8,1.8,0,0,1-1.3-.538,1.765,1.765,0,0,1-.55-1.312,1.737,1.737,0,0,1,.55-1.287,1.8,1.8,0,0,1,1.3-.538,1.745,1.745,0,0,1,1.3.538,1.778,1.778,0,0,1,.525,1.287,1.807,1.807,0,0,1-.525,1.313A1.745,1.745,0,0,1,16.9-15.225ZM15.525,0V-12.5h2.75V0ZM37.9,0V-7.025A4.278,4.278,0,0,0,37.338-9.4a1.865,1.865,0,0,0-1.663-.85A2.561,2.561,0,0,0,33.55-9.225,4.792,4.792,0,0,0,32.7-6.35V0H29.95V-7.025A4.278,4.278,0,0,0,29.388-9.4a1.865,1.865,0,0,0-1.663-.85,2.6,2.6,0,0,0-2.187,1.075,4.928,4.928,0,0,0-.812,3.025V0h-2.75V-12.5h2.75v1.7a3.837,3.837,0,0,1,3.55-1.95,3.855,3.855,0,0,1,3.875,2.475A3.951,3.951,0,0,1,33.763-12.1a4.567,4.567,0,0,1,2.388-.65,4.084,4.084,0,0,1,3.3,1.425,5.786,5.786,0,0,1,1.2,3.85V0Zm7.65-15.225a1.8,1.8,0,0,1-1.3-.538,1.765,1.765,0,0,1-.55-1.312,1.737,1.737,0,0,1,.55-1.287,1.8,1.8,0,0,1,1.3-.538,1.745,1.745,0,0,1,1.3.538,1.778,1.778,0,0,1,.525,1.287,1.807,1.807,0,0,1-.525,1.313A1.745,1.745,0,0,1,45.55-15.225ZM44.175,0V-12.5h2.75V0ZM56.05.125A4.456,4.456,0,0,1,52.963-.938a3.928,3.928,0,0,1-1.187-3.088V-10.05h-2.6V-12.5h2.6v-3.475h2.75V-12.5H58.1v2.45H54.525v5.575a2.225,2.225,0,0,0,.5,1.637,2.228,2.228,0,0,0,1.6.488A3.726,3.726,0,0,0,58.1-2.6V-.15A7.015,7.015,0,0,1,56.05.125Zm10,.125a6.162,6.162,0,0,1-4.6-1.838,6.388,6.388,0,0,1-1.8-4.662,6.437,6.437,0,0,1,1.775-4.663,6.173,6.173,0,0,1,4.65-1.837,5.932,5.932,0,0,1,4.675,2.012,6.822,6.822,0,0,1,1.575,5.162h-9.95a3.341,3.341,0,0,0,1.1,2.425,3.776,3.776,0,0,0,2.675.975,3.177,3.177,0,0,0,3.15-1.75h2.875a5.774,5.774,0,0,1-2.2,3A6.518,6.518,0,0,1,66.05.25ZM66-10.45a3.61,3.61,0,0,0-2.312.763A3.507,3.507,0,0,0,62.45-7.525h6.925A3.616,3.616,0,0,0,68.15-9.713,3.349,3.349,0,0,0,66-10.45ZM80.275.25a5.58,5.58,0,0,1-4.287-1.9,6.573,6.573,0,0,1-1.738-4.6,6.573,6.573,0,0,1,1.738-4.6,5.58,5.58,0,0,1,4.287-1.9,4.992,4.992,0,0,1,2.35.563,4.615,4.615,0,0,1,1.65,1.363V-18.75h2.75V0h-2.75V-1.675a4.615,4.615,0,0,1-1.65,1.363A4.992,4.992,0,0,1,80.275.25ZM78.1-3.4a3.462,3.462,0,0,0,2.675,1.15A3.462,3.462,0,0,0,83.45-3.4,4.069,4.069,0,0,0,84.5-6.25,4.069,4.069,0,0,0,83.45-9.1a3.462,3.462,0,0,0-2.675-1.15A3.462,3.462,0,0,0,78.1-9.1a4.069,4.069,0,0,0-1.05,2.85A4.069,4.069,0,0,0,78.1-3.4ZM99.6,0V-14.95H94.45v-2.8H107.7v2.8h-5.175V0Zm11.625-15.225a1.8,1.8,0,0,1-1.3-.538,1.765,1.765,0,0,1-.55-1.312,1.737,1.737,0,0,1,.55-1.287,1.8,1.8,0,0,1,1.3-.538,1.745,1.745,0,0,1,1.3.538,1.778,1.778,0,0,1,.525,1.287,1.807,1.807,0,0,1-.525,1.313A1.745,1.745,0,0,1,111.225-15.225ZM109.85,0V-12.5h2.75V0Zm22.375,0V-7.025a4.278,4.278,0,0,0-.563-2.375A1.865,1.865,0,0,0,130-10.25a2.561,2.561,0,0,0-2.125,1.025,4.792,4.792,0,0,0-.85,2.875V0h-2.75V-7.025a4.278,4.278,0,0,0-.562-2.375,1.865,1.865,0,0,0-1.662-.85,2.6,2.6,0,0,0-2.187,1.075,4.928,4.928,0,0,0-.812,3.025V0H116.3V-12.5h2.75v1.7a3.837,3.837,0,0,1,3.55-1.95,3.855,3.855,0,0,1,3.875,2.475,3.951,3.951,0,0,1,1.612-1.825,4.567,4.567,0,0,1,2.387-.65,4.084,4.084,0,0,1,3.3,1.425,5.786,5.786,0,0,1,1.2,3.85V0Zm11.8.25a6.162,6.162,0,0,1-4.6-1.838,6.388,6.388,0,0,1-1.8-4.662,6.437,6.437,0,0,1,1.775-4.663,6.173,6.173,0,0,1,4.65-1.837,5.932,5.932,0,0,1,4.675,2.012A6.822,6.822,0,0,1,150.3-5.575h-9.95a3.341,3.341,0,0,0,1.1,2.425,3.776,3.776,0,0,0,2.675.975,3.177,3.177,0,0,0,3.15-1.75h2.875a5.774,5.774,0,0,1-2.2,3A6.518,6.518,0,0,1,144.025.25Zm-.05-10.7a3.61,3.61,0,0,0-2.312.763,3.507,3.507,0,0,0-1.238,2.162h6.925a3.616,3.616,0,0,0-1.225-2.188A3.349,3.349,0,0,0,143.975-10.45Zm23.4,7.925a5.9,5.9,0,0,0,4.4-1.85,6.213,6.213,0,0,0,1.8-4.5,6.213,6.213,0,0,0-1.8-4.5,5.9,5.9,0,0,0-4.4-1.85,5.933,5.933,0,0,0-4.425,1.85,6.213,6.213,0,0,0-1.8,4.5,6.213,6.213,0,0,0,1.8,4.5A5.933,5.933,0,0,0,167.375-2.525Zm6.5.15A8.849,8.849,0,0,1,167.375.3a8.87,8.87,0,0,1-6.5-2.662A8.837,8.837,0,0,1,158.2-8.875a8.837,8.837,0,0,1,2.675-6.512,8.87,8.87,0,0,1,6.5-2.663,8.849,8.849,0,0,1,6.5,2.675,8.849,8.849,0,0,1,2.675,6.5A8.849,8.849,0,0,1,173.875-2.375ZM179.35,0V-12.5h2.75v1.7a4.1,4.1,0,0,1,3.8-1.95,4.475,4.475,0,0,1,3.475,1.425,5.42,5.42,0,0,1,1.3,3.8V0h-2.75V-7.075a3.541,3.541,0,0,0-.7-2.338,2.346,2.346,0,0,0-1.9-.837A2.892,2.892,0,0,0,183-9.175a4.581,4.581,0,0,0-.9,3.025V0ZM194.2,0V-18.75h2.75V0Zm10.45,5.225h-3.025l2.675-5.9L198.925-12.5h3.025l3.825,8.85,3.85-8.85h3.05Z" transform="translate(268 1336.9)" fill="#fff"/>
    <g transform="matrix(1, 0, 0, 1, 90, 1211.58)" filter="url(#Rectangle_3292)">
      <rect id="Rectangle_3292-2" data-name="Rectangle 3292" width="197" height="46" rx="5" transform="translate(186 416.86)" fill="#fff"/>
    </g>
    <path id="Path_5201" data-name="Path 5201" d="M7.38.216A6.494,6.494,0,0,1,2.592-1.692,6.385,6.385,0,0,1,.684-6.39a6.385,6.385,0,0,1,1.908-4.7A6.494,6.494,0,0,1,7.38-13,6.473,6.473,0,0,1,11.3-11.727a5.846,5.846,0,0,1,2.277,3.3H10.746A3.032,3.032,0,0,0,9.423-9.918a3.948,3.948,0,0,0-2.043-.558,3.9,3.9,0,0,0-2.934,1.17A4.024,4.024,0,0,0,3.312-6.39,4.024,4.024,0,0,0,4.446-3.474,3.9,3.9,0,0,0,7.38-2.3a3.948,3.948,0,0,0,2.043-.558,3.032,3.032,0,0,0,1.323-1.494h2.826a5.846,5.846,0,0,1-2.277,3.3A6.473,6.473,0,0,1,7.38.216ZM15.228,0V-13.5h2.466V0Zm6.066-10.476a1.518,1.518,0,0,1-1.1-.459,1.494,1.494,0,0,1-.468-1.107,1.494,1.494,0,0,1,.468-1.107,1.518,1.518,0,0,1,1.1-.459,1.53,1.53,0,0,1,1.125.459,1.509,1.509,0,0,1,.459,1.107,1.509,1.509,0,0,1-.459,1.107A1.53,1.53,0,0,1,21.294-10.476ZM20.07,0V-9h2.466V0Zm9,.2a4.574,4.574,0,0,1-3.384-1.359A4.555,4.555,0,0,1,24.336-4.5a4.555,4.555,0,0,1,1.35-3.339A4.574,4.574,0,0,1,29.07-9.2,4.564,4.564,0,0,1,32.085-8.19a4.7,4.7,0,0,1,1.593,2.628H31.122a2.083,2.083,0,0,0-2.052-1.4,2.117,2.117,0,0,0-1.62.675A2.519,2.519,0,0,0,26.82-4.5a2.519,2.519,0,0,0,.63,1.791,2.117,2.117,0,0,0,1.62.675,2.083,2.083,0,0,0,2.052-1.4h2.556A4.7,4.7,0,0,1,32.085-.81,4.564,4.564,0,0,1,29.07.2ZM41.49,0,37.818-4.14V0H35.352V-13.5h2.466v7.812L40.734-9H43.7L40.14-4.95,44.532,0ZM53.172.108A3.637,3.637,0,0,1,50.7-.729a3.034,3.034,0,0,1-.963-2.421V-6.84H47.916V-9h1.818v-2.5H52.2V-9h2.538v2.16H52.2v3.2a1.6,1.6,0,0,0,.36,1.179,1.634,1.634,0,0,0,1.17.351,2.865,2.865,0,0,0,1.008-.162V-.09A5.406,5.406,0,0,1,53.172.108Zm10.692-1.26A4.624,4.624,0,0,1,60.516.2a4.608,4.608,0,0,1-3.348-1.359A4.494,4.494,0,0,1,55.782-4.5a4.5,4.5,0,0,1,1.386-3.33A4.592,4.592,0,0,1,60.516-9.2,4.592,4.592,0,0,1,63.864-7.83,4.5,4.5,0,0,1,65.25-4.5,4.523,4.523,0,0,1,63.864-1.152Zm-3.348-.954a2.1,2.1,0,0,0,1.593-.675A2.4,2.4,0,0,0,62.748-4.5a2.4,2.4,0,0,0-.639-1.719,2.1,2.1,0,0,0-1.593-.675,2.124,2.124,0,0,0-1.611.675A2.4,2.4,0,0,0,58.266-4.5,2.4,2.4,0,0,0,58.9-2.781,2.124,2.124,0,0,0,60.516-2.106ZM73.548,0,69.57-9h2.718l2.376,5.76L77.04-9h2.754l-4,9Zm8.676-10.476a1.518,1.518,0,0,1-1.1-.459,1.494,1.494,0,0,1-.468-1.107,1.494,1.494,0,0,1,.468-1.107,1.518,1.518,0,0,1,1.1-.459,1.53,1.53,0,0,1,1.125.459,1.509,1.509,0,0,1,.459,1.107,1.509,1.509,0,0,1-.459,1.107A1.53,1.53,0,0,1,82.224-10.476ZM81,0V-9h2.466V0Zm8.982.2a4.577,4.577,0,0,1-3.393-1.332,4.6,4.6,0,0,1-1.323-3.384,4.524,4.524,0,0,1,1.341-3.348A4.615,4.615,0,0,1,90-9.2a4.585,4.585,0,0,1,3.438,1.413A4.98,4.98,0,0,1,94.7-3.924h-7.02a2.073,2.073,0,0,0,.7,1.413,2.489,2.489,0,0,0,1.728.567A2.565,2.565,0,0,0,91.287-2.2a1.534,1.534,0,0,0,.729-.729H94.59A4.046,4.046,0,0,1,92.934-.675,5.054,5.054,0,0,1,89.982.2Zm-.054-7.4a2.232,2.232,0,0,0-1.413.441,2.079,2.079,0,0,0-.747,1.215H92A2,2,0,0,0,91.215-6.8,2.212,2.212,0,0,0,89.928-7.2ZM104.058,0l-1.692-5.112L100.692,0H98.244L95.256-9h2.628l1.71,5.76L101.412-9h1.89l1.836,5.76L106.83-9h2.646l-2.97,9Zm13.968.2a4.587,4.587,0,0,1-2.862-.864,2.858,2.858,0,0,1-1.206-2.2h2.574a1.181,1.181,0,0,0,.5.873,1.83,1.83,0,0,0,1.062.3q1.17,0,1.17-.72a.636.636,0,0,0-.261-.549,2.779,2.779,0,0,0-.873-.351l-1.692-.432a3.1,3.1,0,0,1-1.719-1.035,2.773,2.773,0,0,1-.567-1.755,2.308,2.308,0,0,1,.981-1.917,4.248,4.248,0,0,1,2.637-.747,4.049,4.049,0,0,1,2.52.765,2.776,2.776,0,0,1,1.116,2.079h-2.484a1.054,1.054,0,0,0-1.188-.918,1.449,1.449,0,0,0-.774.18.564.564,0,0,0-.288.5q0,.594,1.026.828l1.584.432a3.563,3.563,0,0,1,1.908,1.017,2.628,2.628,0,0,1,.594,1.773,2.324,2.324,0,0,1-1.053,1.989A4.575,4.575,0,0,1,118.026.2Zm9.2,0a3.857,3.857,0,0,1-3.006-1.386A4.835,4.835,0,0,1,122.994-4.5a4.835,4.835,0,0,1,1.224-3.312A3.857,3.857,0,0,1,127.224-9.2a3.273,3.273,0,0,1,1.548.36,3.016,3.016,0,0,1,1.044.846V-9h2.466V0h-2.466V-1.008a3.016,3.016,0,0,1-1.044.846A3.273,3.273,0,0,1,127.224.2ZM126.09-2.736a2.145,2.145,0,0,0,1.656.684,2.117,2.117,0,0,0,1.647-.684,2.523,2.523,0,0,0,.621-1.764,2.523,2.523,0,0,0-.621-1.764,2.117,2.117,0,0,0-1.647-.684,2.117,2.117,0,0,0-1.647.684,2.523,2.523,0,0,0-.621,1.764A2.546,2.546,0,0,0,126.09-2.736ZM134.676,0V-13.5h2.466V0Zm8.982.2a4.577,4.577,0,0,1-3.393-1.332,4.6,4.6,0,0,1-1.323-3.384,4.524,4.524,0,0,1,1.341-3.348A4.615,4.615,0,0,1,143.676-9.2a4.585,4.585,0,0,1,3.438,1.413,4.98,4.98,0,0,1,1.26,3.861h-7.02a2.073,2.073,0,0,0,.7,1.413,2.489,2.489,0,0,0,1.728.567,2.565,2.565,0,0,0,1.179-.261,1.534,1.534,0,0,0,.729-.729h2.574A4.046,4.046,0,0,1,146.61-.675,5.054,5.054,0,0,1,143.658.2ZM143.6-7.2a2.232,2.232,0,0,0-1.413.441,2.079,2.079,0,0,0-.747,1.215h4.23a2,2,0,0,0-.783-1.251A2.212,2.212,0,0,0,143.6-7.2Z" transform="translate(300 1658.445)" fill="#b20922"/>
  </g>
</svg>
