<svg xmlns="http://www.w3.org/2000/svg" xmlns:xlink="http://www.w3.org/1999/xlink" width="557.094" height="424.959" viewBox="0 0 557.094 424.959">
  <defs>
    <linearGradient id="linear-gradient" x1="0.622" x2="0" y2="1.092" gradientUnits="objectBoundingBox">
      <stop offset="0" stop-color="#ef0c2d"/>
      <stop offset="0.975" stop-color="#780617"/>
      <stop offset="1"/>
    </linearGradient>
    <linearGradient id="linear-gradient-2" x1="0.602" y1="0.189" x2="0.23" y2="0.734" gradientUnits="objectBoundingBox">
      <stop offset="0" stop-opacity="0.373"/>
      <stop offset="1" stop-color="#545454" stop-opacity="0"/>
    </linearGradient>
    <linearGradient id="linear-gradient-3" x1="0.602" y1="0.189" x2="0.154" y2="0.851" gradientUnits="objectBoundingBox">
      <stop offset="0" stop-opacity="0.373"/>
      <stop offset="1" stop-color="#545454" stop-opacity="0.02"/>
    </linearGradient>
    <linearGradient id="linear-gradient-4" x1="0.602" y1="0.189" x2="0.085" y2="0.972" xlink:href="#linear-gradient-2"/>
    <linearGradient id="linear-gradient-5" x1="0.602" y1="0.189" x2="0.066" y2="0.952" xlink:href="#linear-gradient-2"/>
    <filter id="Rectangle_3292" x="159.152" y="290.018" width="238.789" height="90.25" filterUnits="userSpaceOnUse">
      <feOffset dy="3" input="SourceAlpha"/>
      <feGaussianBlur stdDeviation="7.5" result="blur"/>
      <feFlood flood-opacity="0.161"/>
      <feComposite operator="in" in2="blur"/>
      <feComposite in="SourceGraphic"/>
    </filter>
  </defs>
  <g id="Group_2507" data-name="Group 2507" transform="translate(-90.5 -1465.133)">
    <rect id="Rectangle_3291" data-name="Rectangle 3291" width="557.094" height="424.959" transform="translate(90.5 1465.133)" fill="url(#linear-gradient)"/>
    <path id="Path_2042" data-name="Path 2042" d="M19651.785-18522.3c-2.609,2.5-74.127,95.324-74.127,95.324l49.438,37.293s33.371-29.623,59.648-52.906,9.928-24.064,9.928-24.064l-38.434-29.416Z" transform="translate(-19426.508 20168.324)" fill="url(#linear-gradient-2)"/>
    <path id="Path_2039" data-name="Path 2039" d="M19651.111-18521.85c-1.465,1.4-25.824,31.275-47.059,57.387-8.076,9.932.086,7.082-7.166,16.3s-21.848,20.564-21.848,20.564l15.986,66.961,110.467-78.451-17.623-26.5-21.455-47.795Z" transform="translate(-19325.32 20162.23)" fill="url(#linear-gradient-3)"/>
    <path id="Path_2043" data-name="Path 2043" d="M19653.943-18521.85c-2.609,2.5-29.639,64.215-29.639,64.215l7.213,18.535-35.977,59.52,109.426-60.432-39.721-8.092v-65.277Z" transform="translate(-19255.758 20162.23)" fill="url(#linear-gradient-4)"/>
    <path id="Path_2044" data-name="Path 2044" d="M19653.943-18521.85c-2.609,2.5-30.949,67.043-30.949,67.043l6.721,15.518-34.174,59.709,109.43-59.693-39.725-8.83v-65.277Z" transform="translate(-19180.471 20162.23)" fill="url(#linear-gradient-5)"/>
    <path id="Path_2045" data-name="Path 2045" d="M19712.109-18504.547l-24.482,26.107-29.994-21.768,20.443-22.154Z" transform="translate(-19437.563 20168.334)" fill="#7a091a"/>
    <path id="Path_2046" data-name="Path 2046" d="M215.325-13.246v-82.6h16.87V-29.3h35.368v16.055Z" transform="translate(182.012 1736.232)" fill="#fff"/>
    <path id="Path_2040" data-name="Path 2040" d="M36.352-12.074q-14.077,0-22.687-8.086T4.59-39.066H21.46a12.577,12.577,0,0,0,5,8.435,16.337,16.337,0,0,0,9.889,2.967,14.559,14.559,0,0,0,8.493-2.269A7.082,7.082,0,0,0,48.1-36.041q0-6.864-11.053-10.005l-8.726-2.56Q18.2-51.515,12.5-57.681A22.2,22.2,0,0,1,6.684-73.038q0-11.285,7.562-17.859T34.374-97.47q12.681,0,20.593,7.62t8.377,17.51H46.59a12.062,12.062,0,0,0-4.654-7.213,13.014,13.014,0,0,0-7.562-2.327,13.188,13.188,0,0,0-7.62,2.036A6.759,6.759,0,0,0,23.67-74.2a7.458,7.458,0,0,0,2.443,6.05,19.764,19.764,0,0,0,7.911,3.839l9.656,2.676Q65.088-55.7,65.088-36.623A22.316,22.316,0,0,1,57.119-19Q49.149-12.074,36.352-12.074Z" transform="translate(211.135 1736.455)" fill="#fff"/>
    <path id="Path_2047" data-name="Path 2047" d="M303.21-13.246v-82.6h51.423v16.055H320.08v16.986h27.573v16.055H320.08V-29.3h34.554v16.055Z" transform="translate(169.865 1736.232)" fill="#fff"/>
    <path id="Path_2041" data-name="Path 2041" d="M90.99-13.246l35.6-82.6H141.6l35.717,82.6H159.632L151.6-32.094H116.353l-7.911,18.848Zm43.047-60.382-11.4,26.759h22.687Z" transform="translate(199.193 1736.232)" fill="#fff"/>
    <path id="Path_5199" data-name="Path 5199" d="M5.293-7V-48h8.372v16.341H31.449V-48h8.372V-7H31.449V-23.687H13.665V-7Zm53.93.635a12.374,12.374,0,0,1-9.643-4.446,15.509,15.509,0,0,1-3.926-10.624A15.509,15.509,0,0,1,49.58-32.06a12.374,12.374,0,0,1,9.643-4.446,10.5,10.5,0,0,1,4.966,1.155,9.676,9.676,0,0,1,3.349,2.714V-35.87h7.91V-7h-7.91v-3.233A9.676,9.676,0,0,1,64.188-7.52,10.5,10.5,0,0,1,59.223-6.365Zm-3.638-9.412A6.882,6.882,0,0,0,60.9-13.583a6.791,6.791,0,0,0,5.283-2.194,8.094,8.094,0,0,0,1.992-5.659,8.094,8.094,0,0,0-1.992-5.659A6.791,6.791,0,0,0,60.9-29.288a6.791,6.791,0,0,0-5.283,2.194,8.094,8.094,0,0,0-1.992,5.659A8.166,8.166,0,0,0,55.585-15.777ZM83.127-7V-50.306h7.91V-7ZM101.72-7V-28.942H95.888V-35.87h5.832v-3.753a10.584,10.584,0,0,1,3.118-8.084,11.061,11.061,0,0,1,7.91-2.945,17.343,17.343,0,0,1,5.023.635v6.987a9.19,9.19,0,0,0-3.233-.52,5.24,5.24,0,0,0-3.753,1.126,5.139,5.139,0,0,0-1.155,3.782v2.772h8.141v6.929H109.63V-7Zm57.163-37.012a13.03,13.03,0,0,1,4.1,9.816,13.123,13.123,0,0,1-4.1,9.845A14.212,14.212,0,0,1,148.6-20.4H143.35V-7h-8.372V-48H148.6A14.155,14.155,0,0,1,158.883-44.012Zm-5.774,14.089a5.685,5.685,0,0,0,1.732-4.273,5.685,5.685,0,0,0-1.732-4.273,6.364,6.364,0,0,0-4.619-1.674H143.35v11.895h5.139A6.364,6.364,0,0,0,153.109-29.923ZM167.775-7V-35.87h7.91v4.619a7.246,7.246,0,0,1,2.743-3.551,7.456,7.456,0,0,1,4.417-1.415,9.258,9.258,0,0,1,2.656.346v8.026a11.347,11.347,0,0,0-3.58-.635,5.6,5.6,0,0,0-4.533,2.05,8.548,8.548,0,0,0-1.7,5.63V-7Zm26.734-33.605a4.869,4.869,0,0,1-3.522-1.472,4.793,4.793,0,0,1-1.5-3.551,4.793,4.793,0,0,1,1.5-3.551,4.869,4.869,0,0,1,3.522-1.472,4.907,4.907,0,0,1,3.609,1.472,4.839,4.839,0,0,1,1.472,3.551,4.839,4.839,0,0,1-1.472,3.551A4.907,4.907,0,0,1,194.508-40.605ZM190.582-7V-35.87h7.91V-7Zm28.87.635A14.673,14.673,0,0,1,208.6-10.724a14.61,14.61,0,0,1-4.331-10.711A14.61,14.61,0,0,1,208.6-32.146a14.673,14.673,0,0,1,10.855-4.359,14.64,14.64,0,0,1,9.672,3.233,15.075,15.075,0,0,1,5.11,8.43h-8.2a6.681,6.681,0,0,0-6.582-4.5,6.79,6.79,0,0,0-5.2,2.165,8.081,8.081,0,0,0-2.021,5.745,8.081,8.081,0,0,0,2.021,5.745,6.79,6.79,0,0,0,5.2,2.165,6.681,6.681,0,0,0,6.582-4.5h8.2a15.075,15.075,0,0,1-5.11,8.43A14.64,14.64,0,0,1,219.452-6.365Zm33.432,0A14.682,14.682,0,0,1,242-10.638a14.76,14.76,0,0,1-4.244-10.855,14.513,14.513,0,0,1,4.3-10.74,14.8,14.8,0,0,1,10.884-4.273,14.709,14.709,0,0,1,11.028,4.533q4.388,4.533,4.042,12.385H245.493a6.65,6.65,0,0,0,2.252,4.533,7.984,7.984,0,0,0,5.543,1.819,8.227,8.227,0,0,0,3.782-.837,4.922,4.922,0,0,0,2.339-2.338h8.257a12.979,12.979,0,0,1-5.312,7.246A16.212,16.212,0,0,1,252.884-6.365ZM252.711-30.1a7.16,7.16,0,0,0-4.533,1.415,6.669,6.669,0,0,0-2.4,3.9h13.569a6.422,6.422,0,0,0-2.512-4.013A7.1,7.1,0,0,0,252.711-30.1Z" transform="translate(235.168 1621.398)" fill="#fff"/>
    <path id="Path_5198" data-name="Path 5198" d="M2.175-2.612v-15.3H4.7V-5.025h7v2.413Zm12.69-13.121a1.549,1.549,0,0,1-1.12-.463,1.521,1.521,0,0,1-.474-1.131,1.5,1.5,0,0,1,.474-1.11,1.549,1.549,0,0,1,1.12-.463,1.5,1.5,0,0,1,1.12.463,1.532,1.532,0,0,1,.452,1.11,1.558,1.558,0,0,1-.452,1.131A1.5,1.5,0,0,1,14.865-15.733ZM13.68-2.612V-13.384h2.37V-2.612Zm19.283,0V-8.666a3.687,3.687,0,0,0-.485-2.047,1.607,1.607,0,0,0-1.433-.733,2.207,2.207,0,0,0-1.831.883,4.13,4.13,0,0,0-.733,2.478v5.472h-2.37V-8.666a3.687,3.687,0,0,0-.485-2.047,1.607,1.607,0,0,0-1.433-.733,2.241,2.241,0,0,0-1.885.926,4.247,4.247,0,0,0-.7,2.607v5.3h-2.37V-13.384h2.37v1.465A3.307,3.307,0,0,1,24.668-13.6a3.322,3.322,0,0,1,3.339,2.133A3.405,3.405,0,0,1,29.4-13.04a3.936,3.936,0,0,1,2.058-.56A3.519,3.519,0,0,1,34.3-12.372a4.986,4.986,0,0,1,1.034,3.318v6.442Zm6.593-13.121a1.549,1.549,0,0,1-1.12-.463,1.521,1.521,0,0,1-.474-1.131,1.5,1.5,0,0,1,.474-1.11,1.549,1.549,0,0,1,1.12-.463,1.5,1.5,0,0,1,1.12.463,1.532,1.532,0,0,1,.452,1.11,1.558,1.558,0,0,1-.452,1.131A1.5,1.5,0,0,1,39.555-15.733ZM38.37-2.612V-13.384h2.37V-2.612ZM48.6-2.5a3.84,3.84,0,0,1-2.661-.916A3.385,3.385,0,0,1,44.92-6.081v-5.192H42.679v-2.111H44.92v-2.995h2.37v2.995h3.081v2.111H47.29v4.8a1.918,1.918,0,0,0,.431,1.411,1.92,1.92,0,0,0,1.379.42,3.211,3.211,0,0,0,1.271-.215v2.111A6.046,6.046,0,0,1,48.6-2.5Zm8.618.108A5.31,5.31,0,0,1,53.258-3.98,5.505,5.505,0,0,1,51.707-8a5.548,5.548,0,0,1,1.53-4.018A5.32,5.32,0,0,1,57.244-13.6a5.112,5.112,0,0,1,4.029,1.734A5.88,5.88,0,0,1,62.63-7.417H54.055A2.879,2.879,0,0,0,55-5.327a3.255,3.255,0,0,0,2.305.84,2.738,2.738,0,0,0,2.715-1.508H62.5a4.976,4.976,0,0,1-1.9,2.585A5.618,5.618,0,0,1,57.222-2.4Zm-.043-9.221a3.111,3.111,0,0,0-1.993.657A3.022,3.022,0,0,0,54.12-9.1h5.968a3.117,3.117,0,0,0-1.056-1.885A2.886,2.886,0,0,0,57.179-11.618ZM69.481-2.4a4.809,4.809,0,0,1-3.695-1.637A5.665,5.665,0,0,1,64.289-8a5.665,5.665,0,0,1,1.5-3.964A4.809,4.809,0,0,1,69.481-13.6a4.3,4.3,0,0,1,2.025.485,3.977,3.977,0,0,1,1.422,1.174v-6.83H75.3V-2.612h-2.37V-4.055a3.977,3.977,0,0,1-1.422,1.174A4.3,4.3,0,0,1,69.481-2.4ZM67.607-5.542a2.984,2.984,0,0,0,2.305.991,2.984,2.984,0,0,0,2.305-.991A3.507,3.507,0,0,0,73.122-8a3.507,3.507,0,0,0-.9-2.456,2.984,2.984,0,0,0-2.305-.991,2.984,2.984,0,0,0-2.305.991A3.506,3.506,0,0,0,66.7-8,3.506,3.506,0,0,0,67.607-5.542Zm18.529,2.93V-15.5H81.7v-2.413H93.116V-15.5h-4.46V-2.612ZM96.154-15.733a1.549,1.549,0,0,1-1.12-.463,1.521,1.521,0,0,1-.474-1.131,1.5,1.5,0,0,1,.474-1.11,1.549,1.549,0,0,1,1.12-.463,1.5,1.5,0,0,1,1.12.463,1.532,1.532,0,0,1,.452,1.11,1.558,1.558,0,0,1-.452,1.131A1.5,1.5,0,0,1,96.154-15.733ZM94.969-2.612V-13.384h2.37V-2.612Zm19.283,0V-8.666a3.687,3.687,0,0,0-.485-2.047,1.607,1.607,0,0,0-1.433-.733,2.207,2.207,0,0,0-1.831.883,4.13,4.13,0,0,0-.733,2.478v5.472H107.4V-8.666a3.687,3.687,0,0,0-.485-2.047,1.607,1.607,0,0,0-1.433-.733,2.241,2.241,0,0,0-1.885.926,4.247,4.247,0,0,0-.7,2.607v5.3h-2.37V-13.384h2.37v1.465a3.307,3.307,0,0,1,3.059-1.681,3.322,3.322,0,0,1,3.339,2.133,3.405,3.405,0,0,1,1.39-1.573,3.936,3.936,0,0,1,2.058-.56,3.519,3.519,0,0,1,2.844,1.228,4.986,4.986,0,0,1,1.034,3.318v6.442Zm10.169.215a5.31,5.31,0,0,1-3.964-1.584A5.505,5.505,0,0,1,118.905-8a5.548,5.548,0,0,1,1.53-4.018,5.32,5.32,0,0,1,4.007-1.584,5.112,5.112,0,0,1,4.029,1.734,5.88,5.88,0,0,1,1.357,4.449h-8.575a2.88,2.88,0,0,0,.948,2.09,3.254,3.254,0,0,0,2.305.84,2.738,2.738,0,0,0,2.715-1.508H129.7a4.976,4.976,0,0,1-1.9,2.585A5.618,5.618,0,0,1,124.421-2.4Zm-.043-9.221a3.111,3.111,0,0,0-1.993.657A3.022,3.022,0,0,0,121.319-9.1h5.968a3.117,3.117,0,0,0-1.056-1.885A2.886,2.886,0,0,0,124.378-11.618Zm20.166,6.83a5.088,5.088,0,0,0,3.792-1.594,5.354,5.354,0,0,0,1.551-3.878,5.354,5.354,0,0,0-1.551-3.878,5.088,5.088,0,0,0-3.792-1.594,5.113,5.113,0,0,0-3.813,1.594,5.354,5.354,0,0,0-1.551,3.878,5.354,5.354,0,0,0,1.551,3.878A5.113,5.113,0,0,0,144.544-4.788Zm5.6.129a7.626,7.626,0,0,1-5.6,2.305,7.644,7.644,0,0,1-5.6-2.295,7.616,7.616,0,0,1-2.305-5.612,7.616,7.616,0,0,1,2.305-5.612,7.644,7.644,0,0,1,5.6-2.295,7.626,7.626,0,0,1,5.6,2.305,7.626,7.626,0,0,1,2.305,5.6A7.626,7.626,0,0,1,150.146-4.659Zm4.718,2.047V-13.384h2.37v1.465a3.532,3.532,0,0,1,3.275-1.681,3.856,3.856,0,0,1,2.995,1.228,4.671,4.671,0,0,1,1.12,3.275v6.485h-2.37v-6.1a3.052,3.052,0,0,0-.6-2.014,2.022,2.022,0,0,0-1.637-.722,2.492,2.492,0,0,0-2,.926,3.948,3.948,0,0,0-.776,2.607v5.3Zm12.8,0V-18.771h2.37V-2.612Zm9.006,4.5h-2.607l2.305-5.085-4.632-10.191h2.607l3.3,7.627,3.318-7.627h2.628Z" transform="translate(278.689 1556.684)" fill="#fff"/>
    <g transform="matrix(1, 0, 0, 1, 90.5, 1465.13)" filter="url(#Rectangle_3292)">
      <rect id="Rectangle_3292-2" data-name="Rectangle 3292" width="193.789" height="45.25" rx="5" transform="translate(181.65 309.52)" fill="#fff"/>
    </g>
    <path id="Path_5201" data-name="Path 5201" d="M7.271-.009a6.388,6.388,0,0,1-4.71-1.877A6.281,6.281,0,0,1,.684-6.508a6.281,6.281,0,0,1,1.877-4.621,6.388,6.388,0,0,1,4.71-1.877,6.367,6.367,0,0,1,3.851,1.248,5.75,5.75,0,0,1,2.24,3.249h-2.78a2.983,2.983,0,0,0-1.3-1.47,3.884,3.884,0,0,0-2.01-.549A3.841,3.841,0,0,0,4.385-9.376,3.958,3.958,0,0,0,3.269-6.508,3.958,3.958,0,0,0,4.385-3.639,3.841,3.841,0,0,0,7.271-2.488a3.884,3.884,0,0,0,2.01-.549,2.983,2.983,0,0,0,1.3-1.47h2.78a5.75,5.75,0,0,1-2.24,3.249A6.368,6.368,0,0,1,7.271-.009Zm7.72-.212V-13.5h2.426V-.222Zm5.967-10.305a1.493,1.493,0,0,1-1.08-.452,1.47,1.47,0,0,1-.46-1.089,1.47,1.47,0,0,1,.46-1.089,1.493,1.493,0,0,1,1.08-.452,1.5,1.5,0,0,1,1.107.452,1.484,1.484,0,0,1,.452,1.089,1.484,1.484,0,0,1-.452,1.089A1.5,1.5,0,0,1,20.958-10.527ZM19.754-.222V-9.075H22.18V-.222Zm8.853.195a4.5,4.5,0,0,1-3.329-1.337A4.48,4.48,0,0,1,23.95-4.648a4.48,4.48,0,0,1,1.328-3.285A4.5,4.5,0,0,1,28.607-9.27a4.489,4.489,0,0,1,2.966.992A4.623,4.623,0,0,1,33.14-5.693H30.626a2.049,2.049,0,0,0-2.019-1.381,2.082,2.082,0,0,0-1.594.664,2.478,2.478,0,0,0-.62,1.762,2.478,2.478,0,0,0,.62,1.762,2.082,2.082,0,0,0,1.594.664A2.049,2.049,0,0,0,30.626-3.6H33.14a4.623,4.623,0,0,1-1.567,2.585A4.489,4.489,0,0,1,28.607-.027ZM40.825-.222,37.213-4.294V-.222H34.787V-13.5h2.426v7.685l2.868-3.258H43L39.5-5.091l4.32,4.869Zm11.492.106a3.577,3.577,0,0,1-2.435-.823,2.985,2.985,0,0,1-.947-2.382V-6.95H47.146V-9.075h1.788v-2.461H51.36v2.461h2.5V-6.95h-2.5V-3.8a1.576,1.576,0,0,0,.354,1.16,1.607,1.607,0,0,0,1.151.345,2.818,2.818,0,0,0,.992-.159V-.31A5.318,5.318,0,0,1,52.317-.116ZM62.834-1.355A4.548,4.548,0,0,1,59.541-.027a4.533,4.533,0,0,1-3.293-1.337,4.421,4.421,0,0,1-1.363-3.285,4.429,4.429,0,0,1,1.363-3.276A4.517,4.517,0,0,1,59.541-9.27a4.517,4.517,0,0,1,3.293,1.346A4.429,4.429,0,0,1,64.2-4.648,4.45,4.45,0,0,1,62.834-1.355Zm-3.293-.938a2.069,2.069,0,0,0,1.567-.664,2.361,2.361,0,0,0,.629-1.691,2.361,2.361,0,0,0-.629-1.691A2.069,2.069,0,0,0,59.541-7a2.09,2.09,0,0,0-1.585.664,2.361,2.361,0,0,0-.629,1.691,2.361,2.361,0,0,0,.629,1.691A2.09,2.09,0,0,0,59.541-2.293ZM72.36-.222,68.447-9.075h2.674l2.337,5.666L75.8-9.075H78.5L74.574-.222Zm8.535-10.305a1.493,1.493,0,0,1-1.08-.452,1.47,1.47,0,0,1-.46-1.089,1.47,1.47,0,0,1,.46-1.089,1.493,1.493,0,0,1,1.08-.452A1.5,1.5,0,0,1,82-13.156a1.484,1.484,0,0,1,.452,1.089A1.484,1.484,0,0,1,82-10.979,1.5,1.5,0,0,1,80.895-10.527ZM79.691-.222V-9.075h2.426V-.222Zm8.836.195a4.5,4.5,0,0,1-3.338-1.31,4.526,4.526,0,0,1-1.3-3.329A4.45,4.45,0,0,1,85.207-7.96a4.54,4.54,0,0,1,3.338-1.31,4.511,4.511,0,0,1,3.382,1.39,4.9,4.9,0,0,1,1.239,3.8H86.26a2.039,2.039,0,0,0,.691,1.39,2.448,2.448,0,0,0,1.7.558,2.523,2.523,0,0,0,1.16-.257,1.509,1.509,0,0,0,.717-.717h2.532A3.98,3.98,0,0,1,91.43-.886,4.971,4.971,0,0,1,88.527-.027ZM88.473-7.3a2.2,2.2,0,0,0-1.39.434,2.045,2.045,0,0,0-.735,1.2H90.51a1.969,1.969,0,0,0-.77-1.231A2.176,2.176,0,0,0,88.473-7.3Zm13.9,7.083L100.709-5.25,99.062-.222H96.654L93.715-9.075H96.3l1.682,5.666L99.77-9.075h1.859l1.806,5.666L105.1-9.075h2.6L104.781-.222Zm13.74.195a4.512,4.512,0,0,1-2.815-.85,2.812,2.812,0,0,1-1.186-2.16h2.532a1.162,1.162,0,0,0,.5.859,1.8,1.8,0,0,0,1.045.292q1.151,0,1.151-.708a.625.625,0,0,0-.257-.54,2.733,2.733,0,0,0-.859-.345L114.555-3.9a3.049,3.049,0,0,1-1.691-1.018,2.727,2.727,0,0,1-.558-1.726,2.27,2.27,0,0,1,.965-1.886,4.178,4.178,0,0,1,2.594-.735,3.983,3.983,0,0,1,2.479.753,2.731,2.731,0,0,1,1.1,2.045H117a1.037,1.037,0,0,0-1.169-.9,1.425,1.425,0,0,0-.761.177.555.555,0,0,0-.283.5q0,.584,1.009.815l1.558.425a3.505,3.505,0,0,1,1.877,1,2.585,2.585,0,0,1,.584,1.744,2.286,2.286,0,0,1-1.036,1.957A4.5,4.5,0,0,1,116.113-.027Zm9.048,0A3.794,3.794,0,0,1,122.2-1.39,4.756,4.756,0,0,1,121-4.648a4.756,4.756,0,0,1,1.2-3.258,3.794,3.794,0,0,1,2.957-1.363,3.22,3.22,0,0,1,1.523.354,2.967,2.967,0,0,1,1.027.832v-.992h2.426V-.222h-2.426v-.992a2.967,2.967,0,0,1-1.027.832A3.22,3.22,0,0,1,125.162-.027Zm-1.116-2.886a2.11,2.11,0,0,0,1.629.673,2.083,2.083,0,0,0,1.62-.673,2.482,2.482,0,0,0,.611-1.735,2.482,2.482,0,0,0-.611-1.735,2.083,2.083,0,0,0-1.62-.673,2.083,2.083,0,0,0-1.62.673,2.482,2.482,0,0,0-.611,1.735A2.5,2.5,0,0,0,124.046-2.913Zm8.446,2.691V-13.5h2.426V-.222Zm8.836.195a4.5,4.5,0,0,1-3.338-1.31,4.526,4.526,0,0,1-1.3-3.329,4.45,4.45,0,0,1,1.319-3.293,4.54,4.54,0,0,1,3.338-1.31,4.511,4.511,0,0,1,3.382,1.39,4.9,4.9,0,0,1,1.239,3.8h-6.906a2.039,2.039,0,0,0,.691,1.39,2.448,2.448,0,0,0,1.7.558,2.523,2.523,0,0,0,1.16-.257,1.509,1.509,0,0,0,.717-.717h2.532a3.98,3.98,0,0,1-1.629,2.222A4.971,4.971,0,0,1,141.328-.027ZM141.275-7.3a2.2,2.2,0,0,0-1.39.434,2.045,2.045,0,0,0-.735,1.2h4.161a1.97,1.97,0,0,0-.77-1.231A2.176,2.176,0,0,0,141.275-7.3Z" transform="translate(295.75 1804.383)" fill="#b20922"/>
  </g>
</svg>
