<svg xmlns="http://www.w3.org/2000/svg" xmlns:xlink="http://www.w3.org/1999/xlink" width="1370" height="214.318" viewBox="0 0 1370 214.318">
  <defs>
    <linearGradient id="linear-gradient" x1="0.622" x2="0.529" y2="2.667" gradientUnits="objectBoundingBox">
      <stop offset="0" stop-color="#ef0c2d"/>
      <stop offset="0.975" stop-color="#780617"/>
      <stop offset="1"/>
    </linearGradient>
    <linearGradient id="linear-gradient-2" x1="0.644" y1="0.226" x2="0.354" y2="0.826" gradientUnits="objectBoundingBox">
      <stop offset="0" stop-opacity="0.235"/>
      <stop offset="0.651" stop-opacity="0.059"/>
      <stop offset="1" stop-opacity="0"/>
    </linearGradient>
    <linearGradient id="linear-gradient-3" x1="0.644" y1="0.226" x2="0.354" y2="0.826" gradientUnits="objectBoundingBox">
      <stop offset="0" stop-opacity="0.369"/>
      <stop offset="0.651" stop-opacity="0.059"/>
      <stop offset="1" stop-opacity="0"/>
    </linearGradient>
    <linearGradient id="linear-gradient-4" x1="0.607" y1="0.238" x2="0.297" y2="0.934" gradientUnits="objectBoundingBox">
      <stop offset="0" stop-opacity="0.369"/>
      <stop offset="0.535" stop-color="#414141" stop-opacity="0.082"/>
      <stop offset="1" stop-color="#545454" stop-opacity="0"/>
    </linearGradient>
    <linearGradient id="linear-gradient-5" x1="0.607" y1="0.238" x2="0.306" y2="0.949" gradientUnits="objectBoundingBox">
      <stop offset="0" stop-opacity="0.369"/>
      <stop offset="1" stop-opacity="0.369"/>
    </linearGradient>
    <linearGradient id="linear-gradient-6" x1="0.592" y1="0.256" x2="0.324" y2="1" gradientUnits="objectBoundingBox">
      <stop offset="0" stop-opacity="0.369"/>
      <stop offset="0.583" stop-color="#3f3f3f" stop-opacity="0.09"/>
      <stop offset="1" stop-color="#545454" stop-opacity="0"/>
    </linearGradient>
  </defs>
  <g id="Group_2162" data-name="Group 2162" transform="translate(-93 -128)">
    <rect id="Rectangle_3348" data-name="Rectangle 3348" width="1370" height="214.318" transform="translate(93 128)" fill="url(#linear-gradient)"/>
    <path id="Path_5289" data-name="Path 5289" d="M22150.24-20470.8l-2.768,6.457-46.168,88.186-52.85-12.133,58.229-103.578s13.469-4.979,14.961-3.227,12.277-3.654,12.277-3.654Z" transform="translate(-21527 20716)" fill="url(#linear-gradient-2)"/>
    <path id="Path_5293" data-name="Path 5293" d="M22150.023-20471.3l-1.512,3.988-47.207,91.152h-65.822l72.6-119.738s12.066-.951,13.559.8,12.277-3.654,12.277-3.654Z" transform="translate(-21353 20716)" fill="url(#linear-gradient-3)"/>
    <path id="Path_5290" data-name="Path 5290" d="M22201.23-20469.6a69.222,69.222,0,0,1-3.135,9.574c-2.049,4.932-41.338,80.912-41.338,80.912l-43.244-3.7,36.467-87.643,13.172-32.766,13.391,40.617,9.9.939Z" transform="translate(-21527 20716)" fill="url(#linear-gradient-4)"/>
    <path id="Path_5292" data-name="Path 5292" d="M22141.719-20444.557l21.361-35.035,4.256,19.477-4.256,25.055Z" transform="translate(-21498 20692)" fill="url(#linear-gradient-5)"/>
    <path id="Path_5291" data-name="Path 5291" d="M22214.967-20503.611l-14.318,35.02-1.066,5.8-26.133,79.641,32.461,3.174,49.154-76.014-23.156-23.4h-10.891Z" transform="translate(-21527 20716)" fill="url(#linear-gradient-6)"/>
    <path id="Path_5294" data-name="Path 5294" d="M22215.465-20503.6l-12.432,29.943v1.953l-37.984,84.91,40.861,6.816,19.244-76.109-9.5-.525,5.363-22.781Z" transform="translate(-21406 20716)" fill="url(#linear-gradient-6)"/>
    <path id="Path_5295" data-name="Path 5295" d="M22214.936-20503.582l-11.9,29.924-37.984,86.863,40.861,6.816,18.688-76.1-8.943-.537,5.363-22.781Z" transform="translate(-21366 20716)" fill="url(#linear-gradient-6)"/>
    <path id="Path_5296" data-name="Path 5296" d="M22215.385-20503.625l-12.352,29.967-37.984,86.863,40.861,6.816,39.027-76.609-29.283-.025,5.363-22.781Z" transform="translate(-21327 20716)" fill="url(#linear-gradient-6)"/>
    <path id="Path_5297" data-name="Path 5297" d="M22215.385-20503.625l-12.352,29.967-4.186,10.047,4.865,7.561-32.736,66.209,34.934,9.863,49.529-76.076-30.143-23.34-9.643,22.781,5.363-22.781Z" transform="translate(-21285.777 20716)" fill="url(#linear-gradient-6)"/>
    <path id="Path_5298" data-name="Path 5298" d="M22212.988-20495.387h-3.088l-11.383,32.07,6.1,7.252-36.746,62.939,38.039,13.146,36.8-87.266-10.477-11.426-11.221-.725Z" transform="translate(-21234.953 20716)" fill="url(#linear-gradient-6)"/>
    <path id="Path_5309" data-name="Path 5309" d="M17.085-13.735a13.214,13.214,0,0,0,9.849,4.221,13,13,0,0,0,9.782-4.221,14.071,14.071,0,0,0,4.02-10.05,14.071,14.071,0,0,0-4.02-10.05,13,13,0,0,0-9.782-4.221,13.107,13.107,0,0,0-9.816,4.221,14.01,14.01,0,0,0-4.054,10.05A14.071,14.071,0,0,0,17.085-13.735Zm27.2,7.3A23.527,23.527,0,0,1,26.934.8,23.691,23.691,0,0,1,9.547-6.4a23.691,23.691,0,0,1-7.2-17.386,23.691,23.691,0,0,1,7.2-17.386,23.691,23.691,0,0,1,17.387-7.2A23.636,23.636,0,0,1,44.32-41.138a23.724,23.724,0,0,1,7.2,17.353A23.669,23.669,0,0,1,44.287-6.432ZM95.14-4.556Q89.713.8,81.07.8t-14.1-5.393q-5.461-5.393-5.461-14.237V-47.57H72.159v28.877a9.124,9.124,0,0,0,2.446,6.7A8.675,8.675,0,0,0,81.07-9.514a8.675,8.675,0,0,0,6.465-2.479,9.124,9.124,0,0,0,2.446-6.7V-47.57h10.653v28.743Q100.634-9.983,95.14-4.556ZM113.3,0V-47.57h18.76a14.283,14.283,0,0,1,10.653,4.154A13.965,13.965,0,0,1,146.8-33.232q0,8.978-9.313,12.261L154.3,0H141.5L125.625-19.631H123.95V0ZM123.95-28.676h6.834a5.868,5.868,0,0,0,3.92-1.273,4.1,4.1,0,0,0,1.507-3.283,4.051,4.051,0,0,0-1.507-3.35,6.083,6.083,0,0,0-3.92-1.206H123.95Zm65.794,14.941a13.214,13.214,0,0,0,9.849,4.221,13,13,0,0,0,9.782-4.221,14.071,14.071,0,0,0,4.02-10.05,14.071,14.071,0,0,0-4.02-10.05,13,13,0,0,0-9.782-4.221,13.107,13.107,0,0,0-9.816,4.221,14.01,14.01,0,0,0-4.053,10.05A14.071,14.071,0,0,0,189.744-13.735Zm27.2,7.3A23.527,23.527,0,0,1,199.593.8a23.691,23.691,0,0,1-17.387-7.2A23.691,23.691,0,0,1,175-23.785a23.691,23.691,0,0,1,7.2-17.386,23.691,23.691,0,0,1,17.387-7.2,23.636,23.636,0,0,1,17.386,7.236,23.724,23.724,0,0,1,7.2,17.353A23.669,23.669,0,0,1,216.946-6.432ZM234.7,0V-47.57H263.98v10.184H245.354v8.576h14.539v10.184H245.354V0Zm39.664,0V-47.57h29.279v10.184H285.018v8.576h14.539v10.184H285.018V0Zm39.664,0V-47.57h30.15v10.184h-19.5v8.509h15.477v10.184H324.682v8.509h19.5V0Zm41.406,0V-47.57H374.2a14.283,14.283,0,0,1,10.653,4.154,13.965,13.965,0,0,1,4.087,10.184q0,8.978-9.313,12.261L396.439,0h-12.8L367.763-19.631h-1.675V0Zm10.653-28.676h6.834a5.868,5.868,0,0,0,3.919-1.273,4.1,4.1,0,0,0,1.508-3.283,4.051,4.051,0,0,0-1.508-3.35,6.083,6.083,0,0,0-3.919-1.206h-6.834ZM417.946.8q-8.308,0-13.4-4.824a16.021,16.021,0,0,1-5.36-11.256h10.653a7.1,7.1,0,0,0,2.714,4.589,8.7,8.7,0,0,0,5.393,1.642,7.9,7.9,0,0,0,4.456-1.139,3.53,3.53,0,0,0,1.708-3.082q0-3.417-6.231-5.159l-4.623-1.206a19.56,19.56,0,0,1-9.38-5.226,12.9,12.9,0,0,1-3.484-9.045,13.346,13.346,0,0,1,4.456-10.553q4.455-3.919,11.892-3.919,7.5,0,12.194,4.522A15.024,15.024,0,0,1,433.892-33.5H423.306a6.484,6.484,0,0,0-2.546-3.819,7.09,7.09,0,0,0-4.02-1.206,7.246,7.246,0,0,0-4.02,1,3.394,3.394,0,0,0-1.608,2.881,3.657,3.657,0,0,0,1.374,3.082,11.675,11.675,0,0,0,4.388,2.01L422.3-28.14a18.644,18.644,0,0,1,9.28,5.293A13.3,13.3,0,0,1,434.9-13.6a13.128,13.128,0,0,1-4.69,10.284Q425.517.8,417.946.8Z" transform="translate(574 260)" fill="#fff"/>
    <path id="Path_5310" data-name="Path 5310" d="M14.651,0,11.063-8.671,7.475,0H4.347L.414-16.33H3.956L6.44-5.474l4.623-11.132L15.686-5.474,18.17-16.33h3.542L17.779,0ZM27.968.253a5.848,5.848,0,0,1-4.336-1.7,5.879,5.879,0,0,1-1.691-4.324,5.781,5.781,0,0,1,1.714-4.278,5.9,5.9,0,0,1,4.335-1.7,5.859,5.859,0,0,1,4.393,1.805,6.364,6.364,0,0,1,1.61,4.934h-8.97a2.649,2.649,0,0,0,.9,1.805,3.18,3.18,0,0,0,2.208.725,3.277,3.277,0,0,0,1.507-.334,1.961,1.961,0,0,0,.932-.931h3.289A5.17,5.17,0,0,1,31.74-.863,6.458,6.458,0,0,1,27.968.253ZM27.9-9.2a2.852,2.852,0,0,0-1.806.564,2.657,2.657,0,0,0-.955,1.552h5.4a2.558,2.558,0,0,0-1-1.6A2.827,2.827,0,0,0,27.9-9.2Zm8.4,9.2V-17.25h3.151V0Zm11.5.253A5.845,5.845,0,0,1,43.47-1.483,5.82,5.82,0,0,1,41.745-5.75a5.82,5.82,0,0,1,1.725-4.266,5.845,5.845,0,0,1,4.324-1.736,5.832,5.832,0,0,1,3.852,1.288,6,6,0,0,1,2.035,3.358H50.416A2.661,2.661,0,0,0,47.794-8.9a2.7,2.7,0,0,0-2.07.863,3.219,3.219,0,0,0-.805,2.288,3.219,3.219,0,0,0,.805,2.289,2.7,2.7,0,0,0,2.07.862,2.661,2.661,0,0,0,2.622-1.794h3.266a6,6,0,0,1-2.035,3.358A5.832,5.832,0,0,1,47.794.253ZM65.389-1.472A5.908,5.908,0,0,1,61.111.253a5.888,5.888,0,0,1-4.278-1.736A5.742,5.742,0,0,1,55.062-5.75a5.753,5.753,0,0,1,1.771-4.255,5.868,5.868,0,0,1,4.278-1.748,5.868,5.868,0,0,1,4.278,1.748A5.753,5.753,0,0,1,67.16-5.75,5.78,5.78,0,0,1,65.389-1.472ZM61.111-2.691a2.688,2.688,0,0,0,2.035-.862,3.067,3.067,0,0,0,.817-2.2,3.067,3.067,0,0,0-.817-2.2,2.688,2.688,0,0,0-2.035-.863,2.714,2.714,0,0,0-2.058.863,3.067,3.067,0,0,0-.817,2.2,3.067,3.067,0,0,0,.817,2.2A2.714,2.714,0,0,0,61.111-2.691ZM83.927,0V-6.141q0-2.737-1.794-2.737a1.976,1.976,0,0,0-1.644.782,3.933,3.933,0,0,0-.656,2.323V0H76.682V-6.141q0-2.737-1.794-2.737a1.989,1.989,0,0,0-1.679.828,4.026,4.026,0,0,0-.621,2.438V0H69.437V-11.5h3.151v1.311a3.5,3.5,0,0,1,3.059-1.564,3.794,3.794,0,0,1,3.565,2.116,3.658,3.658,0,0,1,1.518-1.552,4.168,4.168,0,0,1,2.047-.563A3.9,3.9,0,0,1,85.951-10.4,5.66,5.66,0,0,1,87.078-6.67V0ZM95.266.253a5.848,5.848,0,0,1-4.335-1.7A5.879,5.879,0,0,1,89.24-5.773a5.781,5.781,0,0,1,1.714-4.278,5.9,5.9,0,0,1,4.336-1.7,5.859,5.859,0,0,1,4.393,1.805,6.364,6.364,0,0,1,1.61,4.934h-8.97a2.649,2.649,0,0,0,.9,1.805,3.18,3.18,0,0,0,2.208.725,3.277,3.277,0,0,0,1.507-.334,1.961,1.961,0,0,0,.931-.931h3.289A5.17,5.17,0,0,1,99.038-.863,6.458,6.458,0,0,1,95.266.253ZM95.2-9.2a2.852,2.852,0,0,0-1.805.564,2.657,2.657,0,0,0-.955,1.552h5.405a2.558,2.558,0,0,0-1-1.6A2.827,2.827,0,0,0,95.2-9.2ZM114.011.138a4.647,4.647,0,0,1-3.162-1.07,3.877,3.877,0,0,1-1.23-3.094V-8.74h-2.323V-11.5h2.323v-3.2h3.151v3.2h3.243v2.76h-3.243v4.094a2.047,2.047,0,0,0,.46,1.507,2.087,2.087,0,0,0,1.495.449,3.66,3.66,0,0,0,1.288-.207V-.115A6.908,6.908,0,0,1,114.011.138Zm13.662-1.61A5.908,5.908,0,0,1,123.395.253a5.888,5.888,0,0,1-4.278-1.736,5.742,5.742,0,0,1-1.771-4.267,5.753,5.753,0,0,1,1.771-4.255,5.868,5.868,0,0,1,4.278-1.748,5.868,5.868,0,0,1,4.278,1.748,5.753,5.753,0,0,1,1.771,4.255A5.78,5.78,0,0,1,127.673-1.472Zm-4.278-1.219a2.688,2.688,0,0,0,2.035-.862,3.067,3.067,0,0,0,.816-2.2,3.067,3.067,0,0,0-.816-2.2,2.688,2.688,0,0,0-2.035-.863,2.714,2.714,0,0,0-2.059.863,3.067,3.067,0,0,0-.816,2.2,3.067,3.067,0,0,0,.816,2.2A2.714,2.714,0,0,0,123.395-2.691Z" transform="translate(713 193)" fill="#fff"/>
  </g>
</svg>
