<svg xmlns="http://www.w3.org/2000/svg" xmlns:xlink="http://www.w3.org/1999/xlink" width="203.527" height="193.303" viewBox="0 0 203.527 193.303">
  <defs>
    <filter id="Path_2213" x="37.854" y="21.246" width="165.673" height="172.057" filterUnits="userSpaceOnUse">
      <feOffset dx="-4" dy="8" input="SourceAlpha"/>
      <feGaussianBlur stdDeviation="7" result="blur"/>
      <feFlood flood-color="#17494d" flood-opacity="0.204"/>
      <feComposite operator="in" in2="blur"/>
      <feComposite in="SourceGraphic"/>
    </filter>
    <filter id="Path_2213-2" x="37.854" y="21.246" width="165.673" height="172.057" filterUnits="userSpaceOnUse">
      <feOffset dy="3" input="SourceAlpha"/>
      <feGaussianBlur stdDeviation="3" result="blur-2"/>
      <feFlood flood-opacity="0.161" result="color"/>
      <feComposite operator="out" in="SourceGraphic" in2="blur-2"/>
      <feComposite operator="in" in="color"/>
      <feComposite operator="in" in2="SourceGraphic"/>
    </filter>
  </defs>
  <g id="Group_2123" data-name="Group 2123" transform="translate(-323.833 -693.732)">
    <g data-type="innerShadowGroup">
      <g transform="matrix(1, 0, 0, 1, 323.83, 693.73)" filter="url(#Path_2213)">
        <path id="Path_2213-3" data-name="Path 2213" d="M17480.613-14093.209H17412v-97.43l13.166-14.092,41.381-.268,13.211,14.291.854,97.5v0h0v0Zm-35.027-101.91a3.557,3.557,0,0,0-2.533,1.05,3.556,3.556,0,0,0-1.049,2.534,3.56,3.56,0,0,0,1.049,2.535,3.56,3.56,0,0,0,2.533,1.049,3.562,3.562,0,0,0,2.535-1.049,3.56,3.56,0,0,0,1.051-2.535,3.558,3.558,0,0,0-1.051-2.534A3.559,3.559,0,0,0,17445.586-14195.119Z" transform="translate(-4529.32 22074.51) rotate(-39)" fill="#17494d"/>
      </g>
      <g transform="matrix(1, 0, 0, 1, 323.83, 693.73)" filter="url(#Path_2213-2)">
        <path id="Path_2213-4" data-name="Path 2213" d="M17480.613-14093.209H17412v-97.43l13.166-14.092,41.381-.268,13.211,14.291.854,97.5v0h0v0Zm-35.027-101.91a3.557,3.557,0,0,0-2.533,1.05,3.556,3.556,0,0,0-1.049,2.534,3.56,3.56,0,0,0,1.049,2.535,3.56,3.56,0,0,0,2.533,1.049,3.562,3.562,0,0,0,2.535-1.049,3.56,3.56,0,0,0,1.051-2.535,3.558,3.558,0,0,0-1.051-2.534A3.559,3.559,0,0,0,17445.586-14195.119Z" transform="translate(-4529.32 22074.51) rotate(-39)" fill="#fff"/>
      </g>
    </g>
    <path id="Path_2206" data-name="Path 2206" d="M53.581-43.21l2.067,2.27h0l.025.028h.007l0,0h0l.109.119-.442.4-2.213-2.43Zm4.425,4.859,1,1.1.005.006,0,0h0l.006.006,0,0,0,.005h0l0,.005.005.006h0l0,0h0l1.175,1.29-.442.4-2.213-2.43Zm2.456,5.39h.6v3.286h-.6Zm0,6.572h.6V-23.1h-.6Zm0,6.572h.6v3.286h-.6Zm0,6.572h.6v3.286h-.6Zm0,6.572h.6v3.286h-.6Zm0,6.572h.6V3.186h-.6Zm0,6.572h.6V9.759h-.6Zm0,6.572h.6v3.286h-.6Zm0,6.572h.6V22.9h-.6Zm0,6.572h.6v3.286h-.6Zm0,6.572h.6v3.286h-.6Zm0,6.572h.6V42.62h-.6Zm0,6.572h.6v3.286h-.6Zm0,6.572h.6v1.692H59.467v-.6h1Zm-7.568,1.095H56.18v.6H52.894Zm-6.572,0h3.286v.6H46.322Zm-6.572,0h3.286v.6H39.75Zm-6.572,0h3.286v.6H33.178Zm-6.572,0h3.286v.6H26.605Zm-6.572,0h3.286v.6H20.033Zm-6.572,0h3.286v.6H13.461Zm-6.572,0h3.286v.6H6.888Zm-6.572,0H3.6v.6H.316ZM0,47.915H.6V51.2H0Zm0-6.572H.6v3.286H0ZM0,34.77H.6v3.286H0ZM0,28.2H.6v3.286H0Zm0-6.572H.6v3.286H0Zm0-6.572H.6v3.286H0ZM0,8.481H.6v3.286H0ZM0,1.909H.6V5.195H0ZM0-4.663H.6v3.286H0Zm0-6.572H.6V-7.95H0Zm0-6.572H.6v3.286H0ZM0-24.38H.6v3.286H0Zm0-6.572H.6v3.286H0Zm1.754-5.888.44.4L.6-34.7v.464H0v-.7l.019-.021h0l.022-.023h0l0,0h0l0,0h0L.058-35h0l.007-.008,0,0h0l.02-.022h0l0,0h0L.1-35.042h0l0,0h0Zm4.452-4.835.44.4L4.419-38.853l-.44-.4Zm4.452-4.835.44.4L8.87-43.689l-.44-.4,2.226-2.418Zm6-1.344,0,.6-3.286.022,0-.6,1.137-.007h.051Zm6.572-.043,0,.6-3.286.022,0-.6,2.025-.013h.128Zm6.572-.043,0,.6-3.286.022,0-.6,1.762-.012h.039Zm6.572-.043,0,.6-3.286.022,0-.6.484,0h.172Zm6.572-.043,0,.6-3.286.022,0-.6Zm6.214-.041,2.213,2.43-.442.4L48.893-47.47l-2.662.018,0-.6,2.206-.015h.722Z" transform="translate(422.447 809.752) rotate(-39)" fill="#fff"/>
    <path id="Path_2214" data-name="Path 2214" d="M17417.678-14193.646a5.634,5.634,0,0,1-2.209-.446,5.662,5.662,0,0,1-1.8-1.216,5.675,5.675,0,0,1-1.215-1.8,5.629,5.629,0,0,1-.447-2.21,5.624,5.624,0,0,1,.447-2.209,5.66,5.66,0,0,1,1.215-1.8,5.649,5.649,0,0,1,1.8-1.217,5.633,5.633,0,0,1,2.209-.445,5.64,5.64,0,0,1,2.209.445,5.649,5.649,0,0,1,1.8,1.217,5.628,5.628,0,0,1,1.215,1.8,5.624,5.624,0,0,1,.447,2.209,5.629,5.629,0,0,1-.447,2.21,5.643,5.643,0,0,1-1.215,1.8,5.662,5.662,0,0,1-1.8,1.216A5.641,5.641,0,0,1,17417.678-14193.646Zm0-9.262a3.562,3.562,0,0,0-2.535,1.051,3.56,3.56,0,0,0-1.049,2.534,3.56,3.56,0,0,0,1.049,2.534,3.562,3.562,0,0,0,2.535,1.051,3.562,3.562,0,0,0,2.535-1.051,3.564,3.564,0,0,0,1.049-2.534,3.566,3.566,0,0,0-1.049-2.534A3.562,3.562,0,0,0,17417.678-14202.908Z" transform="translate(-4178.895 22756.734) rotate(-39)" fill="#60898d"/>
    <path id="Path_2216" data-name="Path 2216" d="M6.164-81.056V-83.3H9.006a16.619,16.619,0,0,1-.961-4.924,8.264,8.264,0,0,1,2.582-5.865,8.54,8.54,0,0,1,6.385-2.662A8.573,8.573,0,0,1,23.5-94.006,9.439,9.439,0,0,1,26.18-87.5H20.7a3.815,3.815,0,0,0-1.061-2.722,3.466,3.466,0,0,0-2.622-1.121,3.41,3.41,0,0,0-2.522.961,3.516,3.516,0,0,0-.961,2.6A13.783,13.783,0,0,0,14.651-83.3H21.5v2.242H15.411a11.786,11.786,0,0,1,.681,3.963,7.63,7.63,0,0,1-1.081,3.843H26.18v5.4H6.164v-5.4H9.727a7.847,7.847,0,0,0,.921-3.683,15.808,15.808,0,0,0-.841-4.123Z" transform="translate(487.729 867) rotate(-39)" fill="#fff" stroke="rgba(0,0,0,0)" stroke-width="1"/>
    <path id="Path_5198" data-name="Path 5198" d="M-16637.781,14942.074s-6.584-5.453-9.637-12.762c-1.723-4.117-2.855-10.908-4.816-16.074-3.518-9.273-8.838-23.259-18.895-32.24-23.48-21.1-31.752-15.756-33.723-10s2.873,19.677,19.3,29.231,37.037,10.068,43.875,14.5a18.533,18.533,0,0,1,7.957,10.185,7.3,7.3,0,0,1,.135.97" transform="translate(5483.445 -21022.188) rotate(-35)" fill="none" stroke="#93babc" stroke-width="3"/>
    <path id="Path_5199" data-name="Path 5199" d="M17432-14193.636h0v-2.1a3.563,3.563,0,0,0,1.207-.317,3.568,3.568,0,0,0,1.029-.721,3.564,3.564,0,0,0,1.049-2.534,3.564,3.564,0,0,0-1.049-2.534,3.546,3.546,0,0,0-1.029-.72,3.564,3.564,0,0,0-1.207-.318v-2.1a5.64,5.64,0,0,1,1.91.439,5.654,5.654,0,0,1,1.8,1.215,5.671,5.671,0,0,1,1.217,1.8,5.657,5.657,0,0,1,.445,2.209,5.657,5.657,0,0,1-.445,2.209,5.638,5.638,0,0,1-1.217,1.8,5.643,5.643,0,0,1-1.8,1.217,5.628,5.628,0,0,1-1.908.438Z" transform="translate(-4189.805 22765.547) rotate(-39)" fill="#60898d"/>
  </g>
</svg>
