<svg xmlns="http://www.w3.org/2000/svg" xmlns:xlink="http://www.w3.org/1999/xlink" width="214.955" height="183.155" viewBox="0 0 214.955 183.155">
  <defs>
    <filter id="Path_2213" x="0" y="53.098" width="123.673" height="130.057" filterUnits="userSpaceOnUse">
      <feOffset dy="3" input="SourceAlpha"/>
      <feGaussianBlur stdDeviation="3" result="blur"/>
      <feFlood flood-opacity="0.161" result="color"/>
      <feComposite operator="out" in="SourceGraphic" in2="blur"/>
      <feComposite operator="in" in="color"/>
      <feComposite operator="in" in2="SourceGraphic"/>
    </filter>
    <filter id="Ellipse_604" x="95.673" y="63.098" width="30" height="30" filterUnits="userSpaceOnUse">
      <feOffset dy="3" input="SourceAlpha"/>
      <feGaussianBlur stdDeviation="3" result="blur-2"/>
      <feFlood flood-opacity="0.18"/>
      <feComposite operator="in" in2="blur-2"/>
      <feComposite in="SourceGraphic"/>
    </filter>
    <filter id="Ellipse_606" x="84.673" y="74.098" width="26" height="26" filterUnits="userSpaceOnUse">
      <feOffset dy="3" input="SourceAlpha"/>
      <feGaussianBlur stdDeviation="3" result="blur-3"/>
      <feFlood flood-opacity="0.18"/>
      <feComposite operator="in" in2="blur-3"/>
      <feComposite in="SourceGraphic"/>
    </filter>
    <filter id="blob_8_" x="103.078" y="0" width="111.878" height="105.197" filterUnits="userSpaceOnUse">
      <feOffset dy="3" input="SourceAlpha"/>
      <feGaussianBlur stdDeviation="3" result="blur-4"/>
      <feFlood flood-opacity="0.18"/>
      <feComposite operator="in" in2="blur-4"/>
      <feComposite in="SourceGraphic"/>
    </filter>
  </defs>
  <g id="Group_2135" data-name="Group 2135" transform="translate(-966.327 -2656.902)">
    <g id="Group_1902" data-name="Group 1902" transform="translate(-56.705 2657.088) rotate(-39)">
      <g data-type="innerShadowGroup">
        <path id="Path_2213-2" data-name="Path 2213" d="M17480.613-14093.209H17412v-97.43l13.166-14.092,41.381-.268,13.211,14.291.854,97.5v0h0v0Zm-35.027-101.91a3.557,3.557,0,0,0-2.533,1.05,3.556,3.556,0,0,0-1.049,2.534,3.56,3.56,0,0,0,1.049,2.535,3.56,3.56,0,0,0,2.533,1.049,3.562,3.562,0,0,0,2.535-1.049,3.56,3.56,0,0,0,1.051-2.535,3.558,3.558,0,0,0-1.051-2.534A3.559,3.559,0,0,0,17445.586-14195.119Z" transform="translate(-16677.428 14923.489)" fill="#fff"/>
        <g transform="matrix(0.78, 0.63, -0.63, 0.78, 795.16, 643.67)" filter="url(#Path_2213)">
          <path id="Path_2213-3" data-name="Path 2213" d="M17480.613-14093.209H17412v-97.43l13.166-14.092,41.381-.268,13.211,14.291.854,97.5v0h0v0Zm-35.027-101.91a3.557,3.557,0,0,0-2.533,1.05,3.556,3.556,0,0,0-1.049,2.534,3.56,3.56,0,0,0,1.049,2.535,3.56,3.56,0,0,0,2.533,1.049,3.562,3.562,0,0,0,2.535-1.049,3.56,3.56,0,0,0,1.051-2.535,3.558,3.558,0,0,0-1.051-2.534A3.559,3.559,0,0,0,17445.586-14195.119Z" transform="translate(-4592.17 22093.36) rotate(-39)" fill="#fff"/>
        </g>
      </g>
      <path id="Path_2206" data-name="Path 2206" d="M53.581-43.21l2.067,2.27h0l.025.028h.007l0,0h0l.109.119-.442.4-2.213-2.43Zm4.425,4.859,1,1.1.005.006,0,0h0l.006.006,0,0,0,.005h0l0,.005.005.006h0l0,0h0l1.175,1.29-.442.4-2.213-2.43Zm2.456,5.39h.6v3.286h-.6Zm0,6.572h.6V-23.1h-.6Zm0,6.572h.6v3.286h-.6Zm0,6.572h.6v3.286h-.6Zm0,6.572h.6v3.286h-.6Zm0,6.572h.6V3.186h-.6Zm0,6.572h.6V9.759h-.6Zm0,6.572h.6v3.286h-.6Zm0,6.572h.6V22.9h-.6Zm0,6.572h.6v3.286h-.6Zm0,6.572h.6v3.286h-.6Zm0,6.572h.6V42.62h-.6Zm0,6.572h.6v3.286h-.6Zm0,6.572h.6v1.692H59.467v-.6h1Zm-7.568,1.095H56.18v.6H52.894Zm-6.572,0h3.286v.6H46.322Zm-6.572,0h3.286v.6H39.75Zm-6.572,0h3.286v.6H33.178Zm-6.572,0h3.286v.6H26.605Zm-6.572,0h3.286v.6H20.033Zm-6.572,0h3.286v.6H13.461Zm-6.572,0h3.286v.6H6.888Zm-6.572,0H3.6v.6H.316ZM0,47.915H.6V51.2H0Zm0-6.572H.6v3.286H0ZM0,34.77H.6v3.286H0ZM0,28.2H.6v3.286H0Zm0-6.572H.6v3.286H0Zm0-6.572H.6v3.286H0ZM0,8.481H.6v3.286H0ZM0,1.909H.6V5.195H0ZM0-4.663H.6v3.286H0Zm0-6.572H.6V-7.95H0Zm0-6.572H.6v3.286H0ZM0-24.38H.6v3.286H0Zm0-6.572H.6v3.286H0Zm1.754-5.888.44.4L.6-34.7v.464H0v-.7l.019-.021h0l.022-.023h0l0,0h0l0,0h0L.058-35h0l.007-.008,0,0h0l.02-.022h0l0,0h0L.1-35.042h0l0,0h0Zm4.452-4.835.44.4L4.419-38.853l-.44-.4Zm4.452-4.835.44.4L8.87-43.689l-.44-.4,2.226-2.418Zm6-1.344,0,.6-3.286.022,0-.6,1.137-.007h.051Zm6.572-.043,0,.6-3.286.022,0-.6,2.025-.013h.128Zm6.572-.043,0,.6-3.286.022,0-.6,1.762-.012h.039Zm6.572-.043,0,.6-3.286.022,0-.6.484,0h.172Zm6.572-.043,0,.6-3.286.022,0-.6Zm6.214-.041,2.213,2.43-.442.4L48.893-47.47l-2.662.018,0-.6,2.206-.015h.722Z" transform="translate(738.076 770.988)" fill="#17494d"/>
      <path id="Path_2214" data-name="Path 2214" d="M17417.678-14193.646a5.634,5.634,0,0,1-2.209-.446,5.662,5.662,0,0,1-1.8-1.216,5.675,5.675,0,0,1-1.215-1.8,5.629,5.629,0,0,1-.447-2.21,5.624,5.624,0,0,1,.447-2.209,5.66,5.66,0,0,1,1.215-1.8,5.649,5.649,0,0,1,1.8-1.217,5.633,5.633,0,0,1,2.209-.445,5.64,5.64,0,0,1,2.209.445,5.649,5.649,0,0,1,1.8,1.217,5.628,5.628,0,0,1,1.215,1.8,5.624,5.624,0,0,1,.447,2.209,5.629,5.629,0,0,1-.447,2.21,5.643,5.643,0,0,1-1.215,1.8,5.662,5.662,0,0,1-1.8,1.216A5.641,5.641,0,0,1,17417.678-14193.646Zm0-9.262a3.562,3.562,0,0,0-2.535,1.051,3.56,3.56,0,0,0-1.049,2.534,3.56,3.56,0,0,0,1.049,2.534,3.562,3.562,0,0,0,2.535,1.051,3.562,3.562,0,0,0,2.535-1.051,3.564,3.564,0,0,0,1.049-2.534,3.566,3.566,0,0,0-1.049-2.534A3.562,3.562,0,0,0,17417.678-14202.908Z" transform="translate(-16649.52 14931.277)" fill="#fff"/>
      <path id="Path_2215" data-name="Path 2215" d="M17432-14193.636h0v-2.1a3.563,3.563,0,0,0,1.207-.317,3.568,3.568,0,0,0,1.029-.721,3.564,3.564,0,0,0,1.049-2.534,3.564,3.564,0,0,0-1.049-2.534,3.546,3.546,0,0,0-1.029-.72,3.564,3.564,0,0,0-1.207-.318v-2.1a5.64,5.64,0,0,1,1.91.439,5.654,5.654,0,0,1,1.8,1.215,5.671,5.671,0,0,1,1.217,1.8,5.657,5.657,0,0,1,.445,2.209,5.657,5.657,0,0,1-.445,2.209,5.638,5.638,0,0,1-1.217,1.8,5.643,5.643,0,0,1-1.8,1.217,5.628,5.628,0,0,1-1.908.438Z" transform="translate(-16663.545 14931.26)" fill="#fff"/>
      <path id="Path_2216" data-name="Path 2216" d="M6.164-81.056V-83.3H9.006a16.619,16.619,0,0,1-.961-4.924,8.264,8.264,0,0,1,2.582-5.865,8.54,8.54,0,0,1,6.385-2.662A8.573,8.573,0,0,1,23.5-94.006,9.439,9.439,0,0,1,26.18-87.5H20.7a3.815,3.815,0,0,0-1.061-2.722,3.466,3.466,0,0,0-2.622-1.121,3.41,3.41,0,0,0-2.522.961,3.516,3.516,0,0,0-.961,2.6A13.783,13.783,0,0,0,14.651-83.3H21.5v2.242H15.411a11.786,11.786,0,0,1,.681,3.963,7.63,7.63,0,0,1-1.081,3.843H26.18v5.4H6.164v-5.4H9.727a7.847,7.847,0,0,0,.921-3.683,15.808,15.808,0,0,0-.841-4.123Z" transform="translate(752.782 856.561)" fill="#17494d" stroke="rgba(0,0,0,0)" stroke-width="1"/>
    </g>
    <g transform="matrix(1, 0, 0, 1, 966.33, 2656.9)" filter="url(#Ellipse_604)">
      <circle id="Ellipse_604-2" data-name="Ellipse 604" cx="6" cy="6" r="6" transform="translate(104.67 69.1)" fill="#fff"/>
    </g>
    <g transform="matrix(1, 0, 0, 1, 966.33, 2656.9)" filter="url(#Ellipse_606)">
      <circle id="Ellipse_606-2" data-name="Ellipse 606" cx="4" cy="4" r="4" transform="translate(93.67 80.1)" fill="#fff"/>
    </g>
    <g transform="matrix(1, 0, 0, 1, 966.33, 2656.9)" filter="url(#blob_8_)">
      <path id="blob_8_2" data-name="blob (8)" d="M11.234-25.847C15.841-9.726,14.206,6.47,4.028,14.791s-28.9,8.841-42.793-.52C-52.733,4.91-61.8-14.258-57.042-30.676c4.829-16.419,23.4-30.015,38.187-28.752C-4.145-58.165,6.7-42.043,11.234-25.847Z" transform="matrix(-0.21, 0.98, -0.98, -0.21, 135.62, 67.44)" fill="#fff"/>
    </g>
    <path id="Path_5205" data-name="Path 5205" d="M7.636-11.822V-12.7q0-3.4,4-6.164.322-.23,1.173-.805t1.2-.828a7.846,7.846,0,0,0,.851-.759,2.735,2.735,0,0,0,.69-1.058,3.76,3.76,0,0,0,.184-1.2,3.215,3.215,0,0,0-1.081-2.553A4.013,4.013,0,0,0,11.914-27a4.492,4.492,0,0,0-3.059,1.1A3.819,3.819,0,0,0,7.59-22.862h-6.3A9.9,9.9,0,0,1,4.37-30.176a10.34,10.34,0,0,1,7.544-3.036,9.976,9.976,0,0,1,7.268,2.783,8.864,8.864,0,0,1,2.852,6.555,9.78,9.78,0,0,1-.966,4.508,10.573,10.573,0,0,1-3.174,3.542q-.368.276-.943.69t-.874.621q-.3.207-.713.529a6.989,6.989,0,0,0-.621.529,4.5,4.5,0,0,0-.414.483,2.278,2.278,0,0,0-.3.506,1.351,1.351,0,0,0-.092.506v.138ZM10.764.368A4.442,4.442,0,0,1,7.5-.966,4.442,4.442,0,0,1,6.164-4.232,4.442,4.442,0,0,1,7.5-7.5a4.442,4.442,0,0,1,3.266-1.334,4.426,4.426,0,0,1,3.243,1.357,4.426,4.426,0,0,1,1.357,3.243A4.426,4.426,0,0,1,14.007-.989,4.426,4.426,0,0,1,10.764.368Z" transform="translate(1113 2724)" fill="#17494d" stroke="rgba(0,0,0,0)" stroke-width="1"/>
  </g>
</svg>
