<svg xmlns="http://www.w3.org/2000/svg" xmlns:xlink="http://www.w3.org/1999/xlink" width="111.878" height="105.197" viewBox="0 0 111.878 105.197">
  <defs>
    <filter id="blob_8_" x="0" y="0" width="111.878" height="105.197" filterUnits="userSpaceOnUse">
      <feOffset dy="3" input="SourceAlpha"/>
      <feGaussianBlur stdDeviation="3" result="blur"/>
      <feFlood flood-color="#17494d" flood-opacity="0.243"/>
      <feComposite operator="in" in2="blur"/>
      <feComposite in="SourceGraphic"/>
    </filter>
  </defs>
  <g id="Group_2136" data-name="Group 2136" transform="translate(-447.5 -3146.902)">
    <g transform="matrix(1, 0, 0, 1, 447.5, 3146.9)" filter="url(#blob_8_)">
      <path id="blob_8_2" data-name="blob (8)" d="M11.234-25.847C15.841-9.726,14.206,6.47,4.028,14.791s-28.9,8.841-42.793-.52C-52.733,4.91-61.8-14.258-57.042-30.676c4.829-16.419,23.4-30.015,38.187-28.752C-4.145-58.165,6.7-42.043,11.234-25.847Z" transform="matrix(-0.21, 0.98, -0.98, -0.21, 32.54, 67.44)" fill="#17494d"/>
    </g>
    <path id="Path_5206" data-name="Path 5206" d="M7.636-11.822V-12.7q0-3.4,4-6.164.322-.23,1.173-.805t1.2-.828a7.846,7.846,0,0,0,.851-.759,2.735,2.735,0,0,0,.69-1.058,3.76,3.76,0,0,0,.184-1.2,3.215,3.215,0,0,0-1.081-2.553A4.013,4.013,0,0,0,11.914-27a4.492,4.492,0,0,0-3.059,1.1A3.819,3.819,0,0,0,7.59-22.862h-6.3A9.9,9.9,0,0,1,4.37-30.176a10.34,10.34,0,0,1,7.544-3.036,9.976,9.976,0,0,1,7.268,2.783,8.864,8.864,0,0,1,2.852,6.555,9.78,9.78,0,0,1-.966,4.508,10.573,10.573,0,0,1-3.174,3.542q-.368.276-.943.69t-.874.621q-.3.207-.713.529a6.989,6.989,0,0,0-.621.529,4.5,4.5,0,0,0-.414.483,2.278,2.278,0,0,0-.3.506,1.351,1.351,0,0,0-.092.506v.138ZM10.764.368A4.442,4.442,0,0,1,7.5-.966,4.442,4.442,0,0,1,6.164-4.232,4.442,4.442,0,0,1,7.5-7.5a4.442,4.442,0,0,1,3.266-1.334,4.426,4.426,0,0,1,3.243,1.357,4.426,4.426,0,0,1,1.357,3.243A4.426,4.426,0,0,1,14.007-.989,4.426,4.426,0,0,1,10.764.368Z" transform="translate(491.096 3214)" fill="#fff" stroke="rgba(0,0,0,0)" stroke-width="1"/>
  </g>
</svg>
