<svg xmlns="http://www.w3.org/2000/svg" xmlns:xlink="http://www.w3.org/1999/xlink" width="568" height="577" viewBox="0 0 568 577">
  <defs>
    <linearGradient id="linear-gradient" x1="0.571" y1="0.136" x2="0.238" y2="1.037" gradientUnits="objectBoundingBox">
      <stop offset="0" stop-color="#e0ad16"/>
      <stop offset="1" stop-color="#b9872a"/>
    </linearGradient>
    <filter id="Rectangle_3292" x="159" y="397.361" width="249" height="91" filterUnits="userSpaceOnUse">
      <feOffset dy="3" input="SourceAlpha"/>
      <feGaussianBlur stdDeviation="7.5" result="blur"/>
      <feFlood flood-opacity="0.161"/>
      <feComposite operator="in" in2="blur"/>
      <feComposite in="SourceGraphic"/>
    </filter>
    <linearGradient id="linear-gradient-2" x1="0.602" y1="0.189" x2="0.21" y2="0.678" gradientUnits="objectBoundingBox">
      <stop offset="0" stop-opacity="0.184"/>
      <stop offset="1" stop-color="#545454" stop-opacity="0"/>
    </linearGradient>
    <linearGradient id="linear-gradient-3" x1="0.602" y1="0.189" x2="0.248" y2="0.672" gradientUnits="objectBoundingBox">
      <stop offset="0" stop-opacity="0.204"/>
      <stop offset="1" stop-color="#545454" stop-opacity="0"/>
    </linearGradient>
    <linearGradient id="linear-gradient-4" x1="0.602" y1="0.189" x2="0.23" y2="0.734" gradientUnits="objectBoundingBox">
      <stop offset="0" stop-opacity="0.2"/>
      <stop offset="1" stop-color="#545454" stop-opacity="0"/>
    </linearGradient>
    <linearGradient id="linear-gradient-5" x1="0.621" y1="0.126" x2="0.174" y2="0.842" gradientUnits="objectBoundingBox">
      <stop offset="0" stop-opacity="0.173"/>
      <stop offset="1" stop-color="#545454" stop-opacity="0"/>
    </linearGradient>
    <linearGradient id="linear-gradient-6" x1="0.602" y1="0.189" x2="0.23" y2="0.734" gradientUnits="objectBoundingBox">
      <stop offset="0" stop-opacity="0.212"/>
      <stop offset="1" stop-color="#545454" stop-opacity="0"/>
    </linearGradient>
    <linearGradient id="linear-gradient-7" x1="0.602" y1="0.189" x2="0.23" y2="0.734" gradientUnits="objectBoundingBox">
      <stop offset="0" stop-opacity="0.231"/>
      <stop offset="1" stop-color="#545454" stop-opacity="0"/>
    </linearGradient>
    <linearGradient id="linear-gradient-8" x1="0.602" y1="0.189" x2="0.021" y2="0.928" gradientUnits="objectBoundingBox">
      <stop offset="0" stop-opacity="0.18"/>
      <stop offset="1" stop-color="#545454" stop-opacity="0"/>
    </linearGradient>
    <linearGradient id="linear-gradient-9" x1="0.602" y1="0.189" x2="0" y2="0.989" xlink:href="#linear-gradient-5"/>
    <linearGradient id="linear-gradient-10" x1="0.602" y1="0.189" x2="0.143" y2="0.895" gradientUnits="objectBoundingBox">
      <stop offset="0" stop-opacity="0.243"/>
      <stop offset="1" stop-color="#545454" stop-opacity="0"/>
    </linearGradient>
    <linearGradient id="linear-gradient-11" x1="0.602" y1="0.189" x2="0.223" y2="0.876" gradientUnits="objectBoundingBox">
      <stop offset="0" stop-opacity="0.275"/>
      <stop offset="1" stop-color="#545454" stop-opacity="0"/>
    </linearGradient>
  </defs>
  <g id="Group_2258" data-name="Group 2258" transform="translate(-712 -1211.584)">
    <rect id="Rectangle_3291" data-name="Rectangle 3291" width="568" height="577" transform="translate(712 1211.584)" fill="url(#linear-gradient)"/>
    <path id="Path_5202" data-name="Path 5202" d="M5.046-41.18h6.206L25.636-21.692,40.078-41.18h6.206V0H39.44V-29.522L25.694-10.846,11.832-29.58V0H5.046ZM58.58-35.322a4.171,4.171,0,0,1-3.016-1.247,4.1,4.1,0,0,1-1.276-3.045A4.029,4.029,0,0,1,55.564-42.6a4.171,4.171,0,0,1,3.016-1.247A4.047,4.047,0,0,1,61.6-42.6a4.124,4.124,0,0,1,1.218,2.987A4.193,4.193,0,0,1,61.6-36.569,4.047,4.047,0,0,1,58.58-35.322ZM55.39,0V-29h6.38V0ZM70.354,0V-29h6.38v3.944Q79.46-29.58,85.55-29.58a10.382,10.382,0,0,1,8.062,3.306,12.575,12.575,0,0,1,3.016,8.816V0h-6.38V-16.414a8.215,8.215,0,0,0-1.624-5.423,5.443,5.443,0,0,0-4.408-1.943,6.71,6.71,0,0,0-5.394,2.494q-2.088,2.494-2.088,7.018V0ZM108-35.322a4.171,4.171,0,0,1-3.016-1.247,4.1,4.1,0,0,1-1.276-3.045A4.029,4.029,0,0,1,104.98-42.6,4.171,4.171,0,0,1,108-43.848a4.047,4.047,0,0,1,3.016,1.247,4.124,4.124,0,0,1,1.218,2.987,4.193,4.193,0,0,1-1.218,3.045A4.047,4.047,0,0,1,108-35.322ZM104.806,0V-29h6.38V0Zm51.91,0V-16.3a9.924,9.924,0,0,0-1.305-5.51,4.326,4.326,0,0,0-3.857-1.972,5.942,5.942,0,0,0-4.93,2.378,11.119,11.119,0,0,0-1.972,6.67V0h-6.38V-16.3a9.924,9.924,0,0,0-1.305-5.51,4.326,4.326,0,0,0-3.857-1.972,6.033,6.033,0,0,0-5.075,2.494,11.433,11.433,0,0,0-1.885,7.018V0h-6.38V-29h6.38v3.944a8.9,8.9,0,0,1,8.236-4.524q6.554,0,8.99,5.742a9.167,9.167,0,0,1,3.741-4.234,10.6,10.6,0,0,1,5.539-1.508,9.474,9.474,0,0,1,7.656,3.306q2.784,3.306,2.784,8.932V0Zm24.94.58a9.914,9.914,0,0,1-7.888-3.335,13.09,13.09,0,0,1-2.9-8.9V-29h6.38v16.3a8.915,8.915,0,0,0,1.508,5.481,5.055,5.055,0,0,0,4.292,2,6.194,6.194,0,0,0,5.162-2.465q1.914-2.465,1.914-7.047V-29h6.38V0h-6.38V-3.944Q187.572.58,181.656.58ZM242.034,0V-16.3a9.924,9.924,0,0,0-1.305-5.51,4.326,4.326,0,0,0-3.857-1.972,5.942,5.942,0,0,0-4.93,2.378,11.119,11.119,0,0,0-1.972,6.67V0h-6.38V-16.3a9.924,9.924,0,0,0-1.305-5.51,4.326,4.326,0,0,0-3.857-1.972,6.033,6.033,0,0,0-5.075,2.494,11.433,11.433,0,0,0-1.885,7.018V0h-6.38V-29h6.38v3.944A8.9,8.9,0,0,1,219.7-29.58q6.554,0,8.99,5.742a9.167,9.167,0,0,1,3.741-4.234,10.6,10.6,0,0,1,5.539-1.508,9.474,9.474,0,0,1,7.656,3.306q2.784,3.306,2.784,8.932V0Zm26.738-19.314v-3.248H272.6a24.673,24.673,0,0,1-1.334-7.192,11.776,11.776,0,0,1,3.538-8.5,12.1,12.1,0,0,1,9.048-3.625,12.092,12.092,0,0,1,9.135,3.8A13.132,13.132,0,0,1,296.728-29h-6.38a6.575,6.575,0,0,0-1.827-4.669,6.127,6.127,0,0,0-4.669-1.943,6.1,6.1,0,0,0-4.466,1.711,6.023,6.023,0,0,0-1.74,4.495,20.017,20.017,0,0,0,1.508,6.844H289.71v3.248h-9.454a21.923,21.923,0,0,1,1.218,6.612,12.273,12.273,0,0,1-1.856,6.438h17.11V0H268.772V-6.264h4.408a10.232,10.232,0,0,0,1.972-6.148,22.553,22.553,0,0,0-1.508-6.9Zm60.436,13.05V0h-27.26V-2.32a13.209,13.209,0,0,1,.667-4.2,19.163,19.163,0,0,1,1.421-3.335,13.6,13.6,0,0,1,2.494-2.987q1.74-1.653,2.668-2.378t3.277-2.407q2.349-1.682,2.987-2.146a28.166,28.166,0,0,0,5.278-4.7,7.557,7.557,0,0,0,1.624-4.872,6.1,6.1,0,0,0-1.74-4.553,6.57,6.57,0,0,0-4.814-1.711,7.578,7.578,0,0,0-5.278,1.885,6.741,6.741,0,0,0-2.146,5.133h-6.438a12.507,12.507,0,0,1,3.973-9.57,14.005,14.005,0,0,1,9.947-3.712,13.5,13.5,0,0,1,9.222,3.248q3.712,3.248,3.712,9.106a13.708,13.708,0,0,1-2.117,7.8A27.733,27.733,0,0,1,319.7-15.08q-.754.58-2.784,1.972t-2.987,2.146A14.7,14.7,0,0,0,311.866-8.9a7.523,7.523,0,0,0-1.508,2.639Zm31.726,2.436A14.124,14.124,0,0,1,350.2.58a14.078,14.078,0,0,1-10.73-4.437,15.959,15.959,0,0,1-4.176-11.4V-26.042a15.959,15.959,0,0,1,4.176-11.4,14.078,14.078,0,0,1,10.73-4.437,14.171,14.171,0,0,1,10.759,4.437,15.9,15.9,0,0,1,4.205,11.4v10.788A15.936,15.936,0,0,1,360.934-3.828ZM350.2-5.684a8.068,8.068,0,0,0,6.235-2.552,9.967,9.967,0,0,0,2.349-7.018V-26.042a9.967,9.967,0,0,0-2.349-7.018,8.068,8.068,0,0,0-6.235-2.552,8,8,0,0,0-6.177,2.552,9.967,9.967,0,0,0-2.349,7.018v10.788a9.967,9.967,0,0,0,2.349,7.018A8,8,0,0,0,350.2-5.684Zm47.038,1.856A14.124,14.124,0,0,1,386.512.58a14.078,14.078,0,0,1-10.73-4.437,15.959,15.959,0,0,1-4.176-11.4V-26.042a15.959,15.959,0,0,1,4.176-11.4,14.078,14.078,0,0,1,10.73-4.437,14.171,14.171,0,0,1,10.759,4.437,15.9,15.9,0,0,1,4.205,11.4v10.788A15.936,15.936,0,0,1,397.242-3.828Zm-10.73-1.856a8.068,8.068,0,0,0,6.235-2.552,9.967,9.967,0,0,0,2.349-7.018V-26.042a9.967,9.967,0,0,0-2.349-7.018,8.068,8.068,0,0,0-6.235-2.552,8,8,0,0,0-6.177,2.552,9.967,9.967,0,0,0-2.349,7.018v10.788a9.967,9.967,0,0,0,2.349,7.018A8,8,0,0,0,386.512-5.684Z" transform="translate(793.5 1361.848)" fill="#fff"/>
    <g id="Group_2154" data-name="Group 2154">
      <g transform="matrix(1, 0, 0, 1, 712, 1211.58)" filter="url(#Rectangle_3292)">
        <rect id="Rectangle_3292-2" data-name="Rectangle 3292" width="204" height="46" rx="5" transform="translate(181.5 416.86)" fill="#fff"/>
      </g>
      <path id="Path_5204" data-name="Path 5204" d="M7.38.216A6.494,6.494,0,0,1,2.592-1.692,6.385,6.385,0,0,1,.684-6.39a6.385,6.385,0,0,1,1.908-4.7A6.494,6.494,0,0,1,7.38-13,6.473,6.473,0,0,1,11.3-11.727a5.846,5.846,0,0,1,2.277,3.3H10.746A3.032,3.032,0,0,0,9.423-9.918a3.948,3.948,0,0,0-2.043-.558,3.9,3.9,0,0,0-2.934,1.17A4.024,4.024,0,0,0,3.312-6.39,4.024,4.024,0,0,0,4.446-3.474,3.9,3.9,0,0,0,7.38-2.3a3.948,3.948,0,0,0,2.043-.558,3.032,3.032,0,0,0,1.323-1.494h2.826a5.846,5.846,0,0,1-2.277,3.3A6.473,6.473,0,0,1,7.38.216ZM15.228,0V-13.5h2.466V0Zm6.066-10.476a1.518,1.518,0,0,1-1.1-.459,1.494,1.494,0,0,1-.468-1.107,1.494,1.494,0,0,1,.468-1.107,1.518,1.518,0,0,1,1.1-.459,1.53,1.53,0,0,1,1.125.459,1.509,1.509,0,0,1,.459,1.107,1.509,1.509,0,0,1-.459,1.107A1.53,1.53,0,0,1,21.294-10.476ZM20.07,0V-9h2.466V0Zm9,.2a4.574,4.574,0,0,1-3.384-1.359A4.555,4.555,0,0,1,24.336-4.5a4.555,4.555,0,0,1,1.35-3.339A4.574,4.574,0,0,1,29.07-9.2,4.564,4.564,0,0,1,32.085-8.19a4.7,4.7,0,0,1,1.593,2.628H31.122a2.083,2.083,0,0,0-2.052-1.4,2.117,2.117,0,0,0-1.62.675A2.519,2.519,0,0,0,26.82-4.5a2.519,2.519,0,0,0,.63,1.791,2.117,2.117,0,0,0,1.62.675,2.083,2.083,0,0,0,2.052-1.4h2.556A4.7,4.7,0,0,1,32.085-.81,4.564,4.564,0,0,1,29.07.2ZM41.49,0,37.818-4.14V0H35.352V-13.5h2.466v7.812L40.734-9H43.7L40.14-4.95,44.532,0ZM53.172.108A3.637,3.637,0,0,1,50.7-.729a3.034,3.034,0,0,1-.963-2.421V-6.84H47.916V-9h1.818v-2.5H52.2V-9h2.538v2.16H52.2v3.2a1.6,1.6,0,0,0,.36,1.179,1.634,1.634,0,0,0,1.17.351,2.865,2.865,0,0,0,1.008-.162V-.09A5.406,5.406,0,0,1,53.172.108Zm10.692-1.26A4.624,4.624,0,0,1,60.516.2a4.608,4.608,0,0,1-3.348-1.359A4.494,4.494,0,0,1,55.782-4.5a4.5,4.5,0,0,1,1.386-3.33A4.592,4.592,0,0,1,60.516-9.2,4.592,4.592,0,0,1,63.864-7.83,4.5,4.5,0,0,1,65.25-4.5,4.523,4.523,0,0,1,63.864-1.152Zm-3.348-.954a2.1,2.1,0,0,0,1.593-.675A2.4,2.4,0,0,0,62.748-4.5a2.4,2.4,0,0,0-.639-1.719,2.1,2.1,0,0,0-1.593-.675,2.124,2.124,0,0,0-1.611.675A2.4,2.4,0,0,0,58.266-4.5,2.4,2.4,0,0,0,58.9-2.781,2.124,2.124,0,0,0,60.516-2.106ZM73.548,0,69.57-9h2.718l2.376,5.76L77.04-9h2.754l-4,9Zm8.676-10.476a1.518,1.518,0,0,1-1.1-.459,1.494,1.494,0,0,1-.468-1.107,1.494,1.494,0,0,1,.468-1.107,1.518,1.518,0,0,1,1.1-.459,1.53,1.53,0,0,1,1.125.459,1.509,1.509,0,0,1,.459,1.107,1.509,1.509,0,0,1-.459,1.107A1.53,1.53,0,0,1,82.224-10.476ZM81,0V-9h2.466V0Zm8.982.2a4.577,4.577,0,0,1-3.393-1.332,4.6,4.6,0,0,1-1.323-3.384,4.524,4.524,0,0,1,1.341-3.348A4.615,4.615,0,0,1,90-9.2a4.585,4.585,0,0,1,3.438,1.413A4.98,4.98,0,0,1,94.7-3.924h-7.02a2.073,2.073,0,0,0,.7,1.413,2.489,2.489,0,0,0,1.728.567A2.565,2.565,0,0,0,91.287-2.2a1.534,1.534,0,0,0,.729-.729H94.59A4.046,4.046,0,0,1,92.934-.675,5.054,5.054,0,0,1,89.982.2Zm-.054-7.4a2.232,2.232,0,0,0-1.413.441,2.079,2.079,0,0,0-.747,1.215H92A2,2,0,0,0,91.215-6.8,2.212,2.212,0,0,0,89.928-7.2ZM104.058,0l-1.692-5.112L100.692,0H98.244L95.256-9h2.628l1.71,5.76L101.412-9h1.89l1.836,5.76L106.83-9h2.646l-2.97,9ZM122.04-1.152A4.624,4.624,0,0,1,118.692.2a4.608,4.608,0,0,1-3.348-1.359A4.494,4.494,0,0,1,113.958-4.5a4.5,4.5,0,0,1,1.386-3.33A4.592,4.592,0,0,1,118.692-9.2,4.592,4.592,0,0,1,122.04-7.83a4.5,4.5,0,0,1,1.386,3.33A4.523,4.523,0,0,1,122.04-1.152Zm-3.348-.954a2.1,2.1,0,0,0,1.593-.675,2.4,2.4,0,0,0,.639-1.719,2.4,2.4,0,0,0-.639-1.719,2.1,2.1,0,0,0-1.593-.675,2.124,2.124,0,0,0-1.611.675,2.4,2.4,0,0,0-.639,1.719,2.4,2.4,0,0,0,.639,1.719A2.124,2.124,0,0,0,118.692-2.106ZM125.982,0V-6.84h-1.818V-9h1.818v-1.35a3.034,3.034,0,0,1,.963-2.421,3.637,3.637,0,0,1,2.475-.837,5.406,5.406,0,0,1,1.566.2v2.178a1.978,1.978,0,0,0-1.008-.144,1.634,1.634,0,0,0-1.17.351,1.573,1.573,0,0,0-.36,1.161V-9h1.98v2.16h-1.98V0Zm6.768,0V-6.84h-1.44V-9h1.44v-1.35a3.034,3.034,0,0,1,.963-2.421,3.637,3.637,0,0,1,2.475-.837,5.406,5.406,0,0,1,1.566.2v2.178a2.7,2.7,0,0,0-1.026-.144,1.6,1.6,0,0,0-1.161.351,1.6,1.6,0,0,0-.351,1.161V-9h2.538v2.16h-2.538V0ZM143.1.2a4.577,4.577,0,0,1-3.393-1.332,4.6,4.6,0,0,1-1.323-3.384,4.524,4.524,0,0,1,1.341-3.348A4.615,4.615,0,0,1,143.118-9.2a4.585,4.585,0,0,1,3.438,1.413,4.98,4.98,0,0,1,1.26,3.861H140.8a2.073,2.073,0,0,0,.7,1.413,2.489,2.489,0,0,0,1.728.567A2.565,2.565,0,0,0,144.4-2.2a1.534,1.534,0,0,0,.729-.729h2.574a4.046,4.046,0,0,1-1.656,2.259A5.054,5.054,0,0,1,143.1.2Zm-.054-7.4a2.232,2.232,0,0,0-1.413.441,2.079,2.079,0,0,0-.747,1.215h4.23a2,2,0,0,0-.783-1.251A2.212,2.212,0,0,0,143.046-7.2Zm6.57,7.2V-9h2.466v1.44a2.259,2.259,0,0,1,.855-1.107,2.324,2.324,0,0,1,1.377-.441,2.886,2.886,0,0,1,.828.108v2.5a3.537,3.537,0,0,0-1.116-.2,1.745,1.745,0,0,0-1.413.639,2.665,2.665,0,0,0-.531,1.755V0Z" transform="translate(917.5 1658.445)" fill="#8d6c07"/>
    </g>
    <path id="Path_2049" data-name="Path 2049" d="M360.81,0V-67.45h13.775V0Z" transform="translate(774.875 1457.001)" fill="#fff"/>
    <path id="Path_2054" data-name="Path 2054" d="M19.95,0V-54.34H2V-67.45h49.97v13.11H33.82V0Z" transform="translate(774.875 1457.001)" fill="#fff"/>
    <path id="Path_5203" data-name="Path 5203" d="M9.37,20V5.8h4.84a4.348,4.348,0,0,1,3.1,1.07,3.724,3.724,0,0,1,1.14,2.85,3.61,3.61,0,0,1-.93,2.56,4.232,4.232,0,0,1-2.59,1.24L20.41,20H18.07l-5.46-6.46H11.23V20Zm1.86-8.12h2.76a2.98,2.98,0,0,0,1.92-.55,1.949,1.949,0,0,0,.68-1.61,2.008,2.008,0,0,0-.68-1.63,2.907,2.907,0,0,0-1.92-.57H11.23ZM25.65,20.2a4.569,4.569,0,0,1-3.49-1.52A5.217,5.217,0,0,1,20.75,15a5.217,5.217,0,0,1,1.41-3.68A4.569,4.569,0,0,1,25.65,9.8a4.407,4.407,0,0,1,2.05.49,3.9,3.9,0,0,1,1.47,1.25V10h1.72V20H29.17V18.46a3.9,3.9,0,0,1-1.47,1.25A4.407,4.407,0,0,1,25.65,20.2Zm.26-1.58a3.175,3.175,0,0,0,2.44-1.04A3.66,3.66,0,0,0,29.31,15a3.66,3.66,0,0,0-.96-2.58,3.406,3.406,0,0,0-4.9,0A3.66,3.66,0,0,0,22.49,15a3.66,3.66,0,0,0,.96,2.58A3.2,3.2,0,0,0,25.91,18.62ZM35.87,6.98a1.166,1.166,0,0,1-.86.34,1.215,1.215,0,0,1-.88-.35,1.219,1.219,0,0,1,0-1.73,1.2,1.2,0,0,1,.88-.36,1.132,1.132,0,0,1,.86.36,1.209,1.209,0,0,1,.34.86A1.234,1.234,0,0,1,35.87,6.98ZM34.13,20V10h1.72V20Zm8.2.2a4.658,4.658,0,0,1-2.81-.82,2.981,2.981,0,0,1-1.25-2.28h1.76a1.765,1.765,0,0,0,.81,1.24,2.822,2.822,0,0,0,1.51.4,2.54,2.54,0,0,0,1.39-.34,1.1,1.1,0,0,0,.53-.98,1.308,1.308,0,0,0-.39-.98,2.922,2.922,0,0,0-1.27-.62l-1.44-.38q-2.58-.68-2.58-2.94a2.345,2.345,0,0,1,.97-1.96,3.99,3.99,0,0,1,2.49-.74,3.865,3.865,0,0,1,2.53.81,2.923,2.923,0,0,1,1.11,2.05H43.97a1.929,1.929,0,0,0-1.92-1.42,2.107,2.107,0,0,0-1.23.34,1.047,1.047,0,0,0-.49.9,1.156,1.156,0,0,0,.36.88,2.761,2.761,0,0,0,1.16.56l1.6.42a2.9,2.9,0,0,1,2.56,2.96,2.5,2.5,0,0,1-1.02,2.17A4.469,4.469,0,0,1,42.33,20.2ZM50.19,6.98a1.166,1.166,0,0,1-.86.34,1.215,1.215,0,0,1-.88-.35,1.219,1.219,0,0,1,0-1.73,1.2,1.2,0,0,1,.88-.36,1.132,1.132,0,0,1,.86.36,1.209,1.209,0,0,1,.34.86A1.234,1.234,0,0,1,50.19,6.98ZM48.45,20V10h1.72V20Zm4.98,0V10h1.72v1.54A3.426,3.426,0,0,1,58.33,9.8a3.6,3.6,0,0,1,2.74,1.1,4.1,4.1,0,0,1,1.04,2.94V20h-1.7V14.1a2.914,2.914,0,0,0-.64-1.99,2.172,2.172,0,0,0-1.72-.73,2.6,2.6,0,0,0-2.07.98,4.016,4.016,0,0,0-.83,2.68V20Zm16.18,4.38a5.378,5.378,0,0,1-3.29-.97,3.736,3.736,0,0,1-1.55-2.49h1.68q.66,1.94,3.2,1.94a3.023,3.023,0,0,0,2.29-.91,3.541,3.541,0,0,0,.87-2.55V18.22a3.9,3.9,0,0,1-1.46,1.28,4.3,4.3,0,0,1-2.02.48,4.633,4.633,0,0,1-3.5-1.47,5.062,5.062,0,0,1-1.4-3.63,5.017,5.017,0,0,1,1.41-3.61A4.642,4.642,0,0,1,69.33,9.8a4.3,4.3,0,0,1,2.02.48,3.969,3.969,0,0,1,1.46,1.26V10h1.72v9.38a4.818,4.818,0,0,1-1.39,3.7A4.963,4.963,0,0,1,69.61,24.38ZM67.13,17.4a3.515,3.515,0,0,0,4.88-.01,3.5,3.5,0,0,0,.94-2.51A3.478,3.478,0,0,0,72,12.37a3.477,3.477,0,0,0-4.86,0,3.478,3.478,0,0,0-.95,2.51A3.534,3.534,0,0,0,67.13,17.4ZM95.47,20V14.12a3.481,3.481,0,0,0-.51-1.99,1.669,1.669,0,0,0-1.47-.75,2.379,2.379,0,0,0-1.95.94,4.167,4.167,0,0,0-.79,2.56V20H89.03V14.12a3.471,3.471,0,0,0-.51-2,1.657,1.657,0,0,0-1.45-.74,2.4,2.4,0,0,0-2,.99,4.277,4.277,0,0,0-.76,2.67V20H82.59V10h1.72v1.54A3.21,3.21,0,0,1,87.33,9.8a3.028,3.028,0,0,1,3.08,2.14,3.337,3.337,0,0,1,1.28-1.56,3.552,3.552,0,0,1,2-.58,3.191,3.191,0,0,1,2.56,1.1,4.4,4.4,0,0,1,.94,2.96V20Zm9.26.2A5.124,5.124,0,0,1,99.49,15a5.23,5.23,0,1,1,10.46,0,5.124,5.124,0,0,1-5.22,5.2Zm-2.52-2.64a3.308,3.308,0,0,0,2.52,1.04,3.245,3.245,0,0,0,2.5-1.04,3.634,3.634,0,0,0,.96-2.56,3.634,3.634,0,0,0-.96-2.56,3.537,3.537,0,0,0-5.01,0,3.612,3.612,0,0,0-.97,2.56A3.634,3.634,0,0,0,102.21,17.56ZM112.41,20V10h1.72v1.54a3.426,3.426,0,0,1,3.18-1.74,3.6,3.6,0,0,1,2.74,1.1,4.1,4.1,0,0,1,1.04,2.94V20h-1.7V14.1a2.914,2.914,0,0,0-.64-1.99,2.172,2.172,0,0,0-1.72-.73,2.6,2.6,0,0,0-2.07.98,4.016,4.016,0,0,0-.83,2.68V20Zm16.04.2a4.808,4.808,0,0,1-3.61-1.48A5.139,5.139,0,0,1,123.41,15a5.212,5.212,0,0,1,1.39-3.73,4.84,4.84,0,0,1,3.69-1.47,4.416,4.416,0,0,1,3.64,1.64,5.576,5.576,0,0,1,1.16,4.02h-8.14a3.134,3.134,0,0,0,1,2.27,3.25,3.25,0,0,0,2.32.91,3,3,0,0,0,2.9-1.68h1.76a4.207,4.207,0,0,1-1.62,2.32A4.992,4.992,0,0,1,128.45,20.2Zm1.96-8.16a2.9,2.9,0,0,0-1.98-.72,3.305,3.305,0,0,0-2.07.7,3.117,3.117,0,0,0-1.13,2.08h6.24A3.369,3.369,0,0,0,130.41,12.04Zm7.84,12.14h-1.92l2.18-4.7L134.13,10h1.9l3.44,7.6,3.42-7.6h1.92ZM151.49,20V11.58h-2.12V10h2.12V7.98a3.026,3.026,0,0,1,.84-2.3,3.086,3.086,0,0,1,2.22-.8,4.672,4.672,0,0,1,1.56.26V6.66a3.167,3.167,0,0,0-1.24-.2,1.78,1.78,0,0,0-1.26.38,1.775,1.775,0,0,0-.4,1.32V10h2.9v1.58h-2.9V20Zm10.68.2a5.124,5.124,0,0,1-5.24-5.2,5.23,5.23,0,1,1,10.46,0,5.124,5.124,0,0,1-5.22,5.2Zm-2.52-2.64a3.308,3.308,0,0,0,2.52,1.04,3.245,3.245,0,0,0,2.5-1.04,3.634,3.634,0,0,0,.96-2.56,3.634,3.634,0,0,0-.96-2.56,3.537,3.537,0,0,0-5.01,0,3.612,3.612,0,0,0-.97,2.56A3.634,3.634,0,0,0,159.65,17.56ZM169.85,20V10h1.72v1.94a2.718,2.718,0,0,1,1.09-1.48,2.958,2.958,0,0,1,1.71-.56,3.423,3.423,0,0,1,.78.08v1.78a2.337,2.337,0,0,0-.94-.16,2.406,2.406,0,0,0-1.84.9,3.7,3.7,0,0,0-.8,2.54V20Zm19.04,0V8.56h-3.78V5.8h10.52V8.56h-3.82V20Zm11.04,0h-2.74V5h2.74v6.14a3.21,3.21,0,0,1,2.86-1.36,3.547,3.547,0,0,1,2.83,1.19,4.674,4.674,0,0,1,1.03,3.17V20h-2.74V14.6a2.789,2.789,0,0,0-.46-1.71,1.533,1.533,0,0,0-1.3-.61,2.006,2.006,0,0,0-1.61.72,3.2,3.2,0,0,0-.61,2.12Zm13.84.22a5.049,5.049,0,0,1-5.24-5.24,5.027,5.027,0,0,1,1.49-3.72,5.486,5.486,0,0,1,7.59.09,5.534,5.534,0,0,1,1.4,4.29h-7.8a2.3,2.3,0,0,0,.78,1.57,2.765,2.765,0,0,0,1.92.63,2.85,2.85,0,0,0,1.31-.29,1.7,1.7,0,0,0,.81-.81h2.86a4.5,4.5,0,0,1-1.84,2.51A5.615,5.615,0,0,1,213.77,20.22ZM213.71,12a2.48,2.48,0,0,0-1.57.49,2.31,2.31,0,0,0-.83,1.35h4.7a2.225,2.225,0,0,0-.87-1.39A2.458,2.458,0,0,0,213.71,12Zm12.12,8V5.8h5.2a4.1,4.1,0,0,1,3,1.21,3.951,3.951,0,0,1,1.22,2.91,3.256,3.256,0,0,1-1.12,2.54,3.5,3.5,0,0,1,2.1,3.36,3.948,3.948,0,0,1-1.26,2.98,4.375,4.375,0,0,1-3.14,1.2Zm2.9-2.66h2.9a1.824,1.824,0,0,0,1.3-.45,1.53,1.53,0,0,0,.48-1.17,1.562,1.562,0,0,0-.48-1.18,1.8,1.8,0,0,0-1.3-.46h-2.9Zm0-5.72h2.02a1.67,1.67,0,0,0,1.22-.45,1.515,1.515,0,0,0,.46-1.13,1.541,1.541,0,0,0-.47-1.13,1.638,1.638,0,0,0-1.21-.47h-2.02ZM238.15,20V10h2.74v1.6a2.51,2.51,0,0,1,.95-1.23,2.583,2.583,0,0,1,1.53-.49,3.207,3.207,0,0,1,.92.12v2.78a3.93,3.93,0,0,0-1.24-.22,1.939,1.939,0,0,0-1.57.71,2.961,2.961,0,0,0-.59,1.95V20Zm9.26-11.64a1.686,1.686,0,0,1-1.22-.51,1.715,1.715,0,0,1,0-2.46,1.745,1.745,0,0,1,2.98,1.23,1.676,1.676,0,0,1-.51,1.23A1.7,1.7,0,0,1,247.41,8.36ZM246.05,20V10h2.74V20Zm10.22.12a4.041,4.041,0,0,1-2.75-.93,3.371,3.371,0,0,1-1.07-2.69V12.4h-2.02V10h2.02V7.22h2.74V10h2.82v2.4h-2.82v3.56a1.78,1.78,0,0,0,.4,1.31,1.815,1.815,0,0,0,1.3.39,3.183,3.183,0,0,0,1.12-.18V19.9A6.007,6.007,0,0,1,256.27,20.12Zm5.06-11.76a1.686,1.686,0,0,1-1.22-.51,1.715,1.715,0,0,1,0-2.46,1.745,1.745,0,0,1,2.98,1.23,1.676,1.676,0,0,1-.51,1.23A1.7,1.7,0,0,1,261.33,8.36ZM259.97,20V10h2.74V20Zm9.24.22a5.1,5.1,0,0,1-3.18-.96,3.176,3.176,0,0,1-1.34-2.44h2.86a1.313,1.313,0,0,0,.56.97,2.033,2.033,0,0,0,1.18.33q1.3,0,1.3-.8a.706.706,0,0,0-.29-.61,3.087,3.087,0,0,0-.97-.39l-1.88-.48a3.444,3.444,0,0,1-1.91-1.15,3.081,3.081,0,0,1-.63-1.95A2.564,2.564,0,0,1,266,10.61a4.719,4.719,0,0,1,2.93-.83,4.5,4.5,0,0,1,2.8.85,3.084,3.084,0,0,1,1.24,2.31h-2.76a1.171,1.171,0,0,0-1.32-1.02,1.61,1.61,0,0,0-.86.2.627.627,0,0,0-.32.56q0,.66,1.14.92l1.76.48a3.959,3.959,0,0,1,2.12,1.13,2.92,2.92,0,0,1,.66,1.97,2.582,2.582,0,0,1-1.17,2.21A5.083,5.083,0,0,1,269.21,20.22Zm8.9-.22h-2.74V5h2.74v6.14a3.21,3.21,0,0,1,2.86-1.36,3.547,3.547,0,0,1,2.83,1.19,4.674,4.674,0,0,1,1.03,3.17V20h-2.74V14.6a2.789,2.789,0,0,0-.46-1.71,1.533,1.533,0,0,0-1.3-.61,2.006,2.006,0,0,0-1.61.72,3.2,3.2,0,0,0-.61,2.12Zm14.06,0V5.8h2.9v5.66h6.16V5.8h2.9V20h-2.9V14.22h-6.16V20Zm19.22.22a5.049,5.049,0,0,1-5.24-5.24,5.027,5.027,0,0,1,1.49-3.72,5.486,5.486,0,0,1,7.59.09,5.534,5.534,0,0,1,1.4,4.29h-7.8a2.3,2.3,0,0,0,.78,1.57,2.765,2.765,0,0,0,1.92.63,2.85,2.85,0,0,0,1.31-.29,1.7,1.7,0,0,0,.81-.81h2.86a4.5,4.5,0,0,1-1.84,2.51A5.615,5.615,0,0,1,311.39,20.22ZM311.33,12a2.48,2.48,0,0,0-1.57.49,2.31,2.31,0,0,0-.83,1.35h4.7a2.225,2.225,0,0,0-.87-1.39A2.458,2.458,0,0,0,311.33,12Zm11.36,8.22a4.286,4.286,0,0,1-3.34-1.54A5.372,5.372,0,0,1,317.99,15a5.372,5.372,0,0,1,1.36-3.68,4.286,4.286,0,0,1,3.34-1.54,3.637,3.637,0,0,1,1.72.4,3.352,3.352,0,0,1,1.16.94V10h2.74V20h-2.74V18.88a3.352,3.352,0,0,1-1.16.94A3.637,3.637,0,0,1,322.69,20.22Zm-1.26-3.26a2.384,2.384,0,0,0,1.84.76,2.352,2.352,0,0,0,1.83-.76,2.8,2.8,0,0,0,.69-1.96,2.8,2.8,0,0,0-.69-1.96,2.583,2.583,0,0,0-3.66,0,2.8,2.8,0,0,0-.69,1.96A2.828,2.828,0,0,0,321.43,16.96ZM330.97,20V10h2.74v1.6a2.51,2.51,0,0,1,.95-1.23,2.583,2.583,0,0,1,1.53-.49,3.207,3.207,0,0,1,.92.12v2.78a3.93,3.93,0,0,0-1.24-.22,1.939,1.939,0,0,0-1.57.71,2.961,2.961,0,0,0-.59,1.95V20Zm12.74.12a4.041,4.041,0,0,1-2.75-.93,3.371,3.371,0,0,1-1.07-2.69V12.4h-2.02V10h2.02V7.22h2.74V10h2.82v2.4h-2.82v3.56a1.78,1.78,0,0,0,.4,1.31,1.815,1.815,0,0,0,1.3.39,3.183,3.183,0,0,0,1.12-.18V19.9A6.007,6.007,0,0,1,343.71,20.12Zm8.52-.12V5.8h8.64V8.56h-5.74V11.5h4.5v2.76h-4.5V20Zm17.92-1.28a5.35,5.35,0,0,1-7.44-.01A4.993,4.993,0,0,1,361.17,15a5,5,0,0,1,1.54-3.7,5.312,5.312,0,0,1,7.44,0,5,5,0,0,1,1.54,3.7A5.026,5.026,0,0,1,370.15,18.72Zm-3.72-1.06a2.337,2.337,0,0,0,1.77-.75,2.667,2.667,0,0,0,.71-1.91,2.667,2.667,0,0,0-.71-1.91,2.487,2.487,0,0,0-3.56,0,2.667,2.667,0,0,0-.71,1.91,2.667,2.667,0,0,0,.71,1.91A2.36,2.36,0,0,0,366.43,17.66Zm10.88,2.56a3.392,3.392,0,0,1-2.77-1.2,4.9,4.9,0,0,1-.99-3.22V10h2.74v5.34q0,2.38,1.7,2.38A1.8,1.8,0,0,0,379.5,17a3.453,3.453,0,0,0,.55-2.12V10h2.74V20h-2.74V18.86A3.091,3.091,0,0,1,377.31,20.22Zm8.12-.22V10h2.74v1.14a3.21,3.21,0,0,1,2.86-1.36,3.547,3.547,0,0,1,2.83,1.19,4.674,4.674,0,0,1,1.03,3.17V20h-2.74V14.6a2.789,2.789,0,0,0-.46-1.71,1.533,1.533,0,0,0-1.3-.61,2.006,2.006,0,0,0-1.61.72,3.2,3.2,0,0,0-.61,2.12V20Zm16.04.22a4.286,4.286,0,0,1-3.34-1.54A5.372,5.372,0,0,1,396.77,15a5.372,5.372,0,0,1,1.36-3.68,4.286,4.286,0,0,1,3.34-1.54,3.637,3.637,0,0,1,1.72.4,3.352,3.352,0,0,1,1.16.94V5h2.74V20h-2.74V18.88a3.352,3.352,0,0,1-1.16.94A3.637,3.637,0,0,1,401.47,20.22Zm-1.26-3.26a2.384,2.384,0,0,0,1.84.76,2.352,2.352,0,0,0,1.83-.76,2.8,2.8,0,0,0,.69-1.96,2.8,2.8,0,0,0-.69-1.96,2.583,2.583,0,0,0-3.66,0,2.8,2.8,0,0,0-.69,1.96A2.828,2.828,0,0,0,400.21,16.96Zm13.6,3.26a4.286,4.286,0,0,1-3.34-1.54A5.372,5.372,0,0,1,409.11,15a5.372,5.372,0,0,1,1.36-3.68,4.286,4.286,0,0,1,3.34-1.54,3.637,3.637,0,0,1,1.72.4,3.352,3.352,0,0,1,1.16.94V10h2.74V20h-2.74V18.88a3.352,3.352,0,0,1-1.16.94A3.637,3.637,0,0,1,413.81,20.22Zm-1.26-3.26a2.384,2.384,0,0,0,1.84.76,2.352,2.352,0,0,0,1.83-.76,2.8,2.8,0,0,0,.69-1.96,2.8,2.8,0,0,0-.69-1.96,2.583,2.583,0,0,0-3.66,0,2.8,2.8,0,0,0-.69,1.96A2.828,2.828,0,0,0,412.55,16.96Zm14.38,3.16a4.041,4.041,0,0,1-2.75-.93,3.371,3.371,0,0,1-1.07-2.69V12.4h-2.02V10h2.02V7.22h2.74V10h2.82v2.4h-2.82v3.56a1.78,1.78,0,0,0,.4,1.31,1.815,1.815,0,0,0,1.3.39,3.183,3.183,0,0,0,1.12-.18V19.9A6.007,6.007,0,0,1,426.93,20.12Zm5.06-11.76a1.686,1.686,0,0,1-1.22-.51,1.715,1.715,0,0,1,0-2.46,1.745,1.745,0,0,1,2.98,1.23,1.676,1.676,0,0,1-.51,1.23A1.7,1.7,0,0,1,431.99,8.36ZM430.63,20V10h2.74V20Zm13.7-1.28a5.35,5.35,0,0,1-7.44-.01A4.993,4.993,0,0,1,435.35,15a5,5,0,0,1,1.54-3.7,5.312,5.312,0,0,1,7.44,0,5,5,0,0,1,1.54,3.7A5.026,5.026,0,0,1,444.33,18.72Zm-3.72-1.06a2.337,2.337,0,0,0,1.77-.75,2.667,2.667,0,0,0,.71-1.91,2.667,2.667,0,0,0-.71-1.91,2.487,2.487,0,0,0-3.56,0,2.667,2.667,0,0,0-.71,1.91,2.667,2.667,0,0,0,.71,1.91A2.36,2.36,0,0,0,440.61,17.66ZM447.85,20V10h2.74v1.14a3.21,3.21,0,0,1,2.86-1.36,3.547,3.547,0,0,1,2.83,1.19,4.674,4.674,0,0,1,1.03,3.17V20h-2.74V14.6a2.789,2.789,0,0,0-.46-1.71,1.533,1.533,0,0,0-1.3-.61,2.006,2.006,0,0,0-1.61.72,3.2,3.2,0,0,0-.61,2.12V20ZM123.07,45.2a4.407,4.407,0,0,1-2.05-.49,3.9,3.9,0,0,1-1.47-1.25V45h-1.72V30h1.72v6.54a3.9,3.9,0,0,1,1.47-1.25,4.407,4.407,0,0,1,2.05-.49,4.569,4.569,0,0,1,3.49,1.52,5.507,5.507,0,0,1,0,7.36A4.569,4.569,0,0,1,123.07,45.2Zm-2.7-2.62a3.382,3.382,0,0,0,4.88,0,3.947,3.947,0,0,0,0-5.16,3.382,3.382,0,0,0-4.88,0,3.947,3.947,0,0,0,0,5.16Zm12.52,6.6h-1.92l2.18-4.7L128.77,35h1.9l3.44,7.6,3.42-7.6h1.92Zm16.78-3.98a4.569,4.569,0,0,1-3.49-1.52,5.507,5.507,0,0,1,0-7.36,4.569,4.569,0,0,1,3.49-1.52,4.407,4.407,0,0,1,2.05.49,3.9,3.9,0,0,1,1.47,1.25V30h1.72V45h-1.72V43.46a3.9,3.9,0,0,1-1.47,1.25A4.407,4.407,0,0,1,149.67,45.2Zm.26-1.58a3.175,3.175,0,0,0,2.44-1.04,3.947,3.947,0,0,0,0-5.16,3.406,3.406,0,0,0-4.9,0,3.947,3.947,0,0,0,0,5.16A3.2,3.2,0,0,0,149.93,43.62Zm12.66,1.58a5.124,5.124,0,1,1,3.73-1.51A5.049,5.049,0,0,1,162.59,45.2Zm-2.52-2.64a3.308,3.308,0,0,0,2.52,1.04,3.245,3.245,0,0,0,2.5-1.04,3.893,3.893,0,0,0,0-5.12,3.537,3.537,0,0,0-5.01,0,3.878,3.878,0,0,0-.01,5.12ZM170.27,45V35h1.72v1.54a3.426,3.426,0,0,1,3.18-1.74,3.6,3.6,0,0,1,2.74,1.1,4.1,4.1,0,0,1,1.04,2.94V45h-1.7V39.1a2.914,2.914,0,0,0-.64-1.99,2.172,2.172,0,0,0-1.72-.73,2.6,2.6,0,0,0-2.07.98,4.016,4.016,0,0,0-.83,2.68V45Zm15.9.2a4.569,4.569,0,0,1-3.49-1.52,5.507,5.507,0,0,1,0-7.36,4.569,4.569,0,0,1,3.49-1.52,4.407,4.407,0,0,1,2.05.49,3.9,3.9,0,0,1,1.47,1.25V35h1.72V45h-1.72V43.46a3.9,3.9,0,0,1-1.47,1.25A4.407,4.407,0,0,1,186.17,45.2Zm.26-1.58a3.175,3.175,0,0,0,2.44-1.04,3.947,3.947,0,0,0,0-5.16,3.406,3.406,0,0,0-4.9,0,3.947,3.947,0,0,0,0,5.16A3.2,3.2,0,0,0,186.43,43.62Zm12.1,1.48a3.132,3.132,0,0,1-2.22-.78,2.96,2.96,0,0,1-.84-2.28V36.58h-2.12V35h2.12V32.22h1.72V35h2.88v1.58h-2.88v5.24a1.427,1.427,0,0,0,1.66,1.7,3.1,3.1,0,0,0,1.22-.2v1.54A4.839,4.839,0,0,1,198.53,45.1Zm5.48-13.12a1.166,1.166,0,0,1-.86.34,1.215,1.215,0,0,1-.88-.35,1.219,1.219,0,0,1,0-1.73,1.2,1.2,0,0,1,.88-.36,1.132,1.132,0,0,1,.86.36,1.209,1.209,0,0,1,.34.86A1.234,1.234,0,0,1,204.01,31.98ZM202.27,45V35h1.72V45Zm4.98,0V35h1.72v1.54a3.426,3.426,0,0,1,3.18-1.74,3.6,3.6,0,0,1,2.74,1.1,4.1,4.1,0,0,1,1.04,2.94V45h-1.7V39.1a2.914,2.914,0,0,0-.64-1.99,2.172,2.172,0,0,0-1.72-.73,2.6,2.6,0,0,0-2.07.98,4.016,4.016,0,0,0-.83,2.68V45Zm16.18,4.38a5.378,5.378,0,0,1-3.29-.97,3.736,3.736,0,0,1-1.55-2.49h1.68q.66,1.94,3.2,1.94a3.023,3.023,0,0,0,2.29-.91,3.541,3.541,0,0,0,.87-2.55V43.22a3.9,3.9,0,0,1-1.46,1.28,4.3,4.3,0,0,1-2.02.48,4.633,4.633,0,0,1-3.5-1.47,5.366,5.366,0,0,1,.01-7.24,4.642,4.642,0,0,1,3.49-1.47,4.3,4.3,0,0,1,2.02.48,3.969,3.969,0,0,1,1.46,1.26V35h1.72v9.38a4.818,4.818,0,0,1-1.39,3.7A4.963,4.963,0,0,1,223.43,49.38Zm-2.48-6.98a3.515,3.515,0,0,0,4.88-.01,3.806,3.806,0,0,0-.01-5.02,3.477,3.477,0,0,0-4.86,0,3.478,3.478,0,0,0-.95,2.51A3.534,3.534,0,0,0,220.95,42.4Zm19.9,2.8a5.124,5.124,0,1,1,3.73-1.51A5.049,5.049,0,0,1,240.85,45.2Zm-2.52-2.64a3.308,3.308,0,0,0,2.52,1.04,3.245,3.245,0,0,0,2.5-1.04,3.893,3.893,0,0,0,0-5.12,3.537,3.537,0,0,0-5.01,0,3.878,3.878,0,0,0-.01,5.12ZM248.53,45V30h1.72V45Zm9.1.2a4.569,4.569,0,0,1-3.49-1.52,5.507,5.507,0,0,1,0-7.36,4.569,4.569,0,0,1,3.49-1.52,4.407,4.407,0,0,1,2.05.49,3.9,3.9,0,0,1,1.47,1.25V30h1.72V45h-1.72V43.46a3.9,3.9,0,0,1-1.47,1.25A4.407,4.407,0,0,1,257.63,45.2Zm.26-1.58a3.175,3.175,0,0,0,2.44-1.04,3.947,3.947,0,0,0,0-5.16,3.406,3.406,0,0,0-4.9,0,3.947,3.947,0,0,0,0,5.16A3.2,3.2,0,0,0,257.89,43.62ZM271.51,45V36.58h-2.12V35h2.12V32.98a3.026,3.026,0,0,1,.84-2.3,3.086,3.086,0,0,1,2.22-.8,4.672,4.672,0,0,1,1.56.26v1.52a3.167,3.167,0,0,0-1.24-.2,1.427,1.427,0,0,0-1.66,1.7V35h2.9v1.58h-2.9V45Zm10.04.2a3.444,3.444,0,0,1-2.66-1.11,4.189,4.189,0,0,1-1.02-2.95V35h1.72v5.88a3.049,3.049,0,0,0,.61,2,2.026,2.026,0,0,0,1.65.74,2.444,2.444,0,0,0,1.99-.99,4.162,4.162,0,0,0,.79-2.67V35h1.72V45h-1.72V43.46A3.286,3.286,0,0,1,281.55,45.2Zm8.04-.2V35h1.72v1.94a2.718,2.718,0,0,1,1.09-1.48,2.958,2.958,0,0,1,1.71-.56,3.424,3.424,0,0,1,.78.08v1.78a2.337,2.337,0,0,0-.94-.16,2.406,2.406,0,0,0-1.84.9,3.7,3.7,0,0,0-.8,2.54V45Zm7.32,0V35h1.72v1.54a3.426,3.426,0,0,1,3.18-1.74,3.6,3.6,0,0,1,2.74,1.1,4.1,4.1,0,0,1,1.04,2.94V45h-1.7V39.1a2.914,2.914,0,0,0-.64-1.99,2.172,2.172,0,0,0-1.72-.73,2.6,2.6,0,0,0-2.07.98,4.016,4.016,0,0,0-.83,2.68V45Zm13.52-13.02a1.166,1.166,0,0,1-.86.34,1.215,1.215,0,0,1-.88-.35,1.219,1.219,0,0,1,0-1.73,1.2,1.2,0,0,1,.88-.36,1.132,1.132,0,0,1,.86.36,1.209,1.209,0,0,1,.34.86A1.234,1.234,0,0,1,310.43,31.98ZM308.69,45V35h1.72V45Zm8.86.1a3.132,3.132,0,0,1-2.22-.78,2.96,2.96,0,0,1-.84-2.28V36.58h-2.12V35h2.12V32.22h1.72V35h2.88v1.58h-2.88v5.24a1.427,1.427,0,0,0,1.66,1.7,3.1,3.1,0,0,0,1.22-.2v1.54A4.839,4.839,0,0,1,317.55,45.1Zm7.28.1a3.444,3.444,0,0,1-2.66-1.11,4.189,4.189,0,0,1-1.02-2.95V35h1.72v5.88a3.049,3.049,0,0,0,.61,2,2.026,2.026,0,0,0,1.65.74,2.444,2.444,0,0,0,1.99-.99,4.162,4.162,0,0,0,.79-2.67V35h1.72V45h-1.72V43.46A3.286,3.286,0,0,1,324.83,45.2Zm8.04-.2V35h1.72v1.94a2.718,2.718,0,0,1,1.09-1.48,2.958,2.958,0,0,1,1.71-.56,3.424,3.424,0,0,1,.78.08v1.78a2.337,2.337,0,0,0-.94-.16,2.406,2.406,0,0,0-1.84.9,3.7,3.7,0,0,0-.8,2.54V45Zm11.22.2a4.808,4.808,0,0,1-3.61-1.48A5.139,5.139,0,0,1,339.05,40a5.212,5.212,0,0,1,1.39-3.73,4.84,4.84,0,0,1,3.69-1.47,4.416,4.416,0,0,1,3.64,1.64,5.576,5.576,0,0,1,1.16,4.02h-8.14a3.134,3.134,0,0,0,1,2.27,3.25,3.25,0,0,0,2.32.91,3,3,0,0,0,2.9-1.68h1.76a4.207,4.207,0,0,1-1.62,2.32A4.992,4.992,0,0,1,344.09,45.2Zm1.96-8.16a2.9,2.9,0,0,0-1.98-.72,3.305,3.305,0,0,0-2.07.7,3.117,3.117,0,0,0-1.13,2.08h6.24A3.369,3.369,0,0,0,346.05,37.04Z" transform="translate(762.5 1499.065)" fill="#fff"/>
    <path id="Path_2055" data-name="Path 2055" d="M19663.008-18522.3c-1.783,1.711-62.314,87.246-62.314,87.246l34.332,66.641,59.762-86.457h-13.826l-.125-54.354h-17.777Z" transform="translate(-18886.125 19911.855)" fill="url(#linear-gradient-2)"/>
    <path id="Path_2056" data-name="Path 2056" d="M19663.236-18522.4c-.947.908-31.451,40.355-31.451,40.355v27.174l-25.912,41.535,29.152,44.922,38.932-80.064,3.107-6.393h-13.828v-67.529Z" transform="translate(-18823.125 19911.953)" fill="url(#linear-gradient-3)"/>
    <path id="Path_2060" data-name="Path 2060" d="M19662.42-18522.381l-45.748,49.492,14.9,18.016,2.1-2.543-32.621,37.232,1.422,42.742,101.3-77.432-34.113-55.25Z" transform="translate(-18734.594 19911.953)" fill="url(#linear-gradient-4)"/>
    <path id="Path_2062" data-name="Path 2062" d="M19663.76-18522.424c-.947.908-33.062,37.43-33.062,37.43l21.467,30.121-56.025,63.3,108.789-68.488-30.437-4.836-4.826-45.229Z" transform="translate(-18683.074 19911.953)" fill="url(#linear-gradient-5)"/>
    <path id="Path_2063" data-name="Path 2063" d="M19653.873-18510.123c-.947.908-.811,29.389-.811,29.389s1.492,17.822,13.92,14.256,20.633-18.773,13.426-32.785S19653.873-18510.123,19653.873-18510.123Z" transform="translate(-18659.074 19911.953)" fill="url(#linear-gradient-6)"/>
    <path id="Path_2059" data-name="Path 2059" d="M19637.4-18483.375h-3.68v28.5l-7.641,50.477,50.959-50.6-13.687-.109-11.627-31.172Z" transform="translate(-18780.02 19911.953)" fill="url(#linear-gradient-7)"/>
    <path id="Path_2057" data-name="Path 2057" d="M19649.443-18512.16c-.947.908,3.416,18.965,3.416,18.965l23.736-2.369v-14.643Z" transform="translate(-18801.328 19911.953)" fill="#af8626"/>
    <path id="Path_2058" data-name="Path 2058" d="M65.265,0V-67.45H91.1q9.215,0,14.963,5.7a19.251,19.251,0,0,1,5.748,14.25q0,13.3-13.87,17.575L122.17,0H105.545L82.365-28.4H79.04V0ZM79.04-40.185H89.49a9.538,9.538,0,0,0,6.317-1.947A6.622,6.622,0,0,0,98.135-47.5a6.622,6.622,0,0,0-2.327-5.368,9.538,9.538,0,0,0-6.317-1.948H79.04Z" transform="translate(774.875 1457.001)" fill="#fff"/>
    <path id="Path_2061" data-name="Path 2061" d="M123.975,0l29.07-67.45H165.3L194.465,0h-14.44L173.47-15.39H144.685L138.225,0Zm35.15-49.305-9.31,21.85H168.34Z" transform="translate(774.875 1457.001)" fill="#fff"/>
    <path id="Path_2066" data-name="Path 2066" d="M19651.445-18520.771c-1.482,1.422-15.055,30.3-15.055,30.3l-2.184,13.867s-4.654,12-13.6,31.387-22.172,46.141-22.172,46.141l93.258-53.709h-39.807l8.926-61.129Z" transform="translate(-18598.873 19910.189)" fill="url(#linear-gradient-8)"/>
    <path id="Path_2069" data-name="Path 2069" d="M19651.568-18520.619l-59.982,107.086,73.789-39.77h-13.85Z" transform="translate(-18515.873 19910.189)" fill="url(#linear-gradient-9)"/>
    <path id="Path_2070" data-name="Path 2070" d="M19650.908-18520.684l-18.869,39.574v27.807l-36.937,42.094,69.445-41.98-13.021-.113Z" transform="translate(-18482.5 19910.189)" fill="url(#linear-gradient-10)"/>
    <path id="Path_2072" data-name="Path 2072" d="M19650.908-18520.684l-18.869,39.574-14.271-16.8v44.6s-31.842,34-36.311,45.045l83.09-44.932-13.021-.113Z" transform="translate(-18436.047 19910.189)" fill="url(#linear-gradient-11)"/>
    <path id="Path_2067" data-name="Path 2067" d="M205.77,0V-67.45H228a33.975,33.975,0,0,1,24.605,9.785,32.1,32.1,0,0,1,10.07,23.94,32.1,32.1,0,0,1-10.07,23.94A33.975,33.975,0,0,1,228,0Zm13.775-12.635H228q9.215,0,15.01-6.08a20.921,20.921,0,0,0,5.795-15.01,20.921,20.921,0,0,0-5.795-15.01q-5.795-6.08-15.01-6.08h-8.455Z" transform="translate(774.875 1457.001)" fill="#fff"/>
    <path id="Path_2068" data-name="Path 2068" d="M277.59,0V-67.45h41.99v13.11H291.365v13.87H313.88v13.11H291.365v14.25H319.58V0Z" transform="translate(774.875 1457.001)" fill="#fff"/>
    <path id="Path_2071" data-name="Path 2071" d="M453.625,0H441.75L407.17-43.985V0H393.4V-67.45H405.27l34.58,43.985V-67.45h13.775Z" transform="translate(774.875 1457.001)" fill="#fff"/>
  </g>
</svg>
