<svg xmlns="http://www.w3.org/2000/svg" xmlns:xlink="http://www.w3.org/1999/xlink" width="557.094" height="424.959" viewBox="0 0 557.094 424.959">
  <defs>
    <linearGradient id="linear-gradient" x1="0.571" y1="0.136" x2="0.238" y2="1.037" gradientUnits="objectBoundingBox">
      <stop offset="0" stop-color="#e0ad16"/>
      <stop offset="1" stop-color="#b9872a"/>
    </linearGradient>
    <filter id="Rectangle_3292" x="155.789" y="290.316" width="245.675" height="90.25" filterUnits="userSpaceOnUse">
      <feOffset dy="3" input="SourceAlpha"/>
      <feGaussianBlur stdDeviation="7.5" result="blur"/>
      <feFlood flood-opacity="0.161"/>
      <feComposite operator="in" in2="blur"/>
      <feComposite in="SourceGraphic"/>
    </filter>
    <linearGradient id="linear-gradient-2" x1="0.602" y1="0.189" x2="0.21" y2="0.678" gradientUnits="objectBoundingBox">
      <stop offset="0" stop-opacity="0.184"/>
      <stop offset="1" stop-color="#545454" stop-opacity="0"/>
    </linearGradient>
    <linearGradient id="linear-gradient-3" x1="0.602" y1="0.189" x2="0.248" y2="0.672" gradientUnits="objectBoundingBox">
      <stop offset="0" stop-opacity="0.204"/>
      <stop offset="1" stop-color="#545454" stop-opacity="0"/>
    </linearGradient>
    <linearGradient id="linear-gradient-4" x1="0.602" y1="0.189" x2="0.23" y2="0.734" gradientUnits="objectBoundingBox">
      <stop offset="0" stop-opacity="0.2"/>
      <stop offset="1" stop-color="#545454" stop-opacity="0"/>
    </linearGradient>
    <linearGradient id="linear-gradient-5" x1="0.621" y1="0.126" x2="0.174" y2="0.842" gradientUnits="objectBoundingBox">
      <stop offset="0" stop-opacity="0.173"/>
      <stop offset="1" stop-color="#545454" stop-opacity="0"/>
    </linearGradient>
    <linearGradient id="linear-gradient-6" x1="0.602" y1="0.189" x2="0.23" y2="0.734" gradientUnits="objectBoundingBox">
      <stop offset="0" stop-opacity="0.212"/>
      <stop offset="1" stop-color="#545454" stop-opacity="0"/>
    </linearGradient>
    <linearGradient id="linear-gradient-7" x1="0.602" y1="0.189" x2="0.23" y2="0.734" gradientUnits="objectBoundingBox">
      <stop offset="0" stop-opacity="0.231"/>
      <stop offset="1" stop-color="#545454" stop-opacity="0"/>
    </linearGradient>
    <linearGradient id="linear-gradient-8" x1="0.602" y1="0.189" x2="0.021" y2="0.928" gradientUnits="objectBoundingBox">
      <stop offset="0" stop-opacity="0.18"/>
      <stop offset="1" stop-color="#545454" stop-opacity="0"/>
    </linearGradient>
    <linearGradient id="linear-gradient-9" x1="0.602" y1="0.189" x2="0" y2="0.989" xlink:href="#linear-gradient-5"/>
    <linearGradient id="linear-gradient-10" x1="0.602" y1="0.189" x2="0.143" y2="0.895" gradientUnits="objectBoundingBox">
      <stop offset="0" stop-opacity="0.243"/>
      <stop offset="1" stop-color="#545454" stop-opacity="0"/>
    </linearGradient>
    <linearGradient id="linear-gradient-11" x1="0.602" y1="0.189" x2="0.223" y2="0.876" gradientUnits="objectBoundingBox">
      <stop offset="0" stop-opacity="0.275"/>
      <stop offset="1" stop-color="#545454" stop-opacity="0"/>
    </linearGradient>
  </defs>
  <g id="Group_2508" data-name="Group 2508" transform="translate(-735 -1465.133)">
    <rect id="Rectangle_3634" data-name="Rectangle 3634" width="557.094" height="424.959" transform="translate(735 1465.133)" fill="url(#linear-gradient)"/>
    <path id="Path_5716" data-name="Path 5716" d="M5.046-41.533h5.386L22.915-24.62,35.448-41.533h5.386V-5.8H34.894v-25.62L22.965-15.208,10.935-31.466V-5.8H5.046ZM51.5-36.449a3.62,3.62,0,0,1-2.617-1.082,3.554,3.554,0,0,1-1.107-2.643,3.5,3.5,0,0,1,1.107-2.592A3.62,3.62,0,0,1,51.5-43.848a3.513,3.513,0,0,1,2.617,1.082,3.579,3.579,0,0,1,1.057,2.592,3.639,3.639,0,0,1-1.057,2.643A3.512,3.512,0,0,1,51.5-36.449ZM48.736-5.8V-30.963h5.537V-5.8Zm12.986,0V-30.963h5.537v3.423q2.366-3.926,7.651-3.926a9.009,9.009,0,0,1,7,2.869,10.913,10.913,0,0,1,2.617,7.651V-5.8H78.987V-20.04a7.129,7.129,0,0,0-1.409-4.706,4.724,4.724,0,0,0-3.825-1.686,5.823,5.823,0,0,0-4.681,2.164,9.224,9.224,0,0,0-1.812,6.09V-5.8ZM94.389-36.449a3.62,3.62,0,0,1-2.617-1.082,3.554,3.554,0,0,1-1.107-2.643,3.5,3.5,0,0,1,1.107-2.592,3.62,3.62,0,0,1,2.617-1.082,3.513,3.513,0,0,1,2.617,1.082,3.579,3.579,0,0,1,1.057,2.592,3.639,3.639,0,0,1-1.057,2.643A3.513,3.513,0,0,1,94.389-36.449ZM91.62-5.8V-30.963h5.537V-5.8Zm45.049,0V-19.939a8.613,8.613,0,0,0-1.133-4.782,3.755,3.755,0,0,0-3.347-1.711,5.157,5.157,0,0,0-4.278,2.064A9.649,9.649,0,0,0,126.2-18.58V-5.8h-5.537V-19.939a8.613,8.613,0,0,0-1.133-4.782,3.755,3.755,0,0,0-3.347-1.711,5.236,5.236,0,0,0-4.4,2.164,9.922,9.922,0,0,0-1.636,6.09V-5.8h-5.537V-30.963h5.537v3.423a7.726,7.726,0,0,1,7.147-3.926q5.688,0,7.8,4.983a7.956,7.956,0,0,1,3.247-3.674,9.2,9.2,0,0,1,4.807-1.309A8.222,8.222,0,0,1,139.79-28.6a11.648,11.648,0,0,1,2.416,7.751V-5.8Zm21.644.5a8.6,8.6,0,0,1-6.845-2.894,11.36,11.36,0,0,1-2.517-7.726v-15.05h5.537v14.144a7.736,7.736,0,0,0,1.309,4.757,4.387,4.387,0,0,0,3.725,1.737A5.375,5.375,0,0,0,164-12.465a9.792,9.792,0,0,0,1.661-6.116V-30.963H171.2V-5.8h-5.537V-9.218Q163.447-5.292,158.313-5.292Zm52.4-.5V-19.939a8.613,8.613,0,0,0-1.133-4.782,3.755,3.755,0,0,0-3.347-1.711,5.157,5.157,0,0,0-4.278,2.064,9.649,9.649,0,0,0-1.711,5.788V-5.8H194.7V-19.939a8.613,8.613,0,0,0-1.133-4.782,3.755,3.755,0,0,0-3.347-1.711,5.236,5.236,0,0,0-4.4,2.164,9.922,9.922,0,0,0-1.636,6.09V-5.8h-5.537V-30.963h5.537v3.423a7.726,7.726,0,0,1,7.147-3.926q5.688,0,7.8,4.983a7.956,7.956,0,0,1,3.247-3.674,9.2,9.2,0,0,1,4.807-1.309,8.222,8.222,0,0,1,6.644,2.869,11.648,11.648,0,0,1,2.416,7.751V-5.8Zm23.2-16.761v-2.819h3.322a21.412,21.412,0,0,1-1.158-6.241,10.219,10.219,0,0,1,3.07-7.374A10.5,10.5,0,0,1,247-42.137a10.494,10.494,0,0,1,7.928,3.3,11.4,11.4,0,0,1,3.247,7.877h-5.537a5.706,5.706,0,0,0-1.586-4.052A5.317,5.317,0,0,0,247-36.7a5.3,5.3,0,0,0-3.876,1.485,5.227,5.227,0,0,0-1.51,3.9,17.372,17.372,0,0,0,1.309,5.939h9.161v2.819h-8.2a19.025,19.025,0,0,1,1.057,5.738,10.651,10.651,0,0,1-1.611,5.587h14.849V-5.8H233.915v-5.436h3.825a8.88,8.88,0,0,0,1.711-5.335,19.572,19.572,0,0,0-1.309-5.99Zm52.448,11.325V-5.8H262.706V-7.809a11.464,11.464,0,0,1,.579-3.649,16.632,16.632,0,0,1,1.233-2.894,11.8,11.8,0,0,1,2.164-2.592q1.51-1.435,2.315-2.064t2.844-2.089q2.039-1.46,2.592-1.862a24.443,24.443,0,0,0,4.58-4.077,6.558,6.558,0,0,0,1.409-4.228,5.291,5.291,0,0,0-1.51-3.951,5.7,5.7,0,0,0-4.178-1.485,6.577,6.577,0,0,0-4.58,1.636,5.85,5.85,0,0,0-1.862,4.455h-5.587a10.854,10.854,0,0,1,3.448-8.305,12.154,12.154,0,0,1,8.632-3.221,11.717,11.717,0,0,1,8,2.819,9.944,9.944,0,0,1,3.221,7.9,11.9,11.9,0,0,1-1.837,6.77,24.067,24.067,0,0,1-6.065,5.763q-.654.5-2.416,1.711T273.1-15.309a12.752,12.752,0,0,0-1.787,1.787A6.529,6.529,0,0,0,270-11.232ZM313.9-9.118a12.257,12.257,0,0,1-9.312,3.825,12.217,12.217,0,0,1-9.312-3.851,13.85,13.85,0,0,1-3.624-9.891V-28.4a13.85,13.85,0,0,1,3.624-9.891,12.217,12.217,0,0,1,9.312-3.851,12.3,12.3,0,0,1,9.337,3.851A13.8,13.8,0,0,1,317.57-28.4v9.362A13.829,13.829,0,0,1,313.9-9.118Zm-9.312-1.611a7,7,0,0,0,5.411-2.215,8.65,8.65,0,0,0,2.039-6.09V-28.4a8.65,8.65,0,0,0-2.039-6.09,7,7,0,0,0-5.411-2.215,6.942,6.942,0,0,0-5.361,2.215,8.65,8.65,0,0,0-2.039,6.09v9.362a8.65,8.65,0,0,0,2.039,6.09A6.942,6.942,0,0,0,304.583-10.728ZM345.4-9.118a12.257,12.257,0,0,1-9.312,3.825,12.217,12.217,0,0,1-9.312-3.851,13.85,13.85,0,0,1-3.624-9.891V-28.4a13.85,13.85,0,0,1,3.624-9.891,12.217,12.217,0,0,1,9.312-3.851,12.3,12.3,0,0,1,9.337,3.851,13.8,13.8,0,0,1,3.649,9.891v9.362A13.829,13.829,0,0,1,345.4-9.118Zm-9.312-1.611a7,7,0,0,0,5.411-2.215,8.65,8.65,0,0,0,2.039-6.09V-28.4a8.65,8.65,0,0,0-2.039-6.09,7,7,0,0,0-5.411-2.215,6.942,6.942,0,0,0-5.361,2.215,8.65,8.65,0,0,0-2.039,6.09v9.362a8.65,8.65,0,0,0,2.039,6.09A6.942,6.942,0,0,0,336.093-10.728Z" transform="translate(836.121 1583.633)" fill="#fff"/>
    <g id="Group_2503" data-name="Group 2503" transform="translate(913.289 1774.949)">
      <g transform="matrix(1, 0, 0, 1, -178.29, -309.82)" filter="url(#Rectangle_3292)">
        <rect id="Rectangle_3292-2" data-name="Rectangle 3292" width="200.675" height="45.25" rx="5" transform="translate(178.29 309.82)" fill="#fff"/>
      </g>
      <path id="Path_5204" data-name="Path 5204" d="M7.271-.009a6.388,6.388,0,0,1-4.71-1.877A6.281,6.281,0,0,1,.684-6.508a6.281,6.281,0,0,1,1.877-4.621,6.388,6.388,0,0,1,4.71-1.877,6.367,6.367,0,0,1,3.851,1.248,5.75,5.75,0,0,1,2.24,3.249h-2.78a2.983,2.983,0,0,0-1.3-1.47,3.884,3.884,0,0,0-2.01-.549A3.841,3.841,0,0,0,4.385-9.376,3.958,3.958,0,0,0,3.269-6.508,3.958,3.958,0,0,0,4.385-3.639,3.841,3.841,0,0,0,7.271-2.488a3.884,3.884,0,0,0,2.01-.549,2.983,2.983,0,0,0,1.3-1.47h2.78a5.75,5.75,0,0,1-2.24,3.249A6.368,6.368,0,0,1,7.271-.009Zm7.72-.212V-13.5h2.426V-.222Zm5.967-10.305a1.493,1.493,0,0,1-1.08-.452,1.47,1.47,0,0,1-.46-1.089,1.47,1.47,0,0,1,.46-1.089,1.493,1.493,0,0,1,1.08-.452,1.5,1.5,0,0,1,1.107.452,1.484,1.484,0,0,1,.452,1.089,1.484,1.484,0,0,1-.452,1.089A1.5,1.5,0,0,1,20.958-10.527ZM19.754-.222V-9.075H22.18V-.222Zm8.853.195a4.5,4.5,0,0,1-3.329-1.337,4.48,4.48,0,0,1-1.328-3.285,4.48,4.48,0,0,1,1.328-3.285A4.5,4.5,0,0,1,28.607-9.27a4.489,4.489,0,0,1,2.966.992A4.623,4.623,0,0,1,33.14-5.693H30.626a2.049,2.049,0,0,0-2.019-1.381,2.082,2.082,0,0,0-1.594.664,2.478,2.478,0,0,0-.62,1.762,2.478,2.478,0,0,0,.62,1.762,2.082,2.082,0,0,0,1.594.664A2.049,2.049,0,0,0,30.626-3.6H33.14a4.623,4.623,0,0,1-1.567,2.585A4.489,4.489,0,0,1,28.607-.027ZM40.825-.222,37.213-4.294V-.222H34.787V-13.5h2.426v7.685l2.868-3.258H43L39.5-5.091l4.32,4.869Zm11.492.106a3.577,3.577,0,0,1-2.435-.823,2.985,2.985,0,0,1-.947-2.382V-6.95H47.146V-9.075h1.788v-2.461H51.36v2.461h2.5V-6.95h-2.5V-3.8a1.576,1.576,0,0,0,.354,1.16,1.607,1.607,0,0,0,1.151.345,2.818,2.818,0,0,0,.992-.159V-.31A5.318,5.318,0,0,1,52.317-.116ZM62.834-1.355A4.548,4.548,0,0,1,59.541-.027a4.533,4.533,0,0,1-3.293-1.337,4.421,4.421,0,0,1-1.363-3.285,4.429,4.429,0,0,1,1.363-3.276A4.517,4.517,0,0,1,59.541-9.27a4.517,4.517,0,0,1,3.293,1.346A4.429,4.429,0,0,1,64.2-4.648,4.45,4.45,0,0,1,62.834-1.355Zm-3.293-.938a2.069,2.069,0,0,0,1.567-.664,2.361,2.361,0,0,0,.629-1.691,2.361,2.361,0,0,0-.629-1.691A2.069,2.069,0,0,0,59.541-7a2.09,2.09,0,0,0-1.585.664,2.361,2.361,0,0,0-.629,1.691,2.361,2.361,0,0,0,.629,1.691A2.09,2.09,0,0,0,59.541-2.293ZM72.36-.222,68.447-9.075h2.674l2.337,5.666L75.8-9.075H78.5L74.574-.222ZM80.9-10.527a1.493,1.493,0,0,1-1.08-.452,1.47,1.47,0,0,1-.46-1.089,1.47,1.47,0,0,1,.46-1.089,1.493,1.493,0,0,1,1.08-.452A1.5,1.5,0,0,1,82-13.156a1.484,1.484,0,0,1,.452,1.089A1.484,1.484,0,0,1,82-10.979,1.5,1.5,0,0,1,80.9-10.527ZM79.691-.222V-9.075h2.426V-.222Zm8.836.195a4.5,4.5,0,0,1-3.338-1.31,4.526,4.526,0,0,1-1.3-3.329A4.45,4.45,0,0,1,85.207-7.96a4.54,4.54,0,0,1,3.338-1.31,4.511,4.511,0,0,1,3.382,1.39,4.9,4.9,0,0,1,1.239,3.8H86.26a2.039,2.039,0,0,0,.691,1.39,2.448,2.448,0,0,0,1.7.558,2.523,2.523,0,0,0,1.16-.257,1.509,1.509,0,0,0,.717-.717h2.532A3.98,3.98,0,0,1,91.43-.886,4.971,4.971,0,0,1,88.527-.027ZM88.473-7.3a2.2,2.2,0,0,0-1.39.434,2.045,2.045,0,0,0-.735,1.2H90.51a1.969,1.969,0,0,0-.77-1.231A2.176,2.176,0,0,0,88.473-7.3Zm13.9,7.083L100.709-5.25,99.062-.222H96.654L93.715-9.075H96.3l1.682,5.666L99.77-9.075h1.859l1.806,5.666L105.1-9.075h2.6L104.781-.222Zm17.689-1.133a4.548,4.548,0,0,1-3.293,1.328,4.533,4.533,0,0,1-3.293-1.337,4.421,4.421,0,0,1-1.363-3.285,4.429,4.429,0,0,1,1.363-3.276,4.517,4.517,0,0,1,3.293-1.346,4.517,4.517,0,0,1,3.293,1.346,4.429,4.429,0,0,1,1.363,3.276A4.45,4.45,0,0,1,120.062-1.355Zm-3.293-.938a2.069,2.069,0,0,0,1.567-.664,2.361,2.361,0,0,0,.629-1.691,2.361,2.361,0,0,0-.629-1.691A2.069,2.069,0,0,0,116.769-7a2.09,2.09,0,0,0-1.585.664,2.361,2.361,0,0,0-.629,1.691,2.361,2.361,0,0,0,.629,1.691A2.09,2.09,0,0,0,116.769-2.293ZM123.94-.222V-6.95h-1.788V-9.075h1.788V-10.4a2.985,2.985,0,0,1,.947-2.382,3.577,3.577,0,0,1,2.435-.823,5.318,5.318,0,0,1,1.54.195v2.143a1.946,1.946,0,0,0-.992-.142,1.607,1.607,0,0,0-1.151.345,1.548,1.548,0,0,0-.354,1.142v.85h1.948V-6.95h-1.948V-.222Zm6.658,0V-6.95h-1.417V-9.075H130.6V-10.4a2.985,2.985,0,0,1,.947-2.382,3.577,3.577,0,0,1,2.435-.823,5.318,5.318,0,0,1,1.54.195v2.143a2.652,2.652,0,0,0-1.009-.142,1.573,1.573,0,0,0-1.142.345,1.573,1.573,0,0,0-.345,1.142v.85h2.5V-6.95h-2.5V-.222Zm10.181.195a4.5,4.5,0,0,1-3.338-1.31,4.526,4.526,0,0,1-1.3-3.329,4.45,4.45,0,0,1,1.319-3.293A4.54,4.54,0,0,1,140.8-9.27a4.511,4.511,0,0,1,3.382,1.39,4.9,4.9,0,0,1,1.239,3.8h-6.906a2.039,2.039,0,0,0,.691,1.39,2.448,2.448,0,0,0,1.7.558,2.523,2.523,0,0,0,1.16-.257,1.509,1.509,0,0,0,.717-.717h2.532a3.98,3.98,0,0,1-1.629,2.222A4.971,4.971,0,0,1,140.779-.027ZM140.726-7.3a2.2,2.2,0,0,0-1.39.434,2.045,2.045,0,0,0-.735,1.2h4.161a1.97,1.97,0,0,0-.77-1.231A2.176,2.176,0,0,0,140.726-7.3Zm6.463,7.083V-9.075h2.426v1.417a2.222,2.222,0,0,1,.841-1.089,2.286,2.286,0,0,1,1.355-.434,2.839,2.839,0,0,1,.814.106v2.461a3.48,3.48,0,0,0-1.1-.195,1.716,1.716,0,0,0-1.39.629,2.621,2.621,0,0,0-.522,1.726V-.222Z" transform="translate(23.598 29.733)" fill="#323434"/>
    </g>
    <path id="Path_5708" data-name="Path 5708" d="M360.81-8.915V-67.45h11.954V-8.915Z" transform="translate(772.936 1672.002)" fill="#fff"/>
    <path id="Path_5721" data-name="Path 5721" d="M17.577-8.915V-56.073H2V-67.45H45.36v11.377H29.614V-8.915Z" transform="translate(820.359 1672.002)" fill="#fff"/>
    <path id="Path_5722" data-name="Path 5722" d="M19657.482-18522.3c-1.547,1.484-36.27,53.426-36.27,53.426l11.986,80.121,51.863-75.031h-12l-.107-47.168h-15.428Z" transform="translate(-18835.117 20126.855)" fill="url(#linear-gradient-2)"/>
    <path id="Path_5717" data-name="Path 5717" d="M19655.654-18522.4c-.822.787-27.293,35.021-27.293,35.021v23.582l-22.488,36.045,25.3,38.984,33.787-69.482,2.7-5.547h-12v-58.6Z" transform="translate(-18778.418 20126.953)" fill="url(#linear-gradient-3)"/>
    <path id="Path_5709" data-name="Path 5709" d="M19654.309-18522.381l-39.7,42.949,12.93,15.635,1.824-2.207-28.309,32.313,1.232,37.092,87.914-67.2-29.605-47.949Z" transform="translate(-18700.951 20126.953)" fill="url(#linear-gradient-4)"/>
    <path id="Path_5710" data-name="Path 5710" d="M19654.822-18522.424c-.82.787-28.691,32.482-28.691,32.482l18.627,26.139-48.619,54.936,94.41-59.434-26.414-4.2-4.189-39.252Z" transform="translate(-18655.59 20126.957)" fill="url(#linear-gradient-5)"/>
    <path id="Path_5711" data-name="Path 5711" d="M19653.766-18510.164c-.822.789-.7,25.5-.7,25.5s1.295,15.467,12.08,12.371,17.906-16.291,11.652-28.451S19653.766-18510.164,19653.766-18510.164Z" transform="translate(-18642.287 20125.375)" fill="url(#linear-gradient-6)"/>
    <path id="Path_5718" data-name="Path 5718" d="M19635.9-18483.76h-3.2v24.736l-6.629,43.8,44.223-43.912-11.879-.1-10.09-27.051Z" transform="translate(-18743.682 20122.18)" fill="url(#linear-gradient-7)"/>
    <path id="Path_5719" data-name="Path 5719" d="M19649.426-18512.16c-.82.789,2.967,16.459,2.967,16.459l20.6-2.057v-12.707Z" transform="translate(-18765.242 20125.602)" fill="#af8626"/>
    <path id="Path_5720" data-name="Path 5720" d="M65.265-8.915V-67.45H87.69q8,0,12.985,4.947a16.706,16.706,0,0,1,4.988,12.367q0,11.542-12.037,15.252l21.023,25.97H100.221L80.1-33.566H77.219V-8.915ZM77.219-43.789h9.069a8.277,8.277,0,0,0,5.482-1.69,5.747,5.747,0,0,0,2.02-4.658,5.747,5.747,0,0,0-2.02-4.658,8.277,8.277,0,0,0-5.482-1.69H77.219Z" transform="translate(811.998 1672.002)" fill="#fff"/>
    <path id="Path_5712" data-name="Path 5712" d="M123.975-8.915,149.2-67.45h10.635l25.31,58.535H172.617l-5.689-13.356h-24.98L136.342-8.915Zm30.5-42.788L146.4-32.741h16.076Z" transform="translate(804.238 1672.002)" fill="#fff"/>
    <path id="Path_5704" data-name="Path 5704" d="M19644.439-18520.771c-1.285,1.232-13.064,26.291-13.064,26.291l-1.9,12.035s-4.037,10.418-11.8,27.238-19.242,40.043-19.242,40.043l80.934-46.609h-34.547l7.746-53.051Z" transform="translate(-18582.822 20125.211)" fill="url(#linear-gradient-8)"/>
    <path id="Path_5705" data-name="Path 5705" d="M19643.639-18520.619l-52.053,92.932,64.035-34.514H19643.6Z" transform="translate(-18509.887 20125.191)" fill="url(#linear-gradient-9)"/>
    <path id="Path_5706" data-name="Path 5706" d="M19643.531-18520.684l-16.377,34.344v24.131l-32.053,36.531,60.266-36.434-11.3-.1Z" transform="translate(-18481.391 20125.199)" fill="url(#linear-gradient-10)"/>
    <path id="Path_5707" data-name="Path 5707" d="M19641.727-18520.684l-16.375,34.344-12.383-14.578v38.709s-27.633,29.51-31.512,39.092l72.105-38.994-11.3-.1Z" transform="translate(-18439.271 20125.199)" fill="url(#linear-gradient-11)"/>
    <path id="Path_5713" data-name="Path 5713" d="M205.77-8.915V-67.45h19.292a29.484,29.484,0,0,1,21.353,8.492,27.855,27.855,0,0,1,8.739,20.776,27.855,27.855,0,0,1-8.739,20.776,29.484,29.484,0,0,1-21.353,8.492ZM217.724-19.88h7.337a17.186,17.186,0,0,0,13.026-5.276,18.156,18.156,0,0,0,5.029-13.026,18.156,18.156,0,0,0-5.029-13.026,17.186,17.186,0,0,0-13.026-5.276h-7.337Z" transform="translate(793.426 1672.002)" fill="#fff"/>
    <path id="Path_5714" data-name="Path 5714" d="M277.59-8.915V-67.45h36.44v11.377H289.544v12.037h19.539v11.377H289.544v12.367H314.03V-8.915Z" transform="translate(783.934 1672.002)" fill="#fff"/>
    <path id="Path_5715" data-name="Path 5715" d="M445.664-8.915H435.359L405.349-47.086V-8.915H393.4V-67.45H403.7L433.71-29.279V-67.45h11.954Z" transform="translate(768.629 1672.002)" fill="#fff"/>
    <g id="Group_2507" data-name="Group 2507" transform="translate(2.906)">
      <g id="Group_2505" data-name="Group 2505" transform="translate(-21952.785 20031.648)">
        <g id="Group_2504" data-name="Group 2504" transform="translate(21743.445 -18354.668)">
          <g id="Group_2493" data-name="Group 2493" transform="translate(1247.93 20.735)">
            <path id="bhf_copy" data-name="bhf copy" d="M134.485,164.814v3.952a5.076,5.076,0,0,1,3.187-.871H139.4v2.011h-2.124c-1.9,0-2.731.84-2.731,2.22v3.453h-2.454V162.831h8.021v2.011l-5.63-.042Zm5.879,6.459v-.17a4.7,4.7,0,1,1,4.74,4.7c-.1,0-.206.011-.309.011a4.451,4.451,0,0,1-4.431-4.429Zm6.99,0c0-1.6-.849-2.571-2.294-2.571h-.1a2.263,2.263,0,0,0-2.252,2.253,2.211,2.211,0,0,0,.032.384c0,.073-.011.155-.011.221a2.321,2.321,0,0,0,4.632,0,1.467,1.467,0,0,0-.011-.221v-.063Zm3.538,1.222c0-.722.181-1.668.181-2.816a10.5,10.5,0,0,0-.36-2.8h2.369a10.081,10.081,0,0,1,.36,2.731c0,1.063-.17,1.857-.17,2.475,0,1.063.5,1.689,1.572,1.689l.189.009a1.889,1.889,0,0,0,1.88-1.88l-.009-.18v-4.847h2.369v8.71h-2.2v-.956a3.838,3.838,0,0,1-2.9,1.146h-.166a3.128,3.128,0,0,1-3.113-3.113v-.175Zm18.566-2.506c0,.723-.181,1.657-.181,2.836a10.615,10.615,0,0,0,.361,2.794h-2.369a10.213,10.213,0,0,1-.361-2.72c0-1.063.155-1.88.155-2.5a1.436,1.436,0,0,0,.017-.226A1.484,1.484,0,0,0,165.6,168.7a1.585,1.585,0,0,0-.2.014h-.17a1.889,1.889,0,0,0-1.88,1.88l.011.2v4.8h-2.321v-8.715h2.124v.956a3.986,3.986,0,0,1,2.805-1.126c.1-.009.2-.014.3-.014a3.2,3.2,0,0,1,3.187,3.187v.11Zm8.584,5.6a5.99,5.99,0,0,1-.234-1.168,3.509,3.509,0,0,1-2.953,1.393h-.011a4.27,4.27,0,0,1-4.25-4.25,2.692,2.692,0,0,1,.011-.3v-.118a4.462,4.462,0,0,1,4.431-4.44,3.183,3.183,0,0,1,2.22.808v-4.993h2.406v7.341a23.929,23.929,0,0,0,.637,5.758Zm-.679-4.377c0-1.626-.871-2.528-2.22-2.528s-2.2.9-2.2,2.528.849,2.528,2.2,2.528a2.184,2.184,0,0,0,2.253-2.5Zm10.432,4.377a12.278,12.278,0,0,1-.319-1.19,3.54,3.54,0,0,1-3,1.371,2.729,2.729,0,0,1-3.094-2.72c0-1.6,1.063-2.56,3.9-2.63.84,0,1.69-.053,1.69-.744s-.489-.987-1.547-.987a2.253,2.253,0,0,0-1.976.913l-1.816-1.126a4.252,4.252,0,0,1,3.772-1.806,3.458,3.458,0,0,1,3.952,3.665,16.4,16.4,0,0,0,.619,5.248Zm-.594-2.772a11,11,0,0,0-.1-1.126,3.849,3.849,0,0,1-1.583.192c-.69,0-1.785.118-1.785,1.168h0a1.066,1.066,0,0,0,1.063,1.063h.107a2.989,2.989,0,0,0,2.294-1.264Zm10.3,1.307a2.809,2.809,0,0,1-2.656,1.678h-.181a2.445,2.445,0,0,1-2.432-2.432,1.579,1.579,0,0,1,.012-.24v-4.245h-1.456v-2.011h1.456v-2.921h2.369v2.921h1.965v1.965h-1.965v4.313c0,.464.2.67.511.67s.51-.181.774-.69l.244-.435,1.615.913Zm.987-9.614a1.431,1.431,0,0,1,1.423-1.423h.124a1.423,1.423,0,0,1,0,2.847h-.124a1.431,1.431,0,0,1-1.423-1.413Zm2.571,2.369v8.71h-2.372v-8.715Zm1.6,4.4v-.155a4.685,4.685,0,1,1,4.7,4.685l-.266.009a4.451,4.451,0,0,1-4.43-4.429v-.1Zm6.99,0c0-1.6-.86-2.571-2.294-2.571h-.1a2.263,2.263,0,0,0-2.253,2.253,2.216,2.216,0,0,0,.032.384c0,.073-.011.155-.011.221a2.321,2.321,0,1,0,4.632,0,1.472,1.472,0,0,0-.011-.221v-.064Zm12.419-1.286c0,.723-.181,1.657-.181,2.836a10.617,10.617,0,0,0,.361,2.794h-2.369a10.584,10.584,0,0,1-.36-2.72c0-1.063.17-1.88.17-2.5a1.432,1.432,0,0,0,.017-.226,1.484,1.484,0,0,0-1.476-1.476,1.584,1.584,0,0,0-.2.014h-.17a1.889,1.889,0,0,0-1.88,1.88l.011.2v4.8h-2.369v-8.717h2.2v.956a3.986,3.986,0,0,1,2.805-1.126c.085,0,.172-.011.257-.011a3.2,3.2,0,0,1,3.187,3.187v.107Z" transform="translate(-25.68 -162.52)" fill="#fff" fill-rule="evenodd"/>
            <path id="bhf_copy-2" data-name="bhf copy" d="M137.518,153.553c2.582,0,4.058,1.476,4.058,3.187a2.421,2.421,0,0,1-2.039,2.6c-.415.117-.464.585,0,.659a2.871,2.871,0,0,1,2.517,3.08,3.662,3.662,0,0,1-4.047,3.336H132.1V153.553h5.415Zm-3.028,10.814h3.187c1.2,0,1.891-.531,1.891-1.547,0-1.253-1.179-1.456-2.061-1.869a1.238,1.238,0,0,1,0-2.321c.733-.309,1.6-.511,1.626-1.635,0-.882-.637-1.445-1.753-1.445h-2.9v8.819Zm11.112-6.735v.978a3.127,3.127,0,0,1,2.7-1.146v2.188c-1.668,0-2.5.766-2.5,2.124v4.641h-2.412v-8.785Zm6.322,0v8.743h-2.412v-8.743Zm8.064,7.245a2.81,2.81,0,0,1-2.656,1.679c-.077,0-.155.012-.235.012a2.444,2.444,0,0,1-2.432-2.432,1.514,1.514,0,0,1,.012-.235v-4.3h-1.445v-1.965h1.445v-2.921h2.358v2.921h2V159.6h-1.976v4.313c0,.464.2.679.511.679s.511-.192.786-.69l.234-.446,1.626.913-.223.51Zm.956-9.614a1.092,1.092,0,1,1-.008,0Zm2.561,2.369v8.743h-2.369v-8.743Zm3.973,6.246c0,.464.531.69,1.327.69s1.238-.255,1.238-.733c0-1.615-4.536-.542-4.536-3.676,0-1.583,1.349-2.656,3.6-2.656a4.25,4.25,0,0,1,3.187,1.238l-1.179,1.445a2.828,2.828,0,0,0-1.965-.808c-.893,0-1.238.309-1.238.7,0,1.36,4.558.594,4.558,3.654,0,1.711-1.423,2.785-3.7,2.785-2.124,0-3.613-.9-3.613-2.4a2.476,2.476,0,0,1,.4-1.307l2.061.69a.9.9,0,0,0-.159.384Zm14.628-3.133c0,.723-.181,1.657-.181,2.836a10.619,10.619,0,0,0,.36,2.794h-2.369a10.208,10.208,0,0,1-.361-2.72c0-1.063.155-1.871.155-2.5a1.457,1.457,0,0,0,.019-.227,1.484,1.484,0,0,0-1.476-1.476,1.5,1.5,0,0,0-.209.016l-.176-.009a1.881,1.881,0,0,0-1.857,2.133v4.833h-2.389V153.277h2.338v5.311a3.371,3.371,0,0,1,2.677-1.137c.09,0,.178-.012.268-.012a3.2,3.2,0,0,1,3.187,3.187Zm16.934-7.191v12.823h-2.423v-5.7h-1.572c-2.805,0-4.185,1.371-4.185,3.665v2.039h-2.432V153.557h2.432v6.66a6.319,6.319,0,0,1,4.547-1.583h1.2v-5.078h2.432Zm9.583,11.675a4.976,4.976,0,0,1-3.781,1.327c-.116.009-.232.015-.35.015a4.27,4.27,0,0,1-4.25-4.25q0-.141.009-.28v-.124a4.487,4.487,0,0,1,4.462-4.462h.257c2.358,0,3.442,1.392,3.442,2.825,0,2.39-2.94,3.187-5.652,3.187.309.712.945,1.063,2.124,1.063a4.009,4.009,0,0,0,2.581-.882l1.159,1.572Zm-6.141-3.4c2.2,0,3.6-.351,3.6-1.423,0-.563-.382-.978-1.275-.978h-.034a2.305,2.305,0,0,0-2.294,2.294Zm13.428,4.558c-.127-.4-.234-.786-.33-1.19a3.518,3.518,0,0,1-2.986,1.371,2.734,2.734,0,0,1-3.1-2.72c0-1.6,1.063-2.561,3.9-2.63.84,0,1.7-.053,1.7-.744s-.5-.978-1.547-.978a2.223,2.223,0,0,0-1.965.9l-1.827-1.126a4.252,4.252,0,0,1,3.772-1.806c2.369,0,3.941,1.146,3.952,3.665a16.375,16.375,0,0,0,.627,5.248Zm-.606-2.72a5.272,5.272,0,0,0-.085-1.126,4.059,4.059,0,0,1-1.583.2c-.7,0-1.785.107-1.785,1.159h0a1.066,1.066,0,0,0,1.063,1.063h.1A2.988,2.988,0,0,0,215.3,163.663Zm6.215-6.023v.978a3.124,3.124,0,0,1,2.657-1.146v2.188c-1.668,0-2.486.766-2.486,2.124v4.641h-2.369V157.64Zm10.221,7.245a2.81,2.81,0,0,1-2.656,1.679H228.9a2.455,2.455,0,0,1-2.443-2.443l.009-.218v-4.3h-1.456v-1.965h1.456v-2.921h2.369v2.921H230.8V159.6h-1.965v4.313c0,.464.2.679.511.679s.511-.192.786-.69l.234-.446,1.626.913Z" transform="translate(-132.1 -153.277)" fill="#fff" fill-rule="evenodd"/>
            <path id="bhf_copy-3" data-name="bhf copy" d="M149.227,155.031a1.092,1.092,0,1,1-.008,0Z" transform="translate(-132.174 -153.045)" fill="#fff" fill-rule="evenodd"/>
          </g>
          <g id="Group_2497" data-name="Group 2497" transform="translate(1204.461 9.168)">
            <circle id="Ellipse_656" data-name="Ellipse 656" cx="19.413" cy="19.413" r="19.413" fill="#fff"/>
            <path id="bhf_copy-4" data-name="bhf copy" d="M122.792,166.965c-.56-.04-.41-1.349-1.594-1.2-.84.1-.929,1.1-1,1.879-.085.87-.185,1.609-.437,1.5s-.16-.5-.255-1.714c-.1-1.389-.445-2.154-1.274-2.289-1-.16-1.4,1.37-1.579,1.965s-.5.86-.675.86-.45-.08-.53-.78a4.294,4.294,0,0,1,1.293-2.748c2.4-2.529,5.848-4.313,5.848-8.225-.005-3.7-2.639-5.652-5.1-5.652a4.429,4.429,0,0,0-3.269,1.456c-.582.575-.835,1.219-1.06,1.219s-.47-.645-1.05-1.219a4.44,4.44,0,0,0-3.269-1.456c-2.444,0-5.1,1.949-5.1,5.642,0,3.909,3.443,5.693,5.848,8.225a4.361,4.361,0,0,1,1.295,2.749c-.065.7-.364.728-.5.72s-.455-.135-.685-1-.47-1.5-1.344-1.559c-.975-.06-1.229,1.28-1.314,2.344-.073.915-.095,2.634-.437,2.5a17.984,17.984,0,0,1-.464-3.566c-.125-1.17-.279-3.668-.959-4.113-.825-.539-1.549.065-1.775,1.025-.17.715-.2,1.31-.41,2.269-.16.715-.34,1.165-1.034,1.165H100V168h.455c2.529.1,3.239-.155,3.543-1.295a24.849,24.849,0,0,0,.437-2.5c.09-.5.4-.745.53.635.065.685.13,1.559.235,2.444.31,2.609.39,4.413,1.529,4.5,1.264.11,1.274-2.214,1.36-3.133.05-.582.125-2.256.42-2.074.41.245.255,2.344,2.2,2.429,1.114.055,1.524-.79,1.6-1.729s-.774-2.194-1.925-3.323c-2.766-2.724-4.693-4.128-4.693-7.126s2.134-4.585,4-4.585c.41,0,1.669-.073,3.189,2.389a.335.335,0,0,0,.582,0c1.5-2.459,2.774-2.389,3.189-2.389,1.864,0,4,1.5,4,4.585s-1.944,4.343-4.693,7.067a5.668,5.668,0,0,0-1.909,3.4c.02.9.5,1.784,1.6,1.729,1.879-.085,1.775-1.625,2.159-2.459.21-.445.5-.445.545.225s.073.9.146,1.619c.09.919.42,1.954,1.25,1.874.715-.073,1.125-.5,1.259-1.834.035-.385.065-.56.115-1.119.03-.32.125-.56.265-.5s.27.375.364.595a1.146,1.146,0,0,0,1.135.63h2.929V167c-1.144,0-2.659,0-3-.035" transform="translate(-93.76 -142.237)" fill="#ff0030" fill-rule="evenodd"/>
          </g>
        </g>
        <path id="Path_5723" data-name="Path 5723" d="M1.88,0V-14.2H6.72a4.348,4.348,0,0,1,3.1,1.07,3.724,3.724,0,0,1,1.14,2.85,3.61,3.61,0,0,1-.93,2.56A4.232,4.232,0,0,1,7.44-6.48L12.92,0H10.58L5.12-6.46H3.74V0ZM3.74-8.12H6.5a2.98,2.98,0,0,0,1.92-.55,1.949,1.949,0,0,0,.68-1.61,2.008,2.008,0,0,0-.68-1.63,2.907,2.907,0,0,0-1.92-.57H3.74ZM18.15.2a4.569,4.569,0,0,1-3.49-1.52A5.217,5.217,0,0,1,13.25-5a5.217,5.217,0,0,1,1.41-3.68,4.569,4.569,0,0,1,3.49-1.52,4.407,4.407,0,0,1,2.05.49,3.9,3.9,0,0,1,1.47,1.25V-10h1.72V0H21.67V-1.54A3.9,3.9,0,0,1,20.2-.29,4.407,4.407,0,0,1,18.15.2Zm.26-1.58a3.175,3.175,0,0,0,2.44-1.04A3.66,3.66,0,0,0,21.81-5a3.66,3.66,0,0,0-.96-2.58,3.175,3.175,0,0,0-2.44-1.04,3.2,3.2,0,0,0-2.46,1.04A3.66,3.66,0,0,0,14.99-5a3.66,3.66,0,0,0,.96,2.58A3.2,3.2,0,0,0,18.41-1.38Zm9.95-11.64a1.166,1.166,0,0,1-.86.34,1.215,1.215,0,0,1-.88-.35,1.164,1.164,0,0,1-.36-.87,1.174,1.174,0,0,1,.36-.86,1.2,1.2,0,0,1,.88-.36,1.132,1.132,0,0,1,.86.36,1.209,1.209,0,0,1,.34.86A1.234,1.234,0,0,1,28.36-13.02ZM26.62,0V-10h1.72V0Zm8.19.2A4.658,4.658,0,0,1,32-.62,2.981,2.981,0,0,1,30.75-2.9h1.76a1.765,1.765,0,0,0,.81,1.24,2.822,2.822,0,0,0,1.51.4,2.54,2.54,0,0,0,1.39-.34,1.1,1.1,0,0,0,.53-.98,1.308,1.308,0,0,0-.39-.98,2.922,2.922,0,0,0-1.27-.62l-1.44-.38q-2.58-.68-2.58-2.94a2.345,2.345,0,0,1,.97-1.96,3.99,3.99,0,0,1,2.49-.74,3.865,3.865,0,0,1,2.53.81,2.923,2.923,0,0,1,1.11,2.05H36.45a1.966,1.966,0,0,0-.71-1.04,1.968,1.968,0,0,0-1.21-.38,2.107,2.107,0,0,0-1.23.34,1.047,1.047,0,0,0-.49.9,1.156,1.156,0,0,0,.36.88,2.761,2.761,0,0,0,1.16.56l1.6.42A2.9,2.9,0,0,1,38.49-2.7,2.5,2.5,0,0,1,37.47-.53,4.469,4.469,0,0,1,34.81.2Zm7.85-13.22a1.166,1.166,0,0,1-.86.34,1.215,1.215,0,0,1-.88-.35,1.164,1.164,0,0,1-.36-.87,1.174,1.174,0,0,1,.36-.86,1.2,1.2,0,0,1,.88-.36,1.132,1.132,0,0,1,.86.36,1.209,1.209,0,0,1,.34.86A1.234,1.234,0,0,1,42.66-13.02ZM40.92,0V-10h1.72V0Zm4.97,0V-10h1.72v1.54a3.426,3.426,0,0,1,3.18-1.74,3.6,3.6,0,0,1,2.74,1.1,4.1,4.1,0,0,1,1.04,2.94V0h-1.7V-5.9a2.914,2.914,0,0,0-.64-1.99,2.172,2.172,0,0,0-1.72-.73,2.6,2.6,0,0,0-2.07.98,4.016,4.016,0,0,0-.83,2.68V0ZM62.06,4.38a5.378,5.378,0,0,1-3.29-.97A3.736,3.736,0,0,1,57.22.92H58.9q.66,1.94,3.2,1.94a3.023,3.023,0,0,0,2.29-.91A3.541,3.541,0,0,0,65.26-.6V-1.78A3.9,3.9,0,0,1,63.8-.5a4.3,4.3,0,0,1-2.02.48,4.633,4.633,0,0,1-3.5-1.47,5.062,5.062,0,0,1-1.4-3.63,5.017,5.017,0,0,1,1.41-3.61,4.642,4.642,0,0,1,3.49-1.47,4.3,4.3,0,0,1,2.02.48,3.969,3.969,0,0,1,1.46,1.26V-10h1.72V-.62a4.818,4.818,0,0,1-1.39,3.7A4.963,4.963,0,0,1,62.06,4.38ZM59.58-2.6a3.229,3.229,0,0,0,2.44.98,3.213,3.213,0,0,0,2.44-.99,3.5,3.5,0,0,0,.94-2.51,3.478,3.478,0,0,0-.95-2.51,3.221,3.221,0,0,0-2.43-.99,3.221,3.221,0,0,0-2.43.99,3.478,3.478,0,0,0-.95,2.51A3.534,3.534,0,0,0,59.58-2.6ZM87.9,0V-5.88a3.481,3.481,0,0,0-.51-1.99,1.669,1.669,0,0,0-1.47-.75,2.379,2.379,0,0,0-1.95.94,4.167,4.167,0,0,0-.79,2.56V0H81.46V-5.88a3.471,3.471,0,0,0-.51-2,1.657,1.657,0,0,0-1.45-.74,2.4,2.4,0,0,0-2,.99,4.277,4.277,0,0,0-.76,2.67V0H75.02V-10h1.72v1.54a3.21,3.21,0,0,1,3.02-1.74,3.028,3.028,0,0,1,3.08,2.14,3.337,3.337,0,0,1,1.28-1.56,3.552,3.552,0,0,1,2-.58,3.191,3.191,0,0,1,2.56,1.1,4.4,4.4,0,0,1,.94,2.96V0Zm9.25.2A5.049,5.049,0,0,1,93.4-1.31,5.054,5.054,0,0,1,91.91-5,5.054,5.054,0,0,1,93.4-8.69a5.049,5.049,0,0,1,3.75-1.51,5.025,5.025,0,0,1,3.73,1.51A5.054,5.054,0,0,1,102.37-5a5.054,5.054,0,0,1-1.49,3.69A5.025,5.025,0,0,1,97.15.2ZM94.63-2.44A3.308,3.308,0,0,0,97.15-1.4a3.245,3.245,0,0,0,2.5-1.04A3.634,3.634,0,0,0,100.61-5a3.634,3.634,0,0,0-.96-2.56,3.245,3.245,0,0,0-2.5-1.04,3.276,3.276,0,0,0-2.51,1.04A3.612,3.612,0,0,0,93.67-5,3.634,3.634,0,0,0,94.63-2.44ZM104.82,0V-10h1.72v1.54a3.426,3.426,0,0,1,3.18-1.74,3.6,3.6,0,0,1,2.74,1.1,4.1,4.1,0,0,1,1.04,2.94V0h-1.7V-5.9a2.914,2.914,0,0,0-.64-1.99,2.172,2.172,0,0,0-1.72-.73,2.6,2.6,0,0,0-2.07.98,4.016,4.016,0,0,0-.83,2.68V0Zm16.03.2a4.808,4.808,0,0,1-3.61-1.48A5.139,5.139,0,0,1,115.81-5a5.212,5.212,0,0,1,1.39-3.73,4.84,4.84,0,0,1,3.69-1.47,4.416,4.416,0,0,1,3.64,1.64,5.576,5.576,0,0,1,1.16,4.02h-8.14a3.134,3.134,0,0,0,1,2.27,3.25,3.25,0,0,0,2.32.91,3,3,0,0,0,2.9-1.68h1.76a4.207,4.207,0,0,1-1.62,2.32A4.992,4.992,0,0,1,120.85.2Zm1.96-8.16a2.9,2.9,0,0,0-1.98-.72,3.305,3.305,0,0,0-2.07.7,3.117,3.117,0,0,0-1.13,2.08h6.24A3.369,3.369,0,0,0,122.81-7.96Zm7.83,12.14h-1.92l2.18-4.7L126.52-10h1.9l3.44,7.6,3.42-7.6h1.92ZM143.86,0V-8.42h-2.12V-10h2.12v-2.02a3.026,3.026,0,0,1,.84-2.3,3.086,3.086,0,0,1,2.22-.8,4.672,4.672,0,0,1,1.56.26v1.52a3.167,3.167,0,0,0-1.24-.2,1.78,1.78,0,0,0-1.26.38,1.775,1.775,0,0,0-.4,1.32V-10h2.9v1.58h-2.9V0Zm10.67.2a5.049,5.049,0,0,1-3.75-1.51A5.054,5.054,0,0,1,149.29-5a5.054,5.054,0,0,1,1.49-3.69,5.049,5.049,0,0,1,3.75-1.51,5.025,5.025,0,0,1,3.73,1.51A5.054,5.054,0,0,1,159.75-5a5.054,5.054,0,0,1-1.49,3.69A5.025,5.025,0,0,1,154.53.2Zm-2.52-2.64a3.308,3.308,0,0,0,2.52,1.04,3.245,3.245,0,0,0,2.5-1.04A3.634,3.634,0,0,0,157.99-5a3.634,3.634,0,0,0-.96-2.56,3.245,3.245,0,0,0-2.5-1.04,3.276,3.276,0,0,0-2.51,1.04A3.612,3.612,0,0,0,151.05-5,3.634,3.634,0,0,0,152.01-2.44ZM162.2,0V-10h1.72v1.94a2.718,2.718,0,0,1,1.09-1.48,2.958,2.958,0,0,1,1.71-.56,3.423,3.423,0,0,1,.78.08v1.78a2.337,2.337,0,0,0-.94-.16,2.406,2.406,0,0,0-1.84.9,3.7,3.7,0,0,0-.8,2.54V0Zm15.16.1a3.132,3.132,0,0,1-2.22-.78,2.96,2.96,0,0,1-.84-2.28V-8.42h-2.12V-10h2.12v-2.78h1.72V-10h2.88v1.58h-2.88v5.24a1.775,1.775,0,0,0,.4,1.32,1.78,1.78,0,0,0,1.26.38,3.1,3.1,0,0,0,1.22-.2V-.14A4.839,4.839,0,0,1,177.36.1Zm5.45-.1h-1.72V-15h1.72v6.54a3.426,3.426,0,0,1,3.18-1.74,3.6,3.6,0,0,1,2.74,1.1,4.1,4.1,0,0,1,1.04,2.94V0h-1.7V-5.9a2.914,2.914,0,0,0-.64-1.99,2.172,2.172,0,0,0-1.72-.73,2.6,2.6,0,0,0-2.07.98,4.016,4.016,0,0,0-.83,2.68Zm14.31.2a4.808,4.808,0,0,1-3.61-1.48A5.139,5.139,0,0,1,192.08-5a5.212,5.212,0,0,1,1.39-3.73,4.84,4.84,0,0,1,3.69-1.47,4.416,4.416,0,0,1,3.64,1.64,5.576,5.576,0,0,1,1.16,4.02h-8.14a3.134,3.134,0,0,0,1,2.27,3.25,3.25,0,0,0,2.32.91,3,3,0,0,0,2.9-1.68h1.76a4.207,4.207,0,0,1-1.62,2.32A4.992,4.992,0,0,1,197.12.2Zm1.96-8.16a2.9,2.9,0,0,0-1.98-.72,3.305,3.305,0,0,0-2.07.7A3.117,3.117,0,0,0,193.9-5.9h6.24A3.369,3.369,0,0,0,199.08-7.96Z" transform="translate(22737 -18319.5)" fill="#fff"/>
      </g>
      <path id="Path_5724" data-name="Path 5724" d="M6.86.2A4.407,4.407,0,0,1,4.81-.29,3.9,3.9,0,0,1,3.34-1.54V0H1.62V-15H3.34v6.54A3.9,3.9,0,0,1,4.81-9.71a4.407,4.407,0,0,1,2.05-.49,4.569,4.569,0,0,1,3.49,1.52A5.217,5.217,0,0,1,11.76-5a5.217,5.217,0,0,1-1.41,3.68A4.569,4.569,0,0,1,6.86.2ZM4.16-2.42A3.175,3.175,0,0,0,6.6-1.38,3.175,3.175,0,0,0,9.04-2.42,3.66,3.66,0,0,0,10-5a3.66,3.66,0,0,0-.96-2.58A3.175,3.175,0,0,0,6.6-8.62,3.175,3.175,0,0,0,4.16-7.58,3.66,3.66,0,0,0,3.2-5,3.66,3.66,0,0,0,4.16-2.42Zm12.51,6.6H14.75l2.18-4.7L12.55-10h1.9l3.44,7.6L21.31-10h1.92ZM33.43.2a4.569,4.569,0,0,1-3.49-1.52A5.217,5.217,0,0,1,28.53-5a5.217,5.217,0,0,1,1.41-3.68,4.569,4.569,0,0,1,3.49-1.52,4.407,4.407,0,0,1,2.05.49,3.9,3.9,0,0,1,1.47,1.25V-15h1.72V0H36.95V-1.54A3.9,3.9,0,0,1,35.48-.29,4.407,4.407,0,0,1,33.43.2Zm.26-1.58a3.175,3.175,0,0,0,2.44-1.04A3.66,3.66,0,0,0,37.09-5a3.66,3.66,0,0,0-.96-2.58,3.175,3.175,0,0,0-2.44-1.04,3.2,3.2,0,0,0-2.46,1.04A3.66,3.66,0,0,0,30.27-5a3.66,3.66,0,0,0,.96,2.58A3.2,3.2,0,0,0,33.69-1.38ZM46.34.2a5.049,5.049,0,0,1-3.75-1.51A5.054,5.054,0,0,1,41.1-5a5.054,5.054,0,0,1,1.49-3.69,5.049,5.049,0,0,1,3.75-1.51,5.025,5.025,0,0,1,3.73,1.51A5.054,5.054,0,0,1,51.56-5a5.054,5.054,0,0,1-1.49,3.69A5.025,5.025,0,0,1,46.34.2ZM43.82-2.44A3.308,3.308,0,0,0,46.34-1.4a3.245,3.245,0,0,0,2.5-1.04A3.634,3.634,0,0,0,49.8-5a3.634,3.634,0,0,0-.96-2.56,3.245,3.245,0,0,0-2.5-1.04,3.276,3.276,0,0,0-2.51,1.04A3.612,3.612,0,0,0,42.86-5,3.634,3.634,0,0,0,43.82-2.44ZM54.01,0V-10h1.72v1.54a3.426,3.426,0,0,1,3.18-1.74,3.6,3.6,0,0,1,2.74,1.1,4.1,4.1,0,0,1,1.04,2.94V0h-1.7V-5.9a2.914,2.914,0,0,0-.64-1.99,2.172,2.172,0,0,0-1.72-.73,2.6,2.6,0,0,0-2.07.98,4.016,4.016,0,0,0-.83,2.68V0ZM69.9.2a4.569,4.569,0,0,1-3.49-1.52A5.216,5.216,0,0,1,65-5a5.216,5.216,0,0,1,1.41-3.68A4.569,4.569,0,0,1,69.9-10.2a4.407,4.407,0,0,1,2.05.49,3.9,3.9,0,0,1,1.47,1.25V-10h1.72V0H73.42V-1.54A3.9,3.9,0,0,1,71.95-.29,4.407,4.407,0,0,1,69.9.2Zm.26-1.58A3.175,3.175,0,0,0,72.6-2.42,3.66,3.66,0,0,0,73.56-5a3.66,3.66,0,0,0-.96-2.58,3.175,3.175,0,0,0-2.44-1.04A3.2,3.2,0,0,0,67.7-7.58,3.66,3.66,0,0,0,66.74-5a3.66,3.66,0,0,0,.96,2.58A3.2,3.2,0,0,0,70.16-1.38ZM82.25.1a3.132,3.132,0,0,1-2.22-.78,2.96,2.96,0,0,1-.84-2.28V-8.42H77.07V-10h2.12v-2.78h1.72V-10h2.88v1.58H80.91v5.24a1.775,1.775,0,0,0,.4,1.32,1.78,1.78,0,0,0,1.26.38,3.1,3.1,0,0,0,1.22-.2V-.14A4.839,4.839,0,0,1,82.25.1Zm5.47-13.12a1.166,1.166,0,0,1-.86.34,1.215,1.215,0,0,1-.88-.35,1.164,1.164,0,0,1-.36-.87,1.174,1.174,0,0,1,.36-.86,1.2,1.2,0,0,1,.88-.36,1.132,1.132,0,0,1,.86.36,1.209,1.209,0,0,1,.34.86A1.234,1.234,0,0,1,87.72-13.02ZM85.98,0V-10H87.7V0Zm4.97,0V-10h1.72v1.54a3.426,3.426,0,0,1,3.18-1.74,3.6,3.6,0,0,1,2.74,1.1,4.1,4.1,0,0,1,1.04,2.94V0h-1.7V-5.9a2.914,2.914,0,0,0-.64-1.99,2.172,2.172,0,0,0-1.72-.73,2.6,2.6,0,0,0-2.07.98,4.016,4.016,0,0,0-.83,2.68V0Zm16.17,4.38a5.378,5.378,0,0,1-3.29-.97A3.736,3.736,0,0,1,102.28.92h1.68q.66,1.94,3.2,1.94a3.023,3.023,0,0,0,2.29-.91,3.541,3.541,0,0,0,.87-2.55V-1.78A3.9,3.9,0,0,1,108.86-.5a4.3,4.3,0,0,1-2.02.48,4.633,4.633,0,0,1-3.5-1.47,5.062,5.062,0,0,1-1.4-3.63,5.017,5.017,0,0,1,1.41-3.61,4.642,4.642,0,0,1,3.49-1.47,4.3,4.3,0,0,1,2.02.48,3.969,3.969,0,0,1,1.46,1.26V-10h1.72V-.62a4.818,4.818,0,0,1-1.39,3.7A4.963,4.963,0,0,1,107.12,4.38ZM104.64-2.6a3.229,3.229,0,0,0,2.44.98,3.212,3.212,0,0,0,2.44-.99,3.5,3.5,0,0,0,.94-2.51,3.478,3.478,0,0,0-.95-2.51,3.221,3.221,0,0,0-2.43-.99,3.221,3.221,0,0,0-2.43.99,3.478,3.478,0,0,0-.95,2.51A3.534,3.534,0,0,0,104.64-2.6ZM124.52.2a5.049,5.049,0,0,1-3.75-1.51A5.054,5.054,0,0,1,119.28-5a5.054,5.054,0,0,1,1.49-3.69,5.049,5.049,0,0,1,3.75-1.51,5.025,5.025,0,0,1,3.73,1.51A5.054,5.054,0,0,1,129.74-5a5.054,5.054,0,0,1-1.49,3.69A5.025,5.025,0,0,1,124.52.2ZM122-2.44a3.308,3.308,0,0,0,2.52,1.04,3.245,3.245,0,0,0,2.5-1.04A3.634,3.634,0,0,0,127.98-5a3.634,3.634,0,0,0-.96-2.56,3.245,3.245,0,0,0-2.5-1.04,3.276,3.276,0,0,0-2.51,1.04A3.612,3.612,0,0,0,121.04-5,3.634,3.634,0,0,0,122-2.44ZM132.19,0V-15h1.72V0Zm9.09.2a4.569,4.569,0,0,1-3.49-1.52A5.216,5.216,0,0,1,136.38-5a5.216,5.216,0,0,1,1.41-3.68,4.569,4.569,0,0,1,3.49-1.52,4.407,4.407,0,0,1,2.05.49,3.9,3.9,0,0,1,1.47,1.25V-15h1.72V0H144.8V-1.54a3.9,3.9,0,0,1-1.47,1.25A4.407,4.407,0,0,1,141.28.2Zm.26-1.58a3.175,3.175,0,0,0,2.44-1.04A3.66,3.66,0,0,0,144.94-5a3.66,3.66,0,0,0-.96-2.58,3.175,3.175,0,0,0-2.44-1.04,3.2,3.2,0,0,0-2.46,1.04A3.66,3.66,0,0,0,138.12-5a3.66,3.66,0,0,0,.96,2.58A3.2,3.2,0,0,0,141.54-1.38ZM155.14,0V-8.42h-2.12V-10h2.12v-2.02a3.026,3.026,0,0,1,.84-2.3,3.086,3.086,0,0,1,2.22-.8,4.672,4.672,0,0,1,1.56.26v1.52a3.167,3.167,0,0,0-1.24-.2,1.78,1.78,0,0,0-1.26.38,1.775,1.775,0,0,0-.4,1.32V-10h2.9v1.58h-2.9V0Zm10.03.2a3.444,3.444,0,0,1-2.66-1.11,4.189,4.189,0,0,1-1.02-2.95V-10h1.72v5.88a3.049,3.049,0,0,0,.61,2,2.026,2.026,0,0,0,1.65.74,2.444,2.444,0,0,0,1.99-.99,4.162,4.162,0,0,0,.79-2.67V-10h1.72V0h-1.72V-1.54A3.286,3.286,0,0,1,165.17.2ZM173.2,0V-10h1.72v1.94a2.718,2.718,0,0,1,1.09-1.48,2.958,2.958,0,0,1,1.71-.56,3.423,3.423,0,0,1,.78.08v1.78a2.337,2.337,0,0,0-.94-.16,2.406,2.406,0,0,0-1.84.9,3.7,3.7,0,0,0-.8,2.54V0Zm7.31,0V-10h1.72v1.54a3.426,3.426,0,0,1,3.18-1.74,3.6,3.6,0,0,1,2.74,1.1,4.1,4.1,0,0,1,1.04,2.94V0h-1.7V-5.9a2.914,2.914,0,0,0-.64-1.99,2.172,2.172,0,0,0-1.72-.73,2.6,2.6,0,0,0-2.07.98,4.016,4.016,0,0,0-.83,2.68V0Zm13.51-13.02a1.166,1.166,0,0,1-.86.34,1.215,1.215,0,0,1-.88-.35,1.164,1.164,0,0,1-.36-.87,1.174,1.174,0,0,1,.36-.86,1.2,1.2,0,0,1,.88-.36,1.132,1.132,0,0,1,.86.36,1.209,1.209,0,0,1,.34.86A1.234,1.234,0,0,1,194.02-13.02ZM192.28,0V-10H194V0Zm8.85.1a3.132,3.132,0,0,1-2.22-.78,2.96,2.96,0,0,1-.84-2.28V-8.42h-2.12V-10h2.12v-2.78h1.72V-10h2.88v1.58h-2.88v5.24a1.775,1.775,0,0,0,.4,1.32,1.78,1.78,0,0,0,1.26.38,3.1,3.1,0,0,0,1.22-.2V-.14A4.839,4.839,0,0,1,201.13.1Zm7.27.1a3.444,3.444,0,0,1-2.66-1.11,4.189,4.189,0,0,1-1.02-2.95V-10h1.72v5.88a3.049,3.049,0,0,0,.61,2,2.026,2.026,0,0,0,1.65.74,2.444,2.444,0,0,0,1.99-.99,4.162,4.162,0,0,0,.79-2.67V-10h1.72V0h-1.72V-1.54A3.286,3.286,0,0,1,208.4.2Zm8.03-.2V-10h1.72v1.94a2.718,2.718,0,0,1,1.09-1.48,2.958,2.958,0,0,1,1.71-.56,3.423,3.423,0,0,1,.78.08v1.78a2.337,2.337,0,0,0-.94-.16,2.406,2.406,0,0,0-1.84.9,3.7,3.7,0,0,0-.8,2.54V0Zm11.21.2a4.808,4.808,0,0,1-3.61-1.48A5.139,5.139,0,0,1,222.6-5a5.212,5.212,0,0,1,1.39-3.73,4.84,4.84,0,0,1,3.69-1.47,4.416,4.416,0,0,1,3.64,1.64,5.576,5.576,0,0,1,1.16,4.02h-8.14a3.134,3.134,0,0,0,1,2.27,3.25,3.25,0,0,0,2.32.91,3,3,0,0,0,2.9-1.68h1.76A4.207,4.207,0,0,1,230.7-.72,4.992,4.992,0,0,1,227.64.2Zm1.96-8.16a2.9,2.9,0,0,0-1.98-.72,3.305,3.305,0,0,0-2.07.7,3.117,3.117,0,0,0-1.13,2.08h6.24A3.369,3.369,0,0,0,229.6-7.96Z" transform="translate(893.215 1745.65)" fill="#fff"/>
    </g>
  </g>
</svg>
