<svg xmlns="http://www.w3.org/2000/svg" width="34" height="34" viewBox="0 0 34 34">
  <g id="Group_2317" data-name="Group 2317" transform="translate(0.219)">
    <rect id="Rectangle_3267" data-name="Rectangle 3267" width="34" height="34" transform="translate(-0.219)" fill="none"/>
    <g id="Group_1992" data-name="Group 1992" transform="translate(8.535 6.459)">
      <path id="Path_2011" data-name="Path 2011" d="M245.232,59.919a.348.348,0,1,0-.255-.648l-4.011,1.578V57.275l2.449-1.661a.348.348,0,0,0-.391-.576l-2.058,1.4v-5.2a.348.348,0,1,0-.7,0v5.2l-2.058-1.4a.348.348,0,0,0-.391.576l2.449,1.661v3.573l-4.011-1.578a.348.348,0,1,0-.255.648L240.27,61.6v5.593a.348.348,0,1,0,.7,0V61.6Z" transform="translate(-232.371 -46.455)" fill="#009b72"/>
      <path id="Path_2012" data-name="Path 2012" d="M212.791,12.26c0-.011-.009-.021-.013-.032a22.654,22.654,0,0,0-3.935-5.767c-.142-.159-.28-.315-.415-.469l-.037-.042c-1.175-1.343-2.951-3.372-3.173-5.606a.381.381,0,0,0-.759,0c-.223,2.234-2,4.263-3.174,5.606l-.036.042c-.135.154-.274.31-.416.469a22.656,22.656,0,0,0-3.935,5.767c0,.01-.01.021-.014.032a3.252,3.252,0,0,0,.173,3.055,5.235,5.235,0,0,0,3.111,1.909,16.647,16.647,0,0,0,3.464.519h.02a.381.381,0,0,0,.019-.762c-1.434-.073-4.887-.424-5.976-2.084a2.5,2.5,0,0,1-.1-2.353,21.7,21.7,0,0,1,3.81-5.576c.143-.161.283-.318.42-.474l.036-.042a15.092,15.092,0,0,0,2.979-4.439,15.09,15.09,0,0,0,2.979,4.439l.037.042c.136.156.276.313.42.474a21.7,21.7,0,0,1,3.81,5.576,2.5,2.5,0,0,1-.1,2.35c-1.078,1.648-4.5,2.006-5.915,2.084a.381.381,0,1,0,.041.761,16.481,16.481,0,0,0,3.444-.528,5.191,5.191,0,0,0,3.067-1.9,3.254,3.254,0,0,0,.17-3.051" transform="translate(-196.591 0)" fill="#009b72"/>
    </g>
  </g>
</svg>
