<svg xmlns="http://www.w3.org/2000/svg" width="34" height="34" viewBox="0 0 34 34">
  <g id="Group_2241" data-name="Group 2241" transform="translate(6246 7895)">
    <rect id="Rectangle_3411" data-name="Rectangle 3411" width="34" height="34" transform="translate(-6246 -7895)" fill="none"/>
    <g id="Group_2239" data-name="Group 2239" transform="translate(-6239 -7887.519)">
      <path id="Path_2005" data-name="Path 2005" d="M978.775,390.562a.375.375,0,0,0-.275-.7l-5.093,2v-3.278l2.719-3.343a.375.375,0,0,0-.582-.473l-2.137,2.627v-2a.375.375,0,0,0-.75,0v2l-2.137-2.627a.375.375,0,0,0-.582.473l2.719,3.343v3.278l-5.093-2a.375.375,0,1,0-.274.7l5.368,2.111v6.511a.375.375,0,0,0,.75,0v-6.511Z" transform="translate(-962.797 -380.429)" fill="#009b72"/>
      <path id="Path_2006" data-name="Path 2006" d="M942.129,348.656a.379.379,0,0,0-.214-.235l-3.152-1.335a2.2,2.2,0,0,1-1.291-1.856L937,340.138a.379.379,0,0,0-.588-.282l-4.506,2.986-4.506-2.986a.379.379,0,0,0-.587.282l-.467,5.091a2.2,2.2,0,0,1-1.291,1.856l-3.152,1.335a.379.379,0,0,0-.174.551,11.01,11.01,0,0,0,5.382,4.479l3.347,1.264a.38.38,0,0,0,.268-.71l-3.347-1.264a10.2,10.2,0,0,1-4.762-3.8l2.734-1.158a2.958,2.958,0,0,0,1.75-2.486l.409-4.458,4.186,2.774a.38.38,0,0,0,.419,0l4.186-2.774.409,4.458a2.958,2.958,0,0,0,1.751,2.486l2.734,1.158a10.2,10.2,0,0,1-4.762,3.8L933.1,354a.38.38,0,0,0,.268.71l3.335-1.259a11.01,11.01,0,0,0,5.382-4.479.379.379,0,0,0,.04-.316" transform="translate(-921.676 -339.793)" fill="#009b72"/>
    </g>
  </g>
</svg>
