<svg xmlns="http://www.w3.org/2000/svg" width="34" height="34" viewBox="0 0 34 34">
  <g id="Group_2245" data-name="Group 2245" transform="translate(6066 7895)">
    <rect id="Rectangle_3415" data-name="Rectangle 3415" width="34" height="34" transform="translate(-6066 -7895)" fill="none"/>
    <path id="Path_5463" data-name="Path 5463" d="M271.281,323.331V322.5a.314.314,0,0,0,.078-.168l2.866-2.866a.317.317,0,0,0-.449-.449l-2.5,2.5v-1.294a.313.313,0,0,0,.076-.163l3.557-3.557a.317.317,0,0,0-.449-.449l-3.185,3.184v-1.3a.313.313,0,0,0,.074-.159l4.408-4.408a.317.317,0,1,0-.449-.449l-4.034,4.033v-1.3a.313.313,0,0,0,.072-.154l4.358-4.358a.317.317,0,0,0-.449-.449l-3.982,3.981v-1.3a.313.313,0,0,0,.07-.149l3.565-3.565a.317.317,0,1,0-.449-.449l-3.186,3.186v-1.3a.315.315,0,0,0,.068-.145L274.5,307.8a.317.317,0,0,0-.449-.448l-2.767,2.767v-1.306a.313.313,0,0,0,.065-.14l2.444-2.444a.317.317,0,0,0-.449-.449l-2.061,2.061v-1.309a.315.315,0,0,0,.063-.135l1.966-1.966a.317.317,0,0,0-.449-.449l-1.581,1.581v-1.312a.315.315,0,0,0,.061-.13l1.219-1.219a.317.317,0,0,0-.449-.449l-.831.831V302a.317.317,0,0,0-.634,0v1.225l-.765-.766a.317.317,0,1,0-.449.449l1.214,1.214V305.5l-1.514-1.513a.317.317,0,1,0-.449.449l1.962,1.962v1.379l-1.992-1.992a.317.317,0,0,0-.449.449l2.441,2.441v1.379l-2.7-2.7a.317.317,0,0,0-.449.449l3.146,3.146v1.379l-3.115-3.115a.317.317,0,0,0-.449.449l3.563,3.563v1.379l-3.909-3.909a.317.317,0,1,0-.449.449l4.358,4.358v1.379l-3.959-3.959a.317.317,0,0,0-.449.449l4.408,4.408v1.379l-3.107-3.107a.317.317,0,1,0-.449.449l3.556,3.556v1.379l-2.416-2.416a.317.317,0,0,0-.449.448l2.864,2.864v1" transform="translate(-6320.146 -8190.684)" fill="#009b72"/>
  </g>
</svg>
