<svg xmlns="http://www.w3.org/2000/svg" width="34" height="34" viewBox="0 0 34 34">
  <g id="Group_2318" data-name="Group 2318" transform="translate(0.315)">
    <rect id="Rectangle_3271" data-name="Rectangle 3271" width="34" height="34" transform="translate(-0.315)" fill="none"/>
    <g id="Group_1997" data-name="Group 1997" transform="translate(9.618 6.194)">
      <path id="Path_2013" data-name="Path 2013" d="M1073.692,52.271a.383.383,0,0,0-.281-.713L1069,53.294V49.746l2.694-1.827a.383.383,0,1,0-.43-.634L1069,48.821V44.662a.383.383,0,0,0-.766,0v4.159l-2.265-1.536a.383.383,0,1,0-.43.634l2.694,1.827v3.547l-4.412-1.735a.383.383,0,1,0-.28.713l4.692,1.846v7.959a.383.383,0,0,0,.766,0V54.117Z" transform="translate(-1061.549 -40.848)" fill="#009b73"/>
      <path id="Path_2014" data-name="Path 2014" d="M1057.368,14.059c-.315-.355-.861-.895-1.493-1.52-1.207-1.193-3.226-3.191-3.4-3.819a.383.383,0,0,0-.737,0c-.177.628-2.2,2.625-3.4,3.819-.632.625-1.178,1.165-1.494,1.52-.922,1.037-2.522,4.628-1.439,6.877a9.359,9.359,0,0,0,5.135,4.619.383.383,0,1,0,.277-.714,8.6,8.6,0,0,1-4.719-4.233c-.924-1.919.524-5.144,1.319-6.04.3-.337.837-.869,1.46-1.485A33.192,33.192,0,0,0,1052.1,9.61a33.3,33.3,0,0,0,3.233,3.473c.623.616,1.161,1.148,1.46,1.484.8.9,2.244,4.121,1.318,6.043a8.6,8.6,0,0,1-4.719,4.229.383.383,0,0,0,.139.74.379.379,0,0,0,.138-.026,9.357,9.357,0,0,0,5.133-4.615c1.085-2.253-.516-5.844-1.438-6.881" transform="translate(-1045.037 -8.441)" fill="#009b73"/>
    </g>
  </g>
</svg>
