<svg xmlns="http://www.w3.org/2000/svg" width="34" height="34" viewBox="0 0 34 34">
  <g id="Group_2319" data-name="Group 2319" transform="translate(0.282)">
    <rect id="Rectangle_3270" data-name="Rectangle 3270" width="34" height="34" transform="translate(-0.282)" fill="none"/>
    <g id="Group_1996" data-name="Group 1996" transform="translate(7.801 6.67)">
      <path id="Path_2015" data-name="Path 2015" d="M826.544,26.155l-6.822.612,6.642-3.683a.367.367,0,0,0-.356-.642l-6.23,3.455,5.754-6.368a.367.367,0,1,0-.544-.492l-5.223,5.78,4.45-8.315a.367.367,0,1,0-.647-.346L819.6,23.568l2.9-9.385a.367.367,0,0,0-.7-.217l-2.745,8.874,1.462-10.125a.367.367,0,0,0-.726-.1l-1.448,10.027V12.182a.319.319,0,0,0-.639,0V22.637l-1.448-10.027a.367.367,0,1,0-.726.1L817,22.841l-2.746-8.874a.367.367,0,1,0-.7.217l2.9,9.385-3.967-7.413a.367.367,0,1,0-.647.346l4.45,8.315-5.223-5.78a.367.367,0,0,0-.544.492l5.755,6.368-6.23-3.455a.367.367,0,0,0-.356.642l6.642,3.683-6.822-.612a.367.367,0,0,0-.066.731l7.12.639-4.507,1.352a.367.367,0,1,0,.211.7l5.759-1.728,5.759,1.728a.367.367,0,0,0,.211-.7l-4.508-1.352,7.12-.639a.367.367,0,0,0-.065-.731" transform="translate(-809.109 -11.863)" fill="#009b73"/>
      <path id="Path_2016" data-name="Path 2016" d="M903.811,195.567c-.2,0-.367.271-.367.605v5.406c0,.334.165.605.367.605s.367-.271.367-.605v-5.406c0-.334-.164-.605-.367-.605" transform="translate(-894.894 -181.523)" fill="#009b73"/>
    </g>
  </g>
</svg>
