<svg xmlns="http://www.w3.org/2000/svg" width="34" height="34" viewBox="0 0 34 34">
  <g id="Group_2320" data-name="Group 2320" transform="translate(0.063)">
    <g id="Group_1998" data-name="Group 1998" transform="translate(-0.063 0)">
      <rect id="Rectangle_3269" data-name="Rectangle 3269" width="34" height="34" fill="none"/>
    </g>
    <g id="Group_1995" data-name="Group 1995" transform="translate(11.837 6.922)">
      <path id="Path_2017" data-name="Path 2017" d="M673.6,11.123a8.742,8.742,0,0,0-3.033-5.717,5.048,5.048,0,0,1-1.632-2.291.383.383,0,0,0-.741,0,5.048,5.048,0,0,1-1.632,2.291,8.742,8.742,0,0,0-3.033,5.717c-.486,3.575,1.894,7.844,3.356,10.071a.383.383,0,0,0,.64-.42c-1.4-2.137-3.69-6.219-3.237-9.547a7.985,7.985,0,0,1,2.807-5.271,7.8,7.8,0,0,0,1.468-1.731,7.807,7.807,0,0,0,1.469,1.731,7.983,7.983,0,0,1,2.807,5.271c.449,3.3-1.807,7.356-3.192,9.478a.383.383,0,0,0,.641.419c3.194-4.893,3.563-8.139,3.31-10" transform="translate(-663.462 -2.83)" fill="#009b72"/>
      <path id="Path_2018" data-name="Path 2018" d="M685.1,53.42a.383.383,0,0,0-.461-.612l-1.617,1.217V51.788l3.047-1.91a.383.383,0,0,0-.407-.649l-2.64,1.655V48.4l2.078-1.563a.383.383,0,0,0-.461-.612l-1.617,1.217V44.553a.383.383,0,1,0-.766,0v2.888l-1.617-1.217a.383.383,0,0,0-.46.612l2.078,1.563v2.485l-2.64-1.655a.383.383,0,0,0-.407.649l3.047,1.91v2.236l-1.617-1.217a.383.383,0,0,0-.46.612l2.078,1.563v7.531a.383.383,0,1,0,.766,0V54.983Z" transform="translate(-677.536 -40.212)" fill="#009b72"/>
    </g>
  </g>
</svg>
