<svg xmlns="http://www.w3.org/2000/svg" width="34" height="34" viewBox="0 0 34 34">
  <g id="Group_2243" data-name="Group 2243" transform="translate(6151 7895)">
    <rect id="Rectangle_3413" data-name="Rectangle 3413" width="34" height="34" transform="translate(-6151 -7895)" fill="none"/>
    <g id="Group_2237" data-name="Group 2237" transform="matrix(1, 0, 0, 1, -6141, -7889.041)">
      <path id="Path_5417" data-name="Path 5417" d="M11.795,10.45a2.164,2.164,0,0,0-.654.1,3.638,3.638,0,0,1-.53.091l-.093.013a.615.615,0,0,1-.227.01h0l.015-.013c.06-.054.11-.107.16-.159l1.4-1.463.268-.28a1.2,1.2,0,0,0,.329-.574,1.057,1.057,0,0,0-.414-1.065,1.372,1.372,0,0,0-.993-.254,1.721,1.721,0,0,0-.442.135l-.081.033c-.127.05-.256.095-.393.142l-.162.056-.12.045a.707.707,0,0,1-.322.078,1.429,1.429,0,0,1,.161-.2c.031-.035.061-.068.087-.1l.876-1.05c.086-.1.172-.205.257-.309.037-.045.075-.089.114-.134.078-.091.159-.184.233-.287A1.033,1.033,0,0,0,11.3,4.057a1.28,1.28,0,0,0-1.137-.531,1.524,1.524,0,0,0-.637.2l-.354.191-.27.146-.179.1-.063.036a.792.792,0,0,1-.119.062.149.149,0,0,1-.1,0,.612.612,0,0,1,.12-.17,8.479,8.479,0,0,0,.675-.8,1.04,1.04,0,0,0,.151-.96A1.167,1.167,0,0,0,8.6,1.594a2.978,2.978,0,0,0-.409-.079l-.149-.023a.626.626,0,0,1-.115-.028c0-.034,0-.084,0-.121s.006-.09.005-.132A1.179,1.179,0,0,0,7.8.592,1.227,1.227,0,0,0,6.914.018a1.35,1.35,0,0,0-1.1.3,1.242,1.242,0,0,0-.37,1.074V1.4c0,.022,0,.051,0,.073a1.062,1.062,0,0,1-.2.042l-.094.014-.026,0a1.849,1.849,0,0,0-.591.171,1.21,1.21,0,0,0-.443.4,1.053,1.053,0,0,0,.074,1.242c.167.211.344.415.515.613l.186.215a.358.358,0,0,1,.058.086.1.1,0,0,1-.027.01c-.044.01-.1-.017-.212-.079l-.007,0c-.079-.044-.159-.086-.239-.128s-.184-.1-.274-.148l-.081-.046a1.8,1.8,0,0,0-1.016-.322,1.274,1.274,0,0,0-1.048.629,1.01,1.01,0,0,0,0,1,2.016,2.016,0,0,0,.264.348c.03.033.059.067.087.1l.376.451.334.4q.2.246.406.49c.04.048.082.1.124.143a3.059,3.059,0,0,1,.2.245.13.13,0,0,1-.063.016.414.414,0,0,1-.089-.03l-.021-.008c-.084-.034-.176-.068-.29-.108l-.209-.071c-.119-.04-.232-.078-.343-.12L2.713,7a1.611,1.611,0,0,0-.541-.139,1.3,1.3,0,0,0-1.066.454,1.056,1.056,0,0,0-.2.988,1.276,1.276,0,0,0,.315.489l.192.2.191.2.848.886c.108.112.219.228.323.344a2.672,2.672,0,0,0,.193.2L3,10.651l.032.028a.71.71,0,0,1-.222-.008l-.146-.017a3.023,3.023,0,0,1-.4-.063l-.08-.021a2.315,2.315,0,0,0-.5-.092A1.565,1.565,0,0,0,.012,11.726,1.3,1.3,0,0,0,.356,12.8a2.14,2.14,0,0,0,.458.347L3.88,15.033c.044.027.088.05.13.072a1.169,1.169,0,0,1,.119.066A.258.258,0,0,1,4,15.189a1.324,1.324,0,0,0-1.118.547,1.012,1.012,0,0,0-.108.983,1.249,1.249,0,0,0,.957.705l.493.092q-.1.059-.189.128a.789.789,0,0,0-.326.588.747.747,0,0,0,.244.593.915.915,0,0,0,.6.234,1.028,1.028,0,0,0,.3-.048.346.346,0,0,1,.131-.023.122.122,0,0,1,.062.034.313.313,0,0,0,.309.26.305.305,0,0,0,.044,0,.317.317,0,0,0,.27-.355.681.681,0,0,0-.545-.549.863.863,0,0,0-.434.03.559.559,0,0,1-.123.025h0a.289.289,0,0,1-.186-.068.12.12,0,0,1-.043-.1.159.159,0,0,1,.07-.115,1.857,1.857,0,0,1,.387-.222.588.588,0,0,0,.375-.375.445.445,0,0,0-.09-.4.735.735,0,0,0-.543-.23c-.032,0-.062-.006-.089-.011l-.035-.006-.559-.1a.655.655,0,0,1-.5-.334A.387.387,0,0,1,3.4,16.09a.676.676,0,0,1,.578-.272.755.755,0,0,0,.67-.293.619.619,0,0,0,.03-.666.855.855,0,0,0-.381-.315c-.03-.016-.061-.031-.088-.048L1.146,12.61a1.624,1.624,0,0,1-.33-.242.689.689,0,0,1-.18-.56.945.945,0,0,1,1.016-.7,1.778,1.778,0,0,1,.368.071l.085.022a3.516,3.516,0,0,0,.491.079l.143.017a.891.891,0,0,0,.681-.118.618.618,0,0,0,.184-.8.8.8,0,0,0-.185-.208l-.028-.025A2.1,2.1,0,0,1,3.242,10c-.11-.122-.225-.241-.336-.357l-.848-.885-.195-.2L1.676,8.36a.677.677,0,0,1-.17-.246.429.429,0,0,1,.089-.4.667.667,0,0,1,.545-.222,1.057,1.057,0,0,1,.339.1l.09.035c.123.047.247.088.367.129l.2.068c.1.037.188.068.264.1l.019.008A.847.847,0,0,0,3.72,8a.74.74,0,0,0,.594-.265A.6.6,0,0,0,4.332,7a3.493,3.493,0,0,0-.251-.308c-.038-.043-.076-.086-.112-.13q-.2-.243-.4-.488l-.336-.406L2.852,5.22c-.032-.038-.066-.077-.1-.115a1.505,1.505,0,0,1-.186-.238.385.385,0,0,1,0-.39.637.637,0,0,1,.528-.3,1.259,1.259,0,0,1,.67.24l.085.048c.095.053.191.1.288.156.077.041.154.081.229.123l.007,0a.89.89,0,0,0,.65.143.66.66,0,0,0,.511-.459.705.705,0,0,0-.193-.663l-.188-.218c-.167-.192-.339-.391-.5-.591a.423.423,0,0,1-.042-.51.572.572,0,0,1,.211-.188,1.315,1.315,0,0,1,.4-.1l.027,0,.079-.012a1.117,1.117,0,0,0,.5-.163.642.642,0,0,0,.242-.608V1.358C6.062,1.047,6.1.9,6.232.787A.713.713,0,0,1,6.811.639a.606.606,0,0,1,.44.271.6.6,0,0,1,.051.306c0,.029,0,.059,0,.09a.967.967,0,0,0,.036.4.713.713,0,0,0,.6.4l.164.025a2.453,2.453,0,0,1,.324.061.535.535,0,0,1,.373.334.413.413,0,0,1-.061.386,7.879,7.879,0,0,1-.625.736.934.934,0,0,0-.3.706.575.575,0,0,0,.289.424.766.766,0,0,0,.644.065,1.277,1.277,0,0,0,.23-.112l.05-.029L9.2,4.616l.272-.147.351-.189a.88.88,0,0,1,.373-.125.671.671,0,0,1,.582.258.409.409,0,0,1-.022.487c-.056.079-.124.158-.2.241-.042.049-.084.1-.125.147-.083.1-.168.2-.252.3L9.3,6.641c-.021.025-.046.052-.071.08-.155.171-.565.626-.168,1.047a.881.881,0,0,0,1.023.082l.1-.038.158-.055c.138-.047.28-.1.42-.152l.09-.037a1.183,1.183,0,0,1,.283-.092.742.742,0,0,1,.529.132.437.437,0,0,1,.18.436.574.574,0,0,1-.168.269l-.266.278-1.4,1.466c-.042.045-.082.087-.123.123a.689.689,0,0,0-.206.291.626.626,0,0,0,.34.759.99.99,0,0,0,.591.044l.083-.012a4.128,4.128,0,0,0,.618-.109,1.553,1.553,0,0,1,.466-.073.889.889,0,0,1,.917.788.723.723,0,0,1-.294.563,2.791,2.791,0,0,1-.277.181L12,12.686l-.359.223L9.42,14.282l-.15.095c-.111.072-.216.139-.323.194a.7.7,0,0,0-.407.525.628.628,0,0,0,.386.643,1.076,1.076,0,0,0,.429.071c.037,0,.073,0,.108,0a.541.541,0,0,1,.45.288.421.421,0,0,1-.013.42.544.544,0,0,1-.176.172,1.2,1.2,0,0,1-.389.118l-.17.034c-.145.029-.281.056-.419.076l-.034,0c-.157.022-.574.079-.606.481a.53.53,0,0,0,.4.516l.047.02a1.3,1.3,0,0,1,.348.217.13.13,0,0,1,.043.107.151.151,0,0,1-.075.107.291.291,0,0,1-.209.039l-.077-.018A.817.817,0,0,0,8,18.42a.71.71,0,0,0-.31.271.314.314,0,1,0,.539.323.106.106,0,0,1,.035-.024c.028-.013.053-.011.165.017l.1.023a.922.922,0,0,0,.679-.127.781.781,0,0,0,.362-.569.755.755,0,0,0-.222-.619,1.463,1.463,0,0,0-.278-.211l.214-.042.165-.032a1.722,1.722,0,0,0,.6-.2,1.182,1.182,0,0,0,.381-.376,1.05,1.05,0,0,0,.043-1.034,1.163,1.163,0,0,0-.959-.631c-.049,0-.1,0-.15-.006a.641.641,0,0,1-.186-.018.294.294,0,0,1,.051-.032c.135-.069.258-.148.377-.225l.14-.089,2.221-1.374.361-.224.113-.069a3.332,3.332,0,0,0,.34-.224,1.351,1.351,0,0,0,.537-1.06,1.5,1.5,0,0,0-1.527-1.415" transform="translate(0 0.041)" fill="#009b72" stroke="rgba(0,0,0,0)" stroke-miterlimit="10" stroke-width="1"/>
      <path id="Path_5418" data-name="Path 5418" d="M.623,16.129.665.311A.309.309,0,0,0,.354,0,.313.313,0,0,0,.042.312L0,16.131" transform="translate(6.323 5.857)" fill="#009b72" stroke="rgba(0,0,0,0)" stroke-miterlimit="10" stroke-width="1"/>
    </g>
  </g>
</svg>
