<svg xmlns="http://www.w3.org/2000/svg" width="34" height="34" viewBox="0 0 34 34">
  <g id="Group_2315" data-name="Group 2315" transform="translate(0.437)">
    <rect id="Rectangle_3268" data-name="Rectangle 3268" width="34" height="34" transform="translate(-0.437)" fill="none"/>
    <g id="Group_1993" data-name="Group 1993" transform="translate(7.705 7.061)">
      <path id="Path_2007" data-name="Path 2007" d="M478.663,69.014a.355.355,0,1,0-.26-.661l-4.094,1.61V66.316l2.5-1.7a.355.355,0,0,0-.4-.588l-2.1,1.425V59.644a.355.355,0,1,0-.711,0v5.813l-2.1-1.425a.355.355,0,0,0-.4.588l2.5,1.7v3.647l-4.094-1.61a.355.355,0,1,0-.26.661l4.354,1.712v3.655a.355.355,0,1,0,.711,0V70.726Z" transform="translate(-465.095 -54.858)" fill="#009b72"/>
      <path id="Path_2008" data-name="Path 2008" d="M441.353,20.167l-.014-.014a27.46,27.46,0,0,1-7.295-10.51.355.355,0,0,0-.669,0,27.46,27.46,0,0,1-7.295,10.51l-.014.014a4.631,4.631,0,0,0,6.1,6.913.355.355,0,1,0-.418-.575,3.925,3.925,0,0,1-5.17-5.843,28.917,28.917,0,0,0,7.134-9.906,28.917,28.917,0,0,0,7.134,9.906,3.92,3.92,0,0,1-5.383,5.677.355.355,0,1,0-.456.545,4.633,4.633,0,0,0,6.349-6.717" transform="translate(-424.851 -9.407)" fill="#009b72"/>
    </g>
  </g>
</svg>
