<svg id="Group_2316" data-name="Group 2316" xmlns="http://www.w3.org/2000/svg" width="34" height="34" viewBox="0 0 34 34">
  <rect id="Rectangle_3266" data-name="Rectangle 3266" width="34" height="34" fill="none"/>
  <g id="Group_1994" data-name="Group 1994" transform="translate(9.749 6.112)">
    <path id="Path_2009" data-name="Path 2009" d="M28.143,59.613a.368.368,0,0,0-.331-.657L24.788,60.48V57.989l4.92-2.066a.368.368,0,1,0-.285-.678l-4.636,1.946V54.272l3.355-1.69a.368.368,0,0,0-.331-.657l-3.024,1.524V49.783a.368.368,0,1,0-.735,0v3.666l-3.024-1.524a.368.368,0,0,0-.331.657l3.355,1.69v2.921l-4.636-1.946a.368.368,0,1,0-.285.678l4.92,2.066V60.48l-3.024-1.524a.368.368,0,1,0-.331.657l3.355,1.69V66.54a.368.368,0,0,0,.735,0V61.3Z" transform="translate(-17.17 -45.132)" fill="#009b72"/>
    <path id="Path_2010" data-name="Path 2010" d="M.039,13.859c.381,4.287,3.825,7.606,4.818,8.025A1.515,1.515,0,0,0,5.449,22a2.474,2.474,0,0,0,.68-.1.368.368,0,0,0-.2-.707,1.225,1.225,0,0,1-.784.022A10.8,10.8,0,0,1,.771,13.794C.4,9.654,3.024,8.15,3.05,8.137s.112-.043.189-.07a5.735,5.735,0,0,0,3.913-3.82,3.088,3.088,0,0,1,.1-.3,3.081,3.081,0,0,1,.1.3,5.735,5.735,0,0,0,3.913,3.82c.077.027.164.058.189.07S14.1,9.654,13.73,13.794a10.8,10.8,0,0,1-4.371,7.412,1.1,1.1,0,0,1-.664.01.368.368,0,0,0-.166.716,1.8,1.8,0,0,0,1.115-.048c.993-.418,4.437-3.737,4.818-8.025.417-4.693-2.652-6.364-2.683-6.38a2.65,2.65,0,0,0-.271-.105,4.982,4.982,0,0,1-3.45-3.321,3.52,3.52,0,0,0-.506-1.1.368.368,0,0,0-.6,0,3.517,3.517,0,0,0-.506,1.1A4.982,4.982,0,0,1,2.993,7.373a2.668,2.668,0,0,0-.271.105c-.031.016-3.1,1.687-2.683,6.38" transform="translate(0 -2.8)" fill="#009b72"/>
  </g>
</svg>
