<svg xmlns="http://www.w3.org/2000/svg" width="34" height="34" viewBox="0 0 34 34">
  <g id="Group_2242" data-name="Group 2242" transform="translate(6198 7895)">
    <rect id="Rectangle_3412" data-name="Rectangle 3412" width="34" height="34" transform="translate(-6198 -7895)" fill="none"/>
    <g id="Group_2240" data-name="Group 2240" transform="translate(-6191 -7888)">
      <path id="Path_1990" data-name="Path 1990" d="M447.8,348.179l4.089-3.278a.367.367,0,0,0-.018-.587l-.038-.027a1.716,1.716,0,0,1-.668-1.843l.44-1.638a.367.367,0,0,0-.409-.459l-1.337.2a1.709,1.709,0,0,1-1.776-.912.367.367,0,0,0-.577-.1l-1.047.976a.339.339,0,0,1-.563-.317l.723-3.446a.367.367,0,0,0-.5-.416,2.249,2.249,0,0,1-2.8-.984l-.782-1.4a.367.367,0,0,0-.641,0l-.782,1.4a2.248,2.248,0,0,1-2.8.984.367.367,0,0,0-.5.416l.723,3.446a.339.339,0,0,1-.563.317l-1.047-.976a.367.367,0,0,0-.577.1,1.71,1.71,0,0,1-1.776.912l-1.337-.2a.367.367,0,0,0-.409.459l.44,1.638a1.717,1.717,0,0,1-.668,1.843l-.037.026a.367.367,0,0,0-.018.587l4.089,3.278a.981.981,0,0,1,.324,1.065l-.313,1a.368.368,0,0,0,.421.471l3.51-.685a.725.725,0,0,1,.278,0A.367.367,0,1,0,441,349.3a1.447,1.447,0,0,0-.559,0l-2.9.567.128-.407a1.711,1.711,0,0,0-.565-1.859l-3.739-3a2.456,2.456,0,0,0,.624-2.354l-.295-1.1.782.117a2.445,2.445,0,0,0,2.283-.9l.726.677a1.074,1.074,0,0,0,1.783-1.006l-.6-2.854a2.987,2.987,0,0,0,3.094-1.482l.461-.824.461.824a2.986,2.986,0,0,0,3.094,1.482l-.6,2.854a1.074,1.074,0,0,0,1.783,1.006l.726-.677a2.443,2.443,0,0,0,2.283.9l.782-.117-.295,1.1a2.456,2.456,0,0,0,.624,2.354l-3.739,3a1.711,1.711,0,0,0-.565,1.859l.128.407L444,349.3a1.449,1.449,0,0,0-.593.006.367.367,0,0,0,.158.718.718.718,0,0,1,.294,0l3.51.685a.379.379,0,0,0,.07.007.368.368,0,0,0,.351-.477l-.313-1a.981.981,0,0,1,.324-1.065" transform="translate(-432.41 -333.763)" fill="#009b72"/>
      <path id="Path_1991" data-name="Path 1991" d="M487.7,392.458a.363.363,0,0,0-.456-.565l-4.881,3.942V387.2a.363.363,0,1,0-.726,0v8.633l-4.881-3.942a.363.363,0,0,0-.456.565l5.337,4.31v4.5a.363.363,0,0,0,.726,0v-4.5Z" transform="translate(-472.193 -382.022)" fill="#009b72"/>
    </g>
  </g>
</svg>
